<svg xmlns="http://www.w3.org/2000/svg" viewBox="0 0 769.02 190.24"><defs><style>.cls-1{isolation:isolate;}.cls-2{fill:#a4aaab;}.cls-10,.cls-3{fill:#7bb52d;}.cls-10,.cls-11,.cls-13,.cls-15,.cls-16,.cls-17,.cls-18,.cls-23,.cls-24,.cls-25,.cls-26,.cls-3,.cls-30,.cls-31,.cls-32,.cls-5,.cls-8,.cls-9{stroke:#4d3224;}.cls-10,.cls-11,.cls-13,.cls-15,.cls-16,.cls-17,.cls-18,.cls-20,.cls-3{stroke-miterlimit:10;}.cls-3{stroke-width:0.85px;}.cls-4{fill:#72a72a;}.cls-20,.cls-26,.cls-29,.cls-33,.cls-5,.cls-8,.cls-9{fill:none;}.cls-23,.cls-24,.cls-25,.cls-26,.cls-29,.cls-30,.cls-31,.cls-32,.cls-33,.cls-5,.cls-8,.cls-9{stroke-linecap:round;stroke-linejoin:round;}.cls-5{stroke-width:0.86px;}.cls-6{fill:#8acc2b;}.cls-7{fill:#4d3224;}.cls-8{stroke-width:0.85px;}.cls-9{stroke-width:2.05px;}.cls-10,.cls-11,.cls-13,.cls-15,.cls-16,.cls-17,.cls-18,.cls-20{stroke-width:1.24px;}.cls-11{fill:#ff9563;}.cls-12{fill:#de744c;}.cls-13{fill:#f1d4c2;}.cls-14{fill:#e0bfa9;}.cls-15{fill:#9a8e80;}.cls-16,.cls-24,.cls-28{fill:#80d8d6;}.cls-17{fill:#426e75;}.cls-18{fill:#f27e52;}.cls-19{fill:#ffb563;}.cls-20,.cls-33{stroke:#426e75;}.cls-21{opacity:0.4;}.cls-22{fill:#d0ebea;}.cls-23{fill:#77c4ce;}.cls-23,.cls-24,.cls-25,.cls-26,.cls-29,.cls-30,.cls-31,.cls-32,.cls-33{stroke-width:1.22px;}.cls-25{fill:#5aabb9;}.cls-27{opacity:0.23;mix-blend-mode:color-dodge;}.cls-29{stroke:#80d8d6;}.cls-30{fill:#e6ffff;}.cls-31{fill:#9fc2c4;}.cls-32{fill:#c9e2ff;}.cls-34{fill:#4e98a0;}</style></defs><title>m-about-city</title><g class="cls-1"><g id="圖層_2" data-name="圖層 2"><g id="關於"><rect class="cls-2" y="170.87" width="765.41" height="19.36"/><path class="cls-3" d="M56.4,157.47C48,160.7,45.83,158,42.59,155a8.82,8.82,0,0,1-6.25,4.2c-7.7,1-18.42-18.13-4.6-24.49-2.24-11.53,16.89-13.36,21.89-8.89.91.83,3.85,3.71,3.25,4.93-.35.7,4.07-1.17,7,9.63C66,149.72,58.93,156.49,56.4,157.47Z"/><path class="cls-4" d="M56.4,157.47C48,160.7,45.83,158,42.59,155a8.82,8.82,0,0,1-6.25,4.2c-5.89.75-13.55-10.25-10.64-18.33.13,9.28,15.19,15.53,17.1,7.65,1.34,7,16.05,4.94,14.41-1.91,3.23.05,5.53-2.87,6.64-6.23.07.3.15.62.23.94C65.89,148.73,59.52,156.27,56.4,157.47Z"/><path class="cls-5" d="M56.4,157.47C48,160.7,45.83,158,42.59,155a8.82,8.82,0,0,1-6.25,4.2c-7.7,1-18.42-18.13-4.6-24.49-2.24-11.53,16.89-13.36,21.89-8.89.91.83,3.85,3.71,3.25,4.93-.35.7,4.07-1.17,7,9.63C66,149.72,58.93,156.49,56.4,157.47Z"/><path class="cls-6" d="M43,130.22a2.71,2.71,0,0,0-.55.57,2.8,2.8,0,0,0-.52,1.42,3.62,3.62,0,0,0,.15,1.24,1.2,1.2,0,0,0,.5.72c.24.13.58,0,.88-.35a2.61,2.61,0,0,0,.49-1.56,2.41,2.41,0,0,0-.49-1.44A7,7,0,0,0,43,130.22Z"/><path class="cls-6" d="M39.86,130.49a2.67,2.67,0,0,0-.29,1.91c.29.91.89,1.53,1.34,1.38s.59-1,.3-1.92A2.68,2.68,0,0,0,39.86,130.49Z"/><path class="cls-6" d="M36.67,132.19a3,3,0,0,0,0,.69,2.2,2.2,0,0,0,.57,1.24c.68.67,1.38,1,1.82.7s.2-1.23-.54-2a2.32,2.32,0,0,0-1.19-.58A3.73,3.73,0,0,0,36.67,132.19Z"/><path class="cls-6" d="M35.48,135.38a2.29,2.29,0,0,0,1.13,1.13c.69.3,1.4.25,1.58-.12s-.3-.91-1.07-1.24A2.21,2.21,0,0,0,35.48,135.38Z"/><path class="cls-6" d="M46.3,133.2a1.49,1.49,0,0,0-1,.22c-.41.27-.62.67-.5.9s.6.17,1.06-.15A1.42,1.42,0,0,0,46.3,133.2Z"/><path class="cls-6" d="M55,142.5a1.69,1.69,0,0,0-.46.19,1.81,1.81,0,0,0-.66.71,2.62,2.62,0,0,0-.22.77.71.71,0,0,0,.12.54c.11.14.33.17.61,0a1.75,1.75,0,0,0,.67-.8,1.66,1.66,0,0,0,.07-1C55,142.7,55,142.5,55,142.5Z"/><path class="cls-6" d="M50.75,142.09a2.41,2.41,0,0,0-.16.41,1.45,1.45,0,0,0,0,.87c.23.57.57.92.89.87s.43-.68.17-1.3a1.45,1.45,0,0,0-.56-.63A2.54,2.54,0,0,0,50.75,142.09Z"/><path class="cls-6" d="M49.26,143.67a1.51,1.51,0,0,0,.38,1c.34.34.77.49,1,.32s0-.62-.32-1A1.4,1.4,0,0,0,49.26,143.67Z"/><path class="cls-6" d="M56.16,145.07a1,1,0,0,0-.65-.12c-.3.06-.53.24-.51.4s.31.25.66.18A.94.94,0,0,0,56.16,145.07Z"/><path class="cls-7" d="M38,154.61s5.5,1.07,5.5,9.45.3,8.58.3,8.58a4.09,4.09,0,0,1-2.17,2c-1,.34-.46.22,3,.22,2.6,0,3.62.23,3-.11-.81-.43-1.74-1-1.79-1.95-.19-3.68-1.2-9.85-.05-13.61s6.26-5,5.79-5.49-5.51,3.18-5.79,3.07,1.62-6.12,2.06-7.42-.71-.49-1.09.43-1.89,6.5-2.33,6.78-1.82-8.3-2.49-8.57-.61.2-.6,1,2.57,7,1.85,7.33-3.4-1.89-4.56-2.18S38,154.61,38,154.61Z"/><path class="cls-3" d="M397.51,158.47c-8.41,3.23-10.57.48-13.81-2.52a8.82,8.82,0,0,1-6.25,4.2c-7.7,1-18.42-18.14-4.6-24.5-2.24-11.52,16.89-13.35,21.89-8.88.92.82,3.85,3.71,3.25,4.93-.35.7,4.07-1.17,7,9.63C407.16,150.72,400.05,157.49,397.51,158.47Z"/><path class="cls-4" d="M397.51,158.47c-8.41,3.23-10.57.48-13.81-2.52a8.82,8.82,0,0,1-6.25,4.2c-5.89.75-13.55-10.25-10.64-18.33.14,9.28,15.19,15.53,17.1,7.65,1.34,7,16,4.94,14.41-1.91,3.23.05,5.53-2.87,6.64-6.23.07.3.15.62.23.93C407,149.73,400.63,157.27,397.51,158.47Z"/><path class="cls-5" d="M397.51,158.47c-8.41,3.23-10.57.48-13.81-2.52a8.82,8.82,0,0,1-6.25,4.2c-7.7,1-18.42-18.14-4.6-24.5-2.24-11.52,16.89-13.35,21.89-8.88.92.82,3.85,3.71,3.25,4.93-.35.7,4.07-1.17,7,9.63C407.16,150.72,400.05,157.49,397.51,158.47Z"/><path class="cls-6" d="M384.1,131.22a2.63,2.63,0,0,0-.54.56,2.76,2.76,0,0,0-.53,1.43,3.62,3.62,0,0,0,.15,1.24,1.2,1.2,0,0,0,.5.72c.24.13.58,0,.89-.35a2.7,2.7,0,0,0,.48-1.56,2.32,2.32,0,0,0-.49-1.44A7,7,0,0,0,384.1,131.22Z"/><path class="cls-6" d="M381,131.49a2.65,2.65,0,0,0-.3,1.91c.29.91.89,1.53,1.34,1.38s.59-1,.3-1.92A2.68,2.68,0,0,0,381,131.49Z"/><path class="cls-6" d="M377.79,133.19a2.67,2.67,0,0,0,0,.69,2.23,2.23,0,0,0,.57,1.24c.68.67,1.38,1,1.82.7s.2-1.23-.54-2a2.3,2.3,0,0,0-1.19-.57A3.67,3.67,0,0,0,377.79,133.19Z"/><path class="cls-6" d="M376.59,136.38a2.29,2.29,0,0,0,1.13,1.13c.7.29,1.4.25,1.58-.12s-.3-.92-1.07-1.24A2.21,2.21,0,0,0,376.59,136.38Z"/><path class="cls-6" d="M387.41,134.2a1.49,1.49,0,0,0-1,.22c-.4.27-.62.67-.5.9s.6.17,1.07-.15A1.44,1.44,0,0,0,387.41,134.2Z"/><path class="cls-6" d="M396.06,143.5a1.69,1.69,0,0,0-.46.19,1.75,1.75,0,0,0-.66.71,2.54,2.54,0,0,0-.22.77.71.71,0,0,0,.12.54c.11.14.34.16.61,0a1.69,1.69,0,0,0,.67-.8,1.58,1.58,0,0,0,.07-1C396.13,143.7,396.06,143.5,396.06,143.5Z"/><path class="cls-6" d="M391.86,143.09a1.74,1.74,0,0,0-.15.41,1.37,1.37,0,0,0,0,.87c.23.56.57.92.89.87s.43-.68.17-1.3a1.39,1.39,0,0,0-.56-.63A2.54,2.54,0,0,0,391.86,143.09Z"/><path class="cls-6" d="M390.37,144.67a1.51,1.51,0,0,0,.38,1c.34.34.77.49,1,.32s.05-.62-.32-1A1.4,1.4,0,0,0,390.37,144.67Z"/><path class="cls-6" d="M397.27,146.07a.93.93,0,0,0-.65-.12c-.3.05-.53.24-.51.4s.31.25.66.18A.94.94,0,0,0,397.27,146.07Z"/><path class="cls-7" d="M379.09,155.61s5.5,1.06,5.5,9.45.3,8.58.3,8.58a4.09,4.09,0,0,1-2.17,2c-1,.34-.46.22,3,.22,2.6,0,3.62.23,3-.11-.81-.44-1.74-1-1.79-1.95-.19-3.68-1.2-9.85,0-13.61s6.25-5,5.78-5.49-5.51,3.18-5.79,3.07,1.62-6.12,2.06-7.42-.71-.49-1.09.43-1.89,6.5-2.33,6.78-1.82-8.3-2.49-8.57-.61.2-.6,1,2.58,7,1.85,7.33-3.4-1.9-4.56-2.19S379.09,155.61,379.09,155.61Z"/><path class="cls-3" d="M572.58,147.1c.86.34,2,1.27,1.82,3.88-.36,6.13-4.85,9.69-12.62,10.29a9.77,9.77,0,0,1-5.08-1.52,11.55,11.55,0,0,1-8.17,1.25c-7-1.58-11.37-5.39-12-12.71-.35-3.89,3.23-6.2,3.23-6.2s-3.29-3.41-2.33-7.48,6.41-9.61,13-8.13c8.16-8,31.17,1.09,24.7,17.79C574.49,146,572.33,147,572.58,147.1Z"/><path class="cls-4" d="M572.58,147.1c.86.34,2,1.27,1.82,3.88-.36,6.13-4.85,9.69-12.62,10.29a9.77,9.77,0,0,1-5.08-1.52,11.55,11.55,0,0,1-8.17,1.25c-6.25-1.42-10.2-4.55-11.54-10.07,2.81,3.8,7.6,6.36,9.5,2,1.12,6.27,17.65,5.59,17.08-.38,3.41,1.39,7.7-2.91,4.41-5.67,4.25,0,7-6,7.86-11.48a14.42,14.42,0,0,1-.7,8.84C574.49,146,572.33,147,572.58,147.1Z"/><path class="cls-8" d="M572.58,147.1c.86.34,2,1.27,1.82,3.88-.36,6.13-4.85,9.69-12.62,10.29a9.77,9.77,0,0,1-5.08-1.52,11.55,11.55,0,0,1-8.17,1.25c-7-1.58-11.37-5.39-12-12.71-.35-3.89,3.23-6.2,3.23-6.2s-3.29-3.41-2.33-7.48,6.41-9.61,13-8.13c8.16-8,31.17,1.09,24.7,17.79C574.49,146,572.33,147,572.58,147.1Z"/><path class="cls-7" d="M550.36,155.61s5.5,1.06,5.5,9.45.3,8.58.3,8.58a4.09,4.09,0,0,1-2.17,2c-1,.34-.46.22,3,.22,2.6,0,3.61.23,3-.11-.82-.44-1.75-1-1.79-1.95-.19-3.68-1.2-9.85-.05-13.61s6.26-5,5.78-5.49-5.51,3.18-5.79,3.07,1.63-6.12,2.06-7.42-.7-.49-1.08.43-1.9,6.5-2.33,6.78-1.82-8.3-2.49-8.57-.61.2-.6,1,2.57,7,1.85,7.33-3.4-1.9-4.56-2.19S550.36,155.61,550.36,155.61Z"/><path class="cls-6" d="M557.44,131.48a2.52,2.52,0,0,1,.53.55,2.65,2.65,0,0,1,.51,1.38,3.72,3.72,0,0,1-.14,1.21,1.16,1.16,0,0,1-.49.69c-.24.13-.57,0-.86-.33a2.59,2.59,0,0,1-.47-1.52,2.37,2.37,0,0,1,.47-1.4A7.27,7.27,0,0,1,557.44,131.48Z"/><path class="cls-6" d="M560.47,131.74a2.59,2.59,0,0,1,.29,1.86c-.28.88-.86,1.48-1.3,1.34s-.58-1-.29-1.86A2.61,2.61,0,0,1,560.47,131.74Z"/><path class="cls-6" d="M563.57,133.39a2.53,2.53,0,0,1,0,.67,2.14,2.14,0,0,1-.56,1.2c-.65.66-1.34,1-1.77.69s-.19-1.2.53-1.92a2.24,2.24,0,0,1,1.16-.56A4.68,4.68,0,0,1,563.57,133.39Z"/><path class="cls-6" d="M564.73,136.49a2.27,2.27,0,0,1-1.09,1.1c-.68.28-1.37.24-1.54-.12s.29-.89,1-1.2A2.16,2.16,0,0,1,564.73,136.49Z"/><path class="cls-6" d="M554.23,134.38a1.38,1.38,0,0,1,1,.21c.39.26.6.65.48.87s-.58.17-1-.14A1.39,1.39,0,0,1,554.23,134.38Z"/><path class="cls-6" d="M545.83,143.4a1.57,1.57,0,0,1,.45.19,1.69,1.69,0,0,1,.64.68,2.46,2.46,0,0,1,.21.75.73.73,0,0,1-.11.53c-.11.13-.33.16-.59,0a1.58,1.58,0,0,1-.65-.77,1.42,1.42,0,0,1-.07-.94A3.18,3.18,0,0,1,545.83,143.4Z"/><path class="cls-6" d="M549.91,143a1.77,1.77,0,0,1,.15.4,1.38,1.38,0,0,1,0,.85c-.22.54-.55.88-.87.84s-.41-.66-.17-1.26a1.47,1.47,0,0,1,.55-.62A3.47,3.47,0,0,1,549.91,143Z"/><path class="cls-6" d="M551.36,144.54a1.42,1.42,0,0,1-.37.91c-.33.34-.75.48-.94.32s0-.6.32-1A1.34,1.34,0,0,1,551.36,144.54Z"/><path class="cls-6" d="M544.66,145.89a.94.94,0,0,1,.63-.12c.29.06.51.24.5.4s-.3.24-.65.17A.87.87,0,0,1,544.66,145.89Z"/><path class="cls-3" d="M738.62,158.44c-8.41,3.23-10.57.48-13.81-2.52a8.82,8.82,0,0,1-6.25,4.2c-7.7,1-18.42-18.14-4.59-24.5-2.25-11.52,16.88-13.35,21.88-8.88.92.82,3.85,3.71,3.25,4.93-.35.7,4.07-1.17,7,9.63C748.27,150.69,741.16,157.46,738.62,158.44Z"/><path class="cls-4" d="M738.62,158.44c-8.41,3.23-10.57.48-13.81-2.52a8.82,8.82,0,0,1-6.25,4.2c-5.89.75-13.55-10.25-10.63-18.33.13,9.28,15.19,15.53,17.09,7.65,1.34,7,16.05,4.94,14.41-1.91,3.24.05,5.53-2.87,6.64-6.23.07.3.15.62.23.93C748.11,149.7,741.74,157.24,738.62,158.44Z"/><path class="cls-5" d="M738.62,158.44c-8.41,3.23-10.57.48-13.81-2.52a8.82,8.82,0,0,1-6.25,4.2c-7.7,1-18.42-18.14-4.59-24.5-2.25-11.52,16.88-13.35,21.88-8.88.92.82,3.85,3.71,3.25,4.93-.35.7,4.07-1.17,7,9.63C748.27,150.69,741.16,157.46,738.62,158.44Z"/><path class="cls-6" d="M725.21,131.19a2.63,2.63,0,0,0-.54.56,2.76,2.76,0,0,0-.53,1.43,3.62,3.62,0,0,0,.15,1.24,1.2,1.2,0,0,0,.5.72c.24.13.58,0,.89-.35a2.7,2.7,0,0,0,.48-1.56,2.32,2.32,0,0,0-.49-1.44A5.2,5.2,0,0,0,725.21,131.19Z"/><path class="cls-6" d="M722.09,131.46a2.71,2.71,0,0,0-.3,1.91c.29.91.89,1.53,1.35,1.38s.59-1,.29-1.92A2.68,2.68,0,0,0,722.09,131.46Z"/><path class="cls-6" d="M718.9,133.16a2.67,2.67,0,0,0,0,.69,2.23,2.23,0,0,0,.57,1.24c.68.67,1.38,1,1.82.7s.21-1.23-.53-2a2.33,2.33,0,0,0-1.2-.57A3.67,3.67,0,0,0,718.9,133.16Z"/><path class="cls-6" d="M717.7,136.35a2.29,2.29,0,0,0,1.13,1.13c.7.29,1.4.25,1.58-.12s-.3-.92-1.07-1.24A2.21,2.21,0,0,0,717.7,136.35Z"/><path class="cls-6" d="M728.52,134.17a1.49,1.49,0,0,0-1,.22c-.4.27-.62.67-.5.9s.6.17,1.07-.15A1.44,1.44,0,0,0,728.52,134.17Z"/><path class="cls-6" d="M737.17,143.47a1.69,1.69,0,0,0-.46.19,1.75,1.75,0,0,0-.66.71,2.54,2.54,0,0,0-.22.77.71.71,0,0,0,.12.54c.11.14.34.16.61,0a1.69,1.69,0,0,0,.67-.8,1.51,1.51,0,0,0,.07-1C737.24,143.67,737.17,143.47,737.17,143.47Z"/><path class="cls-6" d="M733,143.06a1.74,1.74,0,0,0-.15.41,1.37,1.37,0,0,0,0,.87c.23.56.57.92.89.87s.43-.68.18-1.3a1.47,1.47,0,0,0-.57-.63A2.54,2.54,0,0,0,733,143.06Z"/><path class="cls-6" d="M731.48,144.64a1.51,1.51,0,0,0,.38,1c.34.34.77.49,1,.32s0-.62-.32-1A1.4,1.4,0,0,0,731.48,144.64Z"/><path class="cls-6" d="M738.38,146a.93.93,0,0,0-.65-.12c-.3.05-.53.24-.51.4s.31.25.66.18A.94.94,0,0,0,738.38,146Z"/><path class="cls-7" d="M720.2,155.58s5.5,1.06,5.5,9.45.3,8.58.3,8.58a4.09,4.09,0,0,1-2.17,1.95c-1,.34-.46.22,3,.22,2.6,0,3.62.23,3-.11-.81-.44-1.74-1-1.79-1.95-.19-3.68-1.2-9.85,0-13.61s6.25-5,5.78-5.49-5.51,3.18-5.79,3.07,1.62-6.12,2.06-7.42-.71-.49-1.09.43-1.89,6.5-2.33,6.78-1.81-8.3-2.49-8.57-.61.2-.6,1,2.58,7,1.85,7.33-3.4-1.9-4.56-2.19S720.2,155.58,720.2,155.58Z"/><line class="cls-9" x1="1.53" y1="169.06" x2="768" y2="169.06"/><path class="cls-10" d="M557.9,176.18a1.55,1.55,0,0,1-.66-1.9c.38-.88.78-.43,1.32-.06-.39-1.61-.37-4.4.65-5.69.87-1.1,2.58.18,3.16,1.28.45-.72.67-1.63,1.62-1.53.59.07.9.74,1.46.94-.39-1.62.46-4.54,1.87-5.09,1.7-.66,2.33,1.62,2.32,3.16.57-2.56,2.17-.31,2.78.82.38-.41.55-1.14,1.21-.94.43.13.77.9.85,1.38.24-1.78,2.15-4.39,3.78-3.81s1.53,2.53,1.56,4.13c.44-1.1,2-.93,2.6-.16a3.62,3.62,0,0,1,0,3.3c.8-.82,1.56-2.45,2.78-1.77,1.57.86.39,2.82.1,4.15.18-.8,2.48-.65,2.59.28s-1.17,1.44-1.8,1.51Z"/><path class="cls-11" d="M587.93,68.56c-8.64,0-15.64,7.69-15.64,17.18h31.28C603.57,76.25,596.57,68.56,587.93,68.56Z"/><path class="cls-12" d="M589.34,83.19c0,6.58-.7,11.92-1.56,11.92s-1.56-5.34-1.56-11.92.7-11.91,1.56-11.91S589.34,76.61,589.34,83.19Z"/><path class="cls-12" d="M582.12,83.19c0,6.69,1.64,12.14.83,12.49s-4-5-4-12.49,3.21-12.89,4-12.49S582.12,76.5,582.12,83.19Z"/><path class="cls-12" d="M593.43,83.19c0,6.69-1.64,12.14-.82,12.49s4-5,3.94-12.49-3.21-12.89-3.94-12.49S593.43,76.5,593.43,83.19Z"/><polygon class="cls-13" points="603.32 92.87 607.84 92.87 607.84 176.36 568.85 176.36 568.85 92.87 573.37 92.87 603.32 92.87"/><rect class="cls-14" x="577.17" y="93.34" width="4.5" height="46.78"/><rect class="cls-14" x="585.98" y="93.34" width="4.5" height="46.78"/><rect class="cls-14" x="594.78" y="93.34" width="4.5" height="46.78"/><rect class="cls-15" x="568.85" y="145.66" width="38.99" height="30.7"/><polygon class="cls-16" points="595.37 114.47 599.28 114.47 599.28 114.43 599.28 101.17 599.28 100.44 594.78 100.44 594.78 114.43 595.37 114.43 595.37 114.47"/><polygon class="cls-16" points="595.37 133.41 599.28 133.41 599.28 133.37 599.28 120.11 599.28 119.37 594.78 119.37 594.78 133.37 595.37 133.37 595.37 133.41"/><polygon class="cls-16" points="586.56 114.47 590.47 114.47 590.47 114.43 590.47 101.17 590.47 100.44 585.98 100.44 585.98 114.43 586.56 114.43 586.56 114.47"/><polygon class="cls-16" points="586.56 133.41 590.47 133.41 590.47 133.37 590.47 120.11 590.47 119.37 585.98 119.37 585.98 133.37 586.56 133.37 586.56 133.41"/><polygon class="cls-16" points="577.76 114.47 581.67 114.47 581.67 114.43 581.67 101.17 581.67 100.44 577.17 100.44 577.17 114.43 577.76 114.43 577.76 114.47"/><polygon class="cls-16" points="577.76 133.41 581.67 133.41 581.67 133.37 581.67 120.11 581.67 119.37 577.17 119.37 577.17 133.37 577.76 133.37 577.76 133.41"/><rect class="cls-16" x="572.51" y="150.74" width="31.68" height="25.63"/><rect class="cls-17" x="567.92" y="145.66" width="41.24" height="4.97"/><rect class="cls-18" x="567.6" y="87.9" width="41.24" height="4.97"/><rect class="cls-11" x="565.71" y="86.19" width="44.7" height="1.71"/><rect class="cls-11" x="568.85" y="140.58" width="38.99" height="5.08"/><rect class="cls-19" x="569.36" y="141.19" width="37.95" height="1.65"/><line class="cls-20" x1="572.98" y1="159.4" x2="604.04" y2="159.4"/><line class="cls-20" x1="579" y1="150.74" x2="579" y2="176.18"/><line class="cls-20" x1="597.96" y1="150.74" x2="597.96" y2="176.18"/><line class="cls-20" x1="588.33" y1="150.74" x2="588.33" y2="176.18"/><g class="cls-21"><polygon class="cls-22" points="600.24 151.8 600.24 151.2 597.67 151.2 574.08 176.18 577.22 176.18 600.24 151.8"/><polygon class="cls-22" points="572.74 166.88 572.74 174.05 594.31 151.2 587.54 151.2 572.74 166.88"/></g><polygon class="cls-23" points="177.06 176.36 205.1 176.36 205.1 5.3 177.06 23.05 177.06 176.36"/><rect class="cls-24" x="179.09" y="32.74" width="23.82" height="1.08"/><polygon class="cls-24" points="176.89 31.28 205.1 31.28 205.1 35.28 176.89 35.28 176.89 31.28 176.89 31.28"/><rect class="cls-24" x="179.09" y="42.66" width="23.82" height="1.08"/><polygon class="cls-24" points="176.89 41.2 205.1 41.2 205.1 45.2 176.89 45.2 176.89 41.2 176.89 41.2"/><rect class="cls-24" x="179.09" y="52.58" width="23.82" height="1.08"/><polygon class="cls-24" points="176.89 51.12 205.1 51.12 205.1 55.12 176.89 55.12 176.89 51.12 176.89 51.12"/><rect class="cls-24" x="179.09" y="62.5" width="23.82" height="1.08"/><polygon class="cls-24" points="176.89 61.04 205.1 61.04 205.1 65.03 176.89 65.03 176.89 61.04 176.89 61.04"/><rect class="cls-24" x="179.09" y="72.42" width="23.82" height="1.08"/><polygon class="cls-24" points="176.89 70.96 205.1 70.96 205.1 74.95 176.89 74.95 176.89 70.96 176.89 70.96"/><rect class="cls-24" x="179.09" y="82.34" width="23.82" height="1.08"/><polygon class="cls-24" points="176.89 80.88 205.1 80.88 205.1 84.88 176.89 84.88 176.89 80.88 176.89 80.88"/><rect class="cls-24" x="179.09" y="91.59" width="23.82" height="1.08"/><polygon class="cls-24" points="176.89 90.14 205.1 90.14 205.1 94.13 176.89 94.13 176.89 90.14 176.89 90.14"/><rect class="cls-24" x="179.09" y="101.51" width="23.82" height="1.08"/><polygon class="cls-24" points="176.89 100.06 205.1 100.06 205.1 104.05 176.89 104.05 176.89 100.06 176.89 100.06"/><rect class="cls-24" x="179.09" y="111.43" width="23.82" height="1.08"/><polygon class="cls-24" points="176.89 109.98 205.1 109.98 205.1 113.97 176.89 113.97 176.89 109.98 176.89 109.98"/><rect class="cls-24" x="179.09" y="121.35" width="23.82" height="1.08"/><polygon class="cls-24" points="176.89 119.89 205.1 119.89 205.1 123.89 176.89 123.89 176.89 119.89 176.89 119.89"/><rect class="cls-24" x="179.09" y="131.27" width="23.82" height="1.08"/><polygon class="cls-24" points="176.89 129.81 205.1 129.81 205.1 133.81 176.89 133.81 176.89 129.81 176.89 129.81"/><rect class="cls-24" x="179.09" y="141.19" width="23.82" height="1.08"/><polygon class="cls-24" points="176.89 139.74 205.1 139.74 205.1 143.73 176.89 143.73 176.89 139.74 176.89 139.74"/><polygon class="cls-25" points="205.1 5.3 195.19 0.61 169.45 17.8 177.06 23.05 205.1 5.3"/><polygon class="cls-25" points="169.45 17.8 169.45 43.74 177.06 48.41 177.06 23.05 169.45 17.8"/><line class="cls-26" x1="173.25" y1="25.98" x2="173.25" y2="45.72"/><g class="cls-27"><polygon class="cls-28" points="205.03 69.59 205.03 58.11 177.11 87.5 177.11 98.99 205.03 69.59"/><polygon class="cls-28" points="177.11 62.92 177.11 82.42 205.03 53.03 205.03 32.98 177.11 62.92"/></g><polygon class="cls-23" points="185.1 176.36 159.32 176.36 159.32 38.17 185.1 53.55 185.1 176.36"/><polygon class="cls-25" points="166.72 42.59 166.72 176.36 159.32 176.36 159.32 37.87 166.72 42.59"/><line class="cls-29" x1="182.35" y1="53.51" x2="182.35" y2="175.19"/><line class="cls-29" x1="179.37" y1="51.59" x2="179.37" y2="175.19"/><line class="cls-29" x1="176.27" y1="49.6" x2="176.27" y2="175.19"/><line class="cls-29" x1="172.86" y1="47.95" x2="172.86" y2="175.19"/><line class="cls-29" x1="169.45" y1="45.72" x2="169.45" y2="175.29"/><line class="cls-29" x1="184.17" y1="56.53" x2="167.9" y2="56.53"/><line class="cls-29" x1="183.94" y1="59.78" x2="167.68" y2="59.78"/><line class="cls-29" x1="183.94" y1="63.5" x2="167.68" y2="63.5"/><line class="cls-29" x1="183.94" y1="67.22" x2="167.68" y2="67.22"/><line class="cls-29" x1="183.94" y1="70.94" x2="167.68" y2="70.94"/><line class="cls-29" x1="183.94" y1="74.66" x2="167.68" y2="74.66"/><line class="cls-29" x1="183.94" y1="78.38" x2="167.68" y2="78.38"/><line class="cls-29" x1="183.94" y1="82.1" x2="167.68" y2="82.1"/><line class="cls-29" x1="183.94" y1="85.83" x2="167.68" y2="85.83"/><line class="cls-29" x1="183.94" y1="89.55" x2="167.68" y2="89.55"/><line class="cls-29" x1="183.94" y1="93.27" x2="167.68" y2="93.27"/><line class="cls-29" x1="183.94" y1="96.99" x2="167.68" y2="96.99"/><line class="cls-29" x1="183.94" y1="100.71" x2="167.68" y2="100.71"/><line class="cls-29" x1="183.94" y1="104.43" x2="167.68" y2="104.43"/><line class="cls-29" x1="183.94" y1="108.15" x2="167.68" y2="108.15"/><line class="cls-29" x1="183.94" y1="111.87" x2="167.68" y2="111.87"/><line class="cls-29" x1="183.94" y1="115.59" x2="167.68" y2="115.59"/><line class="cls-29" x1="183.94" y1="119.31" x2="167.68" y2="119.31"/><line class="cls-29" x1="183.94" y1="123.03" x2="167.68" y2="123.03"/><line class="cls-29" x1="183.94" y1="126.75" x2="167.68" y2="126.75"/><line class="cls-29" x1="183.94" y1="130.47" x2="167.68" y2="130.47"/><line class="cls-29" x1="183.94" y1="134.19" x2="167.68" y2="134.19"/><line class="cls-29" x1="183.94" y1="137.92" x2="167.68" y2="137.92"/><line class="cls-29" x1="183.94" y1="141.64" x2="167.68" y2="141.64"/><line class="cls-29" x1="183.94" y1="145.36" x2="167.68" y2="145.36"/><line class="cls-29" x1="183.94" y1="149.08" x2="167.68" y2="149.08"/><line class="cls-29" x1="183.94" y1="152.8" x2="167.68" y2="152.8"/><line class="cls-29" x1="183.94" y1="156.52" x2="167.68" y2="156.52"/><line class="cls-29" x1="183.94" y1="160.24" x2="167.68" y2="160.24"/><line class="cls-29" x1="183.94" y1="163.96" x2="167.68" y2="163.96"/><line class="cls-29" x1="183.94" y1="167.68" x2="167.68" y2="167.68"/><g class="cls-27"><polygon class="cls-28" points="166.72 102.99 166.72 95.52 184.9 114.65 184.9 122.13 166.72 102.99"/><polygon class="cls-28" points="184.9 98.65 184.9 111.34 166.72 92.21 166.72 79.16 184.9 98.65"/></g><rect class="cls-30" x="233.2" y="58.22" width="14.97" height="12.34"/><rect class="cls-31" x="232.69" y="56.98" width="15.99" height="1.24"/><rect class="cls-32" x="226.61" y="65.68" width="28.15" height="12.34"/><rect class="cls-31" x="225.76" y="64.13" width="29.84" height="1.54"/><rect class="cls-30" x="215.87" y="75.11" width="49.63" height="101.25"/><rect class="cls-31" x="214.98" y="73.17" width="51.4" height="1.94"/><path class="cls-24" d="M250.41,66.74A2.21,2.21,0,0,1,252.59,69v4.19h-4.36V69A2.2,2.2,0,0,1,250.41,66.74Z"/><path class="cls-24" d="M243.92,66.74A2.2,2.2,0,0,1,246.1,69v4.19h-4.36V69A2.21,2.21,0,0,1,243.92,66.74Z"/><path class="cls-24" d="M237.44,66.74A2.2,2.2,0,0,1,239.62,69v4.19h-4.36V69A2.21,2.21,0,0,1,237.44,66.74Z"/><path class="cls-24" d="M231,66.74A2.21,2.21,0,0,1,233.14,69v4.19h-4.36V69A2.21,2.21,0,0,1,231,66.74Z"/><rect class="cls-7" x="246.1" y="57.92" width="0.74" height="6.46"/><rect class="cls-7" x="242.31" y="57.92" width="0.74" height="6.46"/><rect class="cls-7" x="238.51" y="57.92" width="0.74" height="6.46"/><rect class="cls-7" x="234.71" y="57.92" width="0.74" height="6.46"/><rect class="cls-24" x="229.51" y="159.28" width="22.68" height="17.09" transform="translate(481.7 335.64) rotate(180)"/><g class="cls-21"><polygon class="cls-22" points="234.16 160.21 234.16 159.82 235.8 159.82 250.91 175.82 248.9 175.82 234.16 160.21"/><polygon class="cls-22" points="251.77 169.86 251.77 174.45 237.95 159.82 242.29 159.82 251.77 169.86"/></g><line class="cls-33" x1="240.68" y1="159.83" x2="240.68" y2="175.91"/><polygon class="cls-34" points="260.65 89.14 259.86 89.14 259.86 89.17 254.57 89.17 254.57 89.14 254.57 79.74 254.57 79.22 260.65 79.22 260.65 89.14"/><polygon class="cls-34" points="252.19 89.09 251.4 89.09 251.4 89.12 246.1 89.12 246.1 89.09 246.1 79.69 246.1 79.17 252.19 79.17 252.19 89.09"/><polygon class="cls-34" points="235.26 89.09 234.47 89.09 234.47 89.12 229.18 89.12 229.18 89.09 229.18 79.69 229.18 79.17 235.26 79.17 235.26 89.09"/><polygon class="cls-34" points="226.79 79.22 226.79 89.14 226 89.14 226 89.17 220.71 89.17 220.71 89.14 220.71 79.74 220.71 79.22 226.79 79.22"/><polygon class="cls-34" points="242.93 89.17 237.64 89.17 237.64 89.14 237.64 79.74 237.64 79.22 243.72 79.22 243.72 89.14 242.93 89.14 242.93 89.17"/><polygon class="cls-34" points="260.65 102.81 259.86 102.81 259.86 102.84 254.57 102.84 254.57 102.81 254.57 93.41 254.57 92.89 260.65 92.89 260.65 102.81"/><polygon class="cls-34" points="252.19 102.76 251.4 102.76 251.4 102.79 246.1 102.79 246.1 102.76 246.1 93.36 246.1 92.84 252.19 92.84 252.19 102.76"/><polygon class="cls-34" points="235.26 102.76 234.47 102.76 234.47 102.79 229.18 102.79 229.18 102.76 229.18 93.36 229.18 92.84 235.26 92.84 235.26 102.76"/><polygon class="cls-34" points="226.79 92.89 226.79 102.81 226 102.81 226 102.84 220.71 102.84 220.71 102.81 220.71 93.41 220.71 92.89 226.79 92.89"/><polygon class="cls-34" points="242.93 102.84 237.64 102.84 237.64 102.81 237.64 93.41 237.64 92.89 243.72 92.89 243.72 102.81 242.93 102.81 242.93 102.84"/><polygon class="cls-34" points="260.65 116.48 259.86 116.48 259.86 116.51 254.57 116.51 254.57 116.48 254.57 107.07 254.57 106.55 260.65 106.55 260.65 116.48"/><polygon class="cls-34" points="252.19 116.43 251.4 116.43 251.4 116.45 246.1 116.45 246.1 116.43 246.1 107.03 246.1 106.5 252.19 106.5 252.19 116.43"/><polygon class="cls-34" points="235.26 116.43 234.47 116.43 234.47 116.45 229.18 116.45 229.18 116.43 229.18 107.03 229.18 106.5 235.26 106.5 235.26 116.43"/><polygon class="cls-34" points="226.79 106.55 226.79 116.48 226 116.48 226 116.51 220.71 116.51 220.71 116.48 220.71 107.07 220.71 106.55 226.79 106.55"/><polygon class="cls-34" points="242.93 116.51 237.64 116.51 237.64 116.48 237.64 107.07 237.64 106.55 243.72 106.55 243.72 116.48 242.93 116.48 242.93 116.51"/><polygon class="cls-34" points="260.65 130.15 259.86 130.15 259.86 130.18 254.57 130.18 254.57 130.15 254.57 120.74 254.57 120.22 260.65 120.22 260.65 130.15"/><polygon class="cls-34" points="252.19 130.1 251.4 130.1 251.4 130.12 246.1 130.12 246.1 130.1 246.1 120.69 246.1 120.17 252.19 120.17 252.19 130.1"/><polygon class="cls-34" points="235.26 130.1 234.47 130.1 234.47 130.12 229.18 130.12 229.18 130.1 229.18 120.69 229.18 120.17 235.26 120.17 235.26 130.1"/><polygon class="cls-34" points="226.79 120.22 226.79 130.15 226 130.15 226 130.18 220.71 130.18 220.71 130.15 220.71 120.74 220.71 120.22 226.79 120.22"/><polygon class="cls-34" points="242.93 130.18 237.64 130.18 237.64 130.15 237.64 120.74 237.64 120.22 243.72 120.22 243.72 130.15 242.93 130.15 242.93 130.18"/><polygon class="cls-34" points="260.65 143.81 259.86 143.81 259.86 143.84 254.57 143.84 254.57 143.81 254.57 134.41 254.57 133.89 260.65 133.89 260.65 143.81"/><polygon class="cls-34" points="252.19 143.76 251.4 143.76 251.4 143.79 246.1 143.79 246.1 143.76 246.1 134.36 246.1 133.84 252.19 133.84 252.19 143.76"/><polygon class="cls-34" points="235.26 143.76 234.47 143.76 234.47 143.79 229.18 143.79 229.18 143.76 229.18 134.36 229.18 133.84 235.26 133.84 235.26 143.76"/><polygon class="cls-34" points="226.79 133.89 226.79 143.81 226 143.81 226 143.84 220.71 143.84 220.71 143.81 220.71 134.41 220.71 133.89 226.79 133.89"/><polygon class="cls-34" points="242.93 143.84 237.64 143.84 237.64 143.81 237.64 134.41 237.64 133.89 243.72 133.89 243.72 143.81 242.93 143.81 242.93 143.84"/><polygon class="cls-34" points="260.65 157.48 259.86 157.48 259.86 157.51 254.57 157.51 254.57 157.48 254.57 148.08 254.57 147.56 260.65 147.56 260.65 157.48"/><polygon class="cls-34" points="252.19 157.43 251.4 157.43 251.4 157.46 246.1 157.46 246.1 157.43 246.1 148.03 246.1 147.51 252.19 147.51 252.19 157.43"/><polygon class="cls-34" points="235.26 157.43 234.47 157.43 234.47 157.46 229.18 157.46 229.18 157.43 229.18 148.03 229.18 147.51 235.26 147.51 235.26 157.43"/><polygon class="cls-34" points="226.79 147.56 226.79 157.48 226 157.48 226 157.51 220.71 157.51 220.71 157.48 220.71 148.08 220.71 147.56 226.79 147.56"/><polygon class="cls-34" points="242.93 157.51 237.64 157.51 237.64 157.48 237.64 148.08 237.64 147.56 243.72 147.56 243.72 157.48 242.93 157.48 242.93 157.51"/><polygon class="cls-24" points="260.65 87.78 259.86 87.78 259.86 87.81 254.57 87.81 254.57 87.78 254.57 78.37 254.57 77.85 260.65 77.85 260.65 87.78"/><polygon class="cls-24" points="252.19 87.73 251.4 87.73 251.4 87.75 246.1 87.75 246.1 87.73 246.1 78.32 246.1 77.8 252.19 77.8 252.19 87.73"/><polygon class="cls-24" points="235.26 87.73 234.47 87.73 234.47 87.75 229.18 87.75 229.18 87.73 229.18 78.32 229.18 77.8 235.26 77.8 235.26 87.73"/><polygon class="cls-24" points="226.79 77.85 226.79 87.78 226 87.78 226 87.81 220.71 87.81 220.71 87.78 220.71 78.37 220.71 77.85 226.79 77.85"/><polygon class="cls-24" points="242.93 87.81 237.64 87.81 237.64 87.78 237.64 78.37 237.64 77.85 243.72 77.85 243.72 87.78 242.93 87.78 242.93 87.81"/><polygon class="cls-24" points="260.65 101.44 259.86 101.44 259.86 101.47 254.57 101.47 254.57 101.44 254.57 92.04 254.57 91.52 260.65 91.52 260.65 101.44"/><polygon class="cls-24" points="252.19 101.39 251.4 101.39 251.4 101.42 246.1 101.42 246.1 101.39 246.1 91.99 246.1 91.47 252.19 91.47 252.19 101.39"/><polygon class="cls-24" points="235.26 101.39 234.47 101.39 234.47 101.42 229.18 101.42 229.18 101.39 229.18 91.99 229.18 91.47 235.26 91.47 235.26 101.39"/><polygon class="cls-24" points="226.79 91.52 226.79 101.44 226 101.44 226 101.47 220.71 101.47 220.71 101.44 220.71 92.04 220.71 91.52 226.79 91.52"/><polygon class="cls-24" points="242.93 101.47 237.64 101.47 237.64 101.44 237.64 92.04 237.64 91.52 243.72 91.52 243.72 101.44 242.93 101.44 242.93 101.47"/><polygon class="cls-24" points="260.65 115.11 259.86 115.11 259.86 115.14 254.57 115.14 254.57 115.11 254.57 105.71 254.57 105.19 260.65 105.19 260.65 115.11"/><polygon class="cls-24" points="252.19 115.06 251.4 115.06 251.4 115.09 246.1 115.09 246.1 115.06 246.1 105.66 246.1 105.14 252.19 105.14 252.19 115.06"/><polygon class="cls-24" points="235.26 115.06 234.47 115.06 234.47 115.09 229.18 115.09 229.18 115.06 229.18 105.66 229.18 105.14 235.26 105.14 235.26 115.06"/><polygon class="cls-24" points="226.79 105.19 226.79 115.11 226 115.11 226 115.14 220.71 115.14 220.71 115.11 220.71 105.71 220.71 105.19 226.79 105.19"/><polygon class="cls-24" points="242.93 115.14 237.64 115.14 237.64 115.11 237.64 105.71 237.64 105.19 243.72 105.19 243.72 115.11 242.93 115.11 242.93 115.14"/><polygon class="cls-24" points="260.65 128.78 259.86 128.78 259.86 128.81 254.57 128.81 254.57 128.78 254.57 119.37 254.57 118.86 260.65 118.86 260.65 128.78"/><polygon class="cls-24" points="252.19 128.73 251.4 128.73 251.4 128.75 246.1 128.75 246.1 128.73 246.1 119.33 246.1 118.81 252.19 118.81 252.19 128.73"/><polygon class="cls-24" points="235.26 128.73 234.47 128.73 234.47 128.75 229.18 128.75 229.18 128.73 229.18 119.33 229.18 118.81 235.26 118.81 235.26 128.73"/><polygon class="cls-24" points="226.79 118.86 226.79 128.78 226 128.78 226 128.81 220.71 128.81 220.71 128.78 220.71 119.37 220.71 118.86 226.79 118.86"/><polygon class="cls-24" points="242.93 128.81 237.64 128.81 237.64 128.78 237.64 119.37 237.64 118.86 243.72 118.86 243.72 128.78 242.93 128.78 242.93 128.81"/><polygon class="cls-24" points="260.65 142.45 259.86 142.45 259.86 142.48 254.57 142.48 254.57 142.45 254.57 133.04 254.57 132.52 260.65 132.52 260.65 142.45"/><polygon class="cls-24" points="252.19 142.4 251.4 142.4 251.4 142.42 246.1 142.42 246.1 142.4 246.1 133 246.1 132.47 252.19 132.47 252.19 142.4"/><polygon class="cls-24" points="235.26 142.4 234.47 142.4 234.47 142.42 229.18 142.42 229.18 142.4 229.18 133 229.18 132.47 235.26 132.47 235.26 142.4"/><polygon class="cls-24" points="226.79 132.52 226.79 142.45 226 142.45 226 142.48 220.71 142.48 220.71 142.45 220.71 133.04 220.71 132.52 226.79 132.52"/><polygon class="cls-24" points="242.93 142.48 237.64 142.48 237.64 142.45 237.64 133.04 237.64 132.52 243.72 132.52 243.72 142.45 242.93 142.45 242.93 142.48"/><polygon class="cls-24" points="260.65 156.12 259.86 156.12 259.86 156.14 254.57 156.14 254.57 156.12 254.57 146.71 254.57 146.19 260.65 146.19 260.65 156.12"/><polygon class="cls-24" points="252.19 156.06 251.4 156.06 251.4 156.09 246.1 156.09 246.1 156.06 246.1 146.66 246.1 146.14 252.19 146.14 252.19 156.06"/><polygon class="cls-24" points="235.26 156.06 234.47 156.06 234.47 156.09 229.18 156.09 229.18 156.06 229.18 146.66 229.18 146.14 235.26 146.14 235.26 156.06"/><polygon class="cls-24" points="226.79 146.19 226.79 156.12 226 156.12 226 156.14 220.71 156.14 220.71 156.12 220.71 146.71 220.71 146.19 226.79 146.19"/><polygon class="cls-24" points="242.93 156.14 237.64 156.14 237.64 156.12 237.64 146.71 237.64 146.19 243.72 146.19 243.72 156.12 242.93 156.12 242.93 156.14"/></g></g></g></svg>