<svg xmlns="http://www.w3.org/2000/svg" viewBox="0 0 1922.27 264.07"><defs><style>.cls-1{fill:#e7bc87;}.cls-2{opacity:0.67;}.cls-11,.cls-3{fill:#dcb180;}.cls-4{fill:#ea2e2a;}.cls-5{fill:#f17b31;}.cls-6{fill:#ffb01f;}.cls-7{fill:#fff;}.cls-8{fill:#4d3224;}.cls-9{fill:#f1ca9e;fill-rule:evenodd;}.cls-10{opacity:0.63;}.cls-11{opacity:0.46;}.cls-12,.cls-15,.cls-16,.cls-17,.cls-18{fill:none;stroke:#4d3224;stroke-linecap:round;stroke-linejoin:round;}.cls-12{stroke-width:2px;}.cls-13{fill:#b9a4ba;}.cls-14{fill:#a78fa9;}.cls-15{stroke-width:1.34px;}.cls-16{stroke-width:1.7px;}.cls-17{stroke-width:1.25px;}.cls-18{stroke-width:1.53px;}</style></defs><title>skills-seasand</title><g id="圖層_2" data-name="圖層 2"><g id="技能"><path class="cls-1" d="M85.2,24c42.19,14.8,62.9,31.22,109.32,34,4.49.28,9.22.42,14.24.43,70.71.06,123.28,26.68,192.41,31.1,59.93,3.83,116.62-20.71,176.64-16.71,53.88,3.59,101.06,28.19,153.66,35.52,83,11.57,177.26-29.4,261-29.33,52.44,0,78.07-11.86,127-20.86,26.29-4.84,48.35,6,74.85,3.66h0c49.89-4.5,75.25-9.79,126.57.19,44.61,8.68,86.26,15.2,131.65,5.14,75.6-16.75,146.1,25.24,223.86,1.6,43.21-13.14,93.08,2.45,137.91-5.18,10.77-1.83,107.88-38.73,107.88-34.52V262.12H1V.46C1,22.57,69.41,18.43,85.2,24Z"/><g class="cls-2"><path class="cls-3" d="M436.64,130.16c-7.23,3.37,9.13,4.73,20.74,4.19,8.95-.42,18.79-1.42,27.94-1.06,10.24.42,14.66,2.51,22.81,3.84,16.18,2.65,22.42,0,24.26-4.38,2.44-5.7,32.18-8.73,30.58-14.15-3.21-10.81-69.49,1.2-52.84-13.35a33,33,0,0,1,2.74-2.11c2.3-1.61,4.24-3.15,6.87-4.72,13.14-7.84-35.16-1.6-43,0-8.61,1.78-16.47,4.49-19,7.35-5,5.63-24.39,8.2-43.63,5.43-9.82-1.41-22.59-5.28-32-1-11.19,5.08,5.58,10.23,24,10.32,9.13,0,27.83-1.85,35.74-.54,7.24,1.2,6.49,3.57,5.24,5.5C445.46,128,440.46,128.37,436.64,130.16Z"/><path class="cls-3" d="M240.94,81.31c-14.1-1.94-27.75-3.1-32.27-3.9-14.55-2.57-27.35-7.48-41.46-11.15-22.49-5.85-41.38-.42-63.54-4.42-17-3.07-33.4-7.72-50.42-10.62-8.6-1.46-24.65-7-30.5-3.61C15.84,51.6,47,63.9,51.8,66.23c12.75,6.19,10.84,6.3,10.05,15.35C60.52,96.86,88.74,101,106.6,96.5,126,91.64,131.69,84.38,157.29,88c9.08,1.3,24.7,4.16,32.73,8.08,7.43,3.63,10.73,8.88,18.41,12.81,16.38,8.39,22.86,6.81,31.9-.72,3.91-3.25,6.34-7,13-8.41,8-1.69,21.67,2.64,25.33-3.85C282.88,88.57,261.43,84.12,240.94,81.31Z"/><path class="cls-3" d="M791.06,126.65c-44.18-.68-84-2.1-106.17,5.31a14.11,14.11,0,0,0-2.11.75c-10,4.86,43.87,3.94,55.56,4,16.92.09,28.31-.37,40,2.22,20.66,4.59,11.75,12.82,46.15,15.23,22.31,1.57,67.22,1.1,68.43-4.93.37-1.85-11.54-4.14-16.81-5.51-.48-.12-1-.24-1.39-.37-13.86-4-11.17-5.83-5.24-10.16C882.28,123.8,814.63,127,791.06,126.65Z"/><path class="cls-3" d="M1372.75,118.45c18.87-5.37,48.44-7.07,71.47-10.53,62.68-9.41-57.86-12.32-77.27-16.56-2.84-.62-5.71-1.34-8.64-2.18-15.07-4.33-38-10-62.08-8.26-22.76,1.64-39.26,9.16-65,10.89-14.51,1-33.82-.8-44.41,3.27-8.64,3.32-4.17,8.26-12.17,11.49-24.9,10.05-56.81,5.69-82,16.4-9.46,4-60.33,19.26-64.56,27.13-7.75,14.4,14.32,17.62,29.12,16.72,20.77-1.26,39.8-9.34,60.14-10.84s41.37,2.16,62-.07c13-1.4,21.11-4.77,31.08-7.22a197.1,197.1,0,0,1,37-5.81c20.71-1.3,42,.72,62.95,1,17.61.24,42.37.46,52.74-3.47,11.21-4.24-6.76-8.54-6.85-12.66C1356.15,124.45,1364.92,120.67,1372.75,118.45Z"/><path class="cls-3" d="M1908.35,77.62c-60.19.84-263.56,10.12-297.91,19.63-38.92,10.79-87.24,28.69-42.71,46.22,9.67,3.81,23.61,6,39.51,7.28,21.68,1.69,30.72,6.65,55.15,6.88,21.17.2,39.41-.93,62.41.29,32.3,1.72,59.82,3.53,91.42,2,26-1.23,48.68-4.73,75.43-5.33,9.81-.23,19.22,0,28.61.42V77.68C1916,77.59,1912,77.57,1908.35,77.62Z"/></g><path class="cls-4" d="M641.23,142.94a4.79,4.79,0,0,1,2.75-.78c.49-.24,8.36-2.62,10.24-3.1,1.61-.42,5.29-1.11,6.77-2.37.63-1.47.16-4.66-.36-7.71-.15-1.59-.16-3.19-.22-4.78,0-.81-.24-3.35-.29-3.82a2.31,2.31,0,0,1,.16-1.82,2.11,2.11,0,0,1,1.86-1.1c1.65.25,3.42,1.79,4.56,2.94,1.83,1.85,8.54,9.8,9.08,10a15,15,0,0,0,4.18,0c1.32-.28,2.63-.63,3.93-1a50.47,50.47,0,0,0,5.78-2,21.28,21.28,0,0,1,4.62-1.61,4.74,4.74,0,0,1,2.12,0c.38.11,2.63,1.52,1.61,4.8a17.38,17.38,0,0,1-3.32,4.72c-1.65,1.75-3.67,3.14-5.15,5.07-.73,1-1.92,2-2.22,3.21-.16.63-.46,2.4,3.4,6.17,1.16,1.35,2.6,2.44,3.66,3.89,1.18,1.62,2.68,3,3.79,4.67s1.81,4,0,5.47c-1.19.9-2.55.67-3.88.23-1.57-.52-3.09-1.23-4.63-1.83-1.21-.47-6.47-5.13-12.59-5.23-1.82.9-2.43,2.69-3,3.3a16.42,16.42,0,0,0-2.41,4.67,49.58,49.58,0,0,1-2.16,4.9,23,23,0,0,1-3,4.28c-1,1.19-3.38,2.76-4.81,1.62-1.36-.29-1.59-2.85-1.61-3.92a29.91,29.91,0,0,1,.71-5.48c.39-2.21.57-4.46.79-6.69.13-1.31.42-4.3.43-4.49-.13-1.28-.18-2.64-1.22-3.47a5.12,5.12,0,0,0-2-.83l-2.89-.71c-1.31-.34-6.79-1.08-8.14-1.27s-2.57-.43-3.85-.65a7.08,7.08,0,0,1-2.66-.8A2.71,2.71,0,0,1,640,145.1,2.6,2.6,0,0,1,641.23,142.94Z"/><path class="cls-5" d="M640.39,145.08a.68.68,0,0,1,0-.2,2.17,2.17,0,0,1,1-1.56,6.35,6.35,0,0,1,2.48-1.41,17.85,17.85,0,0,1,5.55-1,14,14,0,0,1,1.44.11l2.91-.28c1.49-.14,3-.36,4.45-.61a1.07,1.07,0,0,1,0-.25,1.35,1.35,0,0,1,.05-.29,1.06,1.06,0,0,1,.24-.41.84.84,0,0,1,.39-.22.87.87,0,0,1,.67.1.42.42,0,0,1,.16.11l.11.05a.77.77,0,0,1,.35.56l1.1-.2a14.67,14.67,0,0,0,2.67-.73,8,8,0,0,0,1.33-.95,2.91,2.91,0,0,0,.88-2.24,1.65,1.65,0,0,1-1.07-.13,1.68,1.68,0,0,1-.82-1.39,1.53,1.53,0,0,1,.66-1.39,1.1,1.1,0,0,1,.71-.2l-.63-1.77a2.17,2.17,0,0,1-.32.27,1,1,0,0,1-1,0,1.18,1.18,0,0,1-.47-.91,1.71,1.71,0,0,1,.39-1.19.79.79,0,0,1,.41-.24.72.72,0,0,1,.25,0c-.48-1.26-1-2.49-1.58-3.72a31.45,31.45,0,0,1-1.56-3.42,3.38,3.38,0,0,1-.83-2,2.08,2.08,0,0,1,1.89-2.12,3.75,3.75,0,0,1,2.8,1.21,7.23,7.23,0,0,1,1,1.33,4.86,4.86,0,0,1,.28.51c1,1.36,1.75,2.86,2.56,4.28,1,1.79,2,3.6,2.89,5.47.3.64.58,1.3.87,2a4.38,4.38,0,0,1,.66,1,6.3,6.3,0,0,0,1,1.22,3.68,3.68,0,0,0,2.73,1.11,7.31,7.31,0,0,0,2.94-.91c.57-.27,1.12-.56,1.68-.86a1.26,1.26,0,0,1-.59-1.07,1.81,1.81,0,0,1,.66-1.29,1.43,1.43,0,0,1,1.62-.26,1.35,1.35,0,0,1,.59.79.85.85,0,0,1,0,.5c.47-.28.92-.58,1.37-.89a.82.82,0,0,1-.2-.25,1.48,1.48,0,0,1,.81-2,1.16,1.16,0,0,1,.84,0,.66.66,0,0,1,.49.22,1.14,1.14,0,0,1,.24.41c.34-.27.67-.53,1-.81.79-.66,1.57-1.32,2.42-1.9a6,6,0,0,1,1.21-.68,3.49,3.49,0,0,1,2.08-1,3.55,3.55,0,0,1,3,.76,3.15,3.15,0,0,1,.63,3.62c-.12,1-1,1.56-1.84,2.18a32.31,32.31,0,0,1-4.19,2.52q-1.94,1.07-3.85,2.2a1.08,1.08,0,0,1,.72,1,1.92,1.92,0,0,1,0,.86,1.68,1.68,0,0,1-1.75,1.15,1.37,1.37,0,0,1-1.23-1.54s0-.09,0-.13l-1.13.72.13.06a1.31,1.31,0,0,1,.51.75,1.09,1.09,0,0,1-1.09,1.46,1.54,1.54,0,0,1-1.32-1l0-.07a2.77,2.77,0,0,0-1,2.67,5.47,5.47,0,0,0,1,2c.72.77,1.44,1.53,2.23,2.24,1.27,1.14,2.59,2.23,3.9,3.33,2.59,2.17,5.5,3.92,7.89,6.33a9.36,9.36,0,0,1,2.52,3.75c.42,1.34.33,2.95-1,3.75s-2.88,0-4-.65a26.77,26.77,0,0,1-4-2.92c-3.49-3-6.17-6.65-9.34-9.92a1.43,1.43,0,0,1-.87.83,1.56,1.56,0,0,1-1.35-.27,1.7,1.7,0,0,1-.73-1.37,1.37,1.37,0,0,1,.72-1.2,6.87,6.87,0,0,0-2.37-1.15l-.36.05a2.7,2.7,0,0,0-1.44.74,6.4,6.4,0,0,0-1.52,2.46c-.25.63-.49,1.27-.71,1.92h.07a.79.79,0,0,1,.69.41,1.21,1.21,0,0,1,.12.87,1.08,1.08,0,0,1-.13.29,1.27,1.27,0,0,1-.21.54.83.83,0,0,1-.7.38.76.76,0,0,1-.57-.25l-.27,1.45c-.3,1.67-.61,3.33-1,5s-.77,3.11-1.17,4.66-.76,2.88-1.27,4.27c-.82,2.29-2.32,5.3-5.08,5.48a2.3,2.3,0,0,1-2.07-1.19,3.66,3.66,0,0,1-.7-2.87,17.66,17.66,0,0,1,1.08-3.92c.38-1,.74-2.07,1.15-3.1s1-2.16,1.4-3.27.58-2,1-3a1.4,1.4,0,0,1-1.19-.63,1.62,1.62,0,0,1,.53-2.31,1.42,1.42,0,0,1,1.51.23c.21-.84.4-1.68.57-2.53,0-.1,0-.2.05-.29a1.5,1.5,0,0,1-.76,0,1.12,1.12,0,0,1-.77-1.16c0-.68.5-1.68,1.25-1.79a1.16,1.16,0,0,1,.65.1l0-.4c0-.59,0-1.2,0-1.81a3.18,3.18,0,0,0-.08-.33,2.11,2.11,0,0,0-2.21-1.81,1.08,1.08,0,0,1,0,1,1.47,1.47,0,0,1-2.6-.37.87.87,0,0,1,0-.32l-.13,0c-.44.07-.89.13-1.34.18a.64.64,0,0,1,.06.18,1.17,1.17,0,0,1-.1.82v0a.78.78,0,0,1-.05.18.82.82,0,0,1-.11.23c-.05.08-.23.31-.07.08a1.09,1.09,0,0,1-1.72.16,1.28,1.28,0,0,1-.24-1.45c-1.85.18-3.69.38-5.53.68a51.89,51.89,0,0,1-5.83.74c-.88,0-1.74,0-2.62,0a14.71,14.71,0,0,1-1.88-.12A2.07,2.07,0,0,1,640.39,145.08Z"/><path class="cls-5" d="M689.09,136.82a1,1,0,0,1,.3-.3.78.78,0,0,1,.24-.09l.16-.08a.69.69,0,0,1,1,.22.88.88,0,0,1-.23,1.08.94.94,0,0,1-1.32,0A.74.74,0,0,1,689.09,136.82Z"/><path class="cls-5" d="M663.31,131.88a.67.67,0,0,1,.33-.08.61.61,0,0,1,.46.2l0,0a.67.67,0,0,1-.16,1,.65.65,0,0,1-.67,0,.68.68,0,0,1-.32-.58v0A.71.71,0,0,1,663.31,131.88Z"/><path class="cls-5" d="M661,138.57a.53.53,0,0,1,.13-.2.59.59,0,0,1,.2-.12.66.66,0,0,1,.21-.08l.1,0h0a.57.57,0,0,1,.53.15.58.58,0,0,1,.08.66.75.75,0,0,1-.48.41,1.09,1.09,0,0,1-.26,0,.61.61,0,0,1-.47-.23l0,0h0a.51.51,0,0,1-.15-.39A.48.48,0,0,1,661,138.57Z"/><path class="cls-5" d="M663.75,153.32a.27.27,0,0,0,.08-.07l0,0h0l0,0,0,0v0h0a.59.59,0,0,1,.47-.21,1,1,0,0,1,.18,0,.8.8,0,0,1,.4.32.82.82,0,0,1,.09.63.84.84,0,0,1-1,.66.74.74,0,0,1-.32-.19.79.79,0,0,1-.2-.51A.73.73,0,0,1,663.75,153.32Z"/><path class="cls-5" d="M671.81,156.77a.76.76,0,0,1,.81-.43.72.72,0,0,1,.44.34,1,1,0,0,1,.13.48.92.92,0,0,1,0,.37,1,1,0,0,1-.41.53.75.75,0,0,1-1.1-.47A1.08,1.08,0,0,1,671.81,156.77Z"/><path class="cls-5" d="M681.12,153.72a1.19,1.19,0,0,1,2.2-.13,1.4,1.4,0,0,1,.12,1,1.15,1.15,0,0,1-1.08.86,1.19,1.19,0,0,1-1.12-.62A1.42,1.42,0,0,1,681.12,153.72Z"/><path class="cls-5" d="M679.9,152.66a.65.65,0,0,1,.09-.3l.1-.13a.45.45,0,0,1,.35-.13.47.47,0,0,1,.35.15.61.61,0,0,1,.12.15.5.5,0,0,1,.12.24.59.59,0,0,1-.27.64.56.56,0,0,1-.44,0l-.13,0a.57.57,0,0,1-.2-.21A.63.63,0,0,1,679.9,152.66Z"/><path class="cls-5" d="M685.65,140.33a.61.61,0,0,1,.44-.19.66.66,0,0,1,.36.11.56.56,0,0,1,.1.87.68.68,0,0,1-.46.19.61.61,0,0,1-.45-.2A.54.54,0,0,1,685.65,140.33Z"/><path class="cls-5" d="M661.2,147.5l.07,0a.41.41,0,0,1,.19,0h.06a.58.58,0,0,1,.42.25.61.61,0,0,1,0,.38.68.68,0,0,1-.18.29.65.65,0,0,1-.74.07.52.52,0,0,1,.14-.95Z"/><path class="cls-6" d="M660.36,118.64a.47.47,0,0,1,0-.38c.74-1.35,2.63-1.1,3.68-.33a8.07,8.07,0,0,1,2.5,3.7c.35.87.64,1.74.9,2.63.48,1.08,1,2.16,1.46,3.24s1.07,2.25,1.52,3.42a5.94,5.94,0,0,1,.46,3.57.73.73,0,0,1-.71.52,2.59,2.59,0,0,1-1.8-1.11c-1-.62-1.52-2.15-2-3a27.65,27.65,0,0,0-1.5-2.36c-.57-.89-1.07-1.8-1.6-2.71-.75-1.32-1.68-2.52-2.36-3.88A4.74,4.74,0,0,1,660.36,118.64Z"/><path class="cls-6" d="M682.91,135.06a6.59,6.59,0,0,1,1.76-1.81c.79-.63,1.6-1.25,2.41-1.86,1.62-1.22,3.25-2.43,4.81-3.73a5.83,5.83,0,0,1,3.4-1.72c1.45-.54,2.71,1.24,2.7,2.56,0,1.68-1.58,2.76-2.9,3.46-1.77,1-3.56,1.93-5.4,2.74a14.14,14.14,0,0,1-5.76,1.42l-.18.07C683.08,136.44,682.62,135.58,682.91,135.06Z"/><path class="cls-6" d="M687,151.9a.28.28,0,0,1,.22,0,37,37,0,0,1,4,2.61c1.24.83,2.4,1.75,3.58,2.68a11.8,11.8,0,0,1,2.71,2.66,2.73,2.73,0,0,1,.05,3.2c-.66.75-1.83.3-2.55-.09a12.8,12.8,0,0,1-2.56-2,27.39,27.39,0,0,1-3.33-3.8,22.47,22.47,0,0,1-1.29-2c-.23-.37-.45-.75-.65-1.14a7.18,7.18,0,0,0-.64-1.23C686.29,152.42,686.53,151.8,687,151.9Z"/><path class="cls-6" d="M661.48,173a9.34,9.34,0,0,1,.89-2.94c.61-1.43,1.09-2.93,1.71-4.36.34-.79.71-1.57,1.08-2.35s.89-1.66,1.27-2.51v-.07a.57.57,0,0,1,.82-.5.33.33,0,0,1,.58.2,11.67,11.67,0,0,1-.19,2.57c-.11.87-.2,1.73-.29,2.6a39.09,39.09,0,0,1-.89,5.39c-.4,1.61-1.46,4.7-3.61,4.25A2,2,0,0,1,661.48,173Z"/><path class="cls-6" d="M641.31,144.78c.22-1.1,1.43-1.49,2.38-1.74a11.41,11.41,0,0,1,3.5-.18c1.14.08,2.28.26,3.42.37s2.24.05,3.37.11a.32.32,0,0,1,.3.3.67.67,0,0,1-.15,1.22c-1.26.33-2.55.57-3.8.93s-2.53.76-3.83,1a10,10,0,0,1-3.22.19C642.22,146.82,641.05,146,641.31,144.78Z"/><path class="cls-7" d="M695.21,128.65a.76.76,0,1,0,.77-.75A.77.77,0,0,0,695.21,128.65Z"/><path class="cls-7" d="M692,130.42a1.07,1.07,0,0,0,1.05,1.09,1.07,1.07,0,1,0-1.05-1.09Z"/><path class="cls-7" d="M688.53,132.54a1.1,1.1,0,1,0,1.12-1.09A1.11,1.11,0,0,0,688.53,132.54Z"/><path class="cls-7" d="M684.9,134.72a1.12,1.12,0,0,0,1.11,1.15,1.14,1.14,0,1,0,0-2.27A1.13,1.13,0,0,0,684.9,134.72Z"/><path class="cls-7" d="M681.35,136.36a1.1,1.1,0,1,0,1.12-1.08A1.09,1.09,0,0,0,681.35,136.36Z"/><path class="cls-7" d="M695.43,161.06a.82.82,0,1,0,.83-.8A.81.81,0,0,0,695.43,161.06Z"/><path class="cls-7" d="M692.82,158.31a.95.95,0,1,0,1-.93A.95.95,0,0,0,692.82,158.31Z"/><path class="cls-7" d="M689.85,155.74a1.07,1.07,0,0,0,2.13,0,1.07,1.07,0,1,0-2.13,0Z"/><path class="cls-7" d="M686.42,152.75a1.17,1.17,0,1,0,1.19-1.15A1.16,1.16,0,0,0,686.42,152.75Z"/><path class="cls-7" d="M683.3,150.55a1.23,1.23,0,0,0,2.46,0,1.22,1.22,0,0,0-1.2-1.25A1.24,1.24,0,0,0,683.3,150.55Z"/><path class="cls-7" d="M680.65,148.05a1,1,0,1,0,1-1A1,1,0,0,0,680.65,148.05Z"/><path class="cls-7" d="M678.31,145.66a.74.74,0,0,0,.73.75.74.74,0,0,0,0-1.48A.75.75,0,0,0,678.31,145.66Z"/><path class="cls-7" d="M669.29,146.61a.81.81,0,1,0,.82-.79A.8.8,0,0,0,669.29,146.61Z"/><path class="cls-7" d="M668.62,149.93a1.12,1.12,0,1,0,1.13-1.09A1.11,1.11,0,0,0,668.62,149.93Z"/><path class="cls-7" d="M667.8,153.52a1.09,1.09,0,1,0,1.11-1.07A1.09,1.09,0,0,0,667.8,153.52Z"/><path class="cls-7" d="M666.9,157.19a1.12,1.12,0,1,0,1.14-1.1A1.12,1.12,0,0,0,666.9,157.19Z"/><path class="cls-7" d="M666,161.05a1,1,0,0,0,2,0,1,1,0,1,0-2,0Z"/><path class="cls-7" d="M664.77,165.24a.91.91,0,1,0,.92-.89A.9.9,0,0,0,664.77,165.24Z"/><path class="cls-7" d="M670.33,138.09a.83.83,0,1,0,.84-.81A.83.83,0,0,0,670.33,138.09Z"/><path class="cls-7" d="M668.12,134.43a1.14,1.14,0,1,0,1.16-1.11A1.14,1.14,0,0,0,668.12,134.43Z"/><path class="cls-7" d="M666.46,130.65a1.1,1.1,0,1,0,2.2,0,1.09,1.09,0,0,0-1.08-1.12A1.1,1.1,0,0,0,666.46,130.65Z"/><path class="cls-7" d="M664.82,127.13a1,1,0,1,0,1-1A1,1,0,0,0,664.82,127.13Z"/><path class="cls-7" d="M663.05,123.6a.91.91,0,1,0,.93-.9A.9.9,0,0,0,663.05,123.6Z"/><path class="cls-7" d="M662,120.59a.76.76,0,0,0,1.52,0,.77.77,0,0,0-.75-.77A.76.76,0,0,0,662,120.59Z"/><path class="cls-7" d="M660.78,143.18A1.19,1.19,0,1,0,662,142,1.18,1.18,0,0,0,660.78,143.18Z"/><path class="cls-7" d="M656.87,143.75a1,1,0,1,0,1.06-1A1,1,0,0,0,656.87,143.75Z"/><path class="cls-7" d="M653.37,144a.93.93,0,1,0,1-.91A.93.93,0,0,0,653.37,144Z"/><path class="cls-7" d="M650.14,144.41a.78.78,0,1,0,1.55,0,.77.77,0,0,0-.76-.79A.79.79,0,0,0,650.14,144.41Z"/><path class="cls-7" d="M646.91,144.65a.78.78,0,0,0,.77.79.77.77,0,0,0,.79-.76.78.78,0,1,0-1.56,0Z"/><path class="cls-7" d="M696.35,130.46a.41.41,0,1,0,.42-.4A.41.41,0,0,0,696.35,130.46Z"/><path class="cls-7" d="M692,133a.4.4,0,0,0,.4.41.41.41,0,0,0,.42-.4.42.42,0,0,0-.41-.42A.41.41,0,0,0,692,133Z"/><path class="cls-7" d="M687.46,136.3a.41.41,0,1,0,.81,0,.41.41,0,0,0-.4-.42A.41.41,0,0,0,687.46,136.3Z"/><path class="cls-7" d="M681.57,139.52a.41.41,0,0,0,.41.41.4.4,0,0,0,.41-.4.39.39,0,0,0-.4-.41A.41.41,0,0,0,681.57,139.52Z"/><path class="cls-7" d="M678.19,148.42a.41.41,0,0,0,.4.42.42.42,0,0,0,.42-.4.41.41,0,0,0-.41-.42A.41.41,0,0,0,678.19,148.42Z"/><path class="cls-7" d="M681.77,152.16a.41.41,0,1,0,.42-.4A.42.42,0,0,0,681.77,152.16Z"/><path class="cls-7" d="M686.4,155.68a.41.41,0,0,0,.41.42.41.41,0,0,0,.41-.4.4.4,0,0,0-.4-.42A.42.42,0,0,0,686.4,155.68Z"/><path class="cls-7" d="M691.1,159.22a.42.42,0,0,0,.83,0,.42.42,0,0,0-.41-.42A.43.43,0,0,0,691.1,159.22Z"/><path class="cls-7" d="M695,162.92a.41.41,0,0,0,.41.41.4.4,0,0,0,.41-.4.41.41,0,0,0-.4-.42A.42.42,0,0,0,695,162.92Z"/><path class="cls-7" d="M694.76,131.54a.41.41,0,0,0,.4.42.41.41,0,0,0,.41-.41.41.41,0,1,0-.81,0Z"/><path class="cls-7" d="M689.79,134.76a.41.41,0,0,0,.4.41.4.4,0,0,0,.42-.4.43.43,0,0,0-.4-.42A.41.41,0,0,0,689.79,134.76Z"/><path class="cls-7" d="M684.43,138.12a.41.41,0,0,0,.4.42.42.42,0,0,0,.42-.41.41.41,0,0,0-.4-.41A.41.41,0,0,0,684.43,138.12Z"/><path class="cls-7" d="M676.49,146.37a.41.41,0,0,0,.41.41.41.41,0,0,0,.42-.4.43.43,0,0,0-.41-.42A.42.42,0,0,0,676.49,146.37Z"/><path class="cls-7" d="M671.21,135.61a.4.4,0,0,0,.4.42.41.41,0,0,0,.41-.4.41.41,0,1,0-.81,0Z"/><path class="cls-7" d="M668.56,129.59a.41.41,0,0,0,.81,0,.41.41,0,0,0-.4-.42A.41.41,0,0,0,668.56,129.59Z"/><path class="cls-7" d="M665.81,124.15a.41.41,0,0,0,.4.41.4.4,0,0,0,.42-.4.41.41,0,0,0-.4-.42A.42.42,0,0,0,665.81,124.15Z"/><path class="cls-7" d="M672.75,139a.41.41,0,0,0,.4.42.42.42,0,0,0,0-.83A.41.41,0,0,0,672.75,139Z"/><path class="cls-7" d="M667.09,150.69a.41.41,0,0,0,.4.41.4.4,0,0,0,.42-.4.41.41,0,1,0-.82,0Z"/><path class="cls-7" d="M665.68,156.47a.4.4,0,0,0,.4.41.41.41,0,0,0,.42-.4.42.42,0,0,0-.41-.42A.41.41,0,0,0,665.68,156.47Z"/><path class="cls-7" d="M664.4,162.81a.42.42,0,0,0,.4.42.41.41,0,0,0,.42-.4.41.41,0,0,0-.82,0Z"/><path class="cls-7" d="M667.55,147.83a.41.41,0,0,0,.4.42.42.42,0,0,0,.42-.4.41.41,0,1,0-.82,0Z"/><path class="cls-7" d="M659.46,145.42a.43.43,0,0,0,.4.42.41.41,0,0,0,.42-.41.41.41,0,0,0-.4-.41A.4.4,0,0,0,659.46,145.42Z"/><path class="cls-7" d="M652.52,145.71a.42.42,0,0,0,.41.42.41.41,0,0,0,.41-.4.4.4,0,0,0-.4-.42A.42.42,0,0,0,652.52,145.71Z"/><path class="cls-7" d="M663.19,145.07a.41.41,0,0,0,.82,0,.41.41,0,0,0-.4-.42A.41.41,0,0,0,663.19,145.07Z"/><path class="cls-7" d="M655.67,145.58a.41.41,0,0,0,.41.41.4.4,0,0,0,.41-.4.41.41,0,0,0-.4-.42A.42.42,0,0,0,655.67,145.58Z"/><path class="cls-7" d="M649.3,145.91a.42.42,0,0,0,.4.42.41.41,0,0,0,.42-.41.41.41,0,0,0-.4-.41A.4.4,0,0,0,649.3,145.91Z"/><path class="cls-7" d="M666.37,153.5a.41.41,0,0,0,.4.41.4.4,0,0,0,.42-.4.42.42,0,0,0-.4-.42A.41.41,0,0,0,666.37,153.5Z"/><path class="cls-7" d="M665.09,159.65a.39.39,0,0,0,.4.41.41.41,0,1,0,0-.81A.4.4,0,0,0,665.09,159.65Z"/><path class="cls-7" d="M663.41,165.62a.4.4,0,0,0,.4.42.41.41,0,0,0,.42-.4.42.42,0,0,0-.4-.42A.41.41,0,0,0,663.41,165.62Z"/><path class="cls-7" d="M669.92,132.64a.41.41,0,0,0,.4.41.41.41,0,0,0,.42-.4.42.42,0,0,0-.4-.42A.41.41,0,0,0,669.92,132.64Z"/><path class="cls-7" d="M667.22,126.76a.4.4,0,0,0,.4.41.41.41,0,1,0,0-.81A.4.4,0,0,0,667.22,126.76Z"/><path class="cls-7" d="M664.5,121.39a.41.41,0,0,0,.41.42.41.41,0,0,0,.41-.4.4.4,0,0,0-.4-.42A.42.42,0,0,0,664.5,121.39Z"/><path class="cls-7" d="M679.79,150.49a.42.42,0,0,0,.4.42.41.41,0,0,0,.42-.41.41.41,0,0,0-.4-.41A.4.4,0,0,0,679.79,150.49Z"/><path class="cls-7" d="M684.07,153.87a.41.41,0,0,0,.4.42.42.42,0,0,0,.42-.4.41.41,0,1,0-.82,0Z"/><path class="cls-7" d="M688.59,157.56a.41.41,0,0,0,.4.42.42.42,0,0,0,.42-.41.41.41,0,0,0-.41-.41A.4.4,0,0,0,688.59,157.56Z"/><path class="cls-7" d="M693.25,161a.41.41,0,0,0,.4.41.4.4,0,0,0,.42-.4.42.42,0,0,0-.4-.42A.41.41,0,0,0,693.25,161Z"/><path class="cls-8" d="M639.48,144.87a3.33,3.33,0,0,1,2.73-2.84,99.11,99.11,0,0,1,11-3.11,47.42,47.42,0,0,0,5.63-1.57c.91-.34,2-.59,2-1.62-.14-2.94-.35-5.88-.76-8.79a37.14,37.14,0,0,1-.55-7.52,2.67,2.67,0,0,1,.9-2.1,2.44,2.44,0,0,1,2.2-.25,8,8,0,0,1,3.29,2.15,17.28,17.28,0,0,1,1.91,1.82c1.35,1.44,2.56,3,3.82,4.51a37.65,37.65,0,0,0,3.36,3.78c.65.6,1.66,1.34,4.68.35,1-.26,2.06-.55,3.09-.85,2.23-.66,4.43-1.38,6.66-2,1.34-.4,2.71-.86,4.09-1.13v0c2.9-.66,3.93.55,4.49,1.38,1.29,1.94.17,4.33-1.09,6-1.48,1.93-3.42,3.47-5.06,5.26s-3.29,3.43-4.2,5.58a5,5,0,0,0,0,1.45,4.92,4.92,0,0,0,.88,1.81,32,32,0,0,0,2.78,3.05c1.83,2,3.89,3.78,5.64,5.85,1.48,1.74,3.14,4.18,2.64,6.59-.45,2.09-2.87,2.76-4.67,2.08a11.77,11.77,0,0,1-2.5-.81c-1.66-.7-3.26-1.57-4.84-2.43a56.54,56.54,0,0,0-6.33-3.27,8.83,8.83,0,0,0-3.19-.77,3.21,3.21,0,0,0-2.29,1c-2.79,3.84-4.62,8.57-6.89,12.73a11.65,11.65,0,0,1-4.55,5.07,3.16,3.16,0,0,1-2.79.21c-2.79-1.24-1.91-4.94-1.79-6.42.2-2.27.57-4.52.89-6.77q.42-2.87.75-5.75a14.42,14.42,0,0,0,0-3.41,5,5,0,0,0-.54-1.36,3,3,0,0,0-1.24-.92,12.1,12.1,0,0,0-2.06-.67c-1-.29-2-.52-3-.73-3.34-.68-6.72-1.18-10.1-1.55C642.4,148.57,639.29,147.68,639.48,144.87Zm1,1c1,2.36,4.48,2,6.56,2.33a85.82,85.82,0,0,1,10.45,1.94c1.15.31,2.77.49,3.7,1.27a3,3,0,0,1,.92,1.39c.49,1.15.17,2.7.12,3.9-.08,1.84-.3,3.7-.53,5.53-.29,2.26-.65,4.51-.9,6.78-.11,1.06-.21,2.12-.27,3.18a7.7,7.7,0,0,0,.11,1.81l0,0c.37.88.86,1.68,1.89,1.77a4.19,4.19,0,0,0,2.85-1.23,16.21,16.21,0,0,0,3.69-5.36c.95-1.9,1.91-3.81,2.85-5.73s1.76-4.15,3.26-5.58c1.53-1.91,3-1.54,4.63-1.16a25.91,25.91,0,0,1,6.44,2.9q2.64,1.49,5.32,2.88a21.68,21.68,0,0,0,2.82,1.27,7,7,0,0,0,1.72.36,3.42,3.42,0,0,0,1.9-.46A2.51,2.51,0,0,0,699,161c-.42-2.5-2.44-4.61-4.14-6.34s-3.43-3.5-5.13-5.26a12.66,12.66,0,0,1-2.26-2.9,4.1,4.1,0,0,1-.42-1.28.14.14,0,0,1-.06-.12c-.22-2.33,1.59-4.36,3-6s3.11-3.25,4.71-4.84,3.18-3.37,3.16-5.65c-.94-2.8-3.11-2.74-4.61-2.2s-3.12,1-4.67,1.44c-2.06.64-4.11,1.3-6.19,1.9-.94.27-1.89.53-2.84.77a8,8,0,0,1-1.84.29,3.51,3.51,0,0,1-2.5-.41,14.4,14.4,0,0,1-3.2-3.27c-1.34-1.55-2.6-3.17-3.92-4.73-.64-.74-1.29-1.47-2-2.17a21.56,21.56,0,0,0-2.39-2l0,0a7.49,7.49,0,0,0-1.06-.45,1.58,1.58,0,0,0-1.89.4c-.49.67-.34,1.9-.31,2.68.08,2.39.48,4.74.71,7.13a51.48,51.48,0,0,1,.51,8.59c0,1.5-5.46,2.41-7.25,2.85-2.14.52-4.3,1-6.43,1.59-1.14.33-2.29.8-3.44,1.19C644.49,142.32,639.51,143.59,640.49,145.87Z"/><path class="cls-9" d="M1726.67,145.38c36-9.1,140.9-8.68,193.67-1.62V262.39H2.12v-141c32.78,15.29,38.15,12.26,105.8,12.79,33.89.27,138.81-60.78,192.17-39.86,71.4,28,186.45,55.62,266.81,55.62,85.08,0,173.2,6.21,259.49,6.64,43.09.21,87.5.63,130.29-5.17,41.53-5.64,81.51-19.51,123.47-22.76,39.49-3,86.95,10.31,124.33-6.4,67.73-30.28,152.91-21.55,223.13-5.59,38.87,8.83,74.81,24.08,114.34,30.44C1600.3,156.49,1668.73,160,1726.67,145.38Z"/><g class="cls-10"><path class="cls-11" d="M1191,196.66c-26.32,7.13-16.35,16.61,28.19,20.9,33,3.17,124.26,4.26,156.29.79,45.74-4.95,22.76-14.09,75.61-18.08,40.67-3.07,91.73.22,129.94-4,80-8.77-42.16-11.81-65.1-15.68-21.86-3.68-18.42-10-43.53-13.38-28.94-3.84-68.69.12-98.44-1-40-1.45-63.37-8.17-108.78-7.67-24,.27-97.2,1.12-113.93,3.84-41,6.67,81.24,9.52,91.45,14.15C1259.64,184.3,1215.13,190.12,1191,196.66Z"/><path class="cls-11" d="M546.71,221.59c3.26,2.32,15.69,4.36,21.39,6.6,4.57,1.8-.35,4.34,17.16,5.21,22.12,1.1,46.51-.09,68-.81,9.05-.31,17.73-.86,27.09-.78,9.59.07,18,.85,27.55,1,35.88.58,69.49-3.1,38.13-7.57-28.18-4-60.72-9.09-52.45-15.56,8.08-6.34,39.3-7.7,76.92-9,14.5-.51,32.27-1.51,44.82-2.77,2.17-.22,25.66-3.28,17.54-3.31-20.48-.08-40.47,0-60.84-.42-23.77-.56-49.14-2-71.55-3.33-11-.63-27.86-2.51-40.07-2C640,189.72,640,194.79,619.2,196c-24.66,1.46-59.61.55-86.56,1-27.11.44-55.47,2.21-69.57,5.07h0c-22.17,4.4,36.65,5.47,52.16,6.55s28,3,33,5.44C553.6,216.73,543.2,219.08,546.71,221.59Z"/><path class="cls-11" d="M1495.77,230.93c-10,3.86-14,8.61-21.29,12.7a73.68,73.68,0,0,1-7.75,4.23c-4.77,2.06-11.17,3.88-6.16,6.09,7.25,3.19,38.23,4.43,55.63,3.74,24.48-1,23.28-5.78,48.93-6.27,30.88-.58,69.16-.81,96.38,2.13,26.12,2.83,45,7.72,73.48,9.95,21.93,1.72,59.34-.64,62.81-5.05s-20.63-12.61-30-16.82c-11.44-5.12,1.48-8.62,2.71-13.72,1.33-5.56-26.84-5.86-55.12-7.9-9.18-.66-16.45-1.45-27.41-1.35-10.27.1-19.19,1.21-29.28,1.46-12.58.32-26.45.34-39.22.47C1567.46,221.1,1520,221.57,1495.77,230.93Z"/><path class="cls-11" d="M2.66,184c14.1,2.48,29.84,2.57,41.57,3.77,32.09,3.26,52.66,6.7,78.1,28.13,17.64,14.86,21.45,20.82,46.9,22.35,20.93,1.26,44.78,4.29,65.61.8s34.61-12.75,55.62-10.63c24.16,2.44,49.05,8.34,73.52,11.13,51.88,5.9,86.15,2.26,88.7-5.1,2.84-8.16-51-15.15-80.45-22.79-49.67-12.88-60.45-22.71,4.51-23.61,11.28-.16,27.37,1.65,37.45.83,28.54-2.32-19.43-10.69-29.17-15.87-15.25-8.1,1.66-13.89-42.79-21.32-34.1-5.7-79.13-4.85-113.54-7.14-61.29-4.1-141.9-21.49-196-15.32C15.55,131.22,53,149.6,47.38,154.93,41.32,160.66,21,164,2.66,167.69Z"/></g><path class="cls-12" d="M1,1C1,23.06,69.27,18.93,85,24.46c42.1,14.76,62.77,31.15,109.09,34,4.48.27,9.21.42,14.22.42,70.56.07,123,26.63,192,31,59.81,3.82,116.38-20.66,176.28-16.67C630.4,76.8,677.48,101.34,730,108.66c82.8,11.55,176.89-29.34,260.5-29.27,52.33,0,77.91-11.83,126.74-20.82,26.24-4.83,48.25,6,74.69,3.66h0c49.79-4.49,75.1-9.77,126.31.19,44.53,8.66,86.09,15.16,131.39,5.13,75.44-16.72,145.8,25.18,223.4,1.59,43.13-13.11,92.89,2.45,137.63-5.16,10.74-1.83,107.66-38.65,107.66-34.45"/><path class="cls-4" d="M1423.73,178.58a5.71,5.71,0,0,0-3.25-.92c-.58-.28-9.9-3.09-12.11-3.67-1.91-.49-6.27-1.31-8-2.79-.75-1.75-.18-5.52.43-9.13.18-1.88.19-3.77.25-5.66,0-.95.3-4,.35-4.52a2.73,2.73,0,0,0-.18-2.15,2.52,2.52,0,0,0-2.21-1.3c-2,.3-4,2.11-5.39,3.47-2.17,2.2-10.11,11.61-10.74,11.88a17.43,17.43,0,0,1-4.95-.06c-1.57-.33-3.12-.74-4.65-1.2a60.58,60.58,0,0,1-6.84-2.34,24.81,24.81,0,0,0-5.47-1.9,5.6,5.6,0,0,0-2.51,0c-.44.13-3.11,1.81-1.9,5.68a20.29,20.29,0,0,0,3.93,5.58c2,2.08,4.35,3.72,6.09,6,.87,1.14,2.27,2.42,2.63,3.8.19.75.54,2.84-4,7.31-1.38,1.59-3.08,2.88-4.33,4.59-1.4,1.92-3.18,3.53-4.49,5.52s-2.15,4.79.07,6.48c1.39,1.07,3,.8,4.58.28,1.86-.62,3.66-1.47,5.48-2.18,1.43-.55,7.65-6.06,14.89-6.18,2.16,1.07,2.88,3.18,3.53,3.91a19.28,19.28,0,0,1,2.85,5.52,59.78,59.78,0,0,0,2.55,5.79,27.38,27.38,0,0,0,3.53,5.07c1.21,1.41,4,3.27,5.68,1.91,1.61-.33,1.89-3.37,1.9-4.63a35.37,35.37,0,0,0-.83-6.48c-.46-2.61-.68-5.28-.94-7.91-.15-1.55-.49-5.09-.51-5.32.16-1.52.22-3.12,1.45-4.1a6.07,6.07,0,0,1,2.39-1l3.42-.84c1.55-.4,8-1.28,9.63-1.5s3-.51,4.55-.77a8.65,8.65,0,0,0,3.15-.94,3.21,3.21,0,0,0,1.43-2.79A3.11,3.11,0,0,0,1423.73,178.58Z"/><path class="cls-5" d="M1424.73,181.11a.86.86,0,0,0,0-.23,2.59,2.59,0,0,0-1.16-1.85,7.47,7.47,0,0,0-2.93-1.66,21.06,21.06,0,0,0-6.57-1.15c-.57,0-1.14.07-1.71.13l-3.44-.33c-1.76-.17-3.51-.43-5.26-.72a1.53,1.53,0,0,0,0-.3,1.35,1.35,0,0,0-.06-.34,1.06,1.06,0,0,0-.75-.75,1.09,1.09,0,0,0-.79.12.8.8,0,0,0-.19.13l-.13.06a.92.92,0,0,0-.42.67l-1.3-.24a16.54,16.54,0,0,1-3.15-.87,10.47,10.47,0,0,1-1.58-1.12,3.54,3.54,0,0,1-1-2.65,1.8,1.8,0,0,0,2.24-1.8,1.8,1.8,0,0,0-.78-1.64,1.31,1.31,0,0,0-.84-.24c.24-.7.5-1.4.74-2.09a3,3,0,0,0,.38.31,1.13,1.13,0,0,0,1.2,0,1.36,1.36,0,0,0,.55-1.08,2,2,0,0,0-.46-1.41,1,1,0,0,0-.49-.29,1,1,0,0,0-.29,0c.57-1.49,1.19-2.95,1.88-4.4a39.48,39.48,0,0,0,1.84-4.05,4,4,0,0,0,1-2.36,2.47,2.47,0,0,0-2.24-2.51,4.42,4.42,0,0,0-3.31,1.44,7.59,7.59,0,0,0-1.18,1.57,6.42,6.42,0,0,0-.34.6c-1.13,1.6-2.07,3.39-3,5.07-1.2,2.11-2.4,4.26-3.41,6.46-.36.77-.69,1.54-1,2.31a5.62,5.62,0,0,0-.78,1.18,7,7,0,0,1-1.13,1.43,4.37,4.37,0,0,1-3.23,1.32,8.93,8.93,0,0,1-3.48-1.07c-.67-.32-1.33-.67-2-1a1.46,1.46,0,0,0,.69-1.26,2.09,2.09,0,0,0-.77-1.52,1.7,1.7,0,0,0-1.92-.31,1.62,1.62,0,0,0-.7.92,1.14,1.14,0,0,0,0,.61c-.55-.34-1.09-.69-1.62-1.06a1,1,0,0,0,.24-.29,1.66,1.66,0,0,0,.12-1.14,1.64,1.64,0,0,0-1.08-1.25,1.47,1.47,0,0,0-1,0,.74.74,0,0,0-.58.26,1.28,1.28,0,0,0-.29.49c-.4-.32-.79-.63-1.18-1-.93-.78-1.86-1.56-2.86-2.25a8,8,0,0,0-1.43-.81,4.67,4.67,0,0,0-6.06-.33,3.73,3.73,0,0,0-.75,4.29c.14,1.19,1.22,1.85,2.18,2.57a38.29,38.29,0,0,0,5,3c1.53.84,3,1.7,4.56,2.6a1.27,1.27,0,0,0-.85,1.22,2.15,2.15,0,0,0,0,1,2,2,0,0,0,2.06,1.36,1.63,1.63,0,0,0,1.46-1.82.77.77,0,0,1,0-.15l1.34.85-.16.08a1.53,1.53,0,0,0-.61.88,1.3,1.3,0,0,0,1.29,1.73,1.83,1.83,0,0,0,1.57-1.16l0-.09a3.29,3.29,0,0,1,1.15,3.17,6.37,6.37,0,0,1-1.16,2.42c-.85.91-1.71,1.81-2.64,2.65-1.5,1.35-3.06,2.64-4.61,3.94-3.07,2.56-6.51,4.64-9.34,7.49a11.14,11.14,0,0,0-3,4.44c-.5,1.58-.39,3.49,1.15,4.43s3.4,0,4.7-.77a30.77,30.77,0,0,0,4.75-3.45c4.13-3.51,7.31-7.86,11-11.74a1.65,1.65,0,0,0,1,1,1.84,1.84,0,0,0,1.6-.31,2,2,0,0,0,.87-1.62,1.65,1.65,0,0,0-.86-1.42,8.16,8.16,0,0,1,2.81-1.37l.42.07a3.1,3.1,0,0,1,1.7.87,7.53,7.53,0,0,1,1.81,2.91c.3.75.57,1.51.84,2.27h-.09a.94.94,0,0,0-.82.49,1.53,1.53,0,0,0-.14,1,1.31,1.31,0,0,0,.16.34,1.29,1.29,0,0,0,.25.63,1,1,0,0,0,.82.46.92.92,0,0,0,.68-.3c.11.58.21,1.15.32,1.72.35,2,.72,3.94,1.14,5.9s.91,3.68,1.39,5.52c.45,1.69.9,3.4,1.5,5.05,1,2.7,2.75,6.26,6,6.48a2.71,2.71,0,0,0,2.44-1.41c.84-.75.94-2.38.83-3.4a20.66,20.66,0,0,0-1.28-4.63c-.45-1.23-.88-2.45-1.37-3.67s-1.17-2.55-1.65-3.87c-.41-1.14-.69-2.4-1.15-3.55a1.66,1.66,0,0,0,1.42-.74,1.91,1.91,0,0,0-.64-2.73,1.62,1.62,0,0,0-1.77.27c-.26-1-.49-2-.68-3,0-.11,0-.23-.07-.34a1.72,1.72,0,0,0,.9,0,1.35,1.35,0,0,0,.92-1.38c0-.8-.59-2-1.48-2.11a1.3,1.3,0,0,0-.77.11l0-.47c0-.7,0-1.42,0-2.15,0-.13.06-.26.09-.39a2.51,2.51,0,0,1,2.61-2.14,1.3,1.3,0,0,0,0,1.17,1.74,1.74,0,0,0,3.08-.43,1,1,0,0,0,0-.38l.15,0,1.59.21a.9.9,0,0,0-.08.21,1.47,1.47,0,0,0,.12,1l0,0a1.29,1.29,0,0,0,0,.21,1.15,1.15,0,0,0,.14.27c.05.09.27.37.08.1a1.29,1.29,0,0,0,2,.19,1.54,1.54,0,0,0,.29-1.72c2.19.21,4.36.45,6.54.8a59.4,59.4,0,0,0,6.9.87c1,.05,2.06,0,3.1-.05a18.54,18.54,0,0,0,2.23-.14A2.46,2.46,0,0,0,1424.73,181.11Z"/><path class="cls-5" d="M1367.11,171.34a1,1,0,0,0-.36-.35,1,1,0,0,0-.29-.11l-.18-.09a.82.82,0,0,0-1.13.26,1.05,1.05,0,0,0,.28,1.28,1.12,1.12,0,0,0,1.56,0A.88.88,0,0,0,1367.11,171.34Z"/><path class="cls-5" d="M1397.6,165.5a.76.76,0,0,0-.39-.1.79.79,0,0,0-.54.24l0,0a.8.8,0,0,0,.18,1.23.81.81,0,0,0,.8,0,.78.78,0,0,0,.28-.29.88.88,0,0,0,.1-.4v0A.8.8,0,0,0,1397.6,165.5Z"/><path class="cls-5" d="M1400.35,173.41a.6.6,0,0,0-.16-.23.59.59,0,0,0-.22-.14,1.09,1.09,0,0,0-.25-.1l-.12,0h-.07a.62.62,0,0,0-.62.18.65.65,0,0,0-.09.78.91.91,0,0,0,.57.48,1.45,1.45,0,0,0,.3,0,.68.68,0,0,0,.56-.27l0,0h0a.62.62,0,0,0,.19-.46A.57.57,0,0,0,1400.35,173.41Z"/><path class="cls-5" d="M1397.09,190.87l-.1-.08,0,0,0,0h0a.08.08,0,0,0,0,0l0,0h0a.68.68,0,0,0-.56-.24.51.51,0,0,0-.21,0,.88.88,0,0,0-.47.38,1,1,0,0,0-.1.74,1,1,0,0,0,1.23.78.81.81,0,0,0,.37-.22.92.92,0,0,0,.24-.61A.87.87,0,0,0,1397.09,190.87Z"/><path class="cls-5" d="M1387.56,194.94a.92.92,0,0,0-1-.5.88.88,0,0,0-.52.41,1.13,1.13,0,0,0-.15.57.91.91,0,0,0,0,.43,1.13,1.13,0,0,0,.49.63.89.89,0,0,0,1.29-.55A1.38,1.38,0,0,0,1387.56,194.94Z"/><path class="cls-5" d="M1376.53,191.35a1.37,1.37,0,0,0-1.27-1,1.42,1.42,0,0,0-1.33.81,1.73,1.73,0,0,0-.14,1.16,1.39,1.39,0,0,0,1.28,1,1.45,1.45,0,0,0,1.33-.74A1.63,1.63,0,0,0,1376.53,191.35Z"/><path class="cls-5" d="M1378,190.09a.85.85,0,0,0-.11-.35,1,1,0,0,0-.12-.16.58.58,0,0,0-.82,0,.9.9,0,0,0-.15.18.67.67,0,0,0-.14.28.69.69,0,0,0,.32.75.68.68,0,0,0,.52.06l.16-.07a.59.59,0,0,0,.23-.24A.7.7,0,0,0,1378,190.09Z"/><path class="cls-5" d="M1371.18,175.49a.79.79,0,0,0-.52-.22.83.83,0,0,0-.43.13.66.66,0,0,0-.11,1,.81.81,0,0,0,.53.22.76.76,0,0,0,.54-.23A.66.66,0,0,0,1371.18,175.49Z"/><path class="cls-5" d="M1400.11,184l-.09,0a.57.57,0,0,0-.22,0h-.07a.57.57,0,0,0-.54.73.73.73,0,0,0,.21.36.77.77,0,0,0,.87.08.62.62,0,0,0-.16-1.13Z"/><path class="cls-6" d="M1401.09,149.84a.51.51,0,0,0,0-.46c-.87-1.6-3.11-1.3-4.36-.38a9.54,9.54,0,0,0-3,4.37c-.41,1-.75,2.07-1.06,3.12-.57,1.28-1.15,2.55-1.74,3.83s-1.26,2.66-1.79,4a7,7,0,0,0-.54,4.22.86.86,0,0,0,.84.62,3.06,3.06,0,0,0,2.13-1.31c1.13-.73,1.79-2.54,2.33-3.59s1.18-1.87,1.77-2.79,1.27-2.13,1.89-3.2c.9-1.56,2-3,2.8-4.6A5.54,5.54,0,0,0,1401.09,149.84Z"/><path class="cls-6" d="M1374.42,169.26a8,8,0,0,0-2.09-2.14c-.93-.75-1.89-1.48-2.84-2.2-1.92-1.44-3.85-2.87-5.7-4.41a6.89,6.89,0,0,0-4-2c-1.72-.64-3.2,1.47-3.19,3,0,2,1.87,3.25,3.42,4.09,2.1,1.14,4.21,2.28,6.4,3.24a16.88,16.88,0,0,0,6.82,1.68l.21.08C1374.22,170.9,1374.76,169.88,1374.42,169.26Z"/><path class="cls-6" d="M1369.59,189.18a.35.35,0,0,0-.26,0,43.13,43.13,0,0,0-4.77,3.09c-1.48,1-2.85,2.07-4.25,3.17a14.07,14.07,0,0,0-3.2,3.15,3.21,3.21,0,0,0-.06,3.78c.79.89,2.17.36,3-.1a15.49,15.49,0,0,0,3-2.39,33.16,33.16,0,0,0,3.94-4.5c.56-.76,1-1.59,1.52-2.4.27-.44.53-.89.77-1.35a8.79,8.79,0,0,1,.76-1.46C1370.43,189.81,1370.13,189.07,1369.59,189.18Z"/><path class="cls-6" d="M1399.77,214.16a11.11,11.11,0,0,0-1-3.48c-.74-1.7-1.3-3.47-2-5.17-.41-.93-.84-1.85-1.28-2.77s-1.06-2-1.5-3v-.08a.67.67,0,0,0-1-.59.39.39,0,0,0-.69.24,14.16,14.16,0,0,0,.23,3c.13,1,.23,2,.34,3.08a46,46,0,0,0,1.05,6.37c.47,1.91,1.73,5.56,4.27,5A2.37,2.37,0,0,0,1399.77,214.16Z"/><path class="cls-6" d="M1423.64,180.76c-.27-1.29-1.69-1.76-2.82-2a13.37,13.37,0,0,0-4.14-.22c-1.35.1-2.69.31-4,.44s-2.66.06-4,.14a.36.36,0,0,0-.35.34.8.8,0,0,0,.17,1.45c1.5.39,3,.68,4.5,1.09s3,.9,4.52,1.19a11.91,11.91,0,0,0,3.81.23C1422.56,183.18,1423.94,182.22,1423.64,180.76Z"/><path class="cls-7" d="M1359.86,161.68a.89.89,0,0,1-.88.91.91.91,0,0,1-.91-.88.9.9,0,1,1,1.79,0Z"/><path class="cls-7" d="M1363.63,163.78a1.27,1.27,0,1,1-1.29-1.25A1.28,1.28,0,0,1,1363.63,163.78Z"/><path class="cls-7" d="M1367.77,166.28a1.31,1.31,0,1,1-1.32-1.28A1.3,1.3,0,0,1,1367.77,166.28Z"/><path class="cls-7" d="M1372.07,168.86a1.34,1.34,0,0,1-1.32,1.36,1.36,1.36,0,0,1-1.37-1.32,1.35,1.35,0,0,1,2.69,0Z"/><path class="cls-7" d="M1376.26,170.8a1.3,1.3,0,1,1-1.32-1.28A1.3,1.3,0,0,1,1376.26,170.8Z"/><path class="cls-7" d="M1359.61,200a1,1,0,0,1-1.94,0,1,1,0,0,1,1.94,0Z"/><path class="cls-7" d="M1362.69,196.77a1.12,1.12,0,1,1-1.14-1.1A1.12,1.12,0,0,1,1362.69,196.77Z"/><path class="cls-7" d="M1366.21,193.73a1.27,1.27,0,0,1-2.53,0,1.27,1.27,0,0,1,2.53,0Z"/><path class="cls-7" d="M1370.26,190.19a1.37,1.37,0,0,1-1.35,1.4,1.38,1.38,0,1,1,1.35-1.4Z"/><path class="cls-7" d="M1374,187.59a1.46,1.46,0,1,1-1.48-1.43A1.46,1.46,0,0,1,1374,187.59Z"/><path class="cls-7" d="M1377.09,184.64a1.15,1.15,0,1,1-1.17-1.13A1.14,1.14,0,0,1,1377.09,184.64Z"/><path class="cls-7" d="M1379.86,181.8a.88.88,0,0,1-.86.89.88.88,0,0,1,0-1.75A.88.88,0,0,1,1379.86,181.8Z"/><path class="cls-7" d="M1390.54,182.93a1,1,0,1,1-1-.94A1,1,0,0,1,1390.54,182.93Z"/><path class="cls-7" d="M1391.32,186.86a1.32,1.32,0,1,1-1.34-1.29A1.31,1.31,0,0,1,1391.32,186.86Z"/><path class="cls-7" d="M1392.29,191.11a1.29,1.29,0,1,1-1.31-1.27A1.28,1.28,0,0,1,1392.29,191.11Z"/><path class="cls-7" d="M1393.36,195.45a1.33,1.33,0,1,1-1.35-1.3A1.33,1.33,0,0,1,1393.36,195.45Z"/><path class="cls-7" d="M1394.41,200a1.15,1.15,0,1,1-1.17-1.13A1.15,1.15,0,0,1,1394.41,200Z"/><path class="cls-7" d="M1395.88,205a1.07,1.07,0,0,1-2.14,0,1.06,1.06,0,0,1,1-1.09A1.07,1.07,0,0,1,1395.88,205Z"/><path class="cls-7" d="M1389.3,172.85a1,1,0,1,1-1-1A1,1,0,0,1,1389.3,172.85Z"/><path class="cls-7" d="M1391.91,168.52a1.34,1.34,0,1,1-2.68,0,1.36,1.36,0,0,1,1.32-1.37A1.34,1.34,0,0,1,1391.91,168.52Z"/><path class="cls-7" d="M1393.88,164.05a1.31,1.31,0,1,1-1.32-1.28A1.31,1.31,0,0,1,1393.88,164.05Z"/><path class="cls-7" d="M1395.83,159.88a1.2,1.2,0,1,1-1.22-1.18A1.2,1.2,0,0,1,1395.83,159.88Z"/><path class="cls-7" d="M1397.92,155.7a1.08,1.08,0,1,1-1.1-1.06A1.08,1.08,0,0,1,1397.92,155.7Z"/><path class="cls-7" d="M1399.13,152.15a.9.9,0,1,1-.91-.88A.88.88,0,0,1,1399.13,152.15Z"/><path class="cls-7" d="M1400.6,178.87a1.41,1.41,0,1,1-1.43-1.38A1.4,1.4,0,0,1,1400.6,178.87Z"/><path class="cls-7" d="M1405.23,179.55a1.23,1.23,0,0,1-1.21,1.25,1.23,1.23,0,1,1,0-2.46A1.23,1.23,0,0,1,1405.23,179.55Z"/><path class="cls-7" d="M1409.37,179.82a1.1,1.1,0,1,1-1.12-1.08A1.1,1.1,0,0,1,1409.37,179.82Z"/><path class="cls-7" d="M1413.18,180.33a.91.91,0,1,1-.92-.9A.9.9,0,0,1,1413.18,180.33Z"/><path class="cls-7" d="M1417,180.61a.92.92,0,1,1-.94-.91A.93.93,0,0,1,1417,180.61Z"/><path class="cls-7" d="M1358.52,163.83a.5.5,0,0,1-.48.49.48.48,0,0,1-.49-.48.47.47,0,0,1,.47-.49A.49.49,0,0,1,1358.52,163.83Z"/><path class="cls-7" d="M1363.72,166.83a.5.5,0,0,1-.48.5.48.48,0,0,1-.49-.48.47.47,0,0,1,.47-.49A.49.49,0,0,1,1363.72,166.83Z"/><path class="cls-7" d="M1369,170.73a.48.48,0,0,1-.47.49.49.49,0,1,1,0-1A.48.48,0,0,1,1369,170.73Z"/><path class="cls-7" d="M1376,174.54a.49.49,0,0,1-1,0,.49.49,0,1,1,1,0Z"/><path class="cls-7" d="M1380,185.07a.48.48,0,0,1-.48.49.47.47,0,0,1-.49-.47.49.49,0,0,1,.47-.5A.5.5,0,0,1,1380,185.07Z"/><path class="cls-7" d="M1375.77,189.5a.48.48,0,0,1-.48.49.47.47,0,0,1-.49-.47.49.49,0,0,1,.47-.5A.5.5,0,0,1,1375.77,189.5Z"/><path class="cls-7" d="M1370.29,193.66a.48.48,0,0,1-.48.49.47.47,0,0,1-.49-.47.47.47,0,0,1,.47-.49A.48.48,0,0,1,1370.29,193.66Z"/><path class="cls-7" d="M1364.72,197.85a.49.49,0,0,1-.47.5.5.5,0,0,1-.5-.48.48.48,0,0,1,.48-.49A.47.47,0,0,1,1364.72,197.85Z"/><path class="cls-7" d="M1360.13,202.22a.47.47,0,0,1-.47.49.48.48,0,1,1,0-1A.47.47,0,0,1,1360.13,202.22Z"/><path class="cls-7" d="M1360.4,165.1a.47.47,0,0,1-.47.49.49.49,0,0,1-.5-.47.5.5,0,0,1,.48-.5A.48.48,0,0,1,1360.4,165.1Z"/><path class="cls-7" d="M1366.28,168.91a.5.5,0,0,1-.48.49.48.48,0,0,1-.49-.48.47.47,0,0,1,.47-.49A.49.49,0,0,1,1366.28,168.91Z"/><path class="cls-7" d="M1372.62,172.89a.49.49,0,0,1-.48.49.5.5,0,0,1-.49-.48.48.48,0,0,1,.48-.49A.48.48,0,0,1,1372.62,172.89Z"/><path class="cls-7" d="M1382,182.64a.48.48,0,0,1-.48.49.47.47,0,0,1-.49-.47.47.47,0,0,1,.47-.49A.48.48,0,0,1,1382,182.64Z"/><path class="cls-7" d="M1388.27,169.92a.48.48,0,0,1-.48.49.47.47,0,0,1-.49-.47.49.49,0,1,1,1,0Z"/><path class="cls-7" d="M1391.4,162.79a.48.48,0,0,1-.47.49.5.5,0,0,1-.5-.48.49.49,0,0,1,.48-.49A.48.48,0,0,1,1391.4,162.79Z"/><path class="cls-7" d="M1394.65,156.35a.5.5,0,0,1-.48.5.48.48,0,0,1-.49-.48.48.48,0,0,1,.48-.49A.49.49,0,0,1,1394.65,156.35Z"/><path class="cls-7" d="M1386.44,173.88a.48.48,0,0,1-.47.49.5.5,0,0,1-.5-.48.48.48,0,0,1,.48-.49A.48.48,0,0,1,1386.44,173.88Z"/><path class="cls-7" d="M1393.13,187.75a.48.48,0,0,1-.47.5.49.49,0,0,1-.49-.48.47.47,0,0,1,.47-.49A.47.47,0,0,1,1393.13,187.75Z"/><path class="cls-7" d="M1394.81,194.59a.48.48,0,0,1-.48.49.48.48,0,0,1-.49-.48.49.49,0,0,1,.47-.49A.5.5,0,0,1,1394.81,194.59Z"/><path class="cls-7" d="M1396.32,202.1a.48.48,0,0,1-.48.49.48.48,0,0,1-.49-.48.49.49,0,0,1,.47-.49A.5.5,0,0,1,1396.32,202.1Z"/><path class="cls-7" d="M1392.59,184.38a.49.49,0,0,1-.47.49.5.5,0,0,1-.5-.48.49.49,0,0,1,.48-.49A.48.48,0,0,1,1392.59,184.38Z"/><path class="cls-7" d="M1402.16,181.52a.47.47,0,0,1-.47.49.49.49,0,0,1-.5-.47.5.5,0,0,1,.48-.5A.48.48,0,0,1,1402.16,181.52Z"/><path class="cls-7" d="M1410.37,181.87a.5.5,0,0,1-.48.49.49.49,0,0,1-.49-.48.48.48,0,0,1,.48-.49A.49.49,0,0,1,1410.37,181.87Z"/><path class="cls-7" d="M1397.75,181.11a.47.47,0,0,1-.47.49.49.49,0,1,1,0-1A.48.48,0,0,1,1397.75,181.11Z"/><path class="cls-7" d="M1406.64,181.71a.49.49,0,0,1-.47.49.5.5,0,0,1-.5-.48.48.48,0,0,1,.48-.49A.48.48,0,0,1,1406.64,181.71Z"/><path class="cls-7" d="M1414.18,182.1a.47.47,0,0,1-.47.49.49.49,0,0,1-.5-.47.5.5,0,0,1,.48-.5A.48.48,0,0,1,1414.18,182.1Z"/><path class="cls-7" d="M1394,191.08a.49.49,0,0,1-.48.49.49.49,0,0,1,0-1A.5.5,0,0,1,1394,191.08Z"/><path class="cls-7" d="M1395.51,198.35a.5.5,0,0,1-.48.5.48.48,0,0,1-.49-.48.47.47,0,0,1,.47-.49A.49.49,0,0,1,1395.51,198.35Z"/><path class="cls-7" d="M1397.49,205.43a.49.49,0,0,1-.48.49.5.5,0,0,1-.49-.48.48.48,0,0,1,.48-.49A.48.48,0,0,1,1397.49,205.43Z"/><path class="cls-7" d="M1389.79,166.4a.5.5,0,0,1-.48.49.48.48,0,0,1-.49-.48.48.48,0,0,1,.48-.49A.49.49,0,0,1,1389.79,166.4Z"/><path class="cls-7" d="M1393,159.44a.48.48,0,1,1-1,0,.48.48,0,1,1,1,0Z"/><path class="cls-7" d="M1396.2,153.09a.5.5,0,0,1-.48.5.48.48,0,0,1-.49-.48.47.47,0,0,1,.47-.49A.49.49,0,0,1,1396.2,153.09Z"/><path class="cls-7" d="M1378.11,187.52a.48.48,0,0,1-.48.49.47.47,0,0,1-.49-.47.49.49,0,1,1,1,0Z"/><path class="cls-7" d="M1373.05,191.52a.5.5,0,0,1-.48.5.48.48,0,0,1-.49-.48.47.47,0,0,1,.47-.49A.48.48,0,0,1,1373.05,191.52Z"/><path class="cls-7" d="M1367.7,195.88a.49.49,0,1,1-1,0,.48.48,0,0,1,.48-.49A.47.47,0,0,1,1367.7,195.88Z"/><path class="cls-7" d="M1362.18,200a.48.48,0,0,1-.47.49.5.5,0,0,1-.5-.48.49.49,0,0,1,.48-.49A.48.48,0,0,1,1362.18,200Z"/><path class="cls-8" d="M1425.8,180.88a3.93,3.93,0,0,0-3.22-3.37,118.84,118.84,0,0,0-13.08-3.68,59.2,59.2,0,0,1-6.66-1.85c-1.08-.4-2.37-.7-2.4-1.92.16-3.48.41-7,.89-10.41a43.45,43.45,0,0,0,.66-8.89,3.2,3.2,0,0,0-1.07-2.48,2.88,2.88,0,0,0-2.6-.3,9.31,9.31,0,0,0-3.89,2.54,20.14,20.14,0,0,0-2.27,2.16c-1.6,1.69-3,3.54-4.51,5.33a44.47,44.47,0,0,1-4,4.47c-.78.72-2,1.59-5.54.42-1.23-.31-2.45-.66-3.66-1-2.64-.78-5.25-1.63-7.88-2.4-1.59-.47-3.21-1-4.84-1.33v0c-3.43-.78-4.66.65-5.31,1.63-1.53,2.3-.21,5.12,1.28,7.07,1.75,2.28,4,4.1,6,6.22s3.89,4.06,5,6.61a6.12,6.12,0,0,1,0,1.71,5.9,5.9,0,0,1-1.05,2.13,36.3,36.3,0,0,1-3.29,3.61c-2.16,2.36-4.59,4.48-6.67,6.92-1.75,2.07-3.71,4.95-3.12,7.81.52,2.47,3.4,3.26,5.52,2.46a14.11,14.11,0,0,0,3-1c2-.84,3.85-1.86,5.72-2.88a68,68,0,0,1,7.49-3.87,10.53,10.53,0,0,1,3.77-.91,3.85,3.85,0,0,1,2.72,1.16c3.3,4.55,5.46,10.15,8.15,15.06,1.29,2.37,2.92,4.75,5.38,6a3.77,3.77,0,0,0,3.3.24c3.3-1.46,2.26-5.85,2.11-7.59-.23-2.69-.67-5.35-1.05-8-.32-2.26-.62-4.53-.88-6.8a17,17,0,0,1-.06-4,5.73,5.73,0,0,1,.65-1.61,3.41,3.41,0,0,1,1.46-1.08,14.85,14.85,0,0,1,2.44-.81c1.19-.34,2.39-.61,3.6-.86,3.94-.8,8-1.39,12-1.83C1422.35,185.24,1426,184.2,1425.8,180.88Zm-1.19,1.18c-1.18,2.78-5.3,2.41-7.77,2.75a101.81,101.81,0,0,0-12.36,2.29c-1.36.37-3.27.58-4.38,1.5a3.56,3.56,0,0,0-1.08,1.65c-.58,1.36-.2,3.2-.14,4.62.09,2.18.35,4.37.62,6.53.35,2.68.77,5.35,1.06,8,.14,1.25.25,2.51.33,3.77a8.78,8.78,0,0,1-.14,2.13l0,0c-.43,1-1,2-2.24,2.1a5,5,0,0,1-3.37-1.46c-2-1.66-3.22-4.08-4.36-6.34s-2.26-4.51-3.37-6.78-2.08-4.92-3.86-6.6c-1.81-2.27-3.53-1.83-5.48-1.37a30,30,0,0,0-7.62,3.43c-2.08,1.17-4.18,2.29-6.29,3.41a29.22,29.22,0,0,1-3.33,1.5,9.37,9.37,0,0,1-2,.43,4.19,4.19,0,0,1-2.24-.55,3,3,0,0,1-1.09-3.13c.5-2.95,2.89-5.46,4.9-7.5s4.05-4.14,6.07-6.22a15,15,0,0,0,2.67-3.43,4.77,4.77,0,0,0,.5-1.52.21.21,0,0,0,.07-.15c.26-2.75-1.88-5.15-3.58-7.06s-3.67-3.85-5.57-5.74-3.76-4-3.74-6.67c1.11-3.32,3.68-3.25,5.46-2.61s3.69,1.12,5.53,1.7c2.43.76,4.86,1.55,7.31,2.25,1.12.32,2.24.63,3.37.91a9.19,9.19,0,0,0,2.17.35,4.27,4.27,0,0,0,3-.48c1.51-.9,2.65-2.56,3.78-3.87,1.59-1.84,3.07-3.75,4.64-5.6.75-.88,1.52-1.74,2.33-2.57a24.51,24.51,0,0,1,2.83-2.33l0,0a9,9,0,0,1,1.25-.53,1.89,1.89,0,0,1,2.25.48c.57.79.39,2.25.36,3.16-.1,2.84-.56,5.61-.84,8.43a61.87,61.87,0,0,0-.61,10.17c0,1.78,6.46,2.85,8.58,3.37,2.54.62,5.09,1.17,7.6,1.89,1.36.39,2.71,1,4.09,1.4C1419.88,177.86,1425.76,179.35,1424.61,182.06Z"/><path class="cls-13" d="M518.37,177.43a9.57,9.57,0,0,0-5-.75,13.56,13.56,0,0,0-6.14,1.68,17.71,17.71,0,0,0-6.74,6.23c-1.69,2.65-2.65,6-1,8.87,1.55,2.69,4.41,4,7.34,4.45,5.8.91,14.12.6,17.7-4.83C528.27,187.48,524.2,179.86,518.37,177.43Z"/><path class="cls-14" d="M525.17,185.31a11.58,11.58,0,0,0-3-5.25c-1.11-1.16-2.66-2.58-4.34-2.75a4.34,4.34,0,0,0-.64-.2.2.2,0,0,0-.15.36,7.47,7.47,0,0,1,2.68,2.76,4.81,4.81,0,0,1,.45,1.34c-1.38-.71-2.9,1.68-2.05,2.93a1.52,1.52,0,0,0,2.07.24,11.25,11.25,0,0,1-.43,1.78h0a2.31,2.31,0,0,0-2.47.73,2.13,2.13,0,0,0,0,2.49,1.38,1.38,0,0,0,.53.45,10,10,0,0,1-.79.92l-.28.26c-.18-1-1.52-1.51-2.46-1.61A3.59,3.59,0,0,0,511,192.1a1.67,1.67,0,0,0,.46,2.09,16.51,16.51,0,0,1-4.46.54c-2.69,0-6.67-.23-8.14-2.87-.07-.12-.3,0-.24.1a3.88,3.88,0,0,0,.6,1.1.15.15,0,0,0,0,.17,9.44,9.44,0,0,0,3.35,2.8c1.63,1.39,4,1.64,6,1.9a21.3,21.3,0,0,0,8.11-.36c2.27-.58,4.76-1.33,6.5-3a8.42,8.42,0,0,0,2.29-6.12A11.75,11.75,0,0,0,525.17,185.31Z"/><path class="cls-14" d="M518,185.49a.72.72,0,0,0-.49-.5.78.78,0,0,0-.82.34,1.29,1.29,0,0,0-.19.94.47.47,0,0,0,.45.34,1.06,1.06,0,0,0,.88-.31A.88.88,0,0,0,518,185.49Z"/><path class="cls-14" d="M515.26,186.5c-.93-.54-2.92.22-2.32,1.5l0,0a1.32,1.32,0,0,0,1.4,1.1,1.79,1.79,0,0,0,1.57-1.12A1.33,1.33,0,0,0,515.26,186.5Z"/><path class="cls-14" d="M515.82,184.7a.43.43,0,0,0-.44-.12h0a.38.38,0,0,0-.35.31.52.52,0,0,0-.07.25.42.42,0,0,0,.21.37.46.46,0,0,0,.44,0h0l.08,0A.5.5,0,0,0,515.82,184.7Z"/><path class="cls-14" d="M510.92,189.57a.8.8,0,0,0-.07-.2.46.46,0,0,0-.79,0,.8.8,0,0,0-.07.2.48.48,0,1,0,.93,0Z"/><path class="cls-14" d="M509.37,192.3h0a.47.47,0,1,0,0,.48h0A.47.47,0,0,0,509.37,192.3Z"/><path class="cls-14" d="M512.42,184.87a.31.31,0,0,0-.3-.24.32.32,0,0,0-.31.4.36.36,0,0,0,.35.27.3.3,0,0,0,.26-.14A.33.33,0,0,0,512.42,184.87Z"/><path class="cls-14" d="M517.43,182v0c-.2-.25-.6,0-.6.25s.4.5.6.25v0A.34.34,0,0,0,517.43,182Z"/><path class="cls-15" d="M518.37,177.43a9.57,9.57,0,0,0-5-.75,13.56,13.56,0,0,0-6.14,1.68,17.71,17.71,0,0,0-6.74,6.23c-1.69,2.65-2.65,6-1,8.87,1.55,2.69,4.41,4,7.34,4.45,5.8.91,14.12.6,17.7-4.83C528.27,187.48,524.2,179.86,518.37,177.43Z"/><path class="cls-13" d="M789.65,188.3a12,12,0,0,0-6.28-1,17.2,17.2,0,0,0-7.81,2.13,22.55,22.55,0,0,0-8.56,7.92c-2.15,3.37-3.37,7.61-1.27,11.27,2,3.42,5.6,5.08,9.32,5.66,7.37,1.15,18,.75,22.5-6.15C802.24,201.06,797.07,191.38,789.65,188.3Z"/><path class="cls-14" d="M798.29,198.31a14.71,14.71,0,0,0-3.77-6.68c-1.4-1.47-3.37-3.27-5.51-3.49a5.44,5.44,0,0,0-.81-.25.25.25,0,0,0-.2.45,9.49,9.49,0,0,1,3.41,3.51,6.81,6.81,0,0,1,.57,1.7c-1.76-.9-3.69,2.14-2.61,3.73a1.94,1.94,0,0,0,2.64.29,13.66,13.66,0,0,1-.55,2.27h0a2.93,2.93,0,0,0-3.14.93,2.7,2.7,0,0,0,0,3.16,1.75,1.75,0,0,0,.68.58,14.33,14.33,0,0,1-1,1.16c-.11.12-.23.23-.35.34-.22-1.24-1.93-1.93-3.13-2.06-1.71-.19-3.6,1.47-4.14,3a2.12,2.12,0,0,0,.59,2.65,21.92,21.92,0,0,1-5.68.69c-3.41,0-8.46-.3-10.34-3.65-.09-.16-.37,0-.3.13a5.23,5.23,0,0,0,.76,1.4.2.2,0,0,0,0,.21,11.88,11.88,0,0,0,4.25,3.55c2.07,1.77,5,2.09,7.64,2.42a26.86,26.86,0,0,0,10.3-.46c2.89-.73,6.05-1.69,8.26-3.77a10.67,10.67,0,0,0,2.91-7.78A14.78,14.78,0,0,0,798.29,198.31Z"/><path class="cls-14" d="M789.12,198.53a.89.89,0,0,0-.63-.63,1,1,0,0,0-1,.42,1.59,1.59,0,0,0-.24,1.2.6.6,0,0,0,.57.44,1.34,1.34,0,0,0,1.11-.4A1.13,1.13,0,0,0,789.12,198.53Z"/><path class="cls-14" d="M785.71,199.81c-1.19-.68-3.71.28-3,1.91l0,.05a1.67,1.67,0,0,0,1.78,1.4,2.29,2.29,0,0,0,2-1.42A1.68,1.68,0,0,0,785.71,199.81Z"/><path class="cls-14" d="M786.41,197.53a.54.54,0,0,0-.56-.15h0a.49.49,0,0,0-.44.39.66.66,0,0,0-.09.31.55.55,0,0,0,.27.48.59.59,0,0,0,.56,0h0l.1,0A.64.64,0,0,0,786.41,197.53Z"/><path class="cls-14" d="M780.19,203.72a1.84,1.84,0,0,0-.09-.25.58.58,0,0,0-1,0,1.09,1.09,0,0,0-.1.25.62.62,0,1,0,1.19,0Z"/><path class="cls-14" d="M778.21,207.18h0a.61.61,0,1,0,0,.61h0A.57.57,0,0,0,778.21,207.18Z"/><path class="cls-14" d="M782.09,197.75a.39.39,0,0,0-.38-.31.4.4,0,0,0-.39.51.48.48,0,0,0,.44.35.41.41,0,0,0,.33-.19A.36.36,0,0,0,782.09,197.75Z"/><path class="cls-14" d="M788.46,194.09l0,0c-.24-.32-.75,0-.75.31s.51.63.75.31l0,0A.43.43,0,0,0,788.46,194.09Z"/><path class="cls-16" d="M789.65,188.3a12,12,0,0,0-6.28-1,17.2,17.2,0,0,0-7.81,2.13,22.55,22.55,0,0,0-8.56,7.92c-2.15,3.37-3.37,7.61-1.27,11.27,2,3.42,5.6,5.08,9.32,5.66,7.37,1.15,18,.75,22.5-6.15C802.24,201.06,797.07,191.38,789.65,188.3Z"/><path class="cls-13" d="M1266.55,132.31a8.81,8.81,0,0,0-4.61-.7,12.61,12.61,0,0,0-5.73,1.56,16.52,16.52,0,0,0-6.29,5.82c-1.58,2.47-2.47,5.58-.93,8.27a9.15,9.15,0,0,0,6.84,4.15c5.41.85,13.18.56,16.52-4.51C1275.79,141.68,1272,134.57,1266.55,132.31Z"/><path class="cls-14" d="M1272.9,139.66a10.86,10.86,0,0,0-2.77-4.9c-1-1.08-2.48-2.41-4.05-2.57a5.26,5.26,0,0,0-.6-.18.18.18,0,0,0-.14.33,6.88,6.88,0,0,1,2.5,2.58,4.23,4.23,0,0,1,.42,1.24c-1.29-.66-2.71,1.57-1.91,2.74a1.41,1.41,0,0,0,1.93.22,9.56,9.56,0,0,1-.4,1.66h0a2.15,2.15,0,0,0-2.31.68,2,2,0,0,0,0,2.31,1.24,1.24,0,0,0,.5.43c-.24.3-.49.59-.75.86l-.25.24c-.17-.91-1.42-1.41-2.3-1.51a3.35,3.35,0,0,0-3,2.2,1.55,1.55,0,0,0,.43,1.95,15.93,15.93,0,0,1-4.17.51c-2.5,0-6.21-.23-7.59-2.68-.07-.12-.27,0-.22.09a3.77,3.77,0,0,0,.56,1,.16.16,0,0,0,0,.15,8.73,8.73,0,0,0,3.12,2.61c1.52,1.3,3.7,1.53,5.61,1.78a19.84,19.84,0,0,0,7.56-.34,13.63,13.63,0,0,0,6.07-2.76,7.87,7.87,0,0,0,2.14-5.72A11.35,11.35,0,0,0,1272.9,139.66Z"/><path class="cls-14" d="M1266.16,139.82a.65.65,0,0,0-.46-.46.73.73,0,0,0-.76.31,1.18,1.18,0,0,0-.17.88.44.44,0,0,0,.42.32,1,1,0,0,0,.81-.29A.81.81,0,0,0,1266.16,139.82Z"/><path class="cls-14" d="M1263.66,140.76c-.88-.5-2.73.21-2.17,1.4a.05.05,0,0,0,0,0,1.23,1.23,0,0,0,1.31,1,1.68,1.68,0,0,0,1.46-1A1.24,1.24,0,0,0,1263.66,140.76Z"/><path class="cls-14" d="M1264.17,139.08a.44.44,0,0,0-.41-.11h0a.35.35,0,0,0-.33.29.52.52,0,0,0-.07.22.41.41,0,0,0,.61.35h0l.07,0A.47.47,0,0,0,1264.17,139.08Z"/><path class="cls-14" d="M1259.61,143.63c0-.06,0-.12-.07-.19a.43.43,0,0,0-.73,0,.89.89,0,0,0-.07.19.45.45,0,0,0,.43.57A.46.46,0,0,0,1259.61,143.63Z"/><path class="cls-14" d="M1258.16,146.17h0a.44.44,0,1,0,0,.45h0A.47.47,0,0,0,1258.16,146.17Z"/><path class="cls-14" d="M1261,139.25a.29.29,0,0,0-.28-.23.3.3,0,0,0-.28.38.33.33,0,0,0,.32.25.27.27,0,0,0,.24-.14A.23.23,0,0,0,1261,139.25Z"/><path class="cls-14" d="M1265.68,136.56v0c-.19-.23-.56,0-.56.23s.37.47.56.23h0A.32.32,0,0,0,1265.68,136.56Z"/><path class="cls-17" d="M1266.55,132.31a8.81,8.81,0,0,0-4.61-.7,12.61,12.61,0,0,0-5.73,1.56,16.52,16.52,0,0,0-6.29,5.82c-1.58,2.47-2.47,5.58-.93,8.27a9.15,9.15,0,0,0,6.84,4.15c5.41.85,13.18.56,16.52-4.51C1275.79,141.68,1272,134.57,1266.55,132.31Z"/><path class="cls-13" d="M1517,181.1a10.64,10.64,0,0,0-5.64-.85,15.4,15.4,0,0,0-7,1.9,20.34,20.34,0,0,0-7.68,7.11c-1.93,3-3,6.83-1.14,10.11,1.77,3.07,5,4.56,8.37,5.08,6.61,1,16.1.68,20.18-5.52C1528.28,192.55,1523.64,183.86,1517,181.1Z"/><path class="cls-14" d="M1524.74,190.08a13.32,13.32,0,0,0-3.38-6c-1.27-1.32-3-2.94-4.95-3.13a6.18,6.18,0,0,0-.73-.23.23.23,0,0,0-.17.41,8.53,8.53,0,0,1,3,3.15,5.82,5.82,0,0,1,.52,1.52c-1.58-.8-3.32,1.92-2.35,3.35a1.74,1.74,0,0,0,2.37.26,12.11,12.11,0,0,1-.49,2h0a2.63,2.63,0,0,0-2.81.83,2.42,2.42,0,0,0,0,2.83,1.56,1.56,0,0,0,.6.53,12.78,12.78,0,0,1-.91,1c-.1.11-.2.2-.31.3-.2-1.11-1.73-1.72-2.81-1.84-1.54-.17-3.23,1.31-3.71,2.69a1.91,1.91,0,0,0,.52,2.38,19.12,19.12,0,0,1-5.09.61c-3.06,0-7.59-.27-9.28-3.27-.08-.14-.33-.05-.27.12a5,5,0,0,0,.68,1.25.21.21,0,0,0,0,.19,10.63,10.63,0,0,0,3.82,3.19c1.85,1.59,4.51,1.87,6.85,2.17a24.36,24.36,0,0,0,9.24-.41c2.59-.66,5.43-1.52,7.42-3.38a9.63,9.63,0,0,0,2.61-7A13.82,13.82,0,0,0,1524.74,190.08Z"/><path class="cls-14" d="M1516.51,190.28a.81.81,0,0,0-.56-.56.87.87,0,0,0-.93.38,1.4,1.4,0,0,0-.22,1.07.54.54,0,0,0,.52.39,1.18,1.18,0,0,0,1-.36A1,1,0,0,0,1516.51,190.28Z"/><path class="cls-14" d="M1513.45,191.43c-1.07-.61-3.33.25-2.66,1.71l0,.05a1.49,1.49,0,0,0,1.6,1.25,2,2,0,0,0,1.79-1.27A1.52,1.52,0,0,0,1513.45,191.43Z"/><path class="cls-14" d="M1514.08,189.38a.51.51,0,0,0-.51-.13h0a.45.45,0,0,0-.4.35.69.69,0,0,0-.08.28.47.47,0,0,0,.24.43.52.52,0,0,0,.5,0h0l.09,0A.57.57,0,0,0,1514.08,189.38Z"/><path class="cls-14" d="M1508.5,194.94a1.09,1.09,0,0,0-.09-.23.52.52,0,0,0-.89,0,1.09,1.09,0,0,0-.09.23.55.55,0,1,0,1.07,0Z"/><path class="cls-14" d="M1506.72,198.05v0a.54.54,0,1,0,0,.55h0A.49.49,0,0,0,1506.72,198.05Z"/><path class="cls-14" d="M1510.2,189.58a.35.35,0,0,0-.34-.28.37.37,0,0,0-.35.46.42.42,0,0,0,.4.31.34.34,0,0,0,.29-.17A.29.29,0,0,0,1510.2,189.58Z"/><path class="cls-14" d="M1515.92,186.3l0,0c-.22-.29-.68,0-.68.28s.46.57.68.28l0,0A.4.4,0,0,0,1515.92,186.3Z"/><path class="cls-18" d="M1517,181.1a10.64,10.64,0,0,0-5.64-.85,15.4,15.4,0,0,0-7,1.9,20.34,20.34,0,0,0-7.68,7.11c-1.93,3-3,6.83-1.14,10.11,1.77,3.07,5,4.56,8.37,5.08,6.61,1,16.1.68,20.18-5.52C1528.28,192.55,1523.64,183.86,1517,181.1Z"/></g></g></svg>