<svg xmlns="http://www.w3.org/2000/svg" viewBox="0 0 234.91 92.92"><defs><style>.cls-1,.cls-19{opacity:0.4;}.cls-2{fill:#5596ca;}.cls-11,.cls-3,.cls-4{fill:#f9dbc5;}.cls-10,.cls-12,.cls-13,.cls-14,.cls-15,.cls-16,.cls-17,.cls-18,.cls-20,.cls-21,.cls-3,.cls-4,.cls-5,.cls-6,.cls-7{stroke:#4d3224;stroke-linecap:round;stroke-linejoin:round;}.cls-10,.cls-12,.cls-14,.cls-17,.cls-21,.cls-3{stroke-width:1.32px;}.cls-4,.cls-5,.cls-6,.cls-7{stroke-width:1.2px;}.cls-5{fill:#694431;}.cls-6,.cls-8{fill:#4d3224;}.cls-7{fill:#ffef00;}.cls-9{fill:#40271c;}.cls-10{fill:#6ea7d3;}.cls-12,.cls-15,.cls-16{fill:#664331;}.cls-13,.cls-14{fill:none;}.cls-13{stroke-width:1.15px;}.cls-15{stroke-width:1.32px;}.cls-16{stroke-width:0.99px;}.cls-17{fill:#ceedff;}.cls-18{fill:#9bccff;}.cls-18,.cls-20{stroke-width:0.66px;}.cls-19{fill:#c4e0ff;}.cls-20,.cls-21{fill:#fff;}.cls-22{fill:#452d1f;}</style></defs><title>skills-my</title><g id="圖層_2" data-name="圖層 2"><g id="技能"><g class="cls-1"><path class="cls-2" d="M198.89,48.49a16.59,16.59,0,0,1-4.08,7.17c-1.89,1.84-4.55,2.91-5.78,5.36.89-2.6,3.37-4,5-6.08A15,15,0,0,0,196.81,48Z"/><path class="cls-2" d="M203.2,50.13c-2.07,3.54-3,7.59-5.54,10.89-1.74,2.17-6.9,7.11-5.94,10.25-1.24-3.09,3.5-8.51,5.06-10.87,2.2-3.46,2.79-7.58,4.52-11.25Z"/><path class="cls-2" d="M206.42,53.52c-2.26,9.48-11.12,15.57-13.36,25,1.49-9.46,9.77-16.07,11.27-25.48Z"/><path class="cls-2" d="M214.38,58.86c-2.33,3.11-3,7.13-5.28,10.27s-4.64,6.21-6.78,9.47c1.83-3.44,3.9-6.72,5.88-10.06s2.34-7.48,4.39-10.85Z"/><path class="cls-2" d="M211,55.35c-1.28,2.23-.93,4.91-2.37,7.16-3.43,5-7.93,9.3-11.5,14.26,3-5,7.15-9.44,9.93-14.56,1.42-2.5.8-5.24,2-7.81Z"/><path class="cls-2" d="M218.63,60c-3.42,4.38-4.07,10.8-8.75,14.36,4.23-4.14,4.11-10.7,7-15.53Z"/><path class="cls-2" d="M195,43.48a3.26,3.26,0,0,0,.84,4.74l23.37,13.15a3.25,3.25,0,0,0,4.48-1.74c4.28-9.73,3.35-19.5-5.2-24.31C209.7,30.37,201.06,34.75,195,43.48Z"/></g><path class="cls-3" d="M122.62,69.62c.74-.23,0-.18.15-.81.32-1.33,3.34-1.45,4.8-2.15.09,0-1.29-.28-.38-1,1.86-1.41,7.14-1.73,8.26-2.12a13.74,13.74,0,0,1,6.56-.42c6.23-4.62,15.66-13.74,24.81-17.67.06.12,23.12,5.75,31.27,8.11,6.6,2.95,9.28,7.1,7.72,11.06-2.63,6.68-14.2,1.7-31.57-5.68a41.46,41.46,0,0,0-6.7-2.16h0c-3.53,2-27.35,12.48-27.47,12.52-2.75,1-7.06,1.29-10.06,2.1-.09,0-6.7,1.42-7.53,1.43-.66,0-.73-.07-.95-.46-.39-.71.66-.9.7-1s-.56-.24-.56-.73S122.06,69.8,122.62,69.62Z"/><path class="cls-4" d="M94.9,58.71c7.37,5.56,13.46,11.65,22.08,15.62a68.08,68.08,0,0,0,18.41,5.49c2.4.35,6.65-.16,8.81,1,5.3,1.66,17.42-10-1.75-20.72-9.57-5.33-24.74-8.44-32.54-10.62-7.12-2-14.69-8.74-24.32-9.92-15.41-1.9-21.13.47-24-2.93-.77-.91-1.11-3.88-3.38-3.56s-5.73,4.7-7.88,5.72c-3,1.42-11.2,1.07-13.56,6.34-.53,1.17-.37,2.1.3,2.37,1.17.46,3.68-1.19,6.29-.33A43.93,43.93,0,0,0,54.49,49c7.34.2,13.26,2,20.52,3.8,6.59,1.62,12.57,2.31,19.12,5.31A3.94,3.94,0,0,1,94.9,58.71Z"/><path class="cls-5" d="M13.07,18.47c-.09,2.35,1.35,9,2.53,11.19,5.17,9.48,14.46,17.7,24,18.33,2.83.18,11.8,2.76,12.42.7a19.39,19.39,0,0,1,9.95-12c-1.12-2.5-2.42-3.77-3.81-4.25-3.86-1.35-8.48,3.37-12.33,4.38-.71.18-1.4.34-2.06.46-10.7,2-14.64-4.36-17.15-19.33a13.21,13.21,0,0,0-10.92-1.69,8,8,0,0,0-1.34.61A2.27,2.27,0,0,0,13.07,18.47Z"/><path class="cls-6" d="M13.07,18.47c-.09,2.35,1.35,9,2.53,11.19,5.17,9.48,14.46,17.7,24,18.33,2.83.18,11.8,2.76,12.42.7a19.39,19.39,0,0,1,9.95-12c-1.12-2.5-2.42-3.77-3.81-4.25a43.46,43.46,0,0,0-5.23,4.12C43.24,44.51,39.81,49,28,40.59c-8.1-5.75-10.55-14.51-13.67-23.76A2.27,2.27,0,0,0,13.07,18.47Z"/><path class="cls-7" d="M15.67,16.22c4.06,13.87,17.86,29.91,28.07,21-10.7,2-14.64-4.36-17.15-19.33A13.21,13.21,0,0,0,15.67,16.22Z"/><path class="cls-3" d="M203.31,51.52a47.4,47.4,0,0,0-15.73,2c-9.24,3-16.23,15.24-35.42,8.29-5.51-2-12,4.76-12.33,6.22a92.17,92.17,0,0,0-1.2,9.33c-.37,3.31.24.26,4.51,3.4,6.7,4.94,15.1,7.26,23.34,7.65A51.54,51.54,0,0,0,179,87.5c3.64-.73,8.09-3.4,11.8-2.69a14.44,14.44,0,0,0,10.46-2.2c4.48-3.11,9.38-17,11.17-22.89l.11.09c2-7.06,7.83-12,10.13-10.62L209.82,40c1.1,5.16,2,6.09-.65,8.18a20.39,20.39,0,0,1-6,3.23"/><path class="cls-4" d="M152.16,61.82c-7.09-3.38-11.07-3.69-16,.16-3.35,2.6-7.92,1.59-11.86,1.43-10.87-.43-15.54-1.32-28.77-.66l-1.94-.1c-4.32-2.53-10.12-5.74-16.25-6.85-8.43-1.52-18.73-1.38-22.17-2.14s-4.58-1.53-5.27-2.53-.75-4.05-3.06-4S40.61,52.26,38.35,53s-12.84,2-13.54,5.18,4.68.09,14.71,3.6c3.46,1.21,9.63-.35,14.8,2,5.78,2.61,17.84,7.58,23.92,9C85.77,74.55,92.73,78,100,80.69c7,2.59,14.17,3.73,21.56,4.54a51.27,51.27,0,0,0,20.12-1.6"/><path class="cls-5" d="M.61,31.21c-.1,2.35,1.34,9,2.52,11.19,5.18,9.48,14.46,17.7,24,18.33,2.82.18,11.79,2.76,12.41.71a19.39,19.39,0,0,1,10-12c-1.13-2.5-2.42-3.77-3.81-4.25-3.87-1.35-8.49,3.37-12.34,4.38-.71.19-1.39.35-2,.46-10.71,2-14.64-4.36-17.16-19.33A13.16,13.16,0,0,0,3.2,29a7.28,7.28,0,0,0-1.34.6A2.23,2.23,0,0,0,.61,31.21Z"/><path class="cls-6" d="M.61,31.21c-.1,2.35,1.34,9,2.52,11.19,5.18,9.48,14.46,17.7,24,18.33,2.82.18,11.79,2.76,12.41.71a19.39,19.39,0,0,1,10-12c-1.13-2.5-2.42-3.77-3.81-4.25a44.73,44.73,0,0,0-5.24,4.12c-9.66,8-13.09,12.47-24.9,4.08C7.43,47.58,5,38.82,1.86,29.57A2.23,2.23,0,0,0,.61,31.21Z"/><path class="cls-7" d="M3.2,29c4.06,13.86,17.86,29.9,28.08,21-10.71,2-14.64-4.36-17.16-19.33A13.16,13.16,0,0,0,3.2,29Z"/><path class="cls-8" d="M140.63,59.52c5.64-1.72,9.45.58,12.75,2.23-2.49-1.24-3.3,9.76-3.3,10.92,0,1.31,0,11.15.33,11.24-.09,0-10.34.24-10.88,0l0-.09c-6,1.45-7.61,1.4-7.61,1.4.19-8.43-3.72-21.6-3.72-21.6l7.07-.86A32.64,32.64,0,0,1,140.63,59.52Z"/><path class="cls-9" d="M134.37,57.39,132,63.22l3.35-.43a24.67,24.67,0,0,1,5.33-3.27S135.3,57.17,134.37,57.39Z"/><path class="cls-10" d="M206,51.37s-2.42-.28-2.79,0C208.46,59.24,207.4,66,201.48,74c-.53.73-8.43.42-12-1.31-4.75-2.31-8-8.2-11.44-13.68l-1.37.94a74,74,0,0,1,7.5,9.54c-.53,0-3.36-.13-4.76.66,0,0,5.95,11,6.17,15.44l5.23-.76c2.6.62,6.27,1.34,9.6-.92.57-.4,3.63-4.16,3.63-4.17.1-.28-.14-5.17,1.44-7.72C210.9,63.19,209.24,55.51,206,51.37Z"/><path class="cls-3" d="M201.49,66.93c-4.8,1.81-13.78,1.07-25.19,3.48-5.08,1.07-10.68,2.49-13.43,4-4.35,2.35-23.87,11.21-33,14.48-2.77,1-7.12,1.23-10.14,2-.09,0-6.76,1.38-7.58,1.38s-.74-.08-1-.48c-.39-.72.67-.91.72-1s-.56-.25-.56-.75.42-.84,1-1c.75-.23,0-.19.16-.82.34-1.34,3.37-1.44,4.86-2.13.09,0-1.3-.29-.37-1,1.88-1.4,7.19-1.68,8.33-2.06a9,9,0,0,1,5.69-.37,6.06,6.06,0,0,0,3.67-.79c6.58-3.8,18.85-16.25,30.07-19.73,7.73-2.41,21.48-3.37,25.92-6.08"/><polygon class="cls-11" points="225.48 22.73 205.97 29.68 212.09 46.54 217.21 49.52 225.48 22.73"/><path class="cls-3" d="M213.9,18.76c4.14-1.85,10.21-2.86,14.5-1,5.73,2.5,6,11.27,4.47,16.47-.53,1.77,1.3,5.2.88,7.34-.24,1.22-2.71.46-3,1.65-1.27,5.12-5.1,7.94-6.58,7.94-3.21,0-4.84-1.22-7.94-3.63"/><path class="cls-12" d="M212.75,37.78a24.76,24.76,0,0,0-2.15,3.64c-15-.66-17.36-13.4-13.06-21.5,2.51-4.74,9.09-6.12,9.09-6.12,4.55-5,12.05-4.88,17.71-1.92,0,0,12.54,4.9,9.4,11.51-8.26-.49-15.87,6.45-15.87,6.45"/><ellipse class="cls-8" cx="228.21" cy="34.99" rx="1.12" ry="1.09" transform="translate(163.16 256.51) rotate(-82.35)"/><path class="cls-13" d="M231.14,33.68s-2.37-4.38-7.53-1.92"/><path class="cls-14" d="M229.45,45.72s-1.66.66-4.14-1.49"/><ellipse class="cls-12" cx="204.31" cy="10.17" rx="6.28" ry="6.94" transform="translate(93.35 182.02) rotate(-60)"/><path class="cls-15" d="M210.27,36.79s-1,3.47-5.46,8.6a19.18,19.18,0,0,0,11.24-10.92l1-4"/><path class="cls-3" d="M218.12,30.85a3.37,3.37,0,0,0-1.24-.77,3.91,3.91,0,0,0-4.79,2.71,3.92,3.92,0,0,0,2.08,5.1,3.43,3.43,0,0,0,2.83-.3"/><path class="cls-16" d="M205.64,4.54s-3.81,7.11,2.15,10.92"/><path class="cls-16" d="M208.78,6.36a8.05,8.05,0,0,0-2.15,7.44"/><path class="cls-16" d="M206,16.45s-4,5.95,1.16,10.42"/><path class="cls-16" d="M204.62,16.61s-5.17,4.94-1.14,10.42"/><path class="cls-17" d="M200.31,3.09c.09.61,1.35,2.25,1.93,3.64.21.55,1.88,4.68,2,4.94h0C217.71,44,216.9,42.1,220.39,44.76c1,.75,5.94,4.45,7.69,4.83s3.2-2.11,2.14-2.87c-.91-.65-3.65-2.36-7.25-4.69-1.48-1-1.42-.65-2.62-3-4.43-9-14.76-35.65-14.6-35.25-.42-1,0-2-1.16-2.89S200.22,2.5,200.31,3.09Z"/><path class="cls-18" d="M225.43,48.28l.85.5c.79-1,1.55-2.09,2.26-3.18l-.82-.52C227,46.18,226.24,47.24,225.43,48.28Z"/><path class="cls-18" d="M222.77,46.51l.79.55c.82-1,1.63-2.06,2.5-3.05l-.83-.53C224.38,44.46,223.57,45.49,222.77,46.51Z"/><path class="cls-18" d="M220.39,44.76l.79.6c.9-.91,1.77-1.85,2.63-2.79L223,42C222.13,43,221.28,43.87,220.39,44.76Z"/><path class="cls-18" d="M218,42.7a2.27,2.27,0,0,0,.34.38l.38.32c1-.73,2-1.49,2.89-2.31a4.68,4.68,0,0,1-.55-.82A35.84,35.84,0,0,1,218,42.7Z"/><path class="cls-18" d="M216.73,40.55c.16.32.32.61.46.88A37.31,37.31,0,0,0,220.35,39c-.13-.28-.28-.58-.44-.91A36,36,0,0,1,216.73,40.55Z"/><path class="cls-18" d="M215.22,37.5c.15.3.28.59.42.88,1.16-.68,2.28-1.4,3.4-2.16-.14-.29-.27-.6-.42-.91C217.51,36.08,216.39,36.82,215.22,37.5Z"/><path class="cls-18" d="M214.17,35.23l.41.89c1.2-.61,2.35-1.34,3.49-2.06-.13-.3-.26-.61-.4-.92C216.52,33.88,215.38,34.61,214.17,35.23Z"/><path class="cls-18" d="M212.7,31.93l.4.9c1.19-.67,2.38-1.34,3.6-1.93-.12-.3-.25-.6-.38-.91C215.09,30.59,213.89,31.25,212.7,31.93Z"/><path class="cls-18" d="M211.68,29.58l.39.9c1.25-.56,2.52-1.08,3.75-1.67-.13-.3-.25-.61-.38-.91C214.21,28.5,212.94,29,211.68,29.58Z"/><path class="cls-18" d="M210.72,27.33c.12.3.25.6.38.9,1.24-.61,2.49-1.2,3.74-1.76l-.37-.91C213.21,26.12,212,26.72,210.72,27.33Z"/><path class="cls-18" d="M209.65,24.81c.12.31.25.61.38.9,1.27-.55,2.55-1.09,3.8-1.71-.13-.3-.25-.61-.37-.91C212.21,23.71,210.92,24.26,209.65,24.81Z"/><path class="cls-18" d="M208.56,22.21c.12.31.25.6.37.9,1.29-.54,2.6-1,3.89-1.58-.13-.31-.24-.61-.37-.91C211.16,21.18,209.85,21.68,208.56,22.21Z"/><path class="cls-18" d="M207.3,19.2c.13.3.26.6.38.91,1.28-.6,2.58-1.14,3.87-1.7-.11-.3-.24-.6-.36-.91C209.89,18.05,208.58,18.6,207.3,19.2Z"/><path class="cls-18" d="M206.24,16.61c.12.31.25.61.38.92,1.35-.45,2.68-.93,4-1.44-.13-.31-.25-.62-.37-.92C208.93,15.69,207.6,16.16,206.24,16.61Z"/><path class="cls-18" d="M205.2,14.07l.37.91c1.32-.55,2.64-1.08,4-1.54l-.36-.92C207.85,13,206.52,13.52,205.2,14.07Z"/><path class="cls-18" d="M204.23,11.67h0c.13.29.25.6.38.91,1.36-.45,2.72-.92,4-1.48l-.35-.9C207,10.77,205.6,11.23,204.23,11.67Z"/><path class="cls-18" d="M203.1,8.88c.12.29.24.6.36.91,1.35-.53,2.68-1.07,4-1.58-.12-.32-.24-.62-.35-.92C205.79,7.8,204.45,8.34,203.1,8.88Z"/><path class="cls-18" d="M202.16,6.55l.08.18c.09.22.18.47.29.73,1.3-.65,2.61-1.29,3.95-1.83l-.36-.92C204.77,5.26,203.47,5.9,202.16,6.55Z"/><path class="cls-8" d="M233,35.39c.41,0,1.24,4.77,1.27,5.56s-3.85,1.5-3.85,1.5S232.61,35.43,233,35.39Z"/><path class="cls-19" d="M233.32,32.71s-2.22,9.87-3.63,9.47-7.46-1.7-7.62-4.09-.1-7.45,1.91-8.22a7.92,7.92,0,0,1,9.34,2.84Z"/><path class="cls-8" d="M222.56,40.52c2.32,1.31,6,3.17,7.57,2.61s4.16-10.7,3.4-12.09-5.26-3.61-9.22-2c-2.37.95-2.94,3.57-3.48,6.34S220.24,39.2,222.56,40.52Zm.46-4.68c.15-.73.95-5.86,4.81-5a8.44,8.44,0,0,1,4.3,2.4c.05.84-1.22,7.17-2.18,7.73s-.84.35-4-.71C222.69,39.15,222.68,37.55,223,35.84Z"/><path class="cls-20" d="M222.85,39.54c2.4,1.68,5.72,2.88,7.44,2.27s3.45-9.71,3-10.07c-.92-.74-4.64-3.68-8.16-2.36-2.18.82-2.49,2.68-3.09,5.72S221.94,38.91,222.85,39.54Zm.45-3.81c.16-.8.3-6.29,4.54-5.35a8,8,0,0,1,4.36,2.3c.05.93-1.3,7.34-2.36,8s-.46.35-3.91-.81C222.33,38.6,222.93,37.61,223.3,35.73Z"/><path class="cls-21" d="M217.21,31.33a27.77,27.77,0,0,0,3.48,1.37l.84-2.67a35.22,35.22,0,0,1-5-1"/><path class="cls-8" d="M223.3,30.11a7.52,7.52,0,0,0-3-.41c-.15.19-.85,2.46-.62,2.81a5.26,5.26,0,0,0,2.68,1C222.9,33.38,223.58,30.36,223.3,30.11Z"/><path class="cls-21" d="M210.1,27.12s-11.19-4.61-12-9.24L197,19.54s1.54,5.07,14,10Z"/><path class="cls-22" d="M233,36.71c-.2.6.49,2.14.5,2.88s-1.17,3.44-1.66,1.91C231.44,40.26,232.63,37.81,233,36.71Z"/></g></g></svg>