<svg xmlns="http://www.w3.org/2000/svg" viewBox="-4 -16 150 80">
    <defs>
        <style>.cls-1{fill:#f4edcd;}.cls-2{fill:#f2e8c2;}.cls-3{fill:#6b3d28;}.cls-4{fill:#e6d9a3;}.cls-5{fill:#895035;}.cls-6{fill:#5e3724;}.cls-7{fill:#4d3224;}.cls-8{fill:#e6e6d4;}.cls-9{fill:#874e34;}.cls-10{fill:#c4bf8b;}.cls-11{fill:none;stroke:#4d3224;stroke-linecap:round;stroke-linejoin:round;stroke-width:1.75px;}
        .hand-left,.hand-right{
            -webkit-animation: hand-An 2s linear infinite;
            animation: hand-An 2s linear infinite;
        }
        .hand-right{
            -webkit-animation-delay: 1s;
            animation-delay: 1s;
        }
        @keyframes hand-An{
            0%{
                transform-origin: right bottom;
                transform: rotate(-3deg);
                -webkit-transform-origin: right bottom;
                -webkit-transform: rotate(-3deg); 
            }
            50%{
                transform-origin: right bottom;
                transform: rotate(3.4deg);
                -webkit-transform-origin: right bottom;
                -webkit-transform: rotate(3.4deg);
            }
            100%{
                transform-origin: right bottom;
                transform: rotate(-3deg);
                -webkit-transform-origin: right bottom;
                -webkit-transform: rotate(-3deg);  
            }

        }
        </style>
    </defs>
    <title>skills-tortoise</title>
    <g class="Body">
        <g class="hand-left">
            <path class="cls-2" d="M46.14,38.94C34.26,34.49,28.75,36.22,13,31S1.5,1,1.5,1,7.82-.25,12.22,4.29c7,7.23,17.85,17.1,32.44,21.25,11.59,3.3,7,4.2,7,4.2Z"/>
            <path class="cls-3" d="M25.09,34.22s-3.16-2.77-1.69-4.29,9.15.1,10.42.43,1.45,1,1.45,1L33.52,34.7l-1.17.67Z"/>
            <path class="cls-3" d="M15.13,31.43c2,.36,5-.13,5.35-1.14s-1.67-5.54-3.79-6.06-6.33,1-6.39,1.58a11,11,0,0,0,1.18,3.83C12.07,30.67,15.13,31.43,15.13,31.43Z"/>
            <path class="cls-3" d="M8.49,23.26c.07-.45,1.47-5.59.27-7.13a10.45,10.45,0,0,0-5.62-2.87c-1.09,0-1.33,3.77-1.22,4.23a30.36,30.36,0,0,0,2.31,6.15c1.46,2.83,3.46,2,3.46,2A5.68,5.68,0,0,0,8.49,23.26Z"/>
            <path class="cls-3" d="M1.59,7.77c-.64.3-.12,4.51.08,4.44s2.52-.86,2.39-1.84S3.7,8.22,2.88,7.85A1.43,1.43,0,0,0,1.59,7.77Z"/>
            <path class="cls-3" d="M9.7,20.8a5.07,5.07,0,0,0-.1,2.69c.2.31,4.28-.07,4.38-.59a2.89,2.89,0,0,0-1-2A24.11,24.11,0,0,0,9.7,20.8Z"/>
            <path class="cls-3" d="M20.26,25.67a8.57,8.57,0,0,0,1.56,2.86c.3.11,3.66-.2,3.67-.5a1.85,1.85,0,0,0-.91-1.49c-.67-.32-3.09-1.57-3.42-1.61S20.26,25.67,20.26,25.67Z"/>
            <path class="cls-3" d="M32.08,28.46S34.62,30.13,35,30s2.11-1.19,1.83-1.7-2.59-.71-3.2-.67A3.91,3.91,0,0,0,32.08,28.46Z"/>
            <path class="cls-3" d="M5.1,10.57c-.27.1-1.16,1.26-.95,1.47s1.91.92,2.07.54S5.1,10.57,5.1,10.57Z"/>
            <path class="cls-11" d="M41.2,24.34s-19.84-8-27.9-18.74C13.3,5.6,9.66-.14,1.5,1c-.86.12-.6,9.14-.56,9.84C1.35,18,3.42,25.33,9.74,29.39c6,3.86,13.42,5.34,20.42,5.91"/>
        </g>
        <path class="cls-1" d="M54.88,23.42a47.05,47.05,0,0,0-16.46,9.64l-1.9.77c-4.26,1.53-8,3-11.68,4.35-5.66,2-9,9.59-9.28,11.47s2.41,7.86,3,9.6,6.23,2.72,6.44,2.68,3.48-5.35,4.32-6.09,8-3.16,10.45-4.75c1.25-.83,3.21-2.21,4.8-3.35.84-.53,1.76-1.14,2.71-1.78,11.25-1.85,36.74-7.54,48.28-11.36,14.54-4.81,14.51-7.67,14.51-7.67l3.5-6.37S69.08,18.48,54.88,23.42Z"/>
            <path class="cls-4" d="M26.59,60.12a26.66,26.66,0,0,0,6.18-1.32c1.92-.89,10.55-10.52,10.55-10.52s-5.76,3.65-10,5.94A20.68,20.68,0,0,0,26.59,60.12Z"/>
            <path class="cls-4" d="M49.27,10.77c-2.46,2.34-10.64,20.45-13.81,25.54a30.24,30.24,0,0,1,18-8.23c11.16-1,15,1.73,21.48-1.61C87.29,20.08,85.36,25.14,94,27s23.12-8.35,23.11-9.35S99.67,7.52,91.44,3.76,56.06,4.31,49.27,10.77Z"/>
            <path class="cls-3" d="M50.59,10.54c-.75.26-7.9,13.54-7.9,13.54s-.37,1.33,1.12,1,3.79-1.76,10.95-2.33,8.87.41,9.71.08S60.64,9.65,59.91,9.05,50.59,10.54,50.59,10.54Z"/>
            <path class="cls-3" d="M61.67,8.63c0,.18,4.85,13.62,5.19,14.45s3,1,4,.66,5.23-2.95,9.83-4.35A1,1,0,0,0,81,18.14c-.34-.89-8.18-11.24-9-11.63S61.51,8,61.67,8.63Z"/>
            <path class="cls-3" d="M74.68,5.87c0,.75,8.48,12.57,8.93,12.89s7.29.64,12,1.57,4.67,0,4.62-.26S87.56,7.64,85.36,6.15,74.68,5.87,74.68,5.87Z"/>
            <path class="cls-3" d="M86.19,4.09c.13,1,15.85,15.62,17,16.2s10.22-4.16,10.22-4.16c.25-1-19-10.49-21.64-11.58A10.71,10.71,0,0,0,86.19,4.09Z"/>
            <path class="cls-3" d="M51.79,9c.22-1.17,9-4.33,9.73-4.44s1.54,0,1.8.42,1,1.85.79,2-.79.37-6.37,1.36S51.79,9,51.79,9Z"/>
            <path class="cls-3" d="M65.27,6.5c-.33-.08-.91-2-.91-2s-.1-.49,1-.82,7.37-1.24,8-1.24a1.25,1.25,0,0,1,1,.37s1.09,1.88,1,2.15S66.09,6.7,65.27,6.5Z"/>
            <path class="cls-3" d="M76.54,5c-.24-.16-1.68-2.11-1.25-2.46s9.5-.52,10.55-.09.55,1,.55,1L76.66,4.93Z"/>
            <path class="cls-5" d="M50.53,11.34c-.33.44-5.37,9.47-5.37,9.47l9.37-9.59L52.31,16.1l5.87-6.39a11.25,11.25,0,0,0-3.7.36l-3.24.69A3.69,3.69,0,0,0,50.53,11.34Z"/>
            <path class="cls-5" d="M62.6,9.06,67.71,21s-3-12.51-3.22-12.67S62.6,9.06,62.6,9.06Z"/>
            <path class="cls-5" d="M66.82,14.69s-1.49-6.37-1.51-6.57a35.74,35.74,0,0,1,4.5-1L68,8.7l0-.77s-1.15,1-1.22,1.3S66.82,14.69,66.82,14.69Z"/>
            <path class="cls-5" d="M82.36,16S75.69,6.7,75.61,6.35s7-.31,7-.31L80.07,7.6l.18-1.26-1.78,0Z"/>
            <path class="cls-5" d="M102.69,18.2S88.91,5.43,88.51,5.1a9.94,9.94,0,0,1-.88-.87s2.75-.14,4,.69l4.63,3-5.72-3.1Z"/>
            <path class="cls-5" d="M95.15,8.44l2.56,3a15.52,15.52,0,0,0-1-2.2A8.12,8.12,0,0,0,95.15,8.44Z"/>
            <path class="cls-5" d="M97.74,10.29s.67,2.11.78,2.24,2.65,2.84,2.65,2.84-2.57-4.22-2.93-4.61A2.69,2.69,0,0,0,97.74,10.29Z"/>
            <path class="cls-6" d="M73.4,21.41c2.28-1.44,5.89-2.32,6.19-2.57s-3.22-6.06-3.22-6.06a22.83,22.83,0,0,0,.45,3.16,24.17,24.17,0,0,1,.61,2.82,9.67,9.67,0,0,0-1.81-.43A26.44,26.44,0,0,0,73.4,21.41Z"/>
            <path class="cls-6" d="M51.12,22.28A30.39,30.39,0,0,1,60,21.92c1.75.17,3.16.3,3.32.26A45.25,45.25,0,0,0,61.34,16l-.69-1.7-.09,4.31s-.62,2.53-1,2.53-1.3-.48-1.75-.55a23,23,0,0,0-3.35.88Z"/>
            <path class="cls-6" d="M90.41,11.58s8.43,8.28,8.33,8.31-4.9-.78-5.22-.77-.57-3-.57-3l2,1.3Z"/>
            <path class="cls-6" d="M103.06,10.48s9.2,5.24,9.37,5.42-3.57,2.12-4.73,2.42-2.36.51-2.36.51-.1-2.26.85-2.25,2.8.27,2.8.27Z"/>
            <path class="cls-4" d="M26.49,48a3.72,3.72,0,0,1-.07-5.07,4.25,4.25,0,0,1,5.12-1.23s2.81,3.38.41,5.79C28.94,50.52,26.49,48,26.49,48Z"/>
            <path class="cls-7" d="M30.14,47.8c-2.24,1.35-3.65.18-3.65.18a3.61,3.61,0,0,1,.88-3.78,3.16,3.16,0,0,1,3.8-.83S32.54,46.36,30.14,47.8Z"/>
            <path class="cls-7" d="M26.49,48a5.5,5.5,0,0,1,.89-4.66A4.17,4.17,0,0,1,32,41.77s-.08,1.3-.78,1.6-2.07.35-3,1.32A12.9,12.9,0,0,0,26.49,48Z"/>
            <path class="cls-8" d="M27.28,46.81a.91.91,0,0,0,1.19-.4A1.07,1.07,0,0,0,28,44.93S27.34,45.28,27.28,46.81Z"/>
            <path class="cls-9" d="M24.48,44.4c-.19-.07-1.43,1.55-1.26,1.81s1.14.58,1.44.18S24.48,44.4,24.48,44.4Z"/>
            <path class="cls-9" d="M19.87,42.93c-.62.19-3.3,4.78-3.64,5.75S20.67,51.4,21.29,51s.73-4.74.35-6A4.33,4.33,0,0,0,19.87,42.93Z"/>
            <path class="cls-9" d="M16.67,51.07c-.38.19-.11,1,.44,2.87a28.63,28.63,0,0,0,1.38,3.54s2.32-1.1,1.7-3S16.67,51.07,16.67,51.07Z"/>
            <path class="cls-9" d="M20,52.06a7.91,7.91,0,0,0,1.6,2.53c.23.09,1.71-1.25,1.49-1.75S20,52.06,20,52.06Z"/>
            <path class="cls-9" d="M21.16,41.46c-.08-.23,2.26-2.09,3.41-2.52s3.38-.78,3.62-.56-1.06,3.21-1.2,3.27-1.14.11-3,.4a10.24,10.24,0,0,1-3.18,0Z"/>
            <path class="cls-9" d="M21.63,42.91c-.14.22.33,1.55.59,1.47s1.2-1,1-1.19A5.27,5.27,0,0,0,21.63,42.91Z"/>
            <path class="cls-9" d="M30,37.11c-.6.37-1.57,2.92-1.26,3s3.78.26,4.56-.15,2-3.33.87-4S30,37.11,30,37.11Z"/>
            <path class="cls-9" d="M43,33.24c-1.08-1.48-5.17.1-6.25.63a2.88,2.88,0,0,0-1.53,2.53c0,.78,3.7,1.65,5.41,1.13S43,33.24,43,33.24Z"/>
            <path class="cls-9" d="M47.33,30.3a11.33,11.33,0,0,0-2.94,2.31c-.12.41,5.43,1.69,7.58,1s4.93-5,4.93-5-1.52.06-3.58.24A38.36,38.36,0,0,0,47.33,30.3Z"/>
            <path class="cls-9" d="M44.14,34.33A7.1,7.1,0,0,0,43,37.74c.15.46,2.82.35,3.6.1s3.28-1.32,3.28-1.32-1.83-.89-2.58-1.24A27.21,27.21,0,0,0,44.14,34.33Z"/>
            <path class="cls-9" d="M35.67,38.69c-.65.27-1.5,3.14-1.5,3.14a17,17,0,0,0,2.76.61,5.18,5.18,0,0,0,1.66-.63s.1-2.22-.6-2.85S35.67,38.69,35.67,38.69Z"/>
            <path class="cls-9" d="M39.35,39.13l.23,2s.63.08.9-.2a3.48,3.48,0,0,0,.5-1.1Z"/>
            <path class="cls-9" d="M57.43,29.69c-.64.18-.88,1.33-.88,1.33a9.92,9.92,0,0,0,3.18.09,2.88,2.88,0,0,0,1.56-1A8.08,8.08,0,0,0,57.43,29.69Z"/>
            <path class="cls-7" d="M26.12,60.44s2.59-3.95,3.25-4.6A15.31,15.31,0,0,1,34,53.78c.13.17-.1.61-.27.74s-3.41,1.66-3.82,1.87a34.36,34.36,0,0,0-2.72,3.8Z"/>
            <path class="cls-7" d="M23.29,56.36a4.3,4.3,0,0,1,.62-2.25c.43-.48.64-.36.64-.36a3.49,3.49,0,0,0-.46,1c-.14.5.54.37.26,1.26A.66.66,0,0,1,23.29,56.36Z"/>
            <path class="cls-4" d="M46.11,46.34C45.84,48,53,48.94,65.48,48.71S95,40.78,98.92,38.9s11.59-10.47,11.31-11-1.2-.46-1.2-.46-5.7,2.92-17.63,6-17.73,1.75-21.66,1.94S60.06,38.76,57.82,41,46.31,45.09,46.11,46.34Z"/>
            <path class="cls-10" d="M67.11,36.48c-3,1-4.2,2.46-8.13,5.3a96.29,96.29,0,0,1-8.69,5.51s7.93,2.19,20.72.4,25.07-8,25.07-8L85,37.57a2.84,2.84,0,0,0,.95.69L92.32,40s-3.06-.19-3.55-.28-9.16-3.5-9.16-3.5-3.21.24-3.87.43-3.69,9.71-3.69,9.71,1.6-9.31,1.34-9.63S67.11,36.48,67.11,36.48Z"/>
            <path class="cls-11" d="M33.39,35C25.63,37.73,15.55,40,15.82,50.5c.06,2.47,1.42,10.26,4.77,10.32l4.46,1.11,3.19-1.56s3.62.9,8.65-5l9.22-9.07s4.27,4,23.62,2.17c0,0,17.62-2.84,29.19-9.61"/>
            <path class="cls-3" d="M38.84,27.83a10.56,10.56,0,0,0-4.78,5.37c-.84,2.39.65,2.32,1.18,2.21a45.53,45.53,0,0,1,16.62-6.33c11-2.1,14.55,3.38,19.73,2.53,4.51-.74,5.66-6.86,18.73-5.27,5,.62,6.76,2.67,16.55-.62s12.26-7.49,12.1-8.26-2-1.68-2.74-1.78a2.74,2.74,0,0,0-1.41.26s-3,2.59-10.68,5.19-10.56-.69-17.57-.67c-10.49,0-14.32,5.39-16.53,5.45C68.23,26,62,22.4,50.2,24.21,46.84,24.72,42.32,25.74,38.84,27.83Z"/>
            <path class="cls-11" d="M34.82,35.64s19.73-10,29.47-5.62c0,0,7.54,4.4,11.19-.2,0,0,4.31-3.66,9.57-3.57"/>
            <path class="cls-11" d="M101.42,22.19c-1.28.37-6-.19-6-.19a25.67,25.67,0,0,0-22.13,2.57c-3,2.11-6.94.81-6.94.81-9.74-4.37-23.88.79-23.88.79s-10.85,4.24-8.39,9.72"/>
        <g class="hand-right">
            <path class="cls-1" d="M75.9,34.18c2.22-1.06,13.22,6.17,28.71,4.37S133,22.34,137,16.15s4.24-8.34,4.24-8.34-10.8-.75-15.12,1.59S101.94,22.48,94.78,24.63s-9.73,1.62-9.73,1.62-.63-.31-7.49,4.27C74.18,32.79,74.22,35,75.9,34.18Z"/>
            <path class="cls-9" d="M79.12,33.5c.07,1,4.94,2.91,5.93,3s8.28,2.15,11.18,1.76,1.11-3.66.17-4.17-8.48-1.63-12.66-2.68C80.2,30.48,79.1,33,79.12,33.5Z"/>
            <path class="cls-9" d="M100,35.34c-.07,1.27,1.56,2.64,3.48,2.6a29.48,29.48,0,0,0,10.43-3.15c4.27-2.1,2.44-4.73,1.24-5.23s-6.93.62-11.24,2.51S100,35.34,100,35.34Z"/>
            <path class="cls-9" d="M118.28,27.41c-.09.18-.23,3.31.47,3.95s2-.21,2-.21a31.37,31.37,0,0,0,3.64-2.72c2.1-1.78,1.94-2.75,1.7-3.44s-2.53-1.37-3.74-1.1S118.58,26.79,118.28,27.41Z"/>
            <path class="cls-9" d="M127.24,23.22c.29.66,1.44.91,2.42.16a30,30,0,0,0,3.55-3.64c.87-1.07,1.39-2.37,1-2.69a4.59,4.59,0,0,0-3.32,0,11.83,11.83,0,0,0-3.6,3A4.86,4.86,0,0,0,127.24,23.22Z"/>
            <path class="cls-9" d="M86.56,30.46c-.12.2,1.11,1.54,2,1.95a10.61,10.61,0,0,0,4.75-.09c.58-.28.24-2.27-1-3S86.81,30,86.56,30.46Z"/>
            <path class="cls-9" d="M95.35,32a7.8,7.8,0,0,0,3.22,1.54c.78,0,4.44-2.54,4.25-3.52s-3.07-1.13-4.21-1S94.9,31,95.35,32Z"/>
            <path class="cls-9" d="M105.24,29.24a4.24,4.24,0,0,0,3.45.27c1.66-.41,3.33-4,3.27-4.34s-4-.47-4.79-.15S104,28,105.24,29.24Z"/>
            <path class="cls-9" d="M113,27.63c.21.49,1.87.58,2.26.39s1.64-2.54.81-3.19a1.82,1.82,0,0,0-1.79-.42C114,24.53,112.63,26.92,113,27.63Z"/>
            <path class="cls-9" d="M117.79,26a3.55,3.55,0,0,1-1-2.41c.17-.7,2.94-3.32,4.26-3.35s2.17,1.46,2,1.71a25.4,25.4,0,0,1-3.15,2.89C118,26.3,117.79,26,117.79,26Z"/>
            <path class="cls-9" d="M124,21.41a1.49,1.49,0,0,0,1.66-.06c.22-.23,1-2.16.12-2.84a1.64,1.64,0,0,0-2,.09C123.41,18.81,123.21,20.83,124,21.41Z"/>
            <path class="cls-9" d="M128.66,16.89a20.7,20.7,0,0,0,3.73-.91c.44-.21.65-3.07-.76-3.29s-2.9,2.69-3.21,3.1S128.66,16.89,128.66,16.89Z"/>
            <path class="cls-9" d="M127,16.8c-.27,0-.44,1.48-.43,1.62a2.33,2.33,0,0,0,1.34.14c.15-.12.51-1,0-1.46A1.07,1.07,0,0,0,127,16.8Z"/>
            <path class="cls-9" d="M136.62,12.63c-.73-.35-2.19,1-2.38,1.37a2.6,2.6,0,0,0,.28,1.84c.27.23,1-.09,1.51-.66A4.41,4.41,0,0,0,136.62,12.63Z"/>
            <path class="cls-11" d="M85.05,26.25l1.67.06c7.86.58,17.09-5.07,23.82-8.46,8.13-4.09,15.8-10.18,25.07-10.3.4,0,5.59.42,5.66.26-11,24.73-29.17,28.75-29.17,28.75-16.64,6.33-36-3.51-36-3.51"/>
        </g>
            <path class="cls-11" d="M40.34,26.42l6.53-12S49.36,5.59,66,3.43c0,0,19.21-3.11,26.89.62l20.87,11.2"/>
            <path class="cls-11" d="M25.05,61.93l4.32-6.09s4.53-1.63,5.82-3.75"/>
            <animateTransform attributeType="auto" attributeName="transform" type="translate" values="0 0; 0 -10; 0 0" dur="2s" repeatCount="indefinite" />
    </g>
</svg>