<svg xmlns="http://www.w3.org/2000/svg" viewBox="0 0 165.51 104.17"><defs><style>.cls-1,.cls-5{fill:#0279db;}.cls-1,.cls-11,.cls-4,.cls-7{stroke:#4d3224;}.cls-1,.cls-15,.cls-7,.cls-9{stroke-linecap:round;stroke-linejoin:round;}.cls-1,.cls-7{stroke-width:2.29px;}.cls-2,.cls-4{fill:#4d3224;}.cls-12,.cls-3{fill:#fff;}.cls-11,.cls-4{stroke-miterlimit:10;stroke-width:1.15px;}.cls-6{fill:#dfd710;}.cls-15,.cls-7,.cls-9{fill:none;}.cls-8{fill:#ecbb05;}.cls-15,.cls-9{stroke:#ecbb05;}.cls-9{stroke-width:1.1px;opacity:0.53;}.cls-10{fill:#0268bc;}.cls-11{fill:#5e3d2c;}.cls-12{opacity:0.4;}.cls-13{fill:#0263b2;opacity:0.57;}.cls-14{opacity:0.58;}.cls-15{stroke-width:1.07px;}</style></defs><title>skills-code</title><g id="圖層_2" data-name="圖層 2"><g id="技能"><path class="cls-1" d="M38.21,38.07s-5.33-5.48-8.32-4.63c7.25-2.07,14.79-8.35,21.25-12.19a229.13,229.13,0,0,1,24-12.92c22.45-9.92,44.34-11.25,62.82,6.86Z"/><path class="cls-1" d="M29.92,60.68c-3.74-3.45,5.58-4.56,6.1-9.6.24-2.42-2.87-1.52-2.68-3.94,21.57-30.6,79.35-59.64,110.23-26.2,8.21,8,20.6,12.09,20.79,51.67C146.25,91.75,123.48,102,96.84,100a92.81,92.81,0,0,1-35.5-10s-14.43-6-17.34-6.31c0,0-.2-2.29,5-2.16A195.29,195.29,0,0,0,29.92,60.68Z"/><path class="cls-2" d="M133.5,45.92a13.33,13.33,0,0,1,12.62-2.54c4.28,1.35,7,5.71,6.16,9.75-.07.38-.53.39-.8.11-5.93-6.32-20.08,0-12.78,9.51.17.23.17.57-.19.61-3.88.46-6.89-3.83-7.94-6.63A10,10,0,0,1,133.5,45.92Z"/><path class="cls-3" d="M133.05,55.9a9.74,9.74,0,1,0,8.34-10.79A9.64,9.64,0,0,0,133.05,55.9Z"/><path d="M139,55.52c.61,4.43,4.12,7.61,7.84,7.09s6.24-4.53,5.62-9-4.12-7.62-7.84-7.1S138.34,51.08,139,55.52Z"/><path class="cls-3" d="M139.72,51.54a2.46,2.46,0,1,0,2-3.19A2.69,2.69,0,0,0,139.72,51.54Z"/><path class="cls-4" d="M102.84,6C58,13.34,36.75,45,36.75,45L34.64,62C64.78,77.78,99.45,79.36,99.45,79.36c8.28-.08,16.66-4.07,18.2-12.93s-4.23-18.12-2-27c3.1-12.52,21.34-7.6,25.25-19.48,0,0-15.57-13.61-24.71-12.81Z"/><path class="cls-5" d="M85,50.56c1.31-.07,2.29-.13,2.64-.18,6.37-.89,12.91-1.69,13.93,6.36.47,3.73,1.26,7.62-1,11-8.45,13-30.16-4.65-29.31-15.83C71.34,51.23,80.3,50.81,85,50.56Z"/><path class="cls-6" d="M1.11,38.07C3.66,42.61,13,41.23,17.38,42.2c8.66,1.91,15.84,4.1,23.51,8.41,1.58.89,16.39,9,11.93,11.66-3.13,1.86-7.79.71-11.3,1C27.91,64.51,14.35,64,3.7,74.13,5.08,72.82.38,57.74.17,55.08A73.61,73.61,0,0,1,1.11,38.07Z"/><path class="cls-7" d="M2.7,38.88c18.57,4,36.93,7.72,53,20.13,0,0,1,5.09-11.18,3.85-8.34.35-17.19-.48-25.31,1.89a46,46,0,0,0-15.26,8"/><path class="cls-4" d="M33.34,47.14S51.89,55.31,34.64,62l26.57,1.14-4.1-14S38.41,39.22,33.34,47.14Z"/><path class="cls-8" d="M27,46.55S15.52,53.87,25.4,61.64c0,0,12.81,1.77,16.11-6.58C41.51,55.06,39.73,47.74,27,46.55Z"/><path class="cls-7" d="M154,71.16s2.48,4.49,10.38,1.45"/><line class="cls-1" x1="38.23" y1="30.6" x2="43.2" y2="34.77"/><line class="cls-1" x1="42.92" y1="27.13" x2="47.88" y2="31.3"/><line class="cls-1" x1="47.44" y1="24.05" x2="52.41" y2="28.22"/><line class="cls-1" x1="52.96" y1="21.26" x2="57.92" y2="25.44"/><line class="cls-1" x1="57.66" y1="17.98" x2="62.62" y2="22.15"/><line class="cls-1" x1="62.22" y1="15.28" x2="67.18" y2="19.45"/><line class="cls-1" x1="66.79" y1="12.77" x2="71.76" y2="16.94"/><line class="cls-1" x1="71.18" y1="10.28" x2="76.15" y2="14.45"/><line class="cls-1" x1="76.57" y1="7.92" x2="80.77" y2="12.87"/><line class="cls-1" x1="81.56" y1="6.44" x2="85.51" y2="11.58"/><line class="cls-1" x1="85.9" y1="4.19" x2="89.98" y2="9.23"/><line class="cls-1" x1="91.67" y1="3.42" x2="94.87" y2="9.06"/><line class="cls-1" x1="96.22" y1="1.76" x2="98.88" y2="7.68"/><line class="cls-1" x1="101.96" y1="1.34" x2="103.84" y2="7.55"/><line class="cls-1" x1="108.25" y1="1.52" x2="107.96" y2="8"/><line class="cls-1" x1="113.28" y1="2.04" x2="113" y2="8.52"/><path class="cls-9" d="M3.19,43.06s17.15,3.3,24.5,7.45"/><line class="cls-9" x1="1.75" y1="47.02" x2="24.19" y2="51.2"/><path class="cls-9" d="M1.86,52.38s15.3-.18,23,1.84"/><path class="cls-9" d="M2.65,57.3s13.26-3.08,21.58-1.5"/><path class="cls-9" d="M3.75,61.8s14.93-4.37,20.72-3.33"/><path class="cls-9" d="M4.86,66.31s12.57-6.85,23.27-6.63"/><rect class="cls-10" x="158.54" y="53.22" width="2.17" height="2.17" rx="0.95" ry="0.95" transform="translate(-4.11 14.06) rotate(-4.98)"/><rect class="cls-10" x="156.68" y="56.8" width="2.17" height="2.17" rx="0.95" ry="0.95" transform="translate(-4.43 13.91) rotate(-4.98)"/><rect class="cls-10" x="159.04" y="62.51" width="2.17" height="2.17" rx="0.95" ry="0.95" transform="translate(-4.91 14.14) rotate(-4.98)"/><rect class="cls-10" x="155.78" y="60.77" width="2.17" height="2.17" rx="0.95" ry="0.95" transform="translate(-4.78 13.85) rotate(-4.98)"/><rect class="cls-10" x="159.36" y="59.06" width="2.17" height="2.17" rx="0.95" ry="0.95" transform="translate(-4.61 14.15) rotate(-4.98)"/><path class="cls-11" d="M40.3,41c-4.26,7.95,2.48,7.85,8.06,5.14,9.93-4.82,19.55-10,29.87-14.09,12.13-4.81,25.12-8.85,38.07-7.16,5.28.69,18.8,4.11,21-4,.74-2.8-1.66-5.42-4.08-7-5.88-3.86-13-5.42-20-5.83-13.48-.79-27,2.43-39.28,8.07A122.75,122.75,0,0,0,52.5,28.87a77.86,77.86,0,0,0-10.14,9.19A13.68,13.68,0,0,0,40.3,41Z"/><path class="cls-12" d="M.08,50.62s31.7,4.43,36.25,2.21c0,0,9-4.8-35.22-14.76A108,108,0,0,0,.08,50.62Z"/><path class="cls-13" d="M39.22,68.31S58.92,83.09,73,85.7C73,85.7,117.54,99.85,154,74l6.22,1s-27.72,29.65-68.15,23.58c0,0-23.92-6-40.33-13.75,0,0-9.3-1.11-2.33-4.79Z"/><path class="cls-7" d="M49,81.46s20.22,7.44,25,9.33c0,0,23.89,10,56.2,4.31"/><path class="cls-1" d="M109.27,79.85S74.21,91.34,69.65,100.57c0,0,1,2.21,12,1.63,6.29-.33,13.69,2.25,19.91-.35,7.06-2.95,12.09-12.54,16.84-18.19"/><path class="cls-6" d="M103.46,99.76a17.07,17.07,0,0,1-4.81,2c-4,1-8.78.56-12.81-.32l-10-.28c-11.49.23,2.89-6.39,2.89-6.39s19.72-6.31,25.07-2.59C108,95.1,106.45,97.88,103.46,99.76Z"/><g class="cls-14"><path class="cls-15" d="M96.1,92.42s-6.53,4.84-8.83,7.8"/><path class="cls-15" d="M99.51,92.54s-6.53,4.84-8.82,7.79"/><path class="cls-15" d="M102.25,93s-6.53,4.84-8.83,7.79"/><path class="cls-15" d="M105.57,93.53s-6.53,4.84-8.82,7.79"/><path class="cls-15" d="M92.29,92.62s-6.53,4.84-8.83,7.79"/><path class="cls-15" d="M89,93.08s-6.07,4.35-8.37,7.3"/><path class="cls-15" d="M85.29,93.54s-5.77,4-8.06,7"/><path class="cls-15" d="M80.65,94.81a32.49,32.49,0,0,0-6.4,5.72"/></g><path class="cls-7" d="M74.58,95.53c5.37-1.72,35-11.16,32.07,2.58"/></g></g></svg>