<svg xmlns="http://www.w3.org/2000/svg" viewBox="0 0 331.17 428.28"><defs><style>.cls-1{fill:#b9a4ba;}.cls-2{fill:#a78fa9;}.cls-11,.cls-20,.cls-3{fill:none;}.cls-11,.cls-14,.cls-20,.cls-21,.cls-3{stroke:#4d3224;}.cls-11,.cls-14,.cls-21,.cls-3{stroke-linecap:round;stroke-linejoin:round;}.cls-14,.cls-20,.cls-21,.cls-3{stroke-width:1.91px;}.cls-4{fill:#9695a4;}.cls-5{fill:#787686;}.cls-6{fill:#a4a3b4;}.cls-7{opacity:0.37;}.cls-8{fill:#acabbc;}.cls-9{fill:#a5a5b4;}.cls-10{fill:#bebecf;}.cls-11{stroke-width:1.88px;}.cls-12{fill:#818094;}.cls-13{opacity:0.56;}.cls-14,.cls-23{fill:#b2d152;}.cls-15{fill:#93bc3e;}.cls-16{fill:#f5b8be;}.cls-17{fill:#f08792;}.cls-18{fill:#dd5865;}.cls-19{fill:#df5d67;}.cls-20{stroke-miterlimit:10;}.cls-21{fill:#9ebc40;}.cls-22{fill:#dd5e69;}</style></defs><title>skills-rock</title><g id="圖層_2" data-name="圖層 2"><g id="技能"><path class="cls-1" d="M131.11,390.31a13.43,13.43,0,0,0-7-1.06,19.23,19.23,0,0,0-8.75,2.38,25.19,25.19,0,0,0-9.59,8.88c-2.41,3.77-3.78,8.52-1.42,12.62,2.2,3.83,6.27,5.69,10.44,6.35,8.26,1.28,20.11.84,25.21-6.9C145.21,404.62,139.42,393.76,131.11,390.31Z"/><path class="cls-2" d="M140.79,401.53a16.44,16.44,0,0,0-4.22-7.48c-1.58-1.65-3.78-3.67-6.18-3.92a8.06,8.06,0,0,0-.91-.27.28.28,0,0,0-.21.51,10.64,10.64,0,0,1,3.81,3.93,7.1,7.1,0,0,1,.64,1.9c-2-1-4.14,2.4-2.93,4.18.69,1,2,.86,3,.33a14.94,14.94,0,0,1-.62,2.54h0a3.27,3.27,0,0,0-3.52,1,3,3,0,0,0,0,3.54,2.07,2.07,0,0,0,.76.65,15.82,15.82,0,0,1-1.14,1.3c-.12.13-.26.25-.39.38-.25-1.39-2.16-2.16-3.51-2.31-1.92-.21-4,1.65-4.63,3.36a2.39,2.39,0,0,0,.65,3,24.94,24.94,0,0,1-6.36.77c-3.82,0-9.48-.34-11.59-4.09-.1-.18-.41-.06-.34.14a6.08,6.08,0,0,0,.86,1.57.22.22,0,0,0,0,.23,13.32,13.32,0,0,0,4.76,4c2.33,2,5.64,2.34,8.56,2.71a30.35,30.35,0,0,0,11.55-.52c3.23-.81,6.77-1.89,9.25-4.22,2.29-2.14,3.3-5.6,3.27-8.72A16.81,16.81,0,0,0,140.79,401.53Z"/><path class="cls-2" d="M130.52,401.78a1,1,0,0,0-.71-.7,1.1,1.1,0,0,0-1.16.47,1.76,1.76,0,0,0-.26,1.34.65.65,0,0,0,.64.49,1.51,1.51,0,0,0,1.24-.45A1.26,1.26,0,0,0,130.52,401.78Z"/><path class="cls-2" d="M126.69,403.22c-1.33-.76-4.16.31-3.31,2.13l0,.07a1.87,1.87,0,0,0,2,1.56,2.58,2.58,0,0,0,2.23-1.59A1.9,1.9,0,0,0,126.69,403.22Z"/><path class="cls-2" d="M127.48,400.66a.64.64,0,0,0-.63-.17h0a.56.56,0,0,0-.5.44.88.88,0,0,0-.1.35.61.61,0,0,0,.31.53.62.62,0,0,0,.62,0h0l.12-.05A.72.72,0,0,0,127.48,400.66Z"/><path class="cls-2" d="M120.51,407.6a1.15,1.15,0,0,0-.11-.29.65.65,0,0,0-1.11,0,1.15,1.15,0,0,0-.11.29.69.69,0,1,0,1.33,0Z"/><path class="cls-2" d="M118.3,411.48v0a.68.68,0,1,0,0,.69v0A.68.68,0,0,0,118.3,411.48Z"/><path class="cls-2" d="M122.64,400.9a.45.45,0,0,0-.43-.34.46.46,0,0,0-.44.57.52.52,0,0,0,.5.39.42.42,0,0,0,.37-.21A.4.4,0,0,0,122.64,400.9Z"/><path class="cls-2" d="M129.78,396.81l0,0c-.28-.36-.85,0-.85.35s.57.71.85.35l0,0A.48.48,0,0,0,129.78,396.81Z"/><path class="cls-3" d="M131.11,390.31a13.43,13.43,0,0,0-7-1.06,19.23,19.23,0,0,0-8.75,2.38,25.19,25.19,0,0,0-9.59,8.88c-2.41,3.77-3.78,8.52-1.42,12.62,2.2,3.83,6.27,5.69,10.44,6.35,8.26,1.28,20.11.84,25.21-6.9C145.21,404.62,139.42,393.76,131.11,390.31Z"/><path class="cls-4" d="M94.46,5.12l50.27,2.17s37.55,1.88,45.06,14.08l11.33,14.46-20.71,1-34.74-8-21.13,4.23L106.7,27.48l-31-14.56L48,4,41,2.13Z"/><path class="cls-5" d="M3.56,13.69C14.28,1.28,31,.79,45.25,2.58,64.86,5,81.58,15.94,99.25,24.13c9,4.17,19,8.37,29,8.38,4.67,0,9.16-2.07,13.78-2.51,5.27-.51,9.55.67,14.4,2.69,7.78,3.24,14.77,8,23.21,9.33C185.8,43,197.11,44,200,36.89c0-.23,0-.47,0-.71,0-.58.88-.89,1.16-.35a.83.83,0,0,1,.66,1c0,.15-.05.28-.08.42,4.42,11,3.54,19.72-.51,31-2.71,7.54-2.93,13.92.67,21.15,2.3,4.62,5.33,8.6,6.08,13.83,1.2,8.37-7.53,12.58-14.35,14a55.91,55.91,0,0,1-20.32.07c-14.43.82-31.41-9.28-37.33,10.56-2.63,8.8-2.51,18.82-4.39,27.88-1.77,8.52-4.41,16.9-10.05,23.7-6.13,7.41-13.93,13-19.65,20.79-6,8.21-8.79,17.47-11.39,27.15-4.18,15.53-8.44,32.06-17.63,45.48a.89.89,0,0,1-.56,1.15l-.35.13c-1.1,1.52-2.25,3-3.49,4.45a1.15,1.15,0,0,1-1.77,0c-4.24,6.54-4.75,17.89-5.23,23.83-1.1,13.44,1,25.84,2.67,39.19.68,5.64,3.82,15.45-2.07,16.28-14.12,2-29.93,1-43.91-1.36C8.91,355,7.86,352.38,3.56,347.84V13.69"/><path class="cls-6" d="M139.69,118.89c4.37-7.41,18.05-5,24.76-4.29,7.43.74,14.9,1.67,22.36,2.05s17.38-1.61,21.69-9.31c.49-.87.62-3.85,2.08-.62,6.39,9.4,38.09,16,50.39,32.49a1.55,1.55,0,0,1-.24,1.88c-7,7.22-28.54-4.81-37.58-8.92-11.1-5.07-25.12,2.58-36.61,3.38-5.43.37-10.19-1.7-15.14-3.6-7-2.67-19.54-1.74-26.67-3C139.41,127.93,135.68,125.69,139.69,118.89Z"/><g class="cls-7"><path class="cls-8" d="M121.73,56.08a9.82,9.82,0,0,1,1.49-5.8,1.62,1.62,0,0,1,1.87-.51c1-6.06,2.26-12.51,4.69-17.74a.92.92,0,0,1,1.66.22c.06.37.12.74.16,1.11,8.26-1.77,16.21-4.7,24.05-.5l.09-.16c.46-.77,1.83-.25,1.48.62L157,34a1.3,1.3,0,0,1-.61,1.5c-4.85,11.79-9.54,23-9.35,36.08.22,14,8.32,27.09,7.69,41.05a1.39,1.39,0,0,1-2.32.92,3.19,3.19,0,0,1-1.63.68,2.76,2.76,0,0,1-1.6-.32,1.46,1.46,0,0,1-2.22-1.28c.44-12.28-9-20.89-16.1-30.35a1.73,1.73,0,0,1-2.57,1.3c-2.11-1.56-2.1-4.72-1.47-7a1.36,1.36,0,0,1,.1-.21q-.54-1-1-2c-2.21-4.63-2.55-9.36-2.17-14.23C121.9,60,121.75,57.37,121.73,56.08Z"/><path class="cls-8" d="M117.7,55.22a1.35,1.35,0,0,1,2.5.68c-.15,2.38.07,5.64-1.28,7.67a1.5,1.5,0,0,1-2.57,0C115,61.07,116.3,57.49,117.7,55.22Z"/><path class="cls-8" d="M118.83,66a1.31,1.31,0,0,1,2.52,0c.28,1.52.57,3.09.73,4.63.13,1.18,0,2.79-1.48,2.91a1.36,1.36,0,0,1-1.2-.69C118,70.87,118.41,68.32,118.83,66Z"/><path class="cls-8" d="M123.72,79.25c1.06,1.54,2.43,3.69,2,5.63a1.48,1.48,0,0,1-2.44.64c-1.48-1.14-2-3.84-2-5.59C121.13,78.49,123,78.22,123.72,79.25Z"/><path class="cls-8" d="M131.82,89.3a6.25,6.25,0,0,1,2.54,3c.61,1.45,1.47,3.5.18,4.8a1.41,1.41,0,0,1-1.38.36c-2.43-.72-2.09-4.55-3.08-6.46C129.52,90,130.69,88.59,131.82,89.3Z"/></g><path class="cls-9" d="M124.08,28.56a31.32,31.32,0,0,0,11.38-1.18c1.86-1.12,3.7-2.46,5.72-3.53,7.22-3.83,19,.69,26.26,2.63,5.37,1.43,16.69,7.8,21.76,3.57C195,25.18,176,16.7,173.28,14.71a.77.77,0,0,1-.15-.16c-.61-.37-1.23-.74-1.83-1.13a.28.28,0,0,1,.13-.51c8.43-.15,17.68,6.63,23.34,12.34,5.23,5.27,12.39,15.84-2.31,17.07a49.23,49.23,0,0,1-31.61-8.1c-3.48-2.41-6.85-4.73-10.89-6.1-4.46-1.52-9.33,1-13.44,2.49-.21.07-1.34.67-1.69.85a12.21,12.21,0,0,1-7,1.16c-.41,0-.83-.09-1.25-.16-3.94,0-20.66-4.92-22.06-5.78C103.63,26.15,120,26.87,124.08,28.56Z"/><path class="cls-10" d="M169.58,128.7c5.71.82,11.11,2.15,16.94,2,6.15-.13,9.55-3.61,14.18-6.91,5.38-3.85,12.77-.77,18.45.56,2.59.6,5.12,1.71,7.66,2.51,1.85.58,12,6.24,14.45,3.77s-9.11-7.51-9.45-7.8c-5.79-5-6.87-7-1.47-3.41,11.43,4.19,24.83,8.76,30.18,20.13a1.87,1.87,0,0,1-.67,2.54c-11.22,4.92-23.53-3-33.5-7.63-7.89-3.71-15.12-4.84-23.69-2.56-7.3,1.93-13.89,4.87-21.56,3.11a126,126,0,0,1-12.1-5C168.18,129.64,168.8,128.58,169.58,128.7Z"/><g class="cls-7"><path class="cls-8" d="M173.83,52.26a1.36,1.36,0,0,1,2.6,0c0,.16.07.34.11.51a54.25,54.25,0,0,1,3.18-11,.77.77,0,0,1,1.47,0,1.42,1.42,0,0,1,.48.08c.51.16,1,.36,1.48.56,2-.38,4.89.18,6.58-.1,4.84-.8,7.48-3.72,11-6.72a1,1,0,0,1,1.57.92,7.44,7.44,0,0,1-.22.81c3.38,7,2.25,14.64.37,22-3,11.71-5,21.31.9,32.58,2.07,4,12.93,18.9,1.95,18.63a1.59,1.59,0,0,1-2.52-.74c-1.7-6.56-8-11.38-14.17-13.51a1.77,1.77,0,0,1-1.29-1.69c.71-6.18,3.92-14.39-.64-19.62-2.66-3-6.36-4.27-8.62-7.81A15.91,15.91,0,0,1,176,58.53a1.66,1.66,0,0,1-2.49-.93A11.92,11.92,0,0,1,173.83,52.26Z"/><path class="cls-8" d="M184.38,82a1.2,1.2,0,0,1,2,0c.82,1.16.66,3,.7,4.38,0,1.09-.13,3.62-1.71,3.62s-1.64-2.15-1.71-3.17C183.59,85.43,183.55,83.19,184.38,82Z"/><path class="cls-8" d="M185.35,74.43c.35.29.77.52,1.11.84a4.13,4.13,0,0,1,.95,1.6,3.11,3.11,0,0,1-.64,3.48,1.29,1.29,0,0,1-2-.26c-.8-1.28-.23-3.12-1.14-4.33S184.47,73.68,185.35,74.43Z"/><path class="cls-8" d="M179.6,78.55a1.34,1.34,0,0,1,2.56,0,8.58,8.58,0,0,1,0,5.66,1.52,1.52,0,0,1-2.6,0A8.58,8.58,0,0,1,179.6,78.55Z"/><path class="cls-8" d="M180.82,92.92a1.35,1.35,0,0,1,2.58,0c.2,1.22.52,3-.19,4a1.29,1.29,0,0,1-2.2,0C180.3,95.88,180.62,94.14,180.82,92.92Z"/><path class="cls-8" d="M167.15,52.64a1.47,1.47,0,0,1,2.82,0c.38,1.9.8,4.63-.49,6.24a1.3,1.3,0,0,1-1.84,0C166.35,57.27,166.77,54.54,167.15,52.64Z"/><path class="cls-8" d="M170.89,62.1a1.42,1.42,0,0,1,2.73,0c.22,1.2.62,3.1-.41,4a1.38,1.38,0,0,1-1.91,0C170.26,65.2,170.67,63.3,170.89,62.1Z"/></g><path class="cls-11" d="M.94,13.69C15-5.57,45.73,2.58,64.38,8.52,84,14.77,113.77,39.09,134.83,31.46c0,0,14-5.05,26,2.76,0,0,19.27,18.22,41.47,2.22,0,0-7.54-23.45-44.77-28.18-31.88-1.59-63.09-3.14-94.89-5.7C44.87,1.12,13.36-3.38.94,13.69Z"/><path class="cls-11" d="M202.32,36.44s4.37,12.16-1.26,28.12c0,0-4.91,12.35,2.31,27.26,0,0,5.06,8.54,5.13,15.52"/><path class="cls-12" d="M149.8,371.28c15.11-.89,30.17-2.31,45.55-2.74,19.76-.57,39.1,2.54,58.76,2.51,20.94,0,41.87-3.46,62.77-2.79a14.12,14.12,0,0,0,5.87-.61c6.55-2.74,2.55-16.26,1.85-21.44-1.06-7.78-2-15.87-5.39-23-3.91-8.2-10.16-15.48-13.17-24.09-3.24-9.28-.73-18.21-.84-27.75-.11-8.6-1.17-18.1-6.68-25.09-2.84-3.6-6.48-6.55-9.9-9.68a68.69,68.69,0,0,1-5.65-7.94c-3.4-6.18-3.25-12.73-5-19.35-1.94-7.28-6.88-12.61-11.73-18.07a77,77,0,0,1-4.61-6.19c-8.6-13.46,4-27.26-.53-41.66a2.55,2.55,0,0,0-4.34-.86c-7.41,2.78-18.54-3.46-24.8-6.32-8.88-4.06-18-4.6-27.49-2.83-7.18,1.33-14.06,3.47-21.4,1.8-6.07-1.37-11.92-3.82-18.05-4.9-6.84-1.2-19.23,2.68-24.53-2.63a1.79,1.79,0,0,0-1-.54c-.19-.84-1.53-.81-1.85,0-5.53,15-9,30.49-19.75,43-8.35,9.7-18.8,17.9-25.83,28.68a113,113,0,0,0-15.62,37.79c-1.12,5.46-1.87,11-3.15,16.44a24.6,24.6,0,0,1-4.82,9.74c-2.25,2.68-4.77,5.12-7,7.84a37,37,0,0,0-8.37,21.25A105.74,105.74,0,0,0,55.2,320c.51,16.24,5.49,35.92,19.44,44.58,10.56,6.55,23.69,6.13,35.68,7A302,302,0,0,0,149.8,371.28Z"/><g class="cls-13"><path class="cls-8" d="M174.24,163.37c2.12-7.21,7.07-18.22,1.94-25.08-1.22-1.63.93-3.66,2.54-3.1,2.07-.94,4.68-.19,6.91-.16,2.71,0,5.31-1,8-.91a1.48,1.48,0,0,1,.86.29.83.83,0,0,1,1.18.69c2.62,18.06-11.46,34.79-6,52.86,4.32,14.19,17,23.27,16.34,39.21a1.54,1.54,0,0,1-3.07,0c-2-19.41-27.52-22.56-31.89-40.42C169.23,179.2,172.13,170.54,174.24,163.37Z"/><path class="cls-8" d="M169,157.86a1.27,1.27,0,0,1,2.54,0c.17,1.72.19,3.75-.92,5.16a1.27,1.27,0,0,1-2.11-.56C168.11,161,168.84,159.34,169,157.86Z"/><path class="cls-8" d="M162.6,162.35a5.1,5.1,0,0,1,1.92-3.58,1.09,1.09,0,0,1,1.63.94c-.09,1.27-.53,2.48-.63,3.76-.08,1-.46,2.49-1.74,2.22S162.46,163.29,162.6,162.35Z"/><path class="cls-8" d="M164.81,168c.59-1.39,2.43-.49,2.55.69.17,1.82.33,3.94-.47,5.61a1.41,1.41,0,0,1-2.42,0C163.56,172.31,164,169.88,164.81,168Z"/><path class="cls-8" d="M159.38,177.58a1.38,1.38,0,0,1,2.75,0,18.42,18.42,0,0,1,.16,5,1.35,1.35,0,0,1-2.44.32C159,181.32,159.24,179.28,159.38,177.58Z"/><path class="cls-8" d="M166.8,184.57c.35,1.7.75,3.37,1.07,5.07.4,2.17-3,3-3.29.9-.27-1.85-.45-3.71-.69-5.57C163.68,183.31,166.47,183,166.8,184.57Z"/><path class="cls-8" d="M167.35,148.62a1.15,1.15,0,0,1,2.25.31c0,1-.09,2-.11,3s-.11,2.14-1,2.63a.8.8,0,0,1-.79,0c-.87-.52-.88-1.72-.91-2.63A8.33,8.33,0,0,1,167.35,148.62Z"/></g><g class="cls-13"><path class="cls-8" d="M221.77,133.19a1.27,1.27,0,0,1,2.33-.17,2.14,2.14,0,0,1,1.41.28c5.38,3,10.73,6.15,16.62,8.18,6.45,2.22,12.78,1.25,19.28,2.34a1.71,1.71,0,0,1,1.13,2.22c2.6,5.94.11,12.91-1.65,18.91-5.26,12.52,4.58,23.76,8.84,29.34,4.78,6.25,8.9,12.58,9.78,20.59.56,5.08.58,10.32,2.78,15,1.86,4,6.34,6.69,9.76,9.15,6.86,4.93,10.9,8.13,12.87,16.45s1.23,19.74,0,27.93c-1.56,10.27-2.56,17.65,4.24,25.94,5.4,6.6,9.63,12.91,11.52,21.38,2.07,9.29,3.09,19.6,1.35,29a1.15,1.15,0,0,1-2.2,0c-.36-1.83-.65-3.64-.92-5.46a.88.88,0,0,1-.69-.8c-.7-5.33-1-10.74-2.58-15.9-1.83-5.9-6.44-10.76-9.74-15.86-7.38-11.37-12.6-23.78-22.74-33.08-8.3-7.62-13.71-13.73-14.36-25.39-.63-11.13.63-23-3.95-33.5-4.29-9.82-14-13.13-23-17.35-7.78-3.65-14.58-8.57-18.78-16.2-4.79-8.69-4.85-19.8-5.2-29.44C217.5,155.68,217.94,143.7,221.77,133.19Z"/><path class="cls-8" d="M261.72,242.65a5.65,5.65,0,0,1,2.11,3.53c.36,1.44.87,3.53,0,4.84a1.72,1.72,0,0,1-2.66.34c-1.05-1-.94-2.45-1.05-3.8s-.25-2.53-.34-3.79A1.3,1.3,0,0,1,261.72,242.65Z"/><path class="cls-8" d="M252.18,248.12a1.66,1.66,0,0,1,1.18-1.54,1.58,1.58,0,0,1,1.8.73,22,22,0,0,1,1.12,4.38c.2,1,.22,3.08-1,3.42s-2.11-1.11-2.44-2A11.3,11.3,0,0,1,252.18,248.12Z"/><path class="cls-8" d="M257.81,256.1a1.27,1.27,0,0,1,2.29-.3,21.2,21.2,0,0,1,1.87,5.38c.46,2-2.54,3.5-3.47,1.46A11.26,11.26,0,0,1,257.81,256.1Z"/><path class="cls-8" d="M255.89,232c.57,1.31,2.48,5.53.52,6.42-1.17.54-1.89-.74-2.16-1.69-.35-1.21-.47-2.46-.87-3.67C252.89,231.61,255.27,230.58,255.89,232Z"/><path class="cls-8" d="M262.36,270.48c.44-1.16,2.38-1.86,3-.4a26.23,26.23,0,0,1,1.09,4.09,24.85,24.85,0,0,1,1,5c.1,2.6-3.33,2.62-4.18.57C262.27,277.28,261.37,273.05,262.36,270.48Z"/><path class="cls-8" d="M273,284c2.29.69,3.54,3.51,4.5,5.49a2.33,2.33,0,0,1-.82,3.12,2.3,2.3,0,0,1-3.12-.82c-.53-1.08-1-2.18-1.48-3.3a9.34,9.34,0,0,1-.94-3.07A1.48,1.48,0,0,1,273,284Z"/><path class="cls-8" d="M263.25,289.77a.72.72,0,0,1,0-.17,1.33,1.33,0,0,1,1.65-1.49,3.45,3.45,0,0,1,1.55.78,6.5,6.5,0,0,1,1.18,1.84c.29.62.59,1.26.82,1.91a4.05,4.05,0,0,1,.27,1.09c0,.08.2,1.65,0,.63.17.9-.62,2.11-1.67,1.68a4.61,4.61,0,0,1-1.72-.91,6.09,6.09,0,0,1-1.27-2.24c-.19-.55-.42-1.11-.57-1.68-.07-.25-.16-.5-.23-.75A1.35,1.35,0,0,1,263.25,289.77Z"/><path class="cls-8" d="M276.1,297.66c2,1,3.89,3.13,3.44,5.5a1.59,1.59,0,0,1-2.65.7c-.91-1.11-1.1-2.71-2.3-3.63A1.49,1.49,0,0,1,276.1,297.66Z"/><path class="cls-8" d="M256.15,273.28a1.46,1.46,0,0,1,2,0c.8.75.79,1.82,1,2.83a5.91,5.91,0,0,1,.15,3.17,1.4,1.4,0,0,1-2,.83,4.09,4.09,0,0,1-1.69-3C255.38,275.81,255.13,274.29,256.15,273.28Z"/><path class="cls-8" d="M251,264.1a1.31,1.31,0,0,1,2.5,0,4.32,4.32,0,0,1,.13,2.44,1.44,1.44,0,0,1-2.76,0A4.32,4.32,0,0,1,251,264.1Z"/><path class="cls-8" d="M286.27,299.73c2.48,2.54,5.84,7,5.08,10.81-.35,1.74-2.63,1.72-3.48.46s-1-3.28-1.48-4.86c-.53-1.81-1.21-3.62-1.91-5.37C284.07,299.74,285.56,299,286.27,299.73Z"/></g><path class="cls-11" d="M139.69,118.89s-7.17,19.85-10.92,33c0,0-15,26.29-25.35,32.86,0,0-21.6,16.9-25.35,38.5A184.42,184.42,0,0,1,72.19,252c-4.31,14.37-16.4,24.32-19.56,39.32-3.33,15.74-.52,32.39,4.78,47.37"/><path class="cls-11" d="M259.85,142.11a36.8,36.8,0,0,1,3,13.61c1,17.14-6.78,24.16,6.84,38.57,0,0,11.14,16.74,8.32,26.13,0,0,4.32,17.84,20.47,25.82,0,0,12.39,12.67,5.82,30.51,0,0-.94,27.23,11.27,38.5,0,0,16.24,30.14,8.12,52.63"/><path class="cls-11" d="M168.2,115.26s-37.59-9.1-27.72,12.35c0,0,3.31,5.49,20.21,4.55,0,0,13.52-.51,18,3,0,0,1.19,3.78,16.93-.09,0,0,25-6.76,30.7-.62,0,0,20,14.76,33.5,7.63,0,0,4.12-10-17.48-18.4,0,0-31-20.65-42.25-10.32C200.12,113.39,189.79,121.84,168.2,115.26Z"/><path class="cls-14" d="M194.57,318.38c3.1,6.86,8.68,10.28,14.5,14.59a20.9,20.9,0,0,1,4.49,4.11c.85,1.14,4.9,7.69,5.88,8.74,1.28,1.37-.21-3.32,1.41-4.63s2.57-6.05,1.53-8.64c-.93-7.45-8.87-11.43-14.52-15.19a33.52,33.52,0,0,1-9.48-8.94,30.43,30.43,0,0,1-3.51-6.4c-.36-1-.62-2-.94-3A14.23,14.23,0,0,0,193,295a.33.33,0,0,0-.59,0A17.68,17.68,0,0,0,192,301c.06,2.28.12,4.58.34,6.85C192.69,311.44,193.07,315.06,194.57,318.38Z"/><path class="cls-14" d="M206.38,299.35c2.56,5.15,6.26,9.14,9.92,13.51a33.8,33.8,0,0,1,7.44,15.19A1.6,1.6,0,0,0,225,329.4a3.4,3.4,0,0,0,1.31.07,1.51,1.51,0,0,0,1.33-1.25,13.16,13.16,0,0,0,.06-1.76c.59-2.22,1.68-3.46,1.66-5.76a40.21,40.21,0,0,0-.84-8.69c-1.28-5.36-5.21-10.31-8.69-14.51a61.17,61.17,0,0,1-8.91-13.23,36.66,36.66,0,0,1-2.84-8,42.2,42.2,0,0,1-.56-5.23,9.29,9.29,0,0,0,.56-4.09.28.28,0,0,0-.44-.19,4.32,4.32,0,0,0-.89.92.37.37,0,0,0-.19.23l-.05.12a10.18,10.18,0,0,0-1,2.31,22.73,22.73,0,0,0-2.2,5.11,31.1,31.1,0,0,0-.89,7.57A38.35,38.35,0,0,0,206.38,299.35Z"/><path class="cls-14" d="M223,296c.38,1.65.71,4.08,2.06,5.26,1,.87,2.34,10.18,2.8,8.9,0-.14.07-9.84.06-10,1.19-1.75,1.72-3.89,2.57-5.81a25,25,0,0,1,4-6.47c3.54-4.07,8-7.19,11.19-11.61,2.92-4,5.07-8.67,5.15-13.75a28.88,28.88,0,0,0-4.27-15.65,17.49,17.49,0,0,0-1.5-3.44c-.4-.68-1.46-.18-1.38.53.41,3.91,1.71,7.6.59,11.55s-3.89,7.17-6.84,9.85c-4.54,4.13-10.24,8-12.91,13.72A26.75,26.75,0,0,0,223,296Z"/><path class="cls-15" d="M215.21,304.73c.46,3.23,2.57,5.41,4.26,8.07a32.15,32.15,0,0,1,4.69,12.26c.26,2.1.3,4.19.35,6.3,0,1.52,0,2.7.82,3.95a.61.61,0,0,0,1-.11,8.51,8.51,0,0,0,.9-4.34,24.93,24.93,0,0,0,1.25-8.13,36.45,36.45,0,0,0-2.14-11c-1.35-3.69-4.13-9.86-8.81-10.35C215.68,301.19,215,303.18,215.21,304.73Z"/><path class="cls-15" d="M202.68,323.75c.42,2.13,2.74,3.32,4.44,4.3a21.61,21.61,0,0,1,10.55,14.31,1.28,1.28,0,0,0,1.33.82,19.75,19.75,0,0,0,3.49-.6l.09,0a.81.81,0,0,0,.92-.58c1.21-4.93-1.14-11.15-4.1-15.1a17.89,17.89,0,0,0-6.84-5.63c-1.83-.84-4.91-2.32-7-1.85A3.53,3.53,0,0,0,202.68,323.75Z"/><path class="cls-15" d="M226.24,306.27c.26.51,1.18.73,1.4,0,.76-2.35.26-5,0-7.5a27.13,27.13,0,0,1,3.09-9.45c2.12-3.84,5.48-6.46,7.93-10,1.23-1.81,3.24-5,2-7.21-1-1.7-3.22-1.34-4.71-.68a19.65,19.65,0,0,0-10.82,13.92,37,37,0,0,0-.44,10.3C224.9,299,224.76,303.29,226.24,306.27Z"/><path class="cls-3" d="M225.06,305s8.87,5.56,1.31,30.17L223.5,342"/><path class="cls-3" d="M223,296c.38,1.65.71,4.08,2.06,5.26,1,.87,2.34,10.18,2.8,8.9,0-.14.07-9.84.06-10,1.19-1.75,1.72-3.89,2.57-5.81a25,25,0,0,1,4-6.47c3.54-4.07,8-7.19,11.19-11.61,2.92-4,5.07-8.67,5.15-13.75a28.88,28.88,0,0,0-4.27-15.65,17.49,17.49,0,0,0-1.5-3.44c-.4-.68-1.46-.18-1.38.53.41,3.91,1.71,7.6.59,11.55s-3.89,7.17-6.84,9.85c-4.54,4.13-10.24,8-12.91,13.72A26.75,26.75,0,0,0,223,296Z"/><path class="cls-3" d="M194.57,318.38c3.1,6.86,8.68,10.28,14.5,14.59a20.9,20.9,0,0,1,4.49,4.11c.85,1.14,4.9,7.69,5.88,8.74,1.28,1.37-.21-3.32,1.41-4.63s2.57-6.05,1.53-8.64c-.93-7.45-8.87-11.43-14.52-15.19a33.52,33.52,0,0,1-9.48-8.94,30.43,30.43,0,0,1-3.51-6.4c-.36-1-.62-2-.94-3A14.23,14.23,0,0,0,193,295a.33.33,0,0,0-.59,0A17.68,17.68,0,0,0,192,301c.06,2.28.12,4.58.34,6.85C192.69,311.44,193.07,315.06,194.57,318.38Z"/><path class="cls-16" d="M232.39,340.66a11.16,11.16,0,0,0,1.1,3,16.25,16.25,0,0,0,2.82,6.5,19.52,19.52,0,0,0,9.1,6.87c6.89,2.53,15.28,3.12,22.17.19A26,26,0,0,0,282,341.65a27.51,27.51,0,0,0,.93-12.43c-.47-3.67-.82-8.25-2.61-11.64-.11-.69-.21-1.38-.28-2.06a41.77,41.77,0,0,1,.28-9c.57-5.3-.43-10.12-6-12a50.67,50.67,0,0,0-10.93-2A50.76,50.76,0,0,0,253,292a9.15,9.15,0,0,0-2.22.1,11.15,11.15,0,0,0-5.9,2.89c-4.6,4.43-4.05,12.22-5.09,18-1.15,6.44-4.47,12-6.32,18.23C232.65,334.1,231.72,337.69,232.39,340.66Z"/><path class="cls-17" d="M245.2,347.44c-1-1.05.08-2.59,1.24-2.79,7.31-1.23,12.57-6.14,16.61-12.12a31,31,0,0,0,4.49-11.08,47.66,47.66,0,0,0,.85-6.85c.11-1.86.45-5.06-.29-6.81a2.17,2.17,0,0,1,1.22-2.78c2.46-.81,4-1.33,3.92-4.24a6.93,6.93,0,0,0-1.11-3.59c-.71-1.1-2.05-1.49-2.62-2.66a.46.46,0,0,1,.08-.49.39.39,0,0,1,.54-.46l.2.08a3.56,3.56,0,0,1,3.11.91,10.94,10.94,0,0,1,4.08,1.63c2.53,1.8,3.32,4.85,3.2,7.79a30.19,30.19,0,0,1-1.08,4.75c-.45,2.17.26,4.72.8,6.81.92,3.6,1.29,7.38,2.47,10.9a2.36,2.36,0,0,1-3.93,2.41,19.64,19.64,0,0,0-4.61,1.23,10.06,10.06,0,0,0-4.32,4.68c-1,1.9-.5,4.39-.38,6.44a15.25,15.25,0,0,1-.73,6c-1.2,3.57-5.39,6.32-7.78,9.11a16.72,16.72,0,0,0-3,5c-.3.78-.58,1.58-.89,2.37a2.32,2.32,0,0,0-.13.47,2,2,0,0,1,0,1.93,4.7,4.7,0,0,1-.07,1.07,1.4,1.4,0,0,1-2.25.85c-.14-.14-.27-.29-.39-.43a2.07,2.07,0,0,1-1-.54,34.39,34.39,0,0,1-6.1-8.36,14.35,14.35,0,0,1-1-10.31A7.72,7.72,0,0,1,245.2,347.44Z"/><path class="cls-18" d="M258.31,318.1a4.66,4.66,0,0,0,1.34,2,3.86,3.86,0,0,0,5.64-.56,5.16,5.16,0,0,0,.91-2,5.3,5.3,0,0,0,.13-1.59,3.94,3.94,0,0,0-2.36-3.35,3.23,3.23,0,0,0-.91-.2,2.16,2.16,0,0,0-.58-.16,5.33,5.33,0,0,0-1,0,3.28,3.28,0,0,0-1.83.65,4.36,4.36,0,0,0-1.23,1.53,4.27,4.27,0,0,0-.36,1.15A5.6,5.6,0,0,0,258.31,318.1Z"/><path class="cls-18" d="M268.56,312.78a4.87,4.87,0,0,1,1-3.77c1.22-1.65,3.36-1.78,5.15-1.14s3.22,3.11,2.22,4.95a4.79,4.79,0,0,1-.79,2,4.18,4.18,0,0,1-4.19,1.62A4.51,4.51,0,0,1,268.56,312.78Z"/><path class="cls-18" d="M263.85,324.53a4.36,4.36,0,0,1,1.58-2.82,3.66,3.66,0,0,1,2.75-.78l.1,0a3.62,3.62,0,0,1,2.54.7,4.38,4.38,0,0,1,1.45,3.94c-.11,2.33-2.8,4.59-5.15,4a4.27,4.27,0,0,1-3-2.43A5.19,5.19,0,0,1,263.85,324.53Z"/><path class="cls-18" d="M261.36,335.56a3.11,3.11,0,0,1-4.31-.68,8.8,8.8,0,0,1-.8-1.44,3.18,3.18,0,0,1,2.62-4.28,3.35,3.35,0,0,1,2.53.72,3.24,3.24,0,0,1,1.12,2.08,2.08,2.08,0,0,1,0,.35A3.12,3.12,0,0,1,261.36,335.56Z"/><path class="cls-18" d="M264,338.28a2.88,2.88,0,0,1,1.86,1.14,3.17,3.17,0,0,1,.55,2.4,2.88,2.88,0,0,1-4.66,1.76l-.51-.54a2.79,2.79,0,0,1-.53-1.4,3,3,0,0,1,.65-2.34A2.84,2.84,0,0,1,264,338.28Z"/><path class="cls-18" d="M256.18,345.5l.33-.54a2.48,2.48,0,0,1,1-.75,1.59,1.59,0,0,1,.7-.19h.07a2.14,2.14,0,0,1,1.05.18l.17.05h0a4.63,4.63,0,0,1,.53.29,1.59,1.59,0,0,1,.49.51,2.4,2.4,0,0,1,.46,1.2,5.1,5.1,0,0,1,0,.68,2.43,2.43,0,0,1-1,1.61,2.69,2.69,0,0,1-1.89.44h0a2.47,2.47,0,0,1-2.06-2.2A2.35,2.35,0,0,1,256.18,345.5Z"/><path class="cls-19" d="M252.8,300.77c-.57-3.76,5.49-4.38,8-4.56,3.12-.23,8-.32,10.42,2.14,3.64,3.76-.79,6.73-4.48,7.06s-8.41.14-11.82-1.65a3.22,3.22,0,0,1-1.71-2A1.91,1.91,0,0,1,252.8,300.77Z"/><path class="cls-20" d="M231.94,359.84c1.25,7.23,5.08,13.19,13.47,16.26,6.89,2.53,15.28,3.12,22.17.19,10.42-4.44,14.57-13.66,15.63-24.52,1.16-11.91-1-22.76-2.87-34.19-.11-.69-.21-1.38-.28-2.06a41.77,41.77,0,0,1,.28-9c.57-5.3-.43-10.12-6-12a50.67,50.67,0,0,0-10.93-2A50.76,50.76,0,0,0,253,292a9.15,9.15,0,0,0-2.22.1,11.15,11.15,0,0,0-5.9,2.89c-4.6,4.43-4.05,12.22-5.09,18C237.73,324.7,229.38,345,231.94,359.84Z"/><path class="cls-20" d="M252.8,300.77c-.57-3.76,5.49-4.38,8-4.56,3.12-.23,8-.32,10.42,2.14,3.64,3.76-.79,6.73-4.48,7.06s-8.41.14-11.82-1.65a3.22,3.22,0,0,1-1.71-2A1.91,1.91,0,0,1,252.8,300.77Z"/><path class="cls-21" d="M318,280.54c-6,.07-11.35,2.82-15.7,6.75,1-2.52,1.95-5.05,2.73-7.65a69.82,69.82,0,0,0,1.92-8.2c.47-.71.74-1.51,1.2-2.29a9.34,9.34,0,0,1,3.13-3.12c3.3-1.94,7.34-1.79,11-2.61,4.88-1.11,9.8-5.95,7.22-11.35-5.77-12-17,3.09-21.65,12.48a90.26,90.26,0,0,0-.13-16.27.45.45,0,0,0,.15-.28c0-.31.05-.62.08-.93a16.52,16.52,0,0,1,.93-3.37,12.07,12.07,0,0,1,3-3.85c2.14-1.82,4.57-3.33,6.59-5.3s4.15-4.46,4-7.42c-.1-2.37-1.36-5.5-3.67-6.57-4.89-2.29-9.15,3.87-10.63,7.75a35.9,35.9,0,0,0-2.14,9.35c-.42-2-.9-3.9-1.42-5.81.06-4.07.06-8.3-.21-12.36a36,36,0,0,0-1.56-9.1c-1.26-3.74-5.23-9-9.83-6.43s-2.75,9-.76,12.54a69.72,69.72,0,0,0,6.13,8.38c1.05,1.34,2.09,2.69,3.08,4.09a11.06,11.06,0,0,0,1.6,2A101.5,101.5,0,0,1,306,252.09c-.28-.61-.58-1.22-.84-1.81-.84-2-1.65-3.93-2.55-5.86a33.84,33.84,0,0,0-5.75-9c-3.51-3.69-9.95-5.37-12.75.17-2.95,5.86,2,10,7.13,11.78,2.9,1,6,1.59,8.78,2.89a11.88,11.88,0,0,1,4.41,3.12,28.23,28.23,0,0,1,1.61,2.47,84.07,84.07,0,0,1-2.12,18.25c-.15-1.4-.43-2.8-.63-4a24.29,24.29,0,0,0-2.85-8.45c-2.56-4.23-9-8.79-13.89-5.14-2,1.46-3.38,4.24-2.51,6.71s3.23,4,5.67,4.78c3.1,1,6.55,1.45,9.22,3.47a10,10,0,0,1,3.27,4.6,8.13,8.13,0,0,0,.65,2.06c-.49,1.65-1,3.28-1.63,4.88s-1.31,3.29-2,4.92a17.07,17.07,0,0,0-4.17-9.25c-2.4-2.59-7-5.53-10.54-2.95-3.13,2.31-2.25,7.39,1,9.15,2.19,1.17,4.64,1.22,6.92,2.07a10,10,0,0,1,3.75,2.38,8.39,8.39,0,0,1,1.41,2.31,110.65,110.65,0,0,0-5.07,13.56,29.09,29.09,0,0,0-1.5-4.66c-.7-1.67-1.62-3.48-3.37-4.24a3.61,3.61,0,0,0-4,1c-2.25,3.15,1.67,7.63,3.51,10a44.14,44.14,0,0,0,3.81,5,59.21,59.21,0,0,0-.54,7.54V320a9,9,0,0,0-.92-1.06c-1.07-1-3.59-2-4.51-.26-.74,1.45,1.54,3.24,2.42,4a24.28,24.28,0,0,0,3.05,2.41,25.54,25.54,0,0,0,1.42,8.09.4.4,0,0,0,.76-.07,42.23,42.23,0,0,0,.22-8.94,1.34,1.34,0,0,1,.74-.62,4.79,4.79,0,0,1,2.26-.09c1.5.25,3,.74,4.49.88,1.89.18,5.46-.71,4.86-3.36-.51-2.26-4.32-2.56-6.14-2.61a7.84,7.84,0,0,0-6.3,3.15c0-1.15,0-2.3,0-3.44.11-1.64.29-3.28.52-4.91a.38.38,0,0,0,.22-.15c3.55-4.56,10.25-2.69,14.78-.59,2.33,1.08,4.86,2.2,7.48,1.75s3.9-3.05,4.11-5.43c.63-6.95-8.33-8-13.15-7.05-2.94.59-6.41,1.39-8.81,3.3a18.52,18.52,0,0,0-3.2,3.92,5.09,5.09,0,0,0-.77.5,49.31,49.31,0,0,1,1.48-5.45c1.46-4.35,3.29-8.56,5.07-12.79,1.28-.6,2.36-1.45,3.94-1.57a14.77,14.77,0,0,1,4.86.5c3.31.88,5.88,2.92,9,4.08,2.4.89,5.1,1.21,7.32-.37,1.8-1.27,3.49-3.28,3.27-5.66C328.6,282.78,322.73,280.48,318,280.54Z"/><path class="cls-16" d="M256.86,376.74a90.42,90.42,0,0,0,4.18,15,2.61,2.61,0,0,0,1.71,3c2.74.95,6.06-.21,8.86-.52a87.63,87.63,0,0,1,15.87,0,55.83,55.83,0,0,1,6.46.63,20.46,20.46,0,0,0,5.17.59,8.77,8.77,0,0,0,3.18-.93,3.29,3.29,0,0,0,1.2-.43c8-4.68,8.68-16.49,5.31-24.12-2.19-4.93-4.72-9.73-6.72-14.74a22.89,22.89,0,0,1-2.1-8.14c0-2.11,1.11-3.83,1.3-5.86,1-10.25-11.59-12.05-19.23-11.78-3.51.12-7.42.17-10.36,2.35a4.11,4.11,0,0,0-.89,1c-1.4,1.41-1.61,4-1.44,5.94.32,3.65,1.75,6.88-1.19,9.81a41.72,41.72,0,0,0-6.71,7.77,16.17,16.17,0,0,0-4.1,8.6C255.61,368.4,256.1,373,256.86,376.74Z"/><path class="cls-17" d="M261.24,383.06a8,8,0,0,1-1.07-2.81,2,2,0,0,1,.8-1.8c1.53-1.24,4.64.91,6.14,1.46a14,14,0,0,0,9.25-.23,20.12,20.12,0,0,0,13.05-12.86c2.25-6.52-1.2-13.86,1.78-20,1.26-2.6,7.28-8.5,2.6-15.1,3-.56,6.7,3.49,7.82,5.54a7.66,7.66,0,0,1-.93,8.68c.28,1.84-.09,3.76.51,5.63,1,3.08,2.68,5.88,4.1,8.78,2.73,5.56,5.59,11.36,5.26,17.73-.2,3.88-4.72,19.25-10.78,15.39-2.1.36-4.77-.52-6.73-.72a73.69,73.69,0,0,0-9.28-.35c-6.25.14-12.21,1.68-18.37,2.32a2.33,2.33,0,0,1-1.37-.29,2,2,0,0,1-2.35-2c-.05-2.13,0-4.26-.23-6.39A18.52,18.52,0,0,1,261.24,383.06Z"/><path class="cls-22" d="M294.18,363.08a4.76,4.76,0,0,1,.95-3.24,3.61,3.61,0,0,1,4.27-1.13,4.33,4.33,0,0,1,2.76,2.7,4.84,4.84,0,0,1,0,3.72,4.25,4.25,0,0,1-3.4,2.34A4.55,4.55,0,0,1,294.18,363.08Z"/><path class="cls-22" d="M290.88,348.31a4.65,4.65,0,0,1,.78-1.86,2.9,2.9,0,0,1,2.14-1.14,3.11,3.11,0,0,1,2.11.62l.09.08a3.1,3.1,0,0,1,.84.47,3,3,0,0,1,.91,1.24,3.29,3.29,0,0,1-.51,3.26,3.55,3.55,0,0,1-1.77,1.23,4.11,4.11,0,0,1-1.81.17,3.41,3.41,0,0,1-1.6-.71A3.47,3.47,0,0,1,290.88,348.31Z"/><path class="cls-22" d="M284.72,355.2A3.18,3.18,0,0,1,286,353a3.81,3.81,0,0,1,1.6-.63l.12-.07a3.23,3.23,0,0,1,2.67.07,4,4,0,0,1,2.29,3.64,4.12,4.12,0,0,1-.34,1.9,3.37,3.37,0,0,1-1.18,1.41,4,4,0,0,1-.83.43,3.79,3.79,0,0,1-1.71.16,3.86,3.86,0,0,1-1.15-.32,5.16,5.16,0,0,1-1.91-1.49,4,4,0,0,1-.6-1A3.86,3.86,0,0,1,284.72,355.2Z"/><path class="cls-22" d="M284.35,366a0,0,0,0,0,0,0c0-.06,0-.12-.05-.17S284.34,365.91,284.35,366Z"/><path class="cls-22" d="M284.36,366l.15.66C284.46,366.42,284.4,366.2,284.36,366Z"/><path class="cls-22" d="M284.31,364.51a3.25,3.25,0,0,1,.63-1.45,2.92,2.92,0,0,1,1.19-.87c1.28-.66,3,.15,3.82,1.19a4.5,4.5,0,0,1,.86,1.67c.07.28.13.56.2.85a3.27,3.27,0,0,1-.27,1.69,3.26,3.26,0,0,1-6.21-.91l-.18-.72A3.21,3.21,0,0,1,284.31,364.51Z"/><path class="cls-22" d="M289.75,374.24a3.67,3.67,0,0,1,1.81-1.75,2.44,2.44,0,0,1,1.06-.74,3.67,3.67,0,0,1,2.59.11,3.87,3.87,0,0,1,1.84,2,4.65,4.65,0,0,1,.24,3.1,5.71,5.71,0,0,1-.41,1.27,4.2,4.2,0,0,1-1.22,1.49,3.67,3.67,0,0,1-1.77.71,3.71,3.71,0,0,1-1.89-.29,4,4,0,0,1-1.74-1.42,5.41,5.41,0,0,1-.85-2.24A4.15,4.15,0,0,1,289.75,374.24Z"/><path class="cls-22" d="M274.89,373.48a3.94,3.94,0,0,1,.82-1.74,4,4,0,0,1,2.34-1.27,3.62,3.62,0,0,1,2.35.37l.07.05a4.34,4.34,0,0,1,3.22,3.9,6.44,6.44,0,0,1-1.12,3.95,3.66,3.66,0,0,1-3.67,1.36,5,5,0,0,1-2.79-1.88,6.28,6.28,0,0,1-1.22-4.74Z"/><path class="cls-22" d="M281.71,383.55a3.37,3.37,0,0,1,1.8-1.76,2.83,2.83,0,0,1,.62-.21,3.17,3.17,0,0,1,2.06-.32,3.57,3.57,0,0,1,2.23,1.32,4.29,4.29,0,0,1,.88,2,4.11,4.11,0,0,1-.89,3.38,3.78,3.78,0,0,1-3.47,1.3,4.31,4.31,0,0,1-3.53-3.85A3.87,3.87,0,0,1,281.71,383.55Z"/><path class="cls-22" d="M299.72,376.34a4.76,4.76,0,0,1,1.34-1.11l.68-.38a3,3,0,0,1,1.59-.16,4.07,4.07,0,0,1,.5.13h0a2.4,2.4,0,0,1,.87.28,3.4,3.4,0,0,1,1.28,1,3.38,3.38,0,0,1,.37,3.41,3.36,3.36,0,0,1-1.3,1.51,5.67,5.67,0,0,1-2,.76,3,3,0,0,1-1.34,0,3.58,3.58,0,0,1-1.59-.71,3.3,3.3,0,0,1-1-1.37A3.36,3.36,0,0,1,299.72,376.34Z"/><path class="cls-22" d="M294.1,385.4a2.88,2.88,0,0,1,.52-.77,2.34,2.34,0,0,1,1.62-.87,2.32,2.32,0,0,1,1.77.53,3,3,0,0,1,1.1,1.93,2.86,2.86,0,0,1-1.17,2.59,2.64,2.64,0,0,1-2.59.26,2.58,2.58,0,0,1-1.5-2.08A3.33,3.33,0,0,1,294.1,385.4Z"/><path class="cls-19" d="M277.2,335.56c1.76-2.31,6.11-2.24,8.68-2.23,3,0,7.86.47,8.77,4.06a2.87,2.87,0,0,1-1,3.32c-4.67,2.76-11.95,2.68-16.35-.63A3,3,0,0,1,277.2,335.56Z"/><path class="cls-3" d="M302.29,394.49a3.29,3.29,0,0,0,1.2-.43c8-4.68,8.68-16.49,5.31-24.12-2.19-4.93-4.72-9.73-6.72-14.74a22.89,22.89,0,0,1-2.1-8.14c0-2.11,1.11-3.83,1.3-5.86,1-10.25-11.59-12.05-19.23-11.78-3.51.12-7.42.17-10.36,2.35a4.11,4.11,0,0,0-.89,1c-1.4,1.41-1.61,4-1.44,5.94.32,3.65,1.75,6.88-1.19,9.81a41.72,41.72,0,0,0-6.71,7.77,16.17,16.17,0,0,0-4.1,8.6c-1.75,3.55-1.26,8.17-.5,11.89a90.42,90.42,0,0,0,4.18,15,2.61,2.61,0,0,0,1.71,3"/><path class="cls-3" d="M277.2,335.56c1.76-2.31,6.11-2.24,8.68-2.23,3,0,7.86.47,8.77,4.06a2.87,2.87,0,0,1-1,3.32c-4.67,2.76-11.95,2.68-16.35-.63A3,3,0,0,1,277.2,335.56Z"/><path class="cls-16" d="M202.29,400.26c1.06,2.93,3,6.66,5.45,8.66a3,3,0,0,0,3.07.52,2,2,0,0,0,.26.06c3.46.73,6.8-1.9,10.43-.94,1.75.47,3.52,1.58,5.4,1.38a8.92,8.92,0,0,0,3.86-1.9c3.33-2.26,8.49-3,12.42-3.53a40.6,40.6,0,0,1,6-.37,20.63,20.63,0,0,0,4.08,0,2.74,2.74,0,0,0,4.21-.44c7.17-9.87,5.37-22.12-1.33-31.69-1.76-2.52-3.79-4.83-5.6-7.31-1.5-2.05-3.82-4.59-4.2-7.18-.66-4.36.34-9.78-3.64-12.85-5.45-4.21-14.4-2.73-20.71-1.41-3,.64-6.86,1.46-8.84,4.12a6.85,6.85,0,0,0-1.37,5.53c-.16,1.91.1,3.83.1,5.88a19.62,19.62,0,0,1-2.1,8.83c-2.46,5.08-5.82,9.65-7.47,15.11C200.75,388,200.37,395,202.29,400.26Z"/><path class="cls-17" d="M201.05,390.1a5.12,5.12,0,0,1-.21-.59c-.39-1.28-.25-4.82,1.92-4.46,1.58.27,2.1,3.09,3,4.18,1.62,2,4.29,2.91,6.66,3.52,6,1.59,11.77.22,16.85-3.4,7.91-5.65,10.21-14.52,9.6-23.78-.28-4.2-1.38-8.91.27-13,.82-2,2.18-4.16.79-6.24-1.08-1.63-3.26-2.26-4.66-3.55a.63.63,0,0,1,.33-1.1c5.86-1,12.07,3.12,10.85,9.51a13.59,13.59,0,0,1-.81,2.51,31.53,31.53,0,0,0,1,3.39,29.25,29.25,0,0,0,4.25,7.18c3,4,6.23,7.67,8.51,12.13,2.15,4.22,2.35,9.15,2.17,13.78-.16,4.3-1.31,9.12-4.17,12.44a3.06,3.06,0,0,1-4,.74c-3.58.67-7.48,0-11.12.46a37.82,37.82,0,0,0-11.79,3.59,18.31,18.31,0,0,1-4.45,1.86c-1.91.4-4.09-.67-5.9-1.11-3.29-.79-7.11,1.13-10.4,1.32a3,3,0,0,1-2.69-1.17c-2.68-1.25-3.93-4.21-4.88-6.93A25.73,25.73,0,0,1,201.05,390.1Z"/><path class="cls-22" d="M236.81,359.6a4.07,4.07,0,0,1,4.37-2.45,4.63,4.63,0,0,1,3.31,2.87,4.41,4.41,0,0,1,.39,1.72,4.71,4.71,0,0,1-.9,3,3.25,3.25,0,0,1-4.24.7,4.22,4.22,0,0,1-2.25-1.46A4.41,4.41,0,0,1,236.81,359.6Z"/><path class="cls-22" d="M245.35,372.07a5.4,5.4,0,0,1,6.52.11,5.15,5.15,0,0,1,1.82,2.49,4,4,0,0,1-.45,3.65c-.06.11-.12.23-.19.34a5.85,5.85,0,0,1-2.74,2.51,4.41,4.41,0,0,1-2.8.21,5.5,5.5,0,0,1-3.86-3.57A5.16,5.16,0,0,1,245.35,372.07Z"/><path class="cls-22" d="M231,371.92a3.75,3.75,0,0,1,2.08-2,3.39,3.39,0,0,1,3,.26,5.51,5.51,0,0,1,1.28.65A4.79,4.79,0,0,1,239,375a2.83,2.83,0,0,1-.36,1.25,3.81,3.81,0,0,1-1.1,1.35,3.34,3.34,0,0,1-.88.5,3.94,3.94,0,0,1-3.3-.2,4.75,4.75,0,0,1-2-1.76,5.17,5.17,0,0,1-.76-2A4.08,4.08,0,0,1,231,371.92Z"/><path class="cls-22" d="M235.34,381.66a3.87,3.87,0,0,1,2.45-1.37,3.76,3.76,0,0,1,1.06,0l.13,0a3.49,3.49,0,0,1,1,0,5.31,5.31,0,0,1,2.78,8.67,4.33,4.33,0,0,1-4.86,1.19c-2-.7-3.14-3-3.45-5A4.62,4.62,0,0,1,235.34,381.66Z"/><path class="cls-22" d="M247,387.42a4.1,4.1,0,0,1,4-.37l.25.15a4.34,4.34,0,0,1,1.89.83c1.63,1.27,1.82,3.93.94,5.68a4.93,4.93,0,1,1-7.11-6.29Z"/><path class="cls-22" d="M237.66,396.23c0,.06,0,.12,0,.19q.09-.36.21-.72s0,0,0,0,0,0,0,0a3.12,3.12,0,0,1,.15-.39,3.61,3.61,0,0,1,.56-.83h0l0,0,0,0a4.37,4.37,0,0,1,.49-.47,2.65,2.65,0,0,1,2-.47,3.12,3.12,0,0,1,2.45,2.11,3.29,3.29,0,0,1,.18,1.7,9.37,9.37,0,0,1-.28.9,3.08,3.08,0,0,1-5.31.7,3.12,3.12,0,0,1-.58-1.52A2.85,2.85,0,0,1,237.66,396.23Z"/><path class="cls-22" d="M225.18,393a4.4,4.4,0,0,1,.95-3.09,3.14,3.14,0,0,1,1.3-.94l.82-.2a3.24,3.24,0,0,1,.44,0l.36-.07a3.65,3.65,0,0,1,2.92.87A3.69,3.69,0,0,1,233,391a3.83,3.83,0,0,1,.17,1.93,4.1,4.1,0,0,1-.89,1.91,4.86,4.86,0,0,1-1.75,1.3,3,3,0,0,1-1.31.33,3.87,3.87,0,0,1-1.87-.31,3.74,3.74,0,0,1-2.21-3.19Z"/><path class="cls-22" d="M227.83,399.1h0s0,0,0,0a3,3,0,0,1,.48-.46l-.08.08a2.7,2.7,0,0,1,1.34-.57,4.07,4.07,0,0,1,.78,0,2.68,2.68,0,0,1,1.26.57,2.6,2.6,0,0,1,1,1.83v0a2.85,2.85,0,0,1-.59,2,2.72,2.72,0,0,1-4.8-1.44A2.84,2.84,0,0,1,227.83,399.1Z"/><path class="cls-19" d="M222.15,348.86l.64-.05a25.33,25.33,0,0,1,13.37-1.69,2.59,2.59,0,0,1,1.09,4.6c-4.23,2.75-9.63,2.79-14.46,3.41C218.76,355.64,218.1,349.27,222.15,348.86Z"/><path class="cls-3" d="M257.5,403.72c7.17-9.87,5.37-22.12-1.33-31.69-1.76-2.52-3.79-4.83-5.6-7.31-1.5-2.05-3.82-4.59-4.2-7.18-.66-4.36.34-9.78-3.64-12.85-5.45-4.21-14.4-2.73-20.71-1.41-3,.64-6.86,1.46-8.84,4.12a6.85,6.85,0,0,0-1.37,5.53c-.16,1.91.1,3.83.1,5.88a19.62,19.62,0,0,1-2.1,8.83c-2.46,5.08-5.82,9.65-7.47,15.11-1.59,5.29-2,12.23-.05,17.51,1.06,2.93,3,6.66,5.45,8.66a3,3,0,0,0,3.07.52"/><path class="cls-3" d="M222.15,348.86l.64-.05a25.33,25.33,0,0,1,13.37-1.69,2.59,2.59,0,0,1,1.09,4.6c-4.23,2.75-9.63,2.79-14.46,3.41C218.76,355.64,218.1,349.27,222.15,348.86Z"/><path class="cls-23" d="M142.28,268c.88-3.8,1.89-7.56,2.81-11.35a24.16,24.16,0,0,0,0-12.35c-.15-.32-.29-.65-.41-1a.4.4,0,0,1,0-.36.74.74,0,0,0,0-.14c-.13-.42.48-.82.77-.45a11.6,11.6,0,0,1,1.5,2.55,17.46,17.46,0,0,1,3.49,9.72c.2,5.88-2.13,11.35-1.15,17.32,1.08,6.68,4.14,12.69,7.65,18.44,1.72,2.05,3.19,4.45,4.78,6.35,3.7,4.47,7.82,8.49,11.77,12.72a49.12,49.12,0,0,1,12.41,25.05c1.63,9.71-2.72,18-5.94,26.86a30.28,30.28,0,0,0-1.8,15.41c1.33,7.37,6.5,13.59,6.79,14a1.06,1.06,0,0,1-.61,1.59,1.43,1.43,0,0,1-1.73,1.07c-7-1.3-10.06-9.56-11.37-15.71-2.2-10.3,3.31-19.32,3.72-29.42.42-10.52-4.89-18.52-11.9-25.7-6-6.15-12.78-13-17.19-20.42a31.92,31.92,0,0,1-4.9-10.91C138.89,283.72,140.55,275.43,142.28,268Z"/><path class="cls-15" d="M145.53,268.59c.1-.46.75-.32.78.11a67.06,67.06,0,0,1,.05,7.09c1.88,11.06,8.18,21.07,15.81,29.12,7.42,7.83,15.54,14.36,19.35,24.8,3.49,9.58,2.27,20.23-.52,29.8-1.83,6.27-3.26,12.24-3.15,18.83a12.21,12.21,0,0,0,4.37,9,9.22,9.22,0,0,1,3,4,.85.85,0,0,1-.22,1,1.45,1.45,0,0,1-1.08,1.21c-1.66.58-3.87-1.4-5-2.3-3.6-2.82-6.55-6.63-7.18-11.06-2.69-6.81-.18-15.84,1.82-22.26,1.79-5.72,3.58-11.15,3.53-17.24-.06-6.89-4.16-12.79-8.35-17.91-6.36-7.79-13.5-15-19.11-23.4C143.34,290,143.33,279.33,145.53,268.59Z"/><path class="cls-20" d="M142.28,268c.88-3.8,1.89-7.56,2.81-11.35a24.16,24.16,0,0,0,0-12.35c-.15-.32-.29-.65-.41-1a.4.4,0,0,1,0-.36.74.74,0,0,0,0-.14c-.13-.42.48-.82.77-.45a11.6,11.6,0,0,1,1.5,2.55,17.46,17.46,0,0,1,3.49,9.72c.2,5.88-2.13,11.35-1.15,17.32,1.08,6.68,4.14,12.69,7.65,18.44,1.72,2.05,3.19,4.45,4.78,6.35,3.7,4.47,7.82,8.49,11.77,12.72a49.12,49.12,0,0,1,12.41,25.05c1.63,9.71-2.72,18-5.94,26.86a30.28,30.28,0,0,0-1.8,15.41c1.33,7.37,6.5,13.59,6.79,14a1.06,1.06,0,0,1-.61,1.59,1.43,1.43,0,0,1-1.73,1.07c-7-1.3-10.06-9.56-11.37-15.71-2.2-10.3,3.31-19.32,3.72-29.42.42-10.52-4.89-18.52-11.9-25.7-6-6.15-12.78-13-17.19-20.42a31.92,31.92,0,0,1-4.9-10.91C138.89,283.72,140.55,275.43,142.28,268Z"/><path class="cls-23" d="M141.06,337.68c-3.31-10-2.41-19.9,1.48-29.59a66.76,66.76,0,0,1,7-12.3c2.71-4,8.59-10.28,6.78-19.34-.18-.63.78-1.06,1.07-.45,4.08,8.64.51,17.93-2.87,26.16-2,4.8-4,9.57-5.06,14.68-1.27,6.1.36,11.47,3.3,16.82,2.87,5.2,6.62,9.88,9.53,15.06a38.83,38.83,0,0,1,4.61,16.17c.93,10.89-1.46,24.68-11.19,31.18-1,.7-2-.62-1.56-1.56,5-10.91,7.84-22,1.6-33.07C151.11,353.25,144.07,346.8,141.06,337.68Z"/><path class="cls-15" d="M142.46,314.18a137.42,137.42,0,0,1,9.92-17.75c.06-.15,1.94-2.15.24,1.68-4.09,8.88-7.33,15.73-7.08,25.13.13,4.86,2.82,10.6,5.49,14.63s6.47,7.31,9.31,11.25c9.65,13.4,8,36.11-4.79,47.26-1.17,1-2.89-.67-1.72-1.72.5-.44,1-.9,1.42-1.38a1,1,0,0,1,.1-.49c1.86-4.2,4.18-7.74,5.09-12.33a35.22,35.22,0,0,0-.3-13.76c-1.8-8.78-8-15.66-12.51-23.13C138.44,332.76,140.72,318,142.46,314.18Z"/><path class="cls-3" d="M141.06,337.68c-3.31-10-2.41-19.9,1.48-29.59a66.76,66.76,0,0,1,7-12.3c2.71-4,8.59-10.28,6.78-19.34-.18-.63.78-1.06,1.07-.45,4.08,8.64.51,17.93-2.87,26.16-2,4.8-4,9.57-5.06,14.68-1.27,6.1.36,11.47,3.3,16.82,2.87,5.2,6.62,9.88,9.53,15.06a38.83,38.83,0,0,1,4.61,16.17c.93,10.89-1.46,24.68-11.19,31.18-1,.7-2-.62-1.56-1.56,5-10.91,7.84-22,1.6-33.07C151.11,353.25,144.07,346.8,141.06,337.68Z"/><path class="cls-23" d="M170.26,230.44a.53.53,0,0,1,.38-.07l.31-.27a.87.87,0,0,1,1.23,1.24c-4.71,5.39-8.11,11.6-8.5,18.87-.36,6.69,3.1,12.46,7.63,17.07,7.86,8,18.55,12.55,26.43,20.6a34.65,34.65,0,0,1,9.48,30.32c-1.06,6.28-4.1,12.21-7.59,17.45-1.8,2.69-3.79,5.24-5.65,7.88a76,76,0,0,0-4.62,8.19c-1.27,7.55,3,13.4,6.6,20.13s4.54,13.3-.23,19.59a1.17,1.17,0,0,1-2.12-.9c1.54-9.9-2.81-17.72-10.09-24.09-3.2-2.79-6.3-6-8-9.89A9.35,9.35,0,0,1,173,351c-.42-6.62,3.31-13.4,7.27-18.49,4.13-5.3,9.21-10.17,11.21-16.76,2.45-8.05-2.29-16.13-7.59-21.8-9.29-9.93-23-15-26.76-29.25C154,253,159.5,236.55,170.26,230.44Z"/><path class="cls-15" d="M160.9,253.61c.09-.66,1-.39,1,.14,1,15.51,10.47,19.5,15.07,24.35,7.62,6.15,16,11.45,22.43,18.86,7.82,9,8.22,20.82,3.87,31.49-2.29,5.62-5.86,10.36-9.46,15.18-4.31,5.79-5.64,11.73-3.07,18.52,2.22,5.88,7.09,11,7.82,17.38a14.5,14.5,0,0,1-.82,6.64c-.12,2.18-5.83,6.52-5.44,5.81a40.32,40.32,0,0,0,3.27-7.05c-.7-5.7-5-10.78-8.81-15.11-4.31-4.93-8.8-11.39-7.84-18.19,2.62-18.49,16.65-21.88,17.19-36.24.36-9.86-5-20.36-14.76-27.27-4.11-3.55-9.14-7.05-12.33-10.65C163.24,270.89,159.64,262.58,160.9,253.61Z"/><path class="cls-3" d="M170.26,230.44a.53.53,0,0,1,.38-.07l.31-.27a.87.87,0,0,1,1.23,1.24c-4.71,5.39-8.11,11.6-8.5,18.87-.36,6.69,3.1,12.46,7.63,17.07,7.86,8,18.55,12.55,26.43,20.6a34.65,34.65,0,0,1,9.48,30.32c-1.06,6.28-4.1,12.21-7.59,17.45-1.8,2.69-3.79,5.24-5.65,7.88a76,76,0,0,0-4.62,8.19c-1.27,7.55,3,13.4,6.6,20.13s4.54,13.3-.23,19.59a1.17,1.17,0,0,1-2.12-.9c1.54-9.9-2.81-17.72-10.09-24.09-3.2-2.79-6.3-6-8-9.89A9.35,9.35,0,0,1,173,351c-.42-6.62,3.31-13.4,7.27-18.49,4.13-5.3,9.21-10.17,11.21-16.76,2.45-8.05-2.29-16.13-7.59-21.8-9.29-9.93-23-15-26.76-29.25C154,253,159.5,236.55,170.26,230.44Z"/><path class="cls-1" d="M211.47,403.12c-3.3-4.39-7.72-7.59-10.48-12.42-2.36-4.14-5.29-8.43-9.16-11.37a28.12,28.12,0,0,0-9.76-5.47c-9-2.92-19.93-1.36-28.49,3.07-5.74,2.33-10.19,7.36-13.35,12.54a42,42,0,0,0-6,21.21c-.06,7.5,3.94,13.78,11.37,15.74,3.92,1,8.15.91,12.16.74.84,0,1.68-.08,2.51-.14,11.7,1.22,23.49-1.64,35.17-1.95,2.83-.08,5.67.13,8.5.21,2.25.06,5,.31,7.07-.68a6.49,6.49,0,0,0,3.56-5.55c.25-.91.42-1.76.53-2.28C216.1,412,214.31,406.91,211.47,403.12Z"/><path class="cls-2" d="M214.84,411.74a.44.44,0,0,0-.25-.36.49.49,0,0,0-1-.08c-.61,1.57-2.6,3-3.94,3.92a18.91,18.91,0,0,1-5.86,2.46c-4.54,1.13-9.44.75-14-.08a54.94,54.94,0,0,1-10.92-3.1,1.15,1.15,0,0,0,.12-.25,2.74,2.74,0,0,0-1.25-3.12,1.33,1.33,0,0,0-1.47-.25,1.49,1.49,0,0,0-.65,1.46,3.1,3.1,0,0,0,.17.73,23.68,23.68,0,0,1-7.16-5.54,32,32,0,0,1-3.93-6.07,2.14,2.14,0,0,0,2-1.43,2.44,2.44,0,0,0-1-2.24,3.57,3.57,0,0,0-1.68-.93.43.43,0,0,0-.49-.17,1.86,1.86,0,0,0-.81.39c-.33-.88-.63-1.78-.89-2.69a2.76,2.76,0,0,0,4.19-1.46c.91-2.42-1.13-6.39-4-6a2.21,2.21,0,0,0-1.4.79c-.4-6.91,2.2-13,10.58-14.22.42-.07.32-.78-.11-.75a17.49,17.49,0,0,0-2.64.37.29.29,0,0,0-.25-.08c-8,1-15.93,3.47-22.14,8.82a27.57,27.57,0,0,0-6.79,9.62l0,.1q-.32.46-.6.93a29,29,0,0,0-2.54,6.09,39.19,39.19,0,0,0-1.82,11.93,18.83,18.83,0,0,0,2.55,10.12c1.78,2.82,4.88,4.28,8,5,3.57.86,7.34.74,11,.86,4.86.15,9.65.28,14.52.1,5.33-.19,10.63-.18,15.94-.64,2.68-.23,5.35-.53,8-.81,1.39-.15,2.82-.23,4.23-.38,1.93.08,3.85.21,5.82.45,2.21.28,5.4.46,7.22-1.13C214.79,421.39,215.15,415.57,214.84,411.74Z"/><path class="cls-2" d="M170.62,392a3,3,0,0,0-2.44-.05l-.17.09a.58.58,0,0,0-.36.16c-3.34,3,2.62,8.71,4.91,4.44A3.36,3.36,0,0,0,170.62,392Z"/><path class="cls-2" d="M169.7,388.13c-.16-.81-.84-1.83-1.78-1.63a.59.59,0,0,0-.43.43c-1.25,1.12-.18,4.17,1.64,3.3C169.88,389.87,169.84,388.79,169.7,388.13Z"/><path class="cls-2" d="M165.54,380.32a1.74,1.74,0,0,0-2.1.05,2.08,2.08,0,0,0-.5,1.68,5.58,5.58,0,0,0,.59,3.17,2.39,2.39,0,0,0,4.37-.62C168.21,382.94,166.89,381.14,165.54,380.32Z"/><path class="cls-2" d="M175.76,402.68c-.6-1.23-3.88-4.81-5.15-2.74-1.26.78-1.84,3.64-1.83,4.68,0,3.16,2.32,5.81,5.63,5.06S176.8,404.79,175.76,402.68Z"/><path class="cls-2" d="M177,396.17a1.78,1.78,0,0,0-2,1.14,1.86,1.86,0,0,0-.25,1.88A3,3,0,0,0,177.3,401a.83.83,0,0,0,.73-.41C178.71,399.38,178.67,396.57,177,396.17Z"/><path class="cls-2" d="M174.67,393.19l0-.08a.64.64,0,0,0-.08-.14s-.18-.25-.07-.09a.62.62,0,0,0-1,0l0-.05a.65.65,0,0,0-.18.31c.09-.22-.06.12-.07.2a1.27,1.27,0,0,0,.15.83.82.82,0,1,0,1.31-1Z"/><path class="cls-2" d="M181.41,408a2.16,2.16,0,0,0-1.09-1.1.88.88,0,0,0-1.27.52l0,.12a1.16,1.16,0,0,0-.19.67,2.62,2.62,0,0,0,.9,1.57.87.87,0,0,0,1.36-.18A2.16,2.16,0,0,0,181.41,408Z"/><path class="cls-3" d="M211.47,403.12c-3.3-4.39-7.72-7.59-10.48-12.42-2.36-4.14-5.29-8.43-9.16-11.37a28.12,28.12,0,0,0-9.76-5.47c-9-2.92-19.93-1.36-28.49,3.07-5.74,2.33-10.19,7.36-13.35,12.54a42,42,0,0,0-6,21.21c-.06,7.5,3.94,13.78,11.37,15.74,3.92,1,8.15.91,12.16.74.84,0,1.68-.08,2.51-.14,11.7,1.22,23.49-1.64,35.17-1.95,2.83-.08,5.67.13,8.5.21,2.25.06,5,.31,7.07-.68a6.49,6.49,0,0,0,3.56-5.55c.25-.91.42-1.76.53-2.28C216.1,412,214.31,406.91,211.47,403.12Z"/></g></g></svg>