<svg xmlns="http://www.w3.org/2000/svg" viewBox="0 0 115.4 26.94"><defs><style>.cls-1{fill:#4d3224;}</style></defs><title>loading-text</title><g id="圖層_2" data-name="圖層 2"><g id="menu"><path class="cls-1" d="M6.42-80.41a8.49,8.49,0,0,1,2.13.82l2.19,1.17a22,22,0,0,0,2.32,1.06,7,7,0,0,0,2.53.46A7,7,0,0,0,16.68-77a6.13,6.13,0,0,0,1.17-.34,7.37,7.37,0,0,1-.94,3.11,2.31,2.31,0,0,1-2.08,1.16,4,4,0,0,1-1.77-.46,14,14,0,0,1-1.82-1.15c-.62-.45-1.25-1-1.9-1.48a23.16,23.16,0,0,0-2-1.48,12.37,12.37,0,0,0-2.15-1.15,6,6,0,0,0-2.28-.46H2.57l-.31,0L6.31-98.07a6.1,6.1,0,0,0-2.8,2.23,6.47,6.47,0,0,0-1,3.68,4,4,0,0,0,.15,1.32l.23.55a3.53,3.53,0,0,1-2.11-.55,2.27,2.27,0,0,1-.77-2,4.94,4.94,0,0,1,.85-2.75,8.86,8.86,0,0,1,2.2-2.3,11.66,11.66,0,0,1,3.06-1.58A10.59,10.59,0,0,1,9.5-100h.57l.54,0Z" transform="translate(0 100)"/><path class="cls-1" d="M23.35-93.61q3.42,0,3.48,4.28l.3,0a4.32,4.32,0,0,0,1-.13,8.62,8.62,0,0,0,1.12-.37,9,9,0,0,0,1.08-.53c.36-.2.68-.4,1-.6l.24.74a6.48,6.48,0,0,1-2,1.42,10.57,10.57,0,0,1-2.73.83A12.91,12.91,0,0,1,26-84.52a9.1,9.1,0,0,1-1.44,2.6,6.08,6.08,0,0,1-2,1.65,5.12,5.12,0,0,1-2.37.57,6.44,6.44,0,0,1-1.75-.23,3.51,3.51,0,0,1-1.37-.75,3.52,3.52,0,0,1-.9-1.33,5.35,5.35,0,0,1-.33-2,12.57,12.57,0,0,1,.16-1.8,13.53,13.53,0,0,1,.53-2.08A13.4,13.4,0,0,1,17.52-90a8.14,8.14,0,0,1,1.4-1.84,6.88,6.88,0,0,1,1.92-1.31A6.17,6.17,0,0,1,23.35-93.61Zm-2,11.35a1.58,1.58,0,0,0,1-.42,4.22,4.22,0,0,0,.92-1.17A9.63,9.63,0,0,0,24-85.63a13.5,13.5,0,0,0,.49-2.23.85.85,0,0,1-.59-.43,1.62,1.62,0,0,1-.15-.72,1.7,1.7,0,0,1,.24-.94,1.15,1.15,0,0,1,.61-.5,2.44,2.44,0,0,0-.29-1.18.82.82,0,0,0-.75-.34,1.78,1.78,0,0,0-1.38.8,8.17,8.17,0,0,0-1.15,2,15.6,15.6,0,0,0-.79,2.45,10.24,10.24,0,0,0-.29,2.3,8.12,8.12,0,0,0,.06,1.1,2,2,0,0,0,.23.67.93.93,0,0,0,.44.34A2.08,2.08,0,0,0,21.33-82.26Z" transform="translate(0 100)"/><path class="cls-1" d="M46.2-93.47l-2,9.25a3.46,3.46,0,0,0-.11.87,1,1,0,0,0,.27.79,1.3,1.3,0,0,0,.84.22A1.69,1.69,0,0,0,46.57-83a4.71,4.71,0,0,0,.86-1.72h1.14a9.61,9.61,0,0,1-1.29,2.63,6.18,6.18,0,0,1-1.47,1.47,3.93,3.93,0,0,1-1.46.64,6.81,6.81,0,0,1-1.25.14,2.67,2.67,0,0,1-1.81-.6,2.76,2.76,0,0,1-.86-1.77,6.4,6.4,0,0,1-.7.92,5.44,5.44,0,0,1-.91.82,4.48,4.48,0,0,1-1.11.57,3.75,3.75,0,0,1-1.33.22A4.07,4.07,0,0,1,35-79.93a3.27,3.27,0,0,1-1.15-.75A3.54,3.54,0,0,1,33.06-82a6.08,6.08,0,0,1-.3-2,11,11,0,0,1,.19-2,13.88,13.88,0,0,1,.57-2.12,11.86,11.86,0,0,1,1-2A7.7,7.7,0,0,1,35.84-92a6.49,6.49,0,0,1,1.75-1.2,5.09,5.09,0,0,1,2.16-.45,5.91,5.91,0,0,1,.7,0,2,2,0,0,1,.68.19,1.49,1.49,0,0,1,.54.43,1.61,1.61,0,0,1,.32.75l.27-1.28Zm-5.57,1.55a2.08,2.08,0,0,0-1.58.8,7.38,7.38,0,0,0-1.2,2,12.94,12.94,0,0,0-.76,2.45,11.18,11.18,0,0,0-.27,2.25A3.8,3.8,0,0,0,37-83.25a1.45,1.45,0,0,0,.35.62.84.84,0,0,0,.43.25,2.29,2.29,0,0,0,.43,0,1.6,1.6,0,0,0,.64-.15,2.58,2.58,0,0,0,.66-.45,2.75,2.75,0,0,0,.57-.75,3.82,3.82,0,0,0,.38-1l1.31-6.14a.75.75,0,0,0-.07-.29,1.28,1.28,0,0,0-.19-.34,1.29,1.29,0,0,0-.32-.29A1.07,1.07,0,0,0,40.63-91.92Z" transform="translate(0 100)"/><path class="cls-1" d="M66.56-98.91,63.43-84.22a3.46,3.46,0,0,0-.11.87,1,1,0,0,0,.27.79,1.3,1.3,0,0,0,.84.22A1.69,1.69,0,0,0,65.78-83a4.71,4.71,0,0,0,.86-1.72h1.14a9.61,9.61,0,0,1-1.29,2.63A6.18,6.18,0,0,1,65-80.64a3.86,3.86,0,0,1-1.46.64,6.81,6.81,0,0,1-1.25.14,2.69,2.69,0,0,1-1.81-.6,2.71,2.71,0,0,1-.85-1.77,7.32,7.32,0,0,1-.71.92,5.44,5.44,0,0,1-.91.82,4.48,4.48,0,0,1-1.11.57,3.71,3.71,0,0,1-1.33.22,4.07,4.07,0,0,1-1.35-.23,3.27,3.27,0,0,1-1.15-.75A3.54,3.54,0,0,1,52.27-82a6.08,6.08,0,0,1-.3-2,12,12,0,0,1,.19-2,13.88,13.88,0,0,1,.57-2.12,12.66,12.66,0,0,1,1-2A7.7,7.7,0,0,1,55.05-92a6.49,6.49,0,0,1,1.75-1.2A5.11,5.11,0,0,1,59-93.61a5.89,5.89,0,0,1,.69,0,2,2,0,0,1,.69.19,1.48,1.48,0,0,1,.56.43,1.54,1.54,0,0,1,.29.78l1.33-6.21Zm-6.72,7a2.09,2.09,0,0,0-1.58.8,7.38,7.38,0,0,0-1.2,2,12.94,12.94,0,0,0-.76,2.45A11.18,11.18,0,0,0,56-84.46a3.8,3.8,0,0,0,.15,1.21,1.56,1.56,0,0,0,.35.62.83.83,0,0,0,.44.25,2.12,2.12,0,0,0,.42,0,1.6,1.6,0,0,0,.64-.15,2.42,2.42,0,0,0,.66-.45,2.75,2.75,0,0,0,.57-.75,4.17,4.17,0,0,0,.39-1L61-90.86a1.49,1.49,0,0,0-.23-.65A.92.92,0,0,0,59.84-91.92Z" transform="translate(0 100)"/><path class="cls-1" d="M77.3-93.47l-2,9.25a3.46,3.46,0,0,0-.11.87,1,1,0,0,0,.27.79,1.3,1.3,0,0,0,.84.22A2.06,2.06,0,0,0,77.82-83a3.8,3.8,0,0,0,1-1.72h1.14a9.28,9.28,0,0,1-1.33,2.66,6.69,6.69,0,0,1-1.55,1.52,4.46,4.46,0,0,1-1.54.7,6.83,6.83,0,0,1-1.29.16,2.93,2.93,0,0,1-2.07-.78A3.23,3.23,0,0,1,71.32-83a8.57,8.57,0,0,1,.22-1.77l1.85-8.73Zm-3.37-3.62a2.12,2.12,0,0,1,.63-1.54,2.05,2.05,0,0,1,1.52-.64,2.13,2.13,0,0,1,1.54.64,2.13,2.13,0,0,1,.64,1.54,2.09,2.09,0,0,1-.64,1.53,2.15,2.15,0,0,1-1.54.62,2.07,2.07,0,0,1-1.52-.62A2.08,2.08,0,0,1,73.93-97.09Z" transform="translate(0 100)"/><path class="cls-1" d="M91.54-89.71c0-.93-.33-1.39-1-1.39a1.56,1.56,0,0,0-1.28.73,5.39,5.39,0,0,0-.85,1.77l-1.85,8.74H82.67l2.88-13.61h3.92L89.17-92a4.13,4.13,0,0,1,1.71-1.26,5,5,0,0,1,1.47-.27,3.28,3.28,0,0,1,2.17.72,2.93,2.93,0,0,1,.85,2.36,9.61,9.61,0,0,1-.2,1.81q-.21,1-.45,2l-.45,1.83a6.14,6.14,0,0,0-.2,1.43,1.34,1.34,0,0,0,.23.83,1,1,0,0,0,.86.31,1.62,1.62,0,0,0,.77-.18,1.75,1.75,0,0,0,.6-.49,4,4,0,0,0,.48-.75,10.53,10.53,0,0,0,.43-1h1.14A12.27,12.27,0,0,1,97.36-82,6.35,6.35,0,0,1,96-80.54a4,4,0,0,1-1.32.68,5.28,5.28,0,0,1-1.19.16A3.93,3.93,0,0,1,92-80a2.59,2.59,0,0,1-1-.69,2.52,2.52,0,0,1-.55-1,4.28,4.28,0,0,1-.16-1.13,8,8,0,0,1,.19-1.61c.13-.63.27-1.26.42-1.9s.3-1.25.43-1.86A8.4,8.4,0,0,0,91.54-89.71Z" transform="translate(0 100)"/><path class="cls-1" d="M115.4-93.47l-3.35,15.78a7.33,7.33,0,0,1-.85,2.37,5,5,0,0,1-1.23,1.4,3.71,3.71,0,0,1-1.4.68,5.94,5.94,0,0,1-1.42.18,3.55,3.55,0,0,1-2.14-.65,2.3,2.3,0,0,1-.9-2,2.73,2.73,0,0,1,.41-1.5,4.49,4.49,0,0,1,1-1.14,6.94,6.94,0,0,1,1.43-.83c.53-.23,1-.42,1.55-.59l.52-2.31a6.27,6.27,0,0,1-1.43,1.28,3.64,3.64,0,0,1-2,.54,3.74,3.74,0,0,1-1.34-.23,3.06,3.06,0,0,1-1.16-.74,3.76,3.76,0,0,1-.82-1.35,6.1,6.1,0,0,1-.3-2.06,9.67,9.67,0,0,1,.2-1.86,11,11,0,0,1,.57-2,11.15,11.15,0,0,1,1-1.93A7.15,7.15,0,0,1,105.06-92a6.4,6.4,0,0,1,1.75-1.13,5.42,5.42,0,0,1,2.17-.43,5.6,5.6,0,0,1,.69,0,1.91,1.91,0,0,1,.68.19,1.72,1.72,0,0,1,.55.42,1.62,1.62,0,0,1,.31.76l.27-1.28Zm-9.8,17.39a1,1,0,0,0,.24.6.81.81,0,0,0,.69.3,1.17,1.17,0,0,0,.87-.6,5,5,0,0,0,.71-1.83l.16-.78a9.79,9.79,0,0,0-1,.42,4.35,4.35,0,0,0-.85.51,2.49,2.49,0,0,0-.59.63A1.43,1.43,0,0,0,105.6-76.08Zm4.22-15.84a2.13,2.13,0,0,0-1.58.75,6.54,6.54,0,0,0-1.19,1.81,11.79,11.79,0,0,0-.77,2.26A9.65,9.65,0,0,0,106-85a3.76,3.76,0,0,0,.15,1.21,1.61,1.61,0,0,0,.36.63.72.72,0,0,0,.43.24,2.27,2.27,0,0,0,.42.05A1.85,1.85,0,0,0,108-83a2.41,2.41,0,0,0,.69-.42,3.11,3.11,0,0,0,.63-.74,3.24,3.24,0,0,0,.42-1.1l1.2-5.63a1.78,1.78,0,0,0-.26-.63A.94.94,0,0,0,109.82-91.92Z" transform="translate(0 100)"/></g></g></svg>