<svg xmlns="http://www.w3.org/2000/svg" viewBox="0 0 308.95 325.57"><defs><style>.cls-1{fill:#cb896f;}.cls-2{fill:#f2a0b6;}.cls-12,.cls-13,.cls-2,.cls-6,.cls-8{stroke:#4d3224;stroke-linecap:round;stroke-linejoin:round;}.cls-2,.cls-6{stroke-width:1.76px;}.cls-3{fill:#fff;}.cls-4{fill:#e8b96b;}.cls-5{fill:#f3e4a4;}.cls-12,.cls-6{fill:none;}.cls-7,.cls-8{fill:#7c5fc3;}.cls-8{stroke-width:2px;}.cls-9{fill:#a16ab9;}.cls-10{fill:#cb8fe2;}.cls-11{fill:#5f8b53;}.cls-12,.cls-13{stroke-width:1.72px;}.cls-13{fill:#98c858;}.cls-14{fill:#b9a4ba;}.cls-15{fill:#a78fa9;}</style></defs><title>資產 252</title><g id="圖層_2" data-name="圖層 2"><g id="技能"><path class="cls-1" d="M308.86,90c-4.44.6-8.85,1.3-13.09,1.78-6.13.7-11.44,3.58-17.34,4.23-6.12.68-9-1.34-15.06-2.23-11.55-1.7-26.47.86-37.93,1.38-12.39.57-25.44,1-37.69.38s-24.23-1.27-36.37-1.34c-8.86-.06-24.49-2.09-32.52,1.21,1-.43,20.29,20.48,22.41,22.3,8.41,7.19,17.28,11.46,29.44,13.77,4.48.85,9.18.54,13.29,2.36a50.77,50.77,0,0,1,12.37,8.42,62.14,62.14,0,0,1,10.82,12.3,60.44,60.44,0,0,1,6.22,12,6.2,6.2,0,0,0,1.6,2.74,5.84,5.84,0,0,0,2.91,1l18.66,2.79a5.63,5.63,0,0,0,2.94-.08c1.31-.51,2-1.88,2.66-3.13,6-11.93,14.56-6.26,25.44-14.16,12.18-8.85,10.56,3.26,24.34-1.13.79-.26,16.1-13.05,16.9-13.27"/><path class="cls-1" d="M308.86,90c-4.44.6-8.85,1.3-13.09,1.78-6.13.7-11.44,3.58-17.34,4.23-6.12.68-9-1.34-15.06-2.23-11.55-1.7-26.47.86-37.93,1.38-12.39.57-25.44,1-37.69.38s-24.23-1.27-36.37-1.34c-8.86-.06-24.49-2.09-32.52,1.21,1-.43,20.29,20.48,22.41,22.3,8.41,7.19,17.28,11.46,29.44,13.77,4.48.85,9.18.54,13.29,2.36a50.77,50.77,0,0,1,12.37,8.42,62.14,62.14,0,0,1,10.82,12.3,60.44,60.44,0,0,1,6.22,12,6.2,6.2,0,0,0,1.6,2.74,5.84,5.84,0,0,0,2.91,1l18.66,2.79a5.63,5.63,0,0,0,2.94-.08c1.31-.51,2-1.88,2.66-3.13,6-11.93,14.56-6.26,25.44-14.16,12.18-8.85,10.56,3.26,24.34-1.13.79-.26,16.1-13.05,16.9-13.27"/><path class="cls-2" d="M251.05,48.34c-1.35-.66-2.26-1.22-2.65-2.76A3,3,0,0,1,250.21,42c3.16-.92,5.78,2.46,6.43,5.12a17.34,17.34,0,0,1,.25,6.46c1.83-3.21,3.84-6.3,5.06-9.83a16.49,16.49,0,0,0,.77-3.29,2.53,2.53,0,0,0-1.38-1.81c-.94-.51-2-.78-3-1.24a12.29,12.29,0,0,1-5.16-4.58c-1.73-2.76-2.53-7.09,0-9.69,2.84-2.9,4.49,3,4.85,4.83a31,31,0,0,0,1.31,5.64,5,5,0,0,0,3.5,3.13,57.79,57.79,0,0,0-.7-6.3,55.38,55.38,0,0,1-.84-11.94,17.73,17.73,0,0,1-.4-2.82,23.85,23.85,0,0,1,.36-8c.73-2.79,3.27-8.28,7-6.28,4.12,2.19,1.19,6.59-.74,9.15a19.61,19.61,0,0,0-3.06,6.07A28.81,28.81,0,0,0,263.29,22c.1,1.65.25,3.29.43,4.94,1.42-.12,2.23-1.46,3-2.69a24.57,24.57,0,0,0,2.42-5.71c.42-1.4.6-2.86,1-4.27s.95-3.73,2.48-4.46c1.82-.87,3.51,1.22,4,2.73.85,2.4-.39,5.1-1.6,7.13a19.41,19.41,0,0,1-5.11,5.42c-2,1.51-4,2.95-5.26,5.08a34.47,34.47,0,0,1,.61,10,20.63,20.63,0,0,1-1.52,7.19,19,19,0,0,1,1.81-1.54,41.87,41.87,0,0,1,5.83-3.5c.23-.31.5-.61.74-.91a6.21,6.21,0,0,0,1.24-3.52,4.79,4.79,0,0,0-.94-3.55,10.19,10.19,0,0,1-1.76-2.79c-.91-2.64,1.11-5,3.79-4.05,3.28,1.17,3,5.48,2.56,8.21a13.44,13.44,0,0,1-1.46,4.24,29.29,29.29,0,0,0,8.25-7.7c-.31-.59-.44-1.38-.68-1.93a29.5,29.5,0,0,0-1.94-3.42,10.24,10.24,0,0,1-1.62-5.12c0-2.37,0-6.08,1.76-7.9a2.12,2.12,0,0,1,2.89-.07c1.3.91,1.42,2.52,1.33,4-.11,1.74-.62,3.41-.89,5.12a11.12,11.12,0,0,0,1,6.2c.11-.24.23-.47.34-.71,1.52-3.4,1.38-6.94,1.31-10.58-.05-2.18.26-4.41,1.87-6,1.1-1.11,2.62-1.34,3.7-.1,1.58,1.83,1.17,5.11.6,7.21a23.16,23.16,0,0,1-3.17,6.69,39.24,39.24,0,0,1-4.51,7.78c-.16.24-.33.46-.5.69a13.22,13.22,0,0,0,1.54-.19,9.8,9.8,0,0,0,1.56-1,30.79,30.79,0,0,0,4.81-4.6c2.13-2.39,4-5.59,7.43-6.17,1.77-.3,2.58,1.3,2.48,2.84a7.31,7.31,0,0,1-3.79,5.7,42.52,42.52,0,0,1-6.82,3.14c-2.59,1.07-5.44,2.25-8.31,2l-.23,0a30,30,0,0,1-2.12,2.24l.06,0c2.8.23,9.86-1.51,9,2.65-.95,4.45-8.14,1.1-10.45-1.38a39.72,39.72,0,0,1-4.56,3.4c-1.64,1-3.32,2-5,3l.87-.1a18.47,18.47,0,0,1,4.07-.08c2.49.25,4.54,1.8,4.07,4.51-.51,2.92-3.53,1.76-5.2.72-1.07-.66-2.05-1.47-3.09-2.2-1.54-1.09-3.59-.31-5.28-.07h0c-.67.44-1.35.89-2,1.37s-1.62,1.25-1.65,1.29c-.16.25-2,1.66-2.46,2.13-.56.8-1.11,1.6-1.64,2.41a9.11,9.11,0,0,1,1.55-1.23,10.26,10.26,0,0,1,4.73-1.05,63.48,63.48,0,0,1,10.1.88c1.43.17,2.87.33,4.31.42l0-.06a5,5,0,0,1,.88-1.4c.41-.84.92-1.65,1.39-2.45A22.54,22.54,0,0,1,285,46.07c2.29-2.25,6.24-4.06,9.26-2.06,1.33.89,1,2.51.19,3.61-1,1.4-3.44,1.16-4.89,1.4a12.57,12.57,0,0,0-6.06,2.91,25,25,0,0,0-2.41,2.42,3.05,3.05,0,0,1-.36.36,31.8,31.8,0,0,0,4.68-.17,17.29,17.29,0,0,0,8.95-3.5c2.91-2.46,5.65-10.62,10.75-7.17,3.82,2.58-1.54,8.2-3.85,9.72a19.15,19.15,0,0,1-5.68,2.2A59.18,59.18,0,0,1,289,57.13a54.73,54.73,0,0,1-10,.17l.23.31c1.06,1,2.88.89,4.35,1.31,1.76.49,2.2,2.08.59,3.15-1.77,1.18-3.5.42-4.83-1a27.56,27.56,0,0,1-1.8-2.35,5,5,0,0,1-1-1.57c-.86-.06-1.6-.13-2.13-.19-1.93-.21-4.3-.58-6.73-.75a15.18,15.18,0,0,1,1.57.52c2.54,1,5.48,3.47,4.59,6.56a4.33,4.33,0,0,1-3.16,2.95c-1.79.36-3-.79-3.57-2.39s-.94-3.51-2.12-5a5.82,5.82,0,0,0-2.08-1.48c-.41-.19-.83-.37-1.25-.53a2.08,2.08,0,0,1-.53-.32,8.51,8.51,0,0,0-4.39,2.39,12.92,12.92,0,0,0-.87,2.92c-.25,7.11,3.56,9.16,3.85,10.48.12.54-2.89-.08-3.17-.3-2.81-2.38-3.13-9.25-2.83-10.88a15.61,15.61,0,0,1,.44-1.76,14.38,14.38,0,0,1,0-2.27,15,15,0,0,0,0-3.21C253.94,51.71,253.11,49.36,251.05,48.34Z"/><path class="cls-2" d="M194,44.14c2.27-2.45,6.62,1,8.55,2.39a12.48,12.48,0,0,0,6.79,2.36,12.89,12.89,0,0,0,3.69-.65c.82-.23,1.79-.53,2.13-1.29-4.84.07-9.57-3.13-13-6.22a24.39,24.39,0,0,1-5.73-7.6c-1.13-2.36-2-5.65-.94-8.17a2.73,2.73,0,0,1,3.88-1.27c2.17,1,3.18,3.73,4,5.83.95,2.54,1.6,5.18,2.76,7.64a11,11,0,0,0,5,5.15c.62-1.72-.21-3.9-.84-5.46a30,30,0,0,0-3-5.47c-1.35-2-4.68-6.25-2.16-8.44,1.42-1.24,3.4-.42,4.5.74a14,14,0,0,1,2.73,5.73c.81,2.85.5,5.78.71,8.7a7.87,7.87,0,0,0,1.58,4.51,2,2,0,0,0,.19.22c3.11,2.77,7.38,2.48,11.56,2.55a29.78,29.78,0,0,1,6.12.68c-.38-.38-.75-.75-1.12-1.08a15.42,15.42,0,0,0-6.67-3.66c-3.2-.8-8.89-.39-10-4.47a3.07,3.07,0,0,1,1.26-3.55c1-.48,2.21.29,3,.78,1.28.82,2.42,1.85,3.64,2.74a12.36,12.36,0,0,0,1.67,1.1c-2.62-3.22-2.51-8.62-5.88-11.54-2.23-1.93-4.68-3.65-6.48-6a12.83,12.83,0,0,1-2.55-8.14c.09-1.54,1.09-3.66,2.93-3.48,2.31.22,3,3.12,3.45,4.95.81,3.5.73,7.41,3.19,10.29.27.32.84.86,1.31.7s.6-1.43.66-1.87v0c-.3-3.24-.86-6.46-.15-9.72a8.78,8.78,0,0,1,3-5c1.79-1.43,3.73-.44,4.73,1.36,1.13,2-.79,4.95-1.6,6.75a41.54,41.54,0,0,0-3.24,8.3c-.92,4.19.55,8.31,2.68,11.91.45-.56.35-1.86.37-2.41.07-1.87-.07-3.75-.07-5.62a8.75,8.75,0,0,1,.67-4.33,2.7,2.7,0,0,1,3.73-.73c1.45,1.06,1.49,3.15,1.41,4.78a13,13,0,0,1-1.49,5.35c-1,2-2.92,4.2-1.85,6.58.82,1.8,2.86,3.37,4.33,4.58a23.88,23.88,0,0,0,6.25,4,2.3,2.3,0,0,0,.38-1.71,4.25,4.25,0,0,0-1.89-3.5c-1.76-1.18-6.27-3.39-4-6.07,2.69-3.17,5.49,1.31,6.45,5a30.12,30.12,0,0,1,1.67-4,23.14,23.14,0,0,0,1.13-2.92c0-.14,0-.27,0-.41-.83-2.19-3.94-2.7-5.58-4.15-2.53-2.22-3.64-5.77-4.38-8.92-.59-2.5-2.19-7.88.92-9.34,1.78-.84,3.51.68,4.22,2.18.92,1.95.85,4.34.92,6.45a21.33,21.33,0,0,0,1.1,6.43,10.9,10.9,0,0,0,1.68,3.18A4.94,4.94,0,0,0,243.66,32c.13-.8.27-1.6.34-2.37a16.94,16.94,0,0,0-.82-8.27c-.85-2.06-2.4-3.82-3.1-5.93a10.79,10.79,0,0,1-.44-4.15,4,4,0,0,1,1.26-2.94c1.07-.84,2.45,0,3.31.69,1.37,1.17,1.47,2.91,1.44,4.59a16.14,16.14,0,0,0,.07,2.95,2.77,2.77,0,0,0,1.55,2,6.87,6.87,0,0,0,.86-1.18c.14-.24.27-.5.4-.77.06-.63.08-1.27.1-1.86,0-1.84,0-3.69.08-5.52.14-2.16,1-7.2,4.22-5.9,1.19.48,1.65,2,1.92,3.1a9.56,9.56,0,0,1-.25,4.92A20.69,20.69,0,0,1,251.81,17c-1.11,1.65-2.7,3-3.86,4.55-.41,1.69-.86,3.37-1.16,5.1-.35,2.1-.59,4.21-1,6.3a24.1,24.1,0,0,1-.91,3.51A13,13,0,0,1,246.74,35c1.37-.93,3.66-1.89,4.8-.13a3.32,3.32,0,0,1,.31,2.95c-.45,1-1.75,1.18-2.72,1.17-1.24,0-2.47-.28-3.71-.17a3.66,3.66,0,0,0-2.28,1.74,14.73,14.73,0,0,0-1.26,3.85,6.48,6.48,0,0,0,.06,2.37,6.74,6.74,0,0,1,.74-1.65,2.93,2.93,0,0,1,1.57-1.29,2.08,2.08,0,0,1,2.07.67,1,1,0,0,1-.09,1.46c-.64.57-1.29,1.12-1.88,1.74s-.82,1.28-1.48,1.59a23,23,0,0,0,1.32,2.18c.68,1,1.34,2,2,3-.14-2.49.65-5.29,3.11-5,1.81.24,3.23,2,1.91,3.6A14.15,14.15,0,0,1,249,55c-.92.77-.8,2.12-.91,3.25a23.29,23.29,0,0,1,1.37,4.16c.34,1.56.72,10.88-.52,12.07-.19.18-2.24,0-2.22-1,.16-6,1.63-17.42-9.24-22.85l-1.09-.51a3.51,3.51,0,0,0-2.67,1.44c-.62.67-1.16,1.4-1.84,2-1.35,1.24-3.08,1-3.35-1s1.69-2.83,3.2-3.23c.45-.11,1-.25,1.67-.35a25.75,25.75,0,0,0-14.2-.46c-6.17,1.73-12.05,6.8-18.84,4.92a13.05,13.05,0,0,1-6-3.69C193,48.29,192.44,45.77,194,44.14Z"/><path class="cls-2" d="M226.37,55.77c1.27-1.46,3.69-1.39,5.44-1.25a13.06,13.06,0,0,1,6,2c3.14,2,5.39,5.66,6.52,9.24.15.31,1.52,3.27.45,8a.82.82,0,0,1-1.61-.3c.35-7.53-2.68-10.58-5.09-11.66-2.11-.94-4.65-.16-6.83.07-1.81.19-3.66,0-4.92-1.45A3.63,3.63,0,0,1,226.37,55.77Z"/><path class="cls-3" d="M267.23,1.14a1.2,1.2,0,0,1,1.18-1,.79.79,0,0,1,.69,1.1s-.05.17,0,.07h0a1.87,1.87,0,0,1-.13.4.92.92,0,0,1-1.15.56A.93.93,0,0,1,267.23,1.14Z"/><path class="cls-3" d="M269.11,2.82a1.32,1.32,0,0,1,.57-.5.72.72,0,0,1,1,.69,1.19,1.19,0,0,1-.65,1.1.67.67,0,0,1-1-.43l0-.09v0A.89.89,0,0,1,269.11,2.82Z"/><path class="cls-3" d="M266.27,3.49a1.26,1.26,0,0,1,.58-.33.59.59,0,0,1,.78.59c0-.25,0,.28,0,.28-.08.18-.09.2-.17.36s-.1.13-.15.2a.68.68,0,0,1-.28.25c-.2,0-.25.07-.13.06a.62.62,0,0,1-.88-.44A1,1,0,0,1,266.27,3.49Z"/><path class="cls-3" d="M264.92.87a.79.79,0,0,1,.83.41.75.75,0,0,1-.34,1h0l-.07.11a.61.61,0,0,1-.83.14A.92.92,0,0,1,264.92.87Z"/><path class="cls-3" d="M265.33,2.42l0,0C265.31,2.45,265.31,2.45,265.33,2.42Z"/><path class="cls-3" d="M263,4.79a.73.73,0,0,1,.82-.28.71.71,0,0,1,.44.9,1.56,1.56,0,0,0-.16.38.74.74,0,0,1-.56.64.72.72,0,0,1-.83-.55A1.21,1.21,0,0,1,263,4.79Z"/><path class="cls-3" d="M263.68,8.46a1.56,1.56,0,0,1,.55-.76.56.56,0,0,1,.62-.17.57.57,0,0,1,.36.71,1.45,1.45,0,0,1-.23.86A.73.73,0,0,1,263.68,8.46Z"/><path class="cls-3" d="M267.72,6.88c.41-.65,1.34,0,1,.65a4.32,4.32,0,0,1-.34.68.5.5,0,0,1-.9-.18A1.62,1.62,0,0,1,267.72,6.88Z"/><path class="cls-3" d="M263.12,12.1c.39-.64,1.5-.12,1.19.59a.47.47,0,0,0,0,.22,1.13,1.13,0,0,1-.19.62.66.66,0,0,1-1.19-.23A1.63,1.63,0,0,1,263.12,12.1Z"/><path class="cls-3" d="M243.49,11c0-.15,0-.3.09-.45l0-.07c0-.1.06-.35,0-.21,0-.15.05-.3.07-.37a.54.54,0,0,1,.05-.21,0,0,0,0,1,0,0,.38.38,0,0,1,.63-.32l.14,0a.83.83,0,0,1,.21.16,1.68,1.68,0,0,1,.3.45,1.73,1.73,0,0,1,.05,1.34.82.82,0,0,1-1.6-.33Z"/><path class="cls-3" d="M241.09,7.73s0,0,0-.06a.64.64,0,0,1,1.2-.25h0a1.57,1.57,0,0,1,.29,1.67.81.81,0,0,1-.58.5.76.76,0,0,1-.83-.41A2,2,0,0,1,241.09,7.73Z"/><path class="cls-3" d="M238.94,10.56a.74.74,0,0,1,.6-.69.77.77,0,0,1,.88.59,2.17,2.17,0,0,1-.06,1.66.73.73,0,0,1-1.14.08C238.79,11.75,239,11.12,238.94,10.56Z"/><path class="cls-3" d="M241.37,14.16a.72.72,0,0,1,1.41-.29,2,2,0,0,1,.15.84.73.73,0,0,1-1.37.27A2.34,2.34,0,0,1,241.37,14.16Z"/><path class="cls-3" d="M236.41,13.69a.72.72,0,0,1,1.22-.24,2,2,0,0,1,.39,1.7.79.79,0,0,1-1.32.27A2.07,2.07,0,0,1,236.41,13.69Z"/><path class="cls-3" d="M233.92,13.69a4.29,4.29,0,0,1,.13-.6.45.45,0,0,0,0-.08c0-.11.07-.38.05-.24a.73.73,0,0,1,1.38-.27,2.21,2.21,0,0,1,.14,1.54A.89.89,0,0,1,233.92,13.69Z"/><path class="cls-3" d="M231.79,15.11a.74.74,0,0,1,1.39-.28c.23.64.7,1.55.07,2.11a.72.72,0,0,1-.72.14C231.74,16.81,231.82,15.79,231.79,15.11Z"/><path class="cls-3" d="M234.67,18.14a.77.77,0,0,1,1.5-.3,4.35,4.35,0,0,1,.25,1.33.78.78,0,0,1-1.46.29A4.22,4.22,0,0,1,234.67,18.14Z"/><path class="cls-3" d="M237.28,20.1a.6.6,0,0,1,1.12-.22,1.75,1.75,0,0,1,.28,1.41.66.66,0,0,1-1.1.22A1.74,1.74,0,0,1,237.28,20.1Z"/><path class="cls-3" d="M236.1,23.45a3.43,3.43,0,0,1,.06.34.65.65,0,0,1-1.27.26c0-.12,0-.23-.07-.34A.65.65,0,0,1,236.1,23.45Z"/><path class="cls-3" d="M227.41,10.46a2.58,2.58,0,0,1,.24-.82,2,2,0,0,1,.22-.41A.87.87,0,0,1,228,9c.17-.13.21-.15.1-.07a.66.66,0,0,1,1,.19,1.74,1.74,0,0,1-.37,2A.83.83,0,0,1,227.41,10.46Z"/><path class="cls-3" d="M225.23,8.36a1.74,1.74,0,0,1,.48-1,2.11,2.11,0,0,1,.74-.65.68.68,0,0,1,1,.65,1.9,1.9,0,0,1-1.2,1.86A.83.83,0,0,1,225.23,8.36Z"/><path class="cls-3" d="M223.71,12.27a.65.65,0,0,1,1.16.23,1.68,1.68,0,0,1-.34,1.6.8.8,0,0,1-1.3-.44A1.59,1.59,0,0,1,223.71,12.27Z"/><path class="cls-3" d="M222.21,8.82a2.17,2.17,0,0,1,.44-.71.74.74,0,0,1,1.2.4,1.57,1.57,0,0,1-.4,1.5.79.79,0,0,1-1.23-.23A1.23,1.23,0,0,1,222.21,8.82Z"/><path class="cls-3" d="M226,14.62v-.11a.61.61,0,0,1,.24-.47.46.46,0,0,1,.61-.12.64.64,0,0,1,.4.33l0,.11a.71.71,0,0,1-.48,1A.69.69,0,0,1,226,14.62Z"/><path class="cls-3" d="M220.4,14.73a.74.74,0,0,1,1-.21,1.26,1.26,0,0,1,.43,1.61.68.68,0,0,1-.94.19.8.8,0,0,1-.34-.41,2.41,2.41,0,0,1-.08-.25A.73.73,0,0,1,220.4,14.73Z"/><path class="cls-3" d="M222.72,18.22c-.13-.79,1.1-1,1.21-.25a2.86,2.86,0,0,1-.07,1.13.56.56,0,0,1-1,.07A3.87,3.87,0,0,1,222.72,18.22Z"/><path class="cls-3" d="M301.34,24.36a1.43,1.43,0,0,1,.44-.91,2.37,2.37,0,0,0,.27-.28c.06-.05.21-.12.24-.16a.68.68,0,0,1,1.13.75s0,.21-.07.28a2.64,2.64,0,0,1-.23.44,1.35,1.35,0,0,1-.91.65A.74.74,0,0,1,301.34,24.36Z"/><path class="cls-3" d="M300.17,23.82h0Z"/><path class="cls-3" d="M299.89,22.34c.57,0,.81.7.55,1.12a2.88,2.88,0,0,1-.26.35c-.06.06-.2.22-.23.24.19-.17-.17.19-.21.23a1.13,1.13,0,0,1-.52.27.81.81,0,0,1-1-.63C298.09,23,299.07,22.37,299.89,22.34Z"/><path class="cls-3" d="M299.06,26.16a.77.77,0,0,1,.3,1.51l-.06,0,0,0a1.51,1.51,0,0,1-.26.18.72.72,0,0,1-1-.5C297.81,26.69,298.48,26.28,299.06,26.16Z"/><path class="cls-3" d="M300.52,28.13a1.67,1.67,0,0,1,.5-.33l.15-.07c-.13.06.47-.18.18-.05.43-.2,1.1.11,1,.66a1.49,1.49,0,0,1-.48.88,1.11,1.11,0,0,1-1.35.26.76.76,0,0,1-.32-.51A1,1,0,0,1,300.52,28.13Z"/><path class="cls-3" d="M296.41,30.27a1.11,1.11,0,0,1,.3-.31,1.38,1.38,0,0,1,.25-.17.28.28,0,0,0-.09.1.86.86,0,0,1,1.17-.24.84.84,0,0,1,.23,1.17,2.38,2.38,0,0,1-.82.62A.81.81,0,0,1,296.41,30.27Z"/><path class="cls-3" d="M295,26a2.59,2.59,0,0,1,.5-.44.43.43,0,0,1,.69.45,2.85,2.85,0,0,1-.22.64C295.54,27.32,294.52,26.65,295,26Z"/><path class="cls-3" d="M275.93,28.15h0l0,0Z"/><path class="cls-3" d="M274.27,28.49a.88.88,0,0,1,1.65-.35l.16.23a2.1,2.1,0,0,0,.13.26,1.71,1.71,0,0,1,.24.86,1,1,0,0,1-1.48.73A1.94,1.94,0,0,1,274.27,28.49Z"/><path class="cls-3" d="M272,27.89a.59.59,0,0,1,1.11-.22,1.06,1.06,0,0,1,.17,1,.64.64,0,0,1-1.06.22A1.08,1.08,0,0,1,272,27.89Z"/><path class="cls-3" d="M273.24,29.91c.61-.17,1,.46,1.12,1a.8.8,0,0,1-1.57.31C272.7,30.72,272.69,30.06,273.24,29.91Z"/><path class="cls-3" d="M270.37,29.52a.59.59,0,0,1,1-.2,1.16,1.16,0,0,1,.27,1.45.68.68,0,0,1-.94.19A1.17,1.17,0,0,1,270.37,29.52Z"/><path class="cls-3" d="M271.4,32.9a.48.48,0,0,1,.91-.18,1.68,1.68,0,0,1,.41,1.38.6.6,0,0,1-.89.3C271.3,34.13,271.32,33.4,271.4,32.9Z"/><path class="cls-3" d="M275.82,32.33a.82.82,0,0,1,1.2-.41,1.29,1.29,0,0,1,.47,1.62.91.91,0,0,1-1.75-.12A1.86,1.86,0,0,1,275.82,32.33Z"/><path class="cls-3" d="M273.83,34.21a.71.71,0,0,1,1.34-.27,1.93,1.93,0,0,1,.2,1.41.77.77,0,0,1-.78.52.8.8,0,0,1-.7-.62A3,3,0,0,1,273.83,34.21Z"/><path class="cls-3" d="M288.77,38.71a1.67,1.67,0,0,1,1.2-1A1,1,0,0,1,291,38.94a1.49,1.49,0,0,1-1.15,1A1,1,0,0,1,288.77,38.71Z"/><path class="cls-3" d="M290.39,41c0,.15,0,.11,0-.09a.69.69,0,0,1,.2-.3,1.62,1.62,0,0,1,.81-.41l.15,0h.28a.62.62,0,0,1,.54.82c0-.14,0-.11,0,.09a.94.94,0,0,1-.12.22,1.4,1.4,0,0,1-.48.39,1.16,1.16,0,0,1-.66.14.49.49,0,0,1-.26,0l-.27-.18A.57.57,0,0,1,290.39,41Z"/><path class="cls-3" d="M290.58,41.66l0,0Z"/><path class="cls-3" d="M288.56,41.42a1,1,0,0,1,.8.12.71.71,0,0,1,.08,1.12.88.88,0,0,1-1.28,0A.74.74,0,0,1,288.56,41.42Z"/><path class="cls-3" d="M287.21,40a.85.85,0,0,1,1.05.22.58.58,0,0,1-.45,1h-.36C286.86,41.17,286.61,40.22,287.21,40Z"/><path class="cls-3" d="M291.61,43.54a1.35,1.35,0,0,1,1.78-.42.71.71,0,0,1,.2,1,2.49,2.49,0,0,1-.91.65C291.94,45.18,291.18,44.2,291.61,43.54Z"/><path class="cls-3" d="M293.43,44.89a1.63,1.63,0,0,1,1.51-.59.87.87,0,0,1,.51,1.5,1.5,1.5,0,0,1-1.79.23A.81.81,0,0,1,293.43,44.89Z"/><path class="cls-3" d="M292.41,47.42a1.27,1.27,0,0,1,1.34.09.69.69,0,0,1-.24,1.25,2.18,2.18,0,0,1-.8.11A.78.78,0,0,1,292.41,47.42Z"/><path class="cls-3" d="M290.3,45.85a1,1,0,0,1,.69-.22.67.67,0,0,1,.25,1.26,1,1,0,0,1-.71.07A.66.66,0,0,1,290.3,45.85Z"/><path class="cls-3" d="M288.53,44.83a.81.81,0,0,1,.73-.41c.54,0,.63.66.34,1l-.18.2C288.94,46.1,288.18,45.37,288.53,44.83Z"/><path class="cls-3" d="M288.61,48.14a.15.15,0,0,1,.07,0,.52.52,0,0,1,.73.36c.08.36-.21.59-.54.61h-.07A.5.5,0,0,1,288.61,48.14Z"/><path class="cls-3" d="M278.22,47.86a1,1,0,0,1,.15-.44.87.87,0,0,1,.81-.39,1.38,1.38,0,0,1,1.14.8.69.69,0,0,1-.16.82,1.29,1.29,0,0,1-1.34.11A.92.92,0,0,1,278.22,47.86Z"/><path class="cls-3" d="M278.06,50.78a.87.87,0,0,1,.7-.79,1.15,1.15,0,0,1,.81.1l.21.07c-.32-.12.07,0,.18.05a.88.88,0,0,1,.59.89c0,.68-.63,1-1.23,1a1.42,1.42,0,0,1-.9-.43A1.13,1.13,0,0,1,278.06,50.78Z"/><path class="cls-3" d="M275.51,50.39a.75.75,0,0,1,1,.06,4.63,4.63,0,0,1,.5.58.67.67,0,0,1-.71,1.07,1.67,1.67,0,0,1-1-.83A.73.73,0,0,1,275.51,50.39Z"/><path class="cls-3" d="M276.49,48.7c.08-.27.35-.31.59-.26.58.07.53,1-.05.9a1.11,1.11,0,0,1-.36-.13A.44.44,0,0,1,276.49,48.7Z"/><path class="cls-3" d="M276.11,46.34a.86.86,0,0,1,1-.06.47.47,0,0,1-.19.92c-.31,0-.62.06-.82-.23A.45.45,0,0,1,276.11,46.34Z"/><path class="cls-3" d="M274.74,48.13a1.66,1.66,0,0,1,.21.16.4.4,0,1,1-.52.6.9.9,0,0,1-.21-.3A.36.36,0,0,1,274.74,48.13Z"/><path class="cls-3" d="M253.56,22.85a2.17,2.17,0,0,1,0-1.16.85.85,0,0,1,1.25-.43,1.82,1.82,0,0,1,.69.92,5.39,5.39,0,0,1,.22.68,1.41,1.41,0,0,1-.21,1,1,1,0,0,1-1.32.27,1.63,1.63,0,0,1-.47-.54A2.1,2.1,0,0,1,253.56,22.85Z"/><path class="cls-3" d="M251.53,24.91a1.18,1.18,0,0,1,.66-1.05.81.81,0,0,1,1.07.35,1.74,1.74,0,0,1,.19,1.4.91.91,0,0,1-1.14.56A1.27,1.27,0,0,1,251.53,24.91Z"/><path class="cls-3" d="M254.67,26.27l.18-.13,0,0,.09-.06a.74.74,0,0,1,.55,0l.08,0a.88.88,0,0,1,.36.24,1,1,0,0,1,.26.57.89.89,0,0,1-.69,1,.91.91,0,0,1-1-.69A1,1,0,0,1,254.67,26.27Z"/><path class="cls-3" d="M255.44,26.08Z"/><path class="cls-3" d="M254.8,26.18Z"/><path class="cls-3" d="M256.52,24a.7.7,0,0,1,1-.2,1.51,1.51,0,0,1,.49,1.63.78.78,0,0,1-1.31.26A1.5,1.5,0,0,1,256.52,24Z"/><path class="cls-3" d="M257.13,27.9a.75.75,0,0,1,.9-.06,1,1,0,0,1,.44,1.22.72.72,0,0,1-1.2.24,1,1,0,0,1-.22-.31c0-.06,0-.13-.07-.2s0-.1,0,0A.73.73,0,0,1,257.13,27.9Z"/><path class="cls-3" d="M256.66,30.77a1.67,1.67,0,0,1,.23,1.17.49.49,0,0,1-.83.17,5,5,0,0,1-.38-.85A.55.55,0,0,1,256.66,30.77Z"/><path class="cls-3" d="M253.45,28.56a1.63,1.63,0,0,1,.06.66.56.56,0,0,1-.86.42,1,1,0,0,1-.5-.82A.66.66,0,0,1,253.45,28.56Z"/><path class="cls-3" d="M252.71,1.86a.66.66,0,0,1,1.12.07,2.68,2.68,0,0,1,.11,1.87.92.92,0,0,1-.91.61.89.89,0,0,1-.82-.72A2.72,2.72,0,0,1,252.71,1.86Z"/><path class="cls-3" d="M249.24,3.71a.72.72,0,0,1,.56-.49.76.76,0,0,1,.81.4,1.71,1.71,0,0,1-.08,2,.81.81,0,0,1-.95.06C248.89,5.35,249.1,4.31,249.24,3.71Z"/><path class="cls-3" d="M253.94,6.38a1.54,1.54,0,0,1,.44-.89.63.63,0,0,1,1.12.23c0-.16.05.18.06.22a3.83,3.83,0,0,1,0,.47c0,.38,0,.72-.32,1a.7.7,0,0,1-.73.15A1,1,0,0,1,253.94,6.38Z"/><path class="cls-3" d="M251.23,7.08a5.5,5.5,0,0,1,.36-1.26.74.74,0,0,1,.55-.49.79.79,0,0,1,.81.39,1.87,1.87,0,0,1,0,1.71.92.92,0,0,1-.91.6A.89.89,0,0,1,251.23,7.08Z"/><path class="cls-3" d="M248.42,6.65l-.28.25,0-.06a.72.72,0,0,1,1.3.25h0a2.38,2.38,0,0,1,.15.75,1.18,1.18,0,0,1-.34,1,.68.68,0,0,1-.67.13,1.22,1.22,0,0,1-.73-1A1.28,1.28,0,0,1,248.42,6.65Z"/><path class="cls-3" d="M250.33,9.92a.7.7,0,0,1,1.17.78l-.07.12h0a.48.48,0,0,1-.07.26.68.68,0,0,1-1.23.08A1.18,1.18,0,0,1,250.33,9.92Z"/><path class="cls-3" d="M253.85,10.48a1.76,1.76,0,0,1,.07.33.61.61,0,0,1-1.19.24c0-.11,0-.22-.07-.33A.61.61,0,0,1,253.85,10.48Z"/><path class="cls-3" d="M250.78,12.77s0-.34,0-.25c-.11-.67,1-.84,1-.2a.77.77,0,0,1-.3.8A.43.43,0,0,1,250.78,12.77Z"/><path class="cls-3" d="M274.8,9.13a.65.65,0,0,1,.93.62c-.08.57.06,1.15-.3,1.65a.8.8,0,0,1-1.37-.09A1.75,1.75,0,0,1,274.8,9.13Z"/><path class="cls-3" d="M276.23,11.73c.52-.26,1.26.28,1,.86-.1.22-.17.47-.25.7,0,.05,0,.11,0,.17s-.07.29,0,.11a2.12,2.12,0,0,1-.25.69.84.84,0,0,1-.77.38.86.86,0,0,1-.77-.68A2,2,0,0,1,276.23,11.73Z"/><path class="cls-3" d="M270.55,11.08a1.46,1.46,0,0,1,.72-.84.72.72,0,0,1,.92,1c.05-.08,0,0,0,.07s0,.16,0,.16a3.4,3.4,0,0,1-.13.65c-.17.46-.91.72-1.24.25A1.43,1.43,0,0,1,270.55,11.08Z"/><path class="cls-3" d="M272.11,13.81a.75.75,0,0,1,1.35.26c0,.58.15,1.32-.51,1.63a.73.73,0,0,1-.84-.16C271.64,15.1,271.83,14.29,272.11,13.81Z"/><path class="cls-3" d="M274,16.85a.77.77,0,0,1,1.05-.22.79.79,0,0,1,.21,1.05c0-.08,0,.13,0,.15a1.07,1.07,0,0,1-.19.54.72.72,0,0,1-1.13.08A1.28,1.28,0,0,1,274,16.85Z"/><path class="cls-3" d="M269.55,16.63a.78.78,0,0,1,1.07-.21.75.75,0,0,1,.29.87s0,.09,0,.2a.92.92,0,0,1-.19.48.69.69,0,0,1-.94.19A1.09,1.09,0,0,1,269.55,16.63Z"/><path class="cls-3" d="M271,20a1,1,0,0,1,.7-1,.62.62,0,0,1,.68.34.63.63,0,0,1-.28.84c.19-.1.13-.16.09,0C272,21,271,20.7,271,20Z"/><path class="cls-3" d="M269.56,22v-.07a.53.53,0,0,1,.29-.44,1,1,0,0,1,.23-.07.5.5,0,0,1,.51.75,1.11,1.11,0,0,1-.31.3A.5.5,0,0,1,269.56,22Z"/><path class="cls-3" d="M283.21,17.27a1.6,1.6,0,0,1,.27-.95.78.78,0,0,1,1.39.28s0,.17,0,.24h0a1.65,1.65,0,0,0,.06.32c0,.25,0,.32,0,.19a1.82,1.82,0,0,1,0,.33.87.87,0,0,1-.32.6.72.72,0,0,1-.74.15A1.19,1.19,0,0,1,283.21,17.27Z"/><path class="cls-3" d="M282.23,13.68a.68.68,0,0,1,1.21.6c0-.09,0,.19,0,.22a1.6,1.6,0,0,1-.11.43.6.6,0,0,1-1,.2A1.12,1.12,0,0,1,282.23,13.68Z"/><path class="cls-3" d="M280,16.45Z"/><path class="cls-3" d="M279.7,16.69a.78.78,0,0,1,.27-.24l.26-.11.17,0a.41.41,0,0,1,.53.41A1.82,1.82,0,0,1,281,17a1.39,1.39,0,0,1-.15,1,.71.71,0,0,1-1.11.08A1.16,1.16,0,0,1,279.7,16.69Z"/><path class="cls-3" d="M281.46,19.64a.61.61,0,0,1,1.2-.11,2.33,2.33,0,0,1,.1,1.45.68.68,0,0,1-1.13.22A1.84,1.84,0,0,1,281.46,19.64Z"/><path class="cls-3" d="M282.64,23.41a.63.63,0,0,1,1.23-.24,1.46,1.46,0,0,1,0,1.29.64.64,0,0,1-1.16-.23A5.5,5.5,0,0,1,282.64,23.41Z"/><path class="cls-3" d="M281.37,24.14l0,.21a.7.7,0,0,1-1.38.28l-.06-.21C279.7,23.52,281.25,23.21,281.37,24.14Z"/><path class="cls-3" d="M283.46,26.8v.12a.47.47,0,0,1-.88.18l-.05-.11A.49.49,0,1,1,283.46,26.8Z"/><path class="cls-3" d="M291.43,13.37c0-.68,1.12-1,1.36-.27a1.73,1.73,0,0,1-.26,1.85.68.68,0,0,1-1-.2A3.38,3.38,0,0,1,291.43,13.37Z"/><path class="cls-3" d="M289.58,11.27a.68.68,0,0,1,.67-.44.66.66,0,0,1,.61.7,1.57,1.57,0,0,1-.5,1.27.6.6,0,0,1-.93-.17A1.53,1.53,0,0,1,289.58,11.27Z"/><path class="cls-3" d="M287.48,15a6,6,0,0,0,.1-.84.69.69,0,0,1,.55-.63.7.7,0,0,1,.81.54,1.94,1.94,0,0,1-.1,1.21.72.72,0,0,1-.71.47A.7.7,0,0,1,287.48,15Z"/><path class="cls-3" d="M289.5,16.12a.63.63,0,0,1,1.14-.08,1.74,1.74,0,0,1,.21,1.16.75.75,0,0,1-1.48.1A2.36,2.36,0,0,1,289.5,16.12Z"/><path class="cls-3" d="M291.6,18a.73.73,0,0,1,1.34.45,1.78,1.78,0,0,1-.46,1.25.72.72,0,0,1-1.18-.39A1.9,1.9,0,0,1,291.6,18Z"/><path class="cls-3" d="M287.25,20.16a.8.8,0,0,1,1.57-.32,1.52,1.52,0,0,1-.1,1.3.66.66,0,0,1-.89.18A1.53,1.53,0,0,1,287.25,20.16Z"/><path class="cls-3" d="M288.84,23a1.69,1.69,0,0,0,.09-.49.67.67,0,0,1,1.32-.26,2.57,2.57,0,0,1-.09,1.2.7.7,0,0,1-.89.44A.71.71,0,0,1,288.84,23Z"/><path class="cls-3" d="M287.86,25.62c-.26,0,.1,0,.15,0a.36.36,0,0,1,.14.67.45.45,0,0,1-.56-.11A.33.33,0,0,1,287.86,25.62Z"/><path class="cls-3" d="M228.42,22.35a.72.72,0,0,1,1.2-.24,1.41,1.41,0,0,1,.32,1.71.82.82,0,0,1-1.14.23A1.42,1.42,0,0,1,228.42,22.35Z"/><path class="cls-3" d="M230.92,24.34a.78.78,0,0,1,1.08.06,2,2,0,0,1,.35,1.39,1,1,0,0,1-.74.84.93.93,0,0,1-1.08-.72A1.68,1.68,0,0,1,230.92,24.34Z"/><path class="cls-3" d="M227,24.43a.88.88,0,0,1,1.27.84.76.76,0,0,1,0,.15,1,1,0,0,0,0,.17v.05a1.28,1.28,0,0,1-.43.86,1,1,0,0,1-1.44-.27A1.36,1.36,0,0,1,227,24.43Z"/><path class="cls-3" d="M228.67,27.47c0,.26,0-.12,0-.21s.06-.27,0-.15a.75.75,0,0,1,1.41-.28c-.06-.1,0-.06.1.13a1.83,1.83,0,0,1,.14.35,1.11,1.11,0,0,1-.05.74.89.89,0,1,1-1.68-.58Z"/><path class="cls-3" d="M226.15,28.76a.79.79,0,0,1,1.48-.29c.25.56.3,1.25-.33,1.59a.7.7,0,0,1-.71,0C226.14,29.72,226.14,29.24,226.15,28.76Z"/><path class="cls-3" d="M230.8,30c.44-.46,1.08.11.95.63a2.13,2.13,0,0,1-.2.55.57.57,0,0,1-1-.05A1,1,0,0,1,230.8,30Z"/><path class="cls-3" d="M228.47,32.18a.45.45,0,0,1,.86.09.87.87,0,0,1-.1.59.52.52,0,0,1-.82.06A.51.51,0,0,1,228.47,32.18Z"/><path class="cls-3" d="M211.49,8.82a2.07,2.07,0,0,1,.18-.84.13.13,0,0,1,0-.06.67.67,0,0,1,1.13-.22l0,0a2,2,0,0,1,.44.61,1.5,1.5,0,0,1,0,1.44.89.89,0,0,1-1.24.25A1.46,1.46,0,0,1,211.49,8.82Z"/><path class="cls-3" d="M214.23,10.62c0-.18,0-.35.05-.53s.05-.21.07-.32.13-.38.1-.25a.71.71,0,0,1,1.2-.24,1.73,1.73,0,0,1,.4.8,1.58,1.58,0,0,1-.23,1.18.85.85,0,0,1-.77.37A1,1,0,0,1,214.23,10.62Z"/><path class="cls-3" d="M209.27,10.62c.08-.61.62-1.28,1.28-.88a1.35,1.35,0,0,1,.49.85,1.24,1.24,0,0,1-.29,1.23A.73.73,0,0,1,210,12,1.27,1.27,0,0,1,209.27,10.62Z"/><path class="cls-3" d="M212.19,12.7a.85.85,0,0,1,1.59-.32,1.85,1.85,0,0,1,.22.88c-.08.41-.25.77-.7.86a.92.92,0,0,1-1-.52A1.74,1.74,0,0,1,212.19,12.7Z"/><path class="cls-3" d="M209.23,14.27a.7.7,0,0,1,1.32-.27,3,3,0,0,1,.25.94.7.7,0,0,1-1.07.53A1.37,1.37,0,0,1,209.23,14.27Z"/><path class="cls-3" d="M214.87,15.67a.63.63,0,0,1,1-.7,1.11,1.11,0,0,1,.34.67.69.69,0,0,1-.53.79.67.67,0,0,1-.79-.53A.93.93,0,0,0,214.87,15.67Z"/><path class="cls-3" d="M212.72,17.59a.65.65,0,0,1,1.27-.26c0,.07,0,.13,0,.2a.65.65,0,0,1-1.27.26A1.77,1.77,0,0,1,212.72,17.59Z"/><path class="cls-3" d="M207.08,22.82c-.32-.56.41-1.14.91-.8l.16.06a1.48,1.48,0,0,1,.47.35,1.25,1.25,0,0,1,.36,1,.88.88,0,0,1-1.51.52,1.28,1.28,0,0,1-.33-.68c0-.1,0-.19,0-.28A1.09,1.09,0,0,1,207.08,22.82Z"/><path class="cls-3" d="M208.15,22.08h0S208.16,22.09,208.15,22.08Z"/><path class="cls-3" d="M204.84,23.09a.74.74,0,0,1,1-.21,2,2,0,0,1,.35.3l.2.29a1.33,1.33,0,0,1,.26,1.24.83.83,0,0,1-.82.55A1.44,1.44,0,0,1,204.84,23.09Z"/><path class="cls-3" d="M206.44,23.51l0,0h0S206.44,23.5,206.44,23.51Z"/><path class="cls-3" d="M206.44,23.51Z"/><path class="cls-3" d="M208.47,25.59a1.14,1.14,0,0,1,.67.67.9.9,0,0,1-.2,1l0,0a.77.77,0,0,1-.78.15.9.9,0,0,1-.55-.44c-.09-.24-.11-.3-.05-.18-.08-.25-.1-.29-.06-.13C207.12,26.15,207.82,25.27,208.47,25.59Z"/><path class="cls-3" d="M210.33,25.84c-.2-.62.75-1.05,1.13-.57s.78,1.25.21,1.78a.64.64,0,0,1-.62.13C210.41,27,210.51,26.35,210.33,25.84Z"/><path class="cls-3" d="M204.69,27.65a.79.79,0,0,1,1.08-.22,1.4,1.4,0,0,1,.59.86.72.72,0,0,1-.92.81,1.16,1.16,0,0,1-.41-.25s-.23-.2-.12-.12A.79.79,0,0,1,204.69,27.65Z"/><path class="cls-3" d="M210.4,29.42a.75.75,0,0,1,1,.06.93.93,0,0,1,.14,1.21c-.29.36-1,.46-1.2-.07l-.06-.17A.75.75,0,0,1,210.4,29.42Z"/><path class="cls-3" d="M210.72,33a.69.69,0,0,0,0,.13.54.54,0,0,1-1.06.21l0-.13C209.48,32.54,210.61,32.32,210.72,33Z"/><path class="cls-3" d="M197.54,23.23c-.06-.4.34-.88.78-.68a2,2,0,0,1,.74.48,1.94,1.94,0,0,1,.5.92.95.95,0,0,1-1.77.62A7.48,7.48,0,0,1,197.54,23.23Z"/><path class="cls-3" d="M195.87,25a.77.77,0,0,1,1.29-.26,1.29,1.29,0,0,1,0,1.81.84.84,0,0,1-1,.07A1.27,1.27,0,0,1,195.87,25Z"/><path class="cls-3" d="M199.49,27.39h0l0,0Z"/><path class="cls-3" d="M198.06,28.37c0,.18,0,.12,0-.17l0-.16a.82.82,0,0,1,1.41-.65l.2.17a1.24,1.24,0,0,1,.25.35A1.29,1.29,0,0,1,200,29a1,1,0,0,1-.74.65,1,1,0,0,1-1.08-.52A1.56,1.56,0,0,1,198.06,28.37Z"/><path class="cls-3" d="M196.2,28.59c-.22-.37.15.18,0,0Z"/><path class="cls-3" d="M194.33,28a.89.89,0,0,1,1.39-.1,1.24,1.24,0,0,1,.19.26c-.15-.24.1.15.15.22l0,0,.12.16.1.16a1.17,1.17,0,0,1-.38,1.73C194.49,31.17,193.52,29,194.33,28Z"/><path class="cls-3" d="M200.69,25.1a.44.44,0,0,1,.56-.42A1.54,1.54,0,0,1,202.63,26a.93.93,0,0,1-.48,1,.91.91,0,0,1-1.22-.4A2.13,2.13,0,0,1,200.69,25.1Z"/><path class="cls-3" d="M201.16,31c0-.21.05-.4.07-.56a.87.87,0,0,1,1.64-.33,2.2,2.2,0,0,1,.24,1.26,1,1,0,0,1-.76.87,1,1,0,0,1-1-.51A1.65,1.65,0,0,1,201.16,31Z"/><path class="cls-3" d="M198,32.05a.59.59,0,0,1,1,.06l0,0c-.1-.06-.06,0,.1.11a1.56,1.56,0,0,1,.16.2,1.34,1.34,0,0,1,.29.84.78.78,0,0,1-1,.68,1.16,1.16,0,0,1-.75-.88A1.35,1.35,0,0,1,198,32.05Z"/><path class="cls-3" d="M202.48,35.29c.07.4.06,1-.45,1.05s-.73-.39-.83-.8A.65.65,0,0,1,202.48,35.29Z"/><path class="cls-3" d="M196.79,42.6h0C196.69,42.52,196.7,42.52,196.79,42.6Z"/><path class="cls-3" d="M195.34,42.89a.87.87,0,0,1,1.44-.3l.13.11.17.19a1.66,1.66,0,0,1,.41.8,1,1,0,0,1-.32.94,1,1,0,0,1-1,.2A1.58,1.58,0,0,1,195.34,42.89Z"/><path class="cls-3" d="M193.62,43.53c-.21,0-.18,0,.09,0a.82.82,0,0,1,.28.07,1.78,1.78,0,0,1,.43.23A1.5,1.5,0,0,1,195,45a.93.93,0,0,1-.53.8,1,1,0,0,1-1-.06C192.74,45.32,192.39,43.6,193.62,43.53Z"/><path class="cls-3" d="M197.57,46.68a1.56,1.56,0,0,1,1,1,.84.84,0,0,1-1.57.54,2,2,0,0,1-.11-.2v0a.57.57,0,0,0-.11-.11C196.2,47.4,196.86,46.34,197.57,46.68Z"/><path class="cls-3" d="M193,46.93h.25a1.49,1.49,0,0,1,.58.2,2,2,0,0,1,.74.8A.93.93,0,0,1,194.4,49a.92.92,0,0,1-1.13.08,2.39,2.39,0,0,1-.6-.67,1.31,1.31,0,0,1-.17-.4c.06.22-.09-.26-.06-.21A.63.63,0,0,1,193,46.93Z"/><path class="cls-3" d="M195.75,49.76a.68.68,0,0,1,.81-.43,1,1,0,0,1,.75.35.76.76,0,0,1-.81,1.22,1.14,1.14,0,0,1-.59-.46A.65.65,0,0,1,195.75,49.76Z"/><path class="cls-3" d="M199.49,44.09c-.17-.07.42.1.23,0a1.44,1.44,0,0,1,.39.2,1.1,1.1,0,0,1,.49,1,.79.79,0,0,1-.83.71,1.2,1.2,0,0,1-1.07-.92A.69.69,0,0,1,199.49,44.09Z"/><path class="cls-3" d="M200.25,48.21a.73.73,0,0,1,.93-.46,1.81,1.81,0,0,1,1.19.78.7.7,0,0,1-.48,1c-.49.13-.95-.22-1.36-.46A.71.71,0,0,1,200.25,48.21Z"/><path class="cls-3" d="M201.58,51.62c0-.7,1.09-.89,1.34-.27,0,.07.18.35.07.18.4.61-.47,1.25-1,.89A.91.91,0,0,1,201.58,51.62Z"/><path class="cls-3" d="M225.27,56a1.43,1.43,0,0,1,2.22-.2,1,1,0,0,1,.08,1.19,1.5,1.5,0,0,1-2,.37A1,1,0,0,1,225.27,56Z"/><path class="cls-3" d="M228.49,55.55a1.24,1.24,0,0,1,1-1,1.33,1.33,0,0,1,1.56.73,1,1,0,0,1-.06,1,.93.93,0,0,1-.87.43,3.15,3.15,0,0,1-1.29-.44A.68.68,0,0,1,228.49,55.55Z"/><path class="cls-3" d="M225.36,58.87a2.3,2.3,0,0,1,1.09-.23,1.63,1.63,0,0,1,1.2.45,1,1,0,0,1-.08,1.4,2,2,0,0,1-2.3,0A.94.94,0,0,1,225.36,58.87Z"/><path class="cls-3" d="M228.83,58.89a.82.82,0,0,1,.64-1,1.29,1.29,0,0,1,.8.07.83.83,0,0,1,.56.83.85.85,0,0,1-.46.68.73.73,0,0,1-.63,0h-.05A.82.82,0,0,1,228.83,58.89Z"/><polygon class="cls-3" points="228.71 61.55 228.71 61.55 228.7 61.55 228.71 61.55"/><path class="cls-3" d="M228.71,61.55s.12-.16,0,0Z"/><path class="cls-3" d="M228.74,61.54s0,0,0,0a1.27,1.27,0,0,1,.46-.4,1.47,1.47,0,0,1,1.09-.15.91.91,0,0,1,.61.93,1.34,1.34,0,0,1-.78,1.06,1.29,1.29,0,0,1-.7.12l-.35-.06A.8.8,0,0,1,228.74,61.54Z"/><path class="cls-3" d="M232.79,58.49a4.14,4.14,0,0,1,.61,0,1,1,0,0,1,.88,1,1,1,0,0,1-1,.88c-.12,0-.24,0-.36,0a.92.92,0,0,1-.85-.74A.94.94,0,0,1,232.79,58.49Z"/><path class="cls-3" d="M232.29,56.44a.84.84,0,0,1,1.35.13.61.61,0,0,1-.14.73.91.91,0,0,1-1,.12A.58.58,0,0,1,232.29,56.44Z"/><path class="cls-3" d="M236.64,58.46a.69.69,0,0,1,.54-.82,1.23,1.23,0,0,1,1.25.62.66.66,0,0,1-1,.84c-.11-.06-.26-.08,0-.1A.7.7,0,0,1,236.64,58.46Z"/><path class="cls-3" d="M216.2,32.61a1.76,1.76,0,0,1,1.11.27A1.37,1.37,0,0,1,218,34.1a1,1,0,0,1-.77.88,1.65,1.65,0,0,1-1.7-.95A1,1,0,0,1,216.2,32.61Z"/><path class="cls-3" d="M214.7,35.8a1,1,0,0,1,1.11-.4,2,2,0,0,1,1,1.32.88.88,0,0,1-.69,1.05,1.34,1.34,0,0,1-1.51-.82A1.23,1.23,0,0,1,214.7,35.8Z"/><path class="cls-3" d="M219,34.9a.74.74,0,0,1,1-.64,1.49,1.49,0,0,1,1,1.34.87.87,0,0,1-.93.8,1.18,1.18,0,0,1-.92-.66A1.46,1.46,0,0,1,219,34.9Z"/><path class="cls-3" d="M217.87,37.69l0,0v0S217.88,37.71,217.87,37.69Z"/><path class="cls-3" d="M217.91,37.72h0c-.08-.13-.08-.09,0,0a.72.72,0,0,1,.54-1.23,1.46,1.46,0,0,1,.74.25,1,1,0,0,1,.39,1.14.77.77,0,0,1-.77.51.9.9,0,0,1-.66-.34c-.07-.09-.13-.19-.19-.28l0,0Z"/><path class="cls-3" d="M221.88,38.23a1.18,1.18,0,0,1,.35.42c.24.47-.34,1-.78.7a4,4,0,0,1-.31-.27C220.66,38.64,221.37,37.83,221.88,38.23Z"/><path class="cls-3" d="M218.81,39.73c.11.07.31.11.42.27a.6.6,0,0,1,0,.82l0,0a.65.65,0,0,1-.64.13,1.3,1.3,0,0,1-.41-.2A.64.64,0,0,1,218.81,39.73Z"/><path class="cls-3" d="M235.56,37.11a.85.85,0,0,1,.59-1.22A1.39,1.39,0,0,1,237.69,37a.92.92,0,0,1-1.59.79l-.18-.27h0l0,0c-.06-.07-.05-.07,0,0h0A1.47,1.47,0,0,1,235.56,37.11Z"/><path class="cls-3" d="M234.67,36.34a1.09,1.09,0,0,1,.35,1.54.81.81,0,0,1-.92.31,1.37,1.37,0,0,1-.71-.71A.89.89,0,0,1,234.67,36.34Z"/><path class="cls-3" d="M236.65,38.84a1.27,1.27,0,0,1,.61,1.16.8.8,0,0,1-1,.69,1.3,1.3,0,0,1-.77-1A.78.78,0,0,1,236.65,38.84Z"/><path class="cls-3" d="M233.45,40.27a.67.67,0,0,1,1.26-.25.88.88,0,0,1,.06.71.66.66,0,0,1-1.11.22A.84.84,0,0,1,233.45,40.27Z"/><path class="cls-3" d="M239,39.33s0,.09,0,.13a.55.55,0,0,1-1.07.21l0-.12C237.74,38.86,239,38.62,239,39.33Z"/><path class="cls-3" d="M238.14,42.41a.42.42,0,0,1,.83-.17.31.31,0,0,1,0,.13.43.43,0,0,1-.84.17A.27.27,0,0,1,238.14,42.41Z"/><path class="cls-3" d="M249.85,33.87a1.46,1.46,0,0,1,1.74.21.84.84,0,0,1,.07,1,1.58,1.58,0,0,1-1.69.47.9.9,0,0,1-.61-.69A1,1,0,0,1,249.85,33.87Z"/><path class="cls-3" d="M251.42,36.53a1.21,1.21,0,0,1,2.05-.6.77.77,0,0,1-.22,1.18,1.6,1.6,0,0,1-1.53,0A.65.65,0,0,1,251.42,36.53Z"/><path class="cls-3" d="M249.79,38a1.16,1.16,0,0,1,1.19-.17.75.75,0,0,1-.29,1.44,1.14,1.14,0,0,1-.95-.37A.64.64,0,0,1,249.79,38Z"/><path class="cls-3" d="M248.7,36a.67.67,0,1,1,.26,1.27.7.7,0,0,1-.75-.51A.71.71,0,0,1,248.7,36Z"/><path class="cls-3" d="M246.8,35.68a.17.17,0,0,1,0-.1c0,.11,0,0,0-.08-.19-.69,1-.93,1.08-.22a.8.8,0,0,1-.1.66.54.54,0,0,1-.61.21l0,0A.45.45,0,0,1,246.8,35.68Z"/><path class="cls-3" d="M245.86,38.32a.58.58,0,0,1,.61-.52.66.66,0,0,1,.62.38c.31.56-.45,1-.86.71A.6.6,0,0,1,245.86,38.32Z"/><path class="cls-3" d="M250,42.48v0C249.92,42.23,250,42.35,250,42.48Z"/><path class="cls-3" d="M250.07,41.69a.94.94,0,0,1,1-.42,1.32,1.32,0,0,1,1.12,1,1,1,0,0,1-1.53,1,2,2,0,0,1-.54-.72s0-.09-.06-.13A.88.88,0,0,1,250.07,41.69Z"/><path class="cls-3" d="M248.29,44.49a.85.85,0,0,1,.69-.79.91.91,0,0,1,1,.46c-.08-.13-.05-.08.09.13l.12.27a1.16,1.16,0,0,1,0,.82.79.79,0,0,1-.79.53A1.28,1.28,0,0,1,248.29,44.49Z"/><path class="cls-3" d="M251.58,44.93a1.09,1.09,0,0,1,1.24.56.92.92,0,0,1-1.51,1c-.07-.08-.29-.39-.11-.15a2.68,2.68,0,0,1-.18-.28A.82.82,0,0,1,251.58,44.93Z"/><path class="cls-3" d="M254.13,42.38c.48.26,1,.67,1,1.28a.71.71,0,0,1-.74.64c-.67,0-.86-.63-1.1-1.14A.61.61,0,0,1,254.13,42.38Z"/><path class="cls-3" d="M254.18,46.72a.69.69,0,0,1-.19-.94.68.68,0,0,1,.94-.19.89.89,0,0,1,.28,1.18.6.6,0,0,1-.83.17l-.17-.14C254.13,46.69,253.92,46.51,254.18,46.72Z"/><path class="cls-3" d="M255.49,49.49a1,1,0,0,1-.06.79.53.53,0,0,1-.69.14.92.92,0,0,1-.36-.71A.57.57,0,0,1,255.49,49.49Z"/><path class="cls-3" d="M303,42.44a1.37,1.37,0,0,1,.92-.35,1,1,0,0,1,.8.5,1.18,1.18,0,0,1-.11,1.25.92.92,0,0,1-.23.29l-.13.15a1.24,1.24,0,0,1-.46.26.94.94,0,0,1-1.32-.64A1.44,1.44,0,0,1,303,42.44Z"/><path class="cls-3" d="M304.66,45.73l.15-.18c.1-.13.21-.23.32-.35l.05,0a.39.39,0,0,1,.08-.1s0,0,0,0a.6.6,0,0,1,.7-.24,1.15,1.15,0,0,1,.81.89,1.48,1.48,0,0,1-.81,1.5C305.1,47.7,304,46.53,304.66,45.73Z"/><path class="cls-3" d="M299.2,43.74a1.59,1.59,0,0,1,.6-.46,1.29,1.29,0,0,1,.58-.1l.25,0,.1.05a.86.86,0,0,1,.52,1.07q0-.35,0,.09a1.38,1.38,0,0,1-.18.34c.09-.19.07-.15-.07.13l0,.07c.09-.19.07-.15-.07.13a1.06,1.06,0,0,1-1.68.21A1.24,1.24,0,0,1,299.2,43.74Z"/><path class="cls-3" d="M300.81,46.14a1.44,1.44,0,0,1,1.54-.55,1,1,0,0,1,.51,1.49l-.21.25c.1-.12.11-.13,0,0a2.08,2.08,0,0,1-.37.51,1.07,1.07,0,0,1-1.52,0A1.28,1.28,0,0,1,300.81,46.14Z"/><path class="cls-3" d="M303.2,50.17a1.59,1.59,0,0,1,.5-.7,1.74,1.74,0,0,1,1.33-.58,1.08,1.08,0,0,1,.93,1.4,2,2,0,0,1-.62.89,1.63,1.63,0,0,1-1.29.56,1,1,0,0,1-.91-.8A1.67,1.67,0,0,1,303.2,50.17Z"/><path class="cls-3" d="M300.61,50.23a.76.76,0,0,1,1.38.47c-.06.62-.63,1.3-1.32,1a.68.68,0,0,1-.46-.51C300.14,50.77,300.39,50.57,300.61,50.23Z"/><path class="cls-3" d="M297.65,48.09a.83.83,0,0,1,1.13-.23A.82.82,0,0,1,299,49l-.12.14a2.18,2.18,0,0,1-.21.22.76.76,0,0,1-1.17-.22A.9.9,0,0,1,297.65,48.09Z"/><polygon class="cls-3" points="298.01 52.86 298.01 52.86 298.01 52.86 298.01 52.86"/><path class="cls-3" d="M298,52.86c.1,0,0,0,0,0Z"/><path class="cls-3" d="M297,52.13a1.12,1.12,0,0,1,.91-.72c.91-.24,1.22,1.29.29,1.43l-.15,0,0,0A.67.67,0,0,1,297,52.13Z"/><path class="cls-3" d="M296.91,54.79a5.78,5.78,0,0,1,.8-.47c.51-.3.94.54.42.82a1.87,1.87,0,0,1-1,.34A.4.4,0,0,1,296.91,54.79Z"/><path class="cls-3" d="M293.22,53l.11-.07c.47-.31.68.72.12.62l-.12,0A.28.28,0,0,1,293.22,53Z"/><path class="cls-3" d="M285.27,59.27a.82.82,0,0,1,.32,1.54c-.57.26-1.43.2-1.58-.54S284.7,59.25,285.27,59.27Z"/><path class="cls-3" d="M283.76,61.58c.07-.06.07,0,0,0a.75.75,0,0,1,1.27.08l0,0a.81.81,0,0,1-.17.92.75.75,0,0,1-.47.23.79.79,0,0,1-.82-.4A.75.75,0,0,1,283.76,61.58Z"/><path class="cls-3" d="M281.26,60.82a.92.92,0,0,1,.88,1,.64.64,0,0,1-1.09.38c.19.19-.19-.16,0,0a1,1,0,0,1-.19-.16l-.09-.12A.64.64,0,0,1,281.26,60.82Z"/><path class="cls-3" d="M280.74,61.87Z"/><path class="cls-3" d="M281.86,59.37a.78.78,0,0,1,.6.23c.33.29-.08.74-.42.64a2.09,2.09,0,0,1-.34-.08A.41.41,0,0,1,281.86,59.37Z"/><path class="cls-3" d="M271.43,62.76a1,1,0,0,1,.34-.7,1.1,1.1,0,0,1,1-.2A1.84,1.84,0,0,1,273.91,64a1,1,0,0,1-1.23.6A2.13,2.13,0,0,1,271.43,62.76Z"/><path class="cls-3" d="M270.44,65.61a1,1,0,0,1,1.36-.27,1.16,1.16,0,0,1,.63.85,1,1,0,0,1-1.47,1,2.16,2.16,0,0,1-.43-.37A1,1,0,0,1,270.44,65.61Z"/><path class="cls-3" d="M267.9,64a.84.84,0,0,1,1.1.36,1.92,1.92,0,0,1,.14.29c.05.13.06.3.11.43a.67.67,0,0,1-.15.77.66.66,0,0,1-.91,0,2.22,2.22,0,0,0-.33-.28,2.22,2.22,0,0,1-.32-.42A.82.82,0,0,1,267.9,64Z"/><path class="cls-3" d="M269.2,62.76a.68.68,0,0,1,1.15-.23,1.49,1.49,0,0,1,.28.69.72.72,0,0,1-1.41.29A1.59,1.59,0,0,1,269.2,62.76Z"/><path class="cls-3" d="M273,59.16a1,1,0,0,1,.58,1.47.68.68,0,0,1-.92.18,1.41,1.41,0,0,1-.53-.65A.72.72,0,0,1,273,59.16Z"/><path class="cls-3" d="M269.66,60.12s0,0,0,0Z"/><path class="cls-3" d="M269.81,60.36h0S269.85,60.41,269.81,60.36Z"/><path class="cls-3" d="M270.22,58.93a1,1,0,0,1,.84,1.18.66.66,0,0,1-1.24.25l-.12-.19,0-.05a1.63,1.63,0,0,1-.11-.17A.71.71,0,0,1,270.22,58.93Z"/><path class="cls-3" d="M266.39,61.07a.75.75,0,0,1,1.16-.57,1.05,1.05,0,0,1,.42,1.26.74.74,0,0,1-1.24.24A1.39,1.39,0,0,1,266.39,61.07Z"/><path class="cls-3" d="M245.25,44.07a1.25,1.25,0,0,1,.8-.54c.62-.19,1,.6.71,1.07a1.52,1.52,0,0,1-.44.5c-.28.2-.78.31-1,0A.86.86,0,0,1,245.25,44.07Z"/><path class="cls-3" d="M242.88,44.17a.56.56,0,0,1,.76-.16c.54.35.58,1.44-.15,1.59S242.56,44.63,242.88,44.17Z"/><path class="cls-3" d="M244,46.19a1.25,1.25,0,0,1,.27-.61.52.52,0,0,1,.87.58c-.07.12-.12.24-.19.35C244.62,46.92,243.87,46.72,244,46.19Z"/><path class="cls-3" d="M248.59,49.38a.77.77,0,0,1,.93-.07.79.79,0,0,1,.3.88c0-.17,0,.22-.07.26a1.05,1.05,0,0,1-.21.35.77.77,0,0,1-.66.33.74.74,0,0,1-.67-.59A1.25,1.25,0,0,1,248.59,49.38Z"/><path class="cls-3" d="M249.75,52.07a.91.91,0,0,1,1.1-1,.51.51,0,0,1,.36.41c0,.57-.52,1.47-1.2,1.11A.58.58,0,0,1,249.75,52.07Z"/><path class="cls-3" d="M248,53a.71.71,0,0,1,.48-.31.63.63,0,0,1,.25,1.23,1.23,1.23,0,0,1-.27,0A.61.61,0,0,1,248,53Z"/><path class="cls-3" d="M228.14,51.44a.9.9,0,0,1,.94-.24.68.68,0,0,1,.34,1s-.09.18,0,0a1.23,1.23,0,0,1-.3.44.73.73,0,0,1-1-.06A.9.9,0,0,1,228.14,51.44Z"/><path class="cls-3" d="M229.61,52.64a.93.93,0,0,1,.32-.5,1.55,1.55,0,0,1,.46-.22c.49-.18,1,.29.71.8,0,.05-.06.13-.13.24a1.84,1.84,0,0,1-.31.38A.66.66,0,0,1,229.61,52.64Z"/><path class="cls-3" d="M230.62,50.74a.76.76,0,0,1,.53-.44c.66-.22.93,1,.21,1.08h0C231,51.61,230.42,51.15,230.62,50.74Z"/><path class="cls-4" d="M308.82,74.88c-24.54-2.95-48.34-4.73-73.54-2.72-13.42,1.07-27,1.67-40,4.06-8.37,1.53-15.3,2.39-24.15,4.36-9.26,2.06-18.28,2.87-27.39,5.08-8.07,2-40.39,6.69-21.38,13.42,7.13,2.52,16.21,2.21,23.37,4.18,8.82,2.44,15.23.61,23.69,1.69,6.05.77,9.74,2.48,15.55,2.89,6.41.45,13.69-.35,20.33,0,13.49.66,26.82.43,40,3.19,14.79,3.11,26.44,4.6,41.9,1.89,5.41-.94,13.65-2.34,21.71-4.38Z"/><path class="cls-5" d="M308.82,93.51a3.57,3.57,0,0,1-2.43-1.94,3.88,3.88,0,0,1,.28-3.42c.54-1.09,1.34-2.11,1.9-3.19l.25-.47V81a1.92,1.92,0,0,0-.21.16c-3.47,3.44-8.91,6.41-14.09,8.24a83.71,83.71,0,0,1-15.2,3.81,89.72,89.72,0,0,1-15.73.93c-2.66-.07-5.32-.25-8-.5-1.2-.12-2.41-.15-3.61-.25a11.21,11.21,0,0,0-2.24-.25c-2.15.66,1.53,1.59,2.14,1.75,11.31,3,23.71,1.24,35.62.21a38.72,38.72,0,0,1,8.54-.07,7.06,7.06,0,0,1,3.28,1.1c4.32,3.27-5.93,5.6-8.6,6a72.94,72.94,0,0,1-14.63.52q-4.2-.19-8.37-.47c-13.94-.93-27.8-2.54-41.46-4.83-12.89-2.17-25.31-6.09-38.75-4.77-4.44.44-8.79,1.31-13.24,1.65a54.75,54.75,0,0,1-13.78-.67,10.55,10.55,0,0,1-3.41-1.06A2.31,2.31,0,0,1,155.75,90c.27-.92,1.38-1.54,2.46-2,4.4-2,9.44-3,14.41-3.92l28.74-5.56c8.93-1.72,18-3,27.08-4.54,5.06-.84,10.12-1.64,15.19-2.36q-4.15.2-8.35.53c-13.42,1.07-27,1.67-40,4.06-8.37,1.53-15.3,2.39-24.15,4.36-9.26,2.06-18.28,2.87-27.39,5.08l-1.64.37c-4.06.71-8.13,1.61-12.26,2.61l-.08,0c-10.14,2.43-19.47,5.89-8,10.18l.65.24c7.13,2.52,16.21,2.21,23.37,4.18.26.08.53.15.79.21l.34.08.44.11.44.09.31.07.52.1.22,0,.57.1.15,0,.62.09h.09c.22,0,.44.06.66.09h0l.69.07c6.07.63,11.34-.24,17.81.59,6.05.77,9.74,2.48,15.55,2.89,6.41.45,13.69-.35,20.33,0,13.49.66,26.82.43,40,3.19,14.79,3.11,26.44,4.6,41.9,1.89,5.41-.94,13.65-2.34,21.71-4.38Z"/><path class="cls-6" d="M307.82,74.88c-24.54-2.95-47.34-4.73-72.54-2.72-13.42,1.07-27,1.67-40,4.06-8.37,1.53-15.3,2.39-24.15,4.36-9.26,2.06-18.28,2.87-27.39,5.08-8.07,2-40.39,6.69-21.38,13.42,7.13,2.52,16.21,2.21,23.37,4.18,8.82,2.44,15.23.61,23.69,1.69,6.05.77,9.74,2.48,15.55,2.89,6.41.45,13.69-.35,20.33,0,13.49.66,26.82.43,40,3.19,14.79,3.11,26.44,4.6,41.9,1.89,5.41-.94,12.65-2.34,20.71-4.38"/><path class="cls-2" d="M105.7,106.06c1.52-1.17,2.53-2.11,2.63-4.14a3.82,3.82,0,0,0-3.19-4.11c-4.22-.36-6.65,4.56-6.8,8.06a22.43,22.43,0,0,0,1.32,8.2c-3.12-3.58-6.42-7-8.86-11.1A21.94,21.94,0,0,1,89,99a3.25,3.25,0,0,1,1.28-2.63c1-.89,2.32-1.5,3.42-2.32A15.86,15.86,0,0,0,99,87c1.48-3.92,1.39-9.58-2.48-12.2-4.31-2.93-4.89,4.88-4.88,7.31a39.24,39.24,0,0,1-.22,7.43,6.49,6.49,0,0,1-3.61,4.83,71.47,71.47,0,0,1-.71-8.11,71.44,71.44,0,0,0-2-15.24A22.3,22.3,0,0,0,85,67.4a30.41,30.41,0,0,0-2.48-10c-1.63-3.33-6.21-9.59-10.42-6.13-4.64,3.81.17,8.6,3.25,11.33a25.55,25.55,0,0,1,5.38,6.87A37.47,37.47,0,0,1,83.63,76q.44,3.15.7,6.33c-1.82.2-3.17-1.27-4.43-2.64a31.7,31.7,0,0,1-4.49-6.57c-.88-1.65-1.48-3.45-2.31-5.13S71,63.56,68.84,63c-2.51-.63-4.1,2.43-4.38,4.46-.46,3.24,1.78,6.32,3.81,8.58a25,25,0,0,0,7.81,5.53c2.85,1.4,5.71,2.71,7.9,5-.24,4.18.77,8.71,1.77,12.72A26.31,26.31,0,0,0,89.47,108a23.74,23.74,0,0,0-2.67-1.47,52.79,52.79,0,0,0-8.21-2.94c-.38-.33-.79-.64-1.17-1A8,8,0,0,1,75,98.54a6.16,6.16,0,0,1,.28-4.71,13.48,13.48,0,0,0,1.52-4c.47-3.55-2.67-6-5.81-4.14-3.82,2.3-2.43,7.67-1.14,11a17.64,17.64,0,0,0,2.91,5,37.56,37.56,0,0,1-12.32-7.6c.23-.83.2-1.85.36-2.61a40.61,40.61,0,0,1,1.57-4.79,13.1,13.1,0,0,0,.75-6.86c-.57-3-1.5-7.66-4.22-9.5-1.3-.88-2.63-.41-3.65.65-1.41,1.47-1.15,3.53-.67,5.34.57,2.15,1.64,4.13,2.41,6.21a14.25,14.25,0,0,1,.29,8.06c-.2-.26-.41-.53-.6-.81-2.78-3.89-3.5-8.38-4.33-13-.5-2.75-1.45-5.48-3.88-7.12-1.67-1.13-3.64-1-4.69.81-1.53,2.69-.18,6.72,1.08,9.22a29.69,29.69,0,0,0,5.68,7.62A50.06,50.06,0,0,0,58.15,96l.8.74a16.49,16.49,0,0,1-2,.15A13.39,13.39,0,0,1,54.75,96a40.1,40.1,0,0,1-7.21-4.57c-3.29-2.47-6.4-6-10.91-5.89-2.31.08-2.92,2.29-2.4,4.21.85,3.17,3.24,5.06,6.2,6.21a53.87,53.87,0,0,0,9.39,2.22c3.53.7,7.41,1.46,10.94.37l.29-.1c1,.82,2.12,1.57,3.23,2.28l-.07,0c-3.46,1-12.78.61-10.62,5.61,2.32,5.36,10.53-.68,12.81-4.37a52.6,52.6,0,0,0,6.6,3.12c2.32.91,4.69,1.7,7,2.51l-1.13.1a23.59,23.59,0,0,0-5.14.92c-3.07,1-5.25,3.42-4,6.71,1.37,3.54,4.89,1.32,6.72-.4,1.18-1.12,2.21-2.38,3.33-3.56,1.67-1.76,4.45-1.29,6.63-1.43h0c1,.39,1.93.79,2.88,1.22.75.34,2.35,1.17,2.39,1.21.27.27,2.93,1.58,3.64,2.06.91.86,1.81,1.73,2.68,2.62A12.39,12.39,0,0,0,95.84,116a13.25,13.25,0,0,0-6.23-.13c-4.24.69-8.41,2.31-12.48,3.67-1.76.58-3.53,1.14-5.32,1.62l0-.07a6.44,6.44,0,0,0-1.46-1.54c-.74-1-1.58-1.85-2.38-2.73a28.82,28.82,0,0,0-5.54-5c-3.45-2.24-8.87-3.52-12.17-.24-1.46,1.45-.57,3.39.67,4.59,1.57,1.51,4.62.59,6.51.52a16,16,0,0,1,8.36,2.14,29.67,29.67,0,0,1,3.65,2.43,3.78,3.78,0,0,0,.54.35,41,41,0,0,1-5.93,1c-4,.33-8.62-.18-12.15-2.14-4.29-2.37-9.8-11.93-15.35-6.3-4.15,4.21,4,9.93,7.31,11.25a24,24,0,0,0,7.71,1.33,75.29,75.29,0,0,0,8.63,0,70.37,70.37,0,0,0,12.64-2.33l-.21.45c-1.08,1.52-3.4,1.86-5.14,2.75-2.09,1.07-2.24,3.18.05,4.12,2.53,1,4.52-.36,5.82-2.51.66-1.08,1.12-2.27,1.68-3.41a6.35,6.35,0,0,0,.84-2.23c1.07-.3,2-.57,2.63-.78,2.38-.75,5.27-1.82,8.28-2.65-.63.32-1.24.67-1.84,1-3,1.89-6,5.76-4.12,9.42a5.57,5.57,0,0,0,4.72,2.92c2.35,0,3.61-1.76,3.9-3.92.31-2.33.29-4.66,1.4-6.79a7.35,7.35,0,0,1,2.25-2.39c.47-.35.94-.68,1.44-1a3.2,3.2,0,0,0,.58-.53,10.87,10.87,0,0,1,6.14,1.89,17.27,17.27,0,0,1,1.83,3.45c2.11,8.89-2.16,12.43-2.19,14.17,0,.7,3.61-.83,3.91-1.18,2.93-3.71,1.59-12.43.8-14.41a18.33,18.33,0,0,0-1-2.1,18.28,18.28,0,0,0-.59-2.85,19.38,19.38,0,0,1-.81-4C102.91,111,103.36,107.87,105.7,106.06Z"/><path class="cls-2" d="M176.5,86.32c-3.49-2.51-8.07,3-10.16,5.17a15.93,15.93,0,0,1-7.94,4.69,16.56,16.56,0,0,1-4.82.12c-1.08-.08-2.39-.21-3-1.08,6.11-1.14,11.25-6.37,14.83-11.13a31.53,31.53,0,0,0,5.27-11c.83-3.25,1.13-7.63-.88-10.53a3.48,3.48,0,0,0-5.19-.6c-2.48,1.86-3.07,5.49-3.54,8.34-.56,3.43-.71,6.92-1.55,10.31a14.08,14.08,0,0,1-5,7.76c-1.21-2-.73-5-.32-7.08a37.33,37.33,0,0,1,2.4-7.65c1.2-2.81,4.3-9.05.58-11.18-2.1-1.2-4.39.34-5.48,2.08-1.4,2.26-1.78,5.31-2,7.91-.3,3.79.83,7.39,1.31,11.12a10.18,10.18,0,0,1-.86,6.08c0,.11-.11.22-.17.33-3.22,4.27-8.67,5-13.91,6.13a37.84,37.84,0,0,0-7.53,2.4c.38-.57.76-1.14,1.13-1.64a20,20,0,0,1,7.48-6.3c3.83-1.81,11.08-2.74,11.48-8.16.12-1.68-.76-3.67-2.48-4.15-1.34-.36-2.72.93-3.58,1.75-1.4,1.35-2.57,2.93-3.89,4.36a14.07,14.07,0,0,1-1.81,1.81c2.47-4.72,1-11.49,4.47-16,2.33-3,5-5.78,6.63-9.23A16.53,16.53,0,0,0,149.11,50c-.5-1.91-2.3-4.32-4.57-3.63-2.85.86-3,4.7-3.08,7.11-.14,4.61,1,9.51-1.41,13.75-.26.47-.84,1.29-1.48,1.21s-1.11-1.65-1.3-2.18v0C136.83,62.1,136.7,57.9,135,54a11.25,11.25,0,0,0-5.07-5.56c-2.62-1.35-4.81.39-5.61,2.91-.91,2.85,2.24,6,3.73,8.08,2.23,3.1,4.62,6.11,6.17,9.63,2.22,5,1.41,10.6-.35,15.67-.71-.59-.92-2.25-1.08-2.93-.56-2.34-.86-4.74-1.34-7.1-.36-1.77-.69-3.86-1.93-5.28a3.49,3.49,0,0,0-4.89,0c-1.55,1.71-1.07,4.35-.56,6.37a16.65,16.65,0,0,0,3.23,6.37c1.83,2.28,4.74,4.54,4,7.81-.57,2.47-2.74,5-4.29,6.86a30.65,30.65,0,0,1-6.85,6.61,3,3,0,0,1-.92-2.07,5.5,5.5,0,0,1,1.49-4.88c1.93-1.93,7-5.85,3.49-8.65-4.19-3.31-6.57,3.05-6.84,8a39.47,39.47,0,0,0-3.12-4.63,29.79,29.79,0,0,1-2.16-3.39c0-.17-.06-.35-.1-.52.49-3,4.28-4.4,6-6.63,2.62-3.44,3.11-8.18,3.25-12.35.1-3.28.76-10.47-3.53-11.52-2.45-.6-4.24,1.76-4.75,3.82-.67,2.69,0,5.68.47,8.35a28,28,0,0,1,.25,8.37,14.26,14.26,0,0,1-1.32,4.43,6.23,6.23,0,0,1-1.47,1.89c-.37-1-.75-1.94-1-2.89-1.06-3.47-1.78-7-1.07-10.62.55-2.8,2.06-5.42,2.4-8.25a13.72,13.72,0,0,0-.49-5.33,5.15,5.15,0,0,0-2.33-3.39c-1.56-.77-3.1.58-4,1.72-1.43,1.81-1.12,4-.65,6.13a21.71,21.71,0,0,1,.66,3.74,3.6,3.6,0,0,1-1.43,3,8.8,8.8,0,0,1-1.39-1.28c-.23-.26-.47-.55-.7-.86-.24-.78-.43-1.57-.59-2.32-.52-2.3-.89-4.64-1.51-6.92C98,53.64,95.67,47.51,92,50c-1.37.9-1.58,2.92-1.63,4.4a12.22,12.22,0,0,0,1.56,6.11,26.48,26.48,0,0,0,4.92,6.32c1.82,1.8,4.14,3,6,4.75,1,2,1.94,4,2.75,6.13,1,2.55,1.81,5.15,2.82,7.68a30.45,30.45,0,0,0,2,4.18,18.78,18.78,0,0,0-2.67-1.39c-2-.82-5.08-1.46-6.07,1A4.26,4.26,0,0,0,102,93c.83,1.17,2.5,1,3.72.79,1.55-.32,3-1,4.62-1.15,1.17-.13,2.28.68,3.32,1.61a19.74,19.74,0,0,1,2.56,4.52,8.54,8.54,0,0,1,.52,3,8.35,8.35,0,0,0-1.35-1.88,3.77,3.77,0,0,0-2.3-1.23,2.65,2.65,0,0,0-2.43,1.37,1.33,1.33,0,0,0,.47,1.81c.95.55,1.91,1.08,2.81,1.71s1.35,1.41,2.26,1.63a29.06,29.06,0,0,1-1.11,3.08c-.6,1.44-1.17,2.87-1.69,4.31-.45-3.16-2.16-6.48-5.17-5.45-2.22.76-3.56,3.33-1.5,5a19.22,19.22,0,0,0,3.19,1.8c1.34.73,1.53,2.46,2,3.85a30,30,0,0,0-.68,5.59c0,2,1.84,13.88,3.72,15.06.27.17,2.81-.57,2.54-1.76-1.7-7.48-6.46-21.51,5.84-31.09.41-.32.83-.62,1.25-.92a4.46,4.46,0,0,1,3.73,1.13c.95.69,1.82,1.47,2.83,2.08,2,1.21,4.12.44,4-2.1s-2.84-3.14-4.85-3.25c-.59,0-1.36-.05-2.18,0a33.1,33.1,0,0,1,17.75-4.18c8.21.62,16.88,5.51,25,1.43a16.62,16.62,0,0,0,6.67-6.18C178.81,91.29,178.82,88,176.5,86.32Z"/><path class="cls-2" d="M138.64,109.17c-2-1.52-5-.83-7.16-.21a16.82,16.82,0,0,0-7,4.06c-3.46,3.31-5.36,8.48-5.88,13.27-.11.44-1.08,4.5,1.46,10.17a1.06,1.06,0,0,0,2-.78c-2.35-9.39.69-14,3.45-16,2.41-1.72,5.81-1.38,8.61-1.65,2.33-.21,4.61-1,5.83-3.07A4.65,4.65,0,0,0,138.64,109.17Z"/><path class="cls-3" d="M73.38,50.75a1.53,1.53,0,0,0-1.73-1,1,1,0,0,0-.73.73,1,1,0,0,0,.14.83s.1.21,0,.08h0a2,2,0,0,0,.26.47,1.18,1.18,0,0,0,1.59.42A1.2,1.2,0,0,0,73.38,50.75Z"/><path class="cls-3" d="M71.44,53.34a1.62,1.62,0,0,0-.84-.48A.93.93,0,0,0,69.47,54a1.56,1.56,0,0,0,1.1,1.23.88.88,0,0,0,1.18-.81v-.09A1.12,1.12,0,0,0,71.44,53.34Z"/><path class="cls-3" d="M75.18,53.46a1.7,1.7,0,0,0-.81-.27.76.76,0,0,0-.83,1c-.12-.31.11.34.11.34a4.86,4.86,0,0,0,.31.41,2.29,2.29,0,0,0,.23.21,1,1,0,0,0,.42.25c.27,0,.33,0,.17,0a.8.8,0,0,0,1-.77A1.27,1.27,0,0,0,75.18,53.46Z"/><path class="cls-3" d="M76.23,49.83a1,1,0,0,0-1,.72,1,1,0,0,0,.69,1.2h0l.12.13a.8.8,0,0,0,1.08,0A1.18,1.18,0,0,0,76.23,49.83Z"/><path class="cls-3" d="M76.1,51.88l0,0C76.13,51.92,76.13,51.91,76.1,51.88Z"/><path class="cls-3" d="M79.6,54.27a.94.94,0,0,0-1.09-.14.91.91,0,0,0-.33,1.24,3.88,3.88,0,0,1,.3.44.92.92,0,0,0,.87.66.91.91,0,0,0,.9-.9A1.56,1.56,0,0,0,79.6,54.27Z"/><path class="cls-3" d="M79.71,59.06a2,2,0,0,0-.89-.82.74.74,0,0,0-1.1.93,2,2,0,0,0,.51,1A1,1,0,0,0,79.71,59.06Z"/><path class="cls-3" d="M74.22,58.1c-.68-.71-1.69.33-1.07,1.06a5,5,0,0,0,.6.77.64.64,0,0,0,1.09-.45A2.05,2.05,0,0,0,74.22,58.1Z"/><path class="cls-3" d="M81.33,63.5c-.66-.71-1.92.23-1.35,1a.57.57,0,0,1,.09.28,1.45,1.45,0,0,0,.39.73A.85.85,0,0,0,81.9,65,2.12,2.12,0,0,0,81.33,63.5Z"/><path class="cls-3" d="M105.74,57.09a3.71,3.71,0,0,0-.22-.55l0-.08c0-.12-.17-.43-.1-.26-.07-.17-.14-.36-.17-.45a1.08,1.08,0,0,0-.12-.24.05.05,0,0,0,0,0,.49.49,0,0,0-.88-.25.44.44,0,0,0-.16.1.92.92,0,0,0-.23.25,2.47,2.47,0,0,0-.26.63,2.24,2.24,0,0,0,.27,1.7,1.09,1.09,0,0,0,1.19.49A1.06,1.06,0,0,0,105.74,57.09Z"/><path class="cls-3" d="M108,52.43l0-.08a.83.83,0,0,0-1.58,0h0a2,2,0,0,0,.06,2.17,1,1,0,0,0,.85.49,1,1,0,0,0,1-.72A2.62,2.62,0,0,0,108,52.43Z"/><path class="cls-3" d="M111.38,55.44a1,1,0,0,0-.93-.71,1,1,0,0,0-1,1,2.81,2.81,0,0,0,.51,2.07.93.93,0,0,0,1.45-.19C111.86,56.91,111.5,56.15,111.38,55.44Z"/><path class="cls-3" d="M109.22,60.59a.93.93,0,0,0-1.85,0,2.8,2.8,0,0,0,0,1.08.93.93,0,0,0,1.79,0A2.8,2.8,0,0,0,109.22,60.59Z"/><path class="cls-3" d="M115.36,58.75a.94.94,0,0,0-1.61,0,2.66,2.66,0,0,0-.06,2.24,1,1,0,0,0,1.73,0A2.66,2.66,0,0,0,115.36,58.75Z"/><path class="cls-3" d="M118.48,58.12a4.71,4.71,0,0,0-.31-.73s0-.07,0-.09-.19-.47-.13-.29a1,1,0,0,0-1.81,0,2.83,2.83,0,0,0,.22,2A1.14,1.14,0,0,0,118.48,58.12Z"/><path class="cls-3" d="M121.52,59.36a.94.94,0,0,0-1.81,0c-.14.86-.49,2.13.43,2.67a1,1,0,0,0,1,0C122,61.49,121.66,60.22,121.52,59.36Z"/><path class="cls-3" d="M118.66,63.91a1,1,0,0,0-2,0,5,5,0,0,0,0,1.73,1,1,0,0,0,1.91,0A5.57,5.57,0,0,0,118.66,63.91Z"/><path class="cls-3" d="M115.87,67a.76.76,0,0,0-1.46,0,2.25,2.25,0,0,0,0,1.85.84.84,0,0,0,1.44,0A2.25,2.25,0,0,0,115.87,67Z"/><path class="cls-3" d="M118.22,71a3.23,3.23,0,0,0,0,.44.84.84,0,0,0,1.67,0,3.23,3.23,0,0,0,0-.44A.84.84,0,0,0,118.22,71Z"/><path class="cls-3" d="M125.86,52.4a3.3,3.3,0,0,0-.52-1A2.67,2.67,0,0,0,125,51a2.75,2.75,0,0,0-.26-.22c-.26-.11-.31-.13-.16-.06a.83.83,0,0,0-1.21.5,2.23,2.23,0,0,0,1,2.41A1.07,1.07,0,0,0,125.86,52.4Z"/><path class="cls-3" d="M128.07,49.2a2.26,2.26,0,0,0-.85-1.13,2.75,2.75,0,0,0-1.1-.63.87.87,0,0,0-1.05,1.05c.21.92,1,2,2,2A1.07,1.07,0,0,0,128.07,49.2Z"/><path class="cls-3" d="M131,53.74c-.5-.42-1.46-.19-1.41.59a2.17,2.17,0,0,0,.83,1.92,1,1,0,0,0,1.53-.88A2.07,2.07,0,0,0,131,53.74Z"/><path class="cls-3" d="M132,49a2.72,2.72,0,0,0-.73-.78,1,1,0,0,0-1.41.81,2,2,0,0,0,.88,1.79,1,1,0,0,0,1.49-.61A1.61,1.61,0,0,0,132,49Z"/><path class="cls-3" d="M128.7,57.27a.68.68,0,0,1,0-.14.83.83,0,0,0-.43-.53.61.61,0,0,0-.8,0,.85.85,0,0,0-.42.53l0,.14a.88.88,0,1,0,1.7,0Z"/><path class="cls-3" d="M135.77,56a1,1,0,0,0-1.36,0,1.62,1.62,0,0,0-.13,2.13.87.87,0,0,0,1.23,0,1.05,1.05,0,0,0,.33-.6c0-.11,0-.22,0-.33A.94.94,0,0,0,135.77,56Z"/><path class="cls-3" d="M133.73,61c0-1-1.65-1-1.59,0a3.59,3.59,0,0,0,.37,1.4.72.72,0,0,0,1.3-.17A4.58,4.58,0,0,0,133.73,61Z"/><path class="cls-3" d="M36.33,88.61a1.83,1.83,0,0,0-.79-1l-.41-.28c-.08-.05-.29-.09-.34-.14a.87.87,0,0,0-1.22,1.23s.1.26.15.33a3.17,3.17,0,0,0,.4.49,1.66,1.66,0,0,0,1.31.59A1,1,0,0,0,36.33,88.61Z"/><path class="cls-3" d="M37.67,87.63h0S37.59,87.57,37.67,87.63Z"/><path class="cls-3" d="M37.65,85.7a.94.94,0,0,0-.41,1.55,2.92,2.92,0,0,0,.41.37l.35.25c-.28-.17.26.19.32.23a1.43,1.43,0,0,0,.72.21,1,1,0,0,0,1-1C40.07,86,38.68,85.53,37.65,85.7Z"/><path class="cls-3" d="M39.66,90.3a1,1,0,0,0,0,2h.09l0,0a1.73,1.73,0,0,0,.37.16.93.93,0,0,0,1.16-.88C41.37,90.65,40.42,90.29,39.66,90.3Z"/><path class="cls-3" d="M38.31,93.15a2,2,0,0,0-.7-.29l-.21-.06c.17,0-.64-.11-.25,0-.59-.14-1.34.42-1.08,1.08a1.89,1.89,0,0,0,.82,1,1.43,1.43,0,0,0,1.77,0,1,1,0,0,0,.27-.72A1.2,1.2,0,0,0,38.31,93.15Z"/><path class="cls-3" d="M44,94.79a1.55,1.55,0,0,0-.46-.31,1.78,1.78,0,0,0-.36-.14.21.21,0,0,1,.13.09,1.1,1.1,0,0,0-1.52,0,1.08,1.08,0,0,0,0,1.53,3.14,3.14,0,0,0,1.19.58A1.06,1.06,0,0,0,44,94.79Z"/><path class="cls-3" d="M44.78,89.1a3.24,3.24,0,0,0-.74-.43.55.55,0,0,0-.75.74,3.48,3.48,0,0,0,.43.75C44.39,90.86,45.49,89.76,44.78,89.1Z"/><path class="cls-3" d="M69.28,87s0,0,0,0a.14.14,0,0,1,0-.06Z"/><path class="cls-3" d="M71.44,87a1.11,1.11,0,0,0-2.15,0c-.06.11-.1.22-.15.33s-.06.24-.1.36A2.48,2.48,0,0,0,69,88.77a1.24,1.24,0,0,0,2,.54A2.48,2.48,0,0,0,71.44,87Z"/><path class="cls-3" d="M74.21,85.61a.76.76,0,0,0-1.45,0,1.34,1.34,0,0,0,0,1.26.81.81,0,0,0,1.38,0A1.37,1.37,0,0,0,74.21,85.61Z"/><path class="cls-3" d="M73.1,88.48c-.81-.06-1.13.83-1.16,1.49a1,1,0,0,0,2,0C74,89.37,73.83,88.53,73.1,88.48Z"/><path class="cls-3" d="M76.61,87.26a.76.76,0,0,0-1.29,0,1.49,1.49,0,0,0,0,1.89.87.87,0,0,0,1.23,0A1.49,1.49,0,0,0,76.61,87.26Z"/><path class="cls-3" d="M76.17,91.78a.62.62,0,0,0-1.19,0,2.17,2.17,0,0,0-.16,1.84.78.78,0,0,0,1.2.16C76.61,93.31,76.4,92.38,76.17,91.78Z"/><path class="cls-3" d="M70.47,92.18A1.06,1.06,0,0,0,68.85,92a1.65,1.65,0,0,0-.18,2.15,1.16,1.16,0,0,0,2.17-.59A2.32,2.32,0,0,0,70.47,92.18Z"/><path class="cls-3" d="M73.45,94a.91.91,0,0,0-1.75,0,2.52,2.52,0,0,0,.09,1.83,1,1,0,0,0,1.12.45,1,1,0,0,0,.73-.95A4,4,0,0,0,73.45,94Z"/><path class="cls-3" d="M55.78,103.49a2.11,2.11,0,0,0-1.75-.94,1.21,1.21,0,0,0-1,1.8,1.91,1.91,0,0,0,1.71,1A1.26,1.26,0,0,0,55.78,103.49Z"/><path class="cls-3" d="M54.33,106.83c.07.18.05.14,0-.11a.92.92,0,0,0-.32-.33,2.2,2.2,0,0,0-.54-.23,1.6,1.6,0,0,0-.59-.07.41.41,0,0,0-.19,0s-.72.12-.35.07a.79.79,0,0,0-.47,1.16c-.07-.17,0-.13,0,.11a1.16,1.16,0,0,0,.2.24,1.82,1.82,0,0,0,.71.38,1.45,1.45,0,0,0,.85,0A.64.64,0,0,0,54,108l.29-.31A.71.71,0,0,0,54.33,106.83Z"/><path class="cls-3" d="M54.25,107.65l0,0C54.28,107.63,54.28,107.63,54.25,107.65Z"/><path class="cls-3" d="M56.74,106.84a1.35,1.35,0,0,0-1,.36.92.92,0,0,0,.19,1.43,1.13,1.13,0,0,0,1.59-.39A1,1,0,0,0,56.74,106.84Z"/><path class="cls-3" d="M58.07,104.71a1.09,1.09,0,0,0-1.26.54.75.75,0,0,0,.81,1.1h0a1.47,1.47,0,0,0,.41-.07C58.81,106.1,58.88,104.84,58.07,104.71Z"/><path class="cls-3" d="M53.43,110.28a1.74,1.74,0,0,0-2.35-.07.92.92,0,0,0,0,1.27,3.31,3.31,0,0,0,1.31.58C53.43,112.43,54.14,111,53.43,110.28Z"/><path class="cls-3" d="M51.49,112.44a2.11,2.11,0,0,0-2.05-.36,1.11,1.11,0,0,0-.27,2,2,2,0,0,0,2.32-.15A1.07,1.07,0,0,0,51.49,112.44Z"/><path class="cls-3" d="M53.4,115.37a1.63,1.63,0,0,0-1.66.45.9.9,0,0,0,.63,1.52,3,3,0,0,0,1-.07A1,1,0,0,0,53.4,115.37Z"/><path class="cls-3" d="M55.66,112.85a1.25,1.25,0,0,0-.91-.1.86.86,0,0,0,0,1.66,1.25,1.25,0,0,0,.91-.1A.85.85,0,0,0,55.66,112.85Z"/><path class="cls-3" d="M57.63,111.12a1,1,0,0,0-1-.32c-.68.13-.62,1-.17,1.32l.27.2C57.44,112.83,58.21,111.72,57.63,111.12Z"/><path class="cls-3" d="M58.37,115.32a.16.16,0,0,0-.09,0,.68.68,0,0,0-.84.64.67.67,0,0,0,.84.63l.09,0A.64.64,0,0,0,58.37,115.32Z"/><path class="cls-3" d="M71.37,112.33a1.13,1.13,0,0,0-.29-.51,1.1,1.1,0,0,0-1.11-.29,1.76,1.76,0,0,0-1.24,1.3.89.89,0,0,0,.4,1,1.68,1.68,0,0,0,1.72-.2A1.18,1.18,0,0,0,71.37,112.33Z"/><path class="cls-3" d="M72.32,116a1.14,1.14,0,0,0-1.08-.82,1.62,1.62,0,0,0-1,.33c-.08.06-.17.1-.25.15.37-.24-.09,0-.22.1a1.14,1.14,0,0,0-.52,1.28,1.43,1.43,0,0,0,1.8.92,1.85,1.85,0,0,0,1-.76A1.5,1.5,0,0,0,72.32,116Z"/><path class="cls-3" d="M75.43,114.83a.94.94,0,0,0-1.28.34,6.47,6.47,0,0,0-.49.85.86.86,0,0,0,1.17,1.17,2.21,2.21,0,0,0,1-1.3A1,1,0,0,0,75.43,114.83Z"/><path class="cls-3" d="M73.76,113a.56.56,0,0,0-.8-.17c-.71.22-.42,1.36.29,1.11a1.12,1.12,0,0,0,.42-.25A.56.56,0,0,0,73.76,113Z"/><path class="cls-3" d="M73.65,109.88a1.1,1.1,0,0,0-1.25.18.61.61,0,0,0,.47,1.11c.4-.06.79-.09,1-.5A.6.6,0,0,0,73.65,109.88Z"/><path class="cls-3" d="M75.82,111.79a1.71,1.71,0,0,0-.21.26.5.5,0,1,0,.79.61,1,1,0,0,0,.2-.42A.47.47,0,0,0,75.82,111.79Z"/><path class="cls-3" d="M96.09,74.61a2.9,2.9,0,0,0-.3-1.46,1.09,1.09,0,0,0-1.68-.22,2.35,2.35,0,0,0-.64,1.33,5.63,5.63,0,0,0-.1.91,1.81,1.81,0,0,0,.51,1.16,1.22,1.22,0,0,0,1.72,0,2.11,2.11,0,0,0,.46-.79A2.65,2.65,0,0,0,96.09,74.61Z"/><path class="cls-3" d="M99.16,76.7a1.56,1.56,0,0,0-1.09-1.17,1,1,0,0,0-1.26.72,2.23,2.23,0,0,0,.11,1.81,1.17,1.17,0,0,0,1.58.42A1.62,1.62,0,0,0,99.16,76.7Z"/><path class="cls-3" d="M95.56,79.19l-.27-.11.08,0-.13-.06a1,1,0,0,0-.7.09l-.1,0a1.18,1.18,0,0,0-.4.4,1.34,1.34,0,0,0-.18.78,1.14,1.14,0,0,0,2.28,0A1.3,1.3,0,0,0,95.56,79.19Z"/><path class="cls-3" d="M94.54,79.15Z"/><path class="cls-3" d="M95.37,79.12Z"/><path class="cls-3" d="M92.65,76.82a.9.9,0,0,0-1.3,0A2,2,0,0,0,91.14,79a1,1,0,0,0,1.72,0A1.94,1.94,0,0,0,92.65,76.82Z"/><path class="cls-3" d="M92.87,81.87a1,1,0,0,0-1.14.15,1.29,1.29,0,0,0-.26,1.65.93.93,0,0,0,1.58,0,1.23,1.23,0,0,0,.19-.44,2.51,2.51,0,0,0,0-.27c0-.13,0-.14,0,0A.93.93,0,0,0,92.87,81.87Z"/><path class="cls-3" d="M94.19,85.36a2.15,2.15,0,0,0,0,1.54.65.65,0,0,0,1.1,0,7.77,7.77,0,0,0,.26-1.16A.71.71,0,0,0,94.19,85.36Z"/><path class="cls-3" d="M97.66,81.77a2.18,2.18,0,0,0,.1.84.71.71,0,0,0,1.18.31,1.26,1.26,0,0,0,.43-1.15A.86.86,0,0,0,97.66,81.77Z"/><path class="cls-3" d="M91.84,48a.84.84,0,0,0-1.39.36,3.45,3.45,0,0,0,.33,2.38,1.17,1.17,0,0,0,1.31.53,1.13,1.13,0,0,0,.84-1.11A3.37,3.37,0,0,0,91.84,48Z"/><path class="cls-3" d="M96.68,49.43a.94.94,0,0,0-.83-.48,1,1,0,0,0-.92.71,2.21,2.21,0,0,0,.61,2.51A1,1,0,0,0,96.75,52C97.54,51.4,97,50.15,96.68,49.43Z"/><path class="cls-3" d="M91.44,54a2,2,0,0,0-.78-1c-.49-.4-1.4-.17-1.35.58,0-.21,0,.24,0,.29a3.81,3.81,0,0,0,.08.59c.1.48.16.91.65,1.16a.92.92,0,0,0,1,0A1.29,1.29,0,0,0,91.44,54Z"/><path class="cls-3" d="M95,54.17a7.3,7.3,0,0,0-.78-1.49.94.94,0,0,0-.82-.47,1,1,0,0,0-.91.69,2.39,2.39,0,0,0,.42,2.15,1.17,1.17,0,0,0,1.29.53A1.16,1.16,0,0,0,95,54.17Z"/><path class="cls-3" d="M98.45,52.93l.42.24-.06-.08a.93.93,0,0,0-1.58.66h0a2.75,2.75,0,0,0,0,1,1.46,1.46,0,0,0,.67,1.14.85.85,0,0,0,.87,0,1.58,1.58,0,0,0,.67-1.44A1.61,1.61,0,0,0,98.45,52.93Z"/><path class="cls-3" d="M96.88,57.52A.91.91,0,0,0,95.6,58.8a1.31,1.31,0,0,0,.12.13s0,0,0,0a.61.61,0,0,0,.15.3A.87.87,0,0,0,97.44,59,1.53,1.53,0,0,0,96.88,57.52Z"/><path class="cls-3" d="M92.58,59.11a3.23,3.23,0,0,0,0,.44.78.78,0,0,0,1.55,0c0-.15,0-.29,0-.44A.78.78,0,0,0,92.58,59.11Z"/><path class="cls-3" d="M97,61.22s-.07-.43-.07-.31c0-.87-1.43-.82-1.32,0a1,1,0,0,0,.58.93A.56.56,0,0,0,97,61.22Z"/><path class="cls-3" d="M65.88,62.72a.83.83,0,0,0-1,1c.23.69.21,1.45.79,2a1,1,0,0,0,1.7-.45A2.24,2.24,0,0,0,65.88,62.72Z"/><path class="cls-3" d="M64.73,66.36c-.71-.2-1.51.66-1,1.33.18.26.33.54.49.82l.1.2s.16.34.07.13a2.92,2.92,0,0,0,.49.81,1.06,1.06,0,0,0,1.06.28,1.13,1.13,0,0,0,.81-1.06A2.6,2.6,0,0,0,64.73,66.36Z"/><path class="cls-3" d="M71.72,64.1a1.86,1.86,0,0,0-1.12-.88.92.92,0,0,0-.89,1.53c-.09-.09,0,0,0,.08l.06.21a3.36,3.36,0,0,0,.34.78.94.94,0,0,0,1.61,0A1.81,1.81,0,0,0,71.72,64.1Z"/><path class="cls-3" d="M70.45,67.92c-.51-.59-1.75-.15-1.64.68s.15,1.7,1,1.92a1,1,0,0,0,1-.42C71.37,69.44,70.92,68.47,70.45,67.92Z"/><path class="cls-3" d="M68.9,72.22a1,1,0,0,0-1.38,1.37c-.07-.09,0,.16,0,.18a1.36,1.36,0,0,0,.38.64.94.94,0,0,0,1.45-.19A1.68,1.68,0,0,0,68.9,72.22Z"/><path class="cls-3" d="M74.38,70.84a1,1,0,0,0-1.4,0A1,1,0,0,0,72.84,72s0,.12.07.25a1.14,1.14,0,0,0,.35.56.88.88,0,0,0,1.24,0A1.39,1.39,0,0,0,74.38,70.84Z"/><path class="cls-3" d="M73.43,75.48a1.23,1.23,0,0,0-1.12-1,.77.77,0,0,0-.77.59.81.81,0,0,0,.56,1c-.25-.08-.2-.16-.1,0C72.4,76.91,73.64,76.31,73.43,75.48Z"/><path class="cls-3" d="M75.73,77.58l0-.09a.64.64,0,0,0-.48-.47.8.8,0,0,0-.31,0,.63.63,0,0,0-.44,1.07,1.39,1.39,0,0,0,.47.31A.65.65,0,0,0,75.73,77.58Z"/><path class="cls-3" d="M57.35,75.09A2,2,0,0,0,56.78,74a1,1,0,0,0-1.68.7s0,.21,0,.31v0a3.09,3.09,0,0,1,0,.43l0,.24a2.7,2.7,0,0,0,.07.41,1.16,1.16,0,0,0,.55.68.92.92,0,0,0,1,0A1.51,1.51,0,0,0,57.35,75.09Z"/><path class="cls-3" d="M57.68,70.33a.88.88,0,0,0-1.37,1.06c-.06-.11,0,.24,0,.28a2.34,2.34,0,0,0,.23.51.78.78,0,0,0,1.33,0A1.43,1.43,0,0,0,57.68,70.33Z"/><path class="cls-3" d="M61.22,73.24h0C61.27,73.26,61.28,73.26,61.22,73.24Z"/><path class="cls-3" d="M61.62,73.48a.84.84,0,0,0-.4-.23l-.35-.08a.81.81,0,0,0-.22,0,.52.52,0,0,0-.57.64,2,2,0,0,0,0,.42,1.83,1.83,0,0,0,.45,1.21.91.91,0,0,0,1.41-.18A1.46,1.46,0,0,0,61.62,73.48Z"/><path class="cls-3" d="M60.15,77.63a.78.78,0,0,0-1.54.16,2.87,2.87,0,0,0,.26,1.85.85.85,0,0,0,1.46,0A2.35,2.35,0,0,0,60.15,77.63Z"/><path class="cls-3" d="M59.63,82.68a.81.81,0,0,0-1.62,0,1.94,1.94,0,0,0,.37,1.63c.49.58,1.38.08,1.4-.58A7.38,7.38,0,0,0,59.63,82.68Z"/><path class="cls-3" d="M61.41,83.27l0,.28a.91.91,0,0,0,1.82,0l0-.28C63.36,82.07,61.32,82.07,61.41,83.27Z"/><path class="cls-3" d="M59.45,87.15l0,.16a.61.61,0,0,0,1.16,0l0-.16A.62.62,0,1,0,59.45,87.15Z"/><path class="cls-3" d="M46,72.27c-.2-.85-1.66-.93-1.79,0a2.23,2.23,0,0,0,.8,2.26A.87.87,0,0,0,46.31,74,4.51,4.51,0,0,0,46,72.27Z"/><path class="cls-3" d="M47.82,69.16a.88.88,0,0,0-1-.39.86.86,0,0,0-.59,1,2.06,2.06,0,0,0,.95,1.47.78.78,0,0,0,1.13-.45A2,2,0,0,0,47.82,69.16Z"/><path class="cls-3" d="M51.41,73.32a7.89,7.89,0,0,1-.34-1,.88.88,0,0,0-1.73.23,2.36,2.36,0,0,0,.43,1.5.9.9,0,0,0,1.64-.69Z"/><path class="cls-3" d="M49.14,75.24a.8.8,0,0,0-1.45.19,2.3,2.3,0,0,0,0,1.51,1,1,0,0,0,1.88-.25A3,3,0,0,0,49.14,75.24Z"/><path class="cls-3" d="M47,78.11A.94.94,0,0,0,45.83,78,1,1,0,0,0,45.4,79a2.38,2.38,0,0,0,.9,1.46c.58.43,1.38-.16,1.38-.8A2.43,2.43,0,0,0,47,78.11Z"/><path class="cls-3" d="M53,79.75a1,1,0,0,0-2,0,1.91,1.91,0,0,0,.45,1.61.84.84,0,0,0,1.16,0A1.93,1.93,0,0,0,53,79.75Z"/><path class="cls-3" d="M51.71,83.66a2,2,0,0,1-.24-.59.89.89,0,0,0-.86-.86.86.86,0,0,0-.86.86,3.18,3.18,0,0,0,.41,1.5.9.9,0,0,0,1.23.32A.92.92,0,0,0,51.71,83.66Z"/><path class="cls-3" d="M53.61,86.78c.33-.07-.12,0-.19,0a.47.47,0,0,0,0,.89.58.58,0,0,0,.67-.28A.43.43,0,0,0,53.61,86.78Z"/><path class="cls-3" d="M127.59,67.62a.92.92,0,0,0-1.57,0,1.83,1.83,0,0,0,0,2.24,1.07,1.07,0,0,0,1.5,0A1.83,1.83,0,0,0,127.59,67.62Z"/><path class="cls-3" d="M125,70.76a1,1,0,0,0-1.34.35,2.44,2.44,0,0,0-.09,1.84,1.18,1.18,0,0,0,2.31-.32A2.16,2.16,0,0,0,125,70.76Z"/><path class="cls-3" d="M130,69.86a1.14,1.14,0,0,0-1.39,1.39.64.64,0,0,0,.06.18,1.19,1.19,0,0,0,.08.2l0,.07a1.63,1.63,0,0,0,.77,1,1.21,1.21,0,0,0,1.74-.71A1.75,1.75,0,0,0,130,69.86Z"/><path class="cls-3" d="M128.58,74.13c.13.31-.06-.15-.1-.25s-.15-.34-.09-.19a1,1,0,0,0-1.85,0c0-.14,0-.07-.09.2a2.44,2.44,0,0,0-.09.47,1.43,1.43,0,0,0,.25.92,1.16,1.16,0,0,0,1.56.41A1.18,1.18,0,0,0,128.58,74.13Z"/><path class="cls-3" d="M132.08,75.12a1,1,0,0,0-1.93,0c-.18.77-.07,1.65.81,1.92a.92.92,0,0,0,.89-.24A1.66,1.66,0,0,0,132.08,75.12Z"/><path class="cls-3" d="M126.54,77.86c-.67-.47-1.34.41-1,1a2.67,2.67,0,0,0,.39.65.72.72,0,0,0,1.2-.32A1.21,1.21,0,0,0,126.54,77.86Z"/><path class="cls-3" d="M130,80a.55.55,0,0,0-.47-.26.6.6,0,0,0-.59.59,1.06,1.06,0,0,0,.28.71.67.67,0,0,0,1-.14A.64.64,0,0,0,130,80Z"/><path class="cls-3" d="M145.48,46.31a2.69,2.69,0,0,0-.43-1l0-.06a.86.86,0,0,0-1.48,0l0,.07a2.45,2.45,0,0,0-.4.88,1.93,1.93,0,0,0,.36,1.82,1.14,1.14,0,0,0,1.62,0A1.88,1.88,0,0,0,145.48,46.31Z"/><path class="cls-3" d="M142.49,49.26c-.06-.22-.13-.43-.2-.64s-.11-.26-.17-.39-.26-.45-.18-.29a.92.92,0,0,0-1.58,0,2.36,2.36,0,0,0-.3,1.11,2,2,0,0,0,.59,1.42,1.09,1.09,0,0,0,1.06.28A1.24,1.24,0,0,0,142.49,49.26Z"/><path class="cls-3" d="M148.72,48c-.24-.75-1.09-1.46-1.83-.78a1.75,1.75,0,0,0-.4,1.19,1.6,1.6,0,0,0,.68,1.47,1,1,0,0,0,1,0A1.62,1.62,0,0,0,148.72,48Z"/><path class="cls-3" d="M145.58,51.37a1.09,1.09,0,0,0-2.08,0,2.29,2.29,0,0,0-.05,1.16c.21.49.51.9,1.09.9s.88-.41,1.09-.9A2.29,2.29,0,0,0,145.58,51.37Z"/><path class="cls-3" d="M149.7,52.59a.9.9,0,0,0-1.72,0,3.55,3.55,0,0,0-.08,1.25.9.9,0,0,0,1.48.39A1.75,1.75,0,0,0,149.7,52.59Z"/><path class="cls-3" d="M143,55.78a.8.8,0,0,0-1.45-.62,1.41,1.41,0,0,0-.27.93.89.89,0,0,0,.87.86.87.87,0,0,0,.86-.86A1.09,1.09,0,0,1,143,55.78Z"/><path class="cls-3" d="M146.15,57.65a.83.83,0,0,0-1.66,0v.26a.84.84,0,0,0,1.67,0C146.16,57.83,146.15,57.74,146.15,57.65Z"/><path class="cls-3" d="M154.58,62.81a.82.82,0,0,0-1.36-.78l-.17.12a2,2,0,0,0-.52.56,1.63,1.63,0,0,0-.19,1.37,1.13,1.13,0,0,0,2,.26,1.71,1.71,0,0,0,.24-.94c0-.13,0-.24,0-.36Z"/><path class="cls-3" d="M153.05,62.15h0S153,62.17,153.05,62.15Z"/><path class="cls-3" d="M157.47,62.58a1,1,0,0,0-1.35,0,2.54,2.54,0,0,0-.35.46s-.14.3-.19.42a1.74,1.74,0,0,0,0,1.63,1.07,1.07,0,0,0,1.17.48A1.85,1.85,0,0,0,157.47,62.58Z"/><path class="cls-3" d="M155.55,63.52l0-.06h0Z"/><path class="cls-3" d="M155.55,63.52Z"/><path class="cls-3" d="M153.52,66.65a1.48,1.48,0,0,0-.67,1,1.19,1.19,0,0,0,.52,1.27l0,0a1,1,0,0,0,1,0,1.13,1.13,0,0,0,.57-.71c.06-.32.06-.39,0-.22,0-.34,0-.4,0-.19C155.37,67,154.26,66.09,153.52,66.65Z"/><path class="cls-3" d="M151.24,67.43c.11-.83-1.2-1.13-1.56-.42s-.66,1.77.18,2.29a.82.82,0,0,0,.83,0C151.42,68.86,151.16,68.12,151.24,67.43Z"/><path class="cls-3" d="M158.81,68.29a1,1,0,0,0-1.42,0,1.73,1.73,0,0,0-.52,1.23.91.91,0,0,0,1.36.77,1.46,1.46,0,0,0,.45-.41s.24-.31.13-.18A1,1,0,0,0,158.81,68.29Z"/><path class="cls-3" d="M152.06,72a1,1,0,0,0-1.3.34,1.18,1.18,0,0,0,.14,1.56c.45.39,1.37.33,1.48-.39a1.85,1.85,0,0,0,0-.23A1,1,0,0,0,152.06,72Z"/><path class="cls-3" d="M152.58,76.56a.86.86,0,0,0,0,.16.69.69,0,0,0,1.37,0,.86.86,0,0,0,0-.16C154,75.66,152.53,75.66,152.58,76.56Z"/><path class="cls-3" d="M166.68,60.91c0-.52-.65-1-1.15-.66a2.58,2.58,0,0,0-.81.8,2.43,2.43,0,0,0-.39,1.28,1.21,1.21,0,0,0,2.37.33A7.84,7.84,0,0,0,166.68,60.91Z"/><path class="cls-3" d="M169.24,62.76a1,1,0,0,0-1.69,0,1.66,1.66,0,0,0,.43,2.29,1.08,1.08,0,0,0,1.27-.17A1.62,1.62,0,0,0,169.24,62.76Z"/><path class="cls-3" d="M165.28,66.64h0l0,0Z"/><path class="cls-3" d="M167.34,67.52c0,.22,0,.15,0-.22l-.08-.2a1.05,1.05,0,0,0-1.94-.46l-.21.27a1.5,1.5,0,0,0-.22.5,1.74,1.74,0,0,0,.17,1.41,1.35,1.35,0,0,0,1.1.63,1.28,1.28,0,0,0,1.23-.93A2,2,0,0,0,167.34,67.52Z"/><path class="cls-3" d="M169.73,67.31c.18-.52-.15.27,0,0Z"/><path class="cls-3" d="M171.94,66.11a1.15,1.15,0,0,0-1.78.23,1.76,1.76,0,0,0-.17.37l-.13.33,0,0-.11.23c0,.06,0,.13-.09.23a1.52,1.52,0,0,0,.92,2.09C172.54,70.13,173.21,67.2,171.94,66.11Z"/><path class="cls-3" d="M163.2,64.07a.56.56,0,0,0-.81-.39,2,2,0,0,0-1.4,2.06,1.2,1.2,0,0,0,.86,1.12,1.17,1.17,0,0,0,1.43-.81A2.76,2.76,0,0,0,163.2,64.07Z"/><path class="cls-3" d="M164.1,71.61c-.07-.26-.17-.5-.24-.7a1.12,1.12,0,0,0-2.14,0,2.81,2.81,0,0,0,0,1.65,1.24,1.24,0,0,0,1.18.9,1.22,1.22,0,0,0,1.18-.9A2.34,2.34,0,0,0,164.1,71.61Z"/><path class="cls-3" d="M168.41,72.11a.76.76,0,0,0-1.26.33l0,0c.11-.1.07,0-.11.15l-.14.3a1.66,1.66,0,0,0-.15,1.14,1,1,0,0,0,1.45.59,1.47,1.47,0,0,0,.72-1.3A1.7,1.7,0,0,0,168.41,72.11Z"/><path class="cls-3" d="M163.52,77.34c0,.53.17,1.21.84,1.21s.81-.68.83-1.21A.84.84,0,0,0,163.52,77.34Z"/><path class="cls-3" d="M172.53,85.1h0C172.63,85,172.63,85,172.53,85.1Z"/><path class="cls-3" d="M174.43,85.1a1.11,1.11,0,0,0-1.89,0l-.13.16-.16.29a2,2,0,0,0-.32,1.11,1.33,1.33,0,0,0,.63,1.1,1.26,1.26,0,0,0,1.3,0A2,2,0,0,0,174.43,85.1Z"/><path class="cls-3" d="M176.76,85.46c.26,0,.22,0-.12,0a1.19,1.19,0,0,0-.34.16,2.22,2.22,0,0,0-.47.39,1.93,1.93,0,0,0-.47,1.7,1.2,1.2,0,0,0,.87.86,1.24,1.24,0,0,0,1.2-.32C178.33,87.5,178.33,85.24,176.76,85.46Z"/><path class="cls-3" d="M172.59,90.43a2,2,0,0,0-1,1.55,1.07,1.07,0,0,0,.79,1,1.08,1.08,0,0,0,1.32-.75,2.29,2.29,0,0,0,.09-.28v0a1,1,0,0,1,.1-.17C174.49,91,173.39,89.82,172.59,90.43Z"/><path class="cls-3" d="M178.35,89.6c.17,0-.25.05-.31.07a1.69,1.69,0,0,0-.69.39,2.54,2.54,0,0,0-.73,1.19,1.22,1.22,0,0,0,.55,1.35,1.18,1.18,0,0,0,1.45-.19,3.07,3.07,0,0,0,.58-1,2.25,2.25,0,0,0,.12-.54c0,.28,0-.36,0-.29A.81.81,0,0,0,178.35,89.6Z"/><path class="cls-3" d="M175.66,93.85a.87.87,0,0,0-1.13-.33,1.27,1.27,0,0,0-.85.62A1,1,0,0,0,175,95.47a1.54,1.54,0,0,0,.63-.73A.84.84,0,0,0,175.66,93.85Z"/><path class="cls-3" d="M169.52,87.66c.18-.13-.52.23-.28.12a1.66,1.66,0,0,0-.45.35,1.41,1.41,0,0,0-.36,1.35,1,1,0,0,0,1.22.7,1.57,1.57,0,0,0,1.12-1.44C171.05,88,170.22,87.19,169.52,87.66Z"/><path class="cls-3" d="M169.6,93a1,1,0,0,0-1.29-.34A2.3,2.3,0,0,0,167,94a.88.88,0,0,0,.84,1.1c.66,0,1.14-.5,1.59-.91A.92.92,0,0,0,169.6,93Z"/><path class="cls-3" d="M168.78,97.66c-.12-.88-1.58-.84-1.74,0,0,.1-.15.5,0,.24-.35.87.9,1.47,1.5.88A1.2,1.2,0,0,0,168.78,97.66Z"/><path class="cls-3" d="M140.08,109.17a1.83,1.83,0,0,0-2.84.32,1.29,1.29,0,0,0,.19,1.51,1.92,1.92,0,0,0,2.65,0A1.28,1.28,0,0,0,140.08,109.17Z"/><path class="cls-3" d="M135.92,109.42a1.62,1.62,0,0,0-1.51-1,1.69,1.69,0,0,0-1.77,1.3,1.25,1.25,0,0,0,.32,1.21,1.24,1.24,0,0,0,1.21.32,4.23,4.23,0,0,0,1.51-.87A.93.93,0,0,0,135.92,109.42Z"/><path class="cls-3" d="M140.69,112.81a2.89,2.89,0,0,0-1.43,0,2.13,2.13,0,0,0-1.4.86,1.28,1.28,0,0,0,.46,1.74,2.62,2.62,0,0,0,2.9-.57A1.22,1.22,0,0,0,140.69,112.81Z"/><path class="cls-3" d="M136.33,113.71a1.06,1.06,0,0,0-1.05-1,1.74,1.74,0,0,0-1,.29,1.06,1.06,0,0,0,.25,1.93,1,1,0,0,0,.82-.1l0,0A1,1,0,0,0,136.33,113.71Z"/><polygon class="cls-3" points="137.16 117.03 137.16 117.03 137.16 117.03 137.16 117.03"/><path class="cls-3" d="M137.16,117s-.19-.17,0,0Z"/><path class="cls-3" d="M137.12,117s0,0,0,0a1.64,1.64,0,0,0-.68-.38,1.82,1.82,0,0,0-1.41.08,1.16,1.16,0,0,0-.54,1.32,1.73,1.73,0,0,0,1.25,1.14,1.57,1.57,0,0,0,.91,0c.06,0,.63-.23.43-.17A1,1,0,0,0,137.12,117Z"/><path class="cls-3" d="M131.24,114.21a6.55,6.55,0,0,0-.77.15,1.21,1.21,0,0,0,.65,2.33,3.19,3.19,0,0,1,.44-.13,1.2,1.2,0,0,0-.32-2.35Z"/><path class="cls-3" d="M131.36,111.5a1.08,1.08,0,0,0-1.66.51.78.78,0,0,0,.35.89,1.22,1.22,0,0,0,1.31-.11A.76.76,0,0,0,131.36,111.5Z"/><path class="cls-3" d="M126.4,115.15a.9.9,0,0,0-.89-.9,1.59,1.59,0,0,0-1.42,1.1.83.83,0,0,0,.39,1,.88.88,0,0,0,1-.13c.13-.11.3-.17,0-.13A.92.92,0,0,0,126.4,115.15Z"/><path class="cls-3" d="M145.57,77.44a2.31,2.31,0,0,0-1.32.61,1.79,1.79,0,0,0-.54,1.72,1.24,1.24,0,0,0,1.2.91c1,0,1.57-.82,1.89-1.63A1.27,1.27,0,0,0,145.57,77.44Z"/><path class="cls-3" d="M148.28,81.08a1.26,1.26,0,0,0-1.51-.22,2.51,2.51,0,0,0-1,1.92A1.15,1.15,0,0,0,147,83.93a1.74,1.74,0,0,0,1.69-1.42A1.61,1.61,0,0,0,148.28,81.08Z"/><path class="cls-3" d="M142.66,81a.94.94,0,0,0-1.36-.55,1.87,1.87,0,0,0-1,1.94,1.11,1.11,0,0,0,1.37.77,1.51,1.51,0,0,0,1-1.06A1.8,1.8,0,0,0,142.66,81Z"/><path class="cls-3" d="M144.76,84.26l0,0v0Z"/><path class="cls-3" d="M144.72,84.31h0c.07-.19.09-.13,0,0a.93.93,0,0,0-1-1.42,1.85,1.85,0,0,0-.86.51,1.26,1.26,0,0,0-.21,1.53,1,1,0,0,0,1.09.45,1.14,1.14,0,0,0,.75-.6,2.83,2.83,0,0,0,.17-.4l0,0Z"/><path class="cls-3" d="M139.85,86a1.51,1.51,0,0,0-.34.62.71.71,0,0,0,1.17.68,4.63,4.63,0,0,0,.32-.42C141.49,86.16,140.39,85.32,139.85,86Z"/><path class="cls-3" d="M144.09,87.06c-.12.11-.36.22-.46.45a.76.76,0,0,0,.26,1l.06,0a.84.84,0,0,0,.84,0,1.93,1.93,0,0,0,.46-.35A.82.82,0,0,0,144.09,87.06Z"/><path class="cls-3" d="M122.35,88c.28-.67-.41-1.39-1.06-1.39a1.78,1.78,0,0,0-1.64,1.83,1.2,1.2,0,0,0,.87,1.13,1.17,1.17,0,0,0,1.33-.54c.05-.12.11-.25.16-.38v0l0-.06c.06-.11,0-.1,0,0h0A2.29,2.29,0,0,0,122.35,88Z"/><path class="cls-3" d="M123.27,86.81a1.39,1.39,0,0,0,0,2,1,1,0,0,0,1.23.16,1.84,1.84,0,0,0,.72-1.08A1.15,1.15,0,0,0,123.27,86.81Z"/><path class="cls-3" d="M121.41,90.45a1.63,1.63,0,0,0-.46,1.62,1,1,0,0,0,1.46.6,1.65,1.65,0,0,0,.7-1.51A1,1,0,0,0,121.41,90.45Z"/><path class="cls-3" d="M125.81,91.45a.86.86,0,0,0-1.65,0,1.08,1.08,0,0,0,.1.91.84.84,0,0,0,1.45,0A1.12,1.12,0,0,0,125.81,91.45Z"/><path class="cls-3" d="M118.53,91.68s0,.11,0,.16a.7.7,0,0,0,1.4,0s0-.11,0-.16C120,90.76,118.46,90.76,118.53,91.68Z"/><path class="cls-3" d="M120.44,95.33a.54.54,0,0,0-1.08,0,.29.29,0,0,0,0,.16.55.55,0,0,0,1.1,0A.29.29,0,0,0,120.44,95.33Z"/><path class="cls-3" d="M103.54,87.54a1.86,1.86,0,0,0-2.13.7,1.09,1.09,0,0,0,.17,1.3,2,2,0,0,0,2.24.17,1.18,1.18,0,0,0,.59-1A1.22,1.22,0,0,0,103.54,87.54Z"/><path class="cls-3" d="M102.24,91.29a1.55,1.55,0,0,0-2.73-.23,1,1,0,0,0,.58,1.43,2.08,2.08,0,0,0,1.93-.36A.82.82,0,0,0,102.24,91.29Z"/><path class="cls-3" d="M104.67,92.73a1.45,1.45,0,0,0-1.54.09,1,1,0,0,0,.73,1.73,1.45,1.45,0,0,0,1.1-.71A.83.83,0,0,0,104.67,92.73Z"/><path class="cls-3" d="M105.53,89.94a.86.86,0,1,0,0,1.66.92.92,0,0,0,.81-.83A.9.9,0,0,0,105.53,89.94Z"/><path class="cls-3" d="M107.84,89.05a.28.28,0,0,0,0-.13c.06.14,0-.07,0-.11.06-.92-1.48-.91-1.42,0a1.12,1.12,0,0,0,.3.81.68.68,0,0,0,.81.1l.06,0A.59.59,0,0,0,107.84,89.05Z"/><path class="cls-3" d="M109.69,92.14a.75.75,0,0,0-.9-.51.86.86,0,0,0-.68.64c-.25.78.82,1.19,1.27.67A.76.76,0,0,0,109.69,92.14Z"/><path class="cls-3" d="M105.51,98.42v0C105.58,98.08,105.55,98.24,105.51,98.42Z"/><path class="cls-3" d="M105.25,97.44a1.24,1.24,0,0,0-1.31-.29,1.72,1.72,0,0,0-1.15,1.58,1.29,1.29,0,0,0,2.19.91,2.51,2.51,0,0,0,.5-1l0-.18A1.12,1.12,0,0,0,105.25,97.44Z"/><path class="cls-3" d="M108.2,100.51a1.13,1.13,0,0,0-1.08-.82,1.15,1.15,0,0,0-1.07.82c.07-.18,0-.11-.09.2,0,.12,0,.24-.07.36a1.48,1.48,0,0,0,.16,1.05,1,1,0,0,0,1.13.45A1.64,1.64,0,0,0,108.2,100.51Z"/><path class="cls-3" d="M104.16,101.9a1.38,1.38,0,0,0-1.41,1,1.19,1.19,0,0,0,2.16.92c.06-.12.27-.58.09-.22a3.33,3.33,0,0,0,.16-.4A1.05,1.05,0,0,0,104.16,101.9Z"/><path class="cls-3" d="M100.31,99.34a1.87,1.87,0,0,0-.88,1.84.9.9,0,0,0,1.09.63c.84-.21.92-1,1.1-1.71A.79.79,0,0,0,100.31,99.34Z"/><path class="cls-3" d="M101.35,104.81a.89.89,0,0,0,0-1.23.88.88,0,0,0-1.23,0,1.12,1.12,0,0,0-.05,1.56.77.77,0,0,0,1.08,0,1,1,0,0,0,.18-.23C101.4,104.76,101.62,104.48,101.35,104.81Z"/><path class="cls-3" d="M100.4,108.63a1.16,1.16,0,0,0,.28,1,.66.66,0,0,0,.89,0,1.16,1.16,0,0,0,.28-1A.73.73,0,0,0,100.4,108.63Z"/><path class="cls-3" d="M38.88,111.77a1.82,1.82,0,0,0-1.25-.21,1.29,1.29,0,0,0-.88.83,1.52,1.52,0,0,0,.46,1.54,1.14,1.14,0,0,0,.37.32l.2.15a1.87,1.87,0,0,0,.64.22,1.21,1.21,0,0,0,1.5-1.14A1.82,1.82,0,0,0,38.88,111.77Z"/><path class="cls-3" d="M37.57,116.34c-.1-.09-.56-.44-.24-.19-.16-.13-.32-.23-.49-.35l-.07,0-.13-.09s0,0,0,0a.77.77,0,0,0-.94-.13,1.5,1.5,0,0,0-.79,1.33,1.9,1.9,0,0,0,1.4,1.69C37.5,118.93,38.58,117.18,37.57,116.34Z"/><path class="cls-3" d="M43.92,112.46a1.8,1.8,0,0,0-.86-.43,1.77,1.77,0,0,0-.76,0l-.29.13-.12.09a1.09,1.09,0,0,0-.38,1.47c-.1-.28-.08-.24.06.11a2.31,2.31,0,0,0,.31.39c-.16-.23-.13-.18.12.14a.46.46,0,0,0,.07.07l.12.15a1.37,1.37,0,0,0,2.17-.15A1.58,1.58,0,0,0,43.92,112.46Z"/><path class="cls-3" d="M42.51,115.89a1.86,1.86,0,0,0-2.08-.31,1.29,1.29,0,0,0-.26,2,3.92,3.92,0,0,0,.32.25q-.23-.18-.06,0a3.47,3.47,0,0,0,.6.55,1.4,1.4,0,0,0,1.91-.44A1.65,1.65,0,0,0,42.51,115.89Z"/><path class="cls-3" d="M40.53,121.56a2.46,2.46,0,0,0-.81-.76,2.3,2.3,0,0,0-1.83-.38,1.38,1.38,0,0,0-.81,2,2.59,2.59,0,0,0,1,1,2.15,2.15,0,0,0,1.77.37,1.25,1.25,0,0,0,.94-1.24A2.11,2.11,0,0,0,40.53,121.56Z"/><path class="cls-3" d="M43.79,121a1,1,0,0,0-1.61.94c.24.76,1.13,1.48,1.93,1a.89.89,0,0,0,.44-.76C44.53,121.54,44.16,121.35,43.79,121Z"/><path class="cls-3" d="M47,117.54a1.05,1.05,0,0,0-1.48,0,1,1,0,0,0,0,1.47c.08.07.45.36.18.15l.32.23a1,1,0,0,0,1.42-.58A1.16,1.16,0,0,0,47,117.54Z"/><polygon class="cls-3" points="47.74 123.64 47.73 123.64 47.73 123.64 47.74 123.64"/><path class="cls-3" d="M47.73,123.64c-.12,0,0,0,0,0Z"/><path class="cls-3" d="M48.88,122.45a1.47,1.47,0,0,0-1.34-.68c-1.2-.07-1.2,1.93,0,1.87h.19s0,0,0,0A.86.86,0,0,0,48.88,122.45Z"/><path class="cls-3" d="M49.61,125.78a8.33,8.33,0,0,0-1.13-.38c-.72-.26-1,.91-.31,1.14a2.4,2.4,0,0,0,1.32.17A.51.51,0,0,0,49.61,125.78Z"/><path class="cls-3" d="M53.8,122.62l-.15-.06c-.67-.27-.67,1.08,0,.81l.15-.06A.36.36,0,0,0,53.8,122.62Z"/><path class="cls-3" d="M65.39,128.47a1.06,1.06,0,0,0,0,2c.78.18,1.84-.12,1.84-1.09S66.11,128.3,65.39,128.47Z"/><path class="cls-3" d="M67.88,131c-.1-.06-.1,0,0,0a1,1,0,0,0-1.58.41v.07a1,1,0,0,0,.45,1.11.94.94,0,0,0,.63.17,1,1,0,0,0,.94-.71A1,1,0,0,0,67.88,131Z"/><path class="cls-3" d="M70.83,129.41a1.17,1.17,0,0,0-.85,1.46.8.8,0,0,0,1.46.19c-.19.3.2-.24,0,0a.91.91,0,0,0,.2-.24c0-.09.06-.15.08-.18A.82.82,0,0,0,70.83,129.41Z"/><path class="cls-3" d="M71.75,130.6c0-.06,0-.06,0,0Z"/><path class="cls-3" d="M69.71,127.73a1,1,0,0,0-.7.46c-.34.43.29.9.69.69a2.17,2.17,0,0,0,.41-.19A.53.53,0,0,0,69.71,127.73Z"/><path class="cls-3" d="M83.7,129.37a1.28,1.28,0,0,0-.61-.79,1.39,1.39,0,0,0-1.34,0,2.37,2.37,0,0,0-.86,3,1.25,1.25,0,0,0,1.7.44A2.74,2.74,0,0,0,83.7,129.37Z"/><path class="cls-3" d="M85.66,132.7a1.31,1.31,0,0,0-1.78,0,1.51,1.51,0,0,0-.57,1.23,1.24,1.24,0,0,0,2.1.87,2.77,2.77,0,0,0,.44-.58A1.26,1.26,0,0,0,85.66,132.7Z"/><path class="cls-3" d="M88.45,130.05a1.06,1.06,0,0,0-1.29.73,1.8,1.8,0,0,0-.1.4c0,.17,0,.4,0,.56a.87.87,0,0,0,.38.94.83.83,0,0,0,1.13-.3,3.47,3.47,0,0,1,.35-.43,2.28,2.28,0,0,0,.29-.61A1,1,0,0,0,88.45,130.05Z"/><path class="cls-3" d="M86.5,128.8a.88.88,0,0,0-1.51,0,2,2,0,0,0-.17.95.93.93,0,0,0,1.85,0A2.22,2.22,0,0,0,86.5,128.8Z"/><path class="cls-3" d="M80.8,125.24a1.3,1.3,0,0,0-.36,2,.87.87,0,0,0,1.21,0,1.82,1.82,0,0,0,.51-.94A.94.94,0,0,0,80.8,125.24Z"/><path class="cls-3" d="M85.25,125.59a.14.14,0,0,1,0,.06C85.25,125.6,85.26,125.58,85.25,125.59Z"/><path class="cls-3" d="M85.12,125.93h0S85.09,126,85.12,125.93Z"/><path class="cls-3" d="M84.24,124.24a1.25,1.25,0,0,0-.75,1.69.86.86,0,0,0,1.63,0l.1-.27,0-.08a1.22,1.22,0,0,0,.1-.24A.91.91,0,0,0,84.24,124.24Z"/><path class="cls-3" d="M89.61,126a1,1,0,0,0-1.6-.42,1.35,1.35,0,0,0-.21,1.68.94.94,0,0,0,1.62,0A1.84,1.84,0,0,0,89.61,126Z"/><path class="cls-3" d="M111.92,99.22a1.59,1.59,0,0,0-1.15-.48c-.83-.09-1.1,1-.63,1.52a2.09,2.09,0,0,0,.69.53c.4.17,1.06.19,1.27-.3A1.12,1.12,0,0,0,111.92,99.22Z"/><path class="cls-3" d="M114.93,98.74a.73.73,0,0,0-1,0c-.58.57-.36,2,.59,2S115.45,99.24,114.93,98.74Z"/><path class="cls-3" d="M114.09,101.55a1.65,1.65,0,0,0-.49-.7.67.67,0,0,0-.95,1c.11.13.2.27.33.4C113.43,102.64,114.32,102.2,114.09,101.55Z"/><path class="cls-3" d="M109.05,106.74a1,1,0,0,0-1.18.15,1,1,0,0,0-.16,1.19c-.1-.21.12.26.15.3a1.34,1.34,0,0,0,.36.39.95.95,0,0,0,1.61-.66A1.61,1.61,0,0,0,109.05,106.74Z"/><path class="cls-3" d="M108.27,110.42a1.18,1.18,0,0,0-1.63-1,.68.68,0,0,0-.35.61c.09.73,1,1.72,1.79,1.09A.73.73,0,0,0,108.27,110.42Z"/><path class="cls-3" d="M110.68,111.09a.94.94,0,0,0-.69-.27.81.81,0,0,0,0,1.61,1.27,1.27,0,0,0,.34,0A.79.79,0,0,0,110.68,111.09Z"/><path class="cls-3" d="M135.31,104.16a1.16,1.16,0,0,0-1.24-.06.88.88,0,0,0-.18,1.36s.16.2.07.05a1.72,1.72,0,0,0,.49.48.93.93,0,0,0,1.28-.34A1.16,1.16,0,0,0,135.31,104.16Z"/><path class="cls-3" d="M133.77,106a1.26,1.26,0,0,0-.53-.54,2.06,2.06,0,0,0-.63-.17c-.67-.09-1.25.64-.7,1.2.06,0,.11.14.22.26a2.38,2.38,0,0,0,.49.4A.85.85,0,0,0,133.77,106Z"/><path class="cls-3" d="M132,103.91a1,1,0,0,0-.77-.42c-.89-.11-.93,1.48,0,1.41-.07,0-.07,0,0,0C131.77,105.09,132.37,104.38,132,103.91Z"/><polyline class="cls-7" points="308.2 154.06 308.2 212.17 202.57 224.66"/><path class="cls-7" d="M202.57,224.66c-50.39,3.42-74.23,9.19-106.14,5.66-42.7-4.71-64.66-12-64.66-12C20,209.94,1.82,166.25,1,166.69c10.45-5.64,31.92-2.16,43.45-2.07,15.79.14,31.56,1.16,47.31,2.31,15.93,1.14,32.92.31,49-.66,14.9-.89,34.31-5.27,49.33-2.36,7.84,1.53,11.64,5,19.6,3.82,7.68-1.12,14.59-6,22.55-7.24,11.83-1.78,24.73-5.21,36.72-5.22,9.65,0,18.32,3.18,28.27,1.52,4.14-.68,8-1.87,11.67-2.73"/><path class="cls-8" d="M307.85,211.64c-32,13-75.94,11-105.28,13-50.39,3.42-74.23,9.19-106.14,5.66-42.7-4.71-64.66-12-64.66-12C20,209.94,1.82,166.25,1,166.69c10.45-5.64,31.92-2.16,43.45-2.07,15.79.14,31.56,1.16,47.31,2.31,15.93,1.14,32.92.31,49-.66,14.9-.89,34.31-5.27,49.33-2.36,7.84,1.53,11.64,5,19.6,3.82,7.68-1.12,14.59-6,22.55-7.24,11.83-1.78,24.73-5.21,36.72-5.22,9.65,0,18.32,3.18,28.27,1.52,4.14-.68,6.86-1.87,10.58-2.73"/><path class="cls-9" d="M9.06,172.9c9.21,4.32,20.93,3.79,30.16,7.16,11.38,4.17,19.67,1,30.59,2.89,7.81,1.32,12.57,4.24,20.07,4.94,8.27.78,17.67-.6,26.24,0,24.35,1.59,48.71,3,73.09,3.71,26.87.78,58.12,3.48,81.24-13.09,5.56-4,9.45-7.13,16.18-7.51,7.55-.42,14.86-.82,22.32-2.48V143c-4.61-.73-8.92-1.27-11.65-2-10.89-2.81-21.61-5.11-32.7-7-37-6.42-72.15-11.09-109.73-7.11-17.32,1.83-34.85,2.86-51.68,6.94-10.81,2.62-19.75,4.09-31.18,7.46-12,3.53-23.6,4.9-35.35,8.68C26.24,153.3-15.48,161.39,9.06,172.9Z"/><path class="cls-10" d="M280.26,172.28a17.32,17.32,0,0,1,5.83-1.11A115,115,0,0,0,309,168.49V157.36l-.55.18c-8.22,2.6-17.07.45-25.68.22a57.41,57.41,0,0,0-18.14,2.48c-4.58,1.4-15.24,7.27-17.92-.17a8.66,8.66,0,0,1,.38-5.86c.69-1.87,1.72-3.6,2.45-5.46.84-2.16,1.82-4.27,1.21-6.63a.64.64,0,0,0-.17-.35c-.3-.28-.75.08-1,.4-4.47,5.88-11.49,11-18.18,14.09a88,88,0,0,1-19.63,6.52,86.93,86.93,0,0,1-20.3,1.58c-3.44-.11-6.87-.41-10.28-.85-1.54-.2-3.1-.25-4.65-.43-.59-.06-2.4-.63-2.9-.42-2.78,1.13,2,2.72,2.77,3,14.6,5.11,30.61,2.11,46,.35a38,38,0,0,1,11-.11,7.75,7.75,0,0,1,4.24,1.88c5.57,5.58-7.66,9.58-11.11,10.31a70.73,70.73,0,0,1-18.89.88c-3.6-.22-7.2-.48-10.8-.8a413.19,413.19,0,0,1-53.51-8.26c-16.65-3.7-32.68-10.41-50-8.15-5.73.74-11.34,2.24-17.09,2.82a54,54,0,0,1-17.79-1.15,11.12,11.12,0,0,1-4.4-1.82,4.34,4.34,0,0,1-1.77-4.19c.36-1.56,1.79-2.63,3.17-3.45,5.69-3.37,12.2-5.06,18.61-6.7q18.54-4.76,37.1-9.51c11.53-3,23.27-5.18,34.95-7.77q9.79-2.16,19.62-4.05c-3.58.23-7.17.53-10.79.92-17.32,1.83-34.85,2.86-51.68,6.94-10.81,2.62-19.75,4.09-31.18,7.46-12,3.53-23.6,4.9-35.35,8.68-.61.2-1.32.41-2.12.64-5.24,1.22-10.5,2.77-15.83,4.47l-.1,0c-13.09,4.15-25.13,10.07-10.39,17.4.27.14.55.28.84.41,9.21,4.32,20.93,3.79,30.16,7.16l1,.36.43.14.57.18.57.16.4.12.67.17.29.07.73.17.2,0,.8.17.11,0,.85.15h.06l.88.14c7.84,1.08,14.65-.42,23,1,7.81,1.32,12.57,4.24,20.07,4.94,8.27.78,17.67-.6,26.24,0l69.18,4s42.94,1.69,51.49-1.12c6-2,12.55-2.07,18.63-4.35a65,65,0,0,0,16.7-9.1A32.92,32.92,0,0,1,280.26,172.28Z"/><path class="cls-6" d="M307,143a91.5,91.5,0,0,1-9.65-2c-10.89-2.81-21.61-5.11-32.7-7-37-6.42-72.15-11.09-109.73-7.11-17.32,1.83-34.85,2.86-51.68,6.94-10.81,2.62-19.75,4.09-31.18,7.46-12,3.53-23.6,4.9-35.35,8.68-10.42,3.36-52.14,11.45-27.6,23,9.21,4.32,20.93,3.79,30.16,7.16,11.38,4.17,19.67,1,30.59,2.89,7.81,1.32,12.57,4.24,20.07,4.94,8.27.78,17.67-.6,26.24,0,24.35,1.59,48.71,3,73.09,3.71,26.87.78,58.12,3.48,81.24-13.09,5.56-4,9.45-7.13,16.18-7.51A112.72,112.72,0,0,0,307,168.49"/><path class="cls-11" d="M305.78,197.24c-2.71-2.68-7.14-.71-9.13,5.76a50.56,50.56,0,0,0-1.78,14.46,8.29,8.29,0,0,0-3.1-4.82,3,3,0,0,0-1-.49c.48-2.17.9-4.35,1.21-6.54,3.27-22.51-8.37-23.33-13.25,2.63-.67-4.8-1.84-7.73-3.14-8.77,1.5-10.21-1.1-20.1-5.06-19.55-4.76.67-7.14,2.27-7.06,15.56,0,6.57-1.42,18.54-2.9,29,.13-4.73.18-8.82.1-12.28a159.82,159.82,0,0,0,.94-20.52c-.77-29.19-14-26.84-9.57,8.87.1.84.19,1.67.28,2.49-2.45,8.27-3.77,25.12-1.71,43.08-.76,3.66-1.55,6.62-2.2,8.8a77,77,0,0,0-2.28-15.76c-.21-.81-.41-1.59-.6-2.36a150.4,150.4,0,0,0,3.08-31.44c-.14-20.61-3.37-28.35-8.8-28.78-3.83-.31-2.44,5.36-.11,14.11-1,.34-2,1.7-2.89,3.88-.21-1.27-.42-2.53-.66-3.78a78.57,78.57,0,0,0-2.27-9.16c-6.84-21.32-17.49-11.49-9.31,15.18a141.51,141.51,0,0,1,6.12,33.1,117.09,117.09,0,0,1,0,12.43c-.26,5.34-1,10.63-.9,15.88a86.85,86.85,0,0,1-1.64-17.85c.19-19.22-3.41-27.89-7-29.28-.89-5.61-1.74-11.24-2.29-15.5-1.64-12.63-10-22-13.74-17.74s-5.08,7.4.5,18c2.85,5.39,6.75,16.64,9.89,26.38a68.75,68.75,0,0,0,0,9.12,140.76,140.76,0,0,0-10.78-25.95c-12.77-22.77-23-10.5-4.38,14.6,1.88,2.54,3.68,5.21,5.37,8a108.25,108.25,0,0,1,12.13,28.74,96.44,96.44,0,0,1,2,9.68l.06.46c-1.4-1.55-2.78-3.16-4.11-4.87-5.48-7-10.66-14.91-14.16-24.23-7.82-20.81-12-31-17.35-27.87s3.57,37.58,23.54,57.54q4.71,5,9.55,9.77c.69.69,1.38,1.42,2.08,2.15l2.69-.6A64.44,64.44,0,0,1,235.63,276a74.3,74.3,0,0,1-2.9-7.13c.74-3.86,1.75-7.65,2.37-11.5.05-.31.09-.62.14-.92.08.38.17.76.26,1.13,0,0,1.93,8.93,4.16,18.09,2.56-.16,5.13-.21,7.65-.18a112.87,112.87,0,0,0,1.19-13.74c.66.12,1.59-.29,2.87-1.77-.06,6.18-.41,11.36-.85,15.6,13.65.56,25.24,3.45,26.35,5.42l.08.18c2.32-.89,5.09-1.9,5.94-2.57,8.67-6.8,13.71-19.08,16.68-29.43,4-14,7.9-29.16,8.43-43.79C308.15,201.35,307.2,198.65,305.78,197.24Zm-50,75,.12-.6.07.26C255.92,272,255.85,272.1,255.79,272.21Zm-29.72-2.29c-.32-1-.65-2.05-1-3.09-.17-.53-.34-1.07-.52-1.61-.84-2.62-1.57-5.34-2.27-8.09,1.95,3.88,3.5,7.42,4.74,10.55C226.71,268.43,226.38,269.17,226.07,269.92Zm17.54-41.1c-.21-.88-.41-1.73-.61-2.54.47-4.64.87-8.82,1.17-12.54A95.78,95.78,0,0,1,243.61,228.82Zm25,36a92.79,92.79,0,0,1-4.22,8.6c-.27-1.24-.54-2.54-.81-3.88q2.83-4,5.5-8.32C268.91,262.45,268.75,263.65,268.59,264.82Zm-3.83-10.14c-.91,2-1.85,3.93-2.81,5.87q-.43-2.87-.8-5.81c.58-1.35,1.22-2.71,1.91-4.07A78,78,0,0,0,270,232.4c.16,3.13.23,6.16.23,9.09C268.55,246,266.72,250.37,264.76,254.68Zm13.4,8.94h0a74.15,74.15,0,0,0,2.78-10.08c2.6-13.1,4.68-20.6,4.91-25.32.51-1.33,1-2.68,1.48-4-.29,4.15-.58,9.06-1.16,14.24A74.39,74.39,0,0,1,278.16,263.62Zm17.14-25.89a70.91,70.91,0,0,1-8.34,16.6c1.33-3.53,2.58-7.06,3.74-10.5a94.45,94.45,0,0,0,4.38-17.24C295.23,230.47,295.39,234.25,295.3,237.73Z"/><path class="cls-12" d="M282.39,278.58c8.67-6.8,13.71-19.08,16.68-29.43,4-14,7.9-29.16,8.43-43.79.15-4-.8-6.71-2.22-8.12-2.71-2.68-7.14-.71-9.13,5.76a50.56,50.56,0,0,0-1.78,14.46,8.29,8.29,0,0,0-3.1-4.82,3,3,0,0,0-1-.49c.48-2.17.9-4.35,1.21-6.54,3.27-22.51-8.37-23.33-13.25,2.63-.67-4.8-1.84-7.73-3.14-8.77,1.5-10.21-1.1-20.1-5.06-19.55-4.76.67-7.14,2.27-7.06,15.56,0,6.57-1.42,18.54-2.9,29,.13-4.73.18-8.82.1-12.28a159.82,159.82,0,0,0,.94-20.52c-.77-29.19-14-26.84-9.57,8.87.1.84.19,1.67.28,2.49-2.45,8.27-3.77,25.12-1.71,43.08-.76,3.66-1.55,6.62-2.2,8.8a77,77,0,0,0-2.28-15.76c-.21-.81-.41-1.59-.6-2.36a150.4,150.4,0,0,0,3.08-31.44c-.14-20.61-3.37-28.35-8.8-28.78-3.83-.31-2.44,5.36-.11,14.11-1,.34-2,1.7-2.89,3.88-.21-1.27-.42-2.53-.66-3.78a78.57,78.57,0,0,0-2.27-9.16c-6.84-21.32-17.49-11.49-9.31,15.18a141.51,141.51,0,0,1,6.12,33.1,117.09,117.09,0,0,1,0,12.43c-.26,5.34-1,10.63-.9,15.88a86.85,86.85,0,0,1-1.64-17.85c.19-19.22-3.41-27.89-7-29.28-.89-5.61-1.74-11.24-2.29-15.5-1.64-12.63-10-22-13.74-17.74s-5.08,7.4.5,18c2.85,5.39,6.75,16.64,9.89,26.38a68.75,68.75,0,0,0,0,9.12,140.76,140.76,0,0,0-10.78-25.95c-12.77-22.77-23-10.5-4.38,14.6,1.88,2.54,3.68,5.21,5.37,8a108.25,108.25,0,0,1,12.13,28.74,96.44,96.44,0,0,1,2,9.68l.06.46c-1.4-1.55-2.78-3.16-4.11-4.87-5.48-7-10.66-14.91-14.16-24.23-7.82-20.81-12-31-17.35-27.87s3.57,37.58,23.54,57.54q4.71,5,9.55,9.77c.69.69,1.38,1.42,2.08,2.15"/><path class="cls-12" d="M246.81,275.46A112.87,112.87,0,0,0,248,261.72c.66.12,1.59-.29,2.87-1.77-.06,6.18-.41,11.36-.85,15.6"/><path class="cls-12" d="M235.13,276a74.3,74.3,0,0,1-2.9-7.13c.74-3.86,1.75-7.65,2.37-11.5.05-.31.09-.62.14-.92.08.38.17.76.26,1.13,0,0,1.93,8.93,4.16,18.09"/><path class="cls-12" d="M225.57,269.92c-.32-1-.65-2.05-1-3.09-.17-.53-.34-1.07-.52-1.61-.84-2.62-1.57-5.34-2.27-8.09,1.95,3.88,3.5,7.42,4.74,10.55C226.21,268.43,225.88,269.17,225.57,269.92Z"/><path class="cls-12" d="M264.26,254.68c-.91,2-1.85,3.93-2.81,5.87q-.43-2.87-.8-5.81c.58-1.35,1.22-2.71,1.91-4.07a78,78,0,0,0,6.92-18.27c.16,3.13.23,6.16.23,9.09C268.05,246,266.22,250.37,264.26,254.68Z"/><path class="cls-12" d="M277.66,263.62h0a74.15,74.15,0,0,0,2.78-10.08c2.6-13.1,4.68-20.6,4.91-25.32.51-1.33,1-2.68,1.48-4-.29,4.15-.58,9.06-1.16,14.24A74.39,74.39,0,0,1,277.66,263.62Z"/><path class="cls-13" d="M283.31,275.1a48.79,48.79,0,0,0,.34-9.19,84.58,84.58,0,0,0,11-25.32c4.24-16.39,2.49-23.93-3.13-26.61s-2.75,8.65-2.49,22.26c.2,10-3.68,19-5.77,23.15-.36-7.48-.4-12.33-1.17-15.46a94.47,94.47,0,0,0,2.57-20.26,57,57,0,0,0-.44-8.25c-2.66-19.85-15.93-16.65-13,8a97.15,97.15,0,0,1-.6,28.89,69.76,69.76,0,0,1-2.63,9.85c-1.42,4.19-3.34,8.12-4.36,12.38a7.43,7.43,0,0,1-1.62,3,58.53,58.53,0,0,1,.65-16.31A68.56,68.56,0,0,0,263.92,248c.27-6.76.87-20.23,1.57-28,1-10.72-5.83-21.76-10.66-20s-6.91,3.67-3.29,14.47c1.43,4.3,2.79,11.69,3.9,19a7.11,7.11,0,0,0-2.79,3.16,102.17,102.17,0,0,0-4.13-15c-8.59-23.56-21.91-18.25-7.71,9.67,1.44,2.83,2.76,5.73,3.95,8.67a99.64,99.64,0,0,1,4.31,13.37,47.77,47.77,0,0,0,2.39,15.87,64,64,0,0,1,0,7.33c-.14,2.31-.84,4.63-1,6.93a1.13,1.13,0,0,0-.1-.13c-1.64-2.25-2.91-4.7-4.57-7.18-2.07-3.11-4-6.26-5.82-9.58-4.26-8-8-16.43-9.74-25.33-3.79-19.87-6-29.78-12.3-29.57s-4.23,31.32,12.5,55.77q3.9,6,8,11.87c3.59,5.21,7,11.84,13.26,14.25a6.39,6.39,0,0,0,2.88.53,3.11,3.11,0,0,0,2.16-1.15,2.17,2.17,0,0,0,1.4-.66,2.47,2.47,0,0,0,.58-1.73l.43,0a43.53,43.53,0,0,1,1.47,9.47s2.81,2.89,4.84.59l-.5.94s-.05,2.27,1.51,3ZM267,296.5c.07-.39-1.95-4.27-3.5-10.6,1.76-3.46,4.15-6.53,6-9.93,1.36-2.59,2.46-5.34,3.89-8,.27-.5.53-1,.79-1.5a42.26,42.26,0,0,1-.07,9.26c-1.32,8.75-5.19,17.71-7.45,22.41A13.76,13.76,0,0,0,267,296.5Z"/><path class="cls-14" d="M277.33,277.19a21.36,21.36,0,0,0-11.25-1.71,30.71,30.71,0,0,0-14,3.81,40.44,40.44,0,0,0-15.33,14.19c-3.85,6-6,13.63-2.27,20.18,3.52,6.12,10,9.11,16.7,10.15,13.19,2.05,32.14,1.34,40.29-11C299.87,300.05,290.62,282.7,277.33,277.19Z"/><path class="cls-15" d="M292.81,295.12a26.32,26.32,0,0,0-6.75-12c-2.52-2.64-6.05-5.87-9.88-6.26a11.27,11.27,0,0,0-1.46-.45.45.45,0,0,0-.34.82c2.57,1.8,4.64,3.44,6.1,6.28a11.35,11.35,0,0,1,1,3c-3.14-1.6-6.61,3.84-4.68,6.69,1.1,1.61,3.14,1.38,4.73.52a24.35,24.35,0,0,1-1,4.07h0a5.21,5.21,0,0,0-5.62,1.65,4.83,4.83,0,0,0-.08,5.66,3.16,3.16,0,0,0,1.21,1,26,26,0,0,1-1.82,2.08c-.2.21-.41.41-.62.6-.41-2.22-3.47-3.44-5.62-3.68-3.06-.34-6.45,2.63-7.4,5.37-.8,2.3-.23,3.84,1,4.75a38.51,38.51,0,0,1-10.16,1.23c-6.12,0-15.17-.54-18.53-6.53-.16-.29-.66-.09-.55.23a10.17,10.17,0,0,0,1.37,2.5.38.38,0,0,0,0,.38,21.4,21.4,0,0,0,7.61,6.37c3.71,3.17,9,3.74,13.68,4.33a48.21,48.21,0,0,0,18.46-.82c5.17-1.31,10.84-3,14.8-6.75,3.65-3.43,5.27-9,5.22-13.95A27,27,0,0,0,292.81,295.12Z"/><path class="cls-15" d="M276.38,295.51a1.62,1.62,0,0,0-1.12-1.12,1.77,1.77,0,0,0-1.86.76,2.83,2.83,0,0,0-.42,2.14,1,1,0,0,0,1,.78,2.33,2.33,0,0,0,2-.71A2,2,0,0,0,276.38,295.51Z"/><path class="cls-15" d="M270.26,297.81c-2.13-1.21-6.64.51-5.29,3.42,0,0,0,.06.06.1a3,3,0,0,0,3.19,2.5,4.09,4.09,0,0,0,3.56-2.55A3,3,0,0,0,270.26,297.81Z"/><path class="cls-15" d="M271.52,293.72a1,1,0,0,0-1-.27h0a.87.87,0,0,0-.8.7,1.21,1.21,0,0,0-.16.56,1,1,0,0,0,.49.85,1,1,0,0,0,1,0h0a.58.58,0,0,0,.18-.08A1.14,1.14,0,0,0,271.52,293.72Z"/><path class="cls-15" d="M263.79,294.11a.71.71,0,1,0-1.38.37.81.81,0,0,0,.79.62.67.67,0,0,0,.58-.34A.63.63,0,0,0,263.79,294.11Z"/><path class="cls-15" d="M275.2,287.56l0,0c-.45-.57-1.36-.07-1.36.56s.91,1.14,1.36.56l0,0A.77.77,0,0,0,275.2,287.56Z"/><path class="cls-6" d="M277.33,277.19a21.36,21.36,0,0,0-11.25-1.71,30.71,30.71,0,0,0-14,3.81,40.44,40.44,0,0,0-15.33,14.19c-3.85,6-6,13.63-2.27,20.18,3.52,6.12,10,9.11,16.7,10.15,13.19,2.05,32.14,1.34,40.29-11C299.87,300.05,290.62,282.7,277.33,277.19Z"/></g></g></svg>