<svg xmlns="http://www.w3.org/2000/svg" viewBox="0 0 327.6 428.28"><defs><style>.cls-1{fill:#b9a4ba;}.cls-2{fill:#a78fa9;}.cls-11,.cls-20,.cls-3{fill:none;}.cls-11,.cls-14,.cls-20,.cls-21,.cls-3{stroke:#4d3224;}.cls-11,.cls-14,.cls-21,.cls-3{stroke-linecap:round;stroke-linejoin:round;}.cls-14,.cls-20,.cls-21,.cls-3{stroke-width:1.91px;}.cls-4{fill:#9695a4;}.cls-5{fill:#787686;}.cls-6{fill:#a4a3b4;}.cls-7{opacity:0.37;}.cls-8{fill:#acabbc;}.cls-9{fill:#a5a5b4;}.cls-10{fill:#bebecf;}.cls-11{stroke-width:1.88px;}.cls-12{fill:#818094;}.cls-13{opacity:0.56;}.cls-14,.cls-23{fill:#b2d152;}.cls-15{fill:#93bc3e;}.cls-16{fill:#f5b8be;}.cls-17{fill:#f08792;}.cls-18{fill:#dd5865;}.cls-19{fill:#df5d67;}.cls-20{stroke-miterlimit:10;}.cls-21{fill:#9ebc40;}.cls-22{fill:#dd5e69;}</style></defs><title>資產 253</title><g id="圖層_2" data-name="圖層 2"><g id="技能"><path class="cls-1" d="M127.55,390.31a13.43,13.43,0,0,0-7-1.06,19.23,19.23,0,0,0-8.75,2.38,25.19,25.19,0,0,0-9.59,8.88c-2.41,3.77-3.78,8.52-1.43,12.62,2.21,3.83,6.28,5.69,10.45,6.34,8.25,1.29,20.11.85,25.21-6.89C141.65,404.62,135.86,393.76,127.55,390.31Z"/><path class="cls-2" d="M137.23,401.53a16.44,16.44,0,0,0-4.22-7.48c-1.58-1.65-3.79-3.67-6.18-3.92a6.41,6.41,0,0,0-.91-.27.28.28,0,0,0-.22.5,10.69,10.69,0,0,1,3.82,3.94,7.1,7.1,0,0,1,.64,1.9c-2-1-4.14,2.4-2.93,4.18.69,1,2,.86,3,.33a15.17,15.17,0,0,1-.62,2.54h0a3.28,3.28,0,0,0-3.52,1,3,3,0,0,0-.05,3.54,1.94,1.94,0,0,0,.76.66,15.82,15.82,0,0,1-1.14,1.3c-.12.13-.26.25-.39.38-.25-1.39-2.17-2.16-3.51-2.31-1.92-.21-4,1.65-4.63,3.36a2.39,2.39,0,0,0,.65,3,25,25,0,0,1-6.36.77c-3.82,0-9.48-.34-11.59-4.09-.1-.18-.41-.06-.34.14a6.37,6.37,0,0,0,.85,1.57.22.22,0,0,0,0,.23,13.43,13.43,0,0,0,4.76,4c2.32,2,5.64,2.33,8.56,2.71a30.36,30.36,0,0,0,11.55-.52c3.23-.82,6.77-1.89,9.25-4.22,2.29-2.14,3.3-5.6,3.26-8.72A16.4,16.4,0,0,0,137.23,401.53Z"/><path class="cls-2" d="M127,401.78a1,1,0,0,0-.7-.71,1.11,1.11,0,0,0-1.16.48,1.76,1.76,0,0,0-.26,1.34.67.67,0,0,0,.64.49,1.51,1.51,0,0,0,1.24-.45A1.23,1.23,0,0,0,127,401.78Z"/><path class="cls-2" d="M123.13,403.22c-1.34-.76-4.16.31-3.31,2.13l0,.06a1.87,1.87,0,0,0,2,1.57,2.58,2.58,0,0,0,2.23-1.59A1.9,1.9,0,0,0,123.13,403.22Z"/><path class="cls-2" d="M123.92,400.65a.64.64,0,0,0-.63-.16h0a.56.56,0,0,0-.5.44.83.83,0,0,0-.1.35.59.59,0,0,0,.31.53.62.62,0,0,0,.62,0h0l.12-.05A.73.73,0,0,0,123.92,400.65Z"/><path class="cls-2" d="M117,407.6a1.25,1.25,0,0,0-.11-.29.66.66,0,0,0-1.12,0,1.24,1.24,0,0,0-.1.29.69.69,0,1,0,1.33,0Z"/><path class="cls-2" d="M114.73,411.48v0a.68.68,0,1,0,0,.68h0A.63.63,0,0,0,114.73,411.48Z"/><path class="cls-2" d="M119.08,400.9a.45.45,0,0,0-.43-.34.45.45,0,0,0-.44.57.52.52,0,0,0,.5.39.44.44,0,0,0,.37-.21A.43.43,0,0,0,119.08,400.9Z"/><path class="cls-2" d="M126.22,396.81l0,0c-.28-.36-.85,0-.85.35s.57.71.85.35l0,0A.47.47,0,0,0,126.22,396.81Z"/><path class="cls-3" d="M127.55,390.31a13.43,13.43,0,0,0-7-1.06,19.23,19.23,0,0,0-8.75,2.38,25.19,25.19,0,0,0-9.59,8.88c-2.41,3.77-3.78,8.52-1.43,12.62,2.21,3.83,6.28,5.69,10.45,6.34,8.25,1.29,20.11.85,25.21-6.89C141.65,404.62,135.86,393.76,127.55,390.31Z"/><path class="cls-4" d="M90.9,5.12l50.27,2.17s37.55,1.88,45.06,14.08l11.33,14.46-20.72,1-34.74-8L121,33.11l-17.84-5.63-31-14.56L44.46,4l-7-1.87Z"/><path class="cls-5" d="M0,13.69C10.72,1.28,27.42.79,41.69,2.58,61.3,5,78,15.94,95.68,24.13c9,4.17,19,8.37,29.05,8.38,4.67,0,9.16-2.07,13.78-2.52,5.27-.5,9.55.68,14.4,2.7,7.78,3.24,14.77,7.94,23.21,9.33,6.12,1,17.43,1.93,20.32-5.13,0-.23,0-.47,0-.71a.64.64,0,0,1,1.16-.35.84.84,0,0,1,.66,1c0,.15-.05.28-.08.42,4.42,11,3.54,19.71-.51,31-2.71,7.54-2.93,13.92.67,21.15,2.3,4.62,5.33,8.6,6.08,13.83,1.2,8.37-7.54,12.58-14.35,14a55.7,55.7,0,0,1-20.32.06c-14.43.83-31.41-9.27-37.33,10.57-2.63,8.8-2.51,18.82-4.39,27.88-1.77,8.52-4.41,16.9-10,23.7-6.13,7.41-13.93,13-19.66,20.79-6,8.21-8.78,17.47-11.38,27.15-4.18,15.53-8.44,32.06-17.63,45.48a.89.89,0,0,1-.56,1.15,2.48,2.48,0,0,0-.35.13c-1.1,1.52-2.25,3-3.49,4.45a1.15,1.15,0,0,1-1.77,0c-4.24,6.54-4.75,17.89-5.23,23.83-1.11,13.44,1,25.84,2.66,39.18.69,5.65,3.83,15.46-2.06,16.29-14.13,2-29.93,1-43.92-1.36C5.35,355,4.3,352.38,0,347.84V13.69"/><path class="cls-6" d="M136.13,118.89c4.37-7.41,18.05-5,24.76-4.29,7.43.74,14.9,1.67,22.36,2.05s17.38-1.61,21.69-9.31c.49-.87.61-3.85,2.08-.62,6.39,9.4,38.09,16,50.39,32.49a1.55,1.55,0,0,1-.24,1.88c-7,7.22-28.55-4.81-37.58-8.92-11.1-5.07-25.12,2.58-36.61,3.38-5.43.37-10.19-1.7-15.14-3.6-7-2.67-19.54-1.74-26.67-3C135.85,127.93,132.12,125.69,136.13,118.89Z"/><g class="cls-7"><path class="cls-8" d="M118.17,56.08a9.75,9.75,0,0,1,1.49-5.8,1.64,1.64,0,0,1,1.87-.52c1-6,2.26-12.5,4.69-17.73a.92.92,0,0,1,1.66.22c.06.36.11.74.16,1.11,8.26-1.77,16.2-4.7,24.05-.5l.09-.16c.45-.77,1.83-.25,1.48.62l-.26.63a1.32,1.32,0,0,1-.61,1.5c-4.85,11.79-9.55,23-9.35,36.08.22,14,8.32,27.09,7.69,41.05a1.39,1.39,0,0,1-2.32.92,3.23,3.23,0,0,1-1.63.68,2.76,2.76,0,0,1-1.6-.32,1.47,1.47,0,0,1-2.22-1.28c.44-12.28-9-20.9-16.11-30.35a1.72,1.72,0,0,1-2.56,1.3c-2.12-1.56-2.1-4.72-1.47-7a1.36,1.36,0,0,1,.1-.21c-.36-.64-.71-1.29-1-2-2.21-4.62-2.55-9.36-2.17-14.22C118.34,60,118.19,57.37,118.17,56.08Z"/><path class="cls-8" d="M114.14,55.22a1.35,1.35,0,0,1,2.5.68c-.16,2.38.07,5.64-1.29,7.67a1.5,1.5,0,0,1-2.56,0C111.41,61.07,112.73,57.49,114.14,55.22Z"/><path class="cls-8" d="M115.27,66a1.32,1.32,0,0,1,2.52,0c.28,1.53.57,3.09.73,4.64.12,1.18,0,2.79-1.48,2.91a1.38,1.38,0,0,1-1.21-.69C114.45,70.87,114.85,68.32,115.27,66Z"/><path class="cls-8" d="M120.16,79.25c1.06,1.54,2.43,3.69,2,5.63a1.48,1.48,0,0,1-2.44.64c-1.48-1.14-2-3.84-2-5.59C117.57,78.49,119.45,78.22,120.16,79.25Z"/><path class="cls-8" d="M128.26,89.3a6.3,6.3,0,0,1,2.54,3c.61,1.45,1.47,3.5.18,4.79a1.39,1.39,0,0,1-1.38.37c-2.43-.72-2.09-4.56-3.08-6.46C126,90,127.13,88.59,128.26,89.3Z"/></g><path class="cls-9" d="M120.52,28.55a30.82,30.82,0,0,0,11.37-1.18c1.87-1.11,3.7-2.45,5.73-3.52,7.22-3.83,19,.69,26.26,2.63,5.37,1.43,16.69,7.8,21.76,3.57,5.81-4.87-13.24-13.35-15.92-15.34a.57.57,0,0,1-.15-.16c-.62-.37-1.23-.74-1.83-1.13a.28.28,0,0,1,.13-.51c8.43-.15,17.68,6.63,23.34,12.34,5.23,5.27,12.39,15.84-2.31,17.07a49.23,49.23,0,0,1-31.61-8.1c-3.48-2.41-6.85-4.73-10.89-6.1-4.46-1.52-9.33,1-13.44,2.49-.21.07-1.34.66-1.69.85a12.29,12.29,0,0,1-7,1.16c-.42,0-.83-.09-1.25-.16-3.94,0-20.66-4.92-22.06-5.78C100.07,26.15,116.4,26.87,120.52,28.55Z"/><path class="cls-10" d="M166,128.69c5.71.83,11.11,2.16,16.93,2,6.16-.13,9.56-3.61,14.19-6.92,5.38-3.84,12.77-.76,18.45.57,2.59.6,5.12,1.71,7.65,2.5,1.86.59,12,6.24,14.45,3.78s-9.1-7.51-9.44-7.8c-5.79-5-6.87-7-1.47-3.41,11.42,4.19,24.82,8.76,30.18,20.13a1.88,1.88,0,0,1-.67,2.54c-11.22,4.92-23.53-3-33.5-7.63-7.89-3.71-15.12-4.84-23.69-2.57-7.3,1.94-13.89,4.88-21.56,3.11a122.6,122.6,0,0,1-12.1-5C164.62,129.64,165.24,128.58,166,128.69Z"/><g class="cls-7"><path class="cls-8" d="M170.27,52.26a1.36,1.36,0,0,1,2.6,0c0,.16.07.34.11.51a54.28,54.28,0,0,1,3.17-11,.77.77,0,0,1,1.47,0,1.71,1.71,0,0,1,.49.07c.51.17,1,.37,1.48.57,2-.39,4.89.18,6.58-.1,4.84-.8,7.48-3.72,11-6.72a1,1,0,0,1,1.57.92c-.06.27-.14.54-.22.81,3.38,7,2.25,14.64.37,22-3,11.71-5,21.31.9,32.57,2.07,4,12.93,18.91,1.95,18.64a1.6,1.6,0,0,1-2.53-.74c-1.69-6.56-8-11.39-14.16-13.52a1.75,1.75,0,0,1-1.29-1.68c.71-6.18,3.91-14.39-.64-19.62-2.66-3-6.36-4.27-8.62-7.81a15.91,15.91,0,0,1-2.05-8.55A1.67,1.67,0,0,1,170,57.6,11.77,11.77,0,0,1,170.27,52.26Z"/><path class="cls-8" d="M180.82,82a1.2,1.2,0,0,1,2,0c.82,1.16.66,3,.7,4.38,0,1.09-.13,3.62-1.72,3.62s-1.63-2.16-1.7-3.17C180,85.43,180,83.18,180.82,82Z"/><path class="cls-8" d="M181.79,74.43c.35.29.77.52,1.11.84a4.26,4.26,0,0,1,.95,1.6,3.11,3.11,0,0,1-.64,3.48,1.29,1.29,0,0,1-2-.26c-.8-1.28-.23-3.13-1.14-4.33S180.91,73.68,181.79,74.43Z"/><path class="cls-8" d="M176,78.55a1.34,1.34,0,0,1,2.56,0,8.58,8.58,0,0,1,0,5.66,1.52,1.52,0,0,1-2.6,0A8.58,8.58,0,0,1,176,78.55Z"/><path class="cls-8" d="M177.26,92.92a1.35,1.35,0,0,1,2.58,0c.2,1.22.52,3-.19,4a1.28,1.28,0,0,1-2.2,0C176.74,95.88,177.06,94.14,177.26,92.92Z"/><path class="cls-8" d="M163.58,52.64a1.48,1.48,0,0,1,2.83,0c.38,1.9.8,4.63-.49,6.24a1.3,1.3,0,0,1-1.84,0C162.79,57.27,163.21,54.54,163.58,52.64Z"/><path class="cls-8" d="M167.33,62.09a1.43,1.43,0,0,1,2.73,0c.22,1.21.62,3.11-.42,4a1.37,1.37,0,0,1-1.9,0C166.7,65.2,167.1,63.3,167.33,62.09Z"/></g><path class="cls-11" d="M1,13.69C15-5.57,42.17,2.58,60.82,8.52c19.62,6.25,49.39,30.57,70.45,22.94,0,0,14-5.05,26,2.76,0,0,19.26,18.22,41.47,2.22,0,0-7.54-23.45-44.77-28.18C122.11,6.67,90.9,5.12,59.1,2.56,41.31,1.12,13.42-3.38,1,13.69Z"/><path class="cls-11" d="M198.76,36.44s4.37,12.16-1.26,28.12c0,0-4.91,12.35,2.31,27.25,0,0,5.06,8.55,5.13,15.53"/><path class="cls-12" d="M146.24,371.28c15.11-.9,30.16-2.31,45.55-2.74,19.75-.57,39.1,2.53,58.76,2.51,20.94,0,41.87-3.47,62.76-2.79a14.15,14.15,0,0,0,5.88-.61c6.55-2.74,2.55-16.26,1.85-21.44-1.06-7.78-2-15.87-5.39-23-3.91-8.2-10.16-15.48-13.17-24.09-3.24-9.28-.73-18.22-.84-27.75-.11-8.6-1.17-18.1-6.68-25.09-2.84-3.6-6.49-6.55-9.9-9.68a68.76,68.76,0,0,1-5.66-7.94c-3.39-6.18-3.24-12.73-5-19.36-1.94-7.27-6.88-12.6-11.73-18.07a72.9,72.9,0,0,1-4.61-6.18c-8.61-13.46,4-27.26-.53-41.67a2.56,2.56,0,0,0-4.35-.85c-7.4,2.78-18.53-3.46-24.79-6.32-8.88-4.06-18-4.6-27.49-2.83-7.18,1.33-14.06,3.47-21.4,1.8-6.07-1.37-11.92-3.82-18.05-4.9-6.84-1.2-19.23,2.68-24.53-2.63a1.82,1.82,0,0,0-1-.55c-.19-.83-1.53-.8-1.85,0-5.53,15-9,30.49-19.76,43-8.34,9.7-18.79,17.9-25.82,28.68a113,113,0,0,0-15.62,37.79C71.77,242,71,247.56,69.74,253a24.6,24.6,0,0,1-4.82,9.74c-2.25,2.67-4.77,5.12-7,7.84a37.06,37.06,0,0,0-8.36,21.25A105.74,105.74,0,0,0,51.64,320c.51,16.24,5.49,35.92,19.44,44.58,10.55,6.55,23.69,6.13,35.68,7A302,302,0,0,0,146.24,371.28Z"/><g class="cls-13"><path class="cls-8" d="M170.68,163.37c2.12-7.21,7.07-18.23,1.94-25.08-1.22-1.63.93-3.66,2.54-3.1,2.07-.94,4.68-.19,6.91-.16,2.71,0,5.31-1,8-.91a1.48,1.48,0,0,1,.86.29.83.83,0,0,1,1.18.68c2.62,18.07-11.47,34.8-6,52.87,4.32,14.19,17,23.27,16.34,39.21a1.54,1.54,0,0,1-3.07,0c-2-19.42-27.52-22.56-31.89-40.42C165.66,179.2,168.57,170.54,170.68,163.37Z"/><path class="cls-8" d="M165.47,157.86a1.27,1.27,0,0,1,2.54,0c.17,1.72.18,3.75-.92,5.16a1.27,1.27,0,0,1-2.11-.56C164.55,161,165.28,159.34,165.47,157.86Z"/><path class="cls-8" d="M159,162.34a5.07,5.07,0,0,1,1.92-3.57,1.09,1.09,0,0,1,1.63.94c-.09,1.27-.53,2.48-.63,3.76-.08,1-.46,2.49-1.74,2.21S158.9,163.29,159,162.34Z"/><path class="cls-8" d="M161.25,168c.59-1.39,2.43-.49,2.55.69.17,1.82.33,3.94-.47,5.61a1.41,1.41,0,0,1-2.42,0C160,172.31,160.42,169.88,161.25,168Z"/><path class="cls-8" d="M155.82,177.58a1.38,1.38,0,0,1,2.75,0,18.84,18.84,0,0,1,.16,5,1.35,1.35,0,0,1-2.44.32C155.41,181.31,155.68,179.28,155.82,177.58Z"/><path class="cls-8" d="M163.24,184.57c.35,1.69.75,3.37,1.07,5.06.4,2.17-3,3.05-3.29.91-.27-1.85-.45-3.71-.69-5.57C160.12,183.31,162.91,183,163.24,184.57Z"/><path class="cls-8" d="M163.79,148.62a1.15,1.15,0,0,1,2.25.31c0,1-.09,2-.11,3s-.11,2.14-1,2.63a.8.8,0,0,1-.79,0c-.87-.52-.88-1.72-.91-2.63A8.33,8.33,0,0,1,163.79,148.62Z"/></g><g class="cls-13"><path class="cls-8" d="M218.21,133.19a1.27,1.27,0,0,1,2.33-.17,2.14,2.14,0,0,1,1.41.28c5.38,3,10.73,6.14,16.62,8.18,6.45,2.22,12.78,1.25,19.28,2.34A1.7,1.7,0,0,1,259,146c2.6,5.95.11,12.92-1.65,18.92-5.26,12.52,4.58,23.76,8.84,29.33,4.78,6.26,8.9,12.59,9.78,20.6.56,5.08.57,10.31,2.78,15,1.86,4,6.34,6.69,9.76,9.14,6.86,4.94,10.9,8.14,12.86,16.46s1.24,19.74,0,27.93c-1.55,10.27-2.55,17.65,4.25,25.94,5.4,6.6,9.63,12.91,11.52,21.38,2.06,9.29,3.09,19.6,1.35,29a1.15,1.15,0,0,1-2.2,0c-.36-1.83-.65-3.64-.92-5.46a.88.88,0,0,1-.69-.8c-.7-5.33-1-10.74-2.58-15.9-1.83-5.9-6.44-10.76-9.75-15.86-7.37-11.38-12.59-23.78-22.73-33.08-8.3-7.62-13.71-13.73-14.37-25.4-.62-11.12.64-23-4-33.5-4.29-9.81-14-13.13-23-17.34-7.78-3.65-14.58-8.57-18.78-16.2-4.79-8.69-4.86-19.8-5.2-29.44C213.94,155.68,214.38,143.7,218.21,133.19Z"/><path class="cls-8" d="M258.15,242.65a5.62,5.62,0,0,1,2.12,3.53c.36,1.44.87,3.53,0,4.84a1.72,1.72,0,0,1-2.65.34c-1.05-1-.94-2.45-1.05-3.81s-.25-2.52-.35-3.78A1.3,1.3,0,0,1,258.15,242.65Z"/><path class="cls-8" d="M248.62,248.12a1.64,1.64,0,0,1,1.18-1.54,1.57,1.57,0,0,1,1.8.73,22,22,0,0,1,1.11,4.38c.21,1,.22,3.08-1,3.42s-2.11-1.11-2.45-2A11.46,11.46,0,0,1,248.62,248.12Z"/><path class="cls-8" d="M254.25,256.1a1.26,1.26,0,0,1,2.29-.3,21.2,21.2,0,0,1,1.87,5.38c.46,2-2.54,3.49-3.47,1.46A11.26,11.26,0,0,1,254.25,256.1Z"/><path class="cls-8" d="M252.33,232c.57,1.31,2.48,5.52.51,6.42-1.16.53-1.88-.74-2.15-1.69-.35-1.21-.48-2.46-.87-3.67C249.33,231.61,251.71,230.58,252.33,232Z"/><path class="cls-8" d="M258.8,270.47c.44-1.15,2.37-1.85,3-.39a25.94,25.94,0,0,1,1.09,4.09,24.85,24.85,0,0,1,1,5c.1,2.6-3.33,2.62-4.18.57C258.71,277.28,257.81,273.05,258.8,270.47Z"/><path class="cls-8" d="M269.4,284c2.29.69,3.54,3.51,4.5,5.48a2.33,2.33,0,0,1-.82,3.12,2.29,2.29,0,0,1-3.12-.81c-.53-1.08-1-2.18-1.48-3.3a9.34,9.34,0,0,1-.94-3.07A1.48,1.48,0,0,1,269.4,284Z"/><path class="cls-8" d="M259.69,289.77a.72.72,0,0,1,0-.17,1.33,1.33,0,0,1,1.65-1.49,3.45,3.45,0,0,1,1.55.78,6.5,6.5,0,0,1,1.18,1.84c.29.62.59,1.26.82,1.91a4,4,0,0,1,.27,1.09c0,.08.2,1.65,0,.63.17.9-.62,2.1-1.67,1.67a4.45,4.45,0,0,1-1.72-.9,6.09,6.09,0,0,1-1.27-2.24c-.19-.55-.42-1.11-.57-1.68-.07-.25-.16-.5-.23-.75A1.35,1.35,0,0,1,259.69,289.77Z"/><path class="cls-8" d="M272.54,297.66c2,1,3.89,3.13,3.44,5.5a1.6,1.6,0,0,1-2.65.7c-.91-1.11-1.11-2.71-2.3-3.63A1.49,1.49,0,0,1,272.54,297.66Z"/><path class="cls-8" d="M252.59,273.28a1.46,1.46,0,0,1,2,0c.79.75.79,1.82,1,2.82a6,6,0,0,1,.15,3.18,1.4,1.4,0,0,1-2,.82,4,4,0,0,1-1.69-3C251.82,275.81,251.57,274.28,252.59,273.28Z"/><path class="cls-8" d="M247.43,264.1a1.31,1.31,0,0,1,2.5,0,4.32,4.32,0,0,1,.13,2.44,1.44,1.44,0,0,1-2.76,0A4.32,4.32,0,0,1,247.43,264.1Z"/><path class="cls-8" d="M282.7,299.73c2.49,2.54,5.85,7,5.09,10.81-.35,1.74-2.64,1.72-3.48.46s-1-3.28-1.48-4.86c-.53-1.81-1.21-3.62-1.91-5.37C280.51,299.74,282,299,282.7,299.73Z"/></g><path class="cls-11" d="M136.13,118.89s-7.17,19.84-10.93,33c0,0-15,26.29-25.35,32.86,0,0-21.59,16.9-25.35,38.49A183.14,183.14,0,0,1,68.63,252c-4.32,14.37-16.4,24.32-19.56,39.31-3.33,15.75-.53,32.4,4.78,47.38"/><path class="cls-11" d="M256.29,142.11a37,37,0,0,1,3,13.61c1,17.14-6.78,24.16,6.84,38.56,0,0,11.14,16.75,8.32,26.14,0,0,4.32,17.83,20.47,25.82,0,0,12.39,12.67,5.82,30.51,0,0-.94,27.23,11.26,38.5,0,0,16.25,30.14,8.13,52.63"/><path class="cls-11" d="M164.64,115.26s-37.6-9.1-27.72,12.35c0,0,3.31,5.49,20.21,4.55,0,0,13.52-.52,18,3,0,0,1.19,3.78,16.93-.1,0,0,25-6.75,30.7-.61,0,0,20,14.76,33.5,7.63,0,0,4.12-10-17.48-18.4,0,0-31-20.65-42.25-10.33C196.56,113.38,186.23,121.83,164.64,115.26Z"/><path class="cls-14" d="M191,318.38c3.1,6.86,8.68,10.27,14.5,14.59a20.9,20.9,0,0,1,4.49,4.11c.85,1.14,4.9,7.69,5.88,8.73,1.28,1.38-.21-3.31,1.41-4.62s2.57-6.05,1.53-8.64c-.93-7.45-8.87-11.43-14.52-15.19a33.52,33.52,0,0,1-9.48-8.94,30.43,30.43,0,0,1-3.51-6.4c-.36-1-.62-2-.94-3a14.23,14.23,0,0,0-.92-4.06.33.33,0,0,0-.59,0,17.64,17.64,0,0,0-.41,6.07c.06,2.28.12,4.58.34,6.85C189.13,311.44,189.5,315.06,191,318.38Z"/><path class="cls-14" d="M202.82,299.35c2.56,5.15,6.25,9.14,9.92,13.51A33.92,33.92,0,0,1,220.18,328a1.6,1.6,0,0,0,1.28,1.36,3.39,3.39,0,0,0,1.31.07,1.51,1.51,0,0,0,1.33-1.25,15.08,15.08,0,0,0,.06-1.76c.58-2.22,1.68-3.47,1.66-5.76A41,41,0,0,0,225,312c-1.28-5.35-5.21-10.3-8.69-14.5a61.17,61.17,0,0,1-8.91-13.23,36.66,36.66,0,0,1-2.84-8,42.2,42.2,0,0,1-.56-5.23,9.29,9.29,0,0,0,.56-4.09.28.28,0,0,0-.44-.19,4.32,4.32,0,0,0-.89.92.37.37,0,0,0-.19.23.61.61,0,0,0-.05.12,9.76,9.76,0,0,0-1,2.31,23.35,23.35,0,0,0-2.21,5.1,32.26,32.26,0,0,0-.89,7.58A38.51,38.51,0,0,0,202.82,299.35Z"/><path class="cls-14" d="M219.43,296c.39,1.65.72,4.07,2.07,5.26,1,.87,2.34,10.18,2.8,8.9,0-.14.07-9.84.06-10,1.18-1.75,1.72-3.89,2.57-5.82a25.36,25.36,0,0,1,4-6.46c3.55-4.07,8-7.19,11.2-11.61,2.92-4.05,5.07-8.67,5.15-13.75A28.88,28.88,0,0,0,243,246.83a17.24,17.24,0,0,0-1.5-3.44c-.4-.68-1.46-.18-1.38.53.41,3.91,1.71,7.6.59,11.55s-3.89,7.17-6.84,9.85c-4.54,4.13-10.25,8-12.91,13.72A26.82,26.82,0,0,0,219.43,296Z"/><path class="cls-15" d="M211.65,304.73c.46,3.23,2.57,5.41,4.26,8.07a32.07,32.07,0,0,1,4.68,12.26,60.32,60.32,0,0,1,.36,6.3c0,1.51,0,2.69.82,3.95a.61.61,0,0,0,1-.11,8.41,8.41,0,0,0,.89-4.34,24.67,24.67,0,0,0,1.26-8.13,36.45,36.45,0,0,0-2.14-11c-1.35-3.69-4.13-9.86-8.81-10.35C212.12,301.19,211.43,303.18,211.65,304.73Z"/><path class="cls-15" d="M199.12,323.75c.42,2.13,2.74,3.32,4.44,4.3a21.61,21.61,0,0,1,10.55,14.31,1.28,1.28,0,0,0,1.33.82,19.49,19.49,0,0,0,3.48-.6l.09,0a.8.8,0,0,0,.93-.57c1.21-4.93-1.14-11.15-4.1-15.11a18,18,0,0,0-6.84-5.62c-1.83-.84-4.91-2.32-7-1.85A3.53,3.53,0,0,0,199.12,323.75Z"/><path class="cls-15" d="M222.68,306.27c.26.51,1.18.73,1.4,0,.76-2.35.26-5,0-7.5a27.13,27.13,0,0,1,3.09-9.45c2.12-3.85,5.48-6.46,7.93-10,1.23-1.81,3.24-5,2-7.22-1-1.69-3.22-1.33-4.72-.68a19.7,19.7,0,0,0-10.81,13.93,37,37,0,0,0-.44,10.3C221.33,299,221.2,303.29,222.68,306.27Z"/><path class="cls-3" d="M221.5,305s8.87,5.56,1.31,30.17L219.94,342"/><path class="cls-3" d="M219.43,296c.39,1.65.72,4.07,2.07,5.26,1,.87,2.34,10.18,2.8,8.9,0-.14.07-9.84.06-10,1.18-1.75,1.72-3.89,2.57-5.82a25.36,25.36,0,0,1,4-6.46c3.55-4.07,8-7.19,11.2-11.61,2.92-4.05,5.07-8.67,5.15-13.75A28.88,28.88,0,0,0,243,246.83a17.24,17.24,0,0,0-1.5-3.44c-.4-.68-1.46-.18-1.38.53.41,3.91,1.71,7.6.59,11.55s-3.89,7.17-6.84,9.85c-4.54,4.13-10.25,8-12.91,13.72A26.82,26.82,0,0,0,219.43,296Z"/><path class="cls-3" d="M191,318.38c3.1,6.86,8.68,10.27,14.5,14.59a20.9,20.9,0,0,1,4.49,4.11c.85,1.14,4.9,7.69,5.88,8.73,1.28,1.38-.21-3.31,1.41-4.62s2.57-6.05,1.53-8.64c-.93-7.45-8.87-11.43-14.52-15.19a33.52,33.52,0,0,1-9.48-8.94,30.43,30.43,0,0,1-3.51-6.4c-.36-1-.62-2-.94-3a14.23,14.23,0,0,0-.92-4.06.33.33,0,0,0-.59,0,17.64,17.64,0,0,0-.41,6.07c.06,2.28.12,4.58.34,6.85C189.13,311.44,189.5,315.06,191,318.38Z"/><path class="cls-16" d="M228.83,340.66a11.16,11.16,0,0,0,1.1,3,16.25,16.25,0,0,0,2.82,6.5,19.52,19.52,0,0,0,9.1,6.87c6.89,2.53,15.28,3.12,22.17.19a26.06,26.06,0,0,0,14.44-15.55,27.66,27.66,0,0,0,.93-12.43c-.48-3.67-.82-8.25-2.61-11.64-.11-.69-.21-1.38-.28-2.07a41.7,41.7,0,0,1,.28-9c.57-5.3-.43-10.12-6-12a50.78,50.78,0,0,0-10.93-2,50.83,50.83,0,0,0-10.39-.43,9.06,9.06,0,0,0-2.21.1,11.15,11.15,0,0,0-5.9,2.89c-4.6,4.43-4.05,12.22-5.09,18-1.15,6.44-4.47,12-6.32,18.23C229.09,334.09,228.16,337.69,228.83,340.66Z"/><path class="cls-17" d="M241.64,347.44c-1-1.05.08-2.59,1.24-2.79,7.31-1.23,12.57-6.15,16.61-12.13A30.86,30.86,0,0,0,264,321.45a47.66,47.66,0,0,0,.85-6.85c.11-1.86.45-5.06-.29-6.81a2.16,2.16,0,0,1,1.22-2.78c2.46-.81,4-1.33,3.92-4.24a6.85,6.85,0,0,0-1.12-3.59c-.7-1.1-2-1.49-2.61-2.66A.48.48,0,0,1,266,294a.39.39,0,0,1,.55-.46l.2.08a3.56,3.56,0,0,1,3.11.91,11.07,11.07,0,0,1,4.08,1.63c2.53,1.8,3.31,4.85,3.2,7.79a30.19,30.19,0,0,1-1.08,4.75c-.45,2.17.26,4.72.79,6.81.93,3.6,1.3,7.38,2.48,10.89a2.37,2.37,0,0,1-3.94,2.42,19,19,0,0,0-4.6,1.23,10.06,10.06,0,0,0-4.32,4.68c-1,1.9-.5,4.39-.38,6.44a15.43,15.43,0,0,1-.73,6c-1.2,3.57-5.4,6.32-7.78,9.11a16.48,16.48,0,0,0-3,5c-.3.78-.58,1.58-.89,2.37a2.32,2.32,0,0,0-.13.47,2,2,0,0,1,0,1.93,4.74,4.74,0,0,1-.07,1.07,1.4,1.4,0,0,1-2.25.85c-.14-.14-.27-.29-.39-.43a2.07,2.07,0,0,1-1-.54,34.39,34.39,0,0,1-6.1-8.36,14.4,14.4,0,0,1-1-10.31A7.66,7.66,0,0,1,241.64,347.44Z"/><path class="cls-18" d="M254.75,318.1a4.63,4.63,0,0,0,1.34,2,3.86,3.86,0,0,0,5.64-.56,5.16,5.16,0,0,0,.91-2,5.3,5.3,0,0,0,.13-1.59,4,4,0,0,0-2.36-3.36,4.24,4.24,0,0,0-.91-.2,2.59,2.59,0,0,0-.58-.15,5.33,5.33,0,0,0-1,0,3.28,3.28,0,0,0-1.83.65,4.25,4.25,0,0,0-1.23,1.53,3.85,3.85,0,0,0-.36,1.15A5.6,5.6,0,0,0,254.75,318.1Z"/><path class="cls-18" d="M265,312.77a4.81,4.81,0,0,1,1-3.76c1.22-1.65,3.36-1.78,5.14-1.15s3.23,3.12,2.23,5a4.79,4.79,0,0,1-.79,2,4.2,4.2,0,0,1-4.19,1.62A4.51,4.51,0,0,1,265,312.77Z"/><path class="cls-18" d="M260.29,324.52a4.36,4.36,0,0,1,1.58-2.81,3.66,3.66,0,0,1,2.75-.78l.09,0a3.53,3.53,0,0,1,2.55.7,4.37,4.37,0,0,1,1.45,3.93c-.11,2.34-2.8,4.59-5.15,4a4.27,4.27,0,0,1-3-2.43A5.11,5.11,0,0,1,260.29,324.52Z"/><path class="cls-18" d="M257.8,335.56a3.11,3.11,0,0,1-4.31-.68,8.8,8.8,0,0,1-.8-1.44,3.18,3.18,0,0,1,2.62-4.28,3.35,3.35,0,0,1,2.53.72A3.21,3.21,0,0,1,259,332a2.08,2.08,0,0,1,0,.35A3.14,3.14,0,0,1,257.8,335.56Z"/><path class="cls-18" d="M260.44,338.28a2.88,2.88,0,0,1,1.86,1.14,3.17,3.17,0,0,1,.55,2.4,2.88,2.88,0,0,1-4.66,1.76l-.51-.54a2.79,2.79,0,0,1-.53-1.4,2.93,2.93,0,0,1,.65-2.34A2.84,2.84,0,0,1,260.44,338.28Z"/><path class="cls-18" d="M252.61,345.5c.12-.18.23-.36.34-.54a2.48,2.48,0,0,1,1-.75,1.59,1.59,0,0,1,.7-.19h.07a2.14,2.14,0,0,1,1.05.18l.16.05h0a4.63,4.63,0,0,1,.53.29,1.67,1.67,0,0,1,.49.5,2.57,2.57,0,0,1,.46,1.21,5.1,5.1,0,0,1,0,.68,2.46,2.46,0,0,1-1,1.61,2.69,2.69,0,0,1-1.89.44h0a2.49,2.49,0,0,1-1.85-3.48Z"/><path class="cls-19" d="M249.23,300.77c-.56-3.76,5.5-4.38,8-4.56,3.12-.23,8-.32,10.42,2.14,3.64,3.76-.79,6.73-4.48,7.06s-8.41.14-11.82-1.65a3.22,3.22,0,0,1-1.71-2A2,2,0,0,1,249.23,300.77Z"/><path class="cls-20" d="M228.38,359.83c1.25,7.24,5.08,13.2,13.47,16.27,6.89,2.53,15.28,3.12,22.17.19,10.42-4.44,14.57-13.66,15.63-24.52,1.16-11.91-1-22.77-2.87-34.19-.11-.69-.21-1.38-.28-2.07a41.7,41.7,0,0,1,.28-9c.57-5.3-.43-10.12-6-12a50.78,50.78,0,0,0-10.93-2,50.83,50.83,0,0,0-10.39-.43,9.06,9.06,0,0,0-2.21.1,11.15,11.15,0,0,0-5.9,2.89c-4.6,4.43-4.05,12.22-5.09,18C234.17,324.7,225.82,345,228.38,359.83Z"/><path class="cls-20" d="M249.23,300.77c-.56-3.76,5.5-4.38,8-4.56,3.12-.23,8-.32,10.42,2.14,3.64,3.76-.79,6.73-4.48,7.06s-8.41.14-11.82-1.65a3.22,3.22,0,0,1-1.71-2A2,2,0,0,1,249.23,300.77Z"/><path class="cls-21" d="M314.44,280.54c-6,.07-11.35,2.82-15.71,6.75,1-2.52,2-5.05,2.74-7.65a70.29,70.29,0,0,0,1.92-8.2c.47-.71.74-1.51,1.2-2.29a9.34,9.34,0,0,1,3.13-3.12c3.3-1.94,7.34-1.79,11-2.61,4.89-1.11,9.81-5.95,7.23-11.35-5.77-12-17,3.09-21.66,12.48a89.35,89.35,0,0,0-.12-16.27.42.42,0,0,0,.14-.28l.09-.93a16.52,16.52,0,0,1,.93-3.37,12,12,0,0,1,3-3.85c2.15-1.82,4.58-3.33,6.6-5.3s4.15-4.46,4-7.42c-.1-2.37-1.36-5.5-3.67-6.57-4.89-2.29-9.15,3.87-10.64,7.75a36.3,36.3,0,0,0-2.13,9.35c-.42-2-.9-3.9-1.43-5.81.07-4.07.07-8.3-.2-12.36a36,36,0,0,0-1.56-9.1c-1.26-3.74-5.23-9-9.83-6.43s-2.76,9-.76,12.54a69.72,69.72,0,0,0,6.13,8.38c1,1.34,2.09,2.69,3.08,4.08a10.72,10.72,0,0,0,1.6,2,101.68,101.68,0,0,1,2.91,21.13c-.29-.6-.58-1.21-.84-1.8-.85-2-1.65-3.93-2.55-5.86a33.84,33.84,0,0,0-5.75-9c-3.51-3.69-9.95-5.38-12.75.17-3,5.86,2,10,7.13,11.78,2.9,1,6,1.59,8.78,2.89a11.88,11.88,0,0,1,4.41,3.12c.62.78,1.08,1.64,1.61,2.46a84.09,84.09,0,0,1-2.12,18.26c-.15-1.4-.43-2.8-.63-4a24.62,24.62,0,0,0-2.85-8.46c-2.56-4.22-9-8.78-13.89-5.13-2,1.46-3.39,4.24-2.52,6.71s3.24,4,5.68,4.77c3.09,1,6.55,1.46,9.22,3.48a10.09,10.09,0,0,1,3.27,4.6,8.53,8.53,0,0,0,.64,2.06c-.48,1.65-1,3.28-1.62,4.88s-1.31,3.29-2,4.92a17.06,17.06,0,0,0-4.16-9.25c-2.4-2.59-7-5.53-10.54-2.95-3.13,2.31-2.25,7.39,1,9.15,2.19,1.17,4.64,1.22,6.92,2.07a10,10,0,0,1,3.75,2.38,8.21,8.21,0,0,1,1.4,2.31A112.25,112.25,0,0,0,289,305.19a28.77,28.77,0,0,0-1.5-4.66c-.7-1.68-1.62-3.48-3.37-4.24a3.61,3.61,0,0,0-3.95,1c-2.25,3.15,1.66,7.63,3.51,10a43,43,0,0,0,3.81,5,57.43,57.43,0,0,0-.54,7.54V320a8.25,8.25,0,0,0-.92-1.06c-1.07-1-3.59-2-4.51-.26-.75,1.45,1.54,3.24,2.42,4a23.58,23.58,0,0,0,3.05,2.41,25.54,25.54,0,0,0,1.42,8.09.4.4,0,0,0,.76-.07,42.24,42.24,0,0,0,.22-8.94,1.35,1.35,0,0,1,.73-.62,4.84,4.84,0,0,1,2.27-.09c1.5.25,3,.73,4.49.88,1.88.18,5.46-.71,4.86-3.36-.52-2.26-4.32-2.56-6.14-2.61a7.84,7.84,0,0,0-6.3,3.15c0-1.16,0-2.31,0-3.44.11-1.64.28-3.28.52-4.91a.44.44,0,0,0,.22-.15c3.55-4.56,10.25-2.69,14.78-.59,2.33,1.08,4.86,2.2,7.48,1.75s3.9-3.05,4.11-5.43c.63-6.95-8.34-8-13.15-7.05-2.94.59-6.41,1.39-8.81,3.3a18.52,18.52,0,0,0-3.2,3.92,4.42,4.42,0,0,0-.77.5,49.31,49.31,0,0,1,1.48-5.45c1.46-4.35,3.29-8.56,5.07-12.79,1.28-.6,2.36-1.45,3.94-1.57a14.77,14.77,0,0,1,4.86.5c3.31.88,5.88,2.92,9,4.08,2.39.89,5.1,1.21,7.32-.37,1.8-1.28,3.49-3.29,3.27-5.66C325,282.78,319.17,280.48,314.44,280.54Z"/><path class="cls-16" d="M253.3,376.74a89.73,89.73,0,0,0,4.18,15,2.61,2.61,0,0,0,1.71,3c2.74.95,6.05-.21,8.86-.52a86.73,86.73,0,0,1,15.87,0,55.83,55.83,0,0,1,6.46.63,20.46,20.46,0,0,0,5.17.59,8.52,8.52,0,0,0,3.17-.94,3.08,3.08,0,0,0,1.21-.42c8-4.68,8.68-16.49,5.31-24.12-2.19-4.93-4.72-9.73-6.73-14.74a23.09,23.09,0,0,1-2.09-8.14c0-2.12,1.11-3.83,1.3-5.86,1-10.25-11.59-12.05-19.23-11.78-3.51.12-7.42.17-10.36,2.35a3.92,3.92,0,0,0-.89,1c-1.4,1.41-1.61,4-1.44,5.94.32,3.64,1.75,6.87-1.2,9.81-2.58,2.58-5,4.87-6.7,7.77a16.17,16.17,0,0,0-4.1,8.6C252.05,368.39,252.54,373,253.3,376.74Z"/><path class="cls-17" d="M257.68,383.06a8.07,8.07,0,0,1-1.07-2.81,2,2,0,0,1,.8-1.8c1.53-1.24,4.64.9,6.14,1.46a14,14,0,0,0,9.25-.23,20.1,20.1,0,0,0,13-12.87c2.26-6.51-1.19-13.85,1.79-20,1.26-2.6,7.28-8.5,2.6-15.1,3-.57,6.7,3.49,7.81,5.54a7.64,7.64,0,0,1-.92,8.68c.28,1.84-.09,3.76.51,5.62,1,3.09,2.68,5.89,4.1,8.79,2.73,5.56,5.59,11.36,5.26,17.73-.21,3.88-4.72,19.24-10.78,15.39-2.11.36-4.78-.52-6.73-.72a73.69,73.69,0,0,0-9.28-.35c-6.25.14-12.21,1.68-18.37,2.31a2.19,2.19,0,0,1-1.37-.29,2,2,0,0,1-2.35-2c-.05-2.13,0-4.26-.23-6.39A17.42,17.42,0,0,1,257.68,383.06Z"/><path class="cls-22" d="M290.62,363.08a4.76,4.76,0,0,1,.95-3.24,3.6,3.6,0,0,1,4.26-1.13,4.35,4.35,0,0,1,2.77,2.7,4.84,4.84,0,0,1,0,3.72,4.23,4.23,0,0,1-3.41,2.33A4.53,4.53,0,0,1,290.62,363.08Z"/><path class="cls-22" d="M287.32,348.31a4.51,4.51,0,0,1,.78-1.86,2.9,2.9,0,0,1,2.14-1.14,3.11,3.11,0,0,1,2.11.62l.09.08a2.94,2.94,0,0,1,.83.47,2.87,2.87,0,0,1,.91,1.24,3.16,3.16,0,0,1,.19,1.72,3.56,3.56,0,0,1-2.46,2.76,4.11,4.11,0,0,1-1.81.18,3.37,3.37,0,0,1-1.6-.71A3.45,3.45,0,0,1,287.32,348.31Z"/><path class="cls-22" d="M281.16,355.2a3.18,3.18,0,0,1,1.26-2.16,3.82,3.82,0,0,1,1.59-.63l.13-.07a3.23,3.23,0,0,1,2.67.07,4.07,4.07,0,0,1,2.29,3.64,4.14,4.14,0,0,1-.34,1.9,3.37,3.37,0,0,1-1.18,1.41,3.77,3.77,0,0,1-.83.42A3.67,3.67,0,0,1,285,360a3.86,3.86,0,0,1-1.15-.32,5.16,5.16,0,0,1-1.91-1.49,4,4,0,0,1-.6-1A3.74,3.74,0,0,1,281.16,355.2Z"/><path class="cls-22" d="M280.79,366v0a1.16,1.16,0,0,0,0-.18C280.76,365.86,280.78,365.91,280.79,366Z"/><path class="cls-22" d="M280.79,366c.06.22.11.44.16.66C280.9,366.42,280.84,366.2,280.79,366Z"/><path class="cls-22" d="M280.75,364.51a3.25,3.25,0,0,1,.63-1.45,2.92,2.92,0,0,1,1.19-.87c1.28-.66,3,.15,3.82,1.18a4.63,4.63,0,0,1,.86,1.68c.07.28.13.56.2.85a3.12,3.12,0,0,1-.28,1.68,3.26,3.26,0,0,1-6.2-.9q-.11-.36-.18-.72A3.08,3.08,0,0,1,280.75,364.51Z"/><path class="cls-22" d="M286.19,374.23a3.7,3.7,0,0,1,1.81-1.74,2.44,2.44,0,0,1,1.06-.74,3.67,3.67,0,0,1,2.59.11,3.89,3.89,0,0,1,1.84,2,4.68,4.68,0,0,1,.23,3.11,5,5,0,0,1-.4,1.26,4.15,4.15,0,0,1-1.22,1.5,3.67,3.67,0,0,1-1.77.71,3.71,3.71,0,0,1-1.89-.29,4,4,0,0,1-1.74-1.42,5.41,5.41,0,0,1-.85-2.24A4.2,4.2,0,0,1,286.19,374.23Z"/><path class="cls-22" d="M271.33,373.48a3.94,3.94,0,0,1,.82-1.74,4,4,0,0,1,2.34-1.28,3.69,3.69,0,0,1,2.35.38l.07.05a4.33,4.33,0,0,1,3.21,3.9,6.34,6.34,0,0,1-1.11,3.94,3.65,3.65,0,0,1-3.67,1.37,5.1,5.1,0,0,1-2.8-1.88,5.61,5.61,0,0,1-1-2A5.37,5.37,0,0,1,271.33,373.48Z"/><path class="cls-22" d="M278.15,383.55a3.37,3.37,0,0,1,1.8-1.76,2.32,2.32,0,0,1,.61-.21,3.18,3.18,0,0,1,2.06-.32,3.56,3.56,0,0,1,2.24,1.32,4.5,4.5,0,0,1,.88,2,4.11,4.11,0,0,1-.89,3.38,3.78,3.78,0,0,1-3.47,1.3,4.31,4.31,0,0,1-3.53-3.85A3.75,3.75,0,0,1,278.15,383.55Z"/><path class="cls-22" d="M296.16,376.33a4.9,4.9,0,0,1,1.34-1.1l.68-.38a3,3,0,0,1,1.59-.16,4.07,4.07,0,0,1,.5.13h0a2.47,2.47,0,0,1,.87.28,3.4,3.4,0,0,1,1.28,1,3.38,3.38,0,0,1,.37,3.41,3.28,3.28,0,0,1-1.3,1.5,5.51,5.51,0,0,1-2,.77,3,3,0,0,1-1.34,0,3.53,3.53,0,0,1-1.59-.71,3.19,3.19,0,0,1-1-1.38A3.37,3.37,0,0,1,296.16,376.33Z"/><path class="cls-22" d="M290.53,385.4a3.14,3.14,0,0,1,.53-.77,2.34,2.34,0,0,1,1.62-.87,2.32,2.32,0,0,1,1.77.53,3.06,3.06,0,0,1,1.1,1.93,2.87,2.87,0,0,1-1.17,2.59,2.64,2.64,0,0,1-2.59.26,2.58,2.58,0,0,1-1.5-2.08A3.45,3.45,0,0,1,290.53,385.4Z"/><path class="cls-19" d="M273.64,335.55c1.76-2.3,6.11-2.23,8.68-2.22,3,0,7.85.47,8.77,4.06a2.87,2.87,0,0,1-1,3.32c-4.68,2.76-11.95,2.68-16.35-.63A3,3,0,0,1,273.64,335.55Z"/><path class="cls-3" d="M298.72,394.48a3.08,3.08,0,0,0,1.21-.42c8-4.68,8.68-16.49,5.31-24.12-2.19-4.93-4.72-9.73-6.73-14.74a23.09,23.09,0,0,1-2.09-8.14c0-2.12,1.11-3.83,1.3-5.86,1-10.25-11.59-12.05-19.23-11.78-3.51.12-7.42.17-10.36,2.35a3.92,3.92,0,0,0-.89,1c-1.4,1.41-1.61,4-1.44,5.94.32,3.64,1.75,6.87-1.2,9.81-2.58,2.58-5,4.87-6.7,7.77a16.17,16.17,0,0,0-4.1,8.6c-1.75,3.54-1.26,8.17-.5,11.89a89.73,89.73,0,0,0,4.18,15,2.61,2.61,0,0,0,1.71,3"/><path class="cls-3" d="M273.64,335.55c1.76-2.3,6.11-2.23,8.68-2.22,3,0,7.85.47,8.77,4.06a2.87,2.87,0,0,1-1,3.32c-4.68,2.76-11.95,2.68-16.35-.63A3,3,0,0,1,273.64,335.55Z"/><path class="cls-16" d="M198.72,400.26c1.07,2.93,3,6.66,5.46,8.66a3,3,0,0,0,3.07.52l.25.06c3.47.73,6.81-1.9,10.44-.94,1.75.46,3.52,1.57,5.4,1.38a8.92,8.92,0,0,0,3.86-1.9c3.33-2.26,8.49-3,12.42-3.53a39.14,39.14,0,0,1,6-.37,20.63,20.63,0,0,0,4.08,0,2.74,2.74,0,0,0,4.21-.44c7.17-9.87,5.37-22.12-1.33-31.69-1.76-2.52-3.79-4.83-5.6-7.31-1.5-2.05-3.82-4.59-4.21-7.18-.65-4.36.35-9.78-3.63-12.85-5.45-4.21-14.4-2.73-20.71-1.41-3,.63-6.87,1.46-8.84,4.12a6.82,6.82,0,0,0-1.37,5.53c-.16,1.91.1,3.83.1,5.88a19.65,19.65,0,0,1-2.1,8.83c-2.46,5.08-5.83,9.65-7.47,15.1S196.81,395,198.72,400.26Z"/><path class="cls-17" d="M197.49,390.1a5.89,5.89,0,0,1-.21-.59c-.39-1.28-.25-4.82,1.92-4.46,1.58.27,2.1,3.09,3,4.18,1.62,2,4.3,2.9,6.67,3.52,6,1.59,11.77.22,16.85-3.4,7.91-5.65,10.21-14.52,9.6-23.78-.28-4.2-1.38-8.91.27-13,.82-2,2.18-4.15.79-6.24-1.08-1.62-3.26-2.25-4.66-3.54a.63.63,0,0,1,.33-1.1c5.86-1,12.07,3.12,10.85,9.51a13.59,13.59,0,0,1-.81,2.51,31.53,31.53,0,0,0,1,3.39,29.25,29.25,0,0,0,4.25,7.18c3,4,6.23,7.67,8.51,12.13,2.15,4.22,2.35,9.15,2.17,13.78-.16,4.3-1.31,9.12-4.17,12.44a3.06,3.06,0,0,1-4,.74c-3.58.66-7.49,0-11.12.46a37.82,37.82,0,0,0-11.79,3.59,18.31,18.31,0,0,1-4.45,1.86c-1.91.4-4.09-.67-5.9-1.11-3.29-.79-7.11,1.13-10.4,1.32a3,3,0,0,1-2.7-1.17c-2.67-1.25-3.93-4.21-4.87-6.93A25.73,25.73,0,0,1,197.49,390.1Z"/><path class="cls-22" d="M233.24,359.59a4.07,4.07,0,0,1,4.38-2.44,4.63,4.63,0,0,1,3.31,2.87,4.58,4.58,0,0,1,.38,1.71,4.67,4.67,0,0,1-.89,3,3.25,3.25,0,0,1-4.24.7,4.22,4.22,0,0,1-2.25-1.46A4.43,4.43,0,0,1,233.24,359.59Z"/><path class="cls-22" d="M241.78,372.07a5.4,5.4,0,0,1,6.52.11,5.11,5.11,0,0,1,1.83,2.49,4,4,0,0,1-.45,3.64,3.9,3.9,0,0,1-.19.35,5.85,5.85,0,0,1-2.74,2.51,4.34,4.34,0,0,1-2.8.2,5.47,5.47,0,0,1-3.86-3.56A5.17,5.17,0,0,1,241.78,372.07Z"/><path class="cls-22" d="M227.42,371.92a3.75,3.75,0,0,1,2.08-2,3.39,3.39,0,0,1,3,.26,5.51,5.51,0,0,1,1.28.65,4.57,4.57,0,0,1,1.32,1.78,4.49,4.49,0,0,1,.36,2.4,2.88,2.88,0,0,1-.37,1.25,3.68,3.68,0,0,1-1.09,1.35,3.84,3.84,0,0,1-.88.5,3.94,3.94,0,0,1-3.3-.2,4.85,4.85,0,0,1-2-1.76,5.5,5.5,0,0,1-.76-2A4.18,4.18,0,0,1,227.42,371.92Z"/><path class="cls-22" d="M231.78,381.66a3.87,3.87,0,0,1,2.44-1.37,3.83,3.83,0,0,1,1.07,0l.13,0a3.49,3.49,0,0,1,1,0,5.32,5.32,0,0,1,2.78,8.67,4.31,4.31,0,0,1-4.86,1.18c-2-.7-3.14-3-3.45-5A4.6,4.6,0,0,1,231.78,381.66Z"/><path class="cls-22" d="M243.42,387.42a4.1,4.1,0,0,1,4-.37,1.58,1.58,0,0,1,.24.15,4.33,4.33,0,0,1,1.9.83c1.63,1.27,1.82,3.93.94,5.68a4.93,4.93,0,1,1-7.11-6.29Z"/><path class="cls-22" d="M234.1,396.23l-.06.19c.07-.24.14-.48.22-.72,0,0,0,0,0,0l0,0c.05-.13.1-.26.16-.39a3.61,3.61,0,0,1,.56-.83h0l0,0,0,0a4.37,4.37,0,0,1,.49-.47,2.64,2.64,0,0,1,2-.47A3.12,3.12,0,0,1,240,395.6a3.26,3.26,0,0,1,.18,1.69c-.09.31-.17.62-.28.91a3.08,3.08,0,0,1-5.31.7,3.23,3.23,0,0,1-.59-1.52A3,3,0,0,1,234.1,396.23Z"/><path class="cls-22" d="M221.62,393a4.44,4.44,0,0,1,.94-3.09,3.15,3.15,0,0,1,1.31-.94l.82-.2a3.17,3.17,0,0,1,.43,0l.37-.07a3.65,3.65,0,0,1,2.92.87,3.79,3.79,0,0,1,1.07,1.48,3.83,3.83,0,0,1,.17,1.93,4.15,4.15,0,0,1-.89,1.91,4.86,4.86,0,0,1-1.75,1.3,3,3,0,0,1-1.31.33,3.87,3.87,0,0,1-1.87-.31,3.6,3.6,0,0,1-1.46-1.16A3.56,3.56,0,0,1,221.62,393Z"/><path class="cls-22" d="M224.27,399.1h0a2.63,2.63,0,0,1,.48-.46l-.08.08a2.66,2.66,0,0,1,1.34-.57,3.41,3.41,0,0,1,.78,0,2.68,2.68,0,0,1,1.26.57,2.6,2.6,0,0,1,1,1.83v0a2.81,2.81,0,0,1-.59,2,2.68,2.68,0,0,1-1.83,1,2.73,2.73,0,0,1-3-2.42A2.8,2.8,0,0,1,224.27,399.1Z"/><path class="cls-19" d="M218.59,348.86l.64-.05a25.33,25.33,0,0,1,13.37-1.69,2.59,2.59,0,0,1,1.09,4.6c-4.23,2.75-9.63,2.79-14.46,3.41C215.2,355.64,214.54,349.27,218.59,348.86Z"/><path class="cls-3" d="M253.94,403.72c7.17-9.87,5.37-22.12-1.33-31.69-1.76-2.52-3.79-4.83-5.6-7.31-1.5-2.05-3.82-4.59-4.21-7.18-.65-4.36.35-9.78-3.63-12.85-5.45-4.21-14.4-2.73-20.71-1.41-3,.63-6.87,1.46-8.84,4.12a6.82,6.82,0,0,0-1.37,5.53c-.16,1.91.1,3.83.1,5.88a19.65,19.65,0,0,1-2.1,8.83c-2.46,5.08-5.83,9.65-7.47,15.1s-2,12.24-.06,17.52c1.07,2.93,3,6.66,5.46,8.66a3,3,0,0,0,3.07.52"/><path class="cls-3" d="M218.59,348.86l.64-.05a25.33,25.33,0,0,1,13.37-1.69,2.59,2.59,0,0,1,1.09,4.6c-4.23,2.75-9.63,2.79-14.46,3.41C215.2,355.64,214.54,349.27,218.59,348.86Z"/><path class="cls-23" d="M138.72,268c.88-3.8,1.89-7.56,2.81-11.35a24.27,24.27,0,0,0,0-12.35c-.15-.33-.29-.65-.41-1a.37.37,0,0,1,0-.36.74.74,0,0,1,0-.14c-.13-.42.48-.82.77-.45a11.37,11.37,0,0,1,1.5,2.55,17.46,17.46,0,0,1,3.49,9.71c.2,5.89-2.13,11.36-1.16,17.33,1.09,6.68,4.15,12.69,7.66,18.44,1.72,2.05,3.19,4.44,4.78,6.35,3.7,4.47,7.81,8.49,11.77,12.72a49.12,49.12,0,0,1,12.41,25.05c1.63,9.71-2.72,18-5.95,26.86a30.27,30.27,0,0,0-1.79,15.41c1.33,7.37,6.5,13.59,6.78,14a1.05,1.05,0,0,1-.6,1.59,1.43,1.43,0,0,1-1.73,1.07c-7-1.3-10.06-9.56-11.37-15.71-2.2-10.3,3.31-19.33,3.72-29.42.42-10.52-4.89-18.52-11.9-25.7-6-6.15-12.78-13-17.19-20.42a31.92,31.92,0,0,1-4.9-10.91C135.33,283.72,137,275.43,138.72,268Z"/><path class="cls-15" d="M142,268.59c.1-.47.75-.32.78.1a64.51,64.51,0,0,1,0,7.09c1.88,11.07,8.19,21.08,15.82,29.13,7.42,7.83,15.54,14.36,19.34,24.8,3.49,9.58,2.27,20.23-.52,29.8-1.82,6.26-3.25,12.24-3.14,18.83a12.18,12.18,0,0,0,4.37,9,9.22,9.22,0,0,1,3,4,.86.86,0,0,1-.22,1,1.45,1.45,0,0,1-1.08,1.21c-1.66.58-3.87-1.4-5-2.3-3.59-2.82-6.54-6.63-7.17-11.06-2.7-6.81-.18-15.84,1.82-22.26,1.79-5.72,3.58-11.15,3.53-17.24-.06-6.9-4.16-12.79-8.35-17.91-6.36-7.79-13.51-15-19.11-23.4C139.78,290,139.77,279.33,142,268.59Z"/><path class="cls-20" d="M138.72,268c.88-3.8,1.89-7.56,2.81-11.35a24.27,24.27,0,0,0,0-12.35c-.15-.33-.29-.65-.41-1a.37.37,0,0,1,0-.36.74.74,0,0,1,0-.14c-.13-.42.48-.82.77-.45a11.37,11.37,0,0,1,1.5,2.55,17.46,17.46,0,0,1,3.49,9.71c.2,5.89-2.13,11.36-1.16,17.33,1.09,6.68,4.15,12.69,7.66,18.44,1.72,2.05,3.19,4.44,4.78,6.35,3.7,4.47,7.81,8.49,11.77,12.72a49.12,49.12,0,0,1,12.41,25.05c1.63,9.71-2.72,18-5.95,26.86a30.27,30.27,0,0,0-1.79,15.41c1.33,7.37,6.5,13.59,6.78,14a1.05,1.05,0,0,1-.6,1.59,1.43,1.43,0,0,1-1.73,1.07c-7-1.3-10.06-9.56-11.37-15.71-2.2-10.3,3.31-19.33,3.72-29.42.42-10.52-4.89-18.52-11.9-25.7-6-6.15-12.78-13-17.19-20.42a31.92,31.92,0,0,1-4.9-10.91C135.33,283.72,137,275.43,138.72,268Z"/><path class="cls-23" d="M137.5,337.68c-3.31-10-2.41-19.9,1.47-29.59a67.38,67.38,0,0,1,7-12.3c2.71-4,8.59-10.28,6.78-19.34-.18-.63.78-1.06,1.06-.46,4.09,8.65.52,17.94-2.86,26.17-2,4.8-4,9.57-5.07,14.68-1.26,6.1.37,11.47,3.31,16.82,2.87,5.2,6.62,9.87,9.53,15.06a38.83,38.83,0,0,1,4.61,16.17c.93,10.89-1.46,24.68-11.19,31.18-1,.7-2-.62-1.56-1.56,5-10.91,7.83-22,1.6-33.07C147.55,353.25,140.51,346.8,137.5,337.68Z"/><path class="cls-15" d="M138.9,314.18a136.74,136.74,0,0,1,9.92-17.75c.06-.15,1.94-2.15.24,1.68C145,307,141.73,313.84,142,323.23c.13,4.87,2.82,10.61,5.48,14.64s6.48,7.31,9.31,11.25c9.66,13.4,8,36.1-4.78,47.26-1.17,1-2.89-.67-1.72-1.72.5-.44,1-.9,1.42-1.38a1,1,0,0,1,.1-.49c1.85-4.2,4.18-7.74,5.09-12.33a35,35,0,0,0-.31-13.76c-1.79-8.78-8-15.66-12.5-23.13C134.88,332.76,137.16,318,138.9,314.18Z"/><path class="cls-3" d="M137.5,337.68c-3.31-10-2.41-19.9,1.47-29.59a67.38,67.38,0,0,1,7-12.3c2.71-4,8.59-10.28,6.78-19.34-.18-.63.78-1.06,1.06-.46,4.09,8.65.52,17.94-2.86,26.17-2,4.8-4,9.57-5.07,14.68-1.26,6.1.37,11.47,3.31,16.82,2.87,5.2,6.62,9.87,9.53,15.06a38.83,38.83,0,0,1,4.61,16.17c.93,10.89-1.46,24.68-11.19,31.18-1,.7-2-.62-1.56-1.56,5-10.91,7.83-22,1.6-33.07C147.55,353.25,140.51,346.8,137.5,337.68Z"/><path class="cls-23" d="M166.7,230.44a.53.53,0,0,1,.38-.07l.3-.27a.88.88,0,0,1,1.24,1.24c-4.71,5.38-8.11,11.6-8.5,18.86-.36,6.7,3.1,12.47,7.62,17.07,7.87,8,18.56,12.56,26.44,20.61a34.64,34.64,0,0,1,9.48,30.32c-1.06,6.28-4.1,12.21-7.59,17.45-1.8,2.69-3.79,5.24-5.65,7.88a76,76,0,0,0-4.62,8.19c-1.28,7.55,2.95,13.4,6.6,20.13s4.53,13.3-.23,19.59a1.17,1.17,0,0,1-2.12-.9c1.53-9.9-2.81-17.72-10.09-24.09-3.2-2.8-6.3-6.05-8-9.89a9.38,9.38,0,0,1-2.48-5.56c-.42-6.63,3.31-13.4,7.27-18.49,4.13-5.3,9.21-10.17,11.21-16.76,2.45-8.05-2.29-16.13-7.59-21.8-9.29-9.93-23-15-26.77-29.25C150.47,253,155.94,236.55,166.7,230.44Z"/><path class="cls-15" d="M157.34,253.61c.09-.66,1-.4,1,.14,1,15.5,10.47,19.5,15.07,24.35,7.62,6.15,16,11.44,22.43,18.86,7.82,9,8.22,20.82,3.87,31.49-2.29,5.62-5.87,10.36-9.46,15.18-4.31,5.79-5.64,11.73-3.07,18.52,2.22,5.88,7.09,11,7.81,17.38a14.4,14.4,0,0,1-.81,6.64c-.12,2.18-5.83,6.52-5.44,5.81a40.32,40.32,0,0,0,3.27-7.05c-.7-5.7-5-10.78-8.81-15.11-4.32-4.94-8.8-11.39-7.84-18.19,2.62-18.5,16.65-21.89,17.19-36.24.36-9.86-5-20.36-14.76-27.27-4.11-3.55-9.14-7.05-12.33-10.65C159.68,270.89,156.08,262.58,157.34,253.61Z"/><path class="cls-3" d="M166.7,230.44a.53.53,0,0,1,.38-.07l.3-.27a.88.88,0,0,1,1.24,1.24c-4.71,5.38-8.11,11.6-8.5,18.86-.36,6.7,3.1,12.47,7.62,17.07,7.87,8,18.56,12.56,26.44,20.61a34.64,34.64,0,0,1,9.48,30.32c-1.06,6.28-4.1,12.21-7.59,17.45-1.8,2.69-3.79,5.24-5.65,7.88a76,76,0,0,0-4.62,8.19c-1.28,7.55,2.95,13.4,6.6,20.13s4.53,13.3-.23,19.59a1.17,1.17,0,0,1-2.12-.9c1.53-9.9-2.81-17.72-10.09-24.09-3.2-2.8-6.3-6.05-8-9.89a9.38,9.38,0,0,1-2.48-5.56c-.42-6.63,3.31-13.4,7.27-18.49,4.13-5.3,9.21-10.17,11.21-16.76,2.45-8.05-2.29-16.13-7.59-21.8-9.29-9.93-23-15-26.77-29.25C150.47,253,155.94,236.55,166.7,230.44Z"/><path class="cls-1" d="M207.91,403.12c-3.3-4.39-7.72-7.59-10.48-12.43-2.36-4.13-5.29-8.42-9.16-11.36a28.31,28.31,0,0,0-9.76-5.48c-9-2.91-19.93-1.35-28.49,3.08-5.74,2.33-10.19,7.36-13.35,12.54a42,42,0,0,0-6,21.2c-.06,7.51,3.94,13.79,11.37,15.75,3.92,1,8.15.91,12.16.74.84,0,1.68-.08,2.51-.14,11.7,1.22,23.49-1.64,35.17-1.95,2.83-.08,5.67.13,8.5.21,2.25.06,5,.31,7.07-.68a6.49,6.49,0,0,0,3.56-5.55c.25-.91.41-1.76.53-2.29C212.54,412,210.75,406.91,207.91,403.12Z"/><path class="cls-2" d="M211.28,411.74a.45.45,0,0,0-.26-.36.49.49,0,0,0-1-.08c-.6,1.57-2.6,3-3.93,3.92a18.91,18.91,0,0,1-5.86,2.46c-4.54,1.13-9.44.75-14-.08a55.43,55.43,0,0,1-10.92-3.1,1.15,1.15,0,0,0,.12-.25,2.74,2.74,0,0,0-1.25-3.12,1.35,1.35,0,0,0-1.48-.25,1.48,1.48,0,0,0-.64,1.45,2.66,2.66,0,0,0,.17.74,23.68,23.68,0,0,1-7.16-5.54,32,32,0,0,1-3.93-6.07,2.15,2.15,0,0,0,2-1.43,2.44,2.44,0,0,0-1-2.24,3.62,3.62,0,0,0-1.68-.93.45.45,0,0,0-.49-.18,2.1,2.1,0,0,0-.82.4c-.32-.88-.62-1.78-.88-2.69a2.76,2.76,0,0,0,4.19-1.46c.91-2.42-1.13-6.39-4-6a2.18,2.18,0,0,0-1.4.79c-.4-6.92,2.2-13,10.57-14.23.43-.06.33-.77-.1-.75a17.28,17.28,0,0,0-2.64.38.31.31,0,0,0-.25-.08c-8,1-15.93,3.47-22.14,8.82a27.49,27.49,0,0,0-6.79,9.61.54.54,0,0,1-.05.11c-.2.31-.4.62-.59.93a29.17,29.17,0,0,0-2.54,6.08,39,39,0,0,0-1.82,11.93,18.84,18.84,0,0,0,2.55,10.13c1.78,2.82,4.88,4.28,8,5,3.57.86,7.34.74,11,.85,4.86.16,9.65.29,14.52.11,5.32-.19,10.63-.18,15.94-.64,2.67-.24,5.35-.53,8-.81,1.39-.15,2.82-.23,4.23-.38,1.93.08,3.84.21,5.82.45,2.21.27,5.4.46,7.22-1.13C211.23,421.39,211.59,415.57,211.28,411.74Z"/><path class="cls-2" d="M167.06,392a3.09,3.09,0,0,0-2.44,0l-.17.09a.56.56,0,0,0-.36.15c-3.34,3,2.62,8.71,4.9,4.45A3.37,3.37,0,0,0,167.06,392Z"/><path class="cls-2" d="M166.14,388.13c-.17-.81-.84-1.83-1.78-1.63a.59.59,0,0,0-.43.43c-1.25,1.12-.19,4.17,1.64,3.3C166.32,389.87,166.27,388.79,166.14,388.13Z"/><path class="cls-2" d="M162,380.32a1.74,1.74,0,0,0-2.1.05,2,2,0,0,0-.5,1.68,5.58,5.58,0,0,0,.58,3.17,2.4,2.4,0,0,0,4.38-.62C164.65,382.94,163.33,381.14,162,380.32Z"/><path class="cls-2" d="M172.2,402.68c-.6-1.23-3.89-4.81-5.15-2.74-1.26.78-1.84,3.63-1.83,4.68,0,3.16,2.32,5.81,5.63,5.06S173.23,404.79,172.2,402.68Z"/><path class="cls-2" d="M173.41,396.17a1.79,1.79,0,0,0-2,1.14,1.86,1.86,0,0,0-.24,1.88,3,3,0,0,0,2.61,1.83.83.83,0,0,0,.73-.41C175.15,399.38,175.11,396.57,173.41,396.17Z"/><path class="cls-2" d="M171.11,393.19l0-.08A.64.64,0,0,0,171,393s-.18-.25-.08-.09a.61.61,0,0,0-1,0l0-.05a.65.65,0,0,0-.18.31c.09-.22-.06.12-.07.2a1.33,1.33,0,0,0,.14.83.83.83,0,1,0,1.32-1Z"/><path class="cls-2" d="M177.84,408a2.11,2.11,0,0,0-1.08-1.1.88.88,0,0,0-1.27.51l0,.13a1.16,1.16,0,0,0-.19.67,2.63,2.63,0,0,0,.9,1.57.87.87,0,0,0,1.36-.18A2.11,2.11,0,0,0,177.84,408Z"/><path class="cls-3" d="M207.91,403.12c-3.3-4.39-7.72-7.59-10.48-12.43-2.36-4.13-5.29-8.42-9.16-11.36a28.31,28.31,0,0,0-9.76-5.48c-9-2.91-19.93-1.35-28.49,3.08-5.74,2.33-10.19,7.36-13.35,12.54a42,42,0,0,0-6,21.2c-.06,7.51,3.94,13.79,11.37,15.75,3.92,1,8.15.91,12.16.74.84,0,1.68-.08,2.51-.14,11.7,1.22,23.49-1.64,35.17-1.95,2.83-.08,5.67.13,8.5.21,2.25.06,5,.31,7.07-.68a6.49,6.49,0,0,0,3.56-5.55c.25-.91.41-1.76.53-2.29C212.54,412,210.75,406.91,207.91,403.12Z"/></g></g></svg>