<svg xmlns="http://www.w3.org/2000/svg" xmlns:xlink="http://www.w3.org/1999/xlink" viewBox="0 0 1916.01 241.59"><defs><style>.cls-1{fill:none;}.cls-2{clip-path:url(#clip-path);}.cls-3{opacity:0.4;}.cls-4,.cls-5{fill:#5596ca;}.cls-5,.cls-6{opacity:0.5;}.cls-6{fill:#5392c5;}</style><clipPath id="clip-path" transform="translate(0 -7.88)"><rect class="cls-1" width="1920" height="246.41"/></clipPath></defs><title>資產 174</title><g id="圖層_2" data-name="圖層 2"><g id="技能"><g class="cls-2"><g class="cls-3"><path class="cls-4" d="M830.22,57.91a17.11,17.11,0,0,1-3.07,7.89c-1.64,2.15-4.19,3.64-5.07,6.31.52-2.77,2.82-4.57,4.16-6.92A15.48,15.48,0,0,0,828,57.73Z" transform="translate(0 -7.88)"/><path class="cls-4" d="M834.84,58.92c-1.57,3.9-1.93,8.17-4,11.89-1.44,2.47-5.94,8.27-4.49,11.31-1.73-3,2.27-9.17,3.51-11.8,1.71-3.85,1.69-8.12,2.89-12.11Z" transform="translate(0 -7.88)"/><path class="cls-4" d="M838.62,61.88c-.86,10-9,17.49-9.8,27.45.09-9.83,7.51-17.79,7.61-27.58Z" transform="translate(0 -7.88)"/><path class="cls-4" d="M847.51,66.1c-1.89,3.52-2,7.69-3.82,11.23s-3.78,7-5.46,10.64c1.34-3.77,2.95-7.41,4.46-11.11s1.25-7.94,2.82-11.67Z" transform="translate(0 -7.88)"/><path class="cls-4" d="M843.5,63.05c-1,2.46-.21,5.14-1.34,7.63-2.71,5.64-6.65,10.64-9.53,16.22,2.31-5.55,5.84-10.67,7.9-16.28,1.06-2.76,0-5.45.88-8.24Z" transform="translate(0 -7.88)"/><path class="cls-4" d="M852,66.66c-2.82,5-2.52,11.58-6.74,15.9,3.68-4.85,2.57-11.49,4.74-16.83Z" transform="translate(0 -7.88)"/><path class="cls-4" d="M825.52,53.4a3.35,3.35,0,0,0,1.57,4.69l25.71,9.83a3.32,3.32,0,0,0,4.29-2.44c2.88-10.52.47-20.3-8.94-23.91C838.47,37.87,830.36,43.62,825.52,53.4Z" transform="translate(0 -7.88)"/></g><path class="cls-4" d="M1633.24,61.51c-.24-.3,0-.44.15-.68.38-.59.1-1-.25-1.52-.23-.35.17-.6.34-.87a.78.78,0,0,0-.09-.85c-.32-.4-.75-.54-.61-1.15a1.67,1.67,0,0,0,0-1.06c-.35-.77-1.89-1-2.33-.25l-.16.13c-.66.46-1.25,1.07-1.91,1.49a4,4,0,0,1-3.13.67,5.44,5.44,0,0,1-.68-.23.81.81,0,0,0,0-.95c-.08-.12-.15-.22-.2-.31a1.64,1.64,0,0,0,.15-.87,1,1,0,0,0-.56-.66c-.18-.09-.37-.15-.4-.38a3.19,3.19,0,0,1,0-.54.81.81,0,0,0-.49-.84c-.41-.21-1,.16-1.19-.39a1.44,1.44,0,0,0-.62-1,1.53,1.53,0,0,0-1.59.12,14.43,14.43,0,0,0-2.4,1.42c-.48-.22-1-.47-1.67-.71a1.81,1.81,0,0,0,.55-1.64c-.14-.31-.41-.56-.44-.91a3.17,3.17,0,0,0,0-.53c-.13-.41-.72-.51-1.08-.53s-.68-.68-1.11-.84a1.17,1.17,0,0,0-.74.05,3.73,3.73,0,0,0-.35.16c-.36.19-.39,0-.55-.2a1.12,1.12,0,0,0-1.26-.19,4,4,0,0,0-1.4,1,12.93,12.93,0,0,0-1,.87,13.68,13.68,0,0,1-2.65,2.1l0,0A16,16,0,0,0,1599.1,55c-2,1.93-3.75,4.53-2.84,7.43a5.54,5.54,0,0,0,2.11,2.75,20.19,20.19,0,0,0,4.19,2.33,16.56,16.56,0,0,0,4.92,1.09l.28,0c.44.38.94.69,1.39,1.08a17,17,0,0,0,1.47,1.19,2.61,2.61,0,0,0,1.35.44,1,1,0,0,0,.53-.16,1.16,1.16,0,0,0,.24-.2c.14-.14.29,0,.44.06a.62.62,0,0,0,.86-.21c.09-.13,0-.55.21-.6a.55.55,0,0,0,.39-.25,1,1,0,0,0-.32-1.17,3,3,0,0,0-.45-.39c1-.12,1.71-.26,2.06-.34h.07a23.16,23.16,0,0,1,2.43,1.48c.59.38,1.26,1.08,2,.75a1.15,1.15,0,0,0,.33-.29c.13-.13.36.12.47.19a.8.8,0,0,0,.82,0c.32-.19.35-.67.75-.71s.63.11.92-.05a1.1,1.1,0,0,0,.49-.71c.07-.24.07-.19.36-.14a1.19,1.19,0,0,0,.46,0,.69.69,0,0,0,.59-.56c0-.13-.07-.39.14-.39a1,1,0,0,0,.35-.06.7.7,0,0,0,.35-.71,2.11,2.11,0,0,1,0-.62,1.88,1.88,0,0,0,0-.58,2,2,0,0,0-.77-1.37,3.68,3.68,0,0,1,.58,0c.35,0,.71.09,1.07.1a8.53,8.53,0,0,1,.81.29,6.24,6.24,0,0,1,1.21.9,2.51,2.51,0,0,0,1.23.63,1,1,0,0,0,1.16-.43.89.89,0,0,0,.58-.24c.32-.25.26-.69.22-1s.54-.58.64-.91-.22-.88.11-1.15a.63.63,0,0,0,.18-.65A.72.72,0,0,0,1633.24,61.51Zm-8,3.1a.66.66,0,0,0-.2-.06l.13,0A.61.61,0,0,0,1625.2,64.61Z" transform="translate(0 -7.88)"/><path class="cls-4" d="M1559.14,144.17c-2.32-.87-4.7-2.29-4.09-5,.47-2.12,2.75-1.76,4.76-1l.1,0c-1.53-1.47-2.85-3.3-.66-4.41,1.17-.6,2.77.34,4.12,1.5-.87-1.82-1.41-3.9.25-4.43,1.9-.6,3.34.89,4.34,2.71a3.28,3.28,0,0,1,1-2.61c1.33-1.08,2.4.07,3.1,1.47a10.58,10.58,0,0,1,1.16-4.47,6.42,6.42,0,0,1-1.7.94c-1,.34-2.85.37-3-1s1-2.49,1.74-3.39a14.63,14.63,0,0,1,1.48-1.57l.11-.18c-2.72.9-6.63,2.31-8.12-.31-.56-1,.49-2.24,1.23-2.76a7.05,7.05,0,0,1,2.09-1c-1.47-.4-2.62-1.17-2.78-2.52-.19-1.77,2-2.16,3.2-2.11.4,0,.81.07,1.22.13-1.71-1.09-2.8-2.51-1.23-4,1.26-1.17,3.48-.44,4.82.11.35.15.7.31,1.05.49-.06-.08-.11-.16-.16-.24-.84-1.24-2-3.18-1.12-4.67s3-.56,4,.35a10,10,0,0,1,1.07,1.23c-.2-1-.43-2.87.59-3.49,1.27-.79,2.44.57,2.93,1.61a9.71,9.71,0,0,1,.58,1.7,1.54,1.54,0,0,1,1-.79c1.11-.32,2,1,2.26,1.87a5.27,5.27,0,0,1,.17,1.28c.2-.28.42-.55.59-.78a12.47,12.47,0,0,1,1-1.19,2.94,2.94,0,0,1-2-1.77c-.41-1.12.58-2.3,1.82-3-1.32,0-2.54-.41-2.92-1.48-.48-1.37,1-2.47,2.11-2.7a5.79,5.79,0,0,1,1.61-.08c-1.09-.55-2.43-1.43-2.55-2.71-.13-1.47,2-1.91,3-1.77a6.82,6.82,0,0,1,1,.22l-.32-.56c-1.24-1.51-1.66-3.27-.13-4.19s3.5.71,4.81,2.42v-.11a8.7,8.7,0,0,1-.38-2.27c0-.79.27-2.78,1.47-2.69,1.74.13,3,2,3.66,4,.07-2,.5-3.83,1.89-4.58a2.13,2.13,0,0,1,2.79,1.28,6.83,6.83,0,0,1,.21,2.88,10.64,10.64,0,0,1-.34,1.57c.67-.89,1.61-1.61,2.45-1a2.42,2.42,0,0,1,.74,3,.86.86,0,0,1,0,.16,8.53,8.53,0,0,1,2.86-1.61c-1.09-.55-2-1.41-1.89-2.48.11-1.26,1.51-2,2.61-2.22l.32,0c-1.34-.66-2.45-1.59-2-2.8s1.88-1.61,3.4-1.35c-.09-.11-.18-.23-.26-.35-.51-.79-1-2.33-.19-3.11,1.29-1.26,3.14-.62,4.72.55a7.06,7.06,0,0,1-.38-1.62,3.1,3.1,0,0,1,2.41-3.43c1.66-.26,2.81.91,3.55,2.45.1-1.16.37-2.71,1.35-3.35,1.26-.83,2.59.46,3.23,1.48a4.84,4.84,0,0,1,.56,3,8.08,8.08,0,0,1,.91-1.43c.59-.7,1.72-1.87,2.77-1.38,1.25.59,1,2.41.85,3.52a9.47,9.47,0,0,1-.56,1.89l.5-.37c.85-.58,2.3-1.41,3.38-1.15,1.59.39,1.57,2.06.91,3.39l-.06.26a15.28,15.28,0,0,1,2.31-.47,3.75,3.75,0,0,1,.47,0,2.57,2.57,0,0,1-.67-2.77c.45-1.38,1.7-1.36,2.91-1.09-1-1.1-1.65-2.46-.34-3.7,1-1,2.64-.31,4,.62-.93-2.12-1.59-4.83.76-5.24a3.5,3.5,0,0,1,3.2,1.31c-.25-2-.08-4.07,2-4.07s2.91,2.08,3.16,4.08c.72-1.9,2-3.91,3.71-3.39,2.45.74,2.06,2.72,1.25,4.65,0,.08,0,.17-.07.26,1.3-1.17,2.89-1.84,4.09,0,.81,1.23.36,2.49-.46,3.63,1.18-.54,2.39-.77,3.17,0,1.45,1.35.85,2.93-.33,4.15a5.45,5.45,0,0,1,2.8.24c-.79-1.17-1.2-2.45-.37-3.54s1.93-.76,3,0c-1.12-2.2-2-4.81-.1-5.18,1.11-.23,2.08.53,2.85,1.62-.29-2-.09-3.91,1.87-3.91,1.49,0,2.26,1.64,2.69,3.46.37-1.91,1.08-3.66,2.5-3.56,2.24.15,2.67,2.22,2.54,4.42.89-1.68,2.11-3,3.75-2.31,2.08.86,1.23,3.62.15,5.86,1.59-1.28,3.51-2.42,4.79-1.4,2,1.55.21,3.85-1.65,5.37,1.6-.14,3.31,0,3.94,1,1,1.66-.74,2.51-2.62,2.93a14.51,14.51,0,0,1,3,1.32s0-.08,0-.12a1.54,1.54,0,0,1,1.15-1.67,2.84,2.84,0,0,1,2.41.66c0-.11,0-.23,0-.33-.09-1-.17-2.48.73-3.17,1.52-1.16,2.76.55,3.38,2.44.41-2.12,1.24-4.37,2.85-4.24,3,.23,2.68,3.52,2.08,6.25,1.25-1.77,2.79-3.53,4.68-2.52s1,3.47-.14,5.49c1.7-1,3.67-1.86,4.61-.35,1.06,1.69.29,2.73-1,3.53a5.34,5.34,0,0,1-.66.59c1.38.07,2.55.5,2.42,1.77a3.46,3.46,0,0,1-.35,1.26,3.5,3.5,0,0,1,3.31,1.58c.74,1.13.16,2.43-.74,3.45,1.6,0,3.21.29,3.79,2a3.68,3.68,0,0,1-1.64,4.61,3.32,3.32,0,0,1,2.36,2.89c.18,1.73-1.23,2.24-2.67,2.38,1.08,1.21,1.71,2.76.92,4.31-.55,1.1-1.77,1.14-3,.82a6.57,6.57,0,0,1,1.15,4.3,1.31,1.31,0,0,1,0,.15c-4.55,24.45-27.69,23.78-50.52,27.65-27,4.58-55.12,11.74-82.33,11.3a1,1,0,0,1-.78-.36c-1.49,0-3-.16-4.44-.31-3.21-.32-6.47-.65-9.64-1.27s-7.66-2.27-7.73-5.35a2,2,0,0,1-2.18-.46,2.31,2.31,0,0,1-.21-2.93c-1.3.21-2.57,0-3.19-1.27-.44-1,.19-1.86,1.11-2.62-1.32-.09-2.43-.55-2.35-1.92C1555.9,145,1557.42,144.34,1559.14,144.17Zm160.09-36.95a1.6,1.6,0,0,1,0,.31c.54-.81.26-1.91-.84-3.33a5.34,5.34,0,0,0-2.57,0c-.14.24-.29.49-.46.73C1717.23,105,1719.08,105.65,1719.23,107.22Zm-6.78-7.4.28.46a2.68,2.68,0,0,1,3.21.26,1.92,1.92,0,0,1,.49.74c.67-1,.77-2.08-1.57-2.37a6.13,6.13,0,0,0-1.53.06,4,4,0,0,1-.45.16,2.68,2.68,0,0,1-.52.55Zm-.88,32.42c0-.18,0-.37-.09-.58a6.55,6.55,0,0,0-.8-.63C1711,131.51,1711.31,131.9,1711.57,132.24Z" transform="translate(0 -7.88)"/><path class="cls-5" d="M1916,247.46v-137c-10-10-66.12-15.32-66.12-15.32-65.29-11-189,29-189,29-33.09,13-74,15.44-109.25,16.55q-5.25.17-10.54.15c-38.72-.18-78.35-10.46-117-13.19-43-3-79.77,24-126.21,23.26-62.67-1-120.49,17.52-182.94,11.86-54.35-4.93-108.07,14.47-162.31,15.43-58.73,1-115.85-5.65-173.68-15.57-50.89-8.72-102.15,19.95-153.2,13.66-51.26-6.32-100.13,7.9-148.6-14.68-15-7-23-11.55-40.86-10.89-2.19,15.42,6.15,29.6,6.67,44.8.27,8.11-1.49,16.78-.42,24.8s1.76,17.93,2.14,27.19C444.72,247.46,1920.53,252,1916,247.46Z" transform="translate(0 -7.88)"/><path class="cls-6" d="M1001.3,210.56c-2.47,1.94-12.13,3.94-16.52,5.89-3.52,1.56.42,3.38-13.26,4.65-17.28,1.6-36.41,1.48-53.28,1.63-7.1.06-13.91-.08-21.23.29-7.5.37-14.09,1.27-21.53,1.71-28.07,1.65-54.5-.11-30.1-4.65,21.93-4.09,47.23-9.14,40.54-13.93-6.54-4.69-31-4.72-60.51-4.5-11.37.08-25.31-.11-35.18-.68-1.7-.1-20.19-1.71-13.84-2,16-.75,31.68-1.31,47.61-2.36,18.59-1.23,38.4-3.24,55.89-5,8.56-.85,21.73-2.88,31.31-2.88,16,0,16.21,4,32.51,4.24,19.35.32,46.68-1.56,67.78-2.11s43.5-.12,54.63,1.65h0c17.5,2.71-28.5,5.51-40.61,6.87s-21.82,3.27-25.66,5.36C995.75,207,1004,208.48,1001.3,210.56Z" transform="translate(0 -7.88)"/><path class="cls-6" d="M1444,153.17c10.36,1.18-12.32,12.3-8.9,15.53,4.8,4.54,26.24,6.58,37.41,9.91,1.79.53,3.14,1,4,2.47-9.61,6.93-27.81,6.33-39.48,7.51-19.42,2-31.87,4.06-47.27,17-10.68,9-13,12.6-28.38,13.53-12.67.76-27.11,2.6-39.71.48s-21-7.71-33.66-6.43c-14.63,1.48-29.69,5.05-44.5,6.73-31.4,3.58-52.14,1.38-53.69-3.08-1.71-4.94,30.86-9.17,48.7-13.8,30.06-7.79,36.59-13.74-2.73-14.29-6.83-.09-16.57,1-22.67.51-17.27-1.41,11.76-6.47,17.66-9.6,9.22-4.91-1-8.41,25.9-12.91,20.63-3.45,47.88-2.93,68.71-4.32C1362.46,160,1411.24,149.43,1444,153.17Z" transform="translate(0 -7.88)"/><path class="cls-4" d="M1768.73,58.61a5.82,5.82,0,0,0-3.82-3.68c-1.62-.82-3.91-.69-6.26.64l-.33.19c-2.73,1.67-1.55,4.06-1.36,6.77s-1.18,3.69-2.74,4.87c0-.33,0-.67-.07-1q-.5-9.17-1-18.34-.42-7.58-.32-15.17c0-3.52,1.71-10-.72-13a6.23,6.23,0,0,0-2.15-1.62c-2.3-1.54-6.7-1.37-9.06-1a13.68,13.68,0,0,0-8.74,4.48,7.15,7.15,0,0,0-1.32,2.57c-1.49,5.06,1.17,8.89,2.32,13.54a138.84,138.84,0,0,1,2.9,18.58c1.18,11.29,3.48,22.35,3.71,33.76a4.07,4.07,0,0,1-.4,2.27,1.44,1.44,0,0,1-2,.51,2.1,2.1,0,0,1-.54-1.24,429.51,429.51,0,0,1-6.57-50.53c-.28-4.08-.68-7.37-5.17-7.39-3.48,0-7.3.77-9.83,3.38-1.82,1.88-.38,3.53.24,5.52,4.53,14.49,6.75,29.9,9.61,44.8a18.85,18.85,0,0,1,.46,6.8c0,.26-.14.57-.39.66s-.69-.27-.85-.62c-1.84-3.82-2.54-8.07-3.94-12.06-2-5.64-5.33-9.24-11-11-3-.91-6-1.19-7.57,2.19a9.47,9.47,0,0,0-.92,6.29c.32,1.89,1.21,3.89,3,4.64a12.06,12.06,0,0,0,3.9.43c9.64.7,8.69,12.33,9.58,19.3.93,7.27,2,16.85,8.55,21.43,3.27,2.28,7.59,2.43,11.52,1.77,9.81-1.66,19.81-8.61,23.8-17.91,4.43-10.31-4.43-20.69-.57-31a28.82,28.82,0,0,1,3.89-6.23C1767.4,68.13,1770.71,64.21,1768.73,58.61Z" transform="translate(0 -7.88)"/><path class="cls-4" d="M1768,68.41a4.12,4.12,0,0,1,2.43-2.88,4.76,4.76,0,0,1,4.46,0l.25.11c2.05,1,1.4,2.76,1.46,4.68s1.12,2.52,2.3,3.24c0-.24,0-.48,0-.72q-.33-6.51-.65-13c-.18-3.58-.49-7.16-.91-10.73-.29-2.49-2-7-.47-9.26a4.54,4.54,0,0,1,1.41-1.3c1.51-1.26,4.62-1.47,6.31-1.41a9.73,9.73,0,0,1,6.51,2.51,5.17,5.17,0,0,1,1.12,1.71c1.43,3.47-.17,6.37-.63,9.74a97.33,97.33,0,0,0-.65,13.33c0,8.06-.79,16-.11,24.11a3,3,0,0,0,.46,1.58,1,1,0,0,0,1.45.21,1.41,1.41,0,0,0,.29-.92,303,303,0,0,0,.86-36.16c-.1-2.91-.06-5.26,3.1-5.61,2.46-.27,5.22,0,7.2,1.65,1.42,1.2.53,2.46.24,3.92-2.12,10.57-2.53,21.61-3.43,32.35a13.28,13.28,0,0,0,.18,4.83c.05.18.14.39.32.44s.46-.25.56-.51c1-2.83,1.18-5.88,1.87-8.8,1-4.13,3.08-6.92,7-8.57,2.05-.87,4.12-1.28,5.52,1a6.75,6.75,0,0,1,1.11,4.37,4.15,4.15,0,0,1-1.75,3.5,8.59,8.59,0,0,1-2.73.59c-6.75,1.22-5.21,9.36-5.32,14.35-.11,5.19-.15,12-4.43,15.76-2.14,1.86-5.18,2.28-8,2.11-7-.44-14.63-4.6-18.14-10.86-3.9-7,1.58-14.94-1.92-21.93a20.93,20.93,0,0,0-3.2-4.1C1769.6,75,1767,72.51,1768,68.41Z" transform="translate(0 -7.88)"/><path class="cls-4" d="M1580.2,111.82c-.34-.41,0-.62.21-1,.54-.83.14-1.42-.35-2.14-.33-.49.24-.84.48-1.22a1.14,1.14,0,0,0-.13-1.2c-.45-.56-1.06-.76-.87-1.62a2.3,2.3,0,0,0,0-1.49c-.48-1.08-2.65-1.39-3.27-.35a1.11,1.11,0,0,0-.23.19c-.93.63-1.76,1.49-2.69,2.09a5.62,5.62,0,0,1-4.4.94,6.88,6.88,0,0,1-1-.32,1.16,1.16,0,0,0,0-1.34,5.12,5.12,0,0,1-.28-.44,2.24,2.24,0,0,0,.21-1.21,1.35,1.35,0,0,0-.8-.94c-.25-.13-.52-.2-.56-.53a4,4,0,0,1,.06-.77,1.15,1.15,0,0,0-.69-1.18c-.58-.29-1.48.23-1.67-.55a2.06,2.06,0,0,0-.87-1.42,2.17,2.17,0,0,0-2.24.17,19.86,19.86,0,0,0-3.39,2c-.68-.31-1.47-.66-2.35-1a2.55,2.55,0,0,0,.78-2.31c-.2-.44-.57-.79-.63-1.29a3.54,3.54,0,0,0-.07-.73c-.17-.59-1-.72-1.51-.76s-1-.94-1.56-1.17a1.64,1.64,0,0,0-1.05.06,3.8,3.8,0,0,0-.5.24c-.5.25-.54,0-.76-.3a1.61,1.61,0,0,0-1.78-.26,5.4,5.4,0,0,0-2,1.34c-.52.38-1,.82-1.47,1.23a19.16,19.16,0,0,1-3.72,3,.08.08,0,0,0,0,0,22.43,22.43,0,0,0-9,5.11c-2.88,2.72-5.28,6.39-4,10.47a7.87,7.87,0,0,0,3,3.87,29,29,0,0,0,5.89,3.28,23.58,23.58,0,0,0,6.94,1.53l.38,0c.63.54,1.34,1,2,1.52a22.45,22.45,0,0,0,2.08,1.68,3.56,3.56,0,0,0,1.9.63,1.45,1.45,0,0,0,.75-.24,1.7,1.7,0,0,0,.33-.27c.2-.2.41,0,.62.08a.88.88,0,0,0,1.21-.29c.14-.2,0-.78.3-.86a.77.77,0,0,0,.55-.34,1.36,1.36,0,0,0-.46-1.66,5.82,5.82,0,0,0-.62-.54c1.35-.17,2.4-.36,2.9-.48l.1,0a31.45,31.45,0,0,1,3.41,2.09c.84.54,1.77,1.53,2.84,1.06a2,2,0,0,0,.46-.41c.18-.19.51.16.65.26a1.1,1.1,0,0,0,1.17,0c.44-.25.48-.94,1-1s.89.16,1.3-.08a1.49,1.49,0,0,0,.68-1c.1-.35.11-.27.51-.2a1.79,1.79,0,0,0,.65,0,1,1,0,0,0,.83-.78c0-.19-.1-.55.2-.56a1.15,1.15,0,0,0,.49-.08,1,1,0,0,0,.49-1,2.53,2.53,0,0,1-.06-.87,2.51,2.51,0,0,0,0-.82,2.77,2.77,0,0,0-1.08-1.92,4.43,4.43,0,0,1,.81-.07c.5,0,1,.12,1.51.14a10.85,10.85,0,0,1,1.14.4,8.82,8.82,0,0,1,1.71,1.27,3.49,3.49,0,0,0,1.73.88,1.45,1.45,0,0,0,1.64-.6,1.32,1.32,0,0,0,.81-.33c.46-.36.36-1,.3-1.47s.77-.81.91-1.28-.31-1.24.15-1.63a.86.86,0,0,0,.26-.91A1.07,1.07,0,0,0,1580.2,111.82Zm-11.33,4.36-.27-.08.18-.06Z" transform="translate(0 -7.88)"/><g class="cls-3"><path class="cls-4" d="M1415.07,43.5c.86,3-1.94,6.24-.14,10.65,8.7-7.82,11.29-12.37,19.8-13.64-1.15,1.29-1.71,2.48-1,3.37,1.5,1.74,3,2.78,6,4.81.87.57,3,2.24,4.11,1.48.72-.49.82-2.27,1.06-3s1.67-7,2.31-7.07c3.33-.14,6.64-.44,10-.91-.08.12-2,3.45-2.76,5.08-1.33,3.08,4.35,2.54,7,2.72a27.72,27.72,0,0,0,3.41,0c1,0,1.49-4.44,1.62-5.3,0-.29.49-4.33.44-4.32,2.15-.51,4.34-1.07,6.55-1.71,3-.86,6-1.8,8.85-2.92,5.63-2.17,11.34-4.81,15.84-8.9a20.32,20.32,0,0,0,4.35-5.54,13.51,13.51,0,0,0,1.11-3c.55-1.86-1.13-2.51-3.12-3.14-1.19-.38-2.86-.63-4.07-.88a62.51,62.51,0,0,0-24.53.17c-1.37.26-2.72.55-4.05.86a2.7,2.7,0,0,0-.36-.26l.28.28c-2.71-2.35-9.82-5-12.7-4.4A5.79,5.79,0,0,0,1452,10c-.68.78-5,5.19-3.93,6.15.36.31,1.39.28,1.82.34,1.19.15,2.38.26,3.57.37l.8.05a66.55,66.55,0,0,0-13,7.75c-4.11,3.12-8.52,7.39-13.66,9.11-5.43,1.8-9.17.77-14.85.22a11.22,11.22,0,0,0-5.1.32C1408.9,39.39,1413.83,39.12,1415.07,43.5Z" transform="translate(0 -7.88)"/><path class="cls-4" d="M1492,15.14a1.86,1.86,0,1,1,2.35,1.18A1.86,1.86,0,0,1,1492,15.14Z" transform="translate(0 -7.88)"/></g><g class="cls-3"><path class="cls-4" d="M1401.71,92.9a6.36,6.36,0,0,0-2.73-1.06c-3.2-.69-5.43-.78-8.08-2.72s-4.18-4.94-5.87-7.37a37.89,37.89,0,0,0-5.78-6.52l.45.11c.67.15,1.34.3,2,.43.25,0,.81.24,1.06.13.77-.33-.84-3.51-1.07-4.05a3.43,3.43,0,0,0-1.33-1.67c-1.47-.82-5.82-.63-7.72.18l.21-.1-.25.08c-.67-.4-1.36-.8-2.06-1.18a35.94,35.94,0,0,0-13.38-4.38c-.71-.08-1.66-.23-2.38-.24-1.19,0-2.23.06-2.25,1.18a7.46,7.46,0,0,0,.09,1.8,11.5,11.5,0,0,0,1.41,3.79,28.38,28.38,0,0,0,7.1,7.64c1.38,1.12,2.85,2.15,4.33,3.14,1.1.74,2.19,1.43,3.28,2.08,0,0-.49,2.27-.52,2.44-.07.49-.59,3,0,3.18a14.38,14.38,0,0,0,1.86.59c1.46.36,4.47,1.65,4.28-.27a33.08,33.08,0,0,0-.62-3.25q2.6,1.24,5.29,2.23c.33.16,0,3.83,0,4.27s-.26,1.45,0,1.84c.48.61,1.93.08,2.51-.09a14.92,14.92,0,0,0,4.15-1.57c.57-.35.47-1.1.06-2,4.44,2.19,5.06,5.13,8.45,10.93,1.75-2.1.78-4.35,1.78-5.85C1397.48,94.43,1400.12,95.44,1401.71,92.9Z" transform="translate(0 -7.88)"/></g><g class="cls-3"><path class="cls-4" d="M784.24,85.5a11.24,11.24,0,0,1-2.75,4.85c-1.28,1.24-3.08,2-3.91,3.62.6-1.76,2.27-2.7,3.37-4.11a10.23,10.23,0,0,0,1.89-4.68Z" transform="translate(0 -7.88)"/><path class="cls-4" d="M787.16,86.61c-1.4,2.39-2,5.13-3.75,7.36-1.17,1.46-4.66,4.81-4,6.93-.84-2.09,2.36-5.76,3.42-7.35,1.48-2.34,1.89-5.12,3-7.6Z" transform="translate(0 -7.88)"/><path class="cls-4" d="M789.33,88.9c-1.52,6.41-7.51,10.53-9,16.93,1-6.39,6.6-10.86,7.61-17.22Z" transform="translate(0 -7.88)"/><path class="cls-4" d="M794.71,92.51c-1.57,2.11-2,4.82-3.57,6.94s-3.13,4.2-4.58,6.4c1.24-2.32,2.64-4.54,4-6.8s1.58-5,3-7.33Z" transform="translate(0 -7.88)"/><path class="cls-4" d="M792.4,90.13c-.87,1.51-.63,3.33-1.61,4.85-2.31,3.4-5.36,6.28-7.77,9.64,2-3.4,4.83-6.39,6.71-9.85,1-1.69.55-3.54,1.37-5.28Z" transform="translate(0 -7.88)"/><path class="cls-4" d="M797.59,93.3c-2.31,3-2.76,7.3-5.92,9.71,2.86-2.8,2.78-7.24,4.71-10.5Z" transform="translate(0 -7.88)"/><path class="cls-4" d="M781.62,82.11a2.21,2.21,0,0,0,.57,3.21L798,94.2A2.2,2.2,0,0,0,801,93c2.88-6.58,2.26-13.18-3.52-16.43C791.55,73.25,785.71,76.22,781.62,82.11Z" transform="translate(0 -7.88)"/></g><path class="cls-4" d="M378,95.93a5.79,5.79,0,0,0-3.83-3.68c-1.62-.82-3.9-.69-6.25.64l-.33.19c-2.74,1.67-1.55,4.06-1.36,6.76s-1.19,3.7-2.74,4.88c0-.34-.05-.67-.07-1q-.51-9.17-1-18.33-.42-7.57-.32-15.17c0-3.52,1.71-10-.72-13a5.94,5.94,0,0,0-2.16-1.62c-2.3-1.54-6.69-1.37-9-1A13.61,13.61,0,0,0,341.42,59a7.38,7.38,0,0,0-1.33,2.56c-1.49,5.07,1.18,8.89,2.33,13.55a137,137,0,0,1,2.89,18.58C346.49,105,348.8,116,349,127.45a4,4,0,0,1-.41,2.27,1.42,1.42,0,0,1-2,.51,2,2,0,0,1-.54-1.24,429.51,429.51,0,0,1-6.57-50.53c-.28-4.08-.68-7.37-5.17-7.39-3.48,0-7.31.76-9.83,3.37-1.82,1.89-.38,3.53.24,5.53,4.53,14.49,6.74,29.89,9.6,44.8a19.07,19.07,0,0,1,.47,6.8c-.05.26-.14.57-.4.66s-.68-.28-.85-.63c-1.83-3.81-2.53-8.06-3.93-12-2-5.64-5.33-9.24-11.05-11-3-.91-5.95-1.19-7.58,2.19a9.52,9.52,0,0,0-.91,6.29c.32,1.89,1.21,3.89,3,4.64a12.34,12.34,0,0,0,3.9.43c9.64.7,8.69,12.33,9.58,19.3.92,7.27,2,16.85,8.55,21.43,3.26,2.28,7.59,2.43,11.52,1.76,9.8-1.66,19.81-8.6,23.8-17.9,4.43-10.32-4.43-20.69-.57-31a28.82,28.82,0,0,1,3.89-6.23C376.68,105.44,380,101.52,378,95.93Z" transform="translate(0 -7.88)"/><path class="cls-4" d="M373.11,117.89a4.1,4.1,0,0,1,2.43-2.88,4.76,4.76,0,0,1,4.46,0l.25.11c2.05,1,1.39,2.75,1.46,4.68s1.11,2.52,2.3,3.23c0-.24,0-.47,0-.71q-.33-6.51-.65-13c-.17-3.59-.48-7.17-.9-10.74-.29-2.48-2-7-.47-9.25a4.28,4.28,0,0,1,1.4-1.3c1.51-1.26,4.63-1.47,6.32-1.41a9.72,9.72,0,0,1,6.51,2.5,5.27,5.27,0,0,1,1.12,1.72c1.43,3.46-.17,6.36-.63,9.73a99.1,99.1,0,0,0-.66,13.34c0,8-.79,16-.1,24.11a2.83,2.83,0,0,0,.46,1.57,1,1,0,0,0,1.45.21,1.46,1.46,0,0,0,.29-.91,305.33,305.33,0,0,0,.86-36.17c-.1-2.9-.06-5.25,3.1-5.6,2.46-.27,5.22,0,7.19,1.65,1.43,1.19.54,2.46.25,3.91-2.12,10.57-2.53,21.61-3.44,32.35a13.72,13.72,0,0,0,.18,4.83c.06.19.14.39.33.44s.46-.24.55-.5c1-2.83,1.19-5.88,1.88-8.81,1-4.13,3.07-6.92,7-8.57,2.05-.86,4.12-1.28,5.52,1a6.72,6.72,0,0,1,1.11,4.36,4.13,4.13,0,0,1-1.76,3.5,8.76,8.76,0,0,1-2.72.6c-6.75,1.21-5.21,9.35-5.32,14.34-.11,5.2-.15,12-4.44,15.77-2.13,1.85-5.17,2.28-8,2.1-7-.44-14.62-4.59-18.13-10.86-3.9-7,1.58-14.94-1.92-21.92a20.39,20.39,0,0,0-3.21-4.11C374.76,124.51,372.13,122,373.11,117.89Z" transform="translate(0 -7.88)"/><path class="cls-4" d="M739.7,168.38a20.6,20.6,0,0,0,.66-3.12,27.26,27.26,0,0,1-3.82-.6c-2.16-.51-4.24-1.27-6.38-1.83,1.83-.73,3.55-1.53,5.07-2.26l.83-.4a19.26,19.26,0,0,0,4.42.41c0-.41-.07-.82-.13-1.23,0-.07,0-.13,0-.19-.77,0-1.54,0-2.31,0,.68-.38,1.39-.8,2.09-1.26-.16-.78-.35-1.55-.57-2.3a40.08,40.08,0,0,1-7.32,4.08,43.15,43.15,0,0,1-8.47,2.63,31.6,31.6,0,0,0,4.19-3.46.84.84,0,0,0,.79.11,23.07,23.07,0,0,0,9.56-6.78c-.32-.72-.66-1.43-1-2.12a23.45,23.45,0,0,1-2.33,2.67,20.6,20.6,0,0,1-4.41,3.12,20,20,0,0,0,3.84-10.24c-.44-.57-.89-1.14-1.37-1.69-1.62,4.51-3.16,8.46-6.41,12.08a23.57,23.57,0,0,1-3.74,3.31c.47-1,.91-2,1.36-3.05,1.16-2.68,2.87-5.11,3.7-7.93.1-.34-.37-.52-.58-.29-2,2.09-3.46,4.79-5,7.25a20.83,20.83,0,0,0-3,6.24,56.21,56.21,0,0,1-5.51,2.6c-6.13,2.53-12.81,3.68-19.19,5.54a80,80,0,0,0,8.69-5.38,29.3,29.3,0,0,0,2.35-1.92h0a24.82,24.82,0,0,0,8.67-2.09c1.95-.83,5.15-2.71,5-5.18a.4.4,0,0,0-.53-.35,14.1,14.1,0,0,0-2.28,1.75,15.29,15.29,0,0,1-3.5,1.87,37.64,37.64,0,0,1-4.7,1.33c.66-.73,1.31-1.48,1.91-2.26,7.13-3,18.39-9.05,19.15-17.2l-1-.83-.07.06A73.74,73.74,0,0,1,722,147.1a20.75,20.75,0,0,0,2.35-8.32.59.59,0,0,0-1.11-.23c-1.12,2.51-2,5.1-3.23,7.56-.85,1.66-1.89,3.22-2.84,4.81-1.42,1-2.87,1.87-4.3,2.8a95,95,0,0,0,7.81-16.24,1,1,0,0,0-1.74-.89,66.58,66.58,0,0,0-3.91,6.95c0-.95,0-1.92,0-2.84a65.45,65.45,0,0,0,.36-7,.93.93,0,0,0-1.75-.36c-1.59,3.24-2.07,9.48.14,12.68-.74,1.51-1.49,3-2.29,4.48a37.66,37.66,0,0,1-12.91,14.05c-.81.54-1.64,1-2.47,1.54a25.21,25.21,0,0,0,3.7-8.09,15.08,15.08,0,0,1,1.57-1.52c1.19-1,2.41-1.84,3.54-2.9,2.22-2.1,4.36-4.67,4-7.9,0-.4-.62-.72-.9-.32a45,45,0,0,1-6.36,7.55c-.25.23-.51.47-.77.74,0-.13.06-.25.08-.38.54-2.59,1-5.16,1.56-7.7,4.21-3.07,8.1-7.61,8.5-12.76,0-.44-.6-.77-.8-.28a25.92,25.92,0,0,1-4.57,7.77,26.2,26.2,0,0,1-2.47,2.36,46.2,46.2,0,0,1,4-11,.66.66,0,0,0-1.07-.74,25.42,25.42,0,0,0-5.31,9.36c-.09-.5-.17-1-.23-1.48-.4-3.35-.23-6.58-.33-9.94a.84.84,0,0,0-1.57-.33c-1.73,4.23-1.63,11.46.93,15.91-1.15,4.7-1.86,9.64-3.21,14.29,0-3.51-1.46-7.07-2.93-10.21a.58.58,0,0,0-1.11.07c-1.06,4.88,1.8,9.74,2.48,14.56a26.26,26.26,0,0,1-2.38,4.43.71.71,0,0,0-.1.66c-6.67,3.69-13.45,7-18.79,12.79a1.28,1.28,0,0,0,1.9,1.71,36.48,36.48,0,0,1,3.22-3.13.58.58,0,0,0,.5,0c6.13-2.41,12.3-1.85,18.53-.92a45,45,0,0,1,3.82,2.52c-.84,1.9-.92,4.92.92,5.91.76.41,1.86-.4,1.47-1.26a6.5,6.5,0,0,1-.81-2.58c0-.31,0-.61,0-.9l2.67,2c2.47,1.85,5.2,4.15,8.41,4.07a.76.76,0,0,0,.46-1.32c-2.53-2.45-6.21-4.13-9.1-6.17-.69-.49-1.4-.95-2.12-1.39l2,.27a40.92,40.92,0,0,0,7.57.28c3.61,3.67,11.72,5.9,16.07,3a1.34,1.34,0,0,0-1.16-2.37c-4.47,1.51-7.92.42-11.8-1a40.28,40.28,0,0,0,10.46-3.44c2,1.86,6.09,4,8.16,2.38a.6.6,0,0,0,.07-.93c-1-.88-2.58-.92-3.83-1.42-.85-.35-1.64-.84-2.46-1.26A6.75,6.75,0,0,0,730,173.5c.4-.59-.68-1.48-1.19-1.21-4.21,2.26-11.7,4.81-16.59,4.87l-1.27,0c.84-.54,3.31-2.5,6.32-4.29a8.09,8.09,0,0,0,3.5,1.05c1.33.1,3,.16,4-.85a.77.77,0,0,0-.41-1.25c-1.08-.28-2.32.13-3.45.11a17.23,17.23,0,0,1-1.72-.13c2.75-1.43,5.73-2.5,8.27-2.17.26-.19.31-2,0-2.18-9.77-.56-16.74,7.27-18.82,9.6-3.17-.25-6.34-.8-9.46-1.25-4.9-.71-10.39-1.41-15.24-.06,1.29-.83,2.61-1.61,3.94-2.38,3.23-.31,6.94-.82,10.83-1.58,1.48.76,3,1.42,4.57,2.05a7.51,7.51,0,0,0,5,.66,1,1,0,0,0-.12-2,44.17,44.17,0,0,1-5.54-1.55,73.33,73.33,0,0,0,15.91-5.54A24.54,24.54,0,0,0,727,164c1.28.64,2.73,1.33,4.25,2a11.34,11.34,0,0,0-.33,3.42.45.45,0,0,0,0,.64l0,0c.33,3,1.81,5.8,4.58,6.59.49-.68,1-1.37,1.38-2.09a4.15,4.15,0,0,1-3.27-3c.6.2,1.22.37,1.85.53a23.51,23.51,0,0,1,2.37.79c.31-.62.6-1.24.86-1.88l-1-.29c-1.47-.43-3-.71-4.49-1-.12-1-.16-2-.25-3A26.89,26.89,0,0,0,739.7,168.38Z" transform="translate(0 -7.88)"/><path class="cls-4" d="M690,166.42c-.12-1.89-3.19.15-3.89.41a10.8,10.8,0,0,1-3.65.57c3.92-2.34,7.06-4.92,8.89-9.22a.46.46,0,0,0-.74-.52c-3,3.14-7.12,5.39-11.1,7.81.77-1,1.54-2,2.39-2.92,1.81-2,4.51-3.62,5.7-6.05a.69.69,0,0,0-.83-1c-2.64.84-4.67,3.57-6.46,5.57a18,18,0,0,0-4.08,6.46,28,28,0,0,0-4.56,3.79c1.12-3.74,2.3-7.45,3.58-11.13a33.17,33.17,0,0,1,4.16-3.94c2.4-1.81,5.06-3.26,7.52-5,3.66-2.54,6.7-6.17,7-10.73.06-.83-1.24-1-1.57-.32-2.28,5-5.65,7.94-9.79,11,1-2.06,1.79-4.2,2.9-6.19,1.58-2.81,4.22-4.89,5.74-7.64a.34.34,0,0,0-.32-.48c-2.79.16-4.75,3.44-6.13,5.54-2,3-4.11,6.78-4.47,10.37,0,0,0,0,0,.05-1.08.77-2.21,1.57-3.3,2.45.5-1.33,1-2.66,1.52-4,1.85-4.7,3.93-9.3,6-13.9.17-.38.36-.77.55-1.16a14.83,14.83,0,0,0,5.93-2.75c1.91-1.38,4.25-3.52,4.2-6.06a.36.36,0,0,0-.55-.28c-1.78,1.33-3,3.27-4.75,4.67a16,16,0,0,1-3.72,2.14,45.8,45.8,0,0,0,3.31-7.84L687.7,126c-5.48,6.61-8.72,16.3-11.87,24.07-.51,1.25-1,2.51-1.49,3.78-.12-2.1-.38-4.2-.64-6.28,2.54-6.7,5.85-15.1,5.72-22.36-.53,0-1,0-1.58,0-.55,1.92-1,3.88-1.45,5.84-.12-.88-.22-1.76-.26-2.65a26.6,26.6,0,0,1,.14-3.22c-.76,0-1.52,0-2.27,0a13.25,13.25,0,0,0,1.76,8.4c-.13.53-.28,1.05-.43,1.57-.72,2.46-1.56,4.92-2.2,7.42a122.16,122.16,0,0,1-.74-16.75c-.91.06-.91-1.39-2.36-.35-1.06,5.15-.59,10.62,0,15.81-.32-.65-.68-1.29-1-1.92l-.07-.11c-.61-1.05-1.24-2.05-1.77-3a44.65,44.65,0,0,1-4.34-9.46c-.53.15-1.07.31-1.6.48a30,30,0,0,0,2.77,6.87c.19.36.4.72.6,1.07-.67-.45-1.33-.89-2-1.35a32.8,32.8,0,0,1-5.55-5c-.91.41-1.81.85-2.7,1.33a14.19,14.19,0,0,0,4,3.84c1.7,1.15,3.72,1.76,5.49,2.79a19.54,19.54,0,0,1,2.92,2.25c.23.4.46.79.68,1.2,1.1,2,1.7,4.28,3.05,6.1a.53.53,0,0,0,.14.12q.75,6.81,1.49,13.62a123.47,123.47,0,0,0-5,19.84,1,1,0,0,0,2,.42c.28-1,.56-2,.85-3.06a9.25,9.25,0,0,1,2.85-1.26c1.16-.31,2.59-.42,3.48-1.3a.66.66,0,0,0-.19-1,6.28,6.28,0,0,0-3.58.19,45.28,45.28,0,0,1,6.64-4.55,15.41,15.41,0,0,0,5.92.35C686.64,169.48,690.14,168.59,690,166.42Z" transform="translate(0 -7.88)"/><path class="cls-4" d="M665.39,165.9c1.25-2.18,2.83-4.16,3.71-6.54.17-.46-.3-1.09-.79-.71a23.1,23.1,0,0,0-6.43,7.57c-.11-1.2-.27-2.41-.49-3.59a51.19,51.19,0,0,0,2.57-8.81.59.59,0,0,0,.23,0c1.49-.39,2.25-2,3-3.23a10.57,10.57,0,0,0,1.56-5.08.67.67,0,0,0-1.27-.26c-.68,1.48-1.31,3-2.11,4.41-.29.52-.65,1-1,1.5.65-5.53-.1-11-4.2-13.87a1,1,0,0,0-1.58,1c1.52,4.57,3.12,8.1,3.06,13.07a48.74,48.74,0,0,1-1.09,7.94,21.34,21.34,0,0,0-2.5-5.34,24,24,0,0,0-3.45-4.05,17.68,17.68,0,0,0-4.36-17.24c-.62.43-1.23.88-1.83,1.34a35.07,35.07,0,0,1,2,3.59c-.18-.12-.36-.23-.51-.34a15.23,15.23,0,0,1-2.6-2.32c-.42.35-.84.71-1.24,1.07a12.06,12.06,0,0,0,1.87,2c.74.63,1.55,1.18,2.35,1.74.45.31.88.7,1.36,1a23.92,23.92,0,0,1,1.26,7.62c-3.41-3-7.13-5.63-9.68-9.51-.58.64-1.14,1.3-1.68,2,1.84,4.68,6.37,7.73,10.15,11a22.18,22.18,0,0,1,7,11.75,25.84,25.84,0,0,0-7.57-4,89.25,89.25,0,0,1-5.7-7.37c-1.62-2.35-3.52-4.89-6.44-5.59-.61-.15-.86.6-.5,1a86.78,86.78,0,0,1,6.75,8.64c.37.53.75,1.06,1.16,1.57a23.5,23.5,0,0,1-10.3-7.77c-.38,1-.71,2-1,3,2.48,5.33,10.19,7.64,16.73,9.87a41.72,41.72,0,0,0-6,.4c-.93.1-1.82.17-2.7.22-2.13-2.39-5-5.23-8.2-5.65a.74.74,0,0,0-.64,1.27c1.26,1.1,2.69,2,3.91,3.13.4.38.78.78,1.15,1.19a16.77,16.77,0,0,1-5.29-1.38c0,.26,0,.52,0,.77.05.44.09.88.15,1.33,0,.18,0,.36.07.53a15.25,15.25,0,0,0,8.37,2.05c-2.34,2-6.45,5.19-9.75,3.94-.72-.27-1.53.65-.82,1.2,2.25,1.76,4.94,1.4,7.42.29,2.18-1,5.81-2.94,6.54-5.45a1,1,0,0,1,0-.17,57.77,57.77,0,0,0,9.54-2,.53.53,0,0,0,.24-.17,20.19,20.19,0,0,1,3.26,1.65,49.84,49.84,0,0,1,.61,6.87,12.17,12.17,0,0,0-3.93-2.95,6.61,6.61,0,0,0-2-.87l-.4-.11a14.93,14.93,0,0,0-2.69-.62,1,1,0,0,0-.25,0l-2.32-.36a.77.77,0,0,0-.67,1.31,8.24,8.24,0,0,0,4.19,1.74c.2.05.4.1.61.17l1.38.73-1.39.27a37,37,0,0,1-6.3.67.73.73,0,0,0-.28,1.38,9.08,9.08,0,0,0,5.48.5,22.78,22.78,0,0,0,5.33-.9,18.76,18.76,0,0,1,3,3.68c0,.88,0,1.75.11,2.57a1.19,1.19,0,0,0,2.37-.16c-.19-2,.36-4.57.25-6.85a.54.54,0,0,0,.19-.25C663.5,170.55,664.11,168.14,665.39,165.9Z" transform="translate(0 -7.88)"/><path class="cls-4" d="M642.29,145.57a35,35,0,0,0,1-4.88,41.92,41.92,0,0,1-6-.94c-3.38-.8-6.65-2-10-2.86,2.86-1.16,5.56-2.41,7.94-3.55.4-.19.84-.4,1.29-.63a29.12,29.12,0,0,0,6.92.65c-.06-.64-.11-1.28-.21-1.93a2.93,2.93,0,0,0,0-.29c-1.21,0-2.41,0-3.62,0,1.07-.59,2.17-1.25,3.27-2-.24-1.22-.55-2.42-.9-3.6a61.64,61.64,0,0,1-11.44,6.38,68.94,68.94,0,0,1-13.27,4.13,49.74,49.74,0,0,0,6.56-5.42,1.34,1.34,0,0,0,1.24.17,36,36,0,0,0,15-10.61c-.5-1.13-1-2.24-1.61-3.32a36.82,36.82,0,0,1-3.64,4.18,32.19,32.19,0,0,1-6.9,4.88,31.44,31.44,0,0,0,6-16c-.7-.9-1.41-1.79-2.15-2.65-2.54,7-4.94,13.24-10,18.91a36.46,36.46,0,0,1-5.85,5.17c.73-1.54,1.42-3.13,2.12-4.77,1.83-4.2,4.51-8,5.8-12.41.15-.54-.58-.81-.92-.46-3.19,3.28-5.41,7.5-7.85,11.35-2.1,3.3-3.82,6.22-4.7,9.77a86.44,86.44,0,0,1-8.62,4.07c-9.6,4-20.05,5.76-30,8.67a123.08,123.08,0,0,0,13.61-8.42c1.29-.94,2.5-2,3.68-3h0a38.86,38.86,0,0,0,13.56-3.28c3.06-1.29,8.07-4.23,7.83-8.11a.63.63,0,0,0-.82-.55c-1.4.66-2.33,1.82-3.56,2.75a23.71,23.71,0,0,1-5.49,2.92,56.66,56.66,0,0,1-7.36,2.09c1-1.15,2.05-2.32,3-3.54,11.16-4.61,28.79-14.17,30-26.92l-1.48-1.3a.48.48,0,0,0-.11.09c-3.36,4.27-6.24,8.31-10,12a32.56,32.56,0,0,0,3.68-13,.93.93,0,0,0-1.74-.36c-1.75,3.93-3.11,8-5.06,11.84-1.32,2.6-2.95,5-4.45,7.53-2.22,1.5-4.49,2.92-6.73,4.39,5.06-7.95,8.85-16.85,12.23-25.43a1.53,1.53,0,0,0-2.72-1.39,101.61,101.61,0,0,0-6.12,10.87c0-1.49,0-3,0-4.44.15-3.6.79-7.35.55-10.94a1.45,1.45,0,0,0-2.73-.57c-2.49,5.07-3.24,14.84.22,19.86-1.16,2.35-2.33,4.71-3.59,7a58.9,58.9,0,0,1-20.2,22c-1.27.84-2.57,1.63-3.86,2.41a40,40,0,0,0,5.79-12.67,24,24,0,0,1,2.45-2.38c1.87-1.53,3.77-2.87,5.54-4.53,3.48-3.29,6.82-7.32,6.24-12.37-.07-.62-1-1.12-1.42-.49a71.09,71.09,0,0,1-9.95,11.8c-.39.36-.8.75-1.21,1.16,0-.19.09-.39.13-.58.84-4.06,1.59-8.09,2.43-12.07,6.59-4.79,12.69-11.9,13.32-20,0-.69-.94-1.2-1.25-.44A40.93,40.93,0,0,1,589,101.63a39.64,39.64,0,0,1-3.87,3.69,72.83,72.83,0,0,1,6.19-17.16A1,1,0,0,0,589.6,87a39.74,39.74,0,0,0-8.31,14.65c-.14-.78-.27-1.55-.36-2.32-.63-5.24-.35-10.3-.51-15.56a1.31,1.31,0,0,0-2.46-.51c-2.72,6.63-2.55,17.94,1.46,24.91-1.81,7.36-2.92,15.08-5,22.36,0-5.49-2.28-11.06-4.57-16a.91.91,0,0,0-1.75.11c-1.65,7.65,2.82,15.26,3.89,22.79a41.1,41.1,0,0,1-3.73,6.94,1.11,1.11,0,0,0-.16,1c-10.44,5.77-21,10.94-29.4,20-1.76,1.91,1.25,4.61,3,2.68a55.23,55.23,0,0,1,5-4.9,1,1,0,0,0,.79,0c9.6-3.77,19.26-2.89,29-1.44,2.09,1.21,4,2.55,6,3.94-1.32,3-1.44,7.71,1.44,9.26,1.18.64,2.9-.63,2.29-2a10.16,10.16,0,0,1-1.26-4c0-.48,0-1,0-1.42l4.17,3.14c3.88,2.89,8.15,6.49,13.18,6.36A1.2,1.2,0,0,0,603,175c-4-3.83-9.72-6.46-14.26-9.66-1.07-.76-2.18-1.49-3.31-2.18,1,.15,2.05.29,3.08.42a62.2,62.2,0,0,0,11.84.44c5.65,5.76,18.35,9.24,25.16,4.65a2.1,2.1,0,0,0-1.81-3.72c-7,2.37-12.41.67-18.49-1.52a62.89,62.89,0,0,0,16.38-5.38c3.21,2.91,9.53,6.28,12.78,3.72a1,1,0,0,0,.11-1.46c-1.64-1.37-4-1.44-6-2.22-1.34-.54-2.57-1.31-3.85-2a10.8,10.8,0,0,0,2.49-2.53c.62-.93-1.07-2.32-1.86-1.89-6.6,3.53-18.32,7.52-26,7.61-.66,0-1.32,0-2,0,1.31-.84,5.18-3.91,9.88-6.72a12.7,12.7,0,0,0,5.48,1.64c2.09.16,4.7.25,6.26-1.33a1.2,1.2,0,0,0-.64-2c-1.71-.43-3.63.22-5.4.18-.88,0-1.79-.1-2.7-.2,4.3-2.24,9-3.92,12.94-3.4.41-.3.49-3.17,0-3.41-15.3-.89-26.2,11.38-29.46,15-5-.39-9.92-1.24-14.82-2-7.66-1.11-16.25-2.2-23.84-.08,2-1.3,4.08-2.53,6.17-3.73,5.05-.5,10.86-1.29,16.94-2.48,2.32,1.19,4.78,2.22,7.16,3.21s5.1,1.79,7.76,1c1.62-.46,1.31-2.77-.19-3.13a70.54,70.54,0,0,1-8.67-2.42,114.08,114.08,0,0,0,24.9-8.67,38.44,38.44,0,0,0,13.4-2.22c2,1,4.26,2.08,6.64,3.1a17.46,17.46,0,0,0-.51,5.35.71.71,0,0,0,0,1l.07.05c.52,4.66,2.83,9.09,7.17,10.32.77-1.06,1.5-2.15,2.17-3.26a6.54,6.54,0,0,1-5.13-4.74c.94.32,1.92.58,2.9.83a38.44,38.44,0,0,1,3.71,1.24q.74-1.45,1.35-2.94c-.5-.16-1-.32-1.51-.46-2.31-.67-4.68-1.1-7-1.58-.19-1.53-.25-3.13-.39-4.67A42.56,42.56,0,0,0,642.29,145.57Z" transform="translate(0 -7.88)"/><path class="cls-4" d="M564.47,142.5c-.19-2.95-5,.25-6.08.65a17.11,17.11,0,0,1-5.72.89c6.15-3.66,11.06-7.71,13.93-14.44a.72.72,0,0,0-1.17-.81c-4.64,4.91-11.14,8.44-17.38,12.23,1.21-1.56,2.42-3.11,3.76-4.57,2.83-3.12,7-5.68,8.91-9.48a1.08,1.08,0,0,0-1.29-1.5c-4.14,1.32-7.32,5.58-10.12,8.72-2.61,2.93-5.24,6.3-6.39,10.11a44.29,44.29,0,0,0-7.13,5.93c1.75-5.85,3.6-11.65,5.6-17.42a51,51,0,0,1,6.52-6.17c3.76-2.83,7.91-5.11,11.77-7.79,5.73-4,10.48-9.66,10.94-16.79.08-1.31-2-1.61-2.46-.51-3.57,7.76-8.85,12.43-15.33,17.25,1.52-3.22,2.8-6.57,4.55-9.69,2.47-4.4,6.6-7.66,9-12a.52.52,0,0,0-.49-.76c-4.37.25-7.44,5.39-9.6,8.67-3,4.62-6.44,10.61-7,16.23a.27.27,0,0,0,0,.09c-1.69,1.21-3.46,2.46-5.15,3.83.77-2.08,1.55-4.16,2.37-6.23,2.89-7.36,6.14-14.56,9.42-21.75.27-.61.56-1.22.85-1.82A23,23,0,0,0,566,91.1c3-2.16,6.66-5.5,6.58-9.48a.57.57,0,0,0-.87-.44c-2.77,2.09-4.69,5.13-7.43,7.31a24.69,24.69,0,0,1-5.82,3.36,72.65,72.65,0,0,0,5.19-12.28l-2.82-.41c-8.57,10.35-13.64,25.53-18.57,37.68-.79,2-1.57,3.93-2.33,5.93-.2-3.3-.6-6.59-1-9.83,4-10.49,9.15-23.65,8.94-35-.82,0-1.64-.05-2.46-.07-.87,3-1.56,6.08-2.27,9.14a40.49,40.49,0,0,1-.41-4.15,40.38,40.38,0,0,1,.21-5c-1.18,0-2.37,0-3.55.07A20.75,20.75,0,0,0,542.19,91c-.21.82-.43,1.64-.67,2.46-1.14,3.86-2.45,7.7-3.44,11.61a190.32,190.32,0,0,1-1.17-26.21c-1.42.08-1.43-2.18-3.69-.56-1.67,8.07-.93,16.64,0,24.76-.49-1-1.06-2-1.63-3a1.62,1.62,0,0,0-.1-.18c-1-1.63-1.94-3.2-2.77-4.62a69.08,69.08,0,0,1-6.79-14.81c-.84.23-1.68.48-2.51.75A46.5,46.5,0,0,0,523.75,92c.3.57.62,1.12.94,1.68-1.05-.7-2.09-1.39-3.06-2.12A51.64,51.64,0,0,1,513,83.67q-2.15,1-4.23,2.08a22.32,22.32,0,0,0,6.18,6c2.66,1.8,5.83,2.75,8.59,4.37a29.78,29.78,0,0,1,4.57,3.51c.36.63.73,1.25,1.08,1.88,1.71,3.12,2.65,6.71,4.77,9.55a.76.76,0,0,0,.21.19l2.34,21.32a193.32,193.32,0,0,0-7.84,31.06,1.61,1.61,0,0,0,3.15.66c.44-1.61.89-3.2,1.34-4.79a14.22,14.22,0,0,1,4.46-2c1.82-.49,4.06-.65,5.45-2a1,1,0,0,0-.3-1.63c-1.74-.66-3.79-.16-5.6.29a70.1,70.1,0,0,1,10.39-7.12,24,24,0,0,0,9.27.55C559.22,147.29,564.69,145.91,564.47,142.5Z" transform="translate(0 -7.88)"/><path class="cls-4" d="M526,141.69c2-3.42,4.43-6.52,5.82-10.24.26-.72-.49-1.7-1.25-1.11-3.45,2.67-7.76,7.06-10.06,11.86-.17-1.9-.42-3.78-.77-5.62a81.18,81.18,0,0,0,4-13.81.87.87,0,0,0,.36,0c2.32-.61,3.52-3.11,4.66-5.06a16.65,16.65,0,0,0,2.45-8,1.07,1.07,0,0,0-2-.41c-1.06,2.32-2,4.67-3.29,6.91-.46.81-1,1.57-1.53,2.36,1-8.68-.16-17.21-6.57-21.72a1.54,1.54,0,0,0-2.47,1.63c2.38,7.15,4.87,12.67,4.78,20.46-.05,4.18-1,8.3-1.71,12.43a32.77,32.77,0,0,0-3.91-8.37,37.85,37.85,0,0,0-5.4-6.34c2.84-9,.08-20.37-6.82-27-1,.67-1.93,1.37-2.86,2.1a56.07,56.07,0,0,1,3.07,5.61l-.79-.53a24.12,24.12,0,0,1-4.08-3.64c-.66.55-1.3,1.11-1.94,1.69A18.65,18.65,0,0,0,498.61,98c1.16,1,2.42,1.86,3.67,2.73.7.49,1.39,1.09,2.14,1.52a37.19,37.19,0,0,1,2,11.92c-5.33-4.65-11.16-8.81-15.15-14.88-.91,1-1.79,2-2.63,3.09,2.89,7.31,10,12.09,15.89,17.2a34.66,34.66,0,0,1,11,18.39,40.64,40.64,0,0,0-11.84-6.22,135.74,135.74,0,0,1-8.93-11.53c-2.54-3.68-5.52-7.66-10.08-8.75-1-.23-1.34.94-.79,1.56a136.47,136.47,0,0,1,10.57,13.52c.57.84,1.18,1.67,1.82,2.46a36.65,36.65,0,0,1-16.12-12.16,45.43,45.43,0,0,0-1.55,4.66c3.88,8.36,16,12,26.19,15.46a66.46,66.46,0,0,0-9.33.62c-1.46.16-2.86.27-4.24.34-3.33-3.73-7.76-8.18-12.83-8.83a1.16,1.16,0,0,0-1,2c2,1.73,4.22,3.08,6.13,4.91.62.59,1.21,1.21,1.79,1.85a26.41,26.41,0,0,1-8.28-2.15c0,.4.06.8.09,1.21.07.68.14,1.37.22,2.07,0,.28.07.56.11.84,3.62,2.36,8.27,3.2,13.12,3.2-3.68,3.12-10.11,8.12-15.27,6.17-1.13-.43-2.4,1-1.29,1.88,3.52,2.76,7.74,2.19,11.62.45,3.42-1.53,9.1-4.6,10.23-8.53,0-.1,0-.17.06-.26a90.57,90.57,0,0,0,15-3.11.83.83,0,0,0,.37-.27,32.41,32.41,0,0,1,5.11,2.58,76.17,76.17,0,0,1,.94,10.76,19.07,19.07,0,0,0-6.14-4.62,11.17,11.17,0,0,0-3.11-1.36l-.64-.16a22.82,22.82,0,0,0-4.21-1,1.18,1.18,0,0,0-.38,0l-3.64-.57a1.21,1.21,0,0,0-1,2.06c1.8,1.7,4.21,2.22,6.56,2.72.31.07.63.16.95.26.73.37,1.45.76,2.17,1.15-.73.13-1.46.28-2.18.42a58.29,58.29,0,0,1-9.85,1.05,1.16,1.16,0,0,0-.45,2.17c2.66,1.35,5.69,1.18,8.58.77,2.52-.35,5.87-.39,8.35-1.41A29.84,29.84,0,0,1,516.9,160c0,1.38.06,2.74.17,4,.22,2.39,3.95,2.16,3.72-.24-.3-3.17.57-7.16.39-10.73a.83.83,0,0,0,.3-.38C523,149,524,145.19,526,141.69Z" transform="translate(0 -7.88)"/><path class="cls-4" d="M732,225.41h3.74a267,267,0,0,1-31.24-23.58c-20.83-12.44-50.49-46.07-74.63-28.91-7.15,5.09-50.82-18.3-58-13.58-14.23,9.35-76.33-9.12-76.33-9.12-26.76-5.43-51.78-66.48-78.55-43.91-12.06,10.16-2,20.85-31.8,31.62-32.78,11.86-57.9,46.47-71.91-23.79,0-.14-14.57-10.2-16.64-12.41-17.9-19.21-39.83-1.2-49.74-39.9C246.08,58.63,227.31,47,228.46,20c.15-3.5-17.75-4.75-32.46-5,0,0-48-.57-82,29.43l-114,62v139H762Z" transform="translate(0 -7.88)"/></g></g></g></svg>