<svg xmlns="http://www.w3.org/2000/svg" xmlns:xlink="http://www.w3.org/1999/xlink" viewBox="0 0 1653.11 432.42"><defs><style>.cls-1{fill:none;}.cls-2{clip-path:url(#clip-path);}.cls-3{opacity:0.4;}.cls-4,.cls-5,.cls-7{fill:#5596ca;}.cls-5,.cls-6{opacity:0.5;}.cls-6{fill:#5392c5;}.cls-7{fill-rule:evenodd;}</style><clipPath id="clip-path" transform="translate(-201.55 -14.61)"><rect class="cls-1" width="1920" height="302.42"/></clipPath></defs><title>資產 173</title><g id="圖層_2" data-name="圖層 2"><g id="技能"><g class="cls-2"><g class="cls-3"><path class="cls-4" d="M825.76,110a25.76,25.76,0,0,1-4.64,11.93c-2.48,3.26-6.33,5.5-7.66,9.55.78-4.19,4.26-6.91,6.28-10.47a23.29,23.29,0,0,0,2.71-11.28Z" transform="translate(-201.55 -14.61)"/><path class="cls-4" d="M832.75,111.5c-2.38,5.91-2.92,12.35-6,18-2.17,3.73-9,12.49-6.79,17.09-2.6-4.47,3.44-13.86,5.31-17.84,2.58-5.82,2.56-12.26,4.37-18.3Z" transform="translate(-201.55 -14.61)"/><path class="cls-4" d="M838.46,116c-1.31,15.07-13.54,26.43-14.81,41.49.13-14.86,11.35-26.89,11.49-41.68Z" transform="translate(-201.55 -14.61)"/><path class="cls-4" d="M851.89,122.37c-2.86,5.31-2.94,11.62-5.77,17s-5.71,10.6-8.25,16.08c2-5.7,4.45-11.19,6.74-16.78s1.89-12,4.27-17.65Z" transform="translate(-201.55 -14.61)"/><path class="cls-4" d="M845.83,117.75c-1.45,3.72-.32,7.76-2,11.54-4.11,8.51-10.06,16.08-14.4,24.51,3.48-8.4,8.82-16.13,11.93-24.62,1.61-4.16,0-8.22,1.33-12.45Z" transform="translate(-201.55 -14.61)"/><path class="cls-4" d="M858.69,123.2c-4.26,7.49-3.8,17.51-10.18,24,5.56-7.32,3.88-17.36,7.17-25.43Z" transform="translate(-201.55 -14.61)"/><path class="cls-4" d="M818.65,103.16a5.06,5.06,0,0,0,2.38,7.08l38.86,14.88a5,5,0,0,0,6.49-3.7c4.35-15.9.71-30.69-13.52-36.13C838.23,79.69,826,88.38,818.65,103.16Z" transform="translate(-201.55 -14.61)"/></g><path class="cls-4" d="M1633.24,117.52c-.24-.29,0-.44.15-.67.38-.6.1-1-.25-1.53-.23-.35.17-.59.34-.87a.78.78,0,0,0-.09-.85c-.32-.39-.75-.54-.61-1.15a1.64,1.64,0,0,0,0-1c-.35-.77-1.89-1-2.33-.25l-.16.13c-.66.45-1.25,1.06-1.91,1.49a4,4,0,0,1-3.13.66,3.41,3.41,0,0,1-.68-.23.81.81,0,0,0,0-1,3.15,3.15,0,0,1-.2-.31,1.59,1.59,0,0,0,.15-.86,1,1,0,0,0-.56-.66c-.18-.1-.37-.15-.4-.38a3.39,3.39,0,0,1,0-.55.8.8,0,0,0-.49-.83c-.41-.21-1,.16-1.19-.4a1.4,1.4,0,0,0-.62-1,1.53,1.53,0,0,0-1.59.11,14.48,14.48,0,0,0-2.4,1.43c-.48-.23-1-.47-1.67-.71a1.82,1.82,0,0,0,.55-1.65c-.14-.3-.41-.56-.44-.91a3,3,0,0,0,0-.52c-.13-.42-.72-.51-1.08-.54s-.68-.67-1.11-.83a1.17,1.17,0,0,0-.74,0,2.26,2.26,0,0,0-.35.17c-.36.18-.39,0-.55-.21a1.12,1.12,0,0,0-1.26-.18,3.71,3.71,0,0,0-1.4,1,12.93,12.93,0,0,0-1,.87,14.07,14.07,0,0,1-2.65,2.1l0,0a16.12,16.12,0,0,0-6.36,3.63c-2,1.93-3.75,4.54-2.84,7.44a5.51,5.51,0,0,0,2.11,2.74,20.23,20.23,0,0,0,4.19,2.34,16.55,16.55,0,0,0,4.92,1.08l.28,0c.44.39.94.7,1.39,1.08a13.9,13.9,0,0,0,1.47,1.19,2.53,2.53,0,0,0,1.35.45,1,1,0,0,0,.53-.17,1.12,1.12,0,0,0,.24-.19c.14-.14.29,0,.44.06a.64.64,0,0,0,.86-.21c.09-.14,0-.55.21-.61a.54.54,0,0,0,.39-.24,1,1,0,0,0-.32-1.18,3.64,3.64,0,0,0-.45-.38c1-.13,1.71-.26,2.06-.34l.07,0a23.16,23.16,0,0,1,2.43,1.48c.59.39,1.26,1.09,2,.76a1.32,1.32,0,0,0,.33-.29c.13-.13.36.11.47.18a.76.76,0,0,0,.82,0c.32-.18.35-.67.75-.7s.63.11.92-.06a1.07,1.07,0,0,0,.49-.71c.07-.24.07-.19.36-.14a1.19,1.19,0,0,0,.46,0,.68.68,0,0,0,.59-.55c0-.14-.07-.39.14-.4a.7.7,0,0,0,.35-.06.69.69,0,0,0,.35-.7,2.14,2.14,0,0,1,0-.62,2,2,0,0,0,0-.59,2,2,0,0,0-.77-1.36,3.68,3.68,0,0,1,.58-.05c.35,0,.71.08,1.07.1a8.53,8.53,0,0,1,.81.29,5.85,5.85,0,0,1,1.21.9,2.49,2.49,0,0,0,1.23.62,1,1,0,0,0,1.16-.43.88.88,0,0,0,.58-.23c.32-.26.26-.69.22-1s.54-.58.64-.91-.22-.88.11-1.16a.61.61,0,0,0,.18-.64A.82.82,0,0,0,1633.24,117.52Zm-8,3.1-.2-.06.13,0A.36.36,0,0,0,1625.2,120.62Z" transform="translate(-201.55 -14.61)"/><path class="cls-4" d="M1559.14,200.19c-2.32-.87-4.7-2.3-4.09-5.05.47-2.11,2.75-1.75,4.76-1l.1,0c-1.53-1.46-2.85-3.29-.66-4.41,1.17-.59,2.77.35,4.12,1.51-.87-1.82-1.41-3.9.25-4.43,1.9-.61,3.34.88,4.34,2.7a3.24,3.24,0,0,1,1-2.6c1.33-1.09,2.4.07,3.1,1.47a10.58,10.58,0,0,1,1.16-4.47,6.42,6.42,0,0,1-1.7.94c-1,.34-2.85.36-3-1s1-2.5,1.74-3.39a13.74,13.74,0,0,1,1.48-1.57l.11-.18c-2.72.9-6.63,2.31-8.12-.32-.56-1,.49-2.24,1.23-2.76a7.31,7.31,0,0,1,2.09-1c-1.47-.4-2.62-1.16-2.78-2.51-.19-1.77,2-2.16,3.2-2.11.4,0,.81.06,1.22.12-1.71-1.09-2.8-2.5-1.23-4,1.26-1.18,3.48-.44,4.82.11.35.14.7.31,1.05.48-.06-.07-.11-.16-.16-.23-.84-1.24-2-3.19-1.12-4.68s3-.56,4,.36a9.35,9.35,0,0,1,1.07,1.23c-.2-1.05-.43-2.87.59-3.5,1.27-.78,2.44.58,2.93,1.62a9.71,9.71,0,0,1,.58,1.7,1.58,1.58,0,0,1,1-.8c1.11-.32,2,1,2.26,1.87a5.36,5.36,0,0,1,.17,1.29c.2-.29.42-.55.59-.78a11.44,11.44,0,0,1,1-1.2,2.93,2.93,0,0,1-2-1.76c-.41-1.12.58-2.3,1.82-3.06-1.32,0-2.54-.41-2.92-1.48-.48-1.37,1-2.46,2.11-2.7a5.79,5.79,0,0,1,1.61-.07c-1.09-.56-2.43-1.43-2.55-2.72-.13-1.47,2-1.9,3-1.76a5.75,5.75,0,0,1,1,.22l-.32-.56c-1.24-1.52-1.66-3.28-.13-4.2s3.5.72,4.81,2.42v-.1a8.7,8.7,0,0,1-.38-2.27c0-.79.27-2.78,1.47-2.69,1.74.12,3,2,3.66,4.05.07-2,.5-3.83,1.89-4.58a2.13,2.13,0,0,1,2.79,1.28,6.83,6.83,0,0,1,.21,2.88,10.53,10.53,0,0,1-.34,1.56c.67-.89,1.61-1.6,2.45-1a2.41,2.41,0,0,1,.74,3,1,1,0,0,1,0,.17,8.73,8.73,0,0,1,2.86-1.62c-1.09-.55-2-1.4-1.89-2.47.11-1.26,1.51-2,2.61-2.22l.32,0c-1.34-.66-2.45-1.6-2-2.8s1.88-1.61,3.4-1.35c-.09-.12-.18-.23-.26-.35-.51-.79-1-2.33-.19-3.11,1.29-1.26,3.14-.62,4.72.55a7.06,7.06,0,0,1-.38-1.62,3.09,3.09,0,0,1,2.41-3.43c1.66-.26,2.81.91,3.55,2.44.1-1.15.37-2.7,1.35-3.35,1.26-.82,2.59.47,3.23,1.48a4.89,4.89,0,0,1,.56,3,7.73,7.73,0,0,1,.91-1.43c.59-.71,1.72-1.87,2.77-1.38,1.25.59,1,2.4.85,3.51a9.47,9.47,0,0,1-.56,1.89c.17-.13.33-.25.5-.36.85-.58,2.3-1.42,3.38-1.15,1.59.39,1.57,2.06.91,3.38l-.06.27a15.41,15.41,0,0,1,2.31-.48l.47-.05a2.56,2.56,0,0,1-.67-2.77c.45-1.38,1.7-1.36,2.91-1.08-1-1.1-1.65-2.46-.34-3.7,1-1,2.64-.31,4,.62-.93-2.13-1.59-4.84.76-5.25a3.54,3.54,0,0,1,3.2,1.31c-.25-2-.08-4.06,2-4.06s2.91,2.08,3.16,4.08c.72-1.9,2-3.91,3.71-3.39,2.45.74,2.06,2.72,1.25,4.64,0,.09,0,.18-.07.27,1.3-1.18,2.89-1.84,4.09,0,.81,1.22.36,2.48-.46,3.63,1.18-.54,2.39-.77,3.17,0,1.45,1.35.85,2.92-.33,4.15a5.44,5.44,0,0,1,2.8.23c-.79-1.16-1.2-2.45-.37-3.54s1.93-.76,3-.05c-1.12-2.19-2-4.8-.1-5.18,1.11-.22,2.08.53,2.85,1.63-.29-2.05-.09-3.92,1.87-3.92,1.49,0,2.26,1.64,2.69,3.46.37-1.91,1.08-3.66,2.5-3.56,2.24.16,2.67,2.23,2.54,4.43.89-1.68,2.11-3,3.75-2.32,2.08.87,1.23,3.62.15,5.87,1.59-1.29,3.51-2.42,4.79-1.41,2,1.56.21,3.86-1.65,5.37,1.6-.13,3.31,0,3.94,1,1,1.67-.74,2.51-2.62,2.93a15.06,15.06,0,0,1,3,1.32s0-.08,0-.11a1.54,1.54,0,0,1,1.15-1.67,2.81,2.81,0,0,1,2.41.66q0-.18,0-.33c-.09-1-.17-2.48.73-3.17,1.52-1.17,2.76.55,3.38,2.43.41-2.12,1.24-4.36,2.85-4.24,3,.24,2.68,3.53,2.08,6.26,1.25-1.77,2.79-3.53,4.68-2.52s1,3.47-.14,5.49c1.7-1.06,3.67-1.86,4.61-.36,1.06,1.7.29,2.74-1,3.53a4.64,4.64,0,0,1-.66.59c1.38.07,2.55.51,2.42,1.78a3.35,3.35,0,0,1-.35,1.25,3.53,3.53,0,0,1,3.31,1.59c.74,1.12.16,2.43-.74,3.44,1.6,0,3.21.3,3.79,2a3.67,3.67,0,0,1-1.64,4.6,3.34,3.34,0,0,1,2.36,2.9c.18,1.72-1.23,2.24-2.67,2.37,1.08,1.21,1.71,2.76.92,4.32-.55,1.09-1.77,1.13-3,.81a6.6,6.6,0,0,1,1.15,4.3,1.43,1.43,0,0,1,0,.16c-4.55,24.45-27.69,23.77-50.52,27.65-27,4.58-55.12,11.73-82.33,11.29a1,1,0,0,1-.78-.35c-1.49,0-3-.16-4.44-.31-3.21-.33-6.47-.66-9.64-1.27s-7.66-2.28-7.73-5.35a2,2,0,0,1-2.18-.46,2.33,2.33,0,0,1-.21-2.94c-1.3.21-2.57,0-3.19-1.27-.44-.94.19-1.85,1.11-2.61-1.32-.09-2.43-.56-2.35-1.93C1555.9,201.06,1557.42,200.36,1559.14,200.19Zm160.09-36.95a1.61,1.61,0,0,1,0,.31q.81-1.22-.84-3.33a5.33,5.33,0,0,0-2.57,0,8.23,8.23,0,0,1-.46.74C1717.23,161,1719.08,161.66,1719.23,163.24Zm-6.78-7.41.28.47a2.66,2.66,0,0,1,3.21.26,1.84,1.84,0,0,1,.49.74c.67-1,.77-2.08-1.57-2.37a6.13,6.13,0,0,0-1.53.06,4,4,0,0,1-.45.15,2.49,2.49,0,0,1-.52.56Zm-.88,32.43c0-.18,0-.38-.09-.58a5,5,0,0,0-.8-.63C1711,187.52,1711.31,187.91,1711.57,188.26Z" transform="translate(-201.55 -14.61)"/><path class="cls-4" d="M378,101.94a5.8,5.8,0,0,0-3.83-3.67c-1.62-.82-3.9-.69-6.25.63l-.33.19c-2.74,1.67-1.55,4.06-1.36,6.77s-1.19,3.69-2.74,4.87c0-.33-.05-.67-.07-1q-.51-9.17-1-18.34-.42-7.58-.32-15.16c0-3.53,1.71-10-.72-13a6,6,0,0,0-2.16-1.61c-2.3-1.54-6.69-1.37-9-1A13.6,13.6,0,0,0,341.42,65a7.42,7.42,0,0,0-1.33,2.57c-1.49,5.06,1.18,8.89,2.33,13.54a137.47,137.47,0,0,1,2.89,18.58c1.18,11.29,3.49,22.36,3.72,33.76a4,4,0,0,1-.41,2.27,1.42,1.42,0,0,1-2,.51,2,2,0,0,1-.54-1.23,429.68,429.68,0,0,1-6.57-50.54c-.28-4.08-.68-7.36-5.17-7.38-3.48,0-7.31.76-9.83,3.37-1.82,1.89-.38,3.53.24,5.52,4.53,14.49,6.74,29.9,9.6,44.81a19,19,0,0,1,.47,6.79c-.05.27-.14.57-.4.66s-.68-.27-.85-.62c-1.83-3.82-2.53-8.06-3.93-12.06-2-5.64-5.33-9.23-11.05-11-3-.92-5.95-1.19-7.58,2.19a9.5,9.5,0,0,0-.91,6.28c.32,1.89,1.21,3.89,3,4.64a12.06,12.06,0,0,0,3.9.44c9.64.7,8.69,12.32,9.58,19.3.92,7.26,2,16.84,8.55,21.42,3.26,2.28,7.59,2.43,11.52,1.77,9.8-1.66,19.81-8.61,23.8-17.9,4.43-10.32-4.43-20.7-.57-31a28.51,28.51,0,0,1,3.89-6.22C376.68,111.46,380,107.54,378,101.94Z" transform="translate(-201.55 -14.61)"/><path class="cls-4" d="M373.11,123.91a4.12,4.12,0,0,1,2.43-2.89,4.73,4.73,0,0,1,4.46,0l.25.1c2.05,1,1.39,2.76,1.46,4.68s1.11,2.52,2.3,3.24c0-.24,0-.48,0-.72q-.33-6.51-.65-13c-.17-3.58-.48-7.16-.9-10.73-.29-2.48-2-7-.47-9.26a4.5,4.5,0,0,1,1.4-1.3c1.51-1.26,4.63-1.46,6.32-1.41a9.73,9.73,0,0,1,6.51,2.51,5.33,5.33,0,0,1,1.12,1.71c1.43,3.47-.17,6.37-.63,9.74a99,99,0,0,0-.66,13.33c0,8.06-.79,16-.1,24.11a2.87,2.87,0,0,0,.46,1.58,1,1,0,0,0,1.45.21,1.46,1.46,0,0,0,.29-.92A305.16,305.16,0,0,0,399,108.7c-.1-2.91-.06-5.25,3.1-5.6,2.46-.28,5.22,0,7.19,1.64,1.43,1.2.54,2.47.25,3.92-2.12,10.57-2.53,21.61-3.44,32.35a13.73,13.73,0,0,0,.18,4.83c.06.18.14.39.33.44s.46-.25.55-.51c1-2.83,1.19-5.88,1.88-8.8,1-4.13,3.07-6.92,7-8.57,2.05-.87,4.12-1.28,5.52,1a6.75,6.75,0,0,1,1.11,4.37,4.13,4.13,0,0,1-1.76,3.5,8.76,8.76,0,0,1-2.72.6c-6.75,1.21-5.21,9.35-5.32,14.34-.11,5.19-.15,12-4.44,15.76-2.13,1.86-5.17,2.28-8,2.11-7-.44-14.62-4.6-18.13-10.86-3.9-7,1.58-14.94-1.92-21.93a20.61,20.61,0,0,0-3.21-4.1C374.76,130.52,372.13,128,373.11,123.91Z" transform="translate(-201.55 -14.61)"/><path class="cls-5" d="M1849.88,151.11c11.68,9.22-1.71,72.39-1.94,90.47-.42,32.94-9,199.45-9.09,199.45L437.1,447c.18-12.46,13.37-111.48,5.48-170.74-1.07-8,.69-16.7.42-24.8-.52-15.2-8.86-29.39-6.67-44.81,17.82-.66,25.83,3.89,40.86,10.9,48.47,22.58,97.34,8.35,148.6,14.67,51.05,6.3,102.31-22.37,153.2-13.65,57.83,9.91,115,16.59,173.68,15.56,54.24-.95,108-20.36,162.31-15.43,62.45,5.66,120.27-12.85,182.94-11.86,46.44.74,83.2-26.28,126.21-23.25,38.61,2.72,78.24,13,117,13.18,3.53,0,7,0,10.54-.14,35.29-1.11,76.16-3.51,109.25-16.56,0,0,123.71-40,189-29" transform="translate(-201.55 -14.61)"/><path class="cls-6" d="M1001.3,266.58c-2.47,1.93-12.13,3.94-16.52,5.88-3.52,1.57.42,3.39-13.26,4.66-17.28,1.59-36.41,1.47-53.28,1.63-7.1.06-13.91-.08-21.23.29-7.5.37-14.09,1.27-21.53,1.71-28.07,1.65-54.5-.11-30.1-4.66,21.93-4.08,47.23-9.13,40.54-13.93-6.54-4.69-31-4.72-60.51-4.5-11.37.09-25.31-.1-35.18-.68-1.7-.1-20.19-1.7-13.84-2,16-.74,31.68-1.31,47.61-2.36,18.59-1.22,38.4-3.24,55.89-5,8.56-.86,21.73-2.89,31.31-2.89,16,0,16.21,4,32.51,4.25,19.35.31,46.68-1.56,67.78-2.12s43.5-.11,54.63,1.65h0c17.5,2.7-28.5,5.5-40.61,6.86s-21.82,3.27-25.66,5.36C995.75,263,1004,264.5,1001.3,266.58Z" transform="translate(-201.55 -14.61)"/><path class="cls-6" d="M1444,209.18c10.36,1.19-12.32,12.3-8.9,15.53,4.8,4.54,26.24,6.59,37.41,9.91,1.79.53,3.14,1,4,2.47-9.61,6.94-27.81,6.34-39.48,7.52-19.42,2-31.87,4.06-47.27,17-10.68,9-13,12.6-28.38,13.52-12.67.77-27.11,2.6-39.71.49s-21-7.72-33.66-6.43c-14.63,1.47-29.69,5-44.5,6.73-31.4,3.57-52.14,1.37-53.69-3.09-1.71-4.93,30.86-9.17,48.7-13.79,30.06-7.79,36.59-13.74-2.73-14.29-6.83-.1-16.57,1-22.67.5-17.27-1.4,11.76-6.46,17.66-9.6,9.22-4.9-1-8.41,25.9-12.9,20.63-3.45,47.88-2.94,68.71-4.33C1362.46,216,1411.24,205.45,1444,209.18Z" transform="translate(-201.55 -14.61)"/><path class="cls-7" d="M768,250.26c10.49,11.51,49.89,65.52,64,65.43H221.55L201.55,21c14.71.29,27.06,1.54,26.91,5-1.15,27,17.62,38.63,18.44,41.82,9.91,38.7,31.84,20.69,49.74,39.9,2.07,2.22,16.61,12.27,16.64,12.41,14,70.26,39.13,35.65,71.91,23.8,29.78-10.78,19.74-21.46,31.8-31.63,26.77-22.56,51.79,38.49,78.55,43.91,0,0,62.1,18.48,76.33,9.13,7.18-4.72,50.85,18.67,58,13.58,24.14-17.16,53.8,16.46,74.63,28.91C704.5,207.85,750.87,231.49,768,250.26Z" transform="translate(-201.55 -14.61)"/><path class="cls-4" d="M739.7,174.39a20.22,20.22,0,0,0,.66-3.11,28.81,28.81,0,0,1-3.82-.6c-2.16-.52-4.24-1.28-6.38-1.83,1.83-.74,3.55-1.54,5.07-2.27.26-.12.54-.25.83-.4a18.7,18.7,0,0,0,4.42.42c0-.41-.07-.82-.13-1.24,0-.06,0-.12,0-.18-.77,0-1.54,0-2.31,0,.68-.38,1.39-.8,2.09-1.25-.16-.78-.35-1.55-.57-2.3a39.45,39.45,0,0,1-7.32,4.07,43.87,43.87,0,0,1-8.47,2.64,31.6,31.6,0,0,0,4.19-3.46.84.84,0,0,0,.79.11,23.07,23.07,0,0,0,9.56-6.78c-.32-.72-.66-1.43-1-2.12a23.45,23.45,0,0,1-2.33,2.67,20.21,20.21,0,0,1-4.41,3.11,19.92,19.92,0,0,0,3.84-10.23c-.44-.58-.89-1.14-1.37-1.69-1.62,4.5-3.16,8.46-6.41,12.08a23.51,23.51,0,0,1-3.74,3.3c.47-1,.91-2,1.36-3,1.16-2.69,2.87-5.11,3.7-7.93.1-.35-.37-.52-.58-.3-2,2.1-3.46,4.79-5,7.25a20.88,20.88,0,0,0-3,6.25,56.11,56.11,0,0,1-5.51,2.59c-6.13,2.53-12.81,3.68-19.19,5.54a77,77,0,0,0,8.69-5.38,29.3,29.3,0,0,0,2.35-1.92h0a25.05,25.05,0,0,0,8.67-2.1c1.95-.82,5.15-2.7,5-5.18a.41.41,0,0,0-.53-.35,14.17,14.17,0,0,0-2.28,1.76,14.88,14.88,0,0,1-3.5,1.86,36,36,0,0,1-4.7,1.34c.66-.74,1.31-1.48,1.91-2.26,7.13-2.95,18.39-9.06,19.15-17.2l-1-.83s0,0-.07.06a74.81,74.81,0,0,1-6.38,7.64,20.83,20.83,0,0,0,2.35-8.33.59.59,0,0,0-1.11-.23c-1.12,2.52-2,5.11-3.23,7.57-.85,1.66-1.89,3.21-2.84,4.81-1.42.95-2.87,1.86-4.3,2.8a95.36,95.36,0,0,0,7.81-16.24,1,1,0,0,0-1.74-.89,66.43,66.43,0,0,0-3.91,6.94c0-1,0-1.91,0-2.83a65.59,65.59,0,0,0,.36-7,.93.93,0,0,0-1.75-.37c-1.59,3.24-2.07,9.48.14,12.69-.74,1.5-1.49,3-2.29,4.48a37.66,37.66,0,0,1-12.91,14.05c-.81.53-1.64,1-2.47,1.54a25.17,25.17,0,0,0,3.7-8.1,16.17,16.17,0,0,1,1.57-1.52c1.19-1,2.41-1.83,3.54-2.89,2.22-2.1,4.36-4.68,4-7.9,0-.4-.62-.72-.9-.32a45,45,0,0,1-6.36,7.54c-.25.23-.51.48-.77.74,0-.12.06-.25.08-.37.54-2.59,1-5.17,1.56-7.71,4.21-3.06,8.1-7.6,8.5-12.76,0-.43-.6-.76-.8-.28a25.84,25.84,0,0,1-4.57,7.78,27.54,27.54,0,0,1-2.47,2.36,46.43,46.43,0,0,1,4-11,.66.66,0,0,0-1.07-.73,25.38,25.38,0,0,0-5.31,9.35c-.09-.49-.17-1-.23-1.47-.4-3.36-.23-6.59-.33-9.94a.84.84,0,0,0-1.57-.33c-1.73,4.23-1.63,11.46.93,15.91-1.15,4.7-1.86,9.63-3.21,14.29,0-3.51-1.46-7.07-2.93-10.22a.58.58,0,0,0-1.11.07c-1.06,4.89,1.8,9.75,2.48,14.56a26.74,26.74,0,0,1-2.38,4.44.71.71,0,0,0-.1.66c-6.67,3.68-13.45,7-18.79,12.79a1.28,1.28,0,0,0,1.9,1.71,35.12,35.12,0,0,1,3.22-3.13.66.66,0,0,0,.5,0c6.13-2.42,12.3-1.85,18.53-.92a44.9,44.9,0,0,1,3.82,2.51c-.84,1.9-.92,4.93.92,5.92.76.4,1.86-.41,1.47-1.26a6.55,6.55,0,0,1-.81-2.58c0-.31,0-.61,0-.91l2.67,2c2.47,1.84,5.2,4.14,8.41,4.06a.76.76,0,0,0,.46-1.32c-2.53-2.45-6.21-4.12-9.1-6.16-.69-.49-1.4-1-2.12-1.4l2,.27a40.07,40.07,0,0,0,7.57.28c3.61,3.68,11.72,5.9,16.07,3a1.34,1.34,0,0,0-1.16-2.37c-4.47,1.51-7.92.42-11.8-1a39.85,39.85,0,0,0,10.46-3.43c2,1.85,6.09,4,8.16,2.37a.59.59,0,0,0,.07-.93c-1-.87-2.58-.92-3.83-1.42-.85-.34-1.64-.84-2.46-1.25a7.13,7.13,0,0,0,1.59-1.62c.4-.6-.68-1.48-1.19-1.21-4.21,2.26-11.7,4.8-16.59,4.86-.42,0-.85,0-1.27,0,.84-.54,3.31-2.5,6.32-4.29a8.37,8.37,0,0,0,3.5,1c1.33.09,3,.16,4-.86a.77.77,0,0,0-.41-1.25c-1.08-.27-2.32.14-3.45.12a17.23,17.23,0,0,1-1.72-.13c2.75-1.43,5.73-2.5,8.27-2.17.26-.2.31-2,0-2.18-9.77-.57-16.74,7.27-18.82,9.59-3.17-.25-6.34-.79-9.46-1.24-4.9-.72-10.39-1.41-15.24-.06,1.29-.83,2.61-1.62,3.94-2.38,3.23-.32,6.94-.82,10.83-1.58,1.48.76,3,1.42,4.57,2a7.52,7.52,0,0,0,5,.67,1,1,0,0,0-.12-2,44.17,44.17,0,0,1-5.54-1.55,73.31,73.31,0,0,0,15.91-5.53A24.54,24.54,0,0,0,727,170c1.28.64,2.73,1.33,4.25,2a11.31,11.31,0,0,0-.33,3.42.45.45,0,0,0,0,.64l0,0c.33,3,1.81,5.8,4.58,6.59.49-.69,1-1.38,1.38-2.09a4.18,4.18,0,0,1-3.27-3c.6.21,1.22.37,1.85.53.78.2,1.57.51,2.37.79.31-.61.6-1.24.86-1.87-.32-.11-.64-.2-1-.3-1.47-.43-3-.7-4.49-1-.12-1-.16-2-.25-3A26.86,26.86,0,0,0,739.7,174.39Z" transform="translate(-201.55 -14.61)"/><path class="cls-4" d="M690,172.44c-.12-1.89-3.19.15-3.89.41a10.79,10.79,0,0,1-3.65.56c3.92-2.33,7.06-4.92,8.89-9.22a.45.45,0,0,0-.74-.51c-3,3.13-7.12,5.39-11.1,7.81.77-1,1.54-2,2.39-2.92,1.81-2,4.51-3.63,5.7-6a.69.69,0,0,0-.83-1c-2.64.84-4.67,3.56-6.46,5.57a18,18,0,0,0-4.08,6.45,29,29,0,0,0-4.56,3.79c1.12-3.73,2.3-7.44,3.58-11.13a33.91,33.91,0,0,1,4.16-3.94c2.4-1.81,5.06-3.26,7.52-5,3.66-2.54,6.7-6.17,7-10.73.06-.84-1.24-1-1.57-.33-2.28,5-5.65,7.95-9.79,11,1-2.06,1.79-4.19,2.9-6.19,1.58-2.81,4.22-4.89,5.74-7.63a.33.33,0,0,0-.32-.48c-2.79.16-4.75,3.44-6.13,5.53-2,3-4.11,6.78-4.47,10.37,0,0,0,0,0,.06-1.08.77-2.21,1.57-3.3,2.44.5-1.32,1-2.65,1.52-4,1.85-4.69,3.93-9.3,6-13.89.17-.39.36-.77.55-1.16A14.72,14.72,0,0,0,691,139.6c1.91-1.38,4.25-3.51,4.2-6.06a.36.36,0,0,0-.55-.28c-1.78,1.34-3,3.28-4.75,4.67a15.73,15.73,0,0,1-3.72,2.15,46.24,46.24,0,0,0,3.31-7.85L687.7,132c-5.48,6.62-8.72,16.31-11.87,24.08-.51,1.24-1,2.51-1.49,3.78-.12-2.11-.38-4.21-.64-6.28,2.54-6.7,5.85-15.11,5.72-22.37l-1.58,0c-.55,1.92-1,3.88-1.45,5.84-.12-.87-.22-1.75-.26-2.65a26.6,26.6,0,0,1,.14-3.22c-.76,0-1.52,0-2.27,0a13.28,13.28,0,0,0,1.76,8.41c-.13.52-.28,1-.43,1.57-.72,2.46-1.56,4.92-2.2,7.41a122,122,0,0,1-.74-16.74c-.91,0-.91-1.39-2.36-.36-1.06,5.16-.59,10.63,0,15.82-.32-.66-.68-1.3-1-1.93a.41.41,0,0,1-.07-.11c-.61-1-1.24-2-1.77-2.95a44.88,44.88,0,0,1-4.34-9.46c-.53.15-1.07.31-1.6.48a30.34,30.34,0,0,0,2.77,6.87c.19.36.4.71.6,1.07-.67-.45-1.33-.89-2-1.35a32.84,32.84,0,0,1-5.55-5c-.91.41-1.81.86-2.7,1.33a14.36,14.36,0,0,0,4,3.85c1.7,1.15,3.72,1.76,5.49,2.79a19.48,19.48,0,0,1,2.92,2.24c.23.4.46.8.68,1.21,1.1,2,1.7,4.28,3.05,6.09a.53.53,0,0,0,.14.12c.5,4.54,1,9.09,1.49,13.62a123.32,123.32,0,0,0-5,19.85,1,1,0,0,0,2,.41c.28-1,.56-2,.85-3.05a8.8,8.8,0,0,1,2.85-1.26c1.16-.31,2.59-.42,3.48-1.3a.66.66,0,0,0-.19-1,6.11,6.11,0,0,0-3.58.19,44.52,44.52,0,0,1,6.64-4.55,15.61,15.61,0,0,0,5.92.35C686.64,175.49,690.14,174.61,690,172.44Z" transform="translate(-201.55 -14.61)"/><path class="cls-4" d="M665.39,171.92c1.25-2.18,2.83-4.17,3.71-6.55.17-.45-.3-1.08-.79-.71a23.14,23.14,0,0,0-6.43,7.58c-.11-1.21-.27-2.41-.49-3.59a51,51,0,0,0,2.57-8.82.59.59,0,0,0,.23,0c1.49-.4,2.25-2,3-3.24a10.57,10.57,0,0,0,1.56-5.07.68.68,0,0,0-1.27-.27c-.68,1.49-1.31,3-2.11,4.41-.29.52-.65,1-1,1.51.65-5.54-.1-11-4.2-13.87a1,1,0,0,0-1.58,1c1.52,4.57,3.12,8.1,3.06,13.07a48.74,48.74,0,0,1-1.09,7.94,21.34,21.34,0,0,0-2.5-5.34,24.52,24.52,0,0,0-3.45-4.06,17.66,17.66,0,0,0-4.36-17.23c-.62.43-1.23.87-1.83,1.34a36,36,0,0,1,2,3.58c-.18-.11-.36-.22-.51-.33a15.28,15.28,0,0,1-2.6-2.33c-.42.35-.84.71-1.24,1.08a12,12,0,0,0,1.87,2,28.64,28.64,0,0,0,2.35,1.75c.45.31.88.69,1.36,1a23.92,23.92,0,0,1,1.26,7.62c-3.41-3-7.13-5.64-9.68-9.51-.58.64-1.14,1.3-1.68,2,1.84,4.67,6.37,7.72,10.15,11a22.19,22.19,0,0,1,7,11.74,26.32,26.32,0,0,0-7.57-4,87.44,87.44,0,0,1-5.7-7.36c-1.62-2.35-3.52-4.9-6.44-5.59-.61-.15-.86.6-.5,1a86.65,86.65,0,0,1,6.75,8.63c.37.54.75,1.07,1.16,1.57a23.35,23.35,0,0,1-10.3-7.77c-.38,1-.71,2-1,3,2.48,5.34,10.19,7.64,16.73,9.88a43.24,43.24,0,0,0-6,.39c-.93.11-1.82.18-2.7.22-2.13-2.39-5-5.23-8.2-5.64a.74.74,0,0,0-.64,1.26c1.26,1.11,2.69,2,3.91,3.14.4.38.78.78,1.15,1.18a16.49,16.49,0,0,1-5.29-1.37c0,.26,0,.51,0,.77.05.44.09.88.15,1.32,0,.18,0,.36.07.54a15.34,15.34,0,0,0,8.37,2c-2.34,2-6.45,5.18-9.75,3.94-.72-.28-1.53.64-.82,1.2,2.25,1.76,4.94,1.4,7.42.29,2.18-1,5.81-2.94,6.54-5.45a1,1,0,0,1,0-.17,56.7,56.7,0,0,0,9.54-2,.46.46,0,0,0,.24-.17,20.19,20.19,0,0,1,3.26,1.65,50,50,0,0,1,.61,6.87,12.31,12.31,0,0,0-3.93-3,7.15,7.15,0,0,0-2-.87l-.4-.1a15.91,15.91,0,0,0-2.69-.63,1,1,0,0,0-.25,0l-2.32-.37a.77.77,0,0,0-.67,1.32,8.33,8.33,0,0,0,4.19,1.74c.2,0,.4.1.61.16l1.38.74-1.39.27a37,37,0,0,1-6.3.66.74.74,0,0,0-.28,1.39,9.16,9.16,0,0,0,5.48.5,23.33,23.33,0,0,0,5.33-.91,19.05,19.05,0,0,1,3,3.68c0,.89,0,1.75.11,2.57.13,1.53,2.52,1.38,2.37-.15-.19-2,.36-4.58.25-6.86a.47.47,0,0,0,.19-.24C663.5,176.57,664.11,174.15,665.39,171.92Z" transform="translate(-201.55 -14.61)"/><path class="cls-4" d="M642.29,151.58a34.67,34.67,0,0,0,1-4.88,41.89,41.89,0,0,1-6-.93c-3.38-.81-6.65-2-10-2.87,2.86-1.15,5.56-2.4,7.94-3.54l1.29-.63a29.14,29.14,0,0,0,6.92.64c-.06-.64-.11-1.28-.21-1.92,0-.1,0-.2,0-.3-1.21,0-2.41,0-3.62,0,1.07-.59,2.17-1.25,3.27-2-.24-1.23-.55-2.42-.9-3.61A61.12,61.12,0,0,1,630.55,138a68.21,68.21,0,0,1-13.27,4.12,49,49,0,0,0,6.56-5.42,1.28,1.28,0,0,0,1.24.17,35.93,35.93,0,0,0,15-10.61c-.5-1.13-1-2.23-1.61-3.31a38.64,38.64,0,0,1-3.64,4.18,32.14,32.14,0,0,1-6.9,4.87,31.4,31.4,0,0,0,6-16c-.7-.9-1.41-1.78-2.15-2.64-2.54,7-4.94,13.24-10,18.9a36.52,36.52,0,0,1-5.85,5.18c.73-1.55,1.42-3.13,2.12-4.77,1.83-4.2,4.51-8,5.8-12.42.15-.53-.58-.81-.92-.46-3.19,3.29-5.41,7.51-7.85,11.36-2.1,3.3-3.82,6.22-4.7,9.77a88.73,88.73,0,0,1-8.62,4.07c-9.6,4-20.05,5.76-30,8.67a126.17,126.17,0,0,0,13.61-8.42c1.29-.95,2.5-2,3.68-3h0a38.62,38.62,0,0,0,13.56-3.27c3.06-1.29,8.07-4.24,7.83-8.11a.63.63,0,0,0-.82-.55c-1.4.66-2.33,1.82-3.56,2.75a23.68,23.68,0,0,1-5.49,2.91,55.13,55.13,0,0,1-7.36,2.09c1-1.14,2.05-2.31,3-3.53,11.16-4.62,28.79-14.18,30-26.93l-1.48-1.3a.52.52,0,0,0-.11.1c-3.36,4.26-6.24,8.31-10,12a32.61,32.61,0,0,0,3.68-13,.93.93,0,0,0-1.74-.36c-1.75,3.93-3.11,8-5.06,11.84-1.32,2.59-2.95,5-4.45,7.53-2.22,1.49-4.49,2.92-6.73,4.38,5.06-7.94,8.85-16.84,12.23-25.42a1.53,1.53,0,0,0-2.72-1.4,101.75,101.75,0,0,0-6.12,10.88c0-1.49,0-3,0-4.44.15-3.6.79-7.35.55-11a1.45,1.45,0,0,0-2.73-.56c-2.49,5.06-3.24,14.84.22,19.85-1.16,2.36-2.33,4.71-3.59,7a58.92,58.92,0,0,1-20.2,22c-1.27.84-2.57,1.63-3.86,2.41a40.09,40.09,0,0,0,5.79-12.67,24,24,0,0,1,2.45-2.38c1.87-1.53,3.77-2.88,5.54-4.54,3.48-3.28,6.82-7.31,6.24-12.36-.07-.63-1-1.13-1.42-.5a71.16,71.16,0,0,1-9.95,11.81c-.39.36-.8.75-1.21,1.16,0-.2.09-.39.13-.58.84-4.07,1.59-8.09,2.43-12.07,6.59-4.8,12.69-11.91,13.32-20,0-.68-.94-1.2-1.25-.43A41.05,41.05,0,0,1,589,107.65a42.18,42.18,0,0,1-3.87,3.69,72.83,72.83,0,0,1,6.19-17.16A1,1,0,0,0,589.6,93a39.78,39.78,0,0,0-8.31,14.64c-.14-.77-.27-1.54-.36-2.31-.63-5.25-.35-10.31-.51-15.56a1.31,1.31,0,0,0-2.46-.51c-2.72,6.62-2.55,17.94,1.46,24.91-1.81,7.35-2.92,15.08-5,22.36,0-5.5-2.28-11.07-4.57-16a.92.92,0,0,0-1.75.11c-1.65,7.65,2.82,15.26,3.89,22.79a41.19,41.19,0,0,1-3.73,6.95,1.11,1.11,0,0,0-.16,1c-10.44,5.77-21,10.93-29.4,20-1.76,1.9,1.25,4.6,3,2.68a55.23,55.23,0,0,1,5-4.9,1,1,0,0,0,.79,0c9.6-3.78,19.26-2.9,29-1.45a71.19,71.19,0,0,1,6,3.95c-1.32,3-1.44,7.71,1.44,9.26,1.18.63,2.9-.64,2.29-2a10.21,10.21,0,0,1-1.26-4c0-.48,0-1,0-1.41l4.17,3.13c3.88,2.89,8.15,6.5,13.18,6.37A1.2,1.2,0,0,0,603,181c-4-3.83-9.72-6.45-14.26-9.65-1.07-.76-2.18-1.49-3.31-2.18,1,.15,2.05.29,3.08.42a63,63,0,0,0,11.84.44c5.65,5.75,18.35,9.24,25.16,4.64a2.09,2.09,0,0,0-1.81-3.71c-7,2.36-12.41.66-18.49-1.53a62.46,62.46,0,0,0,16.38-5.37c3.21,2.9,9.53,6.27,12.78,3.71a.94.94,0,0,0,.11-1.45c-1.64-1.37-4-1.44-6-2.23-1.34-.53-2.57-1.31-3.85-2a10.64,10.64,0,0,0,2.49-2.54c.62-.93-1.07-2.31-1.86-1.89-6.6,3.54-18.32,7.52-26,7.62-.66,0-1.32,0-2,0,1.31-.84,5.18-3.91,9.88-6.71a13,13,0,0,0,5.48,1.64c2.09.15,4.7.25,6.26-1.34a1.2,1.2,0,0,0-.64-1.95c-1.71-.44-3.63.21-5.4.18-.88,0-1.79-.1-2.7-.21,4.3-2.24,9-3.91,12.94-3.4.41-.3.49-3.17,0-3.41-15.3-.88-26.2,11.39-29.46,15-5-.38-9.92-1.24-14.82-2-7.66-1.11-16.25-2.2-23.84-.09q3-1.94,6.17-3.72c5.05-.5,10.86-1.29,16.94-2.48,2.32,1.19,4.78,2.22,7.16,3.2s5.1,1.8,7.76,1c1.62-.46,1.31-2.76-.19-3.12a68.86,68.86,0,0,1-8.67-2.43,114.58,114.58,0,0,0,24.9-8.66,38.46,38.46,0,0,0,13.4-2.23c2,1,4.26,2.09,6.64,3.11a17.46,17.46,0,0,0-.51,5.35.7.7,0,0,0,0,1l.07.06c.52,4.66,2.83,9.09,7.17,10.32.77-1.07,1.5-2.15,2.17-3.27a6.51,6.51,0,0,1-5.13-4.73c.94.32,1.92.58,2.9.82,1.22.31,2.46.79,3.71,1.24q.74-1.44,1.35-2.94l-1.51-.46c-2.31-.67-4.68-1.1-7-1.57-.19-1.53-.25-3.14-.39-4.68A41.67,41.67,0,0,0,642.29,151.58Z" transform="translate(-201.55 -14.61)"/><path class="cls-4" d="M564.47,148.52c-.19-3-5,.24-6.08.65a17.36,17.36,0,0,1-5.72.88c6.15-3.66,11.06-7.7,13.93-14.44a.72.72,0,0,0-1.17-.8c-4.64,4.9-11.14,8.43-17.38,12.22,1.21-1.56,2.42-3.11,3.76-4.57,2.83-3.11,7-5.67,8.91-9.47a1.08,1.08,0,0,0-1.29-1.5c-4.14,1.32-7.32,5.58-10.12,8.72-2.61,2.92-5.24,6.3-6.39,10.11a44.76,44.76,0,0,0-7.13,5.92c1.75-5.84,3.6-11.64,5.6-17.42a51.68,51.68,0,0,1,6.52-6.16c3.76-2.84,7.91-5.11,11.77-7.79,5.73-4,10.48-9.66,10.94-16.8.08-1.31-2-1.61-2.46-.51-3.57,7.76-8.85,12.44-15.33,17.25,1.52-3.22,2.8-6.57,4.55-9.68,2.47-4.41,6.6-7.67,9-12a.52.52,0,0,0-.49-.75c-4.37.25-7.44,5.39-9.6,8.66-3,4.63-6.44,10.62-7,16.24a.27.27,0,0,0,0,.09c-1.69,1.2-3.46,2.45-5.15,3.82.77-2.08,1.55-4.15,2.37-6.23,2.89-7.35,6.14-14.56,9.42-21.75.27-.6.56-1.21.85-1.82A23,23,0,0,0,566,97.12c3-2.16,6.66-5.5,6.58-9.49a.56.56,0,0,0-.87-.43c-2.77,2.08-4.69,5.12-7.43,7.31a25,25,0,0,1-5.82,3.36,73.09,73.09,0,0,0,5.19-12.29c-.94-.14-1.88-.28-2.82-.4-8.57,10.35-13.64,25.52-18.57,37.68-.79,2-1.57,3.93-2.33,5.92-.2-3.29-.6-6.58-1-9.83,4-10.49,9.15-23.64,8.94-35-.82,0-1.64,0-2.46-.06-.87,3-1.56,6.07-2.27,9.14a40.77,40.77,0,0,1-.41-4.15,40.3,40.3,0,0,1,.21-5c-1.18,0-2.37,0-3.55.06a20.78,20.78,0,0,0,2.76,13.16c-.21.82-.43,1.64-.67,2.45-1.14,3.86-2.45,7.71-3.44,11.62a190.53,190.53,0,0,1-1.17-26.22c-1.42.09-1.43-2.17-3.69-.55-1.67,8.07-.93,16.63,0,24.76-.49-1-1.06-2-1.63-3l-.1-.17c-1-1.64-1.94-3.2-2.77-4.63a69,69,0,0,1-6.79-14.8c-.84.23-1.68.48-2.51.75A46.61,46.61,0,0,0,523.75,98c.3.57.62,1.13.94,1.69-1.05-.71-2.09-1.4-3.06-2.12A51.64,51.64,0,0,1,513,89.69q-2.15,1-4.23,2.08a22.6,22.6,0,0,0,6.18,6c2.66,1.79,5.83,2.75,8.59,4.37a30.37,30.37,0,0,1,4.57,3.5c.36.63.73,1.26,1.08,1.89,1.71,3.12,2.65,6.7,4.77,9.54a.63.63,0,0,0,.21.19l2.34,21.33a192.79,192.79,0,0,0-7.84,31.06,1.61,1.61,0,0,0,3.15.65q.66-2.4,1.34-4.78a14,14,0,0,1,4.46-2c1.82-.48,4.06-.65,5.45-2a1,1,0,0,0-.3-1.63c-1.74-.65-3.79-.16-5.6.3a69.35,69.35,0,0,1,10.39-7.12,24.23,24.23,0,0,0,9.27.54C559.22,153.3,564.69,151.92,564.47,148.52Z" transform="translate(-201.55 -14.61)"/><path class="cls-4" d="M526,147.71c2-3.42,4.43-6.52,5.82-10.24.26-.72-.49-1.71-1.25-1.12-3.45,2.68-7.76,7.07-10.06,11.86-.17-1.89-.42-3.77-.77-5.62a80.78,80.78,0,0,0,4-13.8.87.87,0,0,0,.36,0c2.32-.62,3.52-3.12,4.66-5.07a16.61,16.61,0,0,0,2.45-7.94,1.07,1.07,0,0,0-2-.42c-1.06,2.33-2,4.68-3.29,6.91-.46.82-1,1.58-1.53,2.36,1-8.67-.16-17.2-6.57-21.71a1.54,1.54,0,0,0-2.47,1.63c2.38,7.14,4.87,12.67,4.78,20.45-.05,4.19-1,8.3-1.71,12.43a32.87,32.87,0,0,0-3.91-8.36,38.32,38.32,0,0,0-5.4-6.35c2.84-9,.08-20.36-6.82-27-1,.68-1.93,1.38-2.86,2.1a56.07,56.07,0,0,1,3.07,5.61c-.28-.18-.55-.35-.79-.52a25,25,0,0,1-4.08-3.64c-.66.55-1.3,1.11-1.94,1.68a18.27,18.27,0,0,0,2.94,3.09c1.16,1,2.42,1.86,3.67,2.74.7.49,1.39,1.09,2.14,1.51a37.25,37.25,0,0,1,2,11.93c-5.33-4.65-11.16-8.81-15.15-14.88-.91,1-1.79,2-2.63,3.08,2.89,7.32,10,12.09,15.89,17.21a34.68,34.68,0,0,1,11,18.38,40.85,40.85,0,0,0-11.84-6.21,135.89,135.89,0,0,1-8.93-11.54c-2.54-3.67-5.52-7.65-10.08-8.75-1-.22-1.34,1-.79,1.57a134.18,134.18,0,0,1,10.57,13.52c.57.84,1.18,1.66,1.82,2.46a36.72,36.72,0,0,1-16.12-12.16,45.26,45.26,0,0,0-1.55,4.65c3.88,8.36,16,12,26.19,15.46a66.45,66.45,0,0,0-9.33.63c-1.46.15-2.86.27-4.24.34-3.33-3.74-7.76-8.19-12.83-8.84a1.17,1.17,0,0,0-1,2c2,1.73,4.22,3.07,6.13,4.9.62.59,1.21,1.22,1.79,1.85a26.12,26.12,0,0,1-8.28-2.14c0,.4.06.8.09,1.2.07.69.14,1.38.22,2.07,0,.28.07.57.11.85,3.62,2.35,8.27,3.19,13.12,3.2-3.68,3.11-10.11,8.12-15.27,6.17-1.13-.43-2.4,1-1.29,1.88,3.52,2.76,7.74,2.19,11.62.45,3.42-1.54,9.1-4.6,10.23-8.53,0-.1,0-.17.06-.26a89.49,89.49,0,0,0,15-3.12.74.74,0,0,0,.37-.26,31.57,31.57,0,0,1,5.11,2.58,75.91,75.91,0,0,1,.94,10.76,18.93,18.93,0,0,0-6.14-4.62,11.17,11.17,0,0,0-3.11-1.36l-.64-.17a23.58,23.58,0,0,0-4.21-1,1.58,1.58,0,0,0-.38,0l-3.64-.57a1.21,1.21,0,0,0-1,2.07c1.8,1.7,4.21,2.22,6.56,2.72.31.07.63.16.95.26.73.37,1.45.75,2.17,1.15-.73.12-1.46.28-2.18.42a57.27,57.27,0,0,1-9.85,1,1.16,1.16,0,0,0-.45,2.17c2.66,1.36,5.69,1.19,8.58.78,2.52-.35,5.87-.4,8.35-1.41A29.48,29.48,0,0,1,516.9,166c0,1.39.06,2.74.17,4,.22,2.39,3.95,2.16,3.72-.24-.3-3.18.57-7.16.39-10.74a.73.73,0,0,0,.3-.38C523,155,524,151.21,526,147.71Z" transform="translate(-201.55 -14.61)"/><path class="cls-4" d="M1768.73,114.63a5.8,5.8,0,0,0-3.82-3.68c-1.62-.82-3.91-.69-6.26.63l-.33.19c-2.73,1.68-1.55,4.07-1.36,6.77s-1.18,3.7-2.74,4.88c0-.34,0-.67-.07-1q-.5-9.16-1-18.34-.42-7.56-.32-15.16c0-3.53,1.71-10-.72-13a6.08,6.08,0,0,0-2.15-1.61c-2.3-1.54-6.7-1.37-9.06-1a13.67,13.67,0,0,0-8.74,4.47,7.23,7.23,0,0,0-1.32,2.57c-1.49,5.07,1.17,8.89,2.32,13.55a138.59,138.59,0,0,1,2.9,18.58c1.18,11.28,3.48,22.35,3.71,33.76a4.07,4.07,0,0,1-.4,2.27,1.44,1.44,0,0,1-2,.51,2.1,2.1,0,0,1-.54-1.24,429.68,429.68,0,0,1-6.57-50.54c-.28-4.07-.68-7.36-5.17-7.38-3.48,0-7.3.76-9.83,3.37-1.82,1.89-.38,3.53.24,5.52,4.53,14.49,6.75,29.9,9.61,44.81a18.78,18.78,0,0,1,.46,6.79c0,.27-.14.57-.39.67s-.69-.28-.85-.63c-1.84-3.81-2.54-8.06-3.94-12.06-2-5.63-5.33-9.23-11-11-3-.91-6-1.19-7.57,2.19a9.45,9.45,0,0,0-.92,6.28c.32,1.9,1.21,3.89,3,4.64a12.06,12.06,0,0,0,3.9.44c9.64.7,8.69,12.33,9.58,19.3.93,7.26,2,16.84,8.55,21.43,3.27,2.28,7.59,2.43,11.52,1.76,9.81-1.66,19.81-8.61,23.8-17.9,4.43-10.32-4.43-20.69-.57-31a29,29,0,0,1,3.89-6.22C1767.4,124.14,1770.71,120.22,1768.73,114.63Z" transform="translate(-201.55 -14.61)"/><path class="cls-4" d="M1768,124.43a4.12,4.12,0,0,1,2.43-2.88,4.76,4.76,0,0,1,4.46,0l.25.11c2.05,1,1.4,2.75,1.46,4.68s1.12,2.52,2.3,3.23c0-.24,0-.47,0-.71q-.33-6.51-.65-13c-.18-3.59-.49-7.17-.91-10.73-.29-2.49-2-7-.47-9.26a4.31,4.31,0,0,1,1.41-1.3c1.51-1.26,4.62-1.47,6.31-1.41a9.72,9.72,0,0,1,6.51,2.5,5.11,5.11,0,0,1,1.12,1.72c1.43,3.46-.17,6.36-.63,9.73a97.47,97.47,0,0,0-.65,13.34c0,8.05-.79,16-.11,24.11a2.92,2.92,0,0,0,.46,1.57,1,1,0,0,0,1.45.21,1.4,1.4,0,0,0,.29-.91,303.22,303.22,0,0,0,.86-36.17c-.1-2.9-.06-5.25,3.1-5.6,2.46-.27,5.22,0,7.2,1.65,1.42,1.19.53,2.46.24,3.91-2.12,10.57-2.53,21.61-3.43,32.35a13.26,13.26,0,0,0,.18,4.83c.05.19.14.4.32.44s.46-.24.56-.5c1-2.83,1.18-5.88,1.87-8.81,1-4.13,3.08-6.92,7-8.57,2.05-.86,4.12-1.28,5.52,1a6.72,6.72,0,0,1,1.11,4.36,4.15,4.15,0,0,1-1.75,3.5,8.6,8.6,0,0,1-2.73.6c-6.75,1.22-5.21,9.35-5.32,14.34-.11,5.2-.15,12-4.43,15.77-2.14,1.85-5.18,2.28-8,2.1-7-.44-14.63-4.59-18.14-10.86-3.9-6.95,1.58-14.94-1.92-21.92a21,21,0,0,0-3.2-4.11C1769.6,131.05,1767,128.53,1768,124.43Z" transform="translate(-201.55 -14.61)"/><path class="cls-4" d="M1580.2,167.83c-.34-.41,0-.62.21-1,.54-.84.14-1.42-.35-2.15-.33-.49.24-.83.48-1.22a1.12,1.12,0,0,0-.13-1.19c-.45-.56-1.06-.77-.87-1.62a2.3,2.3,0,0,0,0-1.49c-.48-1.08-2.65-1.39-3.27-.35a.84.84,0,0,0-.23.18c-.93.64-1.76,1.5-2.69,2.1a5.66,5.66,0,0,1-4.4.93,5,5,0,0,1-1-.32,1.16,1.16,0,0,0,0-1.34,5.1,5.1,0,0,1-.28-.43,2.28,2.28,0,0,0,.21-1.22,1.33,1.33,0,0,0-.8-.93c-.25-.14-.52-.21-.56-.54a3.9,3.9,0,0,1,.06-.76,1.14,1.14,0,0,0-.69-1.18c-.58-.29-1.48.22-1.67-.55a2.06,2.06,0,0,0-.87-1.42,2.16,2.16,0,0,0-2.24.16,19.91,19.91,0,0,0-3.39,2c-.68-.32-1.47-.66-2.35-1a2.55,2.55,0,0,0,.78-2.31,4.68,4.68,0,0,1-.63-1.29,3.71,3.71,0,0,0-.07-.74c-.17-.58-1-.71-1.51-.75s-1-1-1.56-1.18a1.65,1.65,0,0,0-1.05.07c-.17.06-.33.15-.5.23-.5.26-.54,0-.76-.29a1.57,1.57,0,0,0-1.78-.26,5.4,5.4,0,0,0-2,1.34c-.52.38-1,.81-1.47,1.22a18.84,18.84,0,0,1-3.72,3l0,0a22.55,22.55,0,0,0-9,5.11c-2.88,2.72-5.28,6.39-4,10.47a7.78,7.78,0,0,0,3,3.87,28.56,28.56,0,0,0,5.89,3.28,23.59,23.59,0,0,0,6.94,1.54l.38,0c.63.54,1.34,1,2,1.52a22.35,22.35,0,0,0,2.08,1.67,3.56,3.56,0,0,0,1.9.63,1.53,1.53,0,0,0,.75-.23,1.44,1.44,0,0,0,.33-.28c.2-.19.41,0,.62.08a.87.87,0,0,0,1.21-.29c.14-.19,0-.78.3-.85a.77.77,0,0,0,.55-.34,1.36,1.36,0,0,0-.46-1.66,4.19,4.19,0,0,0-.62-.54c1.35-.18,2.4-.37,2.9-.48l.1,0a33,33,0,0,1,3.41,2.08c.84.55,1.77,1.53,2.84,1.06a2,2,0,0,0,.46-.4c.18-.19.51.16.65.26a1.12,1.12,0,0,0,1.17,0c.44-.26.48-.94,1-1s.89.16,1.3-.08a1.51,1.51,0,0,0,.68-1c.1-.34.11-.27.51-.2a1.79,1.79,0,0,0,.65,0,1,1,0,0,0,.83-.79c0-.18-.1-.55.2-.55a1.16,1.16,0,0,0,.49-.09,1,1,0,0,0,.49-1,2.53,2.53,0,0,1-.06-.87,2.57,2.57,0,0,0,0-.83,2.77,2.77,0,0,0-1.08-1.92,5.54,5.54,0,0,1,.81-.07c.5,0,1,.12,1.51.14a10.84,10.84,0,0,1,1.14.41,8.43,8.43,0,0,1,1.71,1.27,3.67,3.67,0,0,0,1.73.88,1.44,1.44,0,0,0,1.64-.61,1.21,1.21,0,0,0,.81-.33c.46-.36.36-1,.3-1.47s.77-.81.91-1.27-.31-1.24.15-1.63a.86.86,0,0,0,.26-.91A1.1,1.1,0,0,0,1580.2,167.83Zm-11.33,4.37a1.22,1.22,0,0,0-.27-.09l.18-.05Z" transform="translate(-201.55 -14.61)"/><g class="cls-3"><path class="cls-4" d="M1446.48,66.73c1.26,4.44-2.84,9.13-.21,15.59,12.73-11.45,16.53-18.1,29-20-1.68,1.89-2.5,3.63-1.39,4.93,2.19,2.55,4.32,4.06,8.85,7,1.28.84,4.38,3.27,6,2.17,1-.72,1.21-3.32,1.56-4.43s2.44-10.22,3.37-10.36c4.88-.2,9.72-.64,14.57-1.32-.11.17-3,5-4,7.43-2,4.51,6.37,3.72,10.19,4a43.55,43.55,0,0,0,5,0c1.52-.07,2.18-6.5,2.38-7.76.07-.42.71-6.33.63-6.32,3.16-.73,6.35-1.56,9.6-2.5,4.36-1.25,8.72-2.62,13-4.26,8.24-3.19,16.58-7,23.17-13a29.43,29.43,0,0,0,6.37-8.1,20.15,20.15,0,0,0,1.62-4.32c.81-2.71-1.66-3.67-4.57-4.6-1.73-.55-4.17-.91-6-1.28-12.06-2.47-23.89-2-35.89.25-2,.38-4,.8-5.93,1.27a4.4,4.4,0,0,0-.52-.39l.41.41c-4-3.44-14.37-7.29-18.59-6.44a8.52,8.52,0,0,0-4.53,3c-1,1.13-7.36,7.59-5.74,9,.52.45,2,.4,2.66.48,1.74.22,3.49.39,5.23.54.39,0,.78.06,1.16.08a97.69,97.69,0,0,0-19.08,11.34c-6,4.57-12.47,10.82-20,13.33-7.94,2.64-13.42,1.13-21.73.33-2.22-.22-4.92-.5-7.45.46C1437.46,60.72,1444.66,60.33,1446.48,66.73Z" transform="translate(-201.55 -14.61)"/><path class="cls-4" d="M1559,25.23a2.72,2.72,0,1,1,3.44,1.73A2.72,2.72,0,0,1,1559,25.23Z" transform="translate(-201.55 -14.61)"/></g><g class="cls-3"><path class="cls-4" d="M1413.78,151.34a12.91,12.91,0,0,0-5.47-2.13c-6.42-1.39-10.89-1.57-16.21-5.46-5-3.68-8.37-9.91-11.77-14.77a76.51,76.51,0,0,0-11.58-13.07l.89.22c1.34.3,2.69.6,4,.85.49.09,1.62.48,2.11.27,1.55-.67-1.67-7-2.14-8.12a6.73,6.73,0,0,0-2.67-3.36c-3-1.65-11.66-1.25-15.47.37l.41-.21a3.58,3.58,0,0,0-.49.17q-2-1.23-4.13-2.37a72.09,72.09,0,0,0-26.83-8.79c-1.42-.15-3.34-.47-4.77-.47-2.4,0-4.48.12-4.52,2.35a16.26,16.26,0,0,0,.17,3.62,23.5,23.5,0,0,0,2.83,7.6c3.5,6.08,8.83,11,14.24,15.32,2.78,2.24,5.72,4.31,8.68,6.3,2.21,1.48,4.4,2.87,6.59,4.17,0,0-1,4.56-1,4.89-.15,1-1.2,6-.08,6.39a33.85,33.85,0,0,0,3.74,1.18c2.93.72,9,3.3,8.59-.54-.21-2-1.2-6.38-1.24-6.53,3.47,1.67,7,3.16,10.59,4.48.67.32.06,7.67,0,8.57s-.51,2.9.1,3.69c1,1.22,3.87.14,5-.19,4.1-1.14,6.06-1.76,8.32-3.15,1.14-.7.94-2.2.13-4,8.89,4.38,10.14,10.28,16.93,21.91,3.52-4.21,1.58-8.71,3.59-11.74C1405.29,154.41,1410.59,156.42,1413.78,151.34Z" transform="translate(-201.55 -14.61)"/><path class="cls-4" d="M1328,100.71a2.14,2.14,0,1,0-3,.47A2.14,2.14,0,0,0,1328,100.71Z" transform="translate(-201.55 -14.61)"/></g><g class="cls-3"><path class="cls-4" d="M762.65,131.88a16.65,16.65,0,0,1-4.08,7.17c-1.89,1.83-4.55,2.9-5.79,5.36.9-2.6,3.37-4,5-6.08a14.86,14.86,0,0,0,2.78-6.94Z" transform="translate(-201.55 -14.61)"/><path class="cls-4" d="M767,133.51c-2.07,3.54-3,7.6-5.55,10.89-1.73,2.17-6.89,7.12-5.93,10.25-1.24-3.09,3.5-8.51,5.06-10.86,2.2-3.47,2.79-7.58,4.52-11.26Z" transform="translate(-201.55 -14.61)"/><path class="cls-4" d="M770.18,136.91c-2.26,9.48-11.13,15.57-13.36,25.05,1.49-9.47,9.77-16.07,11.26-25.49Z" transform="translate(-201.55 -14.61)"/><path class="cls-4" d="M778.14,142.24c-2.33,3.12-3,7.13-5.28,10.27s-4.64,6.22-6.78,9.47c1.83-3.44,3.89-6.71,5.88-10.06s2.34-7.47,4.39-10.85Z" transform="translate(-201.55 -14.61)"/><path class="cls-4" d="M774.71,138.73c-1.28,2.23-.94,4.92-2.38,7.16-3.42,5-7.93,9.3-11.49,14.26,3-5,7.15-9.44,9.93-14.55,1.42-2.51.8-5.25,2-7.82Z" transform="translate(-201.55 -14.61)"/><path class="cls-4" d="M782.39,143.42c-3.42,4.37-4.07,10.8-8.76,14.36,4.24-4.15,4.11-10.71,7-15.54Z" transform="translate(-201.55 -14.61)"/><path class="cls-4" d="M758.77,126.86a3.27,3.27,0,0,0,.84,4.75L783,144.75a3.25,3.25,0,0,0,4.49-1.74c4.27-9.73,3.35-19.49-5.21-24.31C773.46,113.75,764.82,118.14,758.77,126.86Z" transform="translate(-201.55 -14.61)"/></g></g></g></g></svg>