<svg xmlns="http://www.w3.org/2000/svg" viewBox="0 0 1921.8 414.61"><defs><style>.cls-1{opacity:0.85;}.cls-2{fill:#d1e7ff;}.cls-3{fill:#b1d0e3;opacity:0.44;}</style></defs><title>about-cloud</title><g id="圖層_2" data-name="圖層 2"><g id="關於"><g class="cls-1"><path class="cls-2" d="M.57,411.61,436.14,411c5.25-35.7-18.72-71.24-51.34-87.42-45.41-22.53-92.89,6.11-92.89,6.11-69.15-116.39-174.4-43.93-174.4-43.93s0-47.9-51.09-55.88C66.42,229.9,124.53,115,1.6,0L0,411"/><path class="cls-3" d="M415,411.61a80.51,80.51,0,0,0-43.86-58.9c-45.42-22.53-89.26,6.11-89.26,6.11-69.15-116.39-165.3-43.93-165.3-43.93s-23-68.84-90.21-65c0,0,67.32-93-25.59-199.37L.57,411.61Z"/></g><g class="cls-1"><path class="cls-2" d="M1919.91,413.32l1.89-363s-103.68,66-79.17,220.55c0,0-43.36,3.77-49,50.89,0,0-66-20.73-90.48,49,0,0-49-84.82-145.15-52.78,0,0-77.34,37.81-72.83,95.38l435.68,1.29"/><path class="cls-3" d="M1920.84,414.61l.27-322.08c-26.71,27.89-64.81,87.52-48.32,191.48,0,0-50.9,13.2-56.55,60.32,0,0-88.59-11.31-113.1,58.43C1678,353.94,1612.23,317.09,1561,348.4c-23.59,14.4-43.11,39.85-53,66.21Z"/></g></g></g></svg>