<svg xmlns="http://www.w3.org/2000/svg" viewBox="0 0 1918.69 256.25"><defs><style>.cls-1{isolation:isolate;}.cls-2{fill:#a4aaab;}.cls-16,.cls-3,.cls-9{fill:none;}.cls-10,.cls-11,.cls-12,.cls-18,.cls-19,.cls-21,.cls-23,.cls-24,.cls-25,.cls-29,.cls-3,.cls-4,.cls-5,.cls-6{stroke:#4d3224;}.cls-10,.cls-11,.cls-12,.cls-16,.cls-18,.cls-19,.cls-21,.cls-23,.cls-24,.cls-25,.cls-29,.cls-3,.cls-4,.cls-5,.cls-6,.cls-9{stroke-linecap:round;stroke-linejoin:round;stroke-width:1.5px;}.cls-4{fill:#77c4ce;}.cls-5,.cls-8{fill:#80d8d6;}.cls-6{fill:#5aabb9;}.cls-7{opacity:0.23;mix-blend-mode:color-dodge;}.cls-9{stroke:#80d8d6;}.cls-10{fill:#e6ffff;}.cls-11{fill:#9fc2c4;}.cls-12{fill:#c9e2ff;}.cls-13{fill:#4d3224;}.cls-14{opacity:0.4;}.cls-15{fill:#d0ebea;}.cls-16{stroke:#426e75;}.cls-17{fill:#4e98a0;}.cls-18{fill:#7bb52d;}.cls-19{fill:#ff9563;}.cls-20{fill:#de744c;}.cls-21{fill:#f1d4c2;}.cls-22{fill:#e0bfa9;}.cls-23{fill:#9a8e80;}.cls-24{fill:#426e75;}.cls-25{fill:#f27e52;}.cls-26{fill:#ffb563;}.cls-27{fill:#72a72a;}.cls-28{fill:#8acc2b;}.cls-29{fill:#82b823;}.cls-30{fill:#7c9e2a;}</style></defs><title>資產 207</title><g class="cls-1"><g id="圖層_2" data-name="圖層 2"><g id="關於"><rect class="cls-2" x="0.75" y="236.51" width="1917.19" height="19.74"/><line class="cls-3" x1="0.75" y1="236.51" x2="1917.94" y2="236.51"/><polygon class="cls-4" points="406.25 243.26 367.55 243.26 367.55 7.22 406.25 31.71 406.25 243.26"/><rect class="cls-5" x="370.58" y="45.08" width="32.86" height="1.49"/><polygon class="cls-5" points="406.47 43.07 367.55 43.07 367.55 48.59 406.47 48.59 406.47 43.07 406.47 43.07"/><rect class="cls-5" x="370.58" y="58.77" width="32.86" height="1.49"/><polygon class="cls-5" points="406.47 56.76 367.55 56.76 367.55 62.27 406.47 62.27 406.47 56.76 406.47 56.76"/><rect class="cls-5" x="370.58" y="72.46" width="32.86" height="1.49"/><polygon class="cls-5" points="406.47 70.45 367.55 70.45 367.55 75.96 406.47 75.96 406.47 70.45 406.47 70.45"/><rect class="cls-5" x="370.58" y="86.15" width="32.86" height="1.49"/><polygon class="cls-5" points="406.47 84.14 367.55 84.14 367.55 89.65 406.47 89.65 406.47 84.14 406.47 84.14"/><rect class="cls-5" x="370.58" y="99.84" width="32.86" height="1.49"/><polygon class="cls-5" points="406.47 97.83 367.55 97.83 367.55 103.34 406.47 103.34 406.47 97.83 406.47 97.83"/><rect class="cls-5" x="370.58" y="113.52" width="32.86" height="1.49"/><polygon class="cls-5" points="406.47 111.51 367.55 111.51 367.55 117.02 406.47 117.02 406.47 111.51 406.47 111.51"/><rect class="cls-5" x="370.58" y="126.3" width="32.86" height="1.49"/><polygon class="cls-5" points="406.47 124.28 367.55 124.28 367.55 129.79 406.47 129.79 406.47 124.28 406.47 124.28"/><rect class="cls-5" x="370.58" y="139.98" width="32.86" height="1.49"/><polygon class="cls-5" points="406.47 137.97 367.55 137.97 367.55 143.48 406.47 143.48 406.47 137.97 406.47 137.97"/><rect class="cls-5" x="370.58" y="153.67" width="32.86" height="1.49"/><polygon class="cls-5" points="406.47 151.66 367.55 151.66 367.55 157.17 406.47 157.17 406.47 151.66 406.47 151.66"/><rect class="cls-5" x="370.58" y="167.36" width="32.86" height="1.49"/><polygon class="cls-5" points="406.47 165.35 367.55 165.35 367.55 170.86 406.47 170.86 406.47 165.35 406.47 165.35"/><rect class="cls-5" x="370.58" y="181.05" width="32.86" height="1.49"/><polygon class="cls-5" points="406.47 179.03 367.55 179.03 367.55 184.55 406.47 184.55 406.47 179.03 406.47 179.03"/><rect class="cls-5" x="370.58" y="194.73" width="32.86" height="1.49"/><polygon class="cls-5" points="406.47 192.72 367.55 192.72 367.55 198.23 406.47 198.23 406.47 192.72 406.47 192.72"/><polygon class="cls-6" points="367.55 7.22 381.23 0.75 416.74 24.47 406.25 31.71 367.55 7.22"/><polygon class="cls-6" points="416.74 24.47 416.74 60.26 406.25 66.71 406.25 31.71 416.74 24.47"/><line class="cls-3" x1="411.49" y1="35.76" x2="411.49" y2="62.99"/><g class="cls-7"><polygon class="cls-8" points="367.64 95.93 367.64 80.09 406.17 120.65 406.17 136.5 367.64 95.93"/><polygon class="cls-8" points="406.17 86.73 406.17 113.64 367.64 73.08 367.64 45.42 406.17 86.73"/></g><polygon class="cls-4" points="395.15 243.26 430.71 243.26 430.71 52.58 395.15 73.81 395.15 243.26"/><polygon class="cls-6" points="420.5 58.67 420.5 243.26 430.71 243.26 430.71 52.17 420.5 58.67"/><line class="cls-9" x1="398.94" y1="73.74" x2="398.94" y2="241.65"/><line class="cls-9" x1="403.05" y1="71.09" x2="403.05" y2="241.65"/><line class="cls-9" x1="407.32" y1="68.35" x2="407.32" y2="241.65"/><line class="cls-9" x1="412.03" y1="66.07" x2="412.03" y2="241.65"/><line class="cls-9" x1="416.74" y1="62.99" x2="416.74" y2="241.78"/><line class="cls-9" x1="396.43" y1="77.91" x2="418.88" y2="77.91"/><line class="cls-9" x1="396.74" y1="82.4" x2="419.19" y2="82.4"/><line class="cls-9" x1="396.74" y1="87.53" x2="419.19" y2="87.53"/><line class="cls-9" x1="396.74" y1="92.67" x2="419.19" y2="92.67"/><line class="cls-9" x1="396.74" y1="97.8" x2="419.19" y2="97.8"/><line class="cls-9" x1="396.74" y1="102.93" x2="419.19" y2="102.93"/><line class="cls-9" x1="396.74" y1="108.07" x2="419.19" y2="108.07"/><line class="cls-9" x1="396.74" y1="113.2" x2="419.19" y2="113.2"/><line class="cls-9" x1="396.74" y1="118.34" x2="419.19" y2="118.34"/><line class="cls-9" x1="396.74" y1="123.47" x2="419.19" y2="123.47"/><line class="cls-9" x1="396.74" y1="128.6" x2="419.19" y2="128.6"/><line class="cls-9" x1="396.74" y1="133.74" x2="419.19" y2="133.74"/><line class="cls-9" x1="396.74" y1="138.87" x2="419.19" y2="138.87"/><line class="cls-9" x1="396.74" y1="144.01" x2="419.19" y2="144.01"/><line class="cls-9" x1="396.74" y1="149.14" x2="419.19" y2="149.14"/><line class="cls-9" x1="396.74" y1="154.27" x2="419.19" y2="154.27"/><line class="cls-9" x1="396.74" y1="159.41" x2="419.19" y2="159.41"/><line class="cls-9" x1="396.74" y1="164.54" x2="419.19" y2="164.54"/><line class="cls-9" x1="396.74" y1="169.68" x2="419.19" y2="169.68"/><line class="cls-9" x1="396.74" y1="174.81" x2="419.19" y2="174.81"/><line class="cls-9" x1="396.74" y1="179.94" x2="419.19" y2="179.94"/><line class="cls-9" x1="396.74" y1="185.08" x2="419.19" y2="185.08"/><line class="cls-9" x1="396.74" y1="190.21" x2="419.19" y2="190.21"/><line class="cls-9" x1="396.74" y1="195.35" x2="419.19" y2="195.35"/><line class="cls-9" x1="396.74" y1="200.48" x2="419.19" y2="200.48"/><line class="cls-9" x1="396.74" y1="205.61" x2="419.19" y2="205.61"/><line class="cls-9" x1="396.74" y1="210.75" x2="419.19" y2="210.75"/><line class="cls-9" x1="396.74" y1="215.88" x2="419.19" y2="215.88"/><line class="cls-9" x1="396.74" y1="221.02" x2="419.19" y2="221.02"/><line class="cls-9" x1="396.74" y1="226.15" x2="419.19" y2="226.15"/><line class="cls-9" x1="396.74" y1="231.28" x2="419.19" y2="231.28"/><g class="cls-7"><polygon class="cls-8" points="420.51 142.02 420.51 131.71 395.43 158.12 395.43 168.43 420.51 142.02"/><polygon class="cls-8" points="395.43 136.03 395.43 153.55 420.51 127.14 420.51 109.13 395.43 136.03"/></g><rect class="cls-10" x="308.12" y="80.24" width="20.66" height="17.03"/><rect class="cls-11" x="307.42" y="78.53" width="22.06" height="1.71"/><rect class="cls-12" x="299.03" y="90.53" width="38.84" height="17.03"/><rect class="cls-11" x="297.86" y="88.4" width="41.18" height="2.13"/><rect class="cls-10" x="284.21" y="103.55" width="68.48" height="139.72"/><rect class="cls-11" x="282.99" y="100.87" width="70.93" height="2.68"/><path class="cls-5" d="M305,92a3.05,3.05,0,0,0-3,3.09v5.78h6V95.09A3.05,3.05,0,0,0,305,92Z"/><path class="cls-5" d="M314,92a3.05,3.05,0,0,0-3,3.09v5.78h6V95.09A3.05,3.05,0,0,0,314,92Z"/><path class="cls-5" d="M322.92,92a3.05,3.05,0,0,0-3,3.09v5.78h6V95.09A3.05,3.05,0,0,0,322.92,92Z"/><path class="cls-5" d="M331.87,92a3,3,0,0,0-3,3.09v5.78h6V95.09A3,3,0,0,0,331.87,92Z"/><rect class="cls-13" x="309.95" y="79.83" width="1.02" height="8.92"/><rect class="cls-13" x="315.19" y="79.83" width="1.02" height="8.92"/><rect class="cls-13" x="320.43" y="79.83" width="1.02" height="8.92"/><rect class="cls-13" x="325.68" y="79.83" width="1.02" height="8.92"/><rect class="cls-5" x="302.57" y="219.69" width="31.29" height="23.58"/><g class="cls-14"><polygon class="cls-15" points="327.45 220.97 327.45 220.44 325.19 220.44 304.34 242.51 307.11 242.51 327.45 220.97"/><polygon class="cls-15" points="303.15 234.29 303.15 240.63 322.22 220.44 316.23 220.44 303.15 234.29"/></g><line class="cls-16" x1="318.45" y1="220.45" x2="318.45" y2="242.64"/><polygon class="cls-17" points="290.89 122.91 291.98 122.91 291.98 122.95 299.28 122.95 299.28 122.91 299.28 109.94 299.28 109.22 290.89 109.22 290.89 122.91"/><polygon class="cls-17" points="302.57 122.84 303.67 122.84 303.67 122.88 310.97 122.88 310.97 122.84 310.97 109.87 310.97 109.15 302.57 109.15 302.57 122.84"/><polygon class="cls-17" points="325.93 122.84 327.02 122.84 327.02 122.88 334.33 122.88 334.33 122.84 334.33 109.87 334.33 109.15 325.93 109.15 325.93 122.84"/><polygon class="cls-17" points="337.62 109.22 337.62 122.91 338.71 122.91 338.71 122.95 346.01 122.95 346.01 122.91 346.01 109.94 346.01 109.22 337.62 109.22"/><polygon class="cls-17" points="315.35 122.95 322.65 122.95 322.65 122.91 322.65 109.94 322.65 109.22 314.25 109.22 314.25 122.91 315.35 122.91 315.35 122.95"/><polygon class="cls-17" points="290.89 141.77 291.98 141.77 291.98 141.81 299.28 141.81 299.28 141.77 299.28 128.79 299.28 128.08 290.89 128.08 290.89 141.77"/><polygon class="cls-17" points="302.57 141.7 303.67 141.7 303.67 141.74 310.97 141.74 310.97 141.7 310.97 128.73 310.97 128.01 302.57 128.01 302.57 141.7"/><polygon class="cls-17" points="325.93 141.7 327.02 141.7 327.02 141.74 334.33 141.74 334.33 141.7 334.33 128.73 334.33 128.01 325.93 128.01 325.93 141.7"/><polygon class="cls-17" points="337.62 128.08 337.62 141.77 338.71 141.77 338.71 141.81 346.01 141.81 346.01 141.77 346.01 128.79 346.01 128.08 337.62 128.08"/><polygon class="cls-17" points="315.35 141.81 322.65 141.81 322.65 141.77 322.65 128.79 322.65 128.08 314.25 128.08 314.25 141.77 315.35 141.77 315.35 141.81"/><polygon class="cls-17" points="290.89 160.63 291.98 160.63 291.98 160.67 299.28 160.67 299.28 160.63 299.28 147.65 299.28 146.94 290.89 146.94 290.89 160.63"/><polygon class="cls-17" points="302.57 160.56 303.67 160.56 303.67 160.6 310.97 160.6 310.97 160.56 310.97 147.59 310.97 146.87 302.57 146.87 302.57 160.56"/><polygon class="cls-17" points="325.93 160.56 327.02 160.56 327.02 160.6 334.33 160.6 334.33 160.56 334.33 147.59 334.33 146.87 325.93 146.87 325.93 160.56"/><polygon class="cls-17" points="337.62 146.94 337.62 160.63 338.71 160.63 338.71 160.67 346.01 160.67 346.01 160.63 346.01 147.65 346.01 146.94 337.62 146.94"/><polygon class="cls-17" points="315.35 160.67 322.65 160.67 322.65 160.63 322.65 147.65 322.65 146.94 314.25 146.94 314.25 160.63 315.35 160.63 315.35 160.67"/><polygon class="cls-17" points="290.89 179.49 291.98 179.49 291.98 179.53 299.28 179.53 299.28 179.49 299.28 166.51 299.28 165.8 290.89 165.8 290.89 179.49"/><polygon class="cls-17" points="302.57 179.42 303.67 179.42 303.67 179.46 310.97 179.46 310.97 179.42 310.97 166.45 310.97 165.73 302.57 165.73 302.57 179.42"/><polygon class="cls-17" points="325.93 179.42 327.02 179.42 327.02 179.46 334.33 179.46 334.33 179.42 334.33 166.45 334.33 165.73 325.93 165.73 325.93 179.42"/><polygon class="cls-17" points="337.62 165.8 337.62 179.49 338.71 179.49 338.71 179.53 346.01 179.53 346.01 179.49 346.01 166.51 346.01 165.8 337.62 165.8"/><polygon class="cls-17" points="315.35 179.53 322.65 179.53 322.65 179.49 322.65 166.51 322.65 165.8 314.25 165.8 314.25 179.49 315.35 179.49 315.35 179.53"/><polygon class="cls-17" points="290.89 198.35 291.98 198.35 291.98 198.39 299.28 198.39 299.28 198.35 299.28 185.37 299.28 184.66 290.89 184.66 290.89 198.35"/><polygon class="cls-17" points="302.57 198.28 303.67 198.28 303.67 198.32 310.97 198.32 310.97 198.28 310.97 185.31 310.97 184.59 302.57 184.59 302.57 198.28"/><polygon class="cls-17" points="325.93 198.28 327.02 198.28 327.02 198.32 334.33 198.32 334.33 198.28 334.33 185.31 334.33 184.59 325.93 184.59 325.93 198.28"/><polygon class="cls-17" points="337.62 184.66 337.62 198.35 338.71 198.35 338.71 198.39 346.01 198.39 346.01 198.35 346.01 185.37 346.01 184.66 337.62 184.66"/><polygon class="cls-17" points="315.35 198.39 322.65 198.39 322.65 198.35 322.65 185.37 322.65 184.66 314.25 184.66 314.25 198.35 315.35 198.35 315.35 198.39"/><polygon class="cls-17" points="290.89 217.21 291.98 217.21 291.98 217.25 299.28 217.25 299.28 217.21 299.28 204.23 299.28 203.52 290.89 203.52 290.89 217.21"/><polygon class="cls-17" points="302.57 217.14 303.67 217.14 303.67 217.18 310.97 217.18 310.97 217.14 310.97 204.17 310.97 203.45 302.57 203.45 302.57 217.14"/><polygon class="cls-17" points="325.93 217.14 327.02 217.14 327.02 217.18 334.33 217.18 334.33 217.14 334.33 204.17 334.33 203.45 325.93 203.45 325.93 217.14"/><polygon class="cls-17" points="337.62 203.52 337.62 217.21 338.71 217.21 338.71 217.25 346.01 217.25 346.01 217.21 346.01 204.23 346.01 203.52 337.62 203.52"/><polygon class="cls-17" points="315.35 217.25 322.65 217.25 322.65 217.21 322.65 204.23 322.65 203.52 314.25 203.52 314.25 217.21 315.35 217.21 315.35 217.25"/><polygon class="cls-5" points="290.89 121.03 291.98 121.03 291.98 121.07 299.28 121.07 299.28 121.03 299.28 108.05 299.28 107.33 290.89 107.33 290.89 121.03"/><polygon class="cls-5" points="302.57 120.96 303.67 120.96 303.67 120.99 310.97 120.99 310.97 120.96 310.97 107.98 310.97 107.26 302.57 107.26 302.57 120.96"/><polygon class="cls-5" points="325.93 120.96 327.02 120.96 327.02 120.99 334.33 120.99 334.33 120.96 334.33 107.98 334.33 107.26 325.93 107.26 325.93 120.96"/><polygon class="cls-5" points="337.62 107.33 337.62 121.03 338.71 121.03 338.71 121.07 346.01 121.07 346.01 121.03 346.01 108.05 346.01 107.33 337.62 107.33"/><polygon class="cls-5" points="315.35 121.07 322.65 121.07 322.65 121.03 322.65 108.05 322.65 107.33 314.25 107.33 314.25 121.03 315.35 121.03 315.35 121.07"/><polygon class="cls-5" points="290.89 139.89 291.98 139.89 291.98 139.93 299.28 139.93 299.28 139.89 299.28 126.91 299.28 126.19 290.89 126.19 290.89 139.89"/><polygon class="cls-5" points="302.57 139.82 303.67 139.82 303.67 139.85 310.97 139.85 310.97 139.82 310.97 126.84 310.97 126.12 302.57 126.12 302.57 139.82"/><polygon class="cls-5" points="325.93 139.82 327.02 139.82 327.02 139.85 334.33 139.85 334.33 139.82 334.33 126.84 334.33 126.12 325.93 126.12 325.93 139.82"/><polygon class="cls-5" points="337.62 126.19 337.62 139.89 338.71 139.89 338.71 139.93 346.01 139.93 346.01 139.89 346.01 126.91 346.01 126.19 337.62 126.19"/><polygon class="cls-5" points="315.35 139.93 322.65 139.93 322.65 139.89 322.65 126.91 322.65 126.19 314.25 126.19 314.25 139.89 315.35 139.89 315.35 139.93"/><polygon class="cls-5" points="290.89 158.75 291.98 158.75 291.98 158.79 299.28 158.79 299.28 158.75 299.28 145.77 299.28 145.05 290.89 145.05 290.89 158.75"/><polygon class="cls-5" points="302.57 158.68 303.67 158.68 303.67 158.71 310.97 158.71 310.97 158.68 310.97 145.7 310.97 144.98 302.57 144.98 302.57 158.68"/><polygon class="cls-5" points="325.93 158.68 327.02 158.68 327.02 158.71 334.33 158.71 334.33 158.68 334.33 145.7 334.33 144.98 325.93 144.98 325.93 158.68"/><polygon class="cls-5" points="337.62 145.05 337.62 158.75 338.71 158.75 338.71 158.79 346.01 158.79 346.01 158.75 346.01 145.77 346.01 145.05 337.62 145.05"/><polygon class="cls-5" points="315.35 158.79 322.65 158.79 322.65 158.75 322.65 145.77 322.65 145.05 314.25 145.05 314.25 158.75 315.35 158.75 315.35 158.79"/><polygon class="cls-5" points="290.89 177.61 291.98 177.61 291.98 177.65 299.28 177.65 299.28 177.61 299.28 164.63 299.28 163.91 290.89 163.91 290.89 177.61"/><polygon class="cls-5" points="302.57 177.54 303.67 177.54 303.67 177.57 310.97 177.57 310.97 177.54 310.97 164.56 310.97 163.84 302.57 163.84 302.57 177.54"/><polygon class="cls-5" points="325.93 177.54 327.02 177.54 327.02 177.57 334.33 177.57 334.33 177.54 334.33 164.56 334.33 163.84 325.93 163.84 325.93 177.54"/><polygon class="cls-5" points="337.62 163.91 337.62 177.61 338.71 177.61 338.71 177.65 346.01 177.65 346.01 177.61 346.01 164.63 346.01 163.91 337.62 163.91"/><polygon class="cls-5" points="315.35 177.65 322.65 177.65 322.65 177.61 322.65 164.63 322.65 163.91 314.25 163.91 314.25 177.61 315.35 177.61 315.35 177.65"/><polygon class="cls-5" points="290.89 196.47 291.98 196.47 291.98 196.5 299.28 196.5 299.28 196.47 299.28 183.49 299.28 182.77 290.89 182.77 290.89 196.47"/><polygon class="cls-5" points="302.57 196.4 303.67 196.4 303.67 196.43 310.97 196.43 310.97 196.4 310.97 183.42 310.97 182.7 302.57 182.7 302.57 196.4"/><polygon class="cls-5" points="325.93 196.4 327.02 196.4 327.02 196.43 334.33 196.43 334.33 196.4 334.33 183.42 334.33 182.7 325.93 182.7 325.93 196.4"/><polygon class="cls-5" points="337.62 182.77 337.62 196.47 338.71 196.47 338.71 196.5 346.01 196.5 346.01 196.47 346.01 183.49 346.01 182.77 337.62 182.77"/><polygon class="cls-5" points="315.35 196.5 322.65 196.5 322.65 196.47 322.65 183.49 322.65 182.77 314.25 182.77 314.25 196.47 315.35 196.47 315.35 196.5"/><polygon class="cls-5" points="290.89 215.32 291.98 215.32 291.98 215.36 299.28 215.36 299.28 215.32 299.28 202.35 299.28 201.63 290.89 201.63 290.89 215.32"/><polygon class="cls-5" points="302.57 215.26 303.67 215.26 303.67 215.29 310.97 215.29 310.97 215.26 310.97 202.28 310.97 201.56 302.57 201.56 302.57 215.26"/><polygon class="cls-5" points="325.93 215.26 327.02 215.26 327.02 215.29 334.33 215.29 334.33 215.26 334.33 202.28 334.33 201.56 325.93 201.56 325.93 215.26"/><polygon class="cls-5" points="337.62 201.63 337.62 215.32 338.71 215.32 338.71 215.36 346.01 215.36 346.01 215.32 346.01 202.35 346.01 201.63 337.62 201.63"/><polygon class="cls-5" points="315.35 215.36 322.65 215.36 322.65 215.32 322.65 202.35 322.65 201.63 314.25 201.63 314.25 215.32 315.35 215.32 315.35 215.36"/><path class="cls-18" d="M1496.08,242.15a2.68,2.68,0,0,1-1.13-3.26c.65-1.5,1.34-.72,2.27-.09-.67-2.76-.64-7.53,1.1-9.74,1.48-1.87,4.42.32,5.41,2.2.77-1.24,1.14-2.8,2.76-2.62,1,.12,1.55,1.27,2.5,1.6-.66-2.76.79-7.75,3.19-8.69,2.92-1.13,4,2.76,4,5.4,1-4.38,3.7-.53,4.74,1.41.65-.71.95-2,2.08-1.62.73.23,1.31,1.55,1.44,2.37.42-3.05,3.68-7.51,6.46-6.52s2.63,4.33,2.67,7.06c.76-1.88,3.44-1.59,4.45-.27s.86,4.22,0,5.64c1.37-1.41,2.66-4.19,4.75-3,2.68,1.48.67,4.83.18,7.1.31-1.36,4.23-1.11,4.42.49.18,1.4-2,2.46-3.07,2.58Z"/><path class="cls-19" d="M1547.42,58.16c-14.77,0-26.74,13.16-26.74,29.38h53.49C1574.17,71.32,1562.19,58.16,1547.42,58.16Z"/><path class="cls-20" d="M1549.83,83.17c0,11.26-1.2,20.38-2.67,20.38s-2.66-9.12-2.66-20.38,1.19-20.36,2.66-20.36S1549.83,71.93,1549.83,83.17Z"/><path class="cls-20" d="M1537.49,83.17c0,11.45,2.81,20.76,1.41,21.36s-6.78-8.6-6.74-21.36,5.49-22,6.74-21.35S1537.49,71.74,1537.49,83.17Z"/><path class="cls-20" d="M1556.83,83.17c0,11.45-2.8,20.76-1.41,21.36s6.79-8.6,6.74-21.36-5.49-22-6.74-21.35S1556.83,71.74,1556.83,83.17Z"/><polygon class="cls-21" points="1573.73 99.73 1581.46 99.73 1581.46 242.46 1514.8 242.46 1514.8 99.73 1522.53 99.73 1573.73 99.73"/><rect class="cls-22" x="1529.03" y="100.52" width="7.69" height="79.98"/><rect class="cls-22" x="1544.08" y="100.52" width="7.69" height="79.98"/><rect class="cls-22" x="1559.14" y="100.52" width="7.69" height="79.98"/><rect class="cls-23" x="1514.8" y="189.97" width="66.66" height="52.49"/><polygon class="cls-5" points="1560.14 136.66 1566.82 136.66 1566.82 136.59 1566.82 113.91 1566.82 112.66 1559.14 112.66 1559.14 136.59 1560.14 136.59 1560.14 136.66"/><polygon class="cls-5" points="1560.14 169.03 1566.83 169.03 1566.83 168.96 1566.83 146.28 1566.83 145.03 1559.14 145.03 1559.14 168.96 1560.14 168.96 1560.14 169.03"/><polygon class="cls-5" points="1545.09 136.66 1551.77 136.66 1551.77 136.59 1551.77 113.91 1551.77 112.66 1544.08 112.66 1544.08 136.59 1545.09 136.59 1545.09 136.66"/><polygon class="cls-5" points="1545.09 169.03 1551.77 169.03 1551.77 168.96 1551.77 146.28 1551.77 145.03 1544.08 145.03 1544.08 168.96 1545.09 168.96 1545.09 169.03"/><polygon class="cls-5" points="1530.03 136.66 1536.71 136.66 1536.71 136.59 1536.71 113.91 1536.71 112.66 1529.03 112.66 1529.03 136.59 1530.03 136.59 1530.03 136.66"/><polygon class="cls-5" points="1530.03 169.03 1536.72 169.03 1536.72 168.96 1536.72 146.28 1536.72 145.03 1529.03 145.03 1529.03 168.96 1530.03 168.96 1530.03 169.03"/><rect class="cls-5" x="1521.07" y="198.65" width="54.16" height="43.81"/><rect class="cls-24" x="1513.22" y="189.97" width="70.51" height="8.5"/><rect class="cls-25" x="1512.67" y="91.23" width="70.51" height="8.5"/><rect class="cls-19" x="1509.43" y="88.31" width="76.42" height="2.92"/><rect class="cls-19" x="1514.8" y="181.29" width="66.66" height="8.68"/><rect class="cls-26" x="1515.67" y="182.34" width="64.88" height="2.82"/><line class="cls-16" x1="1521.86" y1="213.47" x2="1574.96" y2="213.47"/><line class="cls-16" x1="1532.16" y1="198.65" x2="1532.16" y2="242.15"/><line class="cls-16" x1="1564.57" y1="198.65" x2="1564.57" y2="242.15"/><line class="cls-16" x1="1548.11" y1="198.65" x2="1548.11" y2="242.15"/><g class="cls-14"><polygon class="cls-15" points="1568.47 200.47 1568.47 199.44 1564.08 199.44 1523.75 242.15 1529.11 242.15 1568.47 200.47"/><polygon class="cls-15" points="1521.45 226.24 1521.45 238.5 1558.33 199.44 1546.76 199.44 1521.45 226.24"/></g><path class="cls-18" d="M1118.49,221.3c-11.18,4.3-14,.64-18.36-3.34a11.76,11.76,0,0,1-8.31,5.58c-10.24,1.3-24.5-24.12-6.11-32.57-3-15.33,22.45-17.77,29.11-11.82,1.21,1.1,5.11,4.93,4.31,6.56-.46.93,5.41-1.56,9.27,12.81C1131.32,211,1121.87,220,1118.49,221.3Z"/><path class="cls-27" d="M1118.49,221.3c-11.18,4.3-14,.64-18.36-3.34a11.76,11.76,0,0,1-8.31,5.58c-7.83,1-18-13.64-14.14-24.37.17,12.33,20.2,20.64,22.73,10.16,1.78,9.31,21.35,6.58,19.16-2.53,4.3.06,7.35-3.82,8.83-8.28.09.4.2.81.3,1.24C1131.12,209.68,1122.65,219.7,1118.49,221.3Z"/><path class="cls-3" d="M1118.49,221.3c-11.18,4.3-14,.64-18.36-3.34a11.76,11.76,0,0,1-8.31,5.58c-10.24,1.3-24.5-24.12-6.11-32.57-3-15.33,22.45-17.77,29.11-11.82,1.21,1.1,5.11,4.93,4.31,6.56-.46.93,5.41-1.56,9.27,12.81C1131.32,211,1121.87,220,1118.49,221.3Z"/><path class="cls-28" d="M1100.66,185.07a3.38,3.38,0,0,0-.72.75,3.56,3.56,0,0,0-.7,1.89,5,5,0,0,0,.2,1.65,1.58,1.58,0,0,0,.66,1c.33.17.78,0,1.18-.46a3.57,3.57,0,0,0,.65-2.08,3.29,3.29,0,0,0-.65-1.92A8.61,8.61,0,0,0,1100.66,185.07Z"/><path class="cls-28" d="M1096.51,185.43a3.56,3.56,0,0,0-.4,2.54c.39,1.21,1.19,2,1.79,1.83s.79-1.33.4-2.55A3.53,3.53,0,0,0,1096.51,185.43Z"/><path class="cls-28" d="M1092.27,187.69a3.6,3.6,0,0,0,0,.91,3,3,0,0,0,.76,1.65c.9.89,1.84,1.29,2.42.94s.27-1.65-.71-2.63a3.13,3.13,0,0,0-1.59-.77A5.25,5.25,0,0,0,1092.27,187.69Z"/><path class="cls-28" d="M1090.68,191.93a3,3,0,0,0,1.5,1.51c.93.38,1.87.33,2.1-.16s-.4-1.22-1.43-1.65A2.92,2.92,0,0,0,1090.68,191.93Z"/><path class="cls-28" d="M1105.07,189a2,2,0,0,0-1.35.3c-.54.35-.82.88-.66,1.19s.79.23,1.41-.2A1.9,1.9,0,0,0,1105.07,189Z"/><path class="cls-28" d="M1116.57,201.39a2.34,2.34,0,0,0-.61.26,2.42,2.42,0,0,0-.88.94,3.14,3.14,0,0,0-.29,1,1,1,0,0,0,.15.73c.15.18.45.22.81,0a2.33,2.33,0,0,0,.9-1.06,2.17,2.17,0,0,0,.09-1.29C1116.66,201.66,1116.57,201.39,1116.57,201.39Z"/><path class="cls-28" d="M1111,200.85a2.48,2.48,0,0,0-.2.55,1.85,1.85,0,0,0,0,1.16c.3.74.76,1.21,1.19,1.15s.56-.9.23-1.73a2.07,2.07,0,0,0-.75-.84A4.14,4.14,0,0,0,1111,200.85Z"/><path class="cls-28" d="M1109,203a1.94,1.94,0,0,0,.51,1.26c.45.46,1,.66,1.27.43s.07-.82-.42-1.32A1.89,1.89,0,0,0,1109,203Z"/><path class="cls-28" d="M1118.18,204.81a1.24,1.24,0,0,0-.86-.16c-.41.08-.71.32-.69.54s.41.33.88.23A1.22,1.22,0,0,0,1118.18,204.81Z"/><path class="cls-13" d="M1094,217.5s7.32,1.42,7.32,12.57.4,11.4.4,11.4a5.47,5.47,0,0,1-2.89,2.6c-1.28.45-.61.29,4,.29,3.46,0,4.81.3,4-.15-1.08-.57-2.31-1.39-2.38-2.59-.25-4.9-1.59-13.09-.06-18.09s8.33-6.7,7.69-7.3-7.33,4.22-7.7,4.08,2.17-8.15,2.74-9.88-.93-.64-1.44.58-2.52,8.65-3.1,9-2.42-11-3.31-11.39-.81.27-.8,1.3,3.42,9.37,2.46,9.75-4.52-2.52-6.06-2.9S1094,217.5,1094,217.5Z"/><path class="cls-18" d="M516.24,221.3c-11.19,4.3-14.05.64-18.36-3.34a11.76,11.76,0,0,1-8.31,5.58c-10.24,1.3-24.5-24.12-6.11-32.57-3-15.33,22.45-17.77,29.1-11.82,1.22,1.1,5.12,4.93,4.32,6.56-.47.93,5.41-1.56,9.26,12.81C529.07,211,519.61,220,516.24,221.3Z"/><path class="cls-27" d="M516.24,221.3c-11.19,4.3-14.05.64-18.36-3.34a11.76,11.76,0,0,1-8.31,5.58c-7.83,1-18-13.64-14.14-24.37.17,12.33,20.19,20.64,22.73,10.16,1.78,9.31,21.34,6.58,19.16-2.53,4.3.06,7.35-3.82,8.82-8.28.1.4.21.81.31,1.24C528.86,209.68,520.4,219.7,516.24,221.3Z"/><path class="cls-3" d="M516.24,221.3c-11.19,4.3-14.05.64-18.36-3.34a11.76,11.76,0,0,1-8.31,5.58c-10.24,1.3-24.5-24.12-6.11-32.57-3-15.33,22.45-17.77,29.1-11.82,1.22,1.1,5.12,4.93,4.32,6.56-.47.93,5.41-1.56,9.26,12.81C529.07,211,519.61,220,516.24,221.3Z"/><path class="cls-28" d="M498.41,185.07a3.38,3.38,0,0,0-.72.75,3.56,3.56,0,0,0-.7,1.89,4.75,4.75,0,0,0,.2,1.65,1.58,1.58,0,0,0,.66,1c.32.17.78,0,1.18-.46a3.65,3.65,0,0,0,.65-2.08,3.29,3.29,0,0,0-.65-1.92A8.61,8.61,0,0,0,498.41,185.07Z"/><path class="cls-28" d="M494.26,185.43a3.56,3.56,0,0,0-.4,2.54c.39,1.21,1.18,2,1.79,1.83s.79-1.33.4-2.55A3.56,3.56,0,0,0,494.26,185.43Z"/><path class="cls-28" d="M490,187.69a3.38,3.38,0,0,0,0,.91,2.91,2.91,0,0,0,.76,1.65c.89.89,1.83,1.29,2.42.94s.27-1.65-.72-2.63a3.06,3.06,0,0,0-1.59-.77A5.17,5.17,0,0,0,490,187.69Z"/><path class="cls-28" d="M488.42,191.93a3.09,3.09,0,0,0,1.5,1.51c.93.38,1.87.33,2.11-.16s-.4-1.22-1.43-1.65A3,3,0,0,0,488.42,191.93Z"/><path class="cls-28" d="M502.81,189a2,2,0,0,0-1.34.3c-.54.35-.83.88-.66,1.19s.79.23,1.41-.2A1.92,1.92,0,0,0,502.81,189Z"/><path class="cls-28" d="M514.32,201.39a2.34,2.34,0,0,0-.61.26,2.29,2.29,0,0,0-.88.94,3.14,3.14,0,0,0-.29,1,1,1,0,0,0,.15.73c.15.18.45.22.81,0a2.26,2.26,0,0,0,.89-1.06,2.1,2.1,0,0,0,.1-1.29C514.41,201.66,514.32,201.39,514.32,201.39Z"/><path class="cls-28" d="M508.73,200.85a2.8,2.8,0,0,0-.21.55,1.93,1.93,0,0,0,.05,1.16c.3.74.75,1.21,1.19,1.15s.56-.9.23-1.73a2.07,2.07,0,0,0-.75-.84A4.14,4.14,0,0,0,508.73,200.85Z"/><path class="cls-28" d="M506.75,203a1.94,1.94,0,0,0,.51,1.26c.45.46,1,.66,1.27.43s.07-.82-.43-1.32A1.87,1.87,0,0,0,506.75,203Z"/><path class="cls-28" d="M515.93,204.81a1.26,1.26,0,0,0-.87-.16c-.4.08-.7.32-.68.54s.41.33.88.23A1.22,1.22,0,0,0,515.93,204.81Z"/><path class="cls-13" d="M491.75,217.5s7.31,1.42,7.31,12.57.4,11.4.4,11.4a5.43,5.43,0,0,1-2.88,2.6c-1.28.45-.61.29,4,.29,3.46,0,4.81.3,4-.15-1.08-.57-2.32-1.39-2.38-2.59-.25-4.9-1.6-13.09-.06-18.09s8.32-6.7,7.69-7.3-7.33,4.22-7.7,4.08,2.16-8.15,2.74-9.88-.94-.64-1.44.58-2.52,8.65-3.1,9-2.42-11-3.32-11.39-.81.27-.79,1.3,3.42,9.37,2.46,9.75-4.53-2.52-6.06-2.9S491.75,217.5,491.75,217.5Z"/><path class="cls-18" d="M1716.12,221.3c-11.19,4.3-14,.64-18.36-3.34a11.76,11.76,0,0,1-8.31,5.58c-10.24,1.3-24.5-24.12-6.11-32.57-3-15.33,22.45-17.77,29.1-11.82,1.22,1.1,5.11,4.93,4.32,6.56-.47.93,5.41-1.56,9.26,12.81C1729,211,1719.49,220,1716.12,221.3Z"/><path class="cls-27" d="M1716.12,221.3c-11.19,4.3-14,.64-18.36-3.34a11.76,11.76,0,0,1-8.31,5.58c-7.83,1-18-13.64-14.14-24.37.17,12.33,20.19,20.64,22.73,10.16,1.78,9.31,21.34,6.58,19.16-2.53,4.3.06,7.35-3.82,8.82-8.28.1.4.21.81.31,1.24C1728.74,209.68,1720.27,219.7,1716.12,221.3Z"/><path class="cls-3" d="M1716.12,221.3c-11.19,4.3-14,.64-18.36-3.34a11.76,11.76,0,0,1-8.31,5.58c-10.24,1.3-24.5-24.12-6.11-32.57-3-15.33,22.45-17.77,29.1-11.82,1.22,1.1,5.11,4.93,4.32,6.56-.47.93,5.41-1.56,9.26,12.81C1729,211,1719.49,220,1716.12,221.3Z"/><path class="cls-28" d="M1698.29,185.07a3.38,3.38,0,0,0-.72.75,3.56,3.56,0,0,0-.7,1.89,4.79,4.79,0,0,0,.19,1.65,1.64,1.64,0,0,0,.67,1c.32.17.78,0,1.18-.46a3.65,3.65,0,0,0,.65-2.08,3.29,3.29,0,0,0-.65-1.92A8.61,8.61,0,0,0,1698.29,185.07Z"/><path class="cls-28" d="M1694.14,185.43a3.56,3.56,0,0,0-.4,2.54c.39,1.21,1.18,2,1.79,1.83s.79-1.33.4-2.55A3.56,3.56,0,0,0,1694.14,185.43Z"/><path class="cls-28" d="M1689.89,187.69a3.6,3.6,0,0,0,0,.91,3,3,0,0,0,.77,1.65c.89.89,1.83,1.29,2.42.94s.27-1.65-.72-2.63a3.06,3.06,0,0,0-1.59-.77A5.17,5.17,0,0,0,1689.89,187.69Z"/><path class="cls-28" d="M1688.3,191.93a3.09,3.09,0,0,0,1.5,1.51c.93.38,1.87.33,2.1-.16s-.39-1.22-1.42-1.65A3,3,0,0,0,1688.3,191.93Z"/><path class="cls-28" d="M1702.69,189a2,2,0,0,0-1.35.3c-.53.35-.82.88-.65,1.19s.79.23,1.41-.2A1.92,1.92,0,0,0,1702.69,189Z"/><path class="cls-28" d="M1714.2,201.39a2.34,2.34,0,0,0-.61.26,2.29,2.29,0,0,0-.88.94,3.49,3.49,0,0,0-.3,1,1,1,0,0,0,.16.73c.15.18.45.22.81,0a2.26,2.26,0,0,0,.89-1.06,2,2,0,0,0,.09-1.29A5.74,5.74,0,0,0,1714.2,201.39Z"/><path class="cls-28" d="M1708.61,200.85a2.21,2.21,0,0,0-.21.55,2,2,0,0,0,0,1.16c.31.74.76,1.21,1.2,1.15s.56-.9.23-1.73a2.07,2.07,0,0,0-.75-.84A4.14,4.14,0,0,0,1708.61,200.85Z"/><path class="cls-28" d="M1706.63,203a2,2,0,0,0,.5,1.26c.46.46,1,.66,1.28.43s.07-.82-.43-1.32A1.87,1.87,0,0,0,1706.63,203Z"/><path class="cls-28" d="M1715.81,204.81a1.28,1.28,0,0,0-.87-.16c-.4.08-.7.32-.68.54s.41.33.88.23A1.22,1.22,0,0,0,1715.81,204.81Z"/><path class="cls-13" d="M1691.63,217.5s7.31,1.42,7.31,12.57.4,11.4.4,11.4a5.43,5.43,0,0,1-2.88,2.6c-1.28.45-.61.29,4,.29,3.46,0,4.81.3,4-.15-1.08-.57-2.32-1.39-2.38-2.59-.25-4.9-1.6-13.09-.06-18.09s8.32-6.7,7.69-7.3-7.33,4.22-7.7,4.08,2.16-8.15,2.74-9.88-.94-.64-1.44.58-2.52,8.65-3.1,9-2.42-11-3.32-11.39-.81.27-.79,1.3,3.42,9.37,2.46,9.75-4.53-2.52-6.06-2.9S1691.63,217.5,1691.63,217.5Z"/><path class="cls-29" d="M1737.27,244.19s.71-5.34-3.74-5a2.66,2.66,0,0,0-3-2.67s-1.07-3.92-3.92-3.56c0,0-1.61-4.1-4.28-3.39,0,0-3.56-2.84-6.59-.08,0,0-5.17-1-5.71,2.93,0,0-3.56-2-4.63,1.78,0,0-3.74-2-5.17,2,0,0-1.6-1.53-4.1,0,0,0-1.42-3.1-4.27-2,0,0-3.93-4.81-5.89.54,0,0-4.45-.89-4.81,3,0,0-4.81-.72-4.27,3.56,0,0-5-1.6-3.39,2.85Z"/><path class="cls-30" d="M1679,240.9a3,3,0,0,1,3.75-1.6c-.54-3.21,3.74-3,3.74-3,1.25-3.74,4.28.36,4.28.36,2.49-1.07,3.2,1.75,3.2,1.75,2.86-1.1,4.1,2.88,4.1,2.88.54-2.85,4.64-1.07,4.64-1.07.71-4.28,4.63-1.81,4.63-1.81-.71-3.77,3.56-2.93,3.56-2.93.18-4.57,6.24-2.74,6.24-2.74,3.21-1.61,5,2,5,2,3.92-.9,4.63,2.13,4.63,2.13,3.21-1.06,4.28,2.5,4.28,2.5,3.77-.65,4.89,2.4,5.21,4.1h-60.1C1676.32,241.26,1679,240.9,1679,240.9Z"/><path class="cls-18" d="M221.59,204c1,.39,2.32,1.48,2.13,4.54-.42,7.18-5.68,11.35-14.77,12-2.86.22-5.95-1.78-5.95-1.78a13.58,13.58,0,0,1-9.57,1.47c-8.16-1.86-13.31-6.32-14-14.89-.41-4.56,3.78-7.26,3.78-7.26s-3.85-4-2.72-8.76,7.5-11.26,15.22-9.52c9.55-9.34,36.49,1.27,28.92,20.84C223.83,202.67,221.3,203.87,221.59,204Z"/><path class="cls-27" d="M221.59,204c1,.39,2.32,1.48,2.13,4.54-.42,7.18-5.68,11.35-14.77,12-2.86.22-5.95-1.78-5.95-1.78a13.58,13.58,0,0,1-9.57,1.47c-7.32-1.67-12-5.34-13.52-11.8,3.3,4.45,8.91,7.44,11.13,2.37,1.31,7.35,20.66,6.56,20-.44,4,1.63,9-3.41,5.16-6.63,5,0,8.21-7,9.21-13.45a17,17,0,0,1-.82,10.36C223.83,202.67,221.3,203.87,221.59,204Z"/><path class="cls-3" d="M221.59,204c1,.39,2.32,1.48,2.13,4.54-.42,7.18-5.68,11.35-14.77,12-2.86.22-5.95-1.78-5.95-1.78a13.58,13.58,0,0,1-9.57,1.47c-8.16-1.86-13.31-6.32-14-14.89-.41-4.56,3.78-7.26,3.78-7.26s-3.85-4-2.72-8.76,7.5-11.26,15.22-9.52c9.55-9.34,36.49,1.27,28.92,20.84C223.83,202.67,221.3,203.87,221.59,204Z"/><path class="cls-13" d="M195.57,213.94S202,215.19,202,225s.35,10,.35,10a4.82,4.82,0,0,1-2.54,2.29c-1.12.4-.54.25,3.56.25,3,0,4.23.27,3.49-.13-1-.5-2-1.23-2.1-2.28-.22-4.31-1.41-11.53-.05-15.93s7.33-5.9,6.77-6.43-6.45,3.72-6.78,3.59,1.9-7.17,2.41-8.69-.82-.57-1.27.51-2.22,7.61-2.73,7.93-2.12-9.71-2.92-10-.71.23-.69,1.14,3,8.26,2.16,8.59-4-2.22-5.34-2.56S195.57,213.94,195.57,213.94Z"/><path class="cls-28" d="M203.86,185.69a2.81,2.81,0,0,1,.62.64,3,3,0,0,1,.6,1.62,4.27,4.27,0,0,1-.17,1.41,1.29,1.29,0,0,1-.57.81c-.27.15-.66,0-1-.39a3.06,3.06,0,0,1-.55-1.78,2.77,2.77,0,0,1,.56-1.63A7.05,7.05,0,0,1,203.86,185.69Z"/><path class="cls-28" d="M207.41,186a3,3,0,0,1,.34,2.18c-.33,1-1,1.73-1.53,1.56s-.67-1.14-.34-2.18A3.08,3.08,0,0,1,207.41,186Z"/><path class="cls-28" d="M211,187.93a3.14,3.14,0,0,1,0,.78,2.47,2.47,0,0,1-.65,1.4c-.76.77-1.57,1.11-2.07.81s-.23-1.41.61-2.25a2.63,2.63,0,0,1,1.36-.65A4.24,4.24,0,0,1,211,187.93Z"/><path class="cls-28" d="M212.4,191.55a2.67,2.67,0,0,1-1.28,1.29c-.8.33-1.6.28-1.8-.14s.34-1,1.22-1.41A2.55,2.55,0,0,1,212.4,191.55Z"/><path class="cls-28" d="M200.1,189.08a1.65,1.65,0,0,1,1.15.25c.46.3.71.76.57,1s-.68.19-1.21-.17A1.66,1.66,0,0,1,200.1,189.08Z"/><path class="cls-28" d="M190.27,199.64a2,2,0,0,1,.52.22,2,2,0,0,1,.75.81,2.54,2.54,0,0,1,.25.87.86.86,0,0,1-.13.62c-.13.15-.38.18-.69,0a2.06,2.06,0,0,1-.77-.91,1.77,1.77,0,0,1-.07-1.1A4.45,4.45,0,0,1,190.27,199.64Z"/><path class="cls-28" d="M195,199.18a2,2,0,0,1,.18.46,1.61,1.61,0,0,1,0,1c-.26.64-.64,1-1,1s-.49-.77-.2-1.47a1.66,1.66,0,0,1,.64-.73A3.54,3.54,0,0,1,195,199.18Z"/><path class="cls-28" d="M196.74,201a1.67,1.67,0,0,1-.44,1.08c-.38.39-.87.56-1.09.36s-.05-.69.37-1.13A1.65,1.65,0,0,1,196.74,201Z"/><path class="cls-28" d="M188.89,202.56a1.09,1.09,0,0,1,.74-.14c.35.07.6.28.59.47s-.36.28-.76.2A1.09,1.09,0,0,1,188.89,202.56Z"/><path class="cls-29" d="M173.31,242.09s-.5-3.73,2.61-3.48a1.85,1.85,0,0,1,2.11-1.86s.75-2.74,2.74-2.49c0,0,1.11-2.85,3-2.36,0,0,2.48-2,4.59-.06,0,0,3.61-.68,4,2,0,0,2.48-1.37,3.23,1.24a2.44,2.44,0,0,1,3.6,1.42,2.31,2.31,0,0,1,2.86,0s1-2.16,3-1.42c0,0,2.74-3.35,4.1.38,0,0,3.11-.63,3.36,2.11,0,0,3.35-.5,3,2.48,0,0,3.48-1.12,2.36,2Z"/><path class="cls-30" d="M213.94,239.8a2.1,2.1,0,0,0-2.61-1.12c.37-2.24-2.61-2.11-2.61-2.11-.87-2.61-3,.25-3,.25-1.74-.75-2.24,1.22-2.24,1.22-2-.77-2.86,2-2.86,2-.37-2-3.23-.75-3.23-.75-.49-3-3.23-1.26-3.23-1.26.5-2.63-2.48-2-2.48-2-.13-3.18-4.35-1.91-4.35-1.91-2.24-1.12-3.48,1.37-3.48,1.37-2.73-.62-3.23,1.49-3.23,1.49-2.24-.75-3,1.74-3,1.74-2.63-.45-3.41,1.67-3.64,2.86h41.91C215.8,240.05,213.94,239.8,213.94,239.8Z"/><path class="cls-18" d="M823,206.9c1.12.44,2.58,1.65,2.38,5.06-.48,8-6.34,12.65-16.47,13.43-3.18.25-6.63-2-6.63-2A15.08,15.08,0,0,1,791.59,225c-9.09-2.06-14.84-7-15.65-16.59-.45-5.07,4.21-8.09,4.21-8.09s-4.29-4.45-3-9.76,8.36-12.54,17-10.6c10.65-10.42,40.67,1.41,32.24,23.21C825.47,205.44,822.64,206.78,823,206.9Z"/><path class="cls-27" d="M823,206.9c1.12.44,2.58,1.65,2.38,5.06-.48,8-6.34,12.65-16.47,13.43-3.18.25-6.63-2-6.63-2A15.08,15.08,0,0,1,791.59,225c-8.16-1.85-13.31-5.94-15.07-13.14,3.68,4.95,9.93,8.29,12.4,2.64,1.47,8.19,23,7.3,22.29-.5,4.46,1.82,10-3.79,5.76-7.38,5.55,0,9.14-7.84,10.25-15a18.86,18.86,0,0,1-.9,11.53C825.47,205.44,822.64,206.78,823,206.9Z"/><path class="cls-3" d="M823,206.9c1.12.44,2.58,1.65,2.38,5.06-.48,8-6.34,12.65-16.47,13.43-3.18.25-6.63-2-6.63-2A15.08,15.08,0,0,1,791.59,225c-9.09-2.06-14.84-7-15.65-16.59-.45-5.07,4.21-8.09,4.21-8.09s-4.29-4.45-3-9.76,8.36-12.54,17-10.6c10.65-10.42,40.67,1.41,32.24,23.21C825.47,205.44,822.64,206.78,823,206.9Z"/><path class="cls-13" d="M794,218s7.18,1.39,7.18,12.33.39,11.2.39,11.2a5.37,5.37,0,0,1-2.83,2.55c-1.25.44-.6.28,4,.28,3.4,0,4.73.3,3.89-.14-1.06-.57-2.27-1.37-2.33-2.55-.25-4.8-1.57-12.85-.06-17.75s8.17-6.58,7.54-7.17-7.19,4.15-7.55,4,2.12-8,2.69-9.69-.92-.64-1.42.57-2.47,8.48-3,8.84-2.37-10.82-3.25-11.18-.8.26-.78,1.28,3.36,9.19,2.41,9.57-4.44-2.48-5.95-2.86S794,218,794,218Z"/><path class="cls-28" d="M803.21,186.52a3.27,3.27,0,0,1,.7.72,3.42,3.42,0,0,1,.66,1.8,4.64,4.64,0,0,1-.19,1.57,1.46,1.46,0,0,1-.63.91c-.31.16-.74,0-1.12-.44a3.31,3.31,0,0,1-.62-2,3.05,3.05,0,0,1,.62-1.82A8.85,8.85,0,0,1,803.21,186.52Z"/><path class="cls-28" d="M807.17,186.86a3.44,3.44,0,0,1,.38,2.43c-.37,1.15-1.13,1.93-1.71,1.74s-.74-1.27-.37-2.43A3.34,3.34,0,0,1,807.17,186.86Z"/><path class="cls-28" d="M811.21,189a3.29,3.29,0,0,1,0,.87,2.83,2.83,0,0,1-.72,1.56c-.86.86-1.75,1.24-2.31.9s-.25-1.57.68-2.51a3.1,3.1,0,0,1,1.52-.73A5.19,5.19,0,0,1,811.21,189Z"/><path class="cls-28" d="M812.73,193.05a2.94,2.94,0,0,1-1.43,1.44c-.89.37-1.78.31-2-.15s.38-1.16,1.35-1.57A2.79,2.79,0,0,1,812.73,193.05Z"/><path class="cls-28" d="M799,190.3a1.91,1.91,0,0,1,1.29.27c.51.35.78.85.62,1.14s-.75.22-1.34-.18A1.82,1.82,0,0,1,799,190.3Z"/><path class="cls-28" d="M788.06,202.07a2,2,0,0,1,.59.25,2.26,2.26,0,0,1,.84.89,3,3,0,0,1,.27,1,.93.93,0,0,1-.14.69c-.15.18-.43.21-.77,0a2.18,2.18,0,0,1-.86-1,2,2,0,0,1-.08-1.23C788,202.32,788.06,202.07,788.06,202.07Z"/><path class="cls-28" d="M793.39,201.55a2.07,2.07,0,0,1,.19.52,1.77,1.77,0,0,1,0,1.11c-.29.71-.72,1.15-1.13,1.09s-.54-.86-.22-1.64a1.81,1.81,0,0,1,.71-.8A3.22,3.22,0,0,1,793.39,201.55Z"/><path class="cls-28" d="M795.28,203.56a1.88,1.88,0,0,1-.49,1.19c-.43.44-1,.63-1.21.41s-.07-.78.41-1.26A1.79,1.79,0,0,1,795.28,203.56Z"/><path class="cls-28" d="M786.53,205.32a1.24,1.24,0,0,1,.83-.15c.38.08.67.3.65.51s-.39.32-.84.23A1.19,1.19,0,0,1,786.53,205.32Z"/><path class="cls-18" d="M1425.23,206.9c1.11.44,2.58,1.65,2.37,5.06-.48,8-6.34,12.65-16.47,13.43-3.18.25-6.62-2-6.62-2a15.11,15.11,0,0,1-10.67,1.63c-9.09-2.06-14.83-7-15.64-16.59-.46-5.07,4.21-8.09,4.21-8.09s-4.3-4.45-3-9.76,8.36-12.54,17-10.6c10.64-10.42,40.66,1.41,32.23,23.21C1427.72,205.44,1424.9,206.78,1425.23,206.9Z"/><path class="cls-27" d="M1425.23,206.9c1.11.44,2.58,1.65,2.37,5.06-.48,8-6.34,12.65-16.47,13.43-3.18.25-6.62-2-6.62-2a15.11,15.11,0,0,1-10.67,1.63c-8.15-1.85-13.31-5.94-15.06-13.14,3.67,4.95,9.92,8.29,12.4,2.64,1.46,8.19,23,7.3,22.28-.5,4.46,1.82,10-3.79,5.76-7.38,5.55,0,9.14-7.84,10.25-15a18.79,18.79,0,0,1-.9,11.53C1427.72,205.44,1424.9,206.78,1425.23,206.9Z"/><path class="cls-3" d="M1425.23,206.9c1.11.44,2.58,1.65,2.37,5.06-.48,8-6.34,12.65-16.47,13.43-3.18.25-6.62-2-6.62-2a15.11,15.11,0,0,1-10.67,1.63c-9.09-2.06-14.83-7-15.64-16.59-.46-5.07,4.21-8.09,4.21-8.09s-4.3-4.45-3-9.76,8.36-12.54,17-10.6c10.64-10.42,40.66,1.41,32.23,23.21C1427.72,205.44,1424.9,206.78,1425.23,206.9Z"/><path class="cls-13" d="M1396.23,218s7.17,1.39,7.17,12.33.39,11.2.39,11.2a5.32,5.32,0,0,1-2.83,2.55c-1.25.44-.6.28,4,.28,3.39,0,4.72.3,3.89-.14-1.06-.57-2.28-1.37-2.34-2.55-.25-4.8-1.57-12.85-.06-17.75s8.17-6.58,7.55-7.17-7.19,4.15-7.56,4,2.12-8,2.69-9.69-.92-.64-1.41.57-2.48,8.48-3,8.84-2.37-10.82-3.25-11.18-.79.26-.78,1.28,3.36,9.19,2.42,9.57-4.45-2.48-6-2.86S1396.23,218,1396.23,218Z"/><path class="cls-28" d="M1405.47,186.52a3.38,3.38,0,0,1,.69.72,3.42,3.42,0,0,1,.66,1.8,4.67,4.67,0,0,1-.18,1.57,1.51,1.51,0,0,1-.64.91c-.31.16-.74,0-1.12-.44a3.45,3.45,0,0,1-.62-2,3.12,3.12,0,0,1,.62-1.82A7.79,7.79,0,0,1,1405.47,186.52Z"/><path class="cls-28" d="M1409.43,186.86a3.46,3.46,0,0,1,.37,2.43c-.37,1.15-1.12,1.93-1.7,1.74s-.75-1.27-.38-2.43A3.38,3.38,0,0,1,1409.43,186.86Z"/><path class="cls-28" d="M1413.47,189a3.91,3.91,0,0,1,0,.87,2.84,2.84,0,0,1-.73,1.56c-.85.86-1.75,1.24-2.3.9s-.26-1.57.68-2.51a3,3,0,0,1,1.51-.73A5.26,5.26,0,0,1,1413.47,189Z"/><path class="cls-28" d="M1415,193.05a2.94,2.94,0,0,1-1.43,1.44c-.88.37-1.78.31-2-.15s.38-1.16,1.36-1.57A2.76,2.76,0,0,1,1415,193.05Z"/><path class="cls-28" d="M1401.27,190.3a1.91,1.91,0,0,1,1.29.27c.51.35.78.85.63,1.14s-.76.22-1.35-.18A1.82,1.82,0,0,1,1401.27,190.3Z"/><path class="cls-28" d="M1390.32,202.07a1.89,1.89,0,0,1,.58.25,2.19,2.19,0,0,1,.84.89,3.33,3.33,0,0,1,.28,1,1,1,0,0,1-.15.69c-.14.18-.43.21-.77,0a2.16,2.16,0,0,1-.85-1,2,2,0,0,1-.09-1.23A4.91,4.91,0,0,1,1390.32,202.07Z"/><path class="cls-28" d="M1395.64,201.55a2.32,2.32,0,0,1,.2.52,1.84,1.84,0,0,1,0,1.11c-.29.71-.73,1.15-1.14,1.09s-.53-.86-.22-1.64a1.94,1.94,0,0,1,.71-.8A3.22,3.22,0,0,1,1395.64,201.55Z"/><path class="cls-28" d="M1397.53,203.56a1.85,1.85,0,0,1-.48,1.19c-.43.44-1,.63-1.22.41s-.06-.78.41-1.26A1.79,1.79,0,0,1,1397.53,203.56Z"/><path class="cls-28" d="M1388.78,205.32a1.25,1.25,0,0,1,.83-.15c.38.08.67.3.65.51s-.39.32-.84.23A1.19,1.19,0,0,1,1388.78,205.32Z"/></g></g></g></svg>