<svg xmlns="http://www.w3.org/2000/svg" viewBox="0 0 1918.69 302.14"><defs><style>.cls-1{isolation:isolate;}.cls-2{fill:#a4aaab;}.cls-11,.cls-20,.cls-3,.cls-36,.cls-40,.cls-7{fill:none;}.cls-10,.cls-12,.cls-13,.cls-14,.cls-15,.cls-17,.cls-22,.cls-23,.cls-25,.cls-27,.cls-28,.cls-29,.cls-3,.cls-30,.cls-31,.cls-32,.cls-34,.cls-36,.cls-38,.cls-4,.cls-40,.cls-5,.cls-6,.cls-7{stroke:#4d3224;}.cls-10,.cls-11,.cls-12,.cls-13,.cls-14,.cls-3,.cls-36,.cls-38,.cls-4,.cls-40,.cls-6,.cls-7{stroke-linecap:round;}.cls-11,.cls-12,.cls-13,.cls-14,.cls-3,.cls-36,.cls-38,.cls-40,.cls-6,.cls-7{stroke-linejoin:round;}.cls-20,.cls-3{stroke-width:1.5px;}.cls-4{fill:#77c4ce;}.cls-10,.cls-15,.cls-17,.cls-20,.cls-22,.cls-23,.cls-25,.cls-27,.cls-28,.cls-29,.cls-30,.cls-31,.cls-32,.cls-34,.cls-4,.cls-5{stroke-miterlimit:10;}.cls-10,.cls-11,.cls-4,.cls-6,.cls-7{stroke-width:1.89px;}.cls-15,.cls-17,.cls-28,.cls-29,.cls-5,.cls-9{fill:#80d8d6;}.cls-5{stroke-width:2.05px;}.cls-10,.cls-6{fill:#5aabb9;}.cls-8{opacity:0.23;mix-blend-mode:color-dodge;}.cls-11{stroke:#80d8d6;}.cls-12{fill:#e6ffff;}.cls-12,.cls-13,.cls-14,.cls-22,.cls-23,.cls-25,.cls-27,.cls-38{stroke-width:2px;}.cls-13{fill:#9fc2c4;}.cls-14{fill:#c9e2ff;}.cls-15{stroke-width:2.17px;}.cls-16{fill:#4d3224;}.cls-17{stroke-width:2.03px;}.cls-18{opacity:0.4;}.cls-19{fill:#d0ebea;}.cls-20{stroke:#426e75;}.cls-21{fill:#4e98a0;}.cls-22,.cls-34{fill:#7bb52d;}.cls-23,.cls-32{fill:#ff9563;}.cls-24{fill:#de744c;}.cls-25{fill:#f1d4c2;}.cls-26{fill:#e0bfa9;}.cls-27{fill:#9a8e80;}.cls-28{stroke-width:1.7px;}.cls-29{stroke-width:1.88px;}.cls-30{fill:#426e75;}.cls-30,.cls-31{stroke-width:1.85px;}.cls-31{fill:#f27e52;}.cls-32{stroke-width:1.82px;}.cls-33{fill:#ffb563;}.cls-34{stroke-width:1.42px;}.cls-35{fill:#72a72a;}.cls-36{stroke-width:1.43px;}.cls-37{fill:#8acc2b;}.cls-38{fill:#82b823;}.cls-39{fill:#7c9e2a;}.cls-40{stroke-width:1.41px;}</style></defs><title>about-city01</title><g class="cls-1"><g id="圖層_2" data-name="圖層 2"><g id="關於"><rect class="cls-2" x="0.75" y="282.4" width="1917.19" height="19.74"/><line class="cls-3" x1="0.75" y1="282.4" x2="1917.94" y2="282.4"/><polygon class="cls-4" points="439 291.2 392.69 291.2 392.69 8.69 439 38.01 439 291.2"/><rect class="cls-5" x="396.31" y="54.01" width="39.33" height="1.78"/><polygon class="cls-5" points="439.27 51.6 392.69 51.6 392.69 58.2 439.27 58.2 439.27 51.6 439.27 51.6"/><rect class="cls-5" x="396.31" y="70.39" width="39.33" height="1.78"/><polygon class="cls-5" points="439.27 67.98 392.69 67.98 392.69 74.58 439.27 74.58 439.27 67.98 439.27 67.98"/><rect class="cls-5" x="396.31" y="86.77" width="39.33" height="1.78"/><polygon class="cls-5" points="439.27 84.37 392.69 84.37 392.69 90.96 439.27 90.96 439.27 84.37 439.27 84.37"/><rect class="cls-5" x="396.31" y="103.15" width="39.33" height="1.78"/><polygon class="cls-5" points="439.27 100.75 392.69 100.75 392.69 107.34 439.27 107.34 439.27 100.75 439.27 100.75"/><rect class="cls-5" x="396.31" y="119.54" width="39.33" height="1.78"/><polygon class="cls-5" points="439.27 117.13 392.69 117.13 392.69 123.73 439.27 123.73 439.27 117.13 439.27 117.13"/><rect class="cls-5" x="396.31" y="135.92" width="39.33" height="1.78"/><polygon class="cls-5" points="439.27 133.51 392.69 133.51 392.69 140.11 439.27 140.11 439.27 133.51 439.27 133.51"/><rect class="cls-5" x="396.31" y="151.21" width="39.33" height="1.78"/><polygon class="cls-5" points="439.27 148.8 392.69 148.8 392.69 155.4 439.27 155.4 439.27 148.8 439.27 148.8"/><rect class="cls-5" x="396.31" y="167.59" width="39.33" height="1.78"/><polygon class="cls-5" points="439.27 165.18 392.69 165.18 392.69 171.78 439.27 171.78 439.27 165.18 439.27 165.18"/><rect class="cls-5" x="396.31" y="183.97" width="39.33" height="1.78"/><polygon class="cls-5" points="439.27 181.56 392.69 181.56 392.69 188.16 439.27 188.16 439.27 181.56 439.27 181.56"/><rect class="cls-5" x="396.31" y="200.35" width="39.33" height="1.78"/><polygon class="cls-5" points="439.27 197.95 392.69 197.95 392.69 204.54 439.27 204.54 439.27 197.95 439.27 197.95"/><rect class="cls-5" x="396.31" y="216.74" width="39.33" height="1.78"/><polygon class="cls-5" points="439.27 214.33 392.69 214.33 392.69 220.93 439.27 220.93 439.27 214.33 439.27 214.33"/><rect class="cls-5" x="396.31" y="233.12" width="39.33" height="1.78"/><polygon class="cls-5" points="439.27 230.71 392.69 230.71 392.69 237.31 439.27 237.31 439.27 230.71 439.27 230.71"/><polygon class="cls-6" points="392.69 8.69 409.06 0.94 451.56 29.34 439 38.01 392.69 8.69"/><polygon class="cls-6" points="451.56 29.34 451.56 72.17 439 79.89 439 38.01 451.56 29.34"/><line class="cls-7" x1="445.28" y1="42.85" x2="445.28" y2="75.44"/><g class="cls-8"><polygon class="cls-9" points="392.8 114.87 392.8 95.91 438.9 144.45 438.9 163.41 392.8 114.87"/><polygon class="cls-9" points="438.9 103.85 438.9 136.06 392.8 87.51 392.8 54.41 438.9 103.85"/></g><polygon class="cls-4" points="425.72 291.2 468.29 291.2 468.29 62.98 425.72 88.38 425.72 291.2"/><polygon class="cls-10" points="456.06 70.27 456.06 291.2 468.29 291.2 468.29 62.48 456.06 70.27"/><line class="cls-11" x1="430.26" y1="88.31" x2="430.26" y2="289.27"/><line class="cls-11" x1="435.17" y1="85.13" x2="435.17" y2="289.27"/><line class="cls-11" x1="440.29" y1="81.86" x2="440.29" y2="289.27"/><line class="cls-11" x1="445.92" y1="79.12" x2="445.92" y2="289.27"/><line class="cls-11" x1="451.56" y1="75.44" x2="451.56" y2="289.43"/><line class="cls-11" x1="427.25" y1="93.29" x2="454.12" y2="93.29"/><line class="cls-11" x1="427.63" y1="98.67" x2="454.49" y2="98.67"/><line class="cls-11" x1="427.63" y1="104.81" x2="454.49" y2="104.81"/><line class="cls-11" x1="427.63" y1="110.96" x2="454.49" y2="110.96"/><line class="cls-11" x1="427.63" y1="117.1" x2="454.49" y2="117.1"/><line class="cls-11" x1="427.63" y1="123.25" x2="454.49" y2="123.25"/><line class="cls-11" x1="427.63" y1="129.39" x2="454.49" y2="129.39"/><line class="cls-11" x1="427.63" y1="135.53" x2="454.49" y2="135.53"/><line class="cls-11" x1="427.63" y1="141.68" x2="454.49" y2="141.68"/><line class="cls-11" x1="427.63" y1="147.82" x2="454.49" y2="147.82"/><line class="cls-11" x1="427.63" y1="153.97" x2="454.49" y2="153.97"/><line class="cls-11" x1="427.63" y1="160.11" x2="454.49" y2="160.11"/><line class="cls-11" x1="427.63" y1="166.26" x2="454.49" y2="166.26"/><line class="cls-11" x1="427.63" y1="172.4" x2="454.49" y2="172.4"/><line class="cls-11" x1="427.63" y1="178.55" x2="454.49" y2="178.55"/><line class="cls-11" x1="427.63" y1="184.69" x2="454.49" y2="184.69"/><line class="cls-11" x1="427.63" y1="190.84" x2="454.49" y2="190.84"/><line class="cls-11" x1="427.63" y1="196.98" x2="454.49" y2="196.98"/><line class="cls-11" x1="427.63" y1="203.13" x2="454.49" y2="203.13"/><line class="cls-11" x1="427.63" y1="209.27" x2="454.49" y2="209.27"/><line class="cls-11" x1="427.63" y1="215.42" x2="454.49" y2="215.42"/><line class="cls-11" x1="427.63" y1="221.56" x2="454.49" y2="221.56"/><line class="cls-11" x1="427.63" y1="227.71" x2="454.49" y2="227.71"/><line class="cls-11" x1="427.63" y1="233.85" x2="454.49" y2="233.85"/><line class="cls-11" x1="427.63" y1="240" x2="454.49" y2="240"/><line class="cls-11" x1="427.63" y1="246.14" x2="454.49" y2="246.14"/><line class="cls-11" x1="427.63" y1="252.29" x2="454.49" y2="252.29"/><line class="cls-11" x1="427.63" y1="258.43" x2="454.49" y2="258.43"/><line class="cls-11" x1="427.63" y1="264.58" x2="454.49" y2="264.58"/><line class="cls-11" x1="427.63" y1="270.72" x2="454.49" y2="270.72"/><line class="cls-11" x1="427.63" y1="276.87" x2="454.49" y2="276.87"/><g class="cls-8"><polygon class="cls-9" points="456.07 170.03 456.07 157.68 426.05 189.29 426.05 201.64 456.07 170.03"/><polygon class="cls-9" points="426.05 162.86 426.05 183.82 456.07 152.22 456.07 130.66 426.05 162.86"/></g><rect class="cls-12" x="315.33" y="81.24" width="26.74" height="22.04"/><rect class="cls-13" x="314.42" y="79.03" width="28.56" height="2.21"/><rect class="cls-14" x="303.56" y="94.57" width="50.27" height="22.04"/><rect class="cls-13" x="302.05" y="91.81" width="53.29" height="2.76"/><rect class="cls-12" x="284.38" y="111.41" width="88.63" height="180.84"/><rect class="cls-13" x="282.8" y="107.95" width="91.8" height="3.47"/><path class="cls-15" d="M311.33,96.46a3.94,3.94,0,0,0-3.89,4V108h7.78v-7.49A3.94,3.94,0,0,0,311.33,96.46Z"/><path class="cls-15" d="M322.91,96.46a3.94,3.94,0,0,0-3.89,4V108h7.78v-7.49A3.94,3.94,0,0,0,322.91,96.46Z"/><path class="cls-15" d="M334.49,96.46a4,4,0,0,0-3.9,4V108h7.79v-7.49A3.94,3.94,0,0,0,334.49,96.46Z"/><path class="cls-15" d="M346.06,96.46a3.94,3.94,0,0,0-3.89,4V108H350v-7.49A4,4,0,0,0,346.06,96.46Z"/><rect class="cls-16" x="317.7" y="80.72" width="1.32" height="11.54"/><rect class="cls-16" x="324.48" y="80.72" width="1.32" height="11.54"/><rect class="cls-16" x="331.27" y="80.72" width="1.32" height="11.54"/><rect class="cls-16" x="338.05" y="80.72" width="1.32" height="11.54"/><rect class="cls-17" x="308.15" y="261.73" width="40.5" height="30.52"/><g class="cls-18"><polygon class="cls-19" points="340.35 263.4 340.35 262.71 337.42 262.71 310.44 291.28 314.02 291.28 340.35 263.4"/><polygon class="cls-19" points="308.9 280.64 308.9 288.84 333.57 262.71 325.83 262.71 308.9 280.64"/></g><line class="cls-20" x1="328.7" y1="262.72" x2="328.7" y2="291.44"/><polygon class="cls-21" points="293.03 136.48 294.44 136.48 294.44 136.53 303.89 136.53 303.89 136.48 303.89 119.68 303.89 118.75 293.03 118.75 293.03 136.48"/><polygon class="cls-21" points="308.15 136.39 309.56 136.39 309.56 136.44 319.02 136.44 319.02 136.39 319.02 119.6 319.02 118.67 308.15 118.67 308.15 136.39"/><polygon class="cls-21" points="338.38 136.39 339.8 136.39 339.8 136.44 349.25 136.44 349.25 136.39 349.25 119.6 349.25 118.67 338.38 118.67 338.38 136.39"/><polygon class="cls-21" points="353.51 118.75 353.51 136.48 354.92 136.48 354.92 136.53 364.37 136.53 364.37 136.48 364.37 119.68 364.37 118.75 353.51 118.75"/><polygon class="cls-21" points="324.69 136.53 334.13 136.53 334.13 136.48 334.13 119.68 334.13 118.75 323.27 118.75 323.27 136.48 324.69 136.48 324.69 136.53"/><polygon class="cls-21" points="293.03 160.89 294.44 160.89 294.44 160.94 303.89 160.94 303.89 160.89 303.89 144.09 303.89 143.16 293.03 143.16 293.03 160.89"/><polygon class="cls-21" points="308.15 160.8 309.56 160.8 309.56 160.85 319.02 160.85 319.02 160.8 319.02 144.01 319.02 143.08 308.15 143.08 308.15 160.8"/><polygon class="cls-21" points="338.38 160.8 339.8 160.8 339.8 160.85 349.25 160.85 349.25 160.8 349.25 144.01 349.25 143.08 338.38 143.08 338.38 160.8"/><polygon class="cls-21" points="353.51 143.16 353.51 160.89 354.92 160.89 354.92 160.94 364.37 160.94 364.37 160.89 364.37 144.09 364.37 143.16 353.51 143.16"/><polygon class="cls-21" points="324.69 160.94 334.13 160.94 334.13 160.89 334.13 144.09 334.13 143.16 323.27 143.16 323.27 160.89 324.69 160.89 324.69 160.94"/><polygon class="cls-21" points="293.03 185.3 294.44 185.3 294.44 185.35 303.89 185.35 303.89 185.3 303.89 168.5 303.89 167.57 293.03 167.57 293.03 185.3"/><polygon class="cls-21" points="308.15 185.21 309.56 185.21 309.56 185.26 319.02 185.26 319.02 185.21 319.02 168.42 319.02 167.49 308.15 167.49 308.15 185.21"/><polygon class="cls-21" points="338.38 185.21 339.8 185.21 339.8 185.26 349.25 185.26 349.25 185.21 349.25 168.42 349.25 167.49 338.38 167.49 338.38 185.21"/><polygon class="cls-21" points="353.51 167.57 353.51 185.3 354.92 185.3 354.92 185.35 364.37 185.35 364.37 185.3 364.37 168.5 364.37 167.57 353.51 167.57"/><polygon class="cls-21" points="324.69 185.35 334.13 185.35 334.13 185.3 334.13 168.5 334.13 167.57 323.27 167.57 323.27 185.3 324.69 185.3 324.69 185.35"/><polygon class="cls-21" points="293.03 209.71 294.44 209.71 294.44 209.76 303.89 209.76 303.89 209.71 303.89 192.91 303.89 191.98 293.03 191.98 293.03 209.71"/><polygon class="cls-21" points="308.15 209.62 309.56 209.62 309.56 209.67 319.02 209.67 319.02 209.62 319.02 192.83 319.02 191.9 308.15 191.9 308.15 209.62"/><polygon class="cls-21" points="338.38 209.62 339.8 209.62 339.8 209.67 349.25 209.67 349.25 209.62 349.25 192.83 349.25 191.9 338.38 191.9 338.38 209.62"/><polygon class="cls-21" points="353.51 191.98 353.51 209.71 354.92 209.71 354.92 209.76 364.37 209.76 364.37 209.71 364.37 192.91 364.37 191.98 353.51 191.98"/><polygon class="cls-21" points="324.69 209.76 334.13 209.76 334.13 209.71 334.13 192.91 334.13 191.98 323.27 191.98 323.27 209.71 324.69 209.71 324.69 209.76"/><polygon class="cls-21" points="293.03 234.12 294.44 234.12 294.44 234.17 303.89 234.17 303.89 234.12 303.89 217.32 303.89 216.39 293.03 216.39 293.03 234.12"/><polygon class="cls-21" points="308.15 234.03 309.56 234.03 309.56 234.08 319.02 234.08 319.02 234.03 319.02 217.24 319.02 216.31 308.15 216.31 308.15 234.03"/><polygon class="cls-21" points="338.38 234.03 339.8 234.03 339.8 234.08 349.25 234.08 349.25 234.03 349.25 217.24 349.25 216.31 338.38 216.31 338.38 234.03"/><polygon class="cls-21" points="353.51 216.39 353.51 234.12 354.92 234.12 354.92 234.17 364.37 234.17 364.37 234.12 364.37 217.32 364.37 216.39 353.51 216.39"/><polygon class="cls-21" points="324.69 234.17 334.13 234.17 334.13 234.12 334.13 217.32 334.13 216.39 323.27 216.39 323.27 234.12 324.69 234.12 324.69 234.17"/><polygon class="cls-21" points="293.03 258.53 294.44 258.53 294.44 258.58 303.89 258.58 303.89 258.53 303.89 241.73 303.89 240.8 293.03 240.8 293.03 258.53"/><polygon class="cls-21" points="308.15 258.44 309.56 258.44 309.56 258.49 319.02 258.49 319.02 258.44 319.02 241.65 319.02 240.72 308.15 240.72 308.15 258.44"/><polygon class="cls-21" points="338.38 258.44 339.8 258.44 339.8 258.49 349.25 258.49 349.25 258.44 349.25 241.65 349.25 240.72 338.38 240.72 338.38 258.44"/><polygon class="cls-21" points="353.51 240.8 353.51 258.53 354.92 258.53 354.92 258.58 364.37 258.58 364.37 258.53 364.37 241.73 364.37 240.8 353.51 240.8"/><polygon class="cls-21" points="324.69 258.58 334.13 258.58 334.13 258.53 334.13 241.73 334.13 240.8 323.27 240.8 323.27 258.53 324.69 258.53 324.69 258.58"/><polygon class="cls-17" points="293.03 134.04 294.44 134.04 294.44 134.09 303.89 134.09 303.89 134.04 303.89 117.24 303.89 116.31 293.03 116.31 293.03 134.04"/><polygon class="cls-17" points="308.15 133.95 309.56 133.95 309.56 134 319.02 134 319.02 133.95 319.02 117.16 319.02 116.22 308.15 116.22 308.15 133.95"/><polygon class="cls-17" points="338.38 133.95 339.8 133.95 339.8 134 349.25 134 349.25 133.95 349.25 117.16 349.25 116.22 338.38 116.22 338.38 133.95"/><polygon class="cls-17" points="353.51 116.31 353.51 134.04 354.92 134.04 354.92 134.09 364.37 134.09 364.37 134.04 364.37 117.24 364.37 116.31 353.51 116.31"/><polygon class="cls-17" points="324.69 134.09 334.13 134.09 334.13 134.04 334.13 117.24 334.13 116.31 323.27 116.31 323.27 134.04 324.69 134.04 324.69 134.09"/><polygon class="cls-17" points="293.03 158.45 294.44 158.45 294.44 158.5 303.89 158.5 303.89 158.45 303.89 141.65 303.89 140.72 293.03 140.72 293.03 158.45"/><polygon class="cls-17" points="308.15 158.36 309.56 158.36 309.56 158.41 319.02 158.41 319.02 158.36 319.02 141.57 319.02 140.63 308.15 140.63 308.15 158.36"/><polygon class="cls-17" points="338.38 158.36 339.8 158.36 339.8 158.41 349.25 158.41 349.25 158.36 349.25 141.57 349.25 140.63 338.38 140.63 338.38 158.36"/><polygon class="cls-17" points="353.51 140.72 353.51 158.45 354.92 158.45 354.92 158.5 364.37 158.5 364.37 158.45 364.37 141.65 364.37 140.72 353.51 140.72"/><polygon class="cls-17" points="324.69 158.5 334.13 158.5 334.13 158.45 334.13 141.65 334.13 140.72 323.27 140.72 323.27 158.45 324.69 158.45 324.69 158.5"/><polygon class="cls-17" points="293.03 182.86 294.44 182.86 294.44 182.91 303.89 182.91 303.89 182.86 303.89 166.06 303.89 165.13 293.03 165.13 293.03 182.86"/><polygon class="cls-17" points="308.15 182.77 309.56 182.77 309.56 182.81 319.02 182.81 319.02 182.77 319.02 165.98 319.02 165.04 308.15 165.04 308.15 182.77"/><polygon class="cls-17" points="338.38 182.77 339.8 182.77 339.8 182.81 349.25 182.81 349.25 182.77 349.25 165.98 349.25 165.04 338.38 165.04 338.38 182.77"/><polygon class="cls-17" points="353.51 165.13 353.51 182.86 354.92 182.86 354.92 182.91 364.37 182.91 364.37 182.86 364.37 166.06 364.37 165.13 353.51 165.13"/><polygon class="cls-17" points="324.69 182.91 334.13 182.91 334.13 182.86 334.13 166.06 334.13 165.13 323.27 165.13 323.27 182.86 324.69 182.86 324.69 182.91"/><polygon class="cls-17" points="293.03 207.27 294.44 207.27 294.44 207.32 303.89 207.32 303.89 207.27 303.89 190.47 303.89 189.54 293.03 189.54 293.03 207.27"/><polygon class="cls-17" points="308.15 207.18 309.56 207.18 309.56 207.22 319.02 207.22 319.02 207.18 319.02 190.39 319.02 189.46 308.15 189.46 308.15 207.18"/><polygon class="cls-17" points="338.38 207.18 339.8 207.18 339.8 207.22 349.25 207.22 349.25 207.18 349.25 190.39 349.25 189.46 338.38 189.46 338.38 207.18"/><polygon class="cls-17" points="353.51 189.54 353.51 207.27 354.92 207.27 354.92 207.32 364.37 207.32 364.37 207.27 364.37 190.47 364.37 189.54 353.51 189.54"/><polygon class="cls-17" points="324.69 207.32 334.13 207.32 334.13 207.27 334.13 190.47 334.13 189.54 323.27 189.54 323.27 207.27 324.69 207.27 324.69 207.32"/><polygon class="cls-17" points="293.03 231.68 294.44 231.68 294.44 231.73 303.89 231.73 303.89 231.68 303.89 214.88 303.89 213.95 293.03 213.95 293.03 231.68"/><polygon class="cls-17" points="308.15 231.59 309.56 231.59 309.56 231.63 319.02 231.63 319.02 231.59 319.02 214.8 319.02 213.87 308.15 213.87 308.15 231.59"/><polygon class="cls-17" points="338.38 231.59 339.8 231.59 339.8 231.63 349.25 231.63 349.25 231.59 349.25 214.8 349.25 213.87 338.38 213.87 338.38 231.59"/><polygon class="cls-17" points="353.51 213.95 353.51 231.68 354.92 231.68 354.92 231.73 364.37 231.73 364.37 231.68 364.37 214.88 364.37 213.95 353.51 213.95"/><polygon class="cls-17" points="324.69 231.73 334.13 231.73 334.13 231.68 334.13 214.88 334.13 213.95 323.27 213.95 323.27 231.68 324.69 231.68 324.69 231.73"/><polygon class="cls-17" points="293.03 256.09 294.44 256.09 294.44 256.14 303.89 256.14 303.89 256.09 303.89 239.29 303.89 238.36 293.03 238.36 293.03 256.09"/><polygon class="cls-17" points="308.15 256 309.56 256 309.56 256.05 319.02 256.05 319.02 256 319.02 239.21 319.02 238.28 308.15 238.28 308.15 256"/><polygon class="cls-17" points="338.38 256 339.8 256 339.8 256.05 349.25 256.05 349.25 256 349.25 239.21 349.25 238.28 338.38 238.28 338.38 256"/><polygon class="cls-17" points="353.51 238.36 353.51 256.09 354.92 256.09 354.92 256.14 364.37 256.14 364.37 256.09 364.37 239.29 364.37 238.36 353.51 238.36"/><polygon class="cls-17" points="324.69 256.14 334.13 256.14 334.13 256.09 334.13 239.29 334.13 238.36 323.27 238.36 323.27 256.09 324.69 256.09 324.69 256.14"/><path class="cls-22" d="M1433.12,290.28a2.5,2.5,0,0,1-1.06-3c.61-1.4,1.26-.67,2.12-.08-.62-2.59-.59-7.06,1-9.13,1.39-1.75,4.13.3,5.06,2.06.72-1.16,1.07-2.61,2.59-2.45,1,.11,1.45,1.19,2.34,1.5-.62-2.59.74-7.26,3-8.14,2.73-1.06,3.73,2.59,3.73,5.06.91-4.11,3.46-.49,4.44,1.32.61-.67.89-1.84,1.94-1.51.68.21,1.23,1.44,1.36,2.21.38-2.85,3.44-7,6-6.11s2.46,4.06,2.5,6.61c.71-1.75,3.21-1.48,4.16-.24s.81,3.95,0,5.27c1.28-1.31,2.5-3.92,4.45-2.84,2.51,1.39.63,4.53.17,6.65.29-1.27,4-1,4.14.46.17,1.31-1.87,2.3-2.87,2.41Z"/><path class="cls-23" d="M1481.21,118c-13.84,0-25,12.32-25,27.51h50.1C1506.26,130.28,1495,118,1481.21,118Z"/><path class="cls-24" d="M1483.46,141.38c0,10.54-1.12,19.09-2.5,19.09s-2.49-8.55-2.49-19.09,1.12-19.07,2.49-19.07S1483.46,130.85,1483.46,141.38Z"/><path class="cls-24" d="M1471.91,141.38c0,10.72,2.62,19.45,1.32,20s-6.36-8.06-6.31-20,5.13-20.64,6.31-20S1471.91,130.67,1471.91,141.38Z"/><path class="cls-24" d="M1490,141.38c0,10.72-2.63,19.45-1.32,20s6.36-8.06,6.31-20-5.14-20.64-6.31-20S1490,130.67,1490,141.38Z"/><polygon class="cls-25" points="1505.85 156.89 1513.09 156.89 1513.09 290.57 1450.65 290.57 1450.65 156.89 1457.89 156.89 1505.85 156.89"/><rect class="cls-26" x="1463.98" y="157.63" width="7.2" height="74.91"/><rect class="cls-26" x="1478.08" y="157.63" width="7.2" height="74.91"/><rect class="cls-26" x="1492.18" y="157.63" width="7.2" height="74.91"/><rect class="cls-27" x="1450.65" y="241.41" width="62.43" height="49.16"/><polygon class="cls-28" points="1493.12 191.47 1499.38 191.47 1499.38 191.41 1499.38 170.17 1499.38 169 1492.18 169 1492.18 191.41 1493.12 191.41 1493.12 191.47"/><polygon class="cls-28" points="1493.12 221.79 1499.38 221.79 1499.38 221.73 1499.38 200.49 1499.38 199.32 1492.18 199.32 1492.18 221.73 1493.12 221.73 1493.12 221.79"/><polygon class="cls-28" points="1479.02 191.47 1485.28 191.47 1485.28 191.41 1485.28 170.17 1485.28 169 1478.08 169 1478.08 191.41 1479.02 191.41 1479.02 191.47"/><polygon class="cls-28" points="1479.02 221.79 1485.28 221.79 1485.28 221.73 1485.28 200.49 1485.28 199.32 1478.08 199.32 1478.08 221.73 1479.02 221.73 1479.02 221.79"/><polygon class="cls-28" points="1464.92 191.47 1471.18 191.47 1471.18 191.41 1471.18 170.17 1471.18 169 1463.98 169 1463.98 191.41 1464.92 191.41 1464.92 191.47"/><polygon class="cls-28" points="1464.92 221.79 1471.18 221.79 1471.18 221.73 1471.18 200.49 1471.18 199.32 1463.98 199.32 1463.98 221.73 1464.92 221.73 1464.92 221.79"/><rect class="cls-29" x="1456.52" y="249.54" width="50.73" height="41.03"/><rect class="cls-30" x="1449.17" y="241.41" width="66.04" height="7.96"/><rect class="cls-31" x="1448.66" y="148.93" width="66.04" height="7.96"/><rect class="cls-23" x="1445.62" y="146.19" width="71.58" height="2.73"/><rect class="cls-32" x="1450.65" y="233.29" width="62.43" height="8.13"/><rect class="cls-33" x="1451.47" y="234.26" width="60.77" height="2.64"/><line class="cls-20" x1="1457.27" y1="263.42" x2="1507" y2="263.42"/><line class="cls-20" x1="1466.92" y1="249.54" x2="1466.92" y2="290.28"/><line class="cls-20" x1="1497.27" y1="249.54" x2="1497.27" y2="290.28"/><line class="cls-20" x1="1481.86" y1="249.54" x2="1481.86" y2="290.28"/><g class="cls-18"><polygon class="cls-19" points="1500.92 251.25 1500.92 250.28 1496.81 250.28 1459.03 290.28 1464.06 290.28 1500.92 251.25"/><polygon class="cls-19" points="1456.88 275.38 1456.88 286.87 1491.43 250.28 1480.59 250.28 1456.88 275.38"/></g><path class="cls-34" d="M1114.25,265.18c-14.07,5.41-17.67.8-23.1-4.21a14.77,14.77,0,0,1-10.46,7c-12.88,1.65-30.83-30.35-7.69-41-3.75-19.29,28.25-22.35,36.63-14.86,1.53,1.37,6.43,6.2,5.43,8.25-.59,1.17,6.81-2,11.66,16.11C1130.4,252.22,1118.5,263.54,1114.25,265.18Z"/><path class="cls-35" d="M1114.25,265.18c-14.07,5.41-17.67.8-23.1-4.21a14.77,14.77,0,0,1-10.46,7c-9.85,1.26-22.68-17.16-17.79-30.66.21,15.51,25.41,26,28.6,12.78,2.24,11.72,26.86,8.28,24.12-3.18,5.41.08,9.24-4.81,11.1-10.43.12.51.26,1,.39,1.56C1130.14,250.55,1119.49,263.17,1114.25,265.18Z"/><path class="cls-36" d="M1114.25,265.18c-14.07,5.41-17.67.8-23.1-4.21a14.77,14.77,0,0,1-10.46,7c-12.88,1.65-30.83-30.35-7.69-41-3.75-19.29,28.25-22.35,36.63-14.86,1.53,1.37,6.43,6.2,5.43,8.25-.59,1.17,6.81-2,11.66,16.11C1130.4,252.22,1118.5,263.54,1114.25,265.18Z"/><path class="cls-37" d="M1091.82,219.59a4,4,0,0,0-.91.94,4.52,4.52,0,0,0-.88,2.38,6.12,6.12,0,0,0,.25,2.08,1.94,1.94,0,0,0,.84,1.2c.4.21,1,.05,1.48-.58a4.54,4.54,0,0,0,.82-2.62,4.07,4.07,0,0,0-.83-2.41A9,9,0,0,0,1091.82,219.59Z"/><path class="cls-37" d="M1086.59,220a4.52,4.52,0,0,0-.5,3.2c.49,1.52,1.49,2.56,2.26,2.31s1-1.68.5-3.21A4.52,4.52,0,0,0,1086.59,220Z"/><path class="cls-37" d="M1081.25,222.88a4.68,4.68,0,0,0,0,1.15,3.82,3.82,0,0,0,1,2.07c1.13,1.13,2.31,1.63,3,1.18s.34-2.07-.9-3.31a3.94,3.94,0,0,0-2-1A6.42,6.42,0,0,0,1081.25,222.88Z"/><path class="cls-37" d="M1079.25,228.22a3.87,3.87,0,0,0,1.89,1.89c1.17.49,2.35.42,2.64-.2s-.5-1.54-1.79-2.08A3.7,3.7,0,0,0,1079.25,228.22Z"/><path class="cls-37" d="M1097.36,224.57a2.46,2.46,0,0,0-1.7.37c-.67.45-1,1.12-.83,1.5s1,.29,1.78-.25A2.39,2.39,0,0,0,1097.36,224.57Z"/><path class="cls-37" d="M1111.84,240.12a2.71,2.71,0,0,0-.77.33,3,3,0,0,0-1.11,1.19,3.91,3.91,0,0,0-.37,1.28,1.26,1.26,0,0,0,.2.91c.19.23.56.28,1,0a2.81,2.81,0,0,0,1.12-1.34,2.65,2.65,0,0,0,.12-1.62A6.55,6.55,0,0,0,1111.84,240.12Z"/><path class="cls-37" d="M1104.81,239.45a2.73,2.73,0,0,0-.26.68,2.37,2.37,0,0,0,0,1.46c.38.94,1,1.53,1.5,1.45s.71-1.14.29-2.17a2.46,2.46,0,0,0-.94-1.06A3.49,3.49,0,0,0,1104.81,239.45Z"/><path class="cls-37" d="M1102.31,242.09a2.44,2.44,0,0,0,.64,1.58c.57.58,1.28.83,1.61.54s.08-1-.54-1.67A2.35,2.35,0,0,0,1102.31,242.09Z"/><path class="cls-37" d="M1113.86,244.43a1.57,1.57,0,0,0-1.09-.21c-.5.1-.88.41-.86.68s.52.42,1.11.3A1.53,1.53,0,0,0,1113.86,244.43Z"/><path class="cls-16" d="M1083.44,260.39s9.2,1.79,9.2,15.82.5,14.35.5,14.35a6.84,6.84,0,0,1-3.63,3.27c-1.6.57-.77.36,5.09.36,4.35,0,6.05.39,5-.18-1.36-.72-2.91-1.76-3-3.27-.32-6.15-2-16.47-.08-22.76s10.48-8.43,9.68-9.19-9.22,5.32-9.69,5.14,2.72-10.25,3.45-12.43-1.18-.81-1.82.73-3.17,10.88-3.9,11.34-3-13.88-4.17-14.33-1,.33-1,1.63,4.31,11.79,3.1,12.27-5.7-3.17-7.63-3.66S1083.44,260.39,1083.44,260.39Z"/><path class="cls-34" d="M557.75,265.18c-14.07,5.41-17.67.8-23.1-4.21a14.77,14.77,0,0,1-10.46,7c-12.88,1.65-30.83-30.35-7.69-41-3.75-19.29,28.25-22.35,36.63-14.86,1.53,1.37,6.43,6.2,5.43,8.25-.59,1.17,6.81-2,11.66,16.11C573.9,252.22,562,263.54,557.75,265.18Z"/><path class="cls-35" d="M557.75,265.18c-14.07,5.41-17.67.8-23.1-4.21a14.77,14.77,0,0,1-10.46,7c-9.85,1.26-22.68-17.16-17.79-30.66.21,15.51,25.41,26,28.6,12.78,2.24,11.72,26.86,8.28,24.12-3.18,5.41.08,9.24-4.81,11.1-10.43.12.51.26,1,.39,1.56C573.64,250.55,563,263.17,557.75,265.18Z"/><path class="cls-36" d="M557.75,265.18c-14.07,5.41-17.67.8-23.1-4.21a14.77,14.77,0,0,1-10.46,7c-12.88,1.65-30.83-30.35-7.69-41-3.75-19.29,28.25-22.35,36.63-14.86,1.53,1.37,6.43,6.2,5.43,8.25-.59,1.17,6.81-2,11.66,16.11C573.9,252.22,562,263.54,557.75,265.18Z"/><path class="cls-37" d="M535.32,219.59a4,4,0,0,0-.91.94,4.52,4.52,0,0,0-.88,2.38,6.12,6.12,0,0,0,.25,2.08,1.94,1.94,0,0,0,.84,1.2c.4.21,1,.05,1.48-.58a4.54,4.54,0,0,0,.82-2.62,4.07,4.07,0,0,0-.83-2.41A9,9,0,0,0,535.32,219.59Z"/><path class="cls-37" d="M530.09,220a4.52,4.52,0,0,0-.5,3.2c.49,1.52,1.49,2.56,2.26,2.31s1-1.68.5-3.21A4.52,4.52,0,0,0,530.09,220Z"/><path class="cls-37" d="M524.75,222.88a4.68,4.68,0,0,0,0,1.15,3.82,3.82,0,0,0,1,2.07c1.13,1.13,2.31,1.63,3,1.18s.34-2.07-.9-3.31a3.94,3.94,0,0,0-2-1A6.42,6.42,0,0,0,524.75,222.88Z"/><path class="cls-37" d="M522.75,228.22a3.87,3.87,0,0,0,1.89,1.89c1.17.49,2.35.42,2.64-.2s-.5-1.54-1.79-2.08A3.7,3.7,0,0,0,522.75,228.22Z"/><path class="cls-37" d="M540.86,224.57a2.46,2.46,0,0,0-1.7.37c-.67.45-1,1.12-.83,1.5s1,.29,1.78-.25A2.39,2.39,0,0,0,540.86,224.57Z"/><path class="cls-37" d="M555.34,240.12a2.71,2.71,0,0,0-.77.33,3,3,0,0,0-1.11,1.19,3.91,3.91,0,0,0-.37,1.28,1.26,1.26,0,0,0,.2.91c.19.23.56.28,1,0a2.81,2.81,0,0,0,1.12-1.34,2.65,2.65,0,0,0,.12-1.62A6.55,6.55,0,0,0,555.34,240.12Z"/><path class="cls-37" d="M548.31,239.45a2.73,2.73,0,0,0-.26.68,2.37,2.37,0,0,0,.05,1.46c.38.94.95,1.53,1.5,1.45s.71-1.14.29-2.17a2.46,2.46,0,0,0-.94-1.06A3.49,3.49,0,0,0,548.31,239.45Z"/><path class="cls-37" d="M545.81,242.09a2.44,2.44,0,0,0,.64,1.58c.57.58,1.28.83,1.61.54s.08-1-.54-1.67A2.35,2.35,0,0,0,545.81,242.09Z"/><path class="cls-37" d="M557.36,244.43a1.57,1.57,0,0,0-1.09-.21c-.5.1-.88.41-.86.68s.52.42,1.11.3A1.53,1.53,0,0,0,557.36,244.43Z"/><path class="cls-16" d="M526.94,260.39s9.2,1.79,9.2,15.82.5,14.35.5,14.35a6.84,6.84,0,0,1-3.63,3.27c-1.6.57-.77.36,5.09.36,4.35,0,6,.39,5-.18-1.36-.72-2.91-1.76-3-3.27-.32-6.15-2-16.47-.08-22.76s10.48-8.43,9.68-9.19-9.22,5.32-9.69,5.14,2.72-10.25,3.45-12.43-1.18-.81-1.82.73-3.17,10.88-3.9,11.34-3-13.88-4.17-14.33-1,.33-1,1.63,4.31,11.79,3.1,12.27S530,260,528,259.48,526.94,260.39,526.94,260.39Z"/><path class="cls-34" d="M1691.25,265.18c-14.07,5.41-17.67.8-23.1-4.21a14.77,14.77,0,0,1-10.46,7c-12.88,1.65-30.83-30.35-7.69-41-3.75-19.29,28.25-22.35,36.63-14.86,1.53,1.37,6.43,6.2,5.43,8.25-.59,1.17,6.81-2,11.66,16.11C1707.4,252.22,1695.5,263.54,1691.25,265.18Z"/><path class="cls-35" d="M1691.25,265.18c-14.07,5.41-17.67.8-23.1-4.21a14.77,14.77,0,0,1-10.46,7c-9.85,1.26-22.68-17.16-17.79-30.66.21,15.51,25.41,26,28.6,12.78,2.24,11.72,26.86,8.28,24.12-3.18,5.41.08,9.24-4.81,11.1-10.43.12.51.26,1,.39,1.56C1707.14,250.55,1696.49,263.17,1691.25,265.18Z"/><path class="cls-36" d="M1691.25,265.18c-14.07,5.41-17.67.8-23.1-4.21a14.77,14.77,0,0,1-10.46,7c-12.88,1.65-30.83-30.35-7.69-41-3.75-19.29,28.25-22.35,36.63-14.86,1.53,1.37,6.43,6.2,5.43,8.25-.59,1.17,6.81-2,11.66,16.11C1707.4,252.22,1695.5,263.54,1691.25,265.18Z"/><path class="cls-37" d="M1668.82,219.59a4,4,0,0,0-.91.94,4.52,4.52,0,0,0-.88,2.38,6.12,6.12,0,0,0,.25,2.08,1.94,1.94,0,0,0,.84,1.2c.4.21,1,.05,1.48-.58a4.54,4.54,0,0,0,.82-2.62,4.07,4.07,0,0,0-.83-2.41A9,9,0,0,0,1668.82,219.59Z"/><path class="cls-37" d="M1663.59,220a4.52,4.52,0,0,0-.5,3.2c.49,1.52,1.49,2.56,2.26,2.31s1-1.68.5-3.21A4.52,4.52,0,0,0,1663.59,220Z"/><path class="cls-37" d="M1658.25,222.88a4.68,4.68,0,0,0,0,1.15,3.82,3.82,0,0,0,1,2.07c1.13,1.13,2.31,1.63,3,1.18s.34-2.07-.9-3.31a3.94,3.94,0,0,0-2-1A6.42,6.42,0,0,0,1658.25,222.88Z"/><path class="cls-37" d="M1656.25,228.22a3.87,3.87,0,0,0,1.89,1.89c1.17.49,2.35.42,2.64-.2s-.5-1.54-1.79-2.08A3.7,3.7,0,0,0,1656.25,228.22Z"/><path class="cls-37" d="M1674.36,224.57a2.46,2.46,0,0,0-1.7.37c-.67.45-1,1.12-.83,1.5s1,.29,1.78-.25A2.39,2.39,0,0,0,1674.36,224.57Z"/><path class="cls-37" d="M1688.84,240.12a2.71,2.71,0,0,0-.77.33,3,3,0,0,0-1.11,1.19,3.91,3.91,0,0,0-.37,1.28,1.26,1.26,0,0,0,.2.91c.19.23.56.28,1,0a2.81,2.81,0,0,0,1.12-1.34,2.65,2.65,0,0,0,.12-1.62A6.55,6.55,0,0,0,1688.84,240.12Z"/><path class="cls-37" d="M1681.81,239.45a2.73,2.73,0,0,0-.26.68,2.37,2.37,0,0,0,0,1.46c.38.94,1,1.53,1.5,1.45s.71-1.14.29-2.17a2.46,2.46,0,0,0-.94-1.06A3.49,3.49,0,0,0,1681.81,239.45Z"/><path class="cls-37" d="M1679.31,242.09a2.44,2.44,0,0,0,.64,1.58c.57.58,1.28.83,1.61.54s.08-1-.54-1.67A2.35,2.35,0,0,0,1679.31,242.09Z"/><path class="cls-37" d="M1690.86,244.43a1.57,1.57,0,0,0-1.09-.21c-.5.1-.88.41-.86.68s.52.42,1.11.3A1.53,1.53,0,0,0,1690.86,244.43Z"/><path class="cls-16" d="M1660.44,260.39s9.2,1.79,9.2,15.82.5,14.35.5,14.35a6.84,6.84,0,0,1-3.63,3.27c-1.6.57-.77.36,5.09.36,4.35,0,6.05.39,5-.18-1.36-.72-2.91-1.76-3-3.27-.32-6.15-2-16.47-.08-22.76s10.48-8.43,9.68-9.19-9.22,5.32-9.69,5.14,2.72-10.25,3.45-12.43-1.18-.81-1.82.73-3.17,10.88-3.9,11.34-3-13.88-4.17-14.33-1,.33-1,1.63,4.31,11.79,3.1,12.27-5.7-3.17-7.63-3.66S1660.44,260.39,1660.44,260.39Z"/><path class="cls-38" d="M1717.87,294s.9-6.73-4.71-6.28a3.36,3.36,0,0,0-3.81-3.37s-1.34-4.93-4.93-4.48c0,0-2-5.16-5.39-4.27,0,0-4.48-3.57-8.29-.1,0,0-6.51-1.24-7.18,3.69,0,0-4.49-2.46-5.83,2.25,0,0-4.71-2.52-6.5,2.55,0,0-2-1.93-5.16,0,0,0-1.8-3.9-5.39-2.55,0,0-4.93-6.06-7.4.67,0,0-5.6-1.12-6,3.81,0,0-6.06-.9-5.38,4.49,0,0-6.28-2-4.27,3.59Z"/><path class="cls-39" d="M1644.54,289.84c1.34-3.13,4.71-2,4.71-2-.68-4,4.71-3.82,4.71-3.82,1.57-4.71,5.38.45,5.38.45,3.14-1.34,4,2.21,4,2.21,3.58-1.38,5.15,3.62,5.15,3.62.68-3.58,5.83-1.34,5.83-1.34.9-5.38,5.83-2.28,5.83-2.28-.89-4.75,4.49-3.69,4.49-3.69.22-5.74,7.85-3.45,7.85-3.45,4-2,6.28,2.47,6.28,2.47,4.93-1.13,5.83,2.69,5.83,2.69,4-1.35,5.38,3.14,5.38,3.14,4.75-.82,6.15,3,6.56,5.16H1641C1641.17,290.29,1644.54,289.84,1644.54,289.84Z"/><path class="cls-38" d="M184.12,293.63s-.89-6.73,4.71-6.28a3.35,3.35,0,0,1,3.82-3.36s1.34-4.94,4.93-4.49c0,0,2-5.15,5.38-4.26,0,0,4.49-3.57,8.3-.1,0,0,6.5-1.24,7.18,3.69,0,0,4.48-2.47,5.83,2.24,0,0,4.71-2.51,6.5,2.56,0,0,2-1.94,5.16,0,0,0,1.79-3.9,5.38-2.56,0,0,4.94-6.05,7.4.67,0,0,5.61-1.12,6.06,3.82,0,0,6-.9,5.38,4.48,0,0,6.28-2,4.26,3.59Z"/><path class="cls-39" d="M257.46,289.49c-1.35-3.14-4.71-2-4.71-2,.67-4-4.71-3.81-4.71-3.81-1.57-4.71-5.38.45-5.38.45-3.14-1.35-4,2.21-4,2.21-3.59-1.39-5.16,3.62-5.16,3.62-.67-3.59-5.83-1.34-5.83-1.34-.9-5.39-5.83-2.28-5.83-2.28.9-4.75-4.49-3.69-4.49-3.69-.22-5.75-7.84-3.45-7.84-3.45-4-2-6.28,2.46-6.28,2.46-4.94-1.12-5.84,2.69-5.84,2.69-4-1.34-5.38,3.14-5.38,3.14-4.74-.81-6.15,3-6.56,5.16h75.64C260.82,289.94,257.46,289.49,257.46,289.49Z"/><path class="cls-34" d="M285.5,246.16c1.43.56,3.31,2.12,3,6.49-.61,10.26-8.12,16.22-21.11,17.22-4.08.32-8.5-2.54-8.5-2.54a19.4,19.4,0,0,1-13.68,2.09c-11.65-2.65-19-9-20.06-21.27-.58-6.51,5.4-10.38,5.4-10.38s-5.5-5.71-3.89-12.51,10.72-16.09,21.75-13.61c13.66-13.35,52.15,1.82,41.34,29.78C288.7,244.28,285.08,246,285.5,246.16Z"/><path class="cls-35" d="M285.5,246.16c1.43.56,3.31,2.12,3,6.49-.61,10.26-8.12,16.22-21.11,17.22-4.08.32-8.5-2.54-8.5-2.54a19.4,19.4,0,0,1-13.68,2.09c-10.45-2.38-17.07-7.62-19.32-16.85,4.71,6.35,12.73,10.63,15.91,3.38,1.87,10.51,29.53,9.37,28.58-.63,5.71,2.33,12.88-4.87,7.38-9.48,7.12-.05,11.72-10.05,13.15-19.21a24.22,24.22,0,0,1-1.16,14.8C288.7,244.28,285.08,246,285.5,246.16Z"/><path class="cls-40" d="M285.5,246.16c1.43.56,3.31,2.12,3,6.49-.61,10.26-8.12,16.22-21.11,17.22-4.08.32-8.5-2.54-8.5-2.54a19.4,19.4,0,0,1-13.68,2.09c-11.65-2.65-19-9-20.06-21.27-.58-6.51,5.4-10.38,5.4-10.38s-5.5-5.71-3.89-12.51,10.72-16.09,21.75-13.61c13.66-13.35,52.15,1.82,41.34,29.78C288.7,244.28,285.08,246,285.5,246.16Z"/><path class="cls-16" d="M248.31,260.39s9.2,1.79,9.2,15.82.51,14.35.51,14.35a6.89,6.89,0,0,1-3.63,3.27c-1.61.57-.77.36,5.08.36,4.35,0,6,.39,5-.18-1.36-.72-2.92-1.76-3-3.27-.32-6.15-2-16.47-.07-22.76s10.47-8.43,9.67-9.19-9.22,5.32-9.69,5.14,2.72-10.25,3.45-12.43-1.18-.81-1.81.73-3.18,10.88-3.91,11.34-3-13.88-4.17-14.33-1,.33-1,1.63,4.3,11.79,3.09,12.27-5.69-3.17-7.63-3.66S248.31,260.39,248.31,260.39Z"/><path class="cls-37" d="M260.16,220a4.1,4.1,0,0,1,.89.92,4.37,4.37,0,0,1,.85,2.31,6,6,0,0,1-.24,2,1.86,1.86,0,0,1-.81,1.16c-.4.21-1,0-1.44-.56a4.36,4.36,0,0,1-.8-2.54,4,4,0,0,1,.8-2.34A12.18,12.18,0,0,1,260.16,220Z"/><path class="cls-37" d="M265.24,220.46a4.36,4.36,0,0,1,.48,3.11c-.47,1.47-1.44,2.47-2.19,2.23s-.95-1.63-.48-3.11A4.34,4.34,0,0,1,265.24,220.46Z"/><path class="cls-37" d="M270.42,223.22a4.45,4.45,0,0,1,0,1.12,3.6,3.6,0,0,1-.93,2c-1.1,1.09-2.24,1.58-3,1.14s-.33-2,.88-3.21a3.87,3.87,0,0,1,1.94-.93A7.15,7.15,0,0,1,270.42,223.22Z"/><path class="cls-37" d="M272.36,228.4a3.73,3.73,0,0,1-1.83,1.84c-1.13.47-2.28.4-2.57-.2s.49-1.48,1.74-2A3.58,3.58,0,0,1,272.36,228.4Z"/><path class="cls-37" d="M254.79,224.86a2.39,2.39,0,0,1,1.64.36c.66.44,1,1.09.81,1.46s-1,.28-1.73-.24A2.32,2.32,0,0,1,254.79,224.86Z"/><path class="cls-37" d="M240.73,240a2.62,2.62,0,0,1,.75.32,2.74,2.74,0,0,1,1.08,1.15,3.87,3.87,0,0,1,.35,1.24,1.2,1.2,0,0,1-.19.89c-.18.22-.54.26-1,0a2.79,2.79,0,0,1-1.1-1.29,2.59,2.59,0,0,1-.11-1.58C240.62,240.29,240.73,240,240.73,240Z"/><path class="cls-37" d="M247.56,239.3a3,3,0,0,1,.25.67,2.21,2.21,0,0,1-.05,1.41c-.37.91-.93,1.48-1.45,1.4s-.69-1.09-.28-2.1a2.44,2.44,0,0,1,.91-1A4.76,4.76,0,0,1,247.56,239.3Z"/><path class="cls-37" d="M250,241.87a2.38,2.38,0,0,1-.62,1.53c-.55.56-1.24.8-1.56.52s-.08-1,.53-1.61A2.23,2.23,0,0,1,250,241.87Z"/><path class="cls-37" d="M238.77,244.14a1.5,1.5,0,0,1,1.06-.2c.49.09.86.39.83.66s-.5.4-1.08.28A1.46,1.46,0,0,1,238.77,244.14Z"/><path class="cls-34" d="M841.82,246.16c1.43.56,3.31,2.12,3,6.49-.61,10.26-8.13,16.22-21.12,17.22-4.08.32-8.5-2.54-8.5-2.54a19.4,19.4,0,0,1-13.68,2.09c-11.65-2.65-19-9-20.06-21.27-.58-6.51,5.4-10.38,5.4-10.38s-5.5-5.71-3.89-12.51,10.72-16.09,21.75-13.61c13.66-13.35,52.16,1.82,41.34,29.78C845,244.28,841.4,246,841.82,246.16Z"/><path class="cls-35" d="M841.82,246.16c1.43.56,3.31,2.12,3,6.49-.61,10.26-8.13,16.22-21.12,17.22-4.08.32-8.5-2.54-8.5-2.54a19.4,19.4,0,0,1-13.68,2.09c-10.45-2.38-17.07-7.62-19.31-16.85,4.7,6.35,12.72,10.63,15.9,3.38,1.88,10.51,29.53,9.37,28.58-.63,5.71,2.33,12.88-4.87,7.38-9.48,7.12-.05,11.72-10.05,13.15-19.21a24.22,24.22,0,0,1-1.16,14.8C845,244.28,841.4,246,841.82,246.16Z"/><path class="cls-40" d="M841.82,246.16c1.43.56,3.31,2.12,3,6.49-.61,10.26-8.13,16.22-21.12,17.22-4.08.32-8.5-2.54-8.5-2.54a19.4,19.4,0,0,1-13.68,2.09c-11.65-2.65-19-9-20.06-21.27-.58-6.51,5.4-10.38,5.4-10.38s-5.5-5.71-3.89-12.51,10.72-16.09,21.75-13.61c13.66-13.35,52.16,1.82,41.34,29.78C845,244.28,841.4,246,841.82,246.16Z"/><path class="cls-16" d="M804.63,260.39s9.21,1.79,9.21,15.82.5,14.35.5,14.35a6.89,6.89,0,0,1-3.63,3.27c-1.61.57-.77.36,5.08.36,4.36,0,6.06.39,5-.18-1.36-.72-2.92-1.76-3-3.27-.32-6.15-2-16.47-.08-22.76s10.47-8.43,9.67-9.19-9.22,5.32-9.68,5.14,2.72-10.25,3.44-12.43-1.18-.81-1.81.73-3.18,10.88-3.9,11.34-3-13.88-4.17-14.33-1,.33-1,1.63,4.3,11.79,3.09,12.27-5.69-3.17-7.63-3.66S804.63,260.39,804.63,260.39Z"/><path class="cls-37" d="M816.48,220a3.87,3.87,0,0,1,.89.92,4.29,4.29,0,0,1,.85,2.31,6,6,0,0,1-.24,2,1.86,1.86,0,0,1-.81,1.16c-.39.21-.95,0-1.44-.56a4.36,4.36,0,0,1-.79-2.54,4,4,0,0,1,.79-2.34A12.18,12.18,0,0,1,816.48,220Z"/><path class="cls-37" d="M821.56,220.46a4.4,4.4,0,0,1,.49,3.11c-.48,1.47-1.45,2.47-2.19,2.23s-1-1.63-.49-3.11A4.34,4.34,0,0,1,821.56,220.46Z"/><path class="cls-37" d="M826.74,223.22a4.45,4.45,0,0,1,0,1.12,3.6,3.6,0,0,1-.93,2c-1.09,1.09-2.24,1.58-2.95,1.14s-.33-2,.87-3.21a3.87,3.87,0,0,1,1.94-.93A7.28,7.28,0,0,1,826.74,223.22Z"/><path class="cls-37" d="M828.68,228.4a3.73,3.73,0,0,1-1.83,1.84c-1.13.47-2.28.4-2.57-.2s.49-1.48,1.74-2A3.58,3.58,0,0,1,828.68,228.4Z"/><path class="cls-37" d="M811.11,224.86a2.39,2.39,0,0,1,1.64.36c.66.44,1,1.09.81,1.46s-1,.28-1.73-.24A2.37,2.37,0,0,1,811.11,224.86Z"/><path class="cls-37" d="M797.06,240a2.63,2.63,0,0,1,.74.32,2.74,2.74,0,0,1,1.08,1.15,3.63,3.63,0,0,1,.35,1.24,1.25,1.25,0,0,1-.18.89c-.18.22-.55.26-1,0a2.84,2.84,0,0,1-1.1-1.29,2.59,2.59,0,0,1-.11-1.58A6.32,6.32,0,0,1,797.06,240Z"/><path class="cls-37" d="M803.88,239.3a3,3,0,0,1,.25.67,2.21,2.21,0,0,1,0,1.41c-.37.91-.92,1.48-1.45,1.4s-.69-1.09-.28-2.1a2.44,2.44,0,0,1,.91-1A4.76,4.76,0,0,1,803.88,239.3Z"/><path class="cls-37" d="M806.3,241.87a2.32,2.32,0,0,1-.62,1.53c-.55.56-1.24.8-1.56.52s-.08-1,.53-1.61A2.23,2.23,0,0,1,806.3,241.87Z"/><path class="cls-37" d="M795.09,244.14a1.52,1.52,0,0,1,1.06-.2c.49.09.86.39.83.66s-.5.4-1.07.28A1.49,1.49,0,0,1,795.09,244.14Z"/><path class="cls-34" d="M1400.32,246.16c1.43.56,3.31,2.12,3,6.49-.61,10.26-8.13,16.22-21.12,17.22-4.08.32-8.5-2.54-8.5-2.54a19.4,19.4,0,0,1-13.68,2.09c-11.65-2.65-19-9-20.06-21.27-.58-6.51,5.4-10.38,5.4-10.38s-5.5-5.71-3.89-12.51,10.72-16.09,21.75-13.61c13.66-13.35,52.16,1.82,41.34,29.78C1403.52,244.28,1399.9,246,1400.32,246.16Z"/><path class="cls-35" d="M1400.32,246.16c1.43.56,3.31,2.12,3,6.49-.61,10.26-8.13,16.22-21.12,17.22-4.08.32-8.5-2.54-8.5-2.54a19.4,19.4,0,0,1-13.68,2.09c-10.45-2.38-17.07-7.62-19.31-16.85,4.7,6.35,12.72,10.63,15.9,3.38,1.88,10.51,29.53,9.37,28.58-.63,5.71,2.33,12.88-4.87,7.38-9.48,7.12-.05,11.72-10.05,13.15-19.21a24.22,24.22,0,0,1-1.16,14.8C1403.52,244.28,1399.9,246,1400.32,246.16Z"/><path class="cls-40" d="M1400.32,246.16c1.43.56,3.31,2.12,3,6.49-.61,10.26-8.13,16.22-21.12,17.22-4.08.32-8.5-2.54-8.5-2.54a19.4,19.4,0,0,1-13.68,2.09c-11.65-2.65-19-9-20.06-21.27-.58-6.51,5.4-10.38,5.4-10.38s-5.5-5.71-3.89-12.51,10.72-16.09,21.75-13.61c13.66-13.35,52.16,1.82,41.34,29.78C1403.52,244.28,1399.9,246,1400.32,246.16Z"/><path class="cls-16" d="M1363.13,260.39s9.21,1.79,9.21,15.82.5,14.35.5,14.35a6.89,6.89,0,0,1-3.63,3.27c-1.61.57-.77.36,5.08.36,4.36,0,6.06.39,5-.18-1.36-.72-2.92-1.76-3-3.27-.32-6.15-2-16.47-.08-22.76s10.47-8.43,9.67-9.19-9.22,5.32-9.68,5.14,2.72-10.25,3.44-12.43-1.18-.81-1.81.73-3.18,10.88-3.9,11.34-3-13.88-4.17-14.33-1,.33-1,1.63,4.3,11.79,3.09,12.27-5.69-3.17-7.63-3.66S1363.13,260.39,1363.13,260.39Z"/><path class="cls-37" d="M1375,220a3.87,3.87,0,0,1,.89.92,4.29,4.29,0,0,1,.85,2.31,6,6,0,0,1-.24,2,1.86,1.86,0,0,1-.81,1.16c-.39.21-1,0-1.44-.56a4.36,4.36,0,0,1-.79-2.54,4,4,0,0,1,.79-2.34A12.18,12.18,0,0,1,1375,220Z"/><path class="cls-37" d="M1380.06,220.46a4.4,4.4,0,0,1,.49,3.11c-.48,1.47-1.45,2.47-2.19,2.23s-1-1.63-.49-3.11A4.34,4.34,0,0,1,1380.06,220.46Z"/><path class="cls-37" d="M1385.24,223.22a4.45,4.45,0,0,1,0,1.12,3.6,3.6,0,0,1-.93,2c-1.09,1.09-2.24,1.58-3,1.14s-.33-2,.87-3.21a3.87,3.87,0,0,1,1.94-.93A7.28,7.28,0,0,1,1385.24,223.22Z"/><path class="cls-37" d="M1387.18,228.4a3.73,3.73,0,0,1-1.83,1.84c-1.13.47-2.28.4-2.57-.2s.49-1.48,1.74-2A3.58,3.58,0,0,1,1387.18,228.4Z"/><path class="cls-37" d="M1369.61,224.86a2.39,2.39,0,0,1,1.64.36c.66.44,1,1.09.81,1.46s-1,.28-1.73-.24A2.37,2.37,0,0,1,1369.61,224.86Z"/><path class="cls-37" d="M1355.56,240a2.63,2.63,0,0,1,.74.32,2.74,2.74,0,0,1,1.08,1.15,3.63,3.63,0,0,1,.35,1.24,1.25,1.25,0,0,1-.18.89c-.18.22-.55.26-1,0a2.84,2.84,0,0,1-1.1-1.29,2.59,2.59,0,0,1-.11-1.58A6.32,6.32,0,0,1,1355.56,240Z"/><path class="cls-37" d="M1362.38,239.3a3,3,0,0,1,.25.67,2.21,2.21,0,0,1-.05,1.41c-.37.91-.92,1.48-1.45,1.4s-.69-1.09-.28-2.1a2.44,2.44,0,0,1,.91-1A4.76,4.76,0,0,1,1362.38,239.3Z"/><path class="cls-37" d="M1364.8,241.87a2.32,2.32,0,0,1-.62,1.53c-.55.56-1.24.8-1.56.52s-.08-1,.53-1.61A2.23,2.23,0,0,1,1364.8,241.87Z"/><path class="cls-37" d="M1353.59,244.14a1.52,1.52,0,0,1,1.06-.2c.49.09.86.39.83.66s-.5.4-1.07.28A1.49,1.49,0,0,1,1353.59,244.14Z"/></g></g></g></svg>