<svg xmlns="http://www.w3.org/2000/svg" viewBox="0 0 231.7 245.2"><defs><style>.cls-1{fill:#004482;}.cls-1,.cls-10,.cls-11,.cls-12,.cls-13,.cls-14,.cls-15,.cls-16,.cls-18,.cls-2,.cls-20,.cls-5,.cls-6,.cls-7,.cls-8,.cls-9{stroke:#4d3224;}.cls-1,.cls-10,.cls-11,.cls-12,.cls-13,.cls-14,.cls-15,.cls-16,.cls-2,.cls-20,.cls-5,.cls-6,.cls-8,.cls-9{stroke-linecap:round;stroke-linejoin:round;}.cls-1,.cls-10,.cls-12,.cls-13,.cls-14,.cls-15,.cls-16,.cls-19,.cls-2,.cls-21,.cls-5,.cls-6,.cls-7,.cls-8,.cls-9{stroke-width:2.02px;}.cls-2{fill:#d8d2d3;}.cls-3,.cls-7{fill:#4d3224;}.cls-11,.cls-4,.cls-5{fill:#c4c4c8;}.cls-6{fill:#ff7f36;}.cls-18,.cls-19,.cls-21,.cls-7{stroke-miterlimit:10;}.cls-8{fill:#ffca36;}.cls-9{fill:#606060;}.cls-10{fill:#bd1c36;}.cls-11,.cls-18,.cls-20{stroke-width:1.01px;}.cls-12,.cls-18,.cls-20,.cls-21{fill:none;}.cls-13{fill:#caa795;}.cls-14{fill:#f2d4be;}.cls-15{fill:#0065b2;}.cls-16{fill:#664331;}.cls-17{fill:#d99d7d;opacity:0.27;}.cls-19{fill:#fff0ed;}.cls-19,.cls-21{stroke:#9c7b68;}</style></defs><title>about-my</title><g id="圖層_2" data-name="圖層 2"><g id="關於"><path class="cls-1" d="M113.73,157.78c.63-6.32,1-11.84.35-12.06l-23.57-8s-4.38-3.37-.77-8.67a28.26,28.26,0,0,1-3.82-4.35l-5.49-9,5.42-2.74c.94-.47,7.34,3.8,8.32,4.3,3.75,1.91,7.47,3.82,11.1,5.94,8.21,4.8,16.06,10.2,24.14,15.21,2,1.24,2.34,4.3,2,6.34-.49,2.59-2.34,4.72-3.51,7-1,2-10.91,26-9.65,26.31l-6.5-1.56C111.73,175,112.93,165.76,113.73,157.78Z"/><path class="cls-2" d="M111.56,176.66l6.15,2.3a8,8,0,0,0,3.42,6.31c3.61,2.75,5.38,3.06,5.32,4.44s-.81,1.49-.81,1.49l-18.4-6S107.74,178.49,111.56,176.66Z"/><path class="cls-3" d="M44.62,244.44a43.26,43.26,0,1,1,30.57-12.67A42.92,42.92,0,0,1,44.62,244.44Zm0-79.95A36.71,36.71,0,1,0,81.33,201.2,36.75,36.75,0,0,0,44.62,164.49Z"/><path class="cls-4" d="M44.74,163.53a38.05,38.05,0,1,0,37.84,38.05A37.95,37.95,0,0,0,44.74,163.53Zm34.17,38.05A34.41,34.41,0,0,1,58,233.24a34,34,0,0,1-37.46-7.37,34.32,34.32,0,0,1,24.16-58.65A33.93,33.93,0,0,1,68.9,177.29a34.38,34.38,0,0,1,10,24.29Z"/><path class="cls-4" d="M188.32,163.9a37.68,37.68,0,1,0,37.47,37.68A37.57,37.57,0,0,0,188.32,163.9Zm23.93,61.73a33.6,33.6,0,0,1-23.93,10,33.43,33.43,0,0,1-13.16-2.67,34.09,34.09,0,0,1,0-62.7,33.7,33.7,0,0,1,37.09,7.29,34.11,34.11,0,0,1,0,48.11Z"/><path class="cls-3" d="M188.32,245.2a43,43,0,0,1-30.67-12.78,43.81,43.81,0,0,1,0-61.69,43.23,43.23,0,0,1,61.35,0,43.81,43.81,0,0,1,0,61.69A43,43,0,0,1,188.32,245.2Zm0-80.65a37,37,0,1,0,36.83,37A37,37,0,0,0,188.32,164.55Z"/><rect class="cls-5" x="162.48" y="130.31" width="7.91" height="4.32" rx="1" ry="1"/><path class="cls-3" d="M63.17,129c-2.46,4.89,3.11,8.64,7.15,7.29s8.31-4.23,12.27-6.21C82.59,130.09,65.34,124.7,63.17,129Z"/><rect class="cls-6" x="91.22" y="148.31" width="4.12" height="63.56" transform="translate(-58.35 45.4) rotate(-21)"/><path class="cls-7" d="M48.72,201.57a3.94,3.94,0,1,1-3.55-4.3A3.93,3.93,0,0,1,48.72,201.57Z"/><path class="cls-4" d="M44.81,208.22l-.67,0a7,7,0,1,1,5.14-1.59A6.94,6.94,0,0,1,44.81,208.22Zm0-12.76a5.74,5.74,0,0,0-.54,11.45,5.66,5.66,0,0,0,4.2-1.29,5.72,5.72,0,0,0,.76-8.08,5.65,5.65,0,0,0-3.88-2.06A5,5,0,0,0,44.8,195.46Z"/><path class="cls-4" d="M44.1,207.22a.91.91,0,0,1-.91-.82.89.89,0,0,1,.91-.88l60.42,13.41a.91.91,0,0,1,1,.82.87.87,0,0,1-.9.88l-60.42-13.4Z"/><path class="cls-6" d="M106.78,210.21l-3.88-8.1c11.39-7.42,15.63-1.65,23.38-15.21,3.4-6,10.47-31.12,12.36-35.49,5.14-11.93,12.16-16.27,21.78-16.27l2.15,8.18c-6.4,0-11.78,3.17-16,12.22-1.87,4-8.8,31.48-12,37C126.48,206.81,119.61,201.86,106.78,210.21Z"/><path class="cls-6" d="M103.22,209.67c.78,0,1.19-4.88,1.23-5.66a1.41,1.41,0,0,0-1.36-1.48l-56.72-2.29s-3.92.77-2.08,4.62Z"/><path class="cls-8" d="M50.76,197s-4.75,2.13-3.68,4.66l8.35-.66,14.52.39c6,.16,13.31.35,18.34,4.12,5.63,4.22,4.54,11,12.41,14.19,0,0,13,3.45,16.41-7.64,0,0,3.29-14.31-8.71-16.09C108.4,196,69.05,195,50.76,197Z"/><path class="cls-8" d="M169.28,158.26a44.27,44.27,0,0,0-23.76,24.48,44.72,44.72,0,0,0-2.9,21.18l3.88-4a40.46,40.46,0,0,1,52-39.48l4.91-2.65A44.26,44.26,0,0,0,169.28,158.26Z"/><rect class="cls-5" x="74.19" y="118.5" width="3.55" height="33.02" transform="translate(-43.35 36.2) rotate(-21)"/><path class="cls-7" d="M191.77,203.89a3.94,3.94,0,1,1-3.56-4.3A3.95,3.95,0,0,1,191.77,203.89Z"/><path class="cls-4" d="M187.85,210.54l-.67,0a7,7,0,0,1,1.32-14,7,7,0,0,1-.65,14Zm0-12.76a5.74,5.74,0,0,0-.54,11.45,5.66,5.66,0,0,0,4.2-1.29,5.72,5.72,0,0,0,.76-8.08,5.67,5.67,0,0,0-3.88-2.06A4.87,4.87,0,0,0,187.84,197.78Z"/><rect class="cls-5" x="77.35" y="146.93" width="12.85" height="3.61" transform="translate(-47.75 39.91) rotate(-21)"/><path class="cls-5" d="M157.94,135.11a1.85,1.85,0,0,1-1.74-1.21l-5.4-14.62a1.86,1.86,0,0,1,1-2.34l15.16-7.1-2.87-7.92a1.86,1.86,0,1,1,3.5-1.27l3.45,9.52a1.86,1.86,0,0,1-1,2.33l-15.15,7.09,4.8,13a1.86,1.86,0,0,1-1.1,2.4A1.81,1.81,0,0,1,157.94,135.11Z"/><path class="cls-6" d="M187.74,203.33a2.13,2.13,0,0,1-2-1.33L165,151.23a2.13,2.13,0,1,1,3.94-1.61l20.8,50.77a2.13,2.13,0,0,1-2,2.94Z"/><rect class="cls-3" x="151.69" y="122.19" width="8.53" height="2.85" transform="translate(-33.95 64.11) rotate(-21)"/><rect class="cls-3" x="163.17" y="150.2" width="8.53" height="2.85" transform="translate(-43.22 70.09) rotate(-21)"/><path class="cls-3" d="M95.52,130.11a4.19,4.19,0,0,0-3.42-4c-1.9-.52-28.15-6.47-30.94-6.47-3.6,0-7.95,4.36-7.95,7.91,0,.48,7.7,5.45,12,4.77l6.16-1Z"/><rect class="cls-3" x="144.8" y="97.74" width="23.37" height="7.24" rx="3.22" ry="3.22" transform="translate(312.98 202.73) rotate(180)"/><path class="cls-8" d="M1,174l7.46-6.33s2.53-2.88,2.13-5.5a1.64,1.64,0,0,1,1.57-2l7.2,0s18.53-11.62,39.82-4.9c0,0,28.67,9.36,30,36.23l-23.42.69S52.7,194.5,42,181.65c0,0-10.15-15-24.4-10.77C17.56,170.88,6.22,178.4,1,174Z"/><polygon class="cls-5" points="107.78 206.07 104.39 204.87 111.69 188.8 115.08 190 107.78 206.07"/><circle class="cls-9" cx="104.93" cy="209.46" r="3.22"/><path class="cls-6" d="M44.47,202.46a1.41,1.41,0,0,1-1.26-1.55,1.36,1.36,0,0,1,.44-.89l0,0c3.44-3.22,6.92-6.4,10.39-9.59l5.22-4.76,5.25-4.74,2.62-2.37,2.63-2.36,5.26-4.72,5.28-4.7L83,164.4l1.32-1.17.66-.59.17-.14a.51.51,0,0,1,.21-.1.86.86,0,0,1,.28,0,1.23,1.23,0,0,1,.37.09,3.17,3.17,0,0,1,1.89,2.12,1.44,1.44,0,0,1,0,.38.78.78,0,0,1-.05.28.67.67,0,0,1-.12.2l-.16.15-.66.58-1.33,1.17-2.65,2.34-5.29,4.68L72.32,179l-2.65,2.33L67,183.68l-5.33,4.64-5.35,4.62Z"/><polygon class="cls-6" points="167.35 161.51 152.57 124.72 159.14 122.03 173.92 158.82 167.35 161.51"/><path class="cls-5" d="M104.93,212.6a5.36,5.36,0,1,1,5.36-5.36A5.37,5.37,0,0,1,104.93,212.6Zm0-6.46a1.1,1.1,0,1,0,1.1,1.1A1.1,1.1,0,0,0,104.93,206.14Z"/><path class="cls-5" d="M97.58,223.06l-.26-.08c-.94-.32-1.46-1.07-1.17-1.68L102.51,208a1.82,1.82,0,0,1,2.23-.52c.94.32,1.46,1.07,1.17,1.68l-6.36,13.31A1.74,1.74,0,0,1,97.58,223.06Z"/><path class="cls-3" d="M117.93,192.91l-10.26-4,1.11-2.8a1.51,1.51,0,0,1,2.07-.76l7.52,3a1.44,1.44,0,0,1,.66,1.84Z"/><path class="cls-3" d="M96.15,219.89h3.19a3.92,3.92,0,0,1,3.92,3.92v.56a0,0,0,0,1,0,0h-11a0,0,0,0,1,0,0v-.56a3.92,3.92,0,0,1,3.92-3.92Z" transform="translate(88.45 -20.38) rotate(21.56)"/><path class="cls-10" d="M11.09,160.51s-5.39-1.88-3.51,8.1C7.58,168.61,10.55,170,11.09,160.51Z"/><path class="cls-5" d="M170.93,150.81h9.35a1.08,1.08,0,0,1,1.08,1.07v7.92a1.08,1.08,0,0,1-1.08,1.07h-9.53A4.85,4.85,0,0,1,165.9,156S165.54,151.17,170.93,150.81Z"/><path class="cls-5" d="M166.44,114.85l6.83,33.08H193.4l5-36.68S184.06,108.73,166.44,114.85Z"/><path class="cls-11" d="M167.15,118.44s18-4.67,29.49-2.87"/><line class="cls-11" x1="172.55" y1="144.33" x2="193.05" y2="144.33"/><line class="cls-11" x1="173.99" y1="118.08" x2="176.5" y2="143.61"/><line class="cls-11" x1="189.81" y1="115.57" x2="188.37" y2="144.33"/><line class="cls-11" x1="181.9" y1="116.28" x2="181.9" y2="143.97"/><line class="cls-11" x1="168.59" y1="118.8" x2="197" y2="118.8"/><line class="cls-11" x1="168.59" y1="123.12" x2="197" y2="123.12"/><line class="cls-11" x1="170.39" y1="127.43" x2="195.56" y2="127.43"/><line class="cls-11" x1="170.39" y1="131.75" x2="195.56" y2="131.75"/><line class="cls-11" x1="170.39" y1="136.06" x2="195.56" y2="136.06"/><line class="cls-11" x1="171.83" y1="140.38" x2="194.12" y2="140.38"/><path class="cls-12" d="M39,166.12s2.87,11.82,11.48,1.32"/><line class="cls-12" x1="53.68" y1="167.35" x2="52.17" y2="172.84"/><path class="cls-12" d="M53,170s4.89,1.33-.21,2.48"/><line class="cls-12" x1="57.71" y1="170.1" x2="57.13" y2="173.87"/><path class="cls-12" d="M62.44,170.11s-4.29,2.53.41,4.51"/><path class="cls-12" d="M66.68,173l2-1.42s-2-1.74-2.91.15c0,0-.4,3.26,4.12,2.72"/><circle class="cls-3" cx="39.82" cy="161.29" r="1.38"/><circle class="cls-3" cx="51.72" cy="163.02" r="1.44"/><path class="cls-13" d="M86.57,42.76S77.6,44,75.76,54.3c0,0-.8,6.58,1.08,8.37"/><path class="cls-14" d="M90.73,124.19s18.23,27.48,20.84,33.95a7.65,7.65,0,0,1,0,4.7,41.71,41.71,0,0,1-3.62,7.06L92.61,210.17l-6.26-2.82s7.07-31.9,12.86-43.93L74.31,133Z"/><path class="cls-15" d="M108.34,151.61,93.9,126.16s-5.28-8.15-6.66-10.69a5.66,5.66,0,0,1-.29-4.86L69,107.8a21.72,21.72,0,0,0-5.2,10.81C62.8,125,70.59,131,70.59,131l3.83,5.59,20.94,27S85,196.28,85.84,201l9.78,3.52,16.44-38.92S115.38,159.67,108.34,151.61Z"/><path class="cls-2" d="M86.73,205.69l6.64,2.48A8.62,8.62,0,0,0,97.06,215c3.9,3,5.81,3.31,5.75,4.8s-.88,1.6-.88,1.6L82.07,214.9S82.61,207.66,86.73,205.69Z"/><path class="cls-16" d="M117.24,40c1.19,4.49,5.67,3.29,5.67,3.29-4.86-3.12-2.23-19.95-2.23-19.95.71-21.89-15.49-21.42-15.49-21.42S86.65-3.87,80.65,14.28c0,0-9,18.12,9.11,19.87"/><polygon class="cls-14" points="87.33 48.57 97.76 53.37 101.07 43.6 103.17 37.39 94.63 28.96 91.95 36.54 87.33 48.57"/><path class="cls-17" d="M93.5,40c1,2.8,2.59,5.73,5.25,6.93l2-7.1L96,31.33Z"/><path class="cls-14" d="M110.76,11.45a3.92,3.92,0,0,1,3,1.44,14.51,14.51,0,0,1,3.2,9c.27,7.26,4.32,18.88-4.33,21-6.79,1.65-17.51-1.12-21-10.53,0,0-5.31-2.38-3.9-6.73S94.5,23.4,94.5,23.4,100,11.59,110.76,11.45Z"/><path class="cls-16" d="M115.15,9s5.91,6.31,1,9.53c0,0-9.31,4.11-17.26-.5,0,0-3.88-1.75-.12-5.63"/><path class="cls-16" d="M91.47,8.79s-8.13,25,6.44,36.5c0,0-5.79-10.94-.16-25.88L101.1,11"/><path class="cls-16" d="M86.54,4.82S70.65.13,65.1,16.12c0,0-3,7.54-6,6.06,0,0,12.14,9.26,23.54-9.18"/><path class="cls-18" d="M111.93,11.19s3.69,5.25-.22,9.22"/><path class="cls-18" d="M106.26,11.42s3.69,5.26-.22,9.23"/><ellipse class="cls-19" cx="104.35" cy="28.1" rx="4.95" ry="4.61" transform="translate(-1.93 8.52) rotate(-4.63)"/><ellipse class="cls-19" cx="114.07" cy="26.59" rx="3.39" ry="3.69" transform="translate(-1.78 9.3) rotate(-4.63)"/><path class="cls-20" d="M117.74,25.36a4.06,4.06,0,0,0-5.77.12"/><path class="cls-18" d="M84.61,11.44s.44,7.4,4.37,8.78"/><path class="cls-18" d="M82,14.83s-1,6,2.27,8"/><path class="cls-14" d="M146.61,39.84c.12,1.37-2.16,5.85-4.5,10.07-.67,1.22-1.35,2.42-2,3.52C137.34,58.3,127,70.28,127,70.28l-9.85-4.47-7.34-3.34-5.35,5.15L102,70l1.69.69,6.52,2.68c1.43.58,3.08,1.17,4.81,1.74,8.22,2.69,18.54,5,18.54,5s.75-1.1,6.23-10.34c3.17-5.36,7.36-14.65,10.33-21.5,2.15-5,5.56-11.31,5.56-11.31"/><path class="cls-17" d="M143.66,50.23a9.31,9.31,0,0,0,5.66-2.18c1.8-5,3.08-8.8,3.08-8.8s-3-.47-5,.75C147.41,41.35,145.54,45.92,143.66,50.23Z"/><path class="cls-14" d="M148.28,40.85c-3.09-1.26-3.66-5.57-4.54-6.91l-.88-1.33s.95-1.06,1.59-.09,1.24,2.14,2.3,2,0-4,1.07-8.27,4.3-2.71,5.24-2.2,6.1,7.42,1.84,15.19"/><path class="cls-13" d="M102.52,53.08l26.39,15.57s8-8.08,15.19-24.59l7.11,3.72c-3,6.2-4.41,10.46-7.38,16.65-1.49,3.12-7.46,15.41-10.6,16.53a3.32,3.32,0,0,1-1.95,0c-5.33-1.28-10.24-2.27-23.41-8.4Z"/><path class="cls-13" d="M80.8,51.09l-.22.27h.07C77.32,57.64,76.18,67.9,75,76.65A77.68,77.68,0,0,1,73,85.72s-9,24.62-12.3,29.93l32.88,10c4.78,1.46,7.92-3.42,10-7.12-2.42-4.62,1.69-28.13,1.69-28.13l2.16-10c1.38-6.69.45-14.43-1.61-20.67-1.26-3.3.54-10.89.54-10.89-5.86-4.31-19.83-6.07-19.83-6.07"/><path class="cls-3" d="M108.46,38.27c3.24.67,4.81-.74,4.89-.82a.48.48,0,1,0-.66-.71c-.09.07-2,1.71-6.2-.14a.49.49,0,0,0-.64.26.48.48,0,0,0,.25.64A11.49,11.49,0,0,0,108.46,38.27Z"/><path class="cls-14" d="M88.88,74.21s.39.48,1.1,1.26,1.57,1.73,2.68,2.84c.68.68,1.44,1.41,2.25,2.16A44.41,44.41,0,0,0,103.85,87c7.76,4,37.34,14.59,37.34,14.59s4.16,2.16,6.28.56,4.8-2.74,6.14-2.21,2.31-1.4.3-3.36-11,1.4-11,1.4L108.3,81.48l-6.54-7.11-1.89-2.05-3.49-3.79-5.6,4.24Z"/><path class="cls-13" d="M83.72,72.82c4.77,5.33,12.2,12.52,19.11,14.93,0,0,32.5,13.85,37,15.35l2.28-7.2L106.51,77.11a83.72,83.72,0,0,0-6.23-8.36l.09-.08L90.83,57.41"/><ellipse class="cls-3" cx="105.06" cy="27.86" rx="1.67" ry="1.15" transform="translate(-2.82 14.62) rotate(-7.85)"/><ellipse class="cls-3" cx="114.4" cy="26.93" rx="1.45" ry="1" transform="translate(-2.61 15.88) rotate(-7.85)"/><line class="cls-21" x1="98.97" y1="28.32" x2="96.23" y2="27.33"/><path class="cls-3" d="M110.15,33.8h.09c2.42-.31,2.75-1.73,2.76-1.79a.27.27,0,0,0-.1-.28c-1.41-1.14-2.19-3.92-2.2-3.95a.28.28,0,0,0-.34-.19.27.27,0,0,0-.19.34A10,10,0,0,0,112.4,32c-.14.31-.65,1-2.23,1.22a.28.28,0,0,0-.24.31A.3.3,0,0,0,110.15,33.8Z"/><path class="cls-20" d="M107,25.91s-2.93-3-6.58.14"/></g></g></svg>