<svg xmlns="http://www.w3.org/2000/svg" viewBox="0 0 75.37 203.26"><defs><style>.cls-1{fill:#f8dac4;}.cls-1,.cls-10,.cls-11,.cls-13,.cls-14,.cls-2,.cls-3,.cls-4,.cls-5,.cls-6,.cls-8,.cls-9{stroke:#4d3224;}.cls-1,.cls-10,.cls-11,.cls-14,.cls-2,.cls-5,.cls-8,.cls-9{stroke-linecap:round;stroke-linejoin:round;}.cls-1,.cls-10,.cls-11,.cls-14,.cls-2,.cls-3,.cls-4,.cls-5,.cls-6,.cls-8,.cls-9{stroke-width:2px;}.cls-2,.cls-4{fill:#54524f;}.cls-3,.cls-5{fill:#21201f;}.cls-13,.cls-3,.cls-4,.cls-6{stroke-miterlimit:10;}.cls-6{fill:#80d8d6;}.cls-13,.cls-7{fill:#4d3224;}.cls-8{fill:#f2ba8b;}.cls-12,.cls-9{fill:#70859d;}.cls-10{fill:#dfdcd5;}.cls-11{fill:#8e8d87;}.cls-14{fill:#da3e4d;}</style></defs><title>about-people</title><g id="圖層_2" data-name="圖層 2"><g id="關於"><path class="cls-1" d="M24.8,78.23c-1.54-10-8.23-16.62-13.12-25A8,8,0,0,1,10.19,49,18.63,18.63,0,0,1,8.62,44.7a20.6,20.6,0,0,0-1.85-4,26.24,26.24,0,0,0-1.69,3.6.31.31,0,0,1-.53.07,10.91,10.91,0,0,1-1.69-3.5.32.32,0,0,0-.44-.18,29.45,29.45,0,0,0-1.37,6.64,2.17,2.17,0,0,0,0,1,2.12,2.12,0,0,0,.55.81c1.22,1.31,3.15,2.12,4.21,3.46C7,54,6.77,55.64,6.88,57.38A49.82,49.82,0,0,0,8.32,65,101.67,101.67,0,0,0,13,79.9c1.76,4.39,5.71,5.18,9.84,2.93a4,4,0,0,0,1.81-1.73A5,5,0,0,0,24.8,78.23Z"/><polygon class="cls-2" points="10.15 26.15 11.19 28.56 12.54 28.45 11.59 25.96 10.15 26.15"/><polygon class="cls-2" points="13.76 25.64 14.8 28.05 16.15 27.95 15.2 25.45 13.76 25.64"/><path class="cls-3" d="M25.69,41.81,24,32.69c1.17-1.37,1.85-2.4,1.71-2.81-.5-1.38-2.09-1.95-3-2.17a1,1,0,0,0-.72-.12L4.18,31.26c-2,.07-2.27,2.66-2.16,3.24l1.54,8.8a2.55,2.55,0,0,0,0,.39,9.64,9.64,0,0,0,.24,1.08l0,.1.19,1a1.1,1.1,0,0,0,.75.83,3.67,3.67,0,0,0,3,1.46s1.09-1,2.72-2.42l14.31-2.7A1.07,1.07,0,0,0,25.69,41.81Z"/><rect class="cls-4" x="5.11" y="30.73" width="22.02" height="15.74" rx="2" ry="2" transform="translate(-6.89 3.66) rotate(-10.7)"/><path class="cls-5" d="M17.33,24.11l-.64-3.69c.48-.54.76-1,.71-1.12a1.64,1.64,0,0,0-1.21-.89.42.42,0,0,0-.29-.05L6.74,19.71a.43.43,0,0,0-.35.5l.76,4.35a.38.38,0,0,0,0,.15,2.63,2.63,0,0,0,.09.44l0,0,.07.42a.43.43,0,0,0,.29.33,1.47,1.47,0,0,0,1.21.61l1.11-1,7-1A.44.44,0,0,0,17.33,24.11Z"/><path class="cls-2" d="M17.79,25.24,9,26.52A.63.63,0,0,1,8.29,26l-.86-5a.62.62,0,0,1,.51-.72L16.7,19a.64.64,0,0,1,.73.52l.87,5A.63.63,0,0,1,17.79,25.24Z"/><rect class="cls-6" x="7.58" y="32.5" width="17.07" height="12.2" rx="2" ry="2" transform="matrix(0.98, -0.19, 0.19, 0.98, -6.89, 3.66)"/><path class="cls-7" d="M22.56,28.08c.06.41-.47.85-1.2,1S20,29,19.93,28.58s.47-.86,1.19-1S22.49,27.67,22.56,28.08Z"/><path class="cls-7" d="M21.86,28.09c.1.65-1.2.88-1.3.23L18.75,18.09c0,.17.33-.33.64-.38s.68.34.66.15Z"/><path class="cls-7" d="M6,30.24,4.3,20.55c0,.18-.31-.21-.65-.16s-.62.55-.64.39L4.73,30.5c-.37.2-.59.49-.55.76s.71.63,1.44.49,1.26-.58,1.19-1S6.45,30.29,6,30.24Z"/><path class="cls-8" d="M52.42,188l-.57,7.7-.26,3.56a2.76,2.76,0,0,1-2.65,2.53L36,202.18h-.18a1.87,1.87,0,0,1-.48-3.64l7-2.35a2.28,2.28,0,0,0,.84-.52l.16-.18a1.94,1.94,0,0,0,.31-.82c0-.14,0-.28,0-.42l.42-6.63Z"/><path class="cls-7" d="M51.9,195.65l-.29,3.56A2.76,2.76,0,0,1,49,201.74l-13,.44h-.19a1.87,1.87,0,0,1-.48-3.64l7-2.35a2.21,2.21,0,0,0,.84-.52,30.52,30.52,0,0,1,7.21-.25A10.65,10.65,0,0,1,51.9,195.65Z"/><path class="cls-1" d="M51.29,23.51a42,42,0,0,0,6.1,11.85,1.28,1.28,0,0,1,.37,1.08c-.12.4-.59.56-1,.67a38.63,38.63,0,0,1-13,1,14.42,14.42,0,0,0-4.39-10.35A25.54,25.54,0,0,1,52.17,24.1l.45,1.19Z"/><path class="cls-1" d="M49.21,24.65C58.47,17,44.5,7.88,44.5,7.88l-7.93-1.1-3.68.38s-1.14,17.75,3.87,23.06c0,0,1.29.84,4.59-.5"/><path class="cls-7" d="M52.61,26.79a3.44,3.44,0,0,0,1.24-.88A6.06,6.06,0,0,0,55,22.83,32.61,32.61,0,0,1,55,11.51a11.91,11.91,0,0,0,.29-3.89,7.29,7.29,0,0,0-2.69-4.14A16.44,16.44,0,0,0,41.85,0,32.38,32.38,0,0,0,30.7,2.46C29,3.12,27.06,4.22,27,6a4.26,4.26,0,0,0,1.62,3,17.22,17.22,0,0,0,4.79,3.26A8,8,0,0,1,36.29,14a8.43,8.43,0,0,1,1.36,3.53C39.06,22.79,44,27,49.38,27.23A9.08,9.08,0,0,0,52.61,26.79Z"/><path class="cls-8" d="M18.64,188l0,7.7v3.56a2.52,2.52,0,0,1-2.45,2.53l-12.86.44H3.12a2,2,0,0,1-1.85-1.68,1.72,1.72,0,0,1,1.12-1.95l6.74-2.36a1.74,1.74,0,0,0,.8-.52.84.84,0,0,0,.15-.18,1.89,1.89,0,0,0,.26-.82c0-.14-.06-.28-.06-.42l0-6.63Z"/><path class="cls-7" d="M18.67,195.74l0,3.55a2.51,2.51,0,0,1-2.46,2.53l-12.87.44H3.12a2,2,0,0,1-1.85-1.68,1.72,1.72,0,0,1,1.12-1.95l6.74-2.36a1.74,1.74,0,0,0,.8-.52,30.12,30.12,0,0,1,7.17-.25A10.89,10.89,0,0,1,18.67,195.74Z"/><path class="cls-9" d="M43,106.12a33.14,33.14,0,0,0-3.36-2c-3.23-1.6-7.47-4.77-11-5.68a1.73,1.73,0,0,0-1.1,0,1.89,1.89,0,0,0-.79.77c-5.52,8.26-9.42,19.44-13.25,28.59-.71,1.71-1.48,3.5-2.24,5.35-3.12,7.56-6.2,16.08-5.59,23.82.8,10.19,2.53,18.62,3.6,28.85a3.3,3.3,0,0,0,2.62,2.9,38.09,38.09,0,0,0,4.49.6,3.33,3.33,0,0,0,3.5-2.76c1.43-8.42-.42-14.27.59-22.74A67.36,67.36,0,0,1,28,140.13a64,64,0,0,1,11.63-15.66,30.08,30.08,0,0,1,3.08-2.4q.72,21.81.15,43.64c-.23,9.07-1.75,13.17-1.42,22.19a5.69,5.69,0,0,0,.16,1.19,6.58,6.58,0,0,0,.4.67c-.07-.14.49.53.64.66l.07.06.14.08.53.29c-.18-.11.64.23.84.28a6,6,0,0,0,.61.12l.29,0c.51,0,1,0,1.51,0l.45,0,.46-.07q.81-.15,1.59-.36a18.47,18.47,0,0,0,5-2.11c1.17-4.32.49-5.32,1-8.73,1.19-8.07,2.27-16.15,3.33-24.24,1.51-11.55,2.17-23.07,3.78-34.63.27-2,1.79-22.21,3.61-22.53C58.21,99.62,50.93,105.81,43,106.12Z"/><path class="cls-1" d="M49.84,70.14C41.1,65,37.5,56.29,31.52,48.61a8,8,0,0,0-3.3-2.94,19.09,19.09,0,0,0-3.43-3.08,20.63,20.63,0,0,1-3.06-3.22,27.83,27.83,0,0,1,4-.23.3.3,0,0,0,.26-.46,10.63,10.63,0,0,0-2.6-2.87.31.31,0,0,1,0-.48A29.72,29.72,0,0,1,30,36.54a2.3,2.3,0,0,1,.87.36,2.16,2.16,0,0,1,.55.81c.76,1.62.79,3.72,1.63,5.2,1,1.66,2.55,2.07,4.12,2.81a49,49,0,0,1,6.56,4.2,100.89,100.89,0,0,1,12.05,9.87c3.41,3.28,2.67,7.24-1,10.23a4,4,0,0,1-2.28,1A4.89,4.89,0,0,1,49.84,70.14Z"/><path class="cls-10" d="M70.18,77.73C70.57,67.55,72,55.8,68.75,46c-1.66-5-5-9.62-9.88-11.68-7.3-3.08-14.61-.68-20.47,4l-.52.42c-.91.76-1.78,1.57-2.61,2.41l-.64.66A74.71,74.71,0,0,0,23.69,57.58C22,60.59,11,76.57,13,81.88c.47,4.07,3.53,3.94,6.8,2.46A10.16,10.16,0,0,0,22.39,84c3.16-.88,5.61-3.36,7.65-5.92L27.7,87.2l0,.11c-.2.81-.41,1.62-.61,2.42,0,.17-.09.34-.13.51-.43,1.63-.59,3.71-1.32,5.23-.86,1.81-2.7,2.87-2.95,5-1.1,9.47,23,10,28.84,9.68a24.63,24.63,0,0,0,5.42-.79c3.66-1.06,8.88-4.29,10.91-7.64S68.69,93,69,89C69.29,85.26,70,81.55,70.18,77.73Z"/><path class="cls-1" d="M7.89,50.16A60.82,60.82,0,0,0,8.65,44,7.33,7.33,0,0,0,5,46.91a1.55,1.55,0,0,0-.27.68"/><path class="cls-1" d="M36.78,19A5.64,5.64,0,0,1,38,16.91a1.86,1.86,0,0,1,2.28-.27,2.23,2.23,0,0,1,.63.88,5.38,5.38,0,0,1-.69,5.38,1.66,1.66,0,0,1-.58.51"/><path class="cls-11" d="M74.24,65.44A20.28,20.28,0,0,0,72.85,56C72,54.21,71,52.5,70.18,50.77c-.21-.44-.42-.91-.64-1.39-.33-.63-.62-1.27-.91-1.92-.88-1.45-1.8-2.88-2.72-4.31l-.29-.24a13.53,13.53,0,0,0-.49-2.52c-.76-2.49-2.53-4.82-5-5.53a21.29,21.29,0,0,1,1.68,7,32.72,32.72,0,0,0-10.14.7l-1.26.27a23.43,23.43,0,0,0-4.14,1.24c-1.85.81-3-.48-4.07-1.72l-1.41-1.66a13.81,13.81,0,0,0-2.36-2.35l-.52.42c-.91.76-1.78,1.57-2.61,2.41l-.64.66c1.62,1.77,3.33,3.35,4.31,5.4.07.21.14.41.22.6l.1,2.27c-.07.8-.12,1.6-.16,2.4a1.42,1.42,0,0,1,0,.22,58.83,58.83,0,0,1,.31,14c-.24,3.68-.55,7.37-.53,11.06,0,.52,0,1.05,0,1.6l-.28.27a8.51,8.51,0,0,1-1.83,4.5c-1.32,1.45-3.31,2-5.2,2.55a11,11,0,0,1-3.95.54l0,.11c-.2.81-.41,1.62-.61,2.42,0,.17-.09.34-.13.51A15.36,15.36,0,0,0,40.47,88a12.22,12.22,0,0,0,.63,1.5A8.47,8.47,0,0,0,44,92.54a10.16,10.16,0,0,0,3,.68c4,.44,7.76,1.08,11.73.37h1A23.77,23.77,0,0,0,66,92.66a9.1,9.1,0,0,0,2-1c2.5-1.58,3.53-4.47,4.15-7.22A49.18,49.18,0,0,0,73,78.34,32.11,32.11,0,0,1,73,71.55C73.26,69.49,74,67.51,74.24,65.44Z"/><path class="cls-12" d="M51.41,115.42l-9.89,6.27c-.4.26,0,.89.37.64l9.9-6.28C52.19,115.8,51.82,115.16,51.41,115.42Z"/><path class="cls-13" d="M69.07,75.31c-.26-2.14-.85-4.29-3.29-4.6a36.28,36.28,0,0,0-10.09.14c-2.38.37-5.18,1-6.23,3.45a17.12,17.12,0,0,0-1,4.31c-.11.79-.58,2.19.3,2.69a.4.4,0,0,0,.45-.06l.11-.09c.28-.25,0-.63-.3-.62-.33-.68.43-3.38.55-3.92a6.45,6.45,0,0,1,1.28-3.11C52.3,72,55,71.64,56.94,71.42a41.85,41.85,0,0,1,6.81-.11c1.14.06,2.68-.08,3.53.85a5.48,5.48,0,0,1,1,3.15C68.39,75.77,69.13,75.78,69.07,75.31Z"/><path class="cls-13" d="M69,65.54c-.51,1.56-2.56,1.66-3.93,1.75l-5.24.35c-2.68.18-6,.83-8.55-.48-3-1.56-2.36-5.61-2.75-8.42a22.09,22.09,0,0,0-2.59-8.07c-.23-.41-.87,0-.63.38,1.93,3.38,2.53,7.16,2.8,11,.21,2.91,1,5.43,4.11,6.26,3.23.87,7,.12,10.23-.1,2.23-.14,6.37.27,7.26-2.47C69.82,65.28,69.11,65.09,69,65.54Z"/><polyline class="cls-2" points="18.27 27.69 16.67 27.05 9.77 28.33 10.77 28.64"/><polygon class="cls-2" points="18.46 29.73 11.13 31.09 10.9 29.03 18.24 27.68 18.46 29.73"/><polygon class="cls-5" points="9.67 28.58 9.84 30.08 11.05 30.82 10.92 29.21 9.67 28.58"/><line class="cls-14" x1="7.78" y1="21.68" x2="17" y2="20.34"/><line class="cls-14" x1="8.14" y1="22.58" x2="17.36" y2="21.23"/><line class="cls-14" x1="8.32" y1="23.56" x2="17.53" y2="22.22"/><line class="cls-14" x1="8.41" y1="24.54" x2="17.62" y2="23.2"/><line class="cls-14" x1="8.59" y1="25.35" x2="17.8" y2="24.01"/><line class="cls-14" x1="8.86" y1="20.7" x2="9.84" y2="26.24"/><line class="cls-14" x1="10.02" y1="20.43" x2="11" y2="25.98"/><line class="cls-14" x1="11.18" y1="20.16" x2="12.17" y2="25.71"/><line class="cls-14" x1="12.35" y1="20.07" x2="13.33" y2="25.62"/><line class="cls-14" x1="13.42" y1="19.89" x2="14.4" y2="25.44"/><line class="cls-14" x1="14.67" y1="19.98" x2="15.66" y2="25.53"/><line class="cls-14" x1="15.75" y1="19.8" x2="16.73" y2="25.35"/><circle class="cls-14" cx="14.76" cy="21.59" r="1.02"/></g></g></svg>