<svg xmlns="http://www.w3.org/2000/svg" viewBox="0 0 1918.69 264.95"><defs><style>.cls-1{isolation:isolate;}.cls-2{fill:#a4aaab;}.cls-10,.cls-17,.cls-29,.cls-3,.cls-7{fill:none;}.cls-11,.cls-12,.cls-13,.cls-19,.cls-20,.cls-22,.cls-24,.cls-25,.cls-26,.cls-27,.cls-3,.cls-30,.cls-33,.cls-4,.cls-5,.cls-6,.cls-7{stroke:#4d3224;}.cls-10,.cls-11,.cls-12,.cls-13,.cls-17,.cls-19,.cls-20,.cls-22,.cls-24,.cls-25,.cls-26,.cls-27,.cls-29,.cls-3,.cls-30,.cls-33,.cls-4,.cls-5,.cls-6,.cls-7{stroke-linecap:round;stroke-linejoin:round;}.cls-3,.cls-30,.cls-33{stroke-width:1.5px;}.cls-4{fill:#77c4ce;}.cls-10,.cls-11,.cls-12,.cls-13,.cls-17,.cls-4,.cls-5,.cls-6,.cls-7{stroke-width:1.72px;}.cls-25,.cls-5,.cls-9{fill:#80d8d6;}.cls-6{fill:#5aabb9;}.cls-8{opacity:0.23;mix-blend-mode:color-dodge;}.cls-10{stroke:#80d8d6;}.cls-11{fill:#e6ffff;}.cls-12{fill:#9fc2c4;}.cls-13{fill:#c9e2ff;}.cls-14{fill:#4d3224;}.cls-15{opacity:0.4;}.cls-16{fill:#d0ebea;}.cls-17,.cls-29{stroke:#426e75;}.cls-18{fill:#4e98a0;}.cls-19,.cls-30{fill:#7bb52d;}.cls-19,.cls-20,.cls-22,.cls-24,.cls-25,.cls-26,.cls-27,.cls-29{stroke-width:1.75px;}.cls-20{fill:#ff9563;}.cls-21{fill:#de744c;}.cls-22{fill:#f1d4c2;}.cls-23{fill:#e0bfa9;}.cls-24{fill:#9a8e80;}.cls-26{fill:#426e75;}.cls-27{fill:#f27e52;}.cls-28{fill:#ffb563;}.cls-31{fill:#72a72a;}.cls-32{fill:#8acc2b;}.cls-33{fill:#82b823;}.cls-34{fill:#7c9e2a;}</style></defs><title>資產 172</title><g class="cls-1"><g id="圖層_2" data-name="圖層 2"><g id="關於"><rect class="cls-2" x="0.75" y="245.21" width="1917.19" height="19.74"/><line class="cls-3" x1="0.75" y1="245.21" x2="1917.94" y2="245.21"/><polygon class="cls-4" points="467.41 252.66 427.24 252.66 427.24 7.58 467.41 33.01 467.41 252.66"/><rect class="cls-5" x="430.38" y="46.89" width="34.12" height="1.55"/><polygon class="cls-5" points="467.64 44.8 427.24 44.8 427.24 50.53 467.64 50.53 467.64 44.8 467.64 44.8"/><rect class="cls-5" x="430.38" y="61.1" width="34.12" height="1.55"/><polygon class="cls-5" points="467.64 59.02 427.24 59.02 427.24 64.74 467.64 64.74 467.64 59.02 467.64 59.02"/><rect class="cls-5" x="430.38" y="75.32" width="34.12" height="1.55"/><polygon class="cls-5" points="467.64 73.23 427.24 73.23 427.24 78.95 467.64 78.95 467.64 73.23 467.64 73.23"/><rect class="cls-5" x="430.38" y="89.53" width="34.12" height="1.55"/><polygon class="cls-5" points="467.64 87.44 427.24 87.44 427.24 93.16 467.64 93.16 467.64 87.44 467.64 87.44"/><rect class="cls-5" x="430.38" y="103.74" width="34.12" height="1.55"/><polygon class="cls-5" points="467.64 101.65 427.24 101.65 427.24 107.37 467.64 107.37 467.64 101.65 467.64 101.65"/><rect class="cls-5" x="430.38" y="117.95" width="34.12" height="1.55"/><polygon class="cls-5" points="467.64 115.86 427.24 115.86 427.24 121.59 467.64 121.59 467.64 115.86 467.64 115.86"/><rect class="cls-5" x="430.38" y="131.21" width="34.12" height="1.55"/><polygon class="cls-5" points="467.64 129.13 427.24 129.13 427.24 134.85 467.64 134.85 467.64 129.13 467.64 129.13"/><rect class="cls-5" x="430.38" y="145.42" width="34.12" height="1.55"/><polygon class="cls-5" points="467.64 143.34 427.24 143.34 427.24 149.06 467.64 149.06 467.64 143.34 467.64 143.34"/><rect class="cls-5" x="430.38" y="159.64" width="34.12" height="1.55"/><polygon class="cls-5" points="467.64 157.55 427.24 157.55 427.24 163.27 467.64 163.27 467.64 157.55 467.64 157.55"/><rect class="cls-5" x="430.38" y="173.85" width="34.12" height="1.55"/><polygon class="cls-5" points="467.64 171.76 427.24 171.76 427.24 177.48 467.64 177.48 467.64 171.76 467.64 171.76"/><rect class="cls-5" x="430.38" y="188.06" width="34.12" height="1.55"/><polygon class="cls-5" points="467.64 185.97 427.24 185.97 427.24 191.69 467.64 191.69 467.64 185.97 467.64 185.97"/><rect class="cls-5" x="430.38" y="202.27" width="34.12" height="1.55"/><polygon class="cls-5" points="467.64 200.19 427.24 200.19 427.24 205.91 467.64 205.91 467.64 200.19 467.64 200.19"/><polygon class="cls-6" points="427.24 7.58 441.43 0.86 478.3 25.49 467.41 33.01 427.24 7.58"/><polygon class="cls-6" points="478.3 25.49 478.3 62.65 467.41 69.34 467.41 33.01 478.3 25.49"/><line class="cls-7" x1="472.86" y1="37.21" x2="472.86" y2="65.49"/><g class="cls-8"><polygon class="cls-9" points="427.33 99.69 427.33 83.24 467.33 125.35 467.33 141.8 427.33 99.69"/><polygon class="cls-9" points="467.33 90.13 467.33 118.07 427.33 75.96 427.33 47.24 467.33 90.13"/></g><polygon class="cls-4" points="455.89 252.66 492.81 252.66 492.81 54.67 455.89 76.71 455.89 252.66"/><polygon class="cls-6" points="482.21 61 482.21 252.66 492.81 252.66 492.81 54.25 482.21 61"/><line class="cls-10" x1="459.83" y1="76.65" x2="459.83" y2="250.98"/><line class="cls-10" x1="464.09" y1="73.89" x2="464.09" y2="250.98"/><line class="cls-10" x1="468.53" y1="71.05" x2="468.53" y2="250.98"/><line class="cls-10" x1="473.42" y1="68.68" x2="473.42" y2="250.98"/><line class="cls-10" x1="478.3" y1="65.49" x2="478.3" y2="251.12"/><line class="cls-10" x1="457.22" y1="80.97" x2="480.53" y2="80.97"/><line class="cls-10" x1="457.54" y1="85.63" x2="480.85" y2="85.63"/><line class="cls-10" x1="457.54" y1="90.96" x2="480.85" y2="90.96"/><line class="cls-10" x1="457.54" y1="96.3" x2="480.85" y2="96.3"/><line class="cls-10" x1="457.54" y1="101.63" x2="480.85" y2="101.63"/><line class="cls-10" x1="457.54" y1="106.96" x2="480.85" y2="106.96"/><line class="cls-10" x1="457.54" y1="112.29" x2="480.85" y2="112.29"/><line class="cls-10" x1="457.54" y1="117.62" x2="480.85" y2="117.62"/><line class="cls-10" x1="457.54" y1="122.95" x2="480.85" y2="122.95"/><line class="cls-10" x1="457.54" y1="128.28" x2="480.85" y2="128.28"/><line class="cls-10" x1="457.54" y1="133.61" x2="480.85" y2="133.61"/><line class="cls-10" x1="457.54" y1="138.94" x2="480.85" y2="138.94"/><line class="cls-10" x1="457.54" y1="144.27" x2="480.85" y2="144.27"/><line class="cls-10" x1="457.54" y1="149.6" x2="480.85" y2="149.6"/><line class="cls-10" x1="457.54" y1="154.93" x2="480.85" y2="154.93"/><line class="cls-10" x1="457.54" y1="160.26" x2="480.85" y2="160.26"/><line class="cls-10" x1="457.54" y1="165.59" x2="480.85" y2="165.59"/><line class="cls-10" x1="457.54" y1="170.93" x2="480.85" y2="170.93"/><line class="cls-10" x1="457.54" y1="176.26" x2="480.85" y2="176.26"/><line class="cls-10" x1="457.54" y1="181.59" x2="480.85" y2="181.59"/><line class="cls-10" x1="457.54" y1="186.92" x2="480.85" y2="186.92"/><line class="cls-10" x1="457.54" y1="192.25" x2="480.85" y2="192.25"/><line class="cls-10" x1="457.54" y1="197.58" x2="480.85" y2="197.58"/><line class="cls-10" x1="457.54" y1="202.91" x2="480.85" y2="202.91"/><line class="cls-10" x1="457.54" y1="208.24" x2="480.85" y2="208.24"/><line class="cls-10" x1="457.54" y1="213.57" x2="480.85" y2="213.57"/><line class="cls-10" x1="457.54" y1="218.9" x2="480.85" y2="218.9"/><line class="cls-10" x1="457.54" y1="224.23" x2="480.85" y2="224.23"/><line class="cls-10" x1="457.54" y1="229.56" x2="480.85" y2="229.56"/><line class="cls-10" x1="457.54" y1="234.89" x2="480.85" y2="234.89"/><line class="cls-10" x1="457.54" y1="240.22" x2="480.85" y2="240.22"/><g class="cls-8"><polygon class="cls-9" points="482.22 147.54 482.22 136.83 456.18 164.25 456.18 174.96 482.22 147.54"/><polygon class="cls-9" points="456.18 141.32 456.18 159.51 482.22 132.09 482.22 113.39 456.18 141.32"/></g><rect class="cls-11" x="360.12" y="70.52" width="23.2" height="19.12"/><rect class="cls-12" x="359.33" y="68.6" width="24.77" height="1.92"/><rect class="cls-13" x="349.92" y="82.08" width="43.61" height="19.12"/><rect class="cls-12" x="348.61" y="79.69" width="46.23" height="2.39"/><rect class="cls-11" x="333.28" y="96.69" width="76.89" height="156.88"/><rect class="cls-12" x="331.9" y="93.68" width="79.64" height="3.01"/><path class="cls-5" d="M356.65,83.72a3.43,3.43,0,0,0-3.37,3.47v6.49H360V87.19A3.43,3.43,0,0,0,356.65,83.72Z"/><path class="cls-5" d="M366.7,83.72a3.43,3.43,0,0,0-3.38,3.47v6.49h6.76V87.19A3.43,3.43,0,0,0,366.7,83.72Z"/><path class="cls-5" d="M376.74,83.72a3.43,3.43,0,0,0-3.38,3.47v6.49h6.76V87.19A3.43,3.43,0,0,0,376.74,83.72Z"/><path class="cls-5" d="M386.79,83.72a3.43,3.43,0,0,0-3.38,3.47v6.49h6.75V87.19A3.43,3.43,0,0,0,386.79,83.72Z"/><rect class="cls-14" x="362.18" y="70.07" width="1.14" height="10.01"/><rect class="cls-14" x="368.06" y="70.07" width="1.14" height="10.01"/><rect class="cls-14" x="373.95" y="70.07" width="1.14" height="10.01"/><rect class="cls-14" x="379.84" y="70.07" width="1.14" height="10.01"/><rect class="cls-5" x="353.89" y="227.1" width="35.13" height="26.47"/><g class="cls-15"><polygon class="cls-16" points="381.83 228.54 381.83 227.94 379.28 227.94 355.88 252.73 358.99 252.73 381.83 228.54"/><polygon class="cls-16" points="354.54 243.5 354.54 250.61 375.95 227.94 369.23 227.94 354.54 243.5"/></g><line class="cls-17" x1="371.72" y1="227.96" x2="371.72" y2="252.87"/><polygon class="cls-18" points="340.78 118.44 342 118.44 342 118.48 350.2 118.48 350.2 118.44 350.2 103.86 350.2 103.06 340.78 103.06 340.78 118.44"/><polygon class="cls-18" points="353.89 118.36 355.12 118.36 355.12 118.4 363.32 118.4 363.32 118.36 363.32 103.79 363.32 102.98 353.89 102.98 353.89 118.36"/><polygon class="cls-18" points="380.12 118.36 381.35 118.36 381.35 118.4 389.55 118.4 389.55 118.36 389.55 103.79 389.55 102.98 380.12 102.98 380.12 118.36"/><polygon class="cls-18" points="393.24 103.06 393.24 118.44 394.47 118.44 394.47 118.48 402.67 118.48 402.67 118.44 402.67 103.86 402.67 103.06 393.24 103.06"/><polygon class="cls-18" points="368.24 118.48 376.43 118.48 376.43 118.44 376.43 103.86 376.43 103.06 367.01 103.06 367.01 118.44 368.24 118.44 368.24 118.48"/><polygon class="cls-18" points="340.78 139.61 342 139.61 342 139.66 350.2 139.66 350.2 139.61 350.2 125.04 350.2 124.24 340.78 124.24 340.78 139.61"/><polygon class="cls-18" points="353.89 139.54 355.12 139.54 355.12 139.58 363.32 139.58 363.32 139.54 363.32 124.97 363.32 124.16 353.89 124.16 353.89 139.54"/><polygon class="cls-18" points="380.12 139.54 381.35 139.54 381.35 139.58 389.55 139.58 389.55 139.54 389.55 124.97 389.55 124.16 380.12 124.16 380.12 139.54"/><polygon class="cls-18" points="393.24 124.24 393.24 139.61 394.47 139.61 394.47 139.66 402.67 139.66 402.67 139.61 402.67 125.04 402.67 124.24 393.24 124.24"/><polygon class="cls-18" points="368.24 139.66 376.43 139.66 376.43 139.61 376.43 125.04 376.43 124.24 367.01 124.24 367.01 139.61 368.24 139.61 368.24 139.66"/><polygon class="cls-18" points="340.78 160.79 342 160.79 342 160.83 350.2 160.83 350.2 160.79 350.2 146.22 350.2 145.41 340.78 145.41 340.78 160.79"/><polygon class="cls-18" points="353.89 160.71 355.12 160.71 355.12 160.75 363.32 160.75 363.32 160.71 363.32 146.14 363.32 145.34 353.89 145.34 353.89 160.71"/><polygon class="cls-18" points="380.12 160.71 381.35 160.71 381.35 160.75 389.55 160.75 389.55 160.71 389.55 146.14 389.55 145.34 380.12 145.34 380.12 160.71"/><polygon class="cls-18" points="393.24 145.41 393.24 160.79 394.47 160.79 394.47 160.83 402.67 160.83 402.67 160.79 402.67 146.22 402.67 145.41 393.24 145.41"/><polygon class="cls-18" points="368.24 160.83 376.43 160.83 376.43 160.79 376.43 146.22 376.43 145.41 367.01 145.41 367.01 160.79 368.24 160.79 368.24 160.83"/><polygon class="cls-18" points="340.78 181.97 342 181.97 342 182.01 350.2 182.01 350.2 181.97 350.2 167.39 350.2 166.59 340.78 166.59 340.78 181.97"/><polygon class="cls-18" points="353.89 181.89 355.12 181.89 355.12 181.93 363.32 181.93 363.32 181.89 363.32 167.32 363.32 166.51 353.89 166.51 353.89 181.89"/><polygon class="cls-18" points="380.12 181.89 381.35 181.89 381.35 181.93 389.55 181.93 389.55 181.89 389.55 167.32 389.55 166.51 380.12 166.51 380.12 181.89"/><polygon class="cls-18" points="393.24 166.59 393.24 181.97 394.47 181.97 394.47 182.01 402.67 182.01 402.67 181.97 402.67 167.39 402.67 166.59 393.24 166.59"/><polygon class="cls-18" points="368.24 182.01 376.43 182.01 376.43 181.97 376.43 167.39 376.43 166.59 367.01 166.59 367.01 181.97 368.24 181.97 368.24 182.01"/><polygon class="cls-18" points="340.78 203.14 342 203.14 342 203.19 350.2 203.19 350.2 203.14 350.2 188.57 350.2 187.76 340.78 187.76 340.78 203.14"/><polygon class="cls-18" points="353.89 203.06 355.12 203.06 355.12 203.1 363.32 203.1 363.32 203.06 363.32 188.5 363.32 187.69 353.89 187.69 353.89 203.06"/><polygon class="cls-18" points="380.12 203.06 381.35 203.06 381.35 203.1 389.55 203.1 389.55 203.06 389.55 188.5 389.55 187.69 380.12 187.69 380.12 203.06"/><polygon class="cls-18" points="393.24 187.76 393.24 203.14 394.47 203.14 394.47 203.19 402.67 203.19 402.67 203.14 402.67 188.57 402.67 187.76 393.24 187.76"/><polygon class="cls-18" points="368.24 203.19 376.43 203.19 376.43 203.14 376.43 188.57 376.43 187.76 367.01 187.76 367.01 203.14 368.24 203.14 368.24 203.19"/><polygon class="cls-18" points="340.78 224.32 342 224.32 342 224.36 350.2 224.36 350.2 224.32 350.2 209.75 350.2 208.94 340.78 208.94 340.78 224.32"/><polygon class="cls-18" points="353.89 224.24 355.12 224.24 355.12 224.28 363.32 224.28 363.32 224.24 363.32 209.67 363.32 208.86 353.89 208.86 353.89 224.24"/><polygon class="cls-18" points="380.12 224.24 381.35 224.24 381.35 224.28 389.55 224.28 389.55 224.24 389.55 209.67 389.55 208.86 380.12 208.86 380.12 224.24"/><polygon class="cls-18" points="393.24 208.94 393.24 224.32 394.47 224.32 394.47 224.36 402.67 224.36 402.67 224.32 402.67 209.75 402.67 208.94 393.24 208.94"/><polygon class="cls-18" points="368.24 224.36 376.43 224.36 376.43 224.32 376.43 209.75 376.43 208.94 367.01 208.94 367.01 224.32 368.24 224.32 368.24 224.36"/><polygon class="cls-5" points="340.78 116.32 342 116.32 342 116.36 350.2 116.36 350.2 116.32 350.2 101.75 350.2 100.94 340.78 100.94 340.78 116.32"/><polygon class="cls-5" points="353.89 116.24 355.12 116.24 355.12 116.28 363.32 116.28 363.32 116.24 363.32 101.67 363.32 100.87 353.89 100.87 353.89 116.24"/><polygon class="cls-5" points="380.12 116.24 381.35 116.24 381.35 116.28 389.55 116.28 389.55 116.24 389.55 101.67 389.55 100.87 380.12 100.87 380.12 116.24"/><polygon class="cls-5" points="393.24 100.94 393.24 116.32 394.47 116.32 394.47 116.36 402.67 116.36 402.67 116.32 402.67 101.75 402.67 100.94 393.24 100.94"/><polygon class="cls-5" points="368.24 116.36 376.43 116.36 376.43 116.32 376.43 101.75 376.43 100.94 367.01 100.94 367.01 116.32 368.24 116.32 368.24 116.36"/><polygon class="cls-5" points="340.78 137.5 342 137.5 342 137.54 350.2 137.54 350.2 137.5 350.2 122.92 350.2 122.12 340.78 122.12 340.78 137.5"/><polygon class="cls-5" points="353.89 137.42 355.12 137.42 355.12 137.46 363.32 137.46 363.32 137.42 363.32 122.85 363.32 122.04 353.89 122.04 353.89 137.42"/><polygon class="cls-5" points="380.12 137.42 381.35 137.42 381.35 137.46 389.55 137.46 389.55 137.42 389.55 122.85 389.55 122.04 380.12 122.04 380.12 137.42"/><polygon class="cls-5" points="393.24 122.12 393.24 137.5 394.47 137.5 394.47 137.54 402.67 137.54 402.67 137.5 402.67 122.92 402.67 122.12 393.24 122.12"/><polygon class="cls-5" points="368.24 137.54 376.43 137.54 376.43 137.5 376.43 122.92 376.43 122.12 367.01 122.12 367.01 137.5 368.24 137.5 368.24 137.54"/><polygon class="cls-5" points="340.78 158.67 342 158.67 342 158.72 350.2 158.72 350.2 158.67 350.2 144.1 350.2 143.29 340.78 143.29 340.78 158.67"/><polygon class="cls-5" points="353.89 158.59 355.12 158.59 355.12 158.63 363.32 158.63 363.32 158.59 363.32 144.03 363.32 143.22 353.89 143.22 353.89 158.59"/><polygon class="cls-5" points="380.12 158.59 381.35 158.59 381.35 158.63 389.55 158.63 389.55 158.59 389.55 144.03 389.55 143.22 380.12 143.22 380.12 158.59"/><polygon class="cls-5" points="393.24 143.29 393.24 158.67 394.47 158.67 394.47 158.72 402.67 158.72 402.67 158.67 402.67 144.1 402.67 143.29 393.24 143.29"/><polygon class="cls-5" points="368.24 158.72 376.43 158.72 376.43 158.67 376.43 144.1 376.43 143.29 367.01 143.29 367.01 158.67 368.24 158.67 368.24 158.72"/><polygon class="cls-5" points="340.78 179.85 342 179.85 342 179.89 350.2 179.89 350.2 179.85 350.2 165.28 350.2 164.47 340.78 164.47 340.78 179.85"/><polygon class="cls-5" points="353.89 179.77 355.12 179.77 355.12 179.81 363.32 179.81 363.32 179.77 363.32 165.2 363.32 164.39 353.89 164.39 353.89 179.77"/><polygon class="cls-5" points="380.12 179.77 381.35 179.77 381.35 179.81 389.55 179.81 389.55 179.77 389.55 165.2 389.55 164.39 380.12 164.39 380.12 179.77"/><polygon class="cls-5" points="393.24 164.47 393.24 179.85 394.47 179.85 394.47 179.89 402.67 179.89 402.67 179.85 402.67 165.28 402.67 164.47 393.24 164.47"/><polygon class="cls-5" points="368.24 179.89 376.43 179.89 376.43 179.85 376.43 165.28 376.43 164.47 367.01 164.47 367.01 179.85 368.24 179.85 368.24 179.89"/><polygon class="cls-5" points="340.78 201.02 342 201.02 342 201.07 350.2 201.07 350.2 201.02 350.2 186.45 350.2 185.65 340.78 185.65 340.78 201.02"/><polygon class="cls-5" points="353.89 200.95 355.12 200.95 355.12 200.99 363.32 200.99 363.32 200.95 363.32 186.38 363.32 185.57 353.89 185.57 353.89 200.95"/><polygon class="cls-5" points="380.12 200.95 381.35 200.95 381.35 200.99 389.55 200.99 389.55 200.95 389.55 186.38 389.55 185.57 380.12 185.57 380.12 200.95"/><polygon class="cls-5" points="393.24 185.65 393.24 201.02 394.47 201.02 394.47 201.07 402.67 201.07 402.67 201.02 402.67 186.45 402.67 185.65 393.24 185.65"/><polygon class="cls-5" points="368.24 201.07 376.43 201.07 376.43 201.02 376.43 186.45 376.43 185.65 367.01 185.65 367.01 201.02 368.24 201.02 368.24 201.07"/><polygon class="cls-5" points="340.78 222.2 342 222.2 342 222.24 350.2 222.24 350.2 222.2 350.2 207.63 350.2 206.82 340.78 206.82 340.78 222.2"/><polygon class="cls-5" points="353.89 222.12 355.12 222.12 355.12 222.16 363.32 222.16 363.32 222.12 363.32 207.56 363.32 206.75 353.89 206.75 353.89 222.12"/><polygon class="cls-5" points="380.12 222.12 381.35 222.12 381.35 222.16 389.55 222.16 389.55 222.12 389.55 207.56 389.55 206.75 380.12 206.75 380.12 222.12"/><polygon class="cls-5" points="393.24 206.82 393.24 222.2 394.47 222.2 394.47 222.24 402.67 222.24 402.67 222.2 402.67 207.63 402.67 206.82 393.24 206.82"/><polygon class="cls-5" points="368.24 222.24 376.43 222.24 376.43 222.2 376.43 207.63 376.43 206.82 367.01 206.82 367.01 222.2 368.24 222.2 368.24 222.24"/><path class="cls-19" d="M1482.65,252.78a2.72,2.72,0,0,1-1.16-3.33c.66-1.53,1.37-.73,2.31-.09-.68-2.82-.65-7.69,1.13-10,1.52-1.91,4.51.33,5.52,2.25.79-1.27,1.17-2.86,2.82-2.67,1,.11,1.59,1.29,2.56,1.63-.68-2.83.81-7.92,3.26-8.88,3-1.15,4.07,2.82,4.06,5.51,1-4.47,3.78-.53,4.85,1.44.66-.72,1-2,2.12-1.64.74.23,1.33,1.57,1.47,2.41.43-3.11,3.76-7.67,6.6-6.66s2.69,4.42,2.73,7.21c.77-1.92,3.51-1.62,4.54-.27s.88,4.31,0,5.76c1.4-1.44,2.72-4.28,4.85-3.1,2.74,1.51.69,4.93.19,7.25.31-1.39,4.32-1.14,4.52.5.17,1.42-2,2.51-3.14,2.63Z"/><path class="cls-20" d="M1535.09,64.86c-15.09,0-27.32,13.43-27.32,30h54.63C1562.4,78.29,1550.17,64.86,1535.09,64.86Z"/><path class="cls-21" d="M1537.54,90.41c0,11.49-1.22,20.81-2.72,20.81s-2.72-9.32-2.72-20.81,1.22-20.81,2.72-20.81S1537.54,78.92,1537.54,90.41Z"/><path class="cls-21" d="M1525,90.41c0,11.68,2.86,21.2,1.43,21.81s-6.93-8.78-6.88-21.81,5.6-22.51,6.88-21.81S1525,78.72,1525,90.41Z"/><path class="cls-21" d="M1544.69,90.41c0,11.68-2.86,21.2-1.44,21.81s6.94-8.78,6.89-21.81-5.61-22.51-6.89-21.81S1544.69,78.72,1544.69,90.41Z"/><polygon class="cls-22" points="1561.96 107.31 1569.85 107.31 1569.85 253.1 1501.77 253.1 1501.77 107.31 1509.66 107.31 1561.96 107.31"/><rect class="cls-23" x="1516.3" y="108.12" width="7.85" height="81.69"/><rect class="cls-23" x="1531.67" y="108.12" width="7.85" height="81.69"/><rect class="cls-23" x="1547.05" y="108.12" width="7.85" height="81.69"/><rect class="cls-24" x="1501.77" y="199.49" width="68.08" height="53.61"/><polygon class="cls-25" points="1548.08 145.03 1554.9 145.03 1554.9 144.96 1554.9 121.8 1554.9 120.52 1547.05 120.52 1547.05 144.96 1548.08 144.96 1548.08 145.03"/><polygon class="cls-25" points="1548.08 178.09 1554.9 178.09 1554.9 178.02 1554.9 154.86 1554.9 153.59 1547.05 153.59 1547.05 178.02 1548.08 178.02 1548.08 178.09"/><polygon class="cls-25" points="1532.7 145.03 1539.53 145.03 1539.53 144.96 1539.53 121.8 1539.53 120.52 1531.67 120.52 1531.67 144.96 1532.7 144.96 1532.7 145.03"/><polygon class="cls-25" points="1532.7 178.09 1539.53 178.09 1539.53 178.02 1539.53 154.86 1539.53 153.59 1531.68 153.59 1531.68 178.02 1532.7 178.02 1532.7 178.09"/><polygon class="cls-25" points="1517.32 145.03 1524.15 145.03 1524.15 144.96 1524.15 121.8 1524.15 120.52 1516.3 120.52 1516.3 144.96 1517.32 144.96 1517.32 145.03"/><polygon class="cls-25" points="1517.32 178.09 1524.15 178.09 1524.15 178.02 1524.15 154.86 1524.15 153.59 1516.3 153.59 1516.3 178.02 1517.32 178.02 1517.32 178.09"/><rect class="cls-25" x="1508.17" y="208.35" width="55.32" height="44.75"/><rect class="cls-26" x="1500.15" y="199.49" width="72.02" height="8.68"/><rect class="cls-27" x="1499.59" y="98.63" width="72.02" height="8.68"/><rect class="cls-20" x="1496.28" y="95.65" width="78.06" height="2.98"/><rect class="cls-20" x="1501.77" y="190.62" width="68.08" height="8.86"/><rect class="cls-28" x="1502.66" y="191.69" width="66.26" height="2.88"/><line class="cls-29" x1="1508.98" y1="223.49" x2="1563.21" y2="223.49"/><line class="cls-29" x1="1519.5" y1="208.35" x2="1519.5" y2="252.78"/><line class="cls-29" x1="1552.6" y1="208.35" x2="1552.6" y2="252.78"/><line class="cls-29" x1="1535.79" y1="208.35" x2="1535.79" y2="252.78"/><g class="cls-15"><polygon class="cls-16" points="1556.58 210.21 1556.58 209.16 1552.09 209.16 1510.9 252.78 1516.38 252.78 1556.58 210.21"/><polygon class="cls-16" points="1508.55 236.53 1508.55 249.05 1546.23 209.16 1534.41 209.16 1508.55 236.53"/></g><path class="cls-30" d="M1120.79,227.06c-13.43,5.16-16.87.76-22-4a14.07,14.07,0,0,1-10,6.7c-12.3,1.57-29.42-29-7.34-39.11-3.58-18.4,27-21.33,35-14.18,1.45,1.31,6.13,5.92,5.18,7.87-.56,1.12,6.49-1.87,11.12,15.38C1136.19,214.69,1124.84,225.49,1120.79,227.06Z"/><path class="cls-31" d="M1120.79,227.06c-13.43,5.16-16.87.76-22-4a14.07,14.07,0,0,1-10,6.7c-9.41,1.2-21.64-16.37-17-29.26.2,14.81,24.25,24.79,27.29,12.2,2.14,11.18,25.63,7.9,23-3,5.16.08,8.82-4.59,10.59-9.94.12.48.25,1,.37,1.48C1136,213.1,1125.78,225.14,1120.79,227.06Z"/><path class="cls-3" d="M1120.79,227.06c-13.43,5.16-16.87.76-22-4a14.07,14.07,0,0,1-10,6.7c-12.3,1.57-29.42-29-7.34-39.11-3.58-18.4,27-21.33,35-14.18,1.45,1.31,6.13,5.92,5.18,7.87-.56,1.12,6.49-1.87,11.12,15.38C1136.19,214.69,1124.84,225.49,1120.79,227.06Z"/><path class="cls-32" d="M1099.38,183.55a4.2,4.2,0,0,0-.87.9,4.38,4.38,0,0,0-.84,2.28,6.07,6.07,0,0,0,.24,2,1.87,1.87,0,0,0,.8,1.14c.39.21.93.05,1.42-.55a4.3,4.3,0,0,0,.78-2.5,3.91,3.91,0,0,0-.79-2.3A10.48,10.48,0,0,0,1099.38,183.55Z"/><path class="cls-32" d="M1094.39,184a4.32,4.32,0,0,0-.47,3.06c.46,1.45,1.42,2.43,2.15,2.19s.94-1.6.48-3.06A4.31,4.31,0,0,0,1094.39,184Z"/><path class="cls-32" d="M1089.3,186.7a4.21,4.21,0,0,0,0,1.09,3.54,3.54,0,0,0,.92,2c1.07,1.08,2.2,1.56,2.9,1.13s.32-2-.86-3.16a3.76,3.76,0,0,0-1.91-.92A6.19,6.19,0,0,0,1089.3,186.7Z"/><path class="cls-32" d="M1087.39,191.79a3.7,3.7,0,0,0,1.8,1.81c1.12.46,2.25.39,2.53-.2s-.48-1.46-1.71-2A3.54,3.54,0,0,0,1087.39,191.79Z"/><path class="cls-32" d="M1104.67,188.31a2.37,2.37,0,0,0-1.62.35c-.64.43-1,1.07-.79,1.44s1,.27,1.7-.24A2.32,2.32,0,0,0,1104.67,188.31Z"/><path class="cls-32" d="M1118.48,203.15a2.79,2.79,0,0,0-.73.31,2.9,2.9,0,0,0-1.06,1.13,4.1,4.1,0,0,0-.35,1.23,1.21,1.21,0,0,0,.19.87c.18.22.54.26,1,0a2.71,2.71,0,0,0,1.07-1.28,2.49,2.49,0,0,0,.11-1.55A5,5,0,0,0,1118.48,203.15Z"/><path class="cls-32" d="M1111.78,202.5a2.54,2.54,0,0,0-.25.66,2.15,2.15,0,0,0,0,1.39c.36.9.91,1.46,1.43,1.38s.67-1.08.27-2.07a2.35,2.35,0,0,0-.89-1A5.1,5.1,0,0,0,1111.78,202.5Z"/><path class="cls-32" d="M1109.39,205a2.33,2.33,0,0,0,.61,1.5c.54.56,1.23.79,1.54.52s.08-1-.52-1.59A2.26,2.26,0,0,0,1109.39,205Z"/><path class="cls-32" d="M1120.42,207.26a1.53,1.53,0,0,0-1-.2c-.49.1-.85.39-.82.65s.49.4,1,.28A1.5,1.5,0,0,0,1120.42,207.26Z"/><path class="cls-14" d="M1091.39,222.49s8.78,1.7,8.78,15.09.48,13.69.48,13.69a6.53,6.53,0,0,1-3.47,3.12c-1.53.55-.73.35,4.85.35,4.16,0,5.78.37,4.76-.18-1.3-.69-2.78-1.67-2.85-3.11-.31-5.88-1.93-15.72-.08-21.72s10-8,9.23-8.77-8.8,5.08-9.24,4.9,2.59-9.78,3.29-11.85-1.13-.78-1.73.69-3,10.38-3.73,10.82-2.9-13.24-4-13.68-1,.32-1,1.56,4.11,11.25,3,11.71-5.44-3-7.28-3.49S1091.39,222.49,1091.39,222.49Z"/><path class="cls-30" d="M565.09,227c-13.41,5.16-16.84.77-22-4a14.07,14.07,0,0,1-10,6.69c-12.28,1.57-29.37-28.91-7.33-39.05-3.58-18.37,26.92-21.29,34.9-14.16,1.45,1.32,6.13,5.91,5.17,7.86-.56,1.12,6.49-1.87,11.11,15.36C580.47,214.62,569.14,225.41,565.09,227Z"/><path class="cls-31" d="M565.09,227c-13.41,5.16-16.84.77-22-4a14.07,14.07,0,0,1-10,6.69c-9.39,1.2-21.6-16.34-17-29.21.21,14.78,24.22,24.75,27.26,12.18,2.13,11.16,25.59,7.89,23-3,5.16.07,8.81-4.59,10.58-9.93.11.47.24,1,.37,1.48C580.23,213,570.08,225.06,565.09,227Z"/><path class="cls-3" d="M565.09,227c-13.41,5.16-16.84.77-22-4a14.07,14.07,0,0,1-10,6.69c-12.28,1.57-29.37-28.91-7.33-39.05-3.58-18.37,26.92-21.29,34.9-14.16,1.45,1.32,6.13,5.91,5.17,7.86-.56,1.12,6.49-1.87,11.11,15.36C580.47,214.62,569.14,225.41,565.09,227Z"/><path class="cls-32" d="M543.72,183.54a4,4,0,0,0-.87.89,4.38,4.38,0,0,0-.84,2.27,6,6,0,0,0,.24,2,1.9,1.9,0,0,0,.8,1.15c.39.2.93,0,1.41-.55a4.34,4.34,0,0,0,.78-2.5,3.91,3.91,0,0,0-.78-2.3A11.17,11.17,0,0,0,543.72,183.54Z"/><path class="cls-32" d="M538.74,184a4.34,4.34,0,0,0-.48,3c.47,1.45,1.42,2.44,2.15,2.2s.94-1.6.48-3.06A4.27,4.27,0,0,0,538.74,184Z"/><path class="cls-32" d="M533.65,186.67a4.29,4.29,0,0,0,0,1.1,3.51,3.51,0,0,0,.92,2c1.07,1.08,2.2,1.56,2.9,1.13s.32-2-.86-3.15a3.76,3.76,0,0,0-1.91-.92A6.91,6.91,0,0,0,533.65,186.67Z"/><path class="cls-32" d="M531.75,191.76a3.66,3.66,0,0,0,1.79,1.8c1.12.47,2.25.4,2.52-.19s-.47-1.46-1.7-2A3.54,3.54,0,0,0,531.75,191.76Z"/><path class="cls-32" d="M549,188.29a2.37,2.37,0,0,0-1.62.35c-.64.43-1,1.06-.79,1.43s.95.27,1.7-.24A2.31,2.31,0,0,0,549,188.29Z"/><path class="cls-32" d="M562.79,203.1a2.52,2.52,0,0,0-.73.32,2.8,2.8,0,0,0-1.06,1.12,4.1,4.1,0,0,0-.35,1.23,1.21,1.21,0,0,0,.19.87c.18.21.54.26,1,0a2.68,2.68,0,0,0,1.07-1.27,2.49,2.49,0,0,0,.11-1.55C562.9,203.43,562.79,203.1,562.79,203.1Z"/><path class="cls-32" d="M556.09,202.46a2.83,2.83,0,0,0-.25.65,2.29,2.29,0,0,0,0,1.39c.37.9.91,1.46,1.43,1.38s.68-1.08.28-2.07a2.36,2.36,0,0,0-.9-1A3.71,3.71,0,0,0,556.09,202.46Z"/><path class="cls-32" d="M553.71,205a2.33,2.33,0,0,0,.61,1.5c.54.55,1.22.79,1.53.51s.08-1-.51-1.58A2.26,2.26,0,0,0,553.71,205Z"/><path class="cls-32" d="M564.72,207.2a1.53,1.53,0,0,0-1-.19c-.48.09-.84.38-.82.65s.5.39,1.06.28A1.46,1.46,0,0,0,564.72,207.2Z"/><path class="cls-14" d="M535.74,222.41s8.76,1.7,8.76,15.07.48,13.67.48,13.67a6.53,6.53,0,0,1-3.46,3.12c-1.53.54-.73.34,4.84.34,4.15,0,5.77.37,4.76-.17-1.3-.69-2.78-1.67-2.85-3.11-.31-5.87-1.92-15.7-.08-21.69s10-8,9.22-8.75-8.79,5.06-9.23,4.89,2.59-9.76,3.28-11.84-1.12-.77-1.73.7-3,10.36-3.71,10.8-2.9-13.22-4-13.66-1,.32-.95,1.56S545.2,224.57,544,225s-5.42-3-7.27-3.48S535.74,222.41,535.74,222.41Z"/><path class="cls-30" d="M1699.74,227.06c-13.43,5.16-16.87.76-22-4a14.07,14.07,0,0,1-10,6.7c-12.3,1.57-29.42-29-7.34-39.11-3.58-18.4,27-21.33,34.95-14.18,1.45,1.31,6.14,5.92,5.18,7.87-.56,1.12,6.49-1.87,11.12,15.38C1715.15,214.69,1703.79,225.49,1699.74,227.06Z"/><path class="cls-31" d="M1699.74,227.06c-13.43,5.16-16.87.76-22-4a14.07,14.07,0,0,1-10,6.7c-9.4,1.2-21.64-16.37-17-29.26.21,14.81,24.25,24.79,27.29,12.2,2.14,11.18,25.63,7.9,23-3,5.16.08,8.82-4.59,10.59-9.94.12.48.25,1,.37,1.48C1714.9,213.1,1704.73,225.14,1699.74,227.06Z"/><path class="cls-3" d="M1699.74,227.06c-13.43,5.16-16.87.76-22-4a14.07,14.07,0,0,1-10,6.7c-12.3,1.57-29.42-29-7.34-39.11-3.58-18.4,27-21.33,34.95-14.18,1.45,1.31,6.14,5.92,5.18,7.87-.56,1.12,6.49-1.87,11.12,15.38C1715.15,214.69,1703.79,225.49,1699.74,227.06Z"/><path class="cls-32" d="M1678.34,183.55a4,4,0,0,0-.87.9,4.29,4.29,0,0,0-.84,2.28,6.1,6.1,0,0,0,.23,2,1.87,1.87,0,0,0,.8,1.14c.39.21.94.05,1.42-.55a4.3,4.3,0,0,0,.78-2.5,3.91,3.91,0,0,0-.79-2.3A11.69,11.69,0,0,0,1678.34,183.55Z"/><path class="cls-32" d="M1673.35,184a4.3,4.3,0,0,0-.48,3.06c.46,1.45,1.42,2.43,2.15,2.19s.94-1.6.48-3.06A4.27,4.27,0,0,0,1673.35,184Z"/><path class="cls-32" d="M1668.25,186.7a4.21,4.21,0,0,0,0,1.09,3.54,3.54,0,0,0,.92,2c1.07,1.08,2.2,1.56,2.9,1.13s.33-2-.86-3.16a3.72,3.72,0,0,0-1.91-.92A6.19,6.19,0,0,0,1668.25,186.7Z"/><path class="cls-32" d="M1666.34,191.79a3.7,3.7,0,0,0,1.8,1.81c1.12.46,2.25.39,2.53-.2s-.48-1.46-1.71-2A3.54,3.54,0,0,0,1666.34,191.79Z"/><path class="cls-32" d="M1683.62,188.31a2.37,2.37,0,0,0-1.62.35c-.64.43-1,1.07-.79,1.44s1,.27,1.7-.24A2.32,2.32,0,0,0,1683.62,188.31Z"/><path class="cls-32" d="M1697.44,203.15a2.77,2.77,0,0,0-.74.31,2.9,2.9,0,0,0-1.06,1.13,4.1,4.1,0,0,0-.35,1.23,1.26,1.26,0,0,0,.19.87c.18.22.54.26,1,0a2.78,2.78,0,0,0,1.08-1.28,2.57,2.57,0,0,0,.11-1.55A7.12,7.12,0,0,0,1697.44,203.15Z"/><path class="cls-32" d="M1690.73,202.5a3.06,3.06,0,0,0-.25.66,2.29,2.29,0,0,0,0,1.39c.36.9.91,1.46,1.43,1.38s.68-1.08.27-2.07a2.35,2.35,0,0,0-.89-1A5.1,5.1,0,0,0,1690.73,202.5Z"/><path class="cls-32" d="M1688.34,205a2.33,2.33,0,0,0,.61,1.5c.55.56,1.23.79,1.54.52s.08-1-.52-1.59A2.26,2.26,0,0,0,1688.34,205Z"/><path class="cls-32" d="M1699.37,207.26a1.53,1.53,0,0,0-1-.2c-.49.1-.85.39-.82.65s.49.4,1.06.28A1.46,1.46,0,0,0,1699.37,207.26Z"/><path class="cls-14" d="M1670.34,222.49s8.78,1.7,8.78,15.09.48,13.69.48,13.69a6.54,6.54,0,0,1-3.46,3.12c-1.54.55-.74.35,4.84.35,4.16,0,5.78.37,4.76-.18-1.29-.69-2.78-1.67-2.85-3.11-.31-5.88-1.92-15.72-.08-21.72s10-8,9.23-8.77-8.79,5.08-9.24,4.9,2.6-9.78,3.29-11.85-1.13-.78-1.73.69-3,10.38-3.73,10.82-2.89-13.24-4-13.68-1,.32-1,1.56,4.11,11.25,3,11.71-5.44-3-7.28-3.49S1670.34,222.49,1670.34,222.49Z"/><path class="cls-33" d="M1725.14,254.54s.85-6.42-4.5-6a3.19,3.19,0,0,0-3.63-3.21s-1.29-4.71-4.71-4.28c0,0-1.93-4.92-5.14-4.07,0,0-4.28-3.41-7.92-.1,0,0-6.2-1.18-6.84,3.53,0,0-4.28-2.36-5.56,2.14,0,0-4.5-2.4-6.21,2.43,0,0-1.93-1.84-4.92,0,0,0-1.71-3.72-5.14-2.43,0,0-4.71-5.78-7.06.64,0,0-5.35-1.07-5.78,3.64,0,0-5.77-.86-5.13,4.28,0,0-6-1.93-4.07,3.42Z"/><path class="cls-34" d="M1655.17,250.59c1.28-3,4.49-1.92,4.49-1.92-.64-3.86,4.49-3.64,4.49-3.64,1.5-4.5,5.14.43,5.14.43,3-1.29,3.85,2.1,3.85,2.1,3.43-1.32,4.92,3.46,4.92,3.46.64-3.42,5.57-1.29,5.57-1.29.85-5.13,5.56-2.17,5.56-2.17-.86-4.53,4.28-3.52,4.28-3.52.21-5.48,7.49-3.29,7.49-3.29,3.85-1.93,6,2.35,6,2.35,4.71-1.07,5.56,2.57,5.56,2.57,3.85-1.28,5.14,3,5.14,3,4.53-.79,5.86,2.88,6.26,4.92h-72.17C1652,251,1655.17,250.59,1655.17,250.59Z"/><path class="cls-33" d="M194.48,255.05s-.85-6.37,4.45-5.94a3.17,3.17,0,0,1,3.61-3.18s1.27-4.67,4.67-4.25c0,0,1.9-4.87,5.09-4,0,0,4.24-3.38,7.85-.1,0,0,6.15-1.17,6.78,3.5,0,0,4.25-2.33,5.52,2.12,0,0,4.45-2.38,6.15,2.42,0,0,1.91-1.83,4.88,0,0,0,1.7-3.69,5.09-2.42,0,0,4.67-5.73,7,.64,0,0,5.3-1.06,5.73,3.6,0,0,5.73-.85,5.09,4.24,0,0,5.94-1.9,4,3.4Z"/><path class="cls-34" d="M263.84,251.13c-1.27-3-4.45-1.91-4.45-1.91.64-3.81-4.46-3.6-4.46-3.6-1.48-4.46-5.09.42-5.09.42-3-1.27-3.81,2.09-3.81,2.09-3.4-1.31-4.88,3.43-4.88,3.43-.64-3.4-5.52-1.27-5.52-1.27-.85-5.1-5.51-2.16-5.51-2.16.84-4.49-4.25-3.49-4.25-3.49-.21-5.43-7.42-3.26-7.42-3.26-3.82-1.91-5.94,2.33-5.94,2.33-4.67-1.06-5.52,2.54-5.52,2.54-3.82-1.27-5.09,3-5.09,3-4.49-.77-5.81,2.86-6.2,4.88h71.54C267,251.56,263.84,251.13,263.84,251.13Z"/><path class="cls-30" d="M290.37,210.15c1.35.52,3.13,2,2.88,6.13-.58,9.71-7.69,15.34-20,16.29-3.85.31-8-2.4-8-2.4a18.39,18.39,0,0,1-12.94,2c-11-2.51-18-8.54-19-20.13-.55-6.15,5.11-9.81,5.11-9.81s-5.21-5.4-3.68-11.84,10.14-15.22,20.58-12.86c12.91-12.64,49.33,1.71,39.09,28.16C293.4,208.37,290,210,290.37,210.15Z"/><path class="cls-31" d="M290.37,210.15c1.35.52,3.13,2,2.88,6.13-.58,9.71-7.69,15.34-20,16.29-3.85.31-8-2.4-8-2.4a18.39,18.39,0,0,1-12.94,2c-9.89-2.25-16.15-7.21-18.27-15.94,4.45,6,12,10.06,15,3.2,1.77,9.94,27.93,8.86,27-.6,5.41,2.2,12.19-4.61,7-9,6.74,0,11.09-9.51,12.44-18.17a22.8,22.8,0,0,1-1.1,14C293.4,208.37,290,210,290.37,210.15Z"/><path class="cls-3" d="M290.37,210.15c1.35.52,3.13,2,2.88,6.13-.58,9.71-7.69,15.34-20,16.29-3.85.31-8-2.4-8-2.4a18.39,18.39,0,0,1-12.94,2c-11-2.51-18-8.54-19-20.13-.55-6.15,5.11-9.81,5.11-9.81s-5.21-5.4-3.68-11.84,10.14-15.22,20.58-12.86c12.91-12.64,49.33,1.71,39.09,28.16C293.4,208.37,290,210,290.37,210.15Z"/><path class="cls-14" d="M255.19,223.61s8.71,1.69,8.71,15,.47,13.58.47,13.58a6.51,6.51,0,0,1-3.43,3.09c-1.52.54-.73.34,4.81.34,4.12,0,5.72.36,4.71-.17-1.28-.69-2.75-1.66-2.83-3.09-.3-5.83-1.9-15.58-.07-21.53s9.91-8,9.15-8.7-8.72,5-9.16,4.86,2.57-9.69,3.26-11.75-1.12-.77-1.72.69-3,10.29-3.69,10.72-2.87-13.13-3.94-13.56-1,.32-.95,1.55,4.08,11.15,2.93,11.61-5.39-3-7.22-3.46S255.19,223.61,255.19,223.61Z"/><path class="cls-32" d="M266.4,185.42a3.93,3.93,0,0,1,.84.87,4.21,4.21,0,0,1,.81,2.19,5.89,5.89,0,0,1-.23,1.9,1.79,1.79,0,0,1-.77,1.11c-.37.19-.9,0-1.36-.54a4.15,4.15,0,0,1-.75-2.4,3.77,3.77,0,0,1,.75-2.21C266.06,185.81,266.4,185.42,266.4,185.42Z"/><path class="cls-32" d="M271.2,185.84a4.13,4.13,0,0,1,.46,2.94c-.45,1.39-1.37,2.34-2.07,2.11s-.9-1.54-.46-2.95A4.09,4.09,0,0,1,271.2,185.84Z"/><path class="cls-32" d="M276.1,188.45a4.14,4.14,0,0,1,0,1.05,3.45,3.45,0,0,1-.88,1.91c-1,1-2.12,1.49-2.8,1.08s-.31-1.9.83-3a3.65,3.65,0,0,1,1.83-.88A5.85,5.85,0,0,1,276.1,188.45Z"/><path class="cls-32" d="M277.94,193.35a3.55,3.55,0,0,1-1.73,1.74c-1.07.45-2.16.38-2.43-.19s.46-1.41,1.65-1.9A3.36,3.36,0,0,1,277.94,193.35Z"/><path class="cls-32" d="M261.32,190a2.27,2.27,0,0,1,1.55.34c.62.41,1,1,.77,1.38s-.92.26-1.64-.23A2.19,2.19,0,0,1,261.32,190Z"/><path class="cls-32" d="M248,204.28a2.33,2.33,0,0,1,.7.3,2.69,2.69,0,0,1,1,1.09,3.65,3.65,0,0,1,.34,1.18,1.2,1.2,0,0,1-.18.83c-.17.21-.52.25-.94,0a2.67,2.67,0,0,1-1-1.23,2.44,2.44,0,0,1-.11-1.49A6.88,6.88,0,0,1,248,204.28Z"/><path class="cls-32" d="M254.48,203.66a2.43,2.43,0,0,1,.24.63,2.1,2.1,0,0,1-.05,1.33c-.35.87-.87,1.41-1.37,1.33s-.66-1-.27-2a2.23,2.23,0,0,1,.86-1A4.62,4.62,0,0,1,254.48,203.66Z"/><path class="cls-32" d="M256.77,206.08a2.26,2.26,0,0,1-.58,1.46c-.52.53-1.18.76-1.48.49s-.08-.94.5-1.53A2.16,2.16,0,0,1,256.77,206.08Z"/><path class="cls-32" d="M246.17,208.23a1.49,1.49,0,0,1,1-.19c.46.09.81.37.79.63s-.48.38-1,.27A1.43,1.43,0,0,1,246.17,208.23Z"/><path class="cls-30" d="M847.79,209.2c1.32.52,3.05,2,2.81,6-.57,9.47-7.49,15-19.47,15.88-3.76.3-7.83-2.34-7.83-2.34a17.93,17.93,0,0,1-12.62,1.93c-10.74-2.45-17.53-8.33-18.49-19.62-.54-6,5-9.56,5-9.56s-5.08-5.27-3.59-11.54,9.88-14.83,20-12.54c12.59-12.31,48.09,1.67,38.11,27.45C850.74,207.47,847.4,209.06,847.79,209.2Z"/><path class="cls-31" d="M847.79,209.2c1.32.52,3.05,2,2.81,6-.57,9.47-7.49,15-19.47,15.88-3.76.3-7.83-2.34-7.83-2.34a17.93,17.93,0,0,1-12.62,1.93c-9.63-2.2-15.73-7-17.81-15.54,4.35,5.85,11.74,9.8,14.67,3.12,1.73,9.69,27.22,8.64,26.34-.59,5.27,2.15,11.88-4.48,6.81-8.73,6.56,0,10.81-9.27,12.12-17.71a22.18,22.18,0,0,1-1.07,13.64C850.74,207.47,847.4,209.06,847.79,209.2Z"/><path class="cls-3" d="M847.79,209.2c1.32.52,3.05,2,2.81,6-.57,9.47-7.49,15-19.47,15.88-3.76.3-7.83-2.34-7.83-2.34a17.93,17.93,0,0,1-12.62,1.93c-10.74-2.45-17.53-8.33-18.49-19.62-.54-6,5-9.56,5-9.56s-5.08-5.27-3.59-11.54,9.88-14.83,20-12.54c12.59-12.31,48.09,1.67,38.11,27.45C850.74,207.47,847.4,209.06,847.79,209.2Z"/><path class="cls-14" d="M813.51,222.32S822,224,822,236.9s.46,13.24.46,13.24a6.33,6.33,0,0,1-3.34,3c-1.49.53-.71.33,4.68.33,4,0,5.58.36,4.6-.16-1.25-.67-2.69-1.62-2.76-3-.29-5.67-1.85-15.18-.07-21s9.66-7.77,8.92-8.47-8.5,4.9-8.93,4.73,2.51-9.45,3.18-11.45-1.09-.75-1.68.67-2.92,10-3.6,10.45-2.8-12.79-3.84-13.21-.94.3-.92,1.5,4,10.87,2.85,11.32-5.25-2.93-7-3.37S813.51,222.32,813.51,222.32Z"/><path class="cls-32" d="M824.43,185.11a3.55,3.55,0,0,1,.82.84,4.14,4.14,0,0,1,.79,2.13,5.67,5.67,0,0,1-.23,1.86,1.75,1.75,0,0,1-.75,1.07c-.36.2-.87.05-1.32-.51a4,4,0,0,1-.74-2.35,3.73,3.73,0,0,1,.74-2.15A10.21,10.21,0,0,1,824.43,185.11Z"/><path class="cls-32" d="M829.11,185.51a4,4,0,0,1,.45,2.86c-.44,1.36-1.34,2.29-2,2.06s-.88-1.5-.45-2.87A4,4,0,0,1,829.11,185.51Z"/><path class="cls-32" d="M833.89,188.05a4.32,4.32,0,0,1,0,1,3.31,3.31,0,0,1-.86,1.86c-1,1-2.06,1.45-2.72,1.05s-.3-1.85.8-3a3.57,3.57,0,0,1,1.79-.86A6.84,6.84,0,0,1,833.89,188.05Z"/><path class="cls-32" d="M835.68,192.83a3.44,3.44,0,0,1-1.69,1.69c-1,.44-2.11.38-2.37-.18s.45-1.37,1.61-1.85A3.28,3.28,0,0,1,835.68,192.83Z"/><path class="cls-32" d="M819.47,189.57a2.22,2.22,0,0,1,1.52.33c.6.4.93,1,.74,1.34s-.89.26-1.59-.22A2.18,2.18,0,0,1,819.47,189.57Z"/><path class="cls-32" d="M806.52,203.48a2.58,2.58,0,0,1,.69.3,2.61,2.61,0,0,1,1,1.06,3.72,3.72,0,0,1,.33,1.15,1.06,1.06,0,0,1-.18.81c-.16.21-.5.25-.91,0a2.71,2.71,0,0,1-1-1.2,2.38,2.38,0,0,1-.1-1.45C806.42,203.79,806.52,203.48,806.52,203.48Z"/><path class="cls-32" d="M812.81,202.88a2.75,2.75,0,0,1,.24.61,2.15,2.15,0,0,1,0,1.3c-.35.85-.86,1.37-1.34,1.3s-.64-1-.26-1.94a2.19,2.19,0,0,1,.84-1A3.25,3.25,0,0,1,812.81,202.88Z"/><path class="cls-32" d="M815.05,205.24a2.21,2.21,0,0,1-.58,1.42c-.5.51-1.14.74-1.43.48s-.08-.92.48-1.49A2.11,2.11,0,0,1,815.05,205.24Z"/><path class="cls-32" d="M804.71,207.33a1.44,1.44,0,0,1,1-.18c.46.09.79.36.77.61s-.46.37-1,.26A1.35,1.35,0,0,1,804.71,207.33Z"/><path class="cls-30" d="M1407.45,209.08c1.36.53,3.14,2,2.89,6.17-.58,9.75-7.72,15.41-20.07,16.37-3.88.3-8.08-2.41-8.08-2.41a18.47,18.47,0,0,1-13,2c-11.08-2.52-18.08-8.58-19.07-20.22-.55-6.19,5.13-9.86,5.13-9.86s-5.23-5.44-3.69-11.9,10.18-15.29,20.67-12.93c13-12.69,49.57,1.72,39.29,28.3C1410.49,207.3,1407,208.93,1407.45,209.08Z"/><path class="cls-31" d="M1407.45,209.08c1.36.53,3.14,2,2.89,6.17-.58,9.75-7.72,15.41-20.07,16.37-3.88.3-8.08-2.41-8.08-2.41a18.47,18.47,0,0,1-13,2c-9.94-2.26-16.23-7.24-18.36-16,4.47,6,12.09,10.11,15.11,3.22,1.79,10,28.07,8.9,27.17-.6,5.43,2.21,12.25-4.63,7-9,6.76-.05,11.14-9.56,12.5-18.26a22.94,22.94,0,0,1-1.11,14.06C1410.49,207.3,1407,208.93,1407.45,209.08Z"/><path class="cls-3" d="M1407.45,209.08c1.36.53,3.14,2,2.89,6.17-.58,9.75-7.72,15.41-20.07,16.37-3.88.3-8.08-2.41-8.08-2.41a18.47,18.47,0,0,1-13,2c-11.08-2.52-18.08-8.58-19.07-20.22-.55-6.19,5.13-9.86,5.13-9.86s-5.23-5.44-3.69-11.9,10.18-15.29,20.67-12.93c13-12.69,49.57,1.72,39.29,28.3C1410.49,207.3,1407,208.93,1407.45,209.08Z"/><path class="cls-14" d="M1372.1,222.61s8.75,1.7,8.75,15,.47,13.65.47,13.65a6.5,6.5,0,0,1-3.45,3.1c-1.53.55-.73.35,4.83.35,4.14,0,5.76.36,4.74-.18-1.29-.68-2.77-1.66-2.84-3.1-.3-5.85-1.91-15.66-.07-21.64s10-8,9.19-8.73-8.76,5-9.21,4.88,2.59-9.74,3.28-11.81-1.12-.78-1.72.69-3,10.34-3.71,10.78-2.89-13.19-4-13.63-1,.32-1,1.56,4.1,11.2,3,11.66-5.42-3-7.26-3.47S1372.1,222.61,1372.1,222.61Z"/><path class="cls-32" d="M1383.36,184.24a3.8,3.8,0,0,1,.85.87,4.25,4.25,0,0,1,.81,2.19,6,6,0,0,1-.23,1.92,1.85,1.85,0,0,1-.78,1.11c-.37.2-.9,0-1.36-.54a4.12,4.12,0,0,1-.76-2.41,3.83,3.83,0,0,1,.76-2.23A10.68,10.68,0,0,1,1383.36,184.24Z"/><path class="cls-32" d="M1388.19,184.65a4.16,4.16,0,0,1,.46,2.95c-.45,1.41-1.38,2.36-2.08,2.13s-.91-1.55-.46-3A4.09,4.09,0,0,1,1388.19,184.65Z"/><path class="cls-32" d="M1393.11,187.28a4.21,4.21,0,0,1,0,1.06,3.47,3.47,0,0,1-.89,1.91c-1,1-2.13,1.5-2.81,1.09s-.31-1.91.83-3.05a3.61,3.61,0,0,1,1.85-.89A5.77,5.77,0,0,1,1393.11,187.28Z"/><path class="cls-32" d="M1395,192.2a3.55,3.55,0,0,1-1.74,1.75c-1.08.45-2.17.38-2.44-.19s.46-1.41,1.65-1.91A3.41,3.41,0,0,1,1395,192.2Z"/><path class="cls-32" d="M1378.25,188.84a2.27,2.27,0,0,1,1.57.34c.62.41,1,1,.76,1.38s-.92.27-1.64-.23A2.23,2.23,0,0,1,1378.25,188.84Z"/><path class="cls-32" d="M1364.9,203.19a2.44,2.44,0,0,1,.71.3,2.7,2.7,0,0,1,1,1.09,3.8,3.8,0,0,1,.34,1.18,1.25,1.25,0,0,1-.18.85c-.18.21-.52.25-.94,0a2.62,2.62,0,0,1-1-1.23,2.48,2.48,0,0,1-.11-1.5A6.88,6.88,0,0,1,1364.9,203.19Z"/><path class="cls-32" d="M1371.38,202.56a2.43,2.43,0,0,1,.24.63,2.24,2.24,0,0,1,0,1.35c-.36.87-.89,1.41-1.39,1.33s-.65-1-.26-2a2.32,2.32,0,0,1,.86-1A4.62,4.62,0,0,1,1371.38,202.56Z"/><path class="cls-32" d="M1373.69,205a2.29,2.29,0,0,1-.59,1.46c-.53.53-1.19.76-1.49.49s-.07-.94.5-1.53A2.16,2.16,0,0,1,1373.69,205Z"/><path class="cls-32" d="M1363,207.16a1.43,1.43,0,0,1,1-.19c.47.09.82.37.8.62s-.48.39-1,.28A1.43,1.43,0,0,1,1363,207.16Z"/></g></g></g></svg>