<svg xmlns="http://www.w3.org/2000/svg" viewBox="0 0 768.5 190.13"><defs><style>.cls-1{isolation:isolate;}.cls-2{fill:#a4aaab;}.cls-3{fill:#7bb52d;}.cls-10,.cls-12,.cls-13,.cls-14,.cls-15,.cls-20,.cls-21,.cls-22,.cls-26,.cls-27,.cls-28,.cls-3,.cls-5,.cls-8{stroke:#4d3224;}.cls-10,.cls-12,.cls-13,.cls-14,.cls-15,.cls-17,.cls-3,.cls-8{stroke-miterlimit:10;}.cls-4{fill:#72a72a;}.cls-17,.cls-25,.cls-29,.cls-5{fill:none;}.cls-20,.cls-21,.cls-22,.cls-25,.cls-26,.cls-27,.cls-28,.cls-29,.cls-5{stroke-linecap:round;stroke-linejoin:round;}.cls-6{fill:#8acc2b;}.cls-7{fill:#4d3224;}.cls-8{fill:#ff9563;}.cls-9{fill:#de744c;}.cls-10{fill:#f1d4c2;}.cls-11{fill:#e0bfa9;}.cls-12{fill:#9a8e80;}.cls-13,.cls-21,.cls-24{fill:#80d8d6;}.cls-14{fill:#426e75;}.cls-15{fill:#f27e52;}.cls-16{fill:#ffb563;}.cls-17,.cls-29{stroke:#426e75;}.cls-18{opacity:0.4;}.cls-19{fill:#d0ebea;}.cls-20{fill:#77c4ce;}.cls-22{fill:#5aabb9;}.cls-23{opacity:0.23;mix-blend-mode:color-dodge;}.cls-25{stroke:#80d8d6;}.cls-26{fill:#e6ffff;}.cls-27{fill:#9fc2c4;}.cls-28{fill:#c9e2ff;}.cls-30{fill:#4e98a0;}</style></defs><title>m-about-city</title><g class="cls-1"><g id="圖層_2" data-name="圖層 2"><g id="關於"><rect class="cls-2" y="170.76" width="765.41" height="19.36"/><path class="cls-3" d="M56.4,157.36c-8.41,3.23-10.57.48-13.81-2.52a8.82,8.82,0,0,1-6.25,4.2c-7.7,1-18.42-18.13-4.6-24.49C29.5,123,48.63,121.19,53.63,125.66c.91.83,3.85,3.71,3.25,4.93-.35.7,4.07-1.17,7,9.63C66,149.61,58.93,156.38,56.4,157.36Z"/><path class="cls-4" d="M56.4,157.36c-8.41,3.23-10.57.48-13.81-2.52a8.82,8.82,0,0,1-6.25,4.2c-5.89.75-13.55-10.25-10.64-18.33.13,9.28,15.19,15.53,17.1,7.65,1.34,7,16.05,4.94,14.41-1.91,3.23.05,5.53-2.87,6.64-6.23.07.3.15.62.23.94C65.89,148.62,59.52,156.16,56.4,157.36Z"/><path class="cls-5" d="M56.4,157.36c-8.41,3.23-10.57.48-13.81-2.52a8.82,8.82,0,0,1-6.25,4.2c-7.7,1-18.42-18.13-4.6-24.49C29.5,123,48.63,121.19,53.63,125.66c.91.83,3.85,3.71,3.25,4.93-.35.7,4.07-1.17,7,9.63C66,149.61,58.93,156.38,56.4,157.36Z"/><path class="cls-6" d="M43,130.11a2.71,2.71,0,0,0-.55.57,2.8,2.8,0,0,0-.52,1.42,3.62,3.62,0,0,0,.15,1.24,1.2,1.2,0,0,0,.5.72c.24.13.58,0,.88-.35a2.61,2.61,0,0,0,.49-1.56,2.41,2.41,0,0,0-.49-1.44A7,7,0,0,0,43,130.11Z"/><path class="cls-6" d="M39.86,130.38a2.67,2.67,0,0,0-.29,1.91c.29.91.89,1.53,1.34,1.38s.59-1,.3-1.92A2.68,2.68,0,0,0,39.86,130.38Z"/><path class="cls-6" d="M36.67,132.08a3,3,0,0,0,0,.69,2.2,2.2,0,0,0,.57,1.24c.68.67,1.38,1,1.82.7s.2-1.23-.54-2a2.32,2.32,0,0,0-1.19-.58A3.73,3.73,0,0,0,36.67,132.08Z"/><path class="cls-6" d="M35.48,135.27a2.29,2.29,0,0,0,1.13,1.13c.69.3,1.4.25,1.58-.12s-.3-.91-1.07-1.24A2.21,2.21,0,0,0,35.48,135.27Z"/><path class="cls-6" d="M46.3,133.09a1.49,1.49,0,0,0-1,.22c-.41.27-.62.67-.5.9s.6.17,1.06-.15A1.42,1.42,0,0,0,46.3,133.09Z"/><path class="cls-6" d="M55,142.39a1.69,1.69,0,0,0-.46.19,1.81,1.81,0,0,0-.66.71,2.62,2.62,0,0,0-.22.77.71.71,0,0,0,.12.54c.11.14.33.17.61,0a1.75,1.75,0,0,0,.67-.8,1.66,1.66,0,0,0,.07-1C55,142.59,55,142.39,55,142.39Z"/><path class="cls-6" d="M50.75,142a2.41,2.41,0,0,0-.16.41,1.45,1.45,0,0,0,0,.87c.23.57.57.92.89.87s.43-.68.17-1.3a1.45,1.45,0,0,0-.56-.63A2.54,2.54,0,0,0,50.75,142Z"/><path class="cls-6" d="M49.26,143.56a1.51,1.51,0,0,0,.38.95c.34.34.77.49,1,.32s0-.62-.32-1A1.4,1.4,0,0,0,49.26,143.56Z"/><path class="cls-6" d="M56.16,145a1,1,0,0,0-.65-.12c-.3.06-.53.24-.51.4s.31.25.66.18A.94.94,0,0,0,56.16,145Z"/><path class="cls-7" d="M38,154.5s5.5,1.07,5.5,9.45.3,8.58.3,8.58a4.09,4.09,0,0,1-2.17,1.95c-1,.34-.46.22,3,.22,2.6,0,3.62.23,3-.11-.81-.43-1.74-1.05-1.79-2-.19-3.68-1.2-9.85-.05-13.61s6.26-5,5.79-5.49-5.51,3.18-5.79,3.07,1.62-6.12,2.06-7.42-.71-.49-1.09.43-1.89,6.5-2.33,6.78-1.82-8.3-2.49-8.57-.61.2-.6,1,2.57,7,1.85,7.33-3.4-1.89-4.56-2.18S38,154.5,38,154.5Z"/><path class="cls-3" d="M397.51,158.36c-8.41,3.23-10.57.48-13.81-2.52a8.82,8.82,0,0,1-6.25,4.2c-7.7,1-18.42-18.14-4.6-24.5-2.24-11.52,16.89-13.35,21.89-8.88.92.82,3.85,3.71,3.25,4.93-.35.7,4.07-1.17,7,9.63C407.16,150.61,400.05,157.38,397.51,158.36Z"/><path class="cls-4" d="M397.51,158.36c-8.41,3.23-10.57.48-13.81-2.52a8.82,8.82,0,0,1-6.25,4.2c-5.89.75-13.55-10.25-10.64-18.33.14,9.28,15.19,15.53,17.1,7.65,1.34,7,16,4.94,14.41-1.91,3.23.05,5.53-2.87,6.64-6.23.07.3.15.62.23.93C407,149.62,400.63,157.16,397.51,158.36Z"/><path class="cls-5" d="M397.51,158.36c-8.41,3.23-10.57.48-13.81-2.52a8.82,8.82,0,0,1-6.25,4.2c-7.7,1-18.42-18.14-4.6-24.5-2.24-11.52,16.89-13.35,21.89-8.88.92.82,3.85,3.71,3.25,4.93-.35.7,4.07-1.17,7,9.63C407.16,150.61,400.05,157.38,397.51,158.36Z"/><path class="cls-6" d="M384.1,131.11a2.63,2.63,0,0,0-.54.56,2.76,2.76,0,0,0-.53,1.43,3.62,3.62,0,0,0,.15,1.24,1.2,1.2,0,0,0,.5.72c.24.13.58,0,.89-.35a2.7,2.7,0,0,0,.48-1.56,2.32,2.32,0,0,0-.49-1.44A7,7,0,0,0,384.1,131.11Z"/><path class="cls-6" d="M381,131.38a2.65,2.65,0,0,0-.3,1.91c.29.91.89,1.53,1.34,1.38s.59-1,.3-1.92A2.68,2.68,0,0,0,381,131.38Z"/><path class="cls-6" d="M377.79,133.08a2.67,2.67,0,0,0,0,.69,2.23,2.23,0,0,0,.57,1.24c.68.67,1.38,1,1.82.7s.2-1.23-.54-2a2.3,2.3,0,0,0-1.19-.57A3.67,3.67,0,0,0,377.79,133.08Z"/><path class="cls-6" d="M376.59,136.27a2.29,2.29,0,0,0,1.13,1.13c.7.29,1.4.25,1.58-.12s-.3-.92-1.07-1.24A2.21,2.21,0,0,0,376.59,136.27Z"/><path class="cls-6" d="M387.41,134.09a1.49,1.49,0,0,0-1,.22c-.4.27-.62.67-.5.9s.6.17,1.07-.15A1.44,1.44,0,0,0,387.41,134.09Z"/><path class="cls-6" d="M396.06,143.39a1.69,1.69,0,0,0-.46.19,1.75,1.75,0,0,0-.66.71,2.54,2.54,0,0,0-.22.77.71.71,0,0,0,.12.54c.11.14.34.16.61,0a1.69,1.69,0,0,0,.67-.8,1.58,1.58,0,0,0,.07-1C396.13,143.59,396.06,143.39,396.06,143.39Z"/><path class="cls-6" d="M391.86,143a1.74,1.74,0,0,0-.15.41,1.37,1.37,0,0,0,0,.87c.23.56.57.92.89.87s.43-.68.17-1.3a1.39,1.39,0,0,0-.56-.63A2.54,2.54,0,0,0,391.86,143Z"/><path class="cls-6" d="M390.37,144.56a1.51,1.51,0,0,0,.38.95c.34.34.77.49,1,.32s.05-.62-.32-1A1.4,1.4,0,0,0,390.37,144.56Z"/><path class="cls-6" d="M397.27,146a.93.93,0,0,0-.65-.12c-.3,0-.53.24-.51.4s.31.25.66.18A.94.94,0,0,0,397.27,146Z"/><path class="cls-7" d="M379.09,155.5s5.5,1.06,5.5,9.45.3,8.58.3,8.58a4.09,4.09,0,0,1-2.17,1.95c-1,.34-.46.22,3,.22,2.6,0,3.62.23,3-.11-.81-.44-1.74-1.05-1.79-2-.19-3.68-1.2-9.85,0-13.61s6.25-5,5.78-5.49-5.51,3.18-5.79,3.07,1.62-6.12,2.06-7.42-.71-.49-1.09.43-1.89,6.5-2.33,6.78-1.82-8.3-2.49-8.57-.61.2-.6,1,2.58,7,1.85,7.33-3.4-1.9-4.56-2.19S379.09,155.5,379.09,155.5Z"/><path class="cls-3" d="M572.58,147c.86.34,2,1.27,1.82,3.88-.36,6.13-4.85,9.69-12.62,10.29a9.77,9.77,0,0,1-5.08-1.52,11.55,11.55,0,0,1-8.17,1.25c-7-1.58-11.37-5.39-12-12.71-.35-3.89,3.23-6.2,3.23-6.2s-3.29-3.41-2.33-7.48,6.41-9.61,13-8.13c8.16-8,31.17,1.09,24.7,17.79C574.49,145.87,572.33,146.9,572.58,147Z"/><path class="cls-4" d="M572.58,147c.86.34,2,1.27,1.82,3.88-.36,6.13-4.85,9.69-12.62,10.29a9.77,9.77,0,0,1-5.08-1.52,11.55,11.55,0,0,1-8.17,1.25c-6.25-1.42-10.2-4.55-11.54-10.07,2.81,3.8,7.6,6.36,9.5,2,1.12,6.27,17.65,5.59,17.08-.38,3.41,1.39,7.7-2.91,4.41-5.67,4.25,0,7-6,7.86-11.48a14.42,14.42,0,0,1-.7,8.84C574.49,145.87,572.33,146.9,572.58,147Z"/><path class="cls-5" d="M572.58,147c.86.34,2,1.27,1.82,3.88-.36,6.13-4.85,9.69-12.62,10.29a9.77,9.77,0,0,1-5.08-1.52,11.55,11.55,0,0,1-8.17,1.25c-7-1.58-11.37-5.39-12-12.71-.35-3.89,3.23-6.2,3.23-6.2s-3.29-3.41-2.33-7.48,6.41-9.61,13-8.13c8.16-8,31.17,1.09,24.7,17.79C574.49,145.87,572.33,146.9,572.58,147Z"/><path class="cls-7" d="M550.36,155.5s5.5,1.06,5.5,9.45.3,8.58.3,8.58a4.09,4.09,0,0,1-2.17,1.95c-1,.34-.46.22,3,.22,2.6,0,3.61.23,3-.11-.82-.44-1.75-1.05-1.79-2-.19-3.68-1.2-9.85-.05-13.61s6.26-5,5.78-5.49-5.51,3.18-5.79,3.07,1.63-6.12,2.06-7.42-.7-.49-1.08.43-1.9,6.5-2.33,6.78-1.82-8.3-2.49-8.57-.61.2-.6,1,2.57,7,1.85,7.33-3.4-1.9-4.56-2.19S550.36,155.5,550.36,155.5Z"/><path class="cls-6" d="M557.44,131.37a2.52,2.52,0,0,1,.53.55,2.65,2.65,0,0,1,.51,1.38,3.72,3.72,0,0,1-.14,1.21,1.16,1.16,0,0,1-.49.69c-.24.13-.57,0-.86-.33a2.59,2.59,0,0,1-.47-1.52A2.37,2.37,0,0,1,557,132,7.27,7.27,0,0,1,557.44,131.37Z"/><path class="cls-6" d="M560.47,131.63a2.59,2.59,0,0,1,.29,1.86c-.28.88-.86,1.48-1.3,1.34s-.58-1-.29-1.86A2.61,2.61,0,0,1,560.47,131.63Z"/><path class="cls-6" d="M563.57,133.28a2.53,2.53,0,0,1,0,.67,2.14,2.14,0,0,1-.56,1.2c-.65.66-1.34.95-1.77.69s-.19-1.2.53-1.92a2.24,2.24,0,0,1,1.16-.56A4.68,4.68,0,0,1,563.57,133.28Z"/><path class="cls-6" d="M564.73,136.38a2.27,2.27,0,0,1-1.09,1.1c-.68.28-1.37.24-1.54-.12s.29-.89,1-1.2A2.16,2.16,0,0,1,564.73,136.38Z"/><path class="cls-6" d="M554.23,134.27a1.38,1.38,0,0,1,1,.21c.39.26.6.65.48.87s-.58.17-1-.14A1.39,1.39,0,0,1,554.23,134.27Z"/><path class="cls-6" d="M545.83,143.29a1.57,1.57,0,0,1,.45.19,1.69,1.69,0,0,1,.64.68,2.46,2.46,0,0,1,.21.75.73.73,0,0,1-.11.53c-.11.13-.33.16-.59,0a1.58,1.58,0,0,1-.65-.77,1.42,1.42,0,0,1-.07-.94A3.18,3.18,0,0,1,545.83,143.29Z"/><path class="cls-6" d="M549.91,142.89a1.77,1.77,0,0,1,.15.4,1.38,1.38,0,0,1,0,.85c-.22.54-.55.88-.87.84s-.41-.66-.17-1.26a1.47,1.47,0,0,1,.55-.62A3.47,3.47,0,0,1,549.91,142.89Z"/><path class="cls-6" d="M551.36,144.43a1.42,1.42,0,0,1-.37.91c-.33.34-.75.48-.94.32s0-.6.32-1A1.34,1.34,0,0,1,551.36,144.43Z"/><path class="cls-6" d="M544.66,145.78a.94.94,0,0,1,.63-.12c.29.06.51.24.5.4s-.3.24-.65.17A.87.87,0,0,1,544.66,145.78Z"/><path class="cls-3" d="M738.62,158.33c-8.41,3.23-10.57.48-13.81-2.52a8.82,8.82,0,0,1-6.25,4.2c-7.7,1-18.42-18.14-4.59-24.5-2.25-11.52,16.88-13.35,21.88-8.88.92.82,3.85,3.71,3.25,4.93-.35.7,4.07-1.17,7,9.63C748.27,150.58,741.16,157.35,738.62,158.33Z"/><path class="cls-4" d="M738.62,158.33c-8.41,3.23-10.57.48-13.81-2.52a8.82,8.82,0,0,1-6.25,4.2c-5.89.75-13.55-10.25-10.63-18.33.13,9.28,15.19,15.53,17.09,7.65,1.34,7,16.05,4.94,14.41-1.91,3.24.05,5.53-2.87,6.64-6.23.07.3.15.62.23.93C748.11,149.59,741.74,157.13,738.62,158.33Z"/><path class="cls-5" d="M738.62,158.33c-8.41,3.23-10.57.48-13.81-2.52a8.82,8.82,0,0,1-6.25,4.2c-7.7,1-18.42-18.14-4.59-24.5-2.25-11.52,16.88-13.35,21.88-8.88.92.82,3.85,3.71,3.25,4.93-.35.7,4.07-1.17,7,9.63C748.27,150.58,741.16,157.35,738.62,158.33Z"/><path class="cls-6" d="M725.21,131.08a2.63,2.63,0,0,0-.54.56,2.76,2.76,0,0,0-.53,1.43,3.62,3.62,0,0,0,.15,1.24,1.2,1.2,0,0,0,.5.72c.24.13.58,0,.89-.35a2.7,2.7,0,0,0,.48-1.56,2.32,2.32,0,0,0-.49-1.44A5.2,5.2,0,0,0,725.21,131.08Z"/><path class="cls-6" d="M722.09,131.35a2.71,2.71,0,0,0-.3,1.91c.29.91.89,1.53,1.35,1.38s.59-1,.29-1.92A2.68,2.68,0,0,0,722.09,131.35Z"/><path class="cls-6" d="M718.9,133.05a2.67,2.67,0,0,0,0,.69,2.23,2.23,0,0,0,.57,1.24c.68.67,1.38,1,1.82.7s.21-1.23-.53-2a2.33,2.33,0,0,0-1.2-.57A3.67,3.67,0,0,0,718.9,133.05Z"/><path class="cls-6" d="M717.7,136.24a2.29,2.29,0,0,0,1.13,1.13c.7.29,1.4.25,1.58-.12s-.3-.92-1.07-1.24A2.21,2.21,0,0,0,717.7,136.24Z"/><path class="cls-6" d="M728.52,134.06a1.49,1.49,0,0,0-1,.22c-.4.27-.62.67-.5.9s.6.17,1.07-.15A1.44,1.44,0,0,0,728.52,134.06Z"/><path class="cls-6" d="M737.17,143.36a1.69,1.69,0,0,0-.46.19,1.75,1.75,0,0,0-.66.71,2.54,2.54,0,0,0-.22.77.71.71,0,0,0,.12.54c.11.14.34.16.61,0a1.69,1.69,0,0,0,.67-.8,1.51,1.51,0,0,0,.07-1C737.24,143.56,737.17,143.36,737.17,143.36Z"/><path class="cls-6" d="M733,143a1.74,1.74,0,0,0-.15.41,1.37,1.37,0,0,0,0,.87c.23.56.57.92.89.87s.43-.68.18-1.3a1.47,1.47,0,0,0-.57-.63A2.54,2.54,0,0,0,733,143Z"/><path class="cls-6" d="M731.48,144.53a1.51,1.51,0,0,0,.38.95c.34.34.77.49,1,.32s0-.62-.32-1A1.4,1.4,0,0,0,731.48,144.53Z"/><path class="cls-6" d="M738.38,145.93a.93.93,0,0,0-.65-.12c-.3.05-.53.24-.51.4s.31.25.66.18A.94.94,0,0,0,738.38,145.93Z"/><path class="cls-7" d="M720.2,155.47s5.5,1.06,5.5,9.45.3,8.58.3,8.58a4.09,4.09,0,0,1-2.17,1.95c-1,.34-.46.22,3,.22,2.6,0,3.62.23,3-.11-.81-.44-1.74-1.05-1.79-1.95-.19-3.68-1.2-9.85,0-13.61s6.25-5,5.78-5.49-5.51,3.18-5.79,3.07,1.62-6.12,2.06-7.42-.71-.49-1.09.43-1.89,6.5-2.33,6.78-1.81-8.3-2.49-8.57-.61.2-.6,1,2.58,7,1.85,7.33-3.4-1.9-4.56-2.19S720.2,155.47,720.2,155.47Z"/><line class="cls-5" x1="1.53" y1="168.95" x2="768" y2="168.95"/><path class="cls-3" d="M557.9,176.07a1.55,1.55,0,0,1-.66-1.9c.38-.88.78-.43,1.32-.06-.39-1.61-.37-4.4.65-5.69.87-1.1,2.58.18,3.16,1.28.45-.72.67-1.63,1.62-1.53.59.07.9.74,1.46.94-.39-1.62.46-4.54,1.87-5.09,1.7-.66,2.33,1.62,2.32,3.16.57-2.56,2.17-.31,2.78.82.38-.41.55-1.14,1.21-.94.43.13.77.9.85,1.38.24-1.78,2.15-4.39,3.78-3.81s1.53,2.53,1.56,4.13c.44-1.1,2-.93,2.6-.16a3.62,3.62,0,0,1,0,3.3c.8-.82,1.56-2.45,2.78-1.77,1.57.86.39,2.82.1,4.15.18-.8,2.48-.65,2.59.28s-1.17,1.44-1.8,1.51Z"/><path class="cls-8" d="M587.93,68.45c-8.64,0-15.64,7.69-15.64,17.18h31.28C603.57,76.14,596.57,68.45,587.93,68.45Z"/><path class="cls-9" d="M589.34,83.08c0,6.58-.7,11.92-1.56,11.92s-1.56-5.34-1.56-11.92.7-11.91,1.56-11.91S589.34,76.5,589.34,83.08Z"/><path class="cls-9" d="M582.12,83.08c0,6.69,1.64,12.14.83,12.49s-4-5-4-12.49,3.21-12.89,4-12.49S582.12,76.39,582.12,83.08Z"/><path class="cls-9" d="M593.43,83.08c0,6.69-1.64,12.14-.82,12.49s4-5,3.94-12.49-3.21-12.89-3.94-12.49S593.43,76.39,593.43,83.08Z"/><polygon class="cls-10" points="603.32 92.76 607.84 92.76 607.84 176.25 568.85 176.25 568.85 92.76 573.37 92.76 603.32 92.76"/><rect class="cls-11" x="577.17" y="93.23" width="4.5" height="46.78"/><rect class="cls-11" x="585.98" y="93.23" width="4.5" height="46.78"/><rect class="cls-11" x="594.78" y="93.23" width="4.5" height="46.78"/><rect class="cls-12" x="568.85" y="145.55" width="38.99" height="30.7"/><polygon class="cls-13" points="595.37 114.36 599.28 114.36 599.28 114.32 599.28 101.06 599.28 100.33 594.78 100.33 594.78 114.32 595.37 114.32 595.37 114.36"/><polygon class="cls-13" points="595.37 133.3 599.28 133.3 599.28 133.26 599.28 120 599.28 119.26 594.78 119.26 594.78 133.26 595.37 133.26 595.37 133.3"/><polygon class="cls-13" points="586.56 114.36 590.47 114.36 590.47 114.32 590.47 101.06 590.47 100.33 585.98 100.33 585.98 114.32 586.56 114.32 586.56 114.36"/><polygon class="cls-13" points="586.56 133.3 590.47 133.3 590.47 133.26 590.47 120 590.47 119.26 585.98 119.26 585.98 133.26 586.56 133.26 586.56 133.3"/><polygon class="cls-13" points="577.76 114.36 581.67 114.36 581.67 114.32 581.67 101.06 581.67 100.33 577.17 100.33 577.17 114.32 577.76 114.32 577.76 114.36"/><polygon class="cls-13" points="577.76 133.3 581.67 133.3 581.67 133.26 581.67 120 581.67 119.26 577.17 119.26 577.17 133.26 577.76 133.26 577.76 133.3"/><rect class="cls-13" x="572.51" y="150.63" width="31.68" height="25.63"/><rect class="cls-14" x="567.92" y="145.55" width="41.24" height="4.97"/><rect class="cls-15" x="567.6" y="87.79" width="41.24" height="4.97"/><rect class="cls-8" x="565.71" y="86.08" width="44.7" height="1.71"/><rect class="cls-8" x="568.85" y="140.47" width="38.99" height="5.08"/><rect class="cls-16" x="569.36" y="141.08" width="37.95" height="1.65"/><line class="cls-17" x1="572.98" y1="159.29" x2="604.04" y2="159.29"/><line class="cls-17" x1="579" y1="150.63" x2="579" y2="176.07"/><line class="cls-17" x1="597.96" y1="150.63" x2="597.96" y2="176.07"/><line class="cls-17" x1="588.33" y1="150.63" x2="588.33" y2="176.07"/><g class="cls-18"><polygon class="cls-19" points="600.24 151.69 600.24 151.09 597.67 151.09 574.08 176.07 577.22 176.07 600.24 151.69"/><polygon class="cls-19" points="572.74 166.77 572.74 173.94 594.31 151.09 587.54 151.09 572.74 166.77"/></g><polygon class="cls-20" points="177.06 176.25 205.1 176.25 205.1 5.19 177.06 22.94 177.06 176.25"/><rect class="cls-21" x="179.09" y="32.63" width="23.82" height="1.08"/><polygon class="cls-21" points="176.89 31.17 205.1 31.17 205.1 35.17 176.89 35.17 176.89 31.17 176.89 31.17"/><rect class="cls-21" x="179.09" y="42.55" width="23.82" height="1.08"/><polygon class="cls-21" points="176.89 41.09 205.1 41.09 205.1 45.09 176.89 45.09 176.89 41.09 176.89 41.09"/><rect class="cls-21" x="179.09" y="52.47" width="23.82" height="1.08"/><polygon class="cls-21" points="176.89 51.01 205.1 51.01 205.1 55.01 176.89 55.01 176.89 51.01 176.89 51.01"/><rect class="cls-21" x="179.09" y="62.39" width="23.82" height="1.08"/><polygon class="cls-21" points="176.89 60.93 205.1 60.93 205.1 64.92 176.89 64.92 176.89 60.93 176.89 60.93"/><rect class="cls-21" x="179.09" y="72.31" width="23.82" height="1.08"/><polygon class="cls-21" points="176.89 70.85 205.1 70.85 205.1 74.84 176.89 74.84 176.89 70.85 176.89 70.85"/><rect class="cls-21" x="179.09" y="82.23" width="23.82" height="1.08"/><polygon class="cls-21" points="176.89 80.77 205.1 80.77 205.1 84.77 176.89 84.77 176.89 80.77 176.89 80.77"/><rect class="cls-21" x="179.09" y="91.48" width="23.82" height="1.08"/><polygon class="cls-21" points="176.89 90.03 205.1 90.03 205.1 94.02 176.89 94.02 176.89 90.03 176.89 90.03"/><rect class="cls-21" x="179.09" y="101.4" width="23.82" height="1.08"/><polygon class="cls-21" points="176.89 99.95 205.1 99.95 205.1 103.94 176.89 103.94 176.89 99.95 176.89 99.95"/><rect class="cls-21" x="179.09" y="111.32" width="23.82" height="1.08"/><polygon class="cls-21" points="176.89 109.87 205.1 109.87 205.1 113.86 176.89 113.86 176.89 109.87 176.89 109.87"/><rect class="cls-21" x="179.09" y="121.24" width="23.82" height="1.08"/><polygon class="cls-21" points="176.89 119.78 205.1 119.78 205.1 123.78 176.89 123.78 176.89 119.78 176.89 119.78"/><rect class="cls-21" x="179.09" y="131.16" width="23.82" height="1.08"/><polygon class="cls-21" points="176.89 129.71 205.1 129.71 205.1 133.7 176.89 133.7 176.89 129.71 176.89 129.71"/><rect class="cls-21" x="179.09" y="141.08" width="23.82" height="1.08"/><polygon class="cls-21" points="176.89 139.63 205.1 139.63 205.1 143.62 176.89 143.62 176.89 139.63 176.89 139.63"/><polygon class="cls-22" points="205.1 5.19 195.19 0.5 169.45 17.69 177.06 22.94 205.1 5.19"/><polygon class="cls-22" points="169.45 17.69 169.45 43.63 177.06 48.3 177.06 22.94 169.45 17.69"/><line class="cls-5" x1="173.25" y1="25.87" x2="173.25" y2="45.61"/><g class="cls-23"><polygon class="cls-24" points="205.03 69.48 205.03 58 177.11 87.39 177.11 98.88 205.03 69.48"/><polygon class="cls-24" points="177.11 62.81 177.11 82.31 205.03 52.92 205.03 32.87 177.11 62.81"/></g><polygon class="cls-20" points="185.1 176.25 159.32 176.25 159.32 38.06 185.1 53.45 185.1 176.25"/><polygon class="cls-22" points="166.72 42.48 166.72 176.25 159.32 176.25 159.32 37.76 166.72 42.48"/><line class="cls-25" x1="182.35" y1="53.4" x2="182.35" y2="175.08"/><line class="cls-25" x1="179.37" y1="51.48" x2="179.37" y2="175.08"/><line class="cls-25" x1="176.27" y1="49.49" x2="176.27" y2="175.08"/><line class="cls-25" x1="172.86" y1="47.84" x2="172.86" y2="175.08"/><line class="cls-25" x1="169.45" y1="45.61" x2="169.45" y2="175.18"/><line class="cls-25" x1="184.17" y1="56.42" x2="167.9" y2="56.42"/><line class="cls-25" x1="183.94" y1="59.67" x2="167.68" y2="59.67"/><line class="cls-25" x1="183.94" y1="63.39" x2="167.68" y2="63.39"/><line class="cls-25" x1="183.94" y1="67.11" x2="167.68" y2="67.11"/><line class="cls-25" x1="183.94" y1="70.83" x2="167.68" y2="70.83"/><line class="cls-25" x1="183.94" y1="74.55" x2="167.68" y2="74.55"/><line class="cls-25" x1="183.94" y1="78.27" x2="167.68" y2="78.27"/><line class="cls-25" x1="183.94" y1="81.99" x2="167.68" y2="81.99"/><line class="cls-25" x1="183.94" y1="85.72" x2="167.68" y2="85.72"/><line class="cls-25" x1="183.94" y1="89.44" x2="167.68" y2="89.44"/><line class="cls-25" x1="183.94" y1="93.16" x2="167.68" y2="93.16"/><line class="cls-25" x1="183.94" y1="96.88" x2="167.68" y2="96.88"/><line class="cls-25" x1="183.94" y1="100.6" x2="167.68" y2="100.6"/><line class="cls-25" x1="183.94" y1="104.32" x2="167.68" y2="104.32"/><line class="cls-25" x1="183.94" y1="108.04" x2="167.68" y2="108.04"/><line class="cls-25" x1="183.94" y1="111.76" x2="167.68" y2="111.76"/><line class="cls-25" x1="183.94" y1="115.48" x2="167.68" y2="115.48"/><line class="cls-25" x1="183.94" y1="119.2" x2="167.68" y2="119.2"/><line class="cls-25" x1="183.94" y1="122.92" x2="167.68" y2="122.92"/><line class="cls-25" x1="183.94" y1="126.64" x2="167.68" y2="126.64"/><line class="cls-25" x1="183.94" y1="130.36" x2="167.68" y2="130.36"/><line class="cls-25" x1="183.94" y1="134.08" x2="167.68" y2="134.08"/><line class="cls-25" x1="183.94" y1="137.81" x2="167.68" y2="137.81"/><line class="cls-25" x1="183.94" y1="141.53" x2="167.68" y2="141.53"/><line class="cls-25" x1="183.94" y1="145.25" x2="167.68" y2="145.25"/><line class="cls-25" x1="183.94" y1="148.97" x2="167.68" y2="148.97"/><line class="cls-25" x1="183.94" y1="152.69" x2="167.68" y2="152.69"/><line class="cls-25" x1="183.94" y1="156.41" x2="167.68" y2="156.41"/><line class="cls-25" x1="183.94" y1="160.13" x2="167.68" y2="160.13"/><line class="cls-25" x1="183.94" y1="163.85" x2="167.68" y2="163.85"/><line class="cls-25" x1="183.94" y1="167.57" x2="167.68" y2="167.57"/><g class="cls-23"><polygon class="cls-24" points="166.72 102.88 166.72 95.41 184.9 114.54 184.9 122.02 166.72 102.88"/><polygon class="cls-24" points="184.9 98.54 184.9 111.23 166.72 92.1 166.72 79.05 184.9 98.54"/></g><rect class="cls-26" x="233.2" y="58.11" width="14.97" height="12.34"/><rect class="cls-27" x="232.69" y="56.87" width="15.99" height="1.24"/><rect class="cls-28" x="226.61" y="65.57" width="28.15" height="12.34"/><rect class="cls-27" x="225.76" y="64.02" width="29.84" height="1.54"/><rect class="cls-26" x="215.87" y="75" width="49.63" height="101.25"/><rect class="cls-27" x="214.98" y="73.06" width="51.4" height="1.94"/><path class="cls-21" d="M250.41,66.63a2.21,2.21,0,0,1,2.18,2.24v4.19h-4.36V68.87A2.2,2.2,0,0,1,250.41,66.63Z"/><path class="cls-21" d="M243.92,66.63a2.2,2.2,0,0,1,2.18,2.24v4.19h-4.36V68.87A2.21,2.21,0,0,1,243.92,66.63Z"/><path class="cls-21" d="M237.44,66.63a2.2,2.2,0,0,1,2.18,2.24v4.19h-4.36V68.87A2.21,2.21,0,0,1,237.44,66.63Z"/><path class="cls-21" d="M231,66.63a2.21,2.21,0,0,1,2.18,2.24v4.19h-4.36V68.87A2.21,2.21,0,0,1,231,66.63Z"/><rect class="cls-7" x="246.1" y="57.81" width="0.74" height="6.46"/><rect class="cls-7" x="242.31" y="57.81" width="0.74" height="6.46"/><rect class="cls-7" x="238.51" y="57.81" width="0.74" height="6.46"/><rect class="cls-7" x="234.71" y="57.81" width="0.74" height="6.46"/><rect class="cls-21" x="229.51" y="159.17" width="22.68" height="17.09" transform="translate(481.7 335.42) rotate(180)"/><g class="cls-18"><polygon class="cls-19" points="234.16 160.1 234.16 159.71 235.8 159.71 250.91 175.71 248.9 175.71 234.16 160.1"/><polygon class="cls-19" points="251.77 169.75 251.77 174.34 237.95 159.71 242.29 159.71 251.77 169.75"/></g><line class="cls-29" x1="240.68" y1="159.72" x2="240.68" y2="175.8"/><polygon class="cls-30" points="260.65 89.03 259.86 89.03 259.86 89.06 254.57 89.06 254.57 89.03 254.57 79.63 254.57 79.11 260.65 79.11 260.65 89.03"/><polygon class="cls-30" points="252.19 88.98 251.4 88.98 251.4 89.01 246.1 89.01 246.1 88.98 246.1 79.58 246.1 79.06 252.19 79.06 252.19 88.98"/><polygon class="cls-30" points="235.26 88.98 234.47 88.98 234.47 89.01 229.18 89.01 229.18 88.98 229.18 79.58 229.18 79.06 235.26 79.06 235.26 88.98"/><polygon class="cls-30" points="226.79 79.11 226.79 89.03 226 89.03 226 89.06 220.71 89.06 220.71 89.03 220.71 79.63 220.71 79.11 226.79 79.11"/><polygon class="cls-30" points="242.93 89.06 237.64 89.06 237.64 89.03 237.64 79.63 237.64 79.11 243.72 79.11 243.72 89.03 242.93 89.03 242.93 89.06"/><polygon class="cls-30" points="260.65 102.7 259.86 102.7 259.86 102.73 254.57 102.73 254.57 102.7 254.57 93.3 254.57 92.78 260.65 92.78 260.65 102.7"/><polygon class="cls-30" points="252.19 102.65 251.4 102.65 251.4 102.68 246.1 102.68 246.1 102.65 246.1 93.25 246.1 92.73 252.19 92.73 252.19 102.65"/><polygon class="cls-30" points="235.26 102.65 234.47 102.65 234.47 102.68 229.18 102.68 229.18 102.65 229.18 93.25 229.18 92.73 235.26 92.73 235.26 102.65"/><polygon class="cls-30" points="226.79 92.78 226.79 102.7 226 102.7 226 102.73 220.71 102.73 220.71 102.7 220.71 93.3 220.71 92.78 226.79 92.78"/><polygon class="cls-30" points="242.93 102.73 237.64 102.73 237.64 102.7 237.64 93.3 237.64 92.78 243.72 92.78 243.72 102.7 242.93 102.7 242.93 102.73"/><polygon class="cls-30" points="260.65 116.37 259.86 116.37 259.86 116.4 254.57 116.4 254.57 116.37 254.57 106.96 254.57 106.44 260.65 106.44 260.65 116.37"/><polygon class="cls-30" points="252.19 116.32 251.4 116.32 251.4 116.34 246.1 116.34 246.1 116.32 246.1 106.92 246.1 106.39 252.19 106.39 252.19 116.32"/><polygon class="cls-30" points="235.26 116.32 234.47 116.32 234.47 116.34 229.18 116.34 229.18 116.32 229.18 106.92 229.18 106.39 235.26 106.39 235.26 116.32"/><polygon class="cls-30" points="226.79 106.44 226.79 116.37 226 116.37 226 116.4 220.71 116.4 220.71 116.37 220.71 106.96 220.71 106.44 226.79 106.44"/><polygon class="cls-30" points="242.93 116.4 237.64 116.4 237.64 116.37 237.64 106.96 237.64 106.44 243.72 106.44 243.72 116.37 242.93 116.37 242.93 116.4"/><polygon class="cls-30" points="260.65 130.04 259.86 130.04 259.86 130.06 254.57 130.06 254.57 130.04 254.57 120.63 254.57 120.11 260.65 120.11 260.65 130.04"/><polygon class="cls-30" points="252.19 129.99 251.4 129.99 251.4 130.01 246.1 130.01 246.1 129.99 246.1 120.58 246.1 120.06 252.19 120.06 252.19 129.99"/><polygon class="cls-30" points="235.26 129.99 234.47 129.99 234.47 130.01 229.18 130.01 229.18 129.99 229.18 120.58 229.18 120.06 235.26 120.06 235.26 129.99"/><polygon class="cls-30" points="226.79 120.11 226.79 130.04 226 130.04 226 130.06 220.71 130.06 220.71 130.04 220.71 120.63 220.71 120.11 226.79 120.11"/><polygon class="cls-30" points="242.93 130.06 237.64 130.06 237.64 130.04 237.64 120.63 237.64 120.11 243.72 120.11 243.72 130.04 242.93 130.04 242.93 130.06"/><polygon class="cls-30" points="260.65 143.7 259.86 143.7 259.86 143.73 254.57 143.73 254.57 143.7 254.57 134.3 254.57 133.78 260.65 133.78 260.65 143.7"/><polygon class="cls-30" points="252.19 143.65 251.4 143.65 251.4 143.68 246.1 143.68 246.1 143.65 246.1 134.25 246.1 133.73 252.19 133.73 252.19 143.65"/><polygon class="cls-30" points="235.26 143.65 234.47 143.65 234.47 143.68 229.18 143.68 229.18 143.65 229.18 134.25 229.18 133.73 235.26 133.73 235.26 143.65"/><polygon class="cls-30" points="226.79 133.78 226.79 143.7 226 143.7 226 143.73 220.71 143.73 220.71 143.7 220.71 134.3 220.71 133.78 226.79 133.78"/><polygon class="cls-30" points="242.93 143.73 237.64 143.73 237.64 143.7 237.64 134.3 237.64 133.78 243.72 133.78 243.72 143.7 242.93 143.7 242.93 143.73"/><polygon class="cls-30" points="260.65 157.37 259.86 157.37 259.86 157.4 254.57 157.4 254.57 157.37 254.57 147.97 254.57 147.45 260.65 147.45 260.65 157.37"/><polygon class="cls-30" points="252.19 157.32 251.4 157.32 251.4 157.35 246.1 157.35 246.1 157.32 246.1 147.92 246.1 147.4 252.19 147.4 252.19 157.32"/><polygon class="cls-30" points="235.26 157.32 234.47 157.32 234.47 157.35 229.18 157.35 229.18 157.32 229.18 147.92 229.18 147.4 235.26 147.4 235.26 157.32"/><polygon class="cls-30" points="226.79 147.45 226.79 157.37 226 157.37 226 157.4 220.71 157.4 220.71 157.37 220.71 147.97 220.71 147.45 226.79 147.45"/><polygon class="cls-30" points="242.93 157.4 237.64 157.4 237.64 157.37 237.64 147.97 237.64 147.45 243.72 147.45 243.72 157.37 242.93 157.37 242.93 157.4"/><polygon class="cls-21" points="260.65 87.67 259.86 87.67 259.86 87.69 254.57 87.69 254.57 87.67 254.57 78.26 254.57 77.74 260.65 77.74 260.65 87.67"/><polygon class="cls-21" points="252.19 87.62 251.4 87.62 251.4 87.64 246.1 87.64 246.1 87.62 246.1 78.21 246.1 77.69 252.19 77.69 252.19 87.62"/><polygon class="cls-21" points="235.26 87.62 234.47 87.62 234.47 87.64 229.18 87.64 229.18 87.62 229.18 78.21 229.18 77.69 235.26 77.69 235.26 87.62"/><polygon class="cls-21" points="226.79 77.74 226.79 87.67 226 87.67 226 87.69 220.71 87.69 220.71 87.67 220.71 78.26 220.71 77.74 226.79 77.74"/><polygon class="cls-21" points="242.93 87.69 237.64 87.69 237.64 87.67 237.64 78.26 237.64 77.74 243.72 77.74 243.72 87.67 242.93 87.67 242.93 87.69"/><polygon class="cls-21" points="260.65 101.33 259.86 101.33 259.86 101.36 254.57 101.36 254.57 101.33 254.57 91.93 254.57 91.41 260.65 91.41 260.65 101.33"/><polygon class="cls-21" points="252.19 101.28 251.4 101.28 251.4 101.31 246.1 101.31 246.1 101.28 246.1 91.88 246.1 91.36 252.19 91.36 252.19 101.28"/><polygon class="cls-21" points="235.26 101.28 234.47 101.28 234.47 101.31 229.18 101.31 229.18 101.28 229.18 91.88 229.18 91.36 235.26 91.36 235.26 101.28"/><polygon class="cls-21" points="226.79 91.41 226.79 101.33 226 101.33 226 101.36 220.71 101.36 220.71 101.33 220.71 91.93 220.71 91.41 226.79 91.41"/><polygon class="cls-21" points="242.93 101.36 237.64 101.36 237.64 101.33 237.64 91.93 237.64 91.41 243.72 91.41 243.72 101.33 242.93 101.33 242.93 101.36"/><polygon class="cls-21" points="260.65 115 259.86 115 259.86 115.03 254.57 115.03 254.57 115 254.57 105.6 254.57 105.08 260.65 105.08 260.65 115"/><polygon class="cls-21" points="252.19 114.95 251.4 114.95 251.4 114.98 246.1 114.98 246.1 114.95 246.1 105.55 246.1 105.03 252.19 105.03 252.19 114.95"/><polygon class="cls-21" points="235.26 114.95 234.47 114.95 234.47 114.98 229.18 114.98 229.18 114.95 229.18 105.55 229.18 105.03 235.26 105.03 235.26 114.95"/><polygon class="cls-21" points="226.79 105.08 226.79 115 226 115 226 115.03 220.71 115.03 220.71 115 220.71 105.6 220.71 105.08 226.79 105.08"/><polygon class="cls-21" points="242.93 115.03 237.64 115.03 237.64 115 237.64 105.6 237.64 105.08 243.72 105.08 243.72 115 242.93 115 242.93 115.03"/><polygon class="cls-21" points="260.65 128.67 259.86 128.67 259.86 128.7 254.57 128.7 254.57 128.67 254.57 119.26 254.57 118.75 260.65 118.75 260.65 128.67"/><polygon class="cls-21" points="252.19 128.62 251.4 128.62 251.4 128.65 246.1 128.65 246.1 128.62 246.1 119.22 246.1 118.69 252.19 118.69 252.19 128.62"/><polygon class="cls-21" points="235.26 128.62 234.47 128.62 234.47 128.65 229.18 128.65 229.18 128.62 229.18 119.22 229.18 118.69 235.26 118.69 235.26 128.62"/><polygon class="cls-21" points="226.79 118.75 226.79 128.67 226 128.67 226 128.7 220.71 128.7 220.71 128.67 220.71 119.26 220.71 118.75 226.79 118.75"/><polygon class="cls-21" points="242.93 128.7 237.64 128.7 237.64 128.67 237.64 119.26 237.64 118.75 243.72 118.75 243.72 128.67 242.93 128.67 242.93 128.7"/><polygon class="cls-21" points="260.65 142.34 259.86 142.34 259.86 142.37 254.57 142.37 254.57 142.34 254.57 132.93 254.57 132.41 260.65 132.41 260.65 142.34"/><polygon class="cls-21" points="252.19 142.29 251.4 142.29 251.4 142.31 246.1 142.31 246.1 142.29 246.1 132.88 246.1 132.36 252.19 132.36 252.19 142.29"/><polygon class="cls-21" points="235.26 142.29 234.47 142.29 234.47 142.31 229.18 142.31 229.18 142.29 229.18 132.88 229.18 132.36 235.26 132.36 235.26 142.29"/><polygon class="cls-21" points="226.79 132.41 226.79 142.34 226 142.34 226 142.37 220.71 142.37 220.71 142.34 220.71 132.93 220.71 132.41 226.79 132.41"/><polygon class="cls-21" points="242.93 142.37 237.64 142.37 237.64 142.34 237.64 132.93 237.64 132.41 243.72 132.41 243.72 142.34 242.93 142.34 242.93 142.37"/><polygon class="cls-21" points="260.65 156 259.86 156 259.86 156.03 254.57 156.03 254.57 156 254.57 146.6 254.57 146.08 260.65 146.08 260.65 156"/><polygon class="cls-21" points="252.19 155.96 251.4 155.96 251.4 155.98 246.1 155.98 246.1 155.96 246.1 146.55 246.1 146.03 252.19 146.03 252.19 155.96"/><polygon class="cls-21" points="235.26 155.96 234.47 155.96 234.47 155.98 229.18 155.98 229.18 155.96 229.18 146.55 229.18 146.03 235.26 146.03 235.26 155.96"/><polygon class="cls-21" points="226.79 146.08 226.79 156 226 156 226 156.03 220.71 156.03 220.71 156 220.71 146.6 220.71 146.08 226.79 146.08"/><polygon class="cls-21" points="242.93 156.03 237.64 156.03 237.64 156 237.64 146.6 237.64 146.08 243.72 146.08 243.72 156 242.93 156 242.93 156.03"/></g></g></g></svg>