<svg xmlns="http://www.w3.org/2000/svg" viewBox="0 0 165.6 53.84"><defs><style>.cls-1{fill:none;stroke:#fff;stroke-miterlimit:10;stroke-width:2px;}</style></defs><title>title-about</title><g id="圖層_2" data-name="圖層 2"><g id="關於"><path class="cls-1" d="M23.92,46l4.62-21.78a26.05,26.05,0,0,0-4.17-1.5,24.83,24.83,0,0,0-3.87-.66q-1.68,3.66-3.12,7.53t-2.46,7.47q-1,3.6-1.62,6.75a29.64,29.64,0,0,0-.6,5.43A7.8,7.8,0,0,0,13,51.7a5,5,0,0,0,.57,1.14q-1.2,0-2.61-.12A7.13,7.13,0,0,1,8.32,52a5,5,0,0,1-2-1.89,6.83,6.83,0,0,1-.81-3.63,22,22,0,0,1,.63-4.8,50.16,50.16,0,0,1,1.8-6Q9.1,32.5,10.72,29t3.6-6.93a16.33,16.33,0,0,0-4.62.86,3.89,3.89,0,0,0-2.4,2.23q.24,0,.51.6A3,3,0,0,1,8.08,27a1.93,1.93,0,0,1-1,1.7,4.4,4.4,0,0,1-2.37.62,4.07,4.07,0,0,1-2.64-.87A3.15,3.15,0,0,1,1,25.84,4.94,4.94,0,0,1,1.93,23a8.59,8.59,0,0,1,2.55-2.37A13.44,13.44,0,0,1,8.32,19a19.26,19.26,0,0,1,4.8-.57q1.32,0,3.24.18a79.42,79.42,0,0,1,4.83-6.79,46.84,46.84,0,0,1,5.25-5.62A25.58,25.58,0,0,1,31.9,2.41,11.93,11.93,0,0,1,37.36,1a16.91,16.91,0,0,1,2.22.18,8.81,8.81,0,0,1,2.4.66L32.56,46ZM32.56,5.26a17.32,17.32,0,0,0-5.49,5.29,65.05,65.05,0,0,0-5.31,8.89q1.86.36,3.72.87a30.5,30.5,0,0,1,3.6,1.23Z"/><path class="cls-1" d="M53,5.2,61.84,4,59,17.5A14.06,14.06,0,0,1,61.9,16a6.82,6.82,0,0,1,2-.33,7.53,7.53,0,0,1,2.88.54A5.33,5.33,0,0,1,69,18a9,9,0,0,1,1.44,3.21A19.79,19.79,0,0,1,71,26.08,26.65,26.65,0,0,1,70.63,30a24.86,24.86,0,0,1-1.11,4.44,26.34,26.34,0,0,1-2,4.41,15.27,15.27,0,0,1-3.06,3.81,14.81,14.81,0,0,1-4.29,2.67,14.62,14.62,0,0,1-5.64,1q-4.14,0-6.27-2a7.44,7.44,0,0,1-2.13-5.64,14.54,14.54,0,0,1,.42-3.42ZM64.9,25.84a12.58,12.58,0,0,0-.18-2.13,6.35,6.35,0,0,0-.6-1.86,4,4,0,0,0-1-1.29,2.15,2.15,0,0,0-1.38-.48,7.32,7.32,0,0,0-.81.06,9.09,9.09,0,0,0-1,.18,5.75,5.75,0,0,0-1,.33,1.85,1.85,0,0,0-.72.51L54.88,36.4a5.69,5.69,0,0,0-.18,1.38q0,2.76,3.18,2.76a3.71,3.71,0,0,0,2.73-1.41,13.16,13.16,0,0,0,2.25-3.57,23.38,23.38,0,0,0,1.5-4.77A24.46,24.46,0,0,0,64.9,25.84Z"/><path class="cls-1" d="M94.78,15.7q7.56,0,7.68,9.42a2.85,2.85,0,0,0,.66.06,9.56,9.56,0,0,0,2.25-.3,16.84,16.84,0,0,0,2.46-.81,22.14,22.14,0,0,0,2.4-1.17q1.17-.66,2.13-1.32l.54,1.62a14.36,14.36,0,0,1-4.53,3.15,23.5,23.5,0,0,1-6,1.83,28.39,28.39,0,0,1-1.62,7.56,20.4,20.4,0,0,1-3.18,5.73,13.63,13.63,0,0,1-4.38,3.63,11.29,11.29,0,0,1-5.22,1.26,13.94,13.94,0,0,1-3.87-.51,7.56,7.56,0,0,1-3-1.65,7.79,7.79,0,0,1-2-2.94,11.81,11.81,0,0,1-.72-4.38,25,25,0,0,1,.36-4,28.58,28.58,0,0,1,3.24-9.21A18,18,0,0,1,85,19.66a14.41,14.41,0,0,1,4.23-2.88A13.33,13.33,0,0,1,94.78,15.7Zm-4.44,25a3.44,3.44,0,0,0,2.19-.93,9.23,9.23,0,0,0,2-2.58,20.75,20.75,0,0,0,1.65-3.93,29.62,29.62,0,0,0,1.08-4.92A1.81,1.81,0,0,1,96,27.43a3.64,3.64,0,0,1-.33-1.59,3.83,3.83,0,0,1,.51-2.07,2.61,2.61,0,0,1,1.35-1.11,5.53,5.53,0,0,0-.63-2.61,1.85,1.85,0,0,0-1.65-.75,4,4,0,0,0-3.06,1.77,17.81,17.81,0,0,0-2.52,4.32,32.78,32.78,0,0,0-1.74,5.4,22.77,22.77,0,0,0-.66,5.07,15.85,15.85,0,0,0,.15,2.43,3.72,3.72,0,0,0,.51,1.47,1.87,1.87,0,0,0,1,.75A4.38,4.38,0,0,0,90.34,40.72Z"/><path class="cls-1" d="M139.06,16l-4.32,20.4a8.4,8.4,0,0,0-.24,1.92,2.12,2.12,0,0,0,.6,1.74,3,3,0,0,0,1.86.48,3.72,3.72,0,0,0,3-1.5,10.48,10.48,0,0,0,1.89-3.78h2.52a22.45,22.45,0,0,1-2.85,5.85,14.52,14.52,0,0,1-3.24,3.36A9.18,9.18,0,0,1,135,46a12.45,12.45,0,0,1-2.76.36,5.75,5.75,0,0,1-4.11-1.44,6.58,6.58,0,0,1-1.83-4.26,14.6,14.6,0,0,1-2.31,3,10.55,10.55,0,0,1-2.31,1.71,8.1,8.1,0,0,1-2.22.81,10.71,10.71,0,0,1-2,.21,6.49,6.49,0,0,1-4.56-1.71Q111,42.94,111,39.16a19.4,19.4,0,0,1,.48-3.9L115.6,16h8.64l-4.32,20.4a8.6,8.6,0,0,0-.18,1.68,3.61,3.61,0,0,0,.39,1.74,1.46,1.46,0,0,0,1.41.72,3.64,3.64,0,0,0,2.94-1.5,10.78,10.78,0,0,0,1.86-3.78L130.42,16Z"/><path class="cls-1" d="M156.46,36.4a8.81,8.81,0,0,0-.3,2.1,2.53,2.53,0,0,0,.45,1.56,2,2,0,0,0,1.65.6l.75,0a3.24,3.24,0,0,0,.81-.15,13.59,13.59,0,0,1-1.44,3.09,7.24,7.24,0,0,1-1.62,1.8,4.33,4.33,0,0,1-1.68.81,7.73,7.73,0,0,1-1.62.18,5.28,5.28,0,0,1-4.59-2,8,8,0,0,1-1.41-4.83,14.63,14.63,0,0,1,.36-3.18l3.84-18h-2l.48-2.4h2l1.8-8.28,8.88-1.2q-.3,1.2-.6,2.7-.3,1.26-.66,3L160.78,16h3.6l-.48,2.4h-3.6Z"/></g></g></svg>