<svg xmlns="http://www.w3.org/2000/svg" xmlns:xlink="http://www.w3.org/1999/xlink" viewBox="0 0 51.55 68.41"><defs><style>.cls-1,.cls-14{fill:#b08b58;}.cls-1,.cls-13,.cls-15,.cls-25,.cls-26,.cls-5,.cls-6,.cls-7{stroke:#4d3224;}.cls-1,.cls-13,.cls-15,.cls-25,.cls-26,.cls-28,.cls-5,.cls-6,.cls-7{stroke-linecap:round;stroke-linejoin:round;stroke-width:0.82px;}.cls-2{fill:#c99f64;}.cls-3{fill:#4d3224;}.cls-4{fill:#f8f9f9;}.cls-5{fill:#c9caca;}.cls-27,.cls-6{fill:#f7f7f7;}.cls-7{fill:#c8e5f0;}.cls-8{fill:#d8d2d3;}.cls-9{fill:url(#未命名漸層_32);}.cls-10{fill:url(#未命名漸層_32-2);}.cls-11{fill:#70a365;}.cls-12{fill:#754c37;}.cls-13,.cls-18{fill:#c49c63;}.cls-15{fill:#c59c65;}.cls-16{fill:#fbfbfb;}.cls-17,.cls-28{fill:#432513;}.cls-19{fill:#b3aa5e;}.cls-20{fill:#007096;}.cls-21{fill:#fadfce;}.cls-22{fill:url(#未命名漸層_5);}.cls-23{fill:#422311;}.cls-24{fill:url(#未命名漸層_5-2);}.cls-25{fill:#f5c2b8;}.cls-26{fill:none;}.cls-28{stroke:#432513;}.cls-29{fill:url(#未命名漸層_32-3);}</style><linearGradient id="未命名漸層_32" x1="-543.98" y1="990.78" x2="-549.32" y2="988.25" gradientTransform="matrix(0.87, 0.64, -0.34, 0.89, 820.41, -517.36)" gradientUnits="userSpaceOnUse"><stop offset="0" stop-color="#fff" stop-opacity="0"/><stop offset="0.89" stop-color="#fff"/></linearGradient><linearGradient id="未命名漸層_32-2" x1="-544.87" y1="991.86" x2="-548.55" y2="990.11" xlink:href="#未命名漸層_32"/><linearGradient id="未命名漸層_5" x1="-1031.98" y1="-181.99" x2="-1032.98" y2="-178.69" gradientTransform="matrix(0.99, -0.09, 0.09, 1, 1059.75, 92.02)" gradientUnits="userSpaceOnUse"><stop offset="0" stop-color="#fff" stop-opacity="0"/><stop offset="1" stop-color="#f8f9f9"/></linearGradient><linearGradient id="未命名漸層_5-2" x1="-1035.74" y1="-182.2" x2="-1036.59" y2="-179.18" xlink:href="#未命名漸層_5"/><linearGradient id="未命名漸層_32-3" x1="73.36" y1="12.42" x2="66.7" y2="12.42" gradientTransform="matrix(-0.97, -0.2, -0.2, 0.98, 77.29, 15.21)" xlink:href="#未命名漸層_32"/></defs><title>works-LeopardCatldpi</title><g id="圖層_2" data-name="圖層 2"><g id="作品"><path class="cls-1" d="M35.12,43.58l.12,0c2.34.67,5.49-2.77,6.42-3.91,1.58-1.92,2.55-7.1,1.41-9.34-.8-1.58-2.08-3.14-2.91-4.76a8.25,8.25,0,0,1-.66-5.52c.75-3.9,3.57-7.18,7.2-9.78,1.82-1.3,4-1.42,4.37-.81.54,1-2.12,3.74-3.38,4.71-2.31,1.77-4,3.33-4.29,6s2.06,5.34,3.3,7.91c2.27,4.7.89,11.6-3,15.24,0,0-3.33,3.58-7.78,1.78Z"/><path class="cls-2" d="M39,44.09c3.7-1.37,5.41-5,6.24-6.74a10.39,10.39,0,0,0-2.12-11.16s-4.47-6,1.72-11.59c0,0,5.74-4,5.87-5.07,0,0,.85,1.51-4.36,5.48,0,0-5.2,3.41-2.6,8.21,0,0,3.9,7.2,3.63,8,0,0,1.33,12.66-8.59,14.14Z"/><path class="cls-3" d="M50.55,11.43s-1.1.71-1.4-.88c0,0,.23-.61-1.19-.93C48,9.62,52.34,7.53,50.55,11.43Z"/><ellipse class="cls-3" cx="42.2" cy="40.14" rx="1.44" ry="0.91" transform="translate(-15.4 48.76) rotate(-52.09)"/><ellipse class="cls-3" cx="45.25" cy="31.08" rx="0.88" ry="1.37" transform="translate(-8.44 19.66) rotate(-22.47)"/><ellipse class="cls-3" cx="41.91" cy="26.6" rx="1" ry="1.71" transform="translate(-7.65 29.42) rotate(-35.66)"/><ellipse class="cls-3" cx="46.04" cy="12.82" rx="1.3" ry="0.95" transform="translate(3.2 34.01) rotate(-41.88)"/><ellipse class="cls-3" cx="44" cy="35.45" rx="1.13" ry="0.78" transform="translate(-1.19 69.37) rotate(-75.74)"/><ellipse class="cls-3" cx="41.95" cy="20.52" rx="1.31" ry="0.69" transform="translate(19.8 61.63) rotate(-87.74)"/><ellipse class="cls-3" cx="42.26" cy="15.96" rx="1.66" ry="1.11" transform="translate(8.43 45.9) rotate(-62.2)"/><path class="cls-1" d="M23,19.88l-.48-.19a3.19,3.19,0,0,0-2.11-.06,11.34,11.34,0,0,1-1.24.54A3,3,0,0,1,16.61,19a17.43,17.43,0,0,1-2-2.38c-.81-1.17-1.93-2.14-3.48-1.41-1.07.5-1.78,2.35.2,2.45.59,0,.71-.07,1.24.19a1.87,1.87,0,0,1,.68.74l2.26,3.48A9,9,0,0,0,18,24.91a13.9,13.9,0,0,0,3.94,1.28,11.89,11.89,0,0,1,3.37,1.56,1.37,1.37,0,0,0,1.05.35c.57-.15.66-.91.61-1.49C26.69,23.89,25.41,21,23,19.88Z"/><path class="cls-4" d="M13.61,18.86s.07-.52.81-.15c.94.83,1.64,1.88,2.55,2.74a5.22,5.22,0,0,0,1.39,1c.1,0,1.68.45,1.54,0a13.3,13.3,0,0,0,1.41,3.31s-3.38,0-4.9-2.53Z"/><path class="cls-3" d="M15.63,18.41a.41.41,0,0,0,.13-.48.56.56,0,0,0-.36-.31.67.67,0,0,0-.37,0,.37.37,0,0,0-.27.23.61.61,0,0,0,.05.42.5.5,0,0,0,.17.23.4.4,0,0,0,.22,0A.64.64,0,0,0,15.63,18.41Z"/><path class="cls-3" d="M17,20.05a.44.44,0,0,0,.05-.5.58.58,0,0,0-.42-.25.73.73,0,0,0-.36,0,.37.37,0,0,0-.23.27.6.6,0,0,0,.12.41.48.48,0,0,0,.21.19.41.41,0,0,0,.22,0A.75.75,0,0,0,17,20.05Z"/><path class="cls-3" d="M18.82,21a.56.56,0,0,0,.06-.64.75.75,0,0,0-.53-.3.8.8,0,0,0-.46,0,.48.48,0,0,0-.3.35.78.78,0,0,0,.16.52.62.62,0,0,0,.26.25.7.7,0,0,0,.29,0A.91.91,0,0,0,18.82,21Z"/><path class="cls-5" d="M11,24.11l-3.53-3A1.44,1.44,0,0,1,7.13,20l.79-8.78c0-.39.55-.4.79-.19l3.38,2.74a1.38,1.38,0,0,1,.38,1.09l-.92,8.9C11.52,24.17,11.29,24.32,11,24.11Z"/><path class="cls-6" d="M10.72,23.78,7.35,20.91a.85.85,0,0,1-.21-.62l.8-8.71c0-.22.15-.31.29-.19l3.42,2.69a.85.85,0,0,1,.21.62L11,23.58C11,23.81,10.86,23.89,10.72,23.78Z"/><ellipse class="cls-7" cx="11.04" cy="14.7" rx="0.28" ry="0.44" transform="translate(-2.53 2.3) rotate(-10.69)"/><path class="cls-8" d="M8.81,16.71a1.11,1.11,0,0,0,0,.26,1.69,1.69,0,0,0,.55,1c.33.3.66.27.71-.21A1.69,1.69,0,0,0,10,17c-.09-.26-.25-.33-.42-.48s-.28-.32-.39-.31S8.84,16.44,8.81,16.71Z"/><path class="cls-8" d="M9.34,16.23a.78.78,0,0,0,.27.37.71.71,0,0,0,0-.45,1,1,0,0,0-.28-.4A1,1,0,0,0,9.34,16.23Z"/><path class="cls-9" d="M8.15,12.75l3.59,5.35-.69.59L8,14S7.91,13,8.15,12.75Z"/><polygon class="cls-10" points="7.9 14.85 10.43 18.53 9.88 18.59 7.89 15.76 7.9 14.85"/><path class="cls-11" d="M17.14,58.73a3.21,3.21,0,0,0-2.52,3,3.78,3.78,0,0,0,2.44,3.62,33.37,33.37,0,0,0,26,.78,3.74,3.74,0,0,0,2.7-4.4,2.83,2.83,0,0,0-2.59-2.35C34.48,57.82,25.7,56.24,17.14,58.73Z"/><path class="cls-1" d="M34.11,54.73a2,2,0,0,0,1.07-1.57A1.81,1.81,0,0,0,34,51.37c0-.11,0-.21-.07-.32a32.08,32.08,0,0,0-2.1-5.86A15.31,15.31,0,0,0,25.28,38a6.32,6.32,0,0,0-3.44-.9,14.42,14.42,0,0,0-1.2,3.23A8.87,8.87,0,0,0,22,47.56,19.78,19.78,0,0,0,28.47,53c.26.15.52.3.8.44-.27.36-1.21,1.17-1.46,1.54-.94,1.45-.89,1.7-1.28,4a6.59,6.59,0,0,1-1.38.71c-.71.31-1.34.79-1.25,1.58.13,1,1.52,1.07,2.27,1.08,1.39,0,1.66,0,2.15-1.21a6.46,6.46,0,0,1,1.51-2.41S33,55.09,34.11,54.73Z"/><path class="cls-4" d="M22.42,39.21a33.15,33.15,0,0,0,1.25,4.41c.77,2.17,2.93,3.31,4.31,5.12s1.69,4.41,3.5,5.55c0,0-3.38,5-3.06,5.78,0,0,2.67-3.1,4.22-5l-2.38-9Z"/><path class="cls-3" d="M27.42,50.24a.41.41,0,0,0,.24-.44.58.58,0,0,0-.29-.38.61.61,0,0,0-.35-.11.37.37,0,0,0-.31.16.55.55,0,0,0,0,.42.39.39,0,0,0,.11.26.38.38,0,0,0,.2.1A.73.73,0,0,0,27.42,50.24Z"/><path class="cls-12" d="M28.73,49.67a.47.47,0,0,0,.55-.1A.65.65,0,0,0,29.4,49a.7.7,0,0,0-.15-.38.4.4,0,0,0-.36-.16.61.61,0,0,0-.39.26.51.51,0,0,0-.15.28.5.5,0,0,0,.06.24A.83.83,0,0,0,28.73,49.67Z"/><path class="cls-13" d="M40.75,44.84A13.86,13.86,0,0,1,40,46.9c-1.17,2.42-3.11,4.57-5.65,4.2a7.55,7.55,0,0,1-3.46-1.35c-1.09-.82-1.23-1.79-1.9-2.83a21.92,21.92,0,0,0-1.81-2.49q-3-3.57-6.05-7.12c-1-1.22-2.65-2.57-3.28-4.05a22.76,22.76,0,0,1-1-4,18.58,18.58,0,0,1,.67-10.74,20.92,20.92,0,0,1,1.59-3.27,28.32,28.32,0,0,1,3.63-4.73,5.33,5.33,0,0,1,3-1.91c1.81-.17,1.83,1.52,2,2.85.06.43.13.86.2,1.28q.24,1.44.57,2.85c.09.39.19.78.29,1.17.3,1.15.65,2.29,1.05,3.41,0,0,0,0,0,0,.2.56.39,1.18.61,1.79a8.22,8.22,0,0,0,1.06,2.14c.21.29.44.57.67.86.44.54.89,1.08,1.33,1.6l.15.18c.73.86,1.55,1.67,2.38,2.47.42.41.83.82,1.21,1.23l.22.24s0,0,0,0a13.64,13.64,0,0,1,2,2.82c.08.15.16.3.23.46s.23.5.34.76a16.38,16.38,0,0,1,.81,2.65,17.61,17.61,0,0,1,.39,2.62q0,.39,0,.78c0,.23,0,1.17,0,1.39"/><path class="cls-4" d="M25,29.78c3.2,4.57,6.9,8.76,10.06,13.35a8.08,8.08,0,0,1,1.26,2.37,3.71,3.71,0,0,1,.11.58c-1.07.63-2.44-.21-3.43-1-3-2.5-4.9-2.81-7.92-5.3C24,38.88,21.66,36,20.7,35c-4.17-4.35-4.62-12.28-2.88-17.74-.07.25,2.34.57,2.52.6.73.1,2.35-.13,2.87.51.37.45.11,1.52.11,2.09,0,1.15.08,2.3.19,3.44C23.68,25.81,23.87,28.18,25,29.78Z"/><path class="cls-14" d="M30.19,22.25a8.53,8.53,0,0,0,1,2.14c.22.29.44.57.68.86.43.54.89,1.08,1.32,1.6l.16.18c.73.86,1.54,1.67,2.37,2.47.43.41.84.82,1.21,1.23-2.34-1.68-4.45-3.59-6.8-5.26s-2.67-3.29-4.08-5.69c-1-1.67-3.28-4-2-5.44a4.87,4.87,0,0,1,2.65-1.41,6.53,6.53,0,0,1,1.16-.19q.24,1.44.57,2.85c.09.39-.05,1,.05,1.41"/><path class="cls-3" d="M29.13,30.2a.71.71,0,0,0,.78.29,1,1,0,0,0,.57-.57,1.16,1.16,0,0,0,.1-.61.65.65,0,0,0-.34-.49.92.92,0,0,0-.71,0,.75.75,0,0,0-.4.24.78.78,0,0,0-.1.36A1.19,1.19,0,0,0,29.13,30.2Z"/><path class="cls-3" d="M30.37,32.25a.79.79,0,0,0,.29.89,1.09,1.09,0,0,0,.9.1,1.29,1.29,0,0,0,.6-.34.74.74,0,0,0,.18-.65,1.08,1.08,0,0,0-.52-.6.92.92,0,0,0-.49-.18,1,1,0,0,0-.39.16A1.37,1.37,0,0,0,30.37,32.25Z"/><path class="cls-3" d="M33.76,33.75a.73.73,0,0,0-.6.67,1.06,1.06,0,0,0,.35.8,1.12,1.12,0,0,0,.56.34.71.71,0,0,0,.63-.14,1.1,1.1,0,0,0,.25-.73.82.82,0,0,0-.09-.51.89.89,0,0,0-.32-.25A1.27,1.27,0,0,0,33.76,33.75Z"/><path class="cls-14" d="M41.53,42.07s-2.84,1.53-3.22,4.08l-.07,2.94A15.46,15.46,0,0,0,41.53,42.07Z"/><path class="cls-13" d="M32.7,36.94c-4.06,2.62-6.48,9.12-4.33,13.66,1,2,2.87,3.44,4.55,4.95s3.28,3.44,3.27,5.7A14.81,14.81,0,0,1,36,63.13l-.11.06c-.59.3-1.32.78-1.44,1.49A1.22,1.22,0,0,0,35.55,66c2,.23,4.09.13,3.48-2l-.37-1.29c.64-2,1.21-3.94,1.73-5.93a3.67,3.67,0,0,0,0-2.63c-.34-.63-1-1-1.47-1.52A4.74,4.74,0,0,1,38,49.25c0-1.19.3-2.37.25-3.56"/><path class="cls-15" d="M29.21,15.86c-.15.17-.29.35-.43.53"/><path class="cls-16" d="M17.93,16.73c.05,0,.1-.07.16,0l-.11.07Z"/><path class="cls-16" d="M22.06,1.79l0,.05,0,0L22,1.76Z"/><path class="cls-17" d="M17.9,1.41c.05,0,.1,0,.13.05Z"/><path class="cls-16" d="M29.7,1.15s-.05-.06,0-.09,0,0,.07,0S29.72,1.13,29.7,1.15Z"/><path class="cls-14" d="M23.59,17.84A3.48,3.48,0,0,1,26,19.58l.47-1.67A6.88,6.88,0,0,0,23.59,17.84Z"/><ellipse class="cls-3" cx="28.98" cy="20.03" rx="0.86" ry="1.63" transform="translate(-3.73 6.95) rotate(-12.85)"/><ellipse class="cls-3" cx="28.82" cy="24.31" rx="0.71" ry="1.36" transform="translate(-6.45 10.99) rotate(-19.45)"/><ellipse class="cls-3" cx="32.3" cy="26.36" rx="0.72" ry="1.35" transform="translate(-8.97 32.27) rotate(-47.37)"/><ellipse class="cls-3" cx="34.32" cy="30.24" rx="0.75" ry="1.4" transform="translate(-10.35 40.09) rotate(-53.82)"/><ellipse class="cls-3" cx="38.01" cy="32.3" rx="0.69" ry="1.3" transform="translate(-11.78 29.25) rotate(-36.84)"/><ellipse class="cls-3" cx="38.82" cy="36.04" rx="0.69" ry="1.3" transform="translate(-13.2 26.07) rotate(-32.03)"/><ellipse class="cls-3" cx="40.62" cy="39.93" rx="0.6" ry="1.15" transform="translate(-6.49 7.92) rotate(-10.31)"/><path class="cls-3" d="M32.3,39.75a.69.69,0,0,0,.74.38,1,1,0,0,0,.62-.51,1.07,1.07,0,0,0,.17-.6.65.65,0,0,0-.28-.52,1,1,0,0,0-.71,0,.82.82,0,0,0-.43.2.89.89,0,0,0-.14.35A1.2,1.2,0,0,0,32.3,39.75Z"/><path class="cls-3" d="M33.32,41.92a.78.78,0,0,0,.19.92,1.09,1.09,0,0,0,.88.19,1.28,1.28,0,0,0,.63-.27.75.75,0,0,0,.26-.62,1.11,1.11,0,0,0-.46-.65.85.85,0,0,0-.47-.24,1,1,0,0,0-.41.12A1.33,1.33,0,0,0,33.32,41.92Z"/><path class="cls-3" d="M36.53,43.77a.75.75,0,0,0-.67.61,1,1,0,0,0,.26.83,1.11,1.11,0,0,0,.53.4.64.64,0,0,0,.63-.08,1,1,0,0,0,.33-.69.88.88,0,0,0,0-.51,1,1,0,0,0-.29-.29A1.35,1.35,0,0,0,36.53,43.77Z"/><path class="cls-3" d="M30.09,43.49a.68.68,0,0,0,.81.17,1,1,0,0,0,.47-.66,1.19,1.19,0,0,0,0-.62A.65.65,0,0,0,31,42a.92.92,0,0,0-.69.15.71.71,0,0,0-.35.31.66.66,0,0,0-.05.37A1.18,1.18,0,0,0,30.09,43.49Z"/><path class="cls-3" d="M31.64,45.31a.8.8,0,0,0,.44.84,1.07,1.07,0,0,0,.89-.06,1.28,1.28,0,0,0,.54-.43.73.73,0,0,0,.08-.67,1.08,1.08,0,0,0-.61-.5.81.81,0,0,0-.52-.1.9.9,0,0,0-.36.22A1.48,1.48,0,0,0,31.64,45.31Z"/><path class="cls-3" d="M35.23,46.23a.75.75,0,0,0-.48.76,1.05,1.05,0,0,0,.47.73,1.26,1.26,0,0,0,.61.25.71.71,0,0,0,.6-.25,1,1,0,0,0,.12-.76.79.79,0,0,0-.16-.48.8.8,0,0,0-.36-.2A1.29,1.29,0,0,0,35.23,46.23Z"/><path class="cls-3" d="M22.36,42.46A.55.55,0,0,0,22.8,42a.76.76,0,0,0-.25-.58.78.78,0,0,0-.4-.25.51.51,0,0,0-.46.1.73.73,0,0,0-.18.52.59.59,0,0,0,.06.37.6.6,0,0,0,.23.18A.94.94,0,0,0,22.36,42.46Z"/><path class="cls-3" d="M23,45.17a.54.54,0,0,0,.35-.55.76.76,0,0,0-.34-.53.81.81,0,0,0-.44-.18.5.5,0,0,0-.43.18.74.74,0,0,0-.09.55.57.57,0,0,0,.12.35.56.56,0,0,0,.25.14A1,1,0,0,0,23,45.17Z"/><path class="cls-3" d="M25.07,48.24a.53.53,0,0,0,.31-.57.75.75,0,0,0-.38-.51.88.88,0,0,0-.45-.14.53.53,0,0,0-.42.21.82.82,0,0,0-.05.56.56.56,0,0,0,.15.33.52.52,0,0,0,.26.12A.89.89,0,0,0,25.07,48.24Z"/><path class="cls-3" d="M29.74,48.11a.62.62,0,0,0,.73-.07.9.9,0,0,0,.22-.67,1,1,0,0,0-.15-.52.56.56,0,0,0-.46-.25.82.82,0,0,0-.54.3.62.62,0,0,0-.22.35.59.59,0,0,0,.05.32A1,1,0,0,0,29.74,48.11Z"/><path class="cls-3" d="M31.5,49.24a.69.69,0,0,0,.57.59,1,1,0,0,0,.74-.28,1.09,1.09,0,0,0,.34-.5.64.64,0,0,0-.1-.58,1,1,0,0,0-.64-.26.57.57,0,0,0-.7.33A1.18,1.18,0,0,0,31.5,49.24Z"/><path class="cls-3" d="M34.74,49.09a.68.68,0,0,0-.22.77,1,1,0,0,0,.58.49,1.15,1.15,0,0,0,.58,0,.64.64,0,0,0,.44-.36.93.93,0,0,0-.09-.67.69.69,0,0,0-.26-.36.67.67,0,0,0-.34-.07A1.09,1.09,0,0,0,34.74,49.09Z"/><path class="cls-3" d="M30.7,52.31a.6.6,0,0,0,.67-.27.89.89,0,0,0,0-.7,1,1,0,0,0-.29-.45.59.59,0,0,0-.51-.12.88.88,0,0,0-.43.44.66.66,0,0,0-.11.4.56.56,0,0,0,.14.29A1,1,0,0,0,30.7,52.31Z"/><path class="cls-3" d="M32.69,52.88a.67.67,0,0,0,.7.4,1,1,0,0,0,.63-.47,1.16,1.16,0,0,0,.18-.57.62.62,0,0,0-.26-.52.88.88,0,0,0-.68-.07.71.71,0,0,0-.42.17.81.81,0,0,0-.15.34A1.11,1.11,0,0,0,32.69,52.88Z"/><path class="cls-3" d="M35.72,51.83a.65.65,0,0,0,0,.78.93.93,0,0,0,.68.31A1,1,0,0,0,37,52.8a.65.65,0,0,0,.31-.46,1,1,0,0,0-.27-.62.72.72,0,0,0-.35-.27.79.79,0,0,0-.34,0A1.13,1.13,0,0,0,35.72,51.83Z"/><path class="cls-3" d="M35,55.42a.68.68,0,0,0,.71.4,1,1,0,0,0,.62-.47,1.07,1.07,0,0,0,.18-.57.65.65,0,0,0-.25-.53,1,1,0,0,0-.69-.07.8.8,0,0,0-.42.18.77.77,0,0,0-.15.33A1.14,1.14,0,0,0,35,55.42Z"/><path class="cls-3" d="M38.05,54.36a.66.66,0,0,0,0,.79.92.92,0,0,0,.69.3,1,1,0,0,0,.56-.11.6.6,0,0,0,.31-.47.88.88,0,0,0-.27-.61A.75.75,0,0,0,39,54a.69.69,0,0,0-.35,0A1.16,1.16,0,0,0,38.05,54.36Z"/><path class="cls-3" d="M37,58.16a.44.44,0,0,0,.22-.47.59.59,0,0,0-.32-.39.69.69,0,0,0-.37-.1.41.41,0,0,0-.33.19.66.66,0,0,0,0,.44.62.62,0,0,0,.13.27.54.54,0,0,0,.22.09A.75.75,0,0,0,37,58.16Z"/><path class="cls-3" d="M39,58.37a.45.45,0,0,0,.23-.48.67.67,0,0,0-.33-.39.68.68,0,0,0-.37-.09.37.37,0,0,0-.32.18.58.58,0,0,0,0,.45.41.41,0,0,0,.13.26.36.36,0,0,0,.21.09A.75.75,0,0,0,39,58.37Z"/><path class="cls-3" d="M35.51,38.45a.58.58,0,0,0,.63.29.81.81,0,0,0,.51-.45,1,1,0,0,0,.12-.5.54.54,0,0,0-.26-.43.8.8,0,0,0-.59,0,.73.73,0,0,0-.35.18.64.64,0,0,0-.11.3A1,1,0,0,0,35.51,38.45Z"/><path class="cls-3" d="M36.43,40.23a.66.66,0,0,0,.19.77.91.91,0,0,0,.74.13,1,1,0,0,0,.52-.25.63.63,0,0,0,.2-.53,1,1,0,0,0-.41-.53.7.7,0,0,0-.4-.18.76.76,0,0,0-.33.11A1.13,1.13,0,0,0,36.43,40.23Z"/><path class="cls-3" d="M39.18,41.68a.65.65,0,0,0-.55.53.94.94,0,0,0,.25.69,1,1,0,0,0,.45.32.59.59,0,0,0,.53-.09.84.84,0,0,0,.25-.59.7.7,0,0,0,0-.43.62.62,0,0,0-.25-.23A1.15,1.15,0,0,0,39.18,41.68Z"/><path class="cls-13" d="M24.09,18.53a20.21,20.21,0,0,0-1.86,2.18,17.69,17.69,0,0,0-2,3.13c-.24.47-2.26,3.74-2.14,3.95l-.28-.48-2.28-3.94c-1.4-2.43-2.43-5.16-5.37-4.54,0,0-1.23.36-.7,2.18a2.77,2.77,0,0,0,1.39,1.13,1.45,1.45,0,0,1,1.07.87c.7,3,1.41,6,2.11,9,.28,1.21.89,3,2.11,3.21a4.38,4.38,0,0,0,2.78-.88c1-.61,2.05-1.42,3.07-2.12s2.28-1.19,3.4-1.85"/><path class="cls-3" d="M21.79,23.24a.59.59,0,0,0,.39.57.66.66,0,0,0,.59-.17,1,1,0,0,0,.3-.41.63.63,0,0,0,0-.52.71.71,0,0,0-.47-.3.55.55,0,0,0-.36,0,.67.67,0,0,0-.21.23A1.14,1.14,0,0,0,21.79,23.24Z"/><path class="cls-3" d="M21.81,25.33a.75.75,0,0,0-.16.8.89.89,0,0,0,.55.47.92.92,0,0,0,.52,0,.62.62,0,0,0,.37-.4,1.07,1.07,0,0,0-.11-.68.75.75,0,0,0-.26-.36.47.47,0,0,0-.31-.05A.83.83,0,0,0,21.81,25.33Z"/><path class="cls-3" d="M23.44,28a.54.54,0,0,0-.66.23,1.09,1.09,0,0,0-.08.76,1.15,1.15,0,0,0,.24.51.49.49,0,0,0,.46.17.8.8,0,0,0,.44-.43.73.73,0,0,0,.14-.42.76.76,0,0,0-.11-.33A1.09,1.09,0,0,0,23.44,28Z"/><path class="cls-3" d="M19.36,27.08a.39.39,0,0,0,.37.32.55.55,0,0,0,.4-.25.71.71,0,0,0,.15-.37.45.45,0,0,0-.11-.37.53.53,0,0,0-.39-.11.44.44,0,0,0-.25.08.55.55,0,0,0-.12.21A.92.92,0,0,0,19.36,27.08Z"/><path class="cls-3" d="M19.72,28.59a.54.54,0,0,0,.49.83.65.65,0,0,0,.38-.11.46.46,0,0,0,.2-.37.78.78,0,0,0-.19-.47.64.64,0,0,0-.24-.2.5.5,0,0,0-.24,0A.77.77,0,0,0,19.72,28.59Z"/><path class="cls-3" d="M21.34,30.14a.42.42,0,0,0-.44.31A.78.78,0,0,0,21,31a.73.73,0,0,0,.25.32.35.35,0,0,0,.37,0,.72.72,0,0,0,.25-.41.62.62,0,0,0,0-.33.64.64,0,0,0-.14-.22A.7.7,0,0,0,21.34,30.14Z"/><path class="cls-3" d="M17.55,29.28a.37.37,0,0,0,.33.29.49.49,0,0,0,.35-.23.83.83,0,0,0,.14-.32.41.41,0,0,0-.1-.33.4.4,0,0,0-.35-.1.29.29,0,0,0-.22.07.44.44,0,0,0-.1.19A.7.7,0,0,0,17.55,29.28Z"/><path class="cls-3" d="M17.87,30.62a.5.5,0,0,0,0,.54.53.53,0,0,0,.42.2.58.58,0,0,0,.33-.1.41.41,0,0,0,.18-.33.65.65,0,0,0-.17-.41.42.42,0,0,0-.22-.18.31.31,0,0,0-.21,0A.58.58,0,0,0,17.87,30.62Z"/><path class="cls-3" d="M19.3,32a.37.37,0,0,0-.38.28.73.73,0,0,0,.06.5.69.69,0,0,0,.22.28.31.31,0,0,0,.33,0,.63.63,0,0,0,.22-.36.62.62,0,0,0,0-.3.76.76,0,0,0-.12-.19A.64.64,0,0,0,19.3,32Z"/><path class="cls-3" d="M15.74,28a.48.48,0,0,0,.28.47.51.51,0,0,0,.47-.1.71.71,0,0,0,.25-.29.49.49,0,0,0,0-.41.56.56,0,0,0-.35-.27.45.45,0,0,0-.28,0,.52.52,0,0,0-.17.16A.84.84,0,0,0,15.74,28Z"/><path class="cls-3" d="M14.61,29.82a.48.48,0,0,0,.28.47.51.51,0,0,0,.47-.1.71.71,0,0,0,.25-.29.49.49,0,0,0,0-.41.53.53,0,0,0-.36-.26.37.37,0,0,0-.27,0,.55.55,0,0,0-.18.16A.92.92,0,0,0,14.61,29.82Z"/><path class="cls-3" d="M16.21,30.61a.59.59,0,0,0-.16.61.66.66,0,0,0,.4.4.62.62,0,0,0,.4.05.48.48,0,0,0,.31-.28.91.91,0,0,0-.06-.54.56.56,0,0,0-.17-.29.51.51,0,0,0-.24-.07A.72.72,0,0,0,16.21,30.61Z"/><path class="cls-3" d="M16.56,32.66a.44.44,0,0,0-.57.15.91.91,0,0,0-.12.65,1,1,0,0,0,.18.46.41.41,0,0,0,.39.18.71.71,0,0,0,.41-.34.64.64,0,0,0,.14-.35.74.74,0,0,0-.08-.29A.92.92,0,0,0,16.56,32.66Z"/><path class="cls-4" d="M16.09,12.4a3.63,3.63,0,0,0,.32,1.33l-.51-.36A2.44,2.44,0,0,1,15.63,12Z"/><path class="cls-17" d="M15.59,12.76s0,1,.53,1.22a1.72,1.72,0,0,0,.79.19s.24,0-.27-.4A1.92,1.92,0,0,1,16.1,13S15.63,12.32,15.59,12.76Z"/><path class="cls-17" d="M15.38,11.17s-.14,1,.5,1.31a2.61,2.61,0,0,0,1,.36s.29.08-.29-.46a2.25,2.25,0,0,1-.59-.87S15.49,10.74,15.38,11.17Z"/><polygon class="cls-18" points="27.69 2.92 24.2 5.32 21.92 9.97 21.28 14.73 22.92 18.72 28.73 17.36 32.54 14.26 32.96 9.39 27.69 2.92"/><path class="cls-13" d="M27.72,4,31.06.86a1.54,1.54,0,0,1,2-.14A3.83,3.83,0,0,1,34.3,3a9.76,9.76,0,0,1,.23,3.69,8.51,8.51,0,0,1-.61,2.15c-.22.55-.48,1.6-1,2"/><path class="cls-13" d="M18.31,1.65a2.57,2.57,0,0,0-1.62-.36C15,1.7,15.36,4.81,15.57,6.08c.09.54.46,1.13.37,1.68l3.15-2.21L20,3.81c.17-.34-.89-1.61-1.13-1.81A3.36,3.36,0,0,0,18.31,1.65Z"/><path class="cls-13" d="M28.54,17.28a8.88,8.88,0,0,0,3.18-2.22,7.49,7.49,0,0,0,1.1-2,6.54,6.54,0,0,0-.56-3.7"/><path class="cls-13" d="M23.14,18.62a10.05,10.05,0,0,1-3.77-.47c-.39-.14-.6-.24-.6-.24a4.76,4.76,0,0,1-2.68-2.39,5.73,5.73,0,0,1-.93-3.44,19.14,19.14,0,0,0,.47-2,5.18,5.18,0,0,1,1.16-3.71,6.43,6.43,0,0,1,.88-1.06,5.63,5.63,0,0,1,1.58-1.13C22.84,1.3,27.61,3,27.61,3"/><path class="cls-4" d="M32.58,11.73c-.67-.53-1.33,0-1.79.51a7.18,7.18,0,0,0-.87,1.7A6,6,0,0,1,25.8,16.5a1.61,1.61,0,0,1-1.13-.27c-.58-.35-.48-1.24-.6-1.82a3.05,3.05,0,0,0-1-1.66,4.3,4.3,0,0,0-4.42-.64s-2.08,1-1.36,2.62c0,0,.84,1.59,1.61,1.76.49.11,1,.24,1.45.34a3.09,3.09,0,0,1-.93.46c.53-.13,1.21.53,1.21.53,5.85,1.07,11.09-3,11.09-3C33.52,12.25,32.58,11.73,32.58,11.73Z"/><path class="cls-17" d="M28.78,12.42l0-.06C28.85,12.42,28.8,12.41,28.78,12.42Z"/><path class="cls-16" d="M21.49,12.37c-.06,0,0,0-.06-.06Z"/><path class="cls-4" d="M27.87,3A7.31,7.31,0,0,1,29.6,1.53a2.25,2.25,0,0,1-.7,1.56A.66.66,0,0,1,27.87,3Z"/><path class="cls-17" d="M18.69,12.11l.08-.07Z"/><path class="cls-17" d="M18.46,8.77l0,.08h0c-.06,0-.06,0-.07,0Z"/><path class="cls-18" d="M18.86,2.61l0,.07S18.85,2.64,18.86,2.61Z"/><path class="cls-19" d="M18.69,9.61a1.6,1.6,0,0,1-1.05,2.05.73.73,0,0,1-.75-.33,2.35,2.35,0,0,1-.31-1.6h.07l0,.29A1.85,1.85,0,0,0,17,11a.69.69,0,0,0,1.08.13A1.7,1.7,0,0,0,18.65,10C18.67,9.89,18.68,9.76,18.69,9.61Z"/><path class="cls-4" d="M18.43,8.8s0,.09.07,0a.75.75,0,0,1-.36.82.34.34,0,0,1-.32,0c-.11-.06-.11-.19-.09-.31A1.59,1.59,0,0,1,17.79,9C17.91,8.61,18.09,8.55,18.43,8.8Z"/><path class="cls-4" d="M22.15,11a12.33,12.33,0,0,1,.76-1.55,3,3,0,0,1,4.55-.36c.27.28,1,.45.5,1-.35.33-.53,1.14-.86,1.55a2.4,2.4,0,0,1-1.48.93,3.69,3.69,0,0,1-3.52-.83A.63.63,0,0,1,22.15,11Z"/><path class="cls-17" d="M25,12.27a4,4,0,0,1-2.1-.52.57.57,0,0,1-.3-.66,3.68,3.68,0,0,1,1.54-2.37A2.14,2.14,0,0,1,26,8.66a3.15,3.15,0,0,1,.9.49,1.86,1.86,0,0,0,.71.4c.11,0,.12.06.08.15a6.17,6.17,0,0,1-1.31,2A2.13,2.13,0,0,1,25,12.27Z"/><path class="cls-20" d="M25.61,9a2.09,2.09,0,0,0-1.49.2c-1.07.68-1.17,2.31.18,2.68A1.83,1.83,0,0,0,26.49,9.5,3.23,3.23,0,0,0,25.61,9Z"/><path class="cls-17" d="M25.26,10.4a.65.65,0,0,1-.7-.6.75.75,0,0,1,.06-.33,1.43,1.43,0,0,0-.36,0,1.29,1.29,0,0,0-1.13,1.42,1.26,1.26,0,0,0,1.36,1.18,1.3,1.3,0,0,0,1.13-1.42,2,2,0,0,0-.08-.33A.53.53,0,0,1,25.26,10.4Z"/><path class="cls-4" d="M19.65,10.43c-.18-.43-.25-.91-.47-1.32-.69-1.23-2-1.51-2.75-.4-.15.22-.61.35-.28.78.21.28.33,1,.53,1.32a1.63,1.63,0,0,0,.91.81,1.71,1.71,0,0,0,2.1-.61A.68.68,0,0,0,19.65,10.43Z"/><path class="cls-17" d="M18,11.49a1.81,1.81,0,0,0,1.26-.39.52.52,0,0,0,.18-.55,3.53,3.53,0,0,0-1-2,1,1,0,0,0-1.14-.1,1.61,1.61,0,0,0-.53.39.94.94,0,0,1-.43.32c-.06,0-.07,0,0,.13A5.89,5.89,0,0,0,17.17,11,1.2,1.2,0,0,0,18,11.49Z"/><path class="cls-20" d="M17.59,8.75a1,1,0,0,1,.91.2c.65.6.74,2-.08,2.26s-1.74-.94-1.35-2.1C17.07,9.11,17.43,8.77,17.59,8.75Z"/><path class="cls-17" d="M18.41,10.15A.49.49,0,0,1,18,9.58a.67.67,0,0,1,.1-.23,1.13,1.13,0,0,0-.24-.08.92.92,0,0,0-1,.85,1,1,0,0,0,.71,1.11.92.92,0,0,0,1-.85,1.13,1.13,0,0,0,0-.26A.34.34,0,0,1,18.41,10.15Z"/><path class="cls-21" d="M31.9,2a2.52,2.52,0,0,1,.21-.4c.36-.52,1.11-.77,1.52-.1A9,9,0,0,1,34.12,8l-.54,1.33L33,10.66s-1.57-4.18-2.84-5.33c-.28-.26-.15-.54.08-.77A15.19,15.19,0,0,0,31.9,2Z"/><path class="cls-22" d="M25.15,4.32h0s-.63.13-.71.17a2,2,0,0,0-.68.58A4.4,4.4,0,0,0,23,6.59s-1.36,4.85-.37,4.19l.87-1.54a18,18,0,0,0,.77-2.52A22.47,22.47,0,0,1,25.15,4.32Z"/><path class="cls-17" d="M22,10.64c-.11-.09-.08-.24-.08-.35a20.68,20.68,0,0,1,.9-5.13,11,11,0,0,1,1.12-2.35.72.72,0,0,1,.6-.43c.08,0,.19.12.28.11s.38-.08.47.13-.08.21-.21.32a6.55,6.55,0,0,0-1.83,3.13,23.7,23.7,0,0,0-.85,3.75A1.12,1.12,0,0,1,22,10.64Z"/><path class="cls-23" d="M27.69,2.92a5,5,0,0,0-1.3-.08c-.33,0-1,1-1.13,1.25a13.88,13.88,0,0,0-1.5,3c0,.08-.75,2-.21,1.84a.43.43,0,0,0,.23-.33,6.87,6.87,0,0,1,1.36-2.76C25.62,5.19,27.09,4,28,4c0,0,.54.19,1.54-1l1.72-2A2,2,0,0,1,32.74.47a2.18,2.18,0,0,0-2.17.37,15,15,0,0,0-2.11,1.55S27.88,3.08,27.69,2.92Z"/><path class="cls-4" d="M28.56,2.28a1.83,1.83,0,0,0,.83-.13,2.31,2.31,0,0,0,.79-.45c.08-.09.2-.14.19-.29s-.15-.35-.22-.3A19.66,19.66,0,0,0,28.56,2.28Z"/><path class="cls-24" d="M19.66,9.63s-.15.75,0,.94l-.76-1.63s.54.36.85-1c0,0,.3-3.2,1.45-2.94A21.14,21.14,0,0,1,19.66,9.63Z"/><path class="cls-17" d="M19.67,10.1c-.15-.15-.07-.32,0-.47.2-.56.45-1.09.63-1.66a19.31,19.31,0,0,0,1-4.1,7.32,7.32,0,0,0,0-.81.23.23,0,0,1,.17-.24l.52-.1a.33.33,0,0,1,.31.09,4.62,4.62,0,0,1-.25.9c-.19.87-.44,1.73-.68,2.58a15.83,15.83,0,0,1-1,2.49l-.54,1.11A.5.5,0,0,1,19.67,10.1Z"/><path class="cls-17" d="M17.11,1.2A3.42,3.42,0,0,1,18.87,2c.46.35.69.85,1.11,1.23a2.5,2.5,0,0,1,.36.24c.55,1.4-.79,5.29-.79,5.29-.35.63-.18-.37-.18-.37a16.43,16.43,0,0,1,.32-2.1A4.63,4.63,0,0,0,18,2.11c-.33-.21-2.05-.93-2.13,0C15.83,2.09,15.91,1.23,17.11,1.2Z"/><path class="cls-4" d="M19.67,10.1a5.27,5.27,0,0,1,.1,1.84l-.39,0,.13-1.15S19.33,9.94,19.67,10.1Z"/><path class="cls-4" d="M19.46,11.16s0,.85-.56,1.07l.71-.23Z"/><path class="cls-4" d="M22.33,10.47a.16.16,0,0,0-.14.08c-.2.3-1,1.51-.49,1.76,0,0,.13.24.5-.3l.25-1.2S22.61,10.46,22.33,10.47Z"/><path class="cls-4" d="M22.23,11.67a1.21,1.21,0,0,0,.2.91l-.73-.27Z"/><path class="cls-18" d="M16.14,6.93s.35-.4.4.13c0,0,1.29-.74,1.43-.87s1.52-1.73,1.52-1.73l-.3-.82-1.5.22L16.52,6.41Z"/><path class="cls-21" d="M15.64,2.75c.16-.87,1.37-.06,1.71.2a3.93,3.93,0,0,1,.72.75c.29.42.37.63,0,1s-.54.58-.8.88S16.12,6.71,16,7.31A8.39,8.39,0,0,1,15.64,2.75Z"/><path class="cls-4" d="M32.18,14.44l0,0A.05.05,0,0,1,32.18,14.44Z"/><path class="cls-18" d="M31.8,15s0,.06-.05.07S31.76,15,31.8,15Z"/><path class="cls-3" d="M32.54,11.09c-.95-1.19-2.95,1.81-3.33,2.44,0,0-.16.27,0,.18,0,0,2-2,3-1.85,0,0,.75.38.79.53A3.6,3.6,0,0,0,32.54,11.09Z"/><path class="cls-3" d="M32.67,13a2.26,2.26,0,0,0-2.36.66,14.11,14.11,0,0,1-1.84,1.19c-.14.08-1.46.67-.82.88a19.45,19.45,0,0,0,2.86-1c.11-.05,1.32-.56,1.64-.35A3.35,3.35,0,0,0,32.67,13Z"/><path class="cls-3" d="M19.87,14a1,1,0,0,0-.24.85"/><path class="cls-3" d="M19.87,14c.15.32.19.43.17.52s-.13.11-.41.33a.45.45,0,0,1-.37-.58A.47.47,0,0,1,19.87,14Z"/><path class="cls-3" d="M21.17,14.3c0,.08.18.11.26.12a.15.15,0,0,0,0-.29C21.37,14.12,21.17,14.22,21.17,14.3Z"/><path class="cls-3" d="M21.77,14.65c0,.08.19.12.26.12a.15.15,0,0,0,.16-.13.15.15,0,0,0-.13-.16C22,14.47,21.78,14.57,21.77,14.65Z"/><path class="cls-3" d="M21.18,15c0,.08.18.11.26.12a.16.16,0,0,0,.15-.14.15.15,0,0,0-.13-.16C21.38,14.81,21.18,14.91,21.18,15Z"/><path class="cls-3" d="M18.85,14.15c0,.06-.13.09-.18.1a.11.11,0,1,1,0-.22C18.7,14,18.85,14.1,18.85,14.15Z"/><path class="cls-3" d="M18.42,14.41c0,.06-.14.09-.19.09a.1.1,0,0,1-.12-.09.11.11,0,0,1,.1-.12C18.27,14.28,18.41,14.35,18.42,14.41Z"/><path class="cls-3" d="M18.85,14.66c0,.06-.13.09-.19.09s-.1,0-.11-.1a.1.1,0,0,1,.1-.11C18.7,14.53,18.85,14.6,18.85,14.66Z"/><path class="cls-25" d="M20.72,12.41a1,1,0,0,1,.68.52.32.32,0,0,1-.06.26l-.12.16A1.55,1.55,0,0,1,20,13.9a.88.88,0,0,1-.57-.46c-.12-.23-.34-.66-.22-.92s.48-.5.62-.31A1.87,1.87,0,0,0,20.72,12.41Z"/><path class="cls-26" d="M21.22,13.35s-.58-.29-.85.53"/><path class="cls-26" d="M19.26,12.77s.46.13.2.72"/><path class="cls-4" d="M15.73,14.64s1.08.87,1.53.67c0,0,.61-.14.08-.9l1.6,2.08,1.76-.13.42,1.26-.45.2s-1-.22-1.5-.34A4.51,4.51,0,0,1,15.73,14.64Z"/><path class="cls-3" d="M21.32,12.06c-.07,0-.07-.2-.06-.28a.15.15,0,0,1,.16-.13.14.14,0,0,1,.12.16C21.53,11.89,21.4,12.07,21.32,12.06Z"/><path class="cls-3" d="M19.78,11.86c-.08,0-.07-.21-.06-.29a.14.14,0,0,1,.16-.12.15.15,0,0,1,.12.16C20,11.69,19.85,11.87,19.78,11.86Z"/><path class="cls-4" d="M18.31,1.65a1.58,1.58,0,0,0,1.18,1S18.77,1.64,18.31,1.65Z"/><path class="cls-14" d="M26.19,18.54l-.14,0a5.47,5.47,0,0,0-2.81-.1,9.07,9.07,0,0,1-5.92-1.6,12.91,12.91,0,0,0,8.28.86s4.09-1.2,5.68-2.44a17.34,17.34,0,0,1-2.8,1.84s-.56.29.2.54c-.12,0-1,.67-1.17.75A1.72,1.72,0,0,1,26.19,18.54Z"/><ellipse class="cls-27" cx="24.85" cy="10.07" rx="0.49" ry="0.48" transform="translate(-0.04 0.11) rotate(-0.25)"/><ellipse class="cls-27" cx="18.3" cy="9.78" rx="0.4" ry="0.39" transform="translate(-0.04 0.08) rotate(-0.25)"/><path class="cls-28" d="M22.35,15.23a2.56,2.56,0,0,1-2.72-.11A1.73,1.73,0,0,1,18,15a1.27,1.27,0,0,0,1.32.54,1,1,0,0,1,.7.12A1.8,1.8,0,0,0,22.35,15.23Z"/><path class="cls-29" d="M11.24,14.1,3,5.83S-1.64,11.13.63,19.59l10.43-4.26S11.66,15.14,11.24,14.1Z"/></g></g></svg>