<svg xmlns="http://www.w3.org/2000/svg" viewBox="0 0 1917.33 300"><defs><style>.cls-1{isolation:isolate;}.cls-2,.cls-5{opacity:0.4;}.cls-3,.cls-4,.cls-5{fill:#5596ca;}.cls-4{opacity:0.3;mix-blend-mode:multiply;}.cls-6{fill:none;}</style></defs><title>works-b-tree2</title><g class="cls-1"><g id="圖層_2" data-name="圖層 2"><g id="作品"><g class="cls-2"><path class="cls-3" d="M1458.79,207.7c0,1.31,36.48,2.63,36.75.27.23-2.13-5,0-8.74-5.63-4.58-6.91-3.1-26.84-2.22-35L1471,169.41c-1,4.82-2.63,20.1-3.13,25C1466.86,204.57,1458.79,206.41,1458.79,207.7Z"/><path class="cls-4" d="M1469.3,181.79c3.46,9.34,9,16.45,17.5,20.55-3.23-4.87-3.22-14.21-3.1-20.45a76,76,0,0,1-14.15-2.26C1469.46,180.29,1469.38,181,1469.3,181.79Z"/><path class="cls-3" d="M1504.61,146.65c0-.68,6.76-1.16,6.11-3.15-2-4.12-10.13-27.92-12.86-33.29,1.39,0,3.64-.91,3.64-1.6-1.39-8.53-7.66-20-11-29.48,1.34,0,3.38,0,4-.69.69-2.68-17.53-47.27-18.23-46.57-1.71,1.28-18.47,45.89-16.87,47.05s3.37.9,4.06.21c-2.68,9.44-8.91,20.82-11.68,30.17-.57,1.43,2,2.43,2.89,3.25-.08.34-11.25,26.49-13,30.73-1,2.22,8.26-.58,6,4s-13.85,26.49-15.28,29c-1.21,2.21-4.37,4.63-.34,6.53,2.62,1.5,24.37,4.19,40.43,4.64,21.53.12,45.56-2.86,51.42-7.79C1524.66,179.08,1506,155.44,1504.61,146.65Z"/><path class="cls-3" d="M1523.88,179.73c-6.63,5.58-35,7.7-43.33,7.83-23.49-.12-45.91-3.19-48.52-4.68,29.92-1.12,46.88.57,80.68-5.62l-13-26.36-38.61-5.41,39.34-4.68-8.31-26.31-26.71-2.9,26.71-3.25L1486,81.64l-15.14-1.42,14.45-2.9s-6.06-26.84-9.78-44.24a5.36,5.36,0,0,1,.73-1.21c.7-.7,18.92,43.89,18.23,46.57-.65.69-2.69.69-4,.69,3.38,9.44,9.65,21,11,29.48,0,.69-2.25,1.6-3.64,1.6,2.73,5.37,10.82,29.17,12.86,33.29.65,2-6.11,2.47-6.11,3.15C1506,155.44,1524.66,179.08,1523.88,179.73Z"/></g><path class="cls-5" d="M1369.47,124.17c-.11-.31-.23-.61-.36-.92L1369,123c-.13-.29-.26-.58-.4-.87,0-.09-.1-.19-.15-.29s-.19-.38-.29-.56l-.23-.42c-.13-.23-.26-.46-.4-.68l-.33-.52-.21-.31c-.16-.25-.33-.49-.51-.74l-.34-.45-.27-.35c-3.61-4.59-8.94-8.07-13.87-6.64,8.26-17.29-15.08-30.14-27.07-20.59-7.34-8.9-23.45-6.46-33.24,1.59a22.56,22.56,0,0,0-6.9,9.21c-2.54-4.33-9.54-4.55-13.28-.89-5.6,5.47-4.64,13.29-.88,19.3l-.78.63c-3.31-1.48-7.76,1.56-9.71,4.2-5.64,7.64,1,14.27,5.6,14.27a8.05,8.05,0,0,0-5.5,6h0a.17.17,0,0,0,0,.07c0,.13-.06.27-.08.4a2,2,0,0,0,0,.24,2.4,2.4,0,0,0,0,.28,7.87,7.87,0,0,0,0,2v0c0,.14,0,.28.07.42a1.29,1.29,0,0,1,0,.19c0,.1,0,.21.08.32l.09.29c0,.07,0,.15.08.23s.09.26.14.38l.06.13a4.44,4.44,0,0,0,.24.49v0a7.88,7.88,0,0,0,3.24,3.21c2.69,1.47,7,3.67,11.2,2.36a18.23,18.23,0,0,0,3.76-1.66c2.27,2.38,4.76,4.85,4.93,5.19.79.8,1.15,5.84,1.31,7.25,0,.18.57,22.54-.13,25.89-.29,1.41-1.34,1.65-2.2,1.94-1.47.4,7,.36,7.3.22.6-.32-.56-.52-.88-1.17-1.11-2.3-1-31.59-.1-34.63.67-.95,2.75-4.05,4.49-6.79a18.73,18.73,0,0,0,6.15,1.4l1.09,0h.24l1,0h1.41l.92,0,.27,0c.32,0,.63-.05.94-.09l.26,0,.94-.14.16,0,.88-.19.13,0c.31-.07.61-.16.91-.25l.18-.06a8.64,8.64,0,0,0,.85-.31l.15-.06q.44-.18.84-.39l.06,0,.78-.46.07-.05c.25-.17.49-.35.73-.54l.1-.09a7.69,7.69,0,0,0,.66-.62l.06-.07a7.6,7.6,0,0,0,.52-.61c3.6,2.65,8.49,8.09,8.49,18.13,0,15.88-.33,23.55-.33,23.55l-5.79,4.75s-2.82,1.45,4.91.36,12.89,2.32,13.86,1.22-6.32-3.5-6.54-5.24c-.89-7-3.54-26.83-1-33.95,1.44-4,5.62-7,9-8.81a28.43,28.43,0,0,0,14.75.49C1361.81,147.94,1372.74,133.45,1369.47,124.17Zm-84.83,31.56c-.66.21-2.23-1-4-2.42,2.88-2.1,4.21-4.34,5-4.45h.08C1285.52,152.36,1285.21,155.56,1284.64,155.73Zm3.9-.6c-.37,0-.59-2.75-.74-6,1.38.51,2.85,1.52,4.76,2.46C1290.75,153.42,1288.93,155.14,1288.54,155.13Zm33.49-2.25c-.77.26-3.1-1.74-5.6-4a18.34,18.34,0,0,0,4.83-1.23C1322.13,150.41,1322.65,152.67,1322,152.88Zm2.58-.27s-.67-2.63-1.55-5.72a32.15,32.15,0,0,0,5.1-3.13l.28.36Zm2.25,1.92s1.86-4.05,3.79-8.28a19.24,19.24,0,0,0,3.95,2.41C1331,151.18,1326.86,154.53,1326.86,154.53Z"/><path class="cls-5" d="M571.4,125.59c.17-.46.34-.91.49-1.36.09-.25.17-.5.25-.75s.09-.3.13-.44c9.92-32.35-34.94-49.47-51.12-33.64a21.34,21.34,0,0,0-18,4.36c-7.3-16.34-17-28.82-25.86-27.85-21.59,2.35-44.07,61.64-33.24,89.6.66,1.93,3.11,3.66,6.11,5.08l.39.18.55.25a43.87,43.87,0,0,0,4.72,1.73l.11,0,.58.17.77.22.32.09c.66.18,1.31.34,1.93.48h.07l.91.2.11,0,.82.15c6.67,1.09,10.54-1,13-2.67a38.86,38.86,0,0,1,1,9.13c0,20.36-.15,28.25,0,32.31s-10.36,6-10.36,6-3.27,1.14,6.07,1c9.82-.16,20.8.43,22-1s-10.23-2.08-10.36-6.2c-.26-8.23-2.36-30.05-.31-40.59,7.4,2.76,22.87,3.83,27.88-2.47a13.86,13.86,0,0,0,1.14-1.69l.91.32.49.16c.61.2,1.22.38,1.85.56l.31.08c.7.19,1.4.37,2.12.53a23.47,23.47,0,0,0,13.5-1.05,28.31,28.31,0,0,1,1.41,9.3c0,17,.61,36.78.61,36.78a8.32,8.32,0,0,1-4.41,4c-2,.7-.94.44,6.17.44,5.3,0,7.36.47,6.07-.22-1.65-.88-3.55-2.13-3.64-4-.38-7.27-2.32-38.63-.27-46.32a16.23,16.23,0,0,0,7.52,1.62c15.79-1.22,24.93-8.46,25.67-20.94.32-5.31-2-7.21-3.7-7.88C565.67,131.15,570.08,129.06,571.4,125.59Z"/><g class="cls-2"><path class="cls-3" d="M636.89,139.09c-1,0,0,7.91-6.3,11.76-5.74,3.5-14.74,1.23-16.91-1.34-1.51-1.82-5.67,2.43-13.89,1.11a22.47,22.47,0,0,1-15.13-10.84s0,0,0-.05c-2.56-4.82-2-10,4.55-12.7-7.84-5.27-5.62-16.68,4-19.13-7.09-8,3.63-20.59,14-13.34,6.63-7.35,22.55-3,17.35,6.33,13.53-1.56,15.54,10.72,10.09,19.67,3.3-1.75,6-1.07,7.91.82v0C647.38,126.29,646.74,139.09,636.89,139.09Z"/><path class="cls-3" d="M636.89,139.09c-1,0,0,7.91-6.3,11.76-5.74,3.5-14.74,1.23-16.91-1.34-1.51-1.82-5.67,2.43-13.89,1.11a22.47,22.47,0,0,1-15.13-10.84c5.36,5.95,15.44,8.43,16-1.47,4.14,7.09,18.38,6.59,23.12-.35,10,4.3,17.36-7,18.73-16.55C647.38,126.29,646.74,139.09,636.89,139.09Z"/><path class="cls-3" d="M602.87,131a19.47,19.47,0,0,1,1.76,2c.06.1-1.91.21-3.53.67-2.27.64-4.39,1.66-3.91,1.7.81.07,8-2,9.4-.78,2.73,2.31,5.44,6.79,5.44,13.93,0,13.11-.25,46.46-.25,46.46l-3.36,1.6s-2.85,1.49,3.1,1.61c6.11.13,7.53.41,8.29-.49s-3.33-1.16-3.47-3.35c-.36-5.78-2.29-47.64-.27-53.52a10.39,10.39,0,0,1,4.52-5.28c.22-.14,4.86,1.06,5.08.92.49-.28-3.37-1.76-3-2.09,2.08-1.67,3.68-1.48,4-1.89.71-.94-2.56.05-4.41.79a61.79,61.79,0,0,0-7,4.39s1.52-4.73,3-9.12c.09-.27,4.8-3.17,4.89-3.44.17-.5-4.29,1.63-4.13,1.16.75-2.29,1.82-5.23,2.07-5.88.75-2-1.43,1.95-2.74,5.09-2.13,5.16-2.47,9.13-4.05,9.67s-3.44-5.6-4.58-9.08c-.4-1.23-.81-2.34-1.22-3.34-.13-.31,1.57-6.4,1.44-6.7-.21-.47-2.24,4.87-2.45,4.46-1.71-3.5-3-4.67-2.57-3.35,1.11,3,7.86,18.72,6.59,19.17s-7.77-7.07-11.75-7.73C597.73,128.22,602.87,131,602.87,131Z"/><path class="cls-3" d="M602.87,131a19.47,19.47,0,0,1,1.76,2c.06.1-1.91.21-3.53.67-2.27.64-4.39,1.66-3.91,1.7.81.07,8-2,9.4-.78,2.73,2.31,5.44,6.79,5.44,13.93,0,13.11-.25,46.46-.25,46.46l-3.36,1.6s-2.85,1.49,3.1,1.61c6.11.13,7.53.41,8.29-.49s-3.33-1.16-3.47-3.35c-.36-5.78-2.29-47.64-.27-53.52a10.39,10.39,0,0,1,4.52-5.28c.22-.14,4.86,1.06,5.08.92.49-.28-3.37-1.76-3-2.09,2.08-1.67,3.68-1.48,4-1.89.71-.94-2.56.05-4.41.79a61.79,61.79,0,0,0-7,4.39s1.52-4.73,3-9.12c.09-.27,4.8-3.17,4.89-3.44.17-.5-4.29,1.63-4.13,1.16.75-2.29,1.82-5.23,2.07-5.88.75-2-1.43,1.95-2.74,5.09-2.13,5.16-2.47,9.13-4.05,9.67s-3.44-5.6-4.58-9.08c-.4-1.23-.81-2.34-1.22-3.34-.13-.31,1.57-6.4,1.44-6.7-.21-.47-2.24,4.87-2.45,4.46-1.71-3.5-3-4.67-2.57-3.35,1.11,3,7.86,18.72,6.59,19.17s-7.77-7.07-11.75-7.73C597.73,128.22,602.87,131,602.87,131Z"/></g><rect class="cls-6" width="1917.33" height="300"/></g></g></g></svg>