<svg xmlns="http://www.w3.org/2000/svg" xmlns:xlink="http://www.w3.org/1999/xlink" viewBox="0 0 106.34 136.99"><defs><style>.cls-1,.cls-13,.cls-16,.cls-4{fill:#b08b58;}.cls-1,.cls-13,.cls-15,.cls-17,.cls-18,.cls-21,.cls-23,.cls-30,.cls-31,.cls-4,.cls-6,.cls-7,.cls-8{stroke:#4d3224;}.cls-1,.cls-13,.cls-4,.cls-8{stroke-miterlimit:10;}.cls-1{stroke-width:1.1px;}.cls-2{fill:#c99f64;}.cls-3{fill:#4d3224;}.cls-4{stroke-width:0.73px;}.cls-5{fill:#f8f9f9;}.cls-6{fill:#c9caca;stroke-width:0.83px;}.cls-15,.cls-17,.cls-18,.cls-21,.cls-23,.cls-30,.cls-31,.cls-33,.cls-6,.cls-7{stroke-linecap:round;stroke-linejoin:round;}.cls-32,.cls-7{fill:#f7f7f7;}.cls-7{stroke-width:0.84px;}.cls-8{fill:#c8e5f0;stroke-width:0.72px;}.cls-9{fill:#d8d2d3;}.cls-10{fill:url(#未命名漸層_32);}.cls-11{fill:url(#未命名漸層_32-2);}.cls-12{fill:#70a365;}.cls-13,.cls-15{stroke-width:0.96px;}.cls-14{fill:#754c37;}.cls-15,.cls-17,.cls-21,.cls-22,.cls-23{fill:#c49c63;}.cls-17{stroke-width:0.94px;}.cls-18{fill:#c59c65;stroke-width:0.93px;}.cls-19{fill:#fbfbfb;}.cls-20,.cls-33{fill:#432513;}.cls-21{stroke-width:0.97px;}.cls-23,.cls-30,.cls-31{stroke-width:0.95px;}.cls-24{fill:#b3aa5e;}.cls-25{fill:#007096;}.cls-26{fill:#fadfce;}.cls-27{fill:url(#未命名漸層_5);}.cls-28{fill:#422311;}.cls-29{fill:url(#未命名漸層_5-2);}.cls-30{fill:#f5c2b8;}.cls-31{fill:none;}.cls-33{stroke:#432513;stroke-width:0.25px;}.cls-34{fill:url(#未命名漸層_32-3);}</style><linearGradient id="未命名漸層_32" x1="-1998.22" y1="1380.99" x2="-2008.94" y2="1375.9" gradientTransform="matrix(-0.99, 0.45, 0.16, 0.94, -2108.98, -356.03)" gradientUnits="userSpaceOnUse"><stop offset="0" stop-color="#fff" stop-opacity="0"/><stop offset="0.89" stop-color="#fff"/></linearGradient><linearGradient id="未命名漸層_32-2" x1="-2000.01" y1="1383.15" x2="-2007.41" y2="1379.63" xlink:href="#未命名漸層_32"/><linearGradient id="未命名漸層_5" x1="-2787.48" y1="-254.03" x2="-2789.5" y2="-247.4" gradientTransform="matrix(-1, -0.09, -0.09, 1, -2743.72, 20.24)" gradientUnits="userSpaceOnUse"><stop offset="0" stop-color="#fff" stop-opacity="0"/><stop offset="1" stop-color="#f8f9f9"/></linearGradient><linearGradient id="未命名漸層_5-2" x1="-2795.05" y1="-254.45" x2="-2796.75" y2="-248.38" xlink:href="#未命名漸層_5"/><linearGradient id="未命名漸層_32-3" x1="99.47" y1="27.94" x2="86.1" y2="27.94" gradientTransform="matrix(1, 0, 0, 1, 0, 0)" xlink:href="#未命名漸層_32"/></defs><title>works-LeopardCat </title><g id="圖層_2" data-name="圖層 2"><g id="作品"><path class="cls-1" d="M33.29,87.18l-.24.07c-4.74,1.36-11.15-5.51-13-7.78-3.21-3.86-5.21-14.24-2.94-18.74,1.62-3.2,4.18-6.33,5.84-9.59a16.34,16.34,0,0,0,1.3-11.09c-1.55-7.82-7.3-14.37-14.66-19.57C5.86,17.89,1.36,17.67.69,18.89c-1.08,2,4.34,7.5,6.9,9.43,4.69,3.54,8.16,6.65,8.73,12.1.6,5.61-4.12,10.72-6.62,15.9C5.15,65.77,8,79.61,15.86,86.88c0,0,6.77,7.17,15.76,3.52Z"/><path class="cls-2" d="M25.36,88.22c-7.5-2.71-11-9.9-12.69-13.46-3.12-6.62-1.86-16.43,4.18-22.44,0,0,9-12.08-3.58-23.24,0,0-11.65-7.91-11.92-10.14,0,0-1.71,3,8.87,11,0,0,10.55,6.8,5.33,16.46,0,0-7.83,14.48-7.28,16,0,0-2.57,25.43,17.52,28.3Z"/><path class="cls-3" d="M1.76,22.77S4,24.17,4.6,21c0,0-.48-1.21,2.39-1.87C7,19.11-1.9,15,1.76,22.77Z"/><ellipse class="cls-3" cx="18.93" cy="80.33" rx="1.83" ry="2.9" transform="translate(-46.07 29.48) rotate(-38.7)"/><ellipse class="cls-3" cx="12.67" cy="62.17" rx="2.75" ry="1.78" transform="translate(-49.58 49.94) rotate(-67.37)"/><ellipse class="cls-3" cx="19.38" cy="53.14" rx="3.44" ry="2.02" transform="translate(-35.04 37.71) rotate(-54.13)"/><ellipse class="cls-3" cx="10.9" cy="25.52" rx="1.91" ry="2.63" transform="translate(-15.54 17.07) rotate(-49.14)"/><ellipse class="cls-3" cx="15.23" cy="70.93" rx="1.58" ry="2.28" transform="translate(-17.67 6.27) rotate(-14.85)"/><ellipse class="cls-3" cx="19.25" cy="40.93" rx="1.4" ry="2.64" transform="translate(-1.8 0.89) rotate(-2.54)"/><ellipse class="cls-3" cx="18.59" cy="31.79" rx="2.24" ry="3.34" transform="translate(-12.94 12.76) rotate(-28.56)"/><path class="cls-4" d="M57.63,39.49a8.93,8.93,0,0,1,1-.39A6.52,6.52,0,0,1,62.87,39,19.9,19.9,0,0,0,65.39,40c1.92.43,3.76-.94,5.15-2.33a33.32,33.32,0,0,0,4-4.79c1.64-2.37,3.9-4.32,7-2.87,2.19,1,3.63,4.7-.38,4.92-1.19.07-1.43-.13-2.5.4a3.93,3.93,0,0,0-1.38,1.48l-4.55,7C71.39,46,70,48.16,67.82,49.53c-2.36,1.52-5.27,1.85-8,2.62A24.24,24.24,0,0,0,53,55.3a2.81,2.81,0,0,1-2.12.72c-1.15-.29-1.35-1.81-1.24-3C50.17,47.57,52.75,41.75,57.63,39.49Z"/><path class="cls-5" d="M76.62,37.35s-.16-1-1.65-.28c-1.89,1.66-3.3,3.79-5.14,5.51a10.38,10.38,0,0,1-2.8,2c-.21.09-3.4.91-3.11-.06,0,0-1.52,5.14-2.84,6.66,0,0,6.85.05,9.89-5.14Z"/><path class="cls-3" d="M72.52,36.47a.83.83,0,0,1-.28-1,1.18,1.18,0,0,1,.74-.62,1.34,1.34,0,0,1,.74-.06.78.78,0,0,1,.56.45,1.21,1.21,0,0,1-.11.85,1,1,0,0,1-.33.46.87.87,0,0,1-.45.09A1.37,1.37,0,0,1,72.52,36.47Z"/><path class="cls-3" d="M69.78,39.76a.84.84,0,0,1-.11-1,1.26,1.26,0,0,1,.84-.49,1.33,1.33,0,0,1,.74.07.77.77,0,0,1,.47.55,1.12,1.12,0,0,1-.25.81,1,1,0,0,1-.41.4.86.86,0,0,1-.45,0A1.48,1.48,0,0,1,69.78,39.76Z"/><path class="cls-3" d="M66.09,41.66A1.09,1.09,0,0,1,66,40.38,1.54,1.54,0,0,1,67,39.76a1.8,1.8,0,0,1,1,.08,1,1,0,0,1,.59.7,1.48,1.48,0,0,1-.32,1,1.16,1.16,0,0,1-.52.51,1.1,1.1,0,0,1-.57,0A1.82,1.82,0,0,1,66.09,41.66Z"/><path class="cls-6" d="M80.12,46.73l8.21-4.51a2.86,2.86,0,0,0,1.19-2l2-17.6c.09-.79-.94-1-1.51-.68l-7.79,4A2.87,2.87,0,0,0,81,28L79.25,45.86C79.16,46.65,79.55,47,80.12,46.73Z"/><path class="cls-7" d="M80.91,46.19l7.82-4.31a1.6,1.6,0,0,0,.67-1.13l1.89-17.46c0-.45-.18-.67-.5-.5l-7.86,3.95a1.6,1.6,0,0,0-.67,1.13L80.41,45.7C80.36,46.15,80.59,46.37,80.91,46.19Z"/><ellipse class="cls-8" cx="83.9" cy="28.2" rx="0.88" ry="0.56" transform="translate(25.81 94.97) rotate(-67.56)"/><path class="cls-9" d="M87.52,33.05a2,2,0,0,1-.1.5,3.4,3.4,0,0,1-1.49,1.8c-.78.45-1.41.26-1.33-.7a3.46,3.46,0,0,1,.51-1.46,2.09,2.09,0,0,1,1-.78c.31-.18.7-.52.91-.45S87.56,32.5,87.52,33.05Z"/><path class="cls-9" d="M86.64,31.87a1.47,1.47,0,0,1-.66.63,1.39,1.39,0,0,1,.1-.89,1.8,1.8,0,0,1,.72-.68A1.74,1.74,0,0,1,86.64,31.87Z"/><path class="cls-10" d="M90.39,25.5l-9.25,9.12,1.14,1.43,8-8.08S90.77,26.13,90.39,25.5Z"/><polygon class="cls-11" points="90.06 29.73 83.56 35.98 84.63 36.31 89.72 31.54 90.06 29.73"/><path class="cls-12" d="M69.82,117.43c2.23.64,5,2.29,5.13,6,.19,4-2.6,6.26-4.91,7.29a68.05,68.05,0,0,1-52.53,1.8,8.27,8.27,0,0,1-4-2.57A8.31,8.31,0,0,1,12,123.76c.59-3.37,3.13-4.34,5.22-4.73C34.72,115.76,52.47,112.5,69.82,117.43Z"/><path class="cls-13" d="M35.43,109.54a3.86,3.86,0,0,1-2.17-3.14c-.24-1.53.93-2.93,2.47-3.6,0-.21.08-.43.13-.63a63.23,63.23,0,0,1,4.21-11.8A30.72,30.72,0,0,1,53.16,75.79a12.79,12.79,0,0,1,7-1.85,28.71,28.71,0,0,1,2.45,6.48A17.56,17.56,0,0,1,59.82,95c-3,4.42-7.84,7.95-13,10.95-.52.3-1,.6-1.6.88.54.72,2.45,2.34,3,3.09,1.93,2.89,1.82,3.41,2.63,8.11a13.15,13.15,0,0,0,2.81,1.41c1.43.61,2.72,1.59,2.53,3.16-.24,2-3.06,2.16-4.58,2.2-2.81.07-3.36-.06-4.36-2.41a13.18,13.18,0,0,0-3.08-4.84S37.59,110.27,35.43,109.54Z"/><path class="cls-5" d="M59,78.29a66.77,66.77,0,0,1-2.5,8.87c-1.54,4.34-5.9,6.65-8.68,10.3-2.58,3.39-3.37,8.88-7,11.18,0,0,6.88,10,6.24,11.58,0,0-5.42-6.21-8.59-10l4.75-18Z"/><path class="cls-3" d="M48.92,100.48a.83.83,0,0,1-.48-.88,1.16,1.16,0,0,1,.58-.77,1.3,1.3,0,0,1,.71-.23.76.76,0,0,1,.64.32,1.14,1.14,0,0,1,.08.85.93.93,0,0,1-.22.53.85.85,0,0,1-.41.18A1.39,1.39,0,0,1,48.92,100.48Z"/><path class="cls-14" d="M46.28,99.34a.93.93,0,0,1-1.11-.2,1.3,1.3,0,0,1-.26-1,1.41,1.41,0,0,1,.3-.77.88.88,0,0,1,.73-.34,1.32,1.32,0,0,1,.8.53.78.78,0,0,1,.17,1A1.57,1.57,0,0,1,46.28,99.34Z"/><path class="cls-15" d="M21.89,89.75a28.31,28.31,0,0,0,1.65,4.14c2.39,4.84,6.33,9.13,11.48,8.37a15.22,15.22,0,0,0,7-2.75c2.19-1.64,2.47-3.59,3.81-5.68a49.23,49.23,0,0,1,3.64-5q6.1-7.17,12.19-14.35C63.73,72,67,69.27,68.26,66.29c1-2.36,1.46-5.51,2-8a37,37,0,0,0-1.44-21.55,40.7,40.7,0,0,0-3.25-6.55,57.82,57.82,0,0,0-7.39-9.48c-1.54-1.63-3.75-3.58-6.1-3.79-3.66-.33-3.69,3.07-4,5.74-.11.86-.24,1.71-.38,2.57-.32,1.92-.7,3.84-1.14,5.73-.17.78-.37,1.56-.57,2.33-.6,2.31-1.3,4.61-2.08,6.87l0,.09c-.39,1.12-.77,2.38-1.22,3.61a16.18,16.18,0,0,1-2.12,4.31c-.43.57-.88,1.15-1.35,1.73C38.25,51,37.34,52,36.46,53.1l-.31.35c-1.48,1.74-3.11,3.37-4.78,5-.87.83-1.69,1.64-2.45,2.47-.16.16-.31.33-.45.49l0,0a27.67,27.67,0,0,0-4.07,5.68c-.16.3-.32.61-.47.93-.23.49-.46,1-.67,1.53a35.76,35.76,0,0,0-2.38,10.59c0,.52-.06,1-.06,1.57s0,2.34,0,2.79"/><path class="cls-5" d="M53.6,59.38C47.17,68.57,39.73,77,33.37,86.26A16.19,16.19,0,0,0,30.83,91a7.21,7.21,0,0,0-.21,1.16c2.16,1.26,4.94-.44,6.93-2.08,6.1-5,9.88-5.68,16-10.71,2.14-1.77,6.93-7.55,8.86-9.57,8.42-8.76,9.25-24.7,5.68-35.64.16.5-4.72,1.16-5.1,1.22-1.47.21-4.74-.24-5.8,1-.75.92-.2,3.05-.21,4.19,0,2.31-.14,4.62-.34,6.92C56.28,51.4,55.92,56.16,53.6,59.38Z"/><path class="cls-16" d="M43.08,44.31A16.18,16.18,0,0,1,41,48.62c-.43.57-.88,1.15-1.35,1.73-.88,1.09-1.79,2.17-2.68,3.22-.09.13-.2.24-.3.36a68,68,0,0,1-4.79,5c-.86.83-1.68,1.64-2.44,2.47,4.73-3.38,9-7.24,13.72-10.62,4.54-3.24,5.39-6.63,8.21-11.44,2-3.37,6.61-8,4-10.95A10,10,0,0,0,50,25.56a12.48,12.48,0,0,0-2.35-.36c-.32,1.92-.7,3.84-1.14,5.73-.17.78.11,2-.09,2.81"/><path class="cls-3" d="M45.29,60.25a1.43,1.43,0,0,1-1.58.61,2,2,0,0,1-1.15-1.15,2.25,2.25,0,0,1-.21-1.22,1.29,1.29,0,0,1,.68-1,2,2,0,0,1,1.43.06,1.55,1.55,0,0,1,.82.48,1.41,1.41,0,0,1,.21.73A2.37,2.37,0,0,1,45.29,60.25Z"/><path class="cls-3" d="M42.8,64.38a1.59,1.59,0,0,1-.58,1.8,2.24,2.24,0,0,1-1.81.19,2.45,2.45,0,0,1-1.22-.67,1.48,1.48,0,0,1-.39-1.29,2.2,2.2,0,0,1,1.06-1.21,1.71,1.71,0,0,1,1-.37,1.77,1.77,0,0,1,.78.32A2.7,2.7,0,0,1,42.8,64.38Z"/><path class="cls-3" d="M36,67.42a1.53,1.53,0,0,1,1.23,1.34,2.15,2.15,0,0,1-.7,1.61,2.46,2.46,0,0,1-1.14.7,1.41,1.41,0,0,1-1.27-.29,2.09,2.09,0,0,1-.51-1.46,1.65,1.65,0,0,1,.17-1,1.61,1.61,0,0,1,.64-.51A2.62,2.62,0,0,1,36,67.42Z"/><path class="cls-16" d="M20.3,84.2s5.75,3,6.55,8.15L27,98.26A31,31,0,0,1,20.3,84.2Z"/><path class="cls-17" d="M38.14,73.82c8.22,5.23,13.18,18.25,8.88,27.39-1.94,4.11-5.78,6.93-9.17,10s-6.62,6.93-6.58,11.48a30.25,30.25,0,0,0,.44,3.77l.23.11c1.19.6,2.69,1.56,2.94,3a2.48,2.48,0,0,1-2.26,2.7c-4.13.47-8.29.3-7.06-4.09l.72-2.59q-2-5.89-3.54-11.9c-.46-1.75-.88-3.69,0-5.28.67-1.25,2-2,3-3.06,1.58-1.79,2-4.35,1.85-6.73s-.62-4.75-.53-7.14"/><path class="cls-18" d="M45,31.47l.87,1.06"/><path class="cls-19" d="M67.85,33.11c-.11-.07-.21-.14-.32,0l.22.14Z"/><path class="cls-19" d="M59.36,3.16l.1.1.07,0-.09-.11Z"/><path class="cls-20" d="M67.76,2.36c-.09,0-.19,0-.25.1Z"/><path class="cls-19" d="M43.89,1.93c0-.05.08-.1,0-.17s-.11-.06-.15,0S43.83,1.9,43.89,1.93Z"/><path class="cls-16" d="M56.4,35.4a7,7,0,0,0-4.79,3.52l-1-3.36S54.81,34.68,56.4,35.4Z"/><ellipse class="cls-3" cx="45.51" cy="39.83" rx="3.27" ry="1.74" transform="translate(-3.4 75.4) rotate(-77.22)"/><ellipse class="cls-3" cx="45.86" cy="48.42" rx="2.72" ry="1.45" transform="translate(-15.07 75.52) rotate(-70.53)"/><ellipse class="cls-3" cx="38.83" cy="52.57" rx="2.72" ry="1.45" transform="translate(-25.31 40) rotate(-42.46)"/><ellipse class="cls-3" cx="34.78" cy="60.39" rx="2.83" ry="1.5" transform="translate(-28.87 32.01) rotate(-36.03)"/><ellipse class="cls-3" cx="27.33" cy="64.55" rx="2.61" ry="1.38" transform="translate(-40.67 47.53) rotate(-53)"/><ellipse class="cls-3" cx="25.73" cy="72.06" rx="2.61" ry="1.38" transform="translate(-48.97 55.49) rotate(-57.84)"/><ellipse class="cls-3" cx="22.11" cy="79.88" rx="2.31" ry="1.22" transform="translate(-60.42 87.49) rotate(-79.79)"/><path class="cls-3" d="M39,79.45a1.42,1.42,0,0,1-1.51.78,2,2,0,0,1-1.26-1,2.25,2.25,0,0,1-.34-1.2A1.29,1.29,0,0,1,36.43,77a1.9,1.9,0,0,1,1.43-.09,1.52,1.52,0,0,1,.86.39A1.5,1.5,0,0,1,39,78,2.4,2.4,0,0,1,39,79.45Z"/><path class="cls-3" d="M36.92,83.83a1.58,1.58,0,0,1-.38,1.85,2.23,2.23,0,0,1-1.78.38,2.49,2.49,0,0,1-1.28-.54A1.46,1.46,0,0,1,33,84.28,2.18,2.18,0,0,1,33.88,83a1.78,1.78,0,0,1,.95-.47,1.73,1.73,0,0,1,.82.24A2.63,2.63,0,0,1,36.92,83.83Z"/><path class="cls-3" d="M30.43,87.57a1.53,1.53,0,0,1,1.37,1.21,2.16,2.16,0,0,1-.52,1.67,2.42,2.42,0,0,1-1.06.82,1.42,1.42,0,0,1-1.3-.16,2.1,2.1,0,0,1-.66-1.39,1.64,1.64,0,0,1,.06-1,1.79,1.79,0,0,1,.59-.57A2.59,2.59,0,0,1,30.43,87.57Z"/><path class="cls-3" d="M43.48,87a1.41,1.41,0,0,1-1.66.34A2,2,0,0,1,40.88,86a2.18,2.18,0,0,1,0-1.24,1.31,1.31,0,0,1,.84-.87,2,2,0,0,1,1.4.29,1.2,1.2,0,0,1,.82,1.37A2.36,2.36,0,0,1,43.48,87Z"/><path class="cls-3" d="M40.34,90.62a1.58,1.58,0,0,1-.87,1.68,2.23,2.23,0,0,1-1.82-.11,2.42,2.42,0,0,1-1.08-.86A1.44,1.44,0,0,1,36.4,90a2.15,2.15,0,0,1,1.24-1,1.31,1.31,0,0,1,1.76.25A2.72,2.72,0,0,1,40.34,90.62Z"/><path class="cls-3" d="M33.08,92.49a1.51,1.51,0,0,1,1,1.52,2.12,2.12,0,0,1-1,1.47,2.39,2.39,0,0,1-1.24.51,1.45,1.45,0,0,1-1.21-.5A2.15,2.15,0,0,1,30.41,94a1.69,1.69,0,0,1,.33-1,1.65,1.65,0,0,1,.72-.4A2.58,2.58,0,0,1,33.08,92.49Z"/><path class="cls-3" d="M59.11,84.81a1.11,1.11,0,0,1-.9-1,1.55,1.55,0,0,1,.5-1.16,1.68,1.68,0,0,1,.82-.51,1,1,0,0,1,.92.2,1.5,1.5,0,0,1,.37,1,1.14,1.14,0,0,1-.12.73,1.05,1.05,0,0,1-.46.37A1.85,1.85,0,0,1,59.11,84.81Z"/><path class="cls-3" d="M57.87,90.25a1.11,1.11,0,0,1-.72-1.1,1.58,1.58,0,0,1,.69-1.07,1.77,1.77,0,0,1,.9-.36,1,1,0,0,1,.87.36,1.54,1.54,0,0,1,.19,1.1,1.21,1.21,0,0,1-.24.7,1.15,1.15,0,0,1-.52.28A1.82,1.82,0,0,1,57.87,90.25Z"/><path class="cls-3" d="M53.67,96.44A1.12,1.12,0,0,1,53,95.29a1.56,1.56,0,0,1,.77-1,1.8,1.8,0,0,1,.92-.3,1,1,0,0,1,.84.43,1.5,1.5,0,0,1,.11,1.11,1.3,1.3,0,0,1-.29.68,1.32,1.32,0,0,1-.54.24A1.8,1.8,0,0,1,53.67,96.44Z"/><path class="cls-3" d="M44.22,96.22a1.23,1.23,0,0,1-1.47-.13,1.74,1.74,0,0,1-.46-1.35,1.91,1.91,0,0,1,.3-1,1.17,1.17,0,0,1,.92-.52,1.76,1.76,0,0,1,1.11.6,1.39,1.39,0,0,1,.45.7,1.46,1.46,0,0,1-.11.65A2.16,2.16,0,0,1,44.22,96.22Z"/><path class="cls-3" d="M40.66,98.5a1.38,1.38,0,0,1-1.15,1.19,2,2,0,0,1-1.5-.55,2.18,2.18,0,0,1-.69-1,1.24,1.24,0,0,1,.2-1.16,1.87,1.87,0,0,1,1.29-.54,1.47,1.47,0,0,1,.93.1,1.45,1.45,0,0,1,.49.55A2.34,2.34,0,0,1,40.66,98.5Z"/><path class="cls-3" d="M34.1,98.24a1.32,1.32,0,0,1,.45,1.53,1.87,1.87,0,0,1-1.17,1,2.13,2.13,0,0,1-1.17.11,1.24,1.24,0,0,1-.88-.72,1.88,1.88,0,0,1,.16-1.35,1.51,1.51,0,0,1,.53-.73,1.38,1.38,0,0,1,.7-.14A2.13,2.13,0,0,1,34.1,98.24Z"/><path class="cls-3" d="M42.31,104.66a1.23,1.23,0,0,1-1.36-.54,1.73,1.73,0,0,1-.05-1.41,1.93,1.93,0,0,1,.58-.9,1.15,1.15,0,0,1,1-.24,1.75,1.75,0,0,1,.88.88,1.45,1.45,0,0,1,.23.79,1.36,1.36,0,0,1-.29.59A2,2,0,0,1,42.31,104.66Z"/><path class="cls-3" d="M38.3,105.83a1.38,1.38,0,0,1-1.43.8,1.92,1.92,0,0,1-1.27-.94,2.16,2.16,0,0,1-.38-1.14,1.28,1.28,0,0,1,.52-1.06,1.92,1.92,0,0,1,1.38-.14,1.14,1.14,0,0,1,1.16,1A2.28,2.28,0,0,1,38.3,105.83Z"/><path class="cls-3" d="M32.15,103.73a1.34,1.34,0,0,1,0,1.58,1.88,1.88,0,0,1-1.39.62,2.13,2.13,0,0,1-1.14-.23,1.22,1.22,0,0,1-.64-.93,1.85,1.85,0,0,1,.54-1.23,1.5,1.5,0,0,1,.7-.55,1.58,1.58,0,0,1,.71.06A2.28,2.28,0,0,1,32.15,103.73Z"/><path class="cls-3" d="M33.6,110.94a1.38,1.38,0,0,1-1.43.8,1.94,1.94,0,0,1-1.27-.94,2.12,2.12,0,0,1-.37-1.14,1.24,1.24,0,0,1,.51-1,1.87,1.87,0,0,1,1.38-.15,1.14,1.14,0,0,1,1.16,1A2.28,2.28,0,0,1,33.6,110.94Z"/><path class="cls-3" d="M27.45,108.85a1.32,1.32,0,0,1,0,1.58,1.87,1.87,0,0,1-1.39.61,2.06,2.06,0,0,1-1.14-.23,1.21,1.21,0,0,1-.63-.93,1.81,1.81,0,0,1,.53-1.23,1.12,1.12,0,0,1,1.41-.49A2.29,2.29,0,0,1,27.45,108.85Z"/><path class="cls-3" d="M29.62,116.46a.89.89,0,0,1-.47-.95,1.26,1.26,0,0,1,.65-.78,1.34,1.34,0,0,1,.75-.2.78.78,0,0,1,.66.37,1.19,1.19,0,0,1,.05.89,1,1,0,0,1-.26.54,1.08,1.08,0,0,1-.44.18A1.51,1.51,0,0,1,29.62,116.46Z"/><path class="cls-3" d="M25.49,116.89a.87.87,0,0,1-.47-1,1.26,1.26,0,0,1,.65-.78,1.34,1.34,0,0,1,.75-.2.79.79,0,0,1,.66.37,1.23,1.23,0,0,1,.05.89,1,1,0,0,1-.26.54,1.14,1.14,0,0,1-.44.18A1.5,1.5,0,0,1,25.49,116.89Z"/><path class="cls-3" d="M32.46,76.87a1.2,1.2,0,0,1-1.29.6,1.71,1.71,0,0,1-1-.9,1.81,1.81,0,0,1-.25-1,1.06,1.06,0,0,1,.51-.87,1.7,1.7,0,0,1,1.2,0,1.32,1.32,0,0,1,.71.37,1.12,1.12,0,0,1,.22.59A2,2,0,0,1,32.46,76.87Z"/><path class="cls-3" d="M30.61,80.46A1.33,1.33,0,0,1,30.23,82a1.85,1.85,0,0,1-1.5.27,2.08,2.08,0,0,1-1.06-.49,1.27,1.27,0,0,1-.4-1.06,1.82,1.82,0,0,1,.82-1.07,1.37,1.37,0,0,1,.81-.37,1.48,1.48,0,0,1,.67.22A2.37,2.37,0,0,1,30.61,80.46Z"/><path class="cls-3" d="M25.05,83.4a1.27,1.27,0,0,1,1.11,1,1.79,1.79,0,0,1-.49,1.39,2,2,0,0,1-.91.64,1.15,1.15,0,0,1-1.08-.17,1.74,1.74,0,0,1-.51-1.19,1.36,1.36,0,0,1,.08-.85,1.34,1.34,0,0,1,.51-.46A2.11,2.11,0,0,1,25.05,83.4Z"/><path class="cls-21" d="M55.39,36.78a43.91,43.91,0,0,1,3.8,4.36,35.69,35.69,0,0,1,4.05,6.28c.48.94,4.6,7.47,4.36,7.91.19-.33.37-.66.56-1l4.58-7.93c2.82-4.88,4.88-10.38,10.83-9.16,0,0,2.5.71,1.45,4.37a5.6,5.6,0,0,1-2.82,2.29A3,3,0,0,0,80,45.67q-2.08,9-4.18,18c-.57,2.44-1.78,6.08-4.24,6.46-2,.3-3.88-.7-5.63-1.74-2.07-1.22-4.17-2.84-6.24-4.23-2.23-1.49-4.62-2.36-6.9-3.69"/><path class="cls-3" d="M60.09,46.21a1.22,1.22,0,0,1-.78,1.16,1.39,1.39,0,0,1-1.2-.34,1.93,1.93,0,0,1-.61-.82,1.28,1.28,0,0,1,.06-1.05,1.44,1.44,0,0,1,.95-.6,1,1,0,0,1,.72,0,1.19,1.19,0,0,1,.42.44A2.25,2.25,0,0,1,60.09,46.21Z"/><path class="cls-3" d="M60.07,50.41A1.52,1.52,0,0,1,60.39,52a1.73,1.73,0,0,1-1.1.95,1.64,1.64,0,0,1-1,0,1.17,1.17,0,0,1-.75-.79,2.19,2.19,0,0,1,.22-1.37,1.42,1.42,0,0,1,.51-.72,1.13,1.13,0,0,1,.63-.11A1.85,1.85,0,0,1,60.07,50.41Z"/><path class="cls-3" d="M56.8,55.73a1.07,1.07,0,0,1,1.32.46,2.06,2.06,0,0,1,.17,1.51,2.17,2.17,0,0,1-.47,1,1,1,0,0,1-.94.35,1.66,1.66,0,0,1-.89-.86,1.57,1.57,0,0,1-.29-.83,1.77,1.77,0,0,1,.22-.67A2.19,2.19,0,0,1,56.8,55.73Z"/><path class="cls-3" d="M65.05,53.9a.82.82,0,0,1-.76.66,1.15,1.15,0,0,1-.81-.51,1.58,1.58,0,0,1-.3-.73.9.9,0,0,1,.21-.75,1,1,0,0,1,.79-.22.8.8,0,0,1,.52.16,1,1,0,0,1,.23.42A1.71,1.71,0,0,1,65.05,53.9Z"/><path class="cls-3" d="M64.33,56.93a1.18,1.18,0,0,1,0,1.24,1.2,1.2,0,0,1-1,.44,1.25,1.25,0,0,1-.77-.21,1,1,0,0,1-.41-.74,1.55,1.55,0,0,1,.39-.94,1,1,0,0,1,.49-.41.84.84,0,0,1,.47.06A1.51,1.51,0,0,1,64.33,56.93Z"/><path class="cls-3" d="M61.07,60.06a.86.86,0,0,1,.88.62,1.78,1.78,0,0,1-.64,1.78.71.71,0,0,1-.74,0,1.4,1.4,0,0,1-.51-.82A1.28,1.28,0,0,1,60,61a1.08,1.08,0,0,1,.27-.43A1.47,1.47,0,0,1,61.07,60.06Z"/><path class="cls-3" d="M68.74,58.3a.75.75,0,0,1-.68.59,1,1,0,0,1-.72-.46,1.5,1.5,0,0,1-.27-.65.81.81,0,0,1,.19-.66.89.89,0,0,1,.7-.19.63.63,0,0,1,.46.14.9.9,0,0,1,.21.37A1.58,1.58,0,0,1,68.74,58.3Z"/><path class="cls-3" d="M68.1,61a1,1,0,0,1,0,1.1,1.07,1.07,0,0,1-.84.39,1.09,1.09,0,0,1-.68-.18.85.85,0,0,1-.37-.66,1.37,1.37,0,0,1,.34-.84.85.85,0,0,1,.44-.36.68.68,0,0,1,.42.05A1.38,1.38,0,0,1,68.1,61Z"/><path class="cls-3" d="M65.2,63.77a.76.76,0,0,1,.78.55,1.42,1.42,0,0,1-.11,1,1.37,1.37,0,0,1-.46.57.66.66,0,0,1-.65,0,1.25,1.25,0,0,1-.45-.74,1.08,1.08,0,0,1-.06-.59,1,1,0,0,1,.24-.38A1.24,1.24,0,0,1,65.2,63.77Z"/><path class="cls-3" d="M72.38,55.7a1,1,0,0,1-.56.95,1.07,1.07,0,0,1-.95-.19,1.53,1.53,0,0,1-.52-.6,1,1,0,0,1,0-.82,1.15,1.15,0,0,1,.71-.53.78.78,0,0,1,.56,0,.82.82,0,0,1,.35.32A1.69,1.69,0,0,1,72.38,55.7Z"/><path class="cls-3" d="M74.67,59.36a1,1,0,0,1-.55,1,1.07,1.07,0,0,1-1-.2,1.42,1.42,0,0,1-.52-.59,1,1,0,0,1,0-.83,1.19,1.19,0,0,1,.72-.52.78.78,0,0,1,.56,0,1,1,0,0,1,.35.32A1.68,1.68,0,0,1,74.67,59.36Z"/><path class="cls-3" d="M71.45,61a1.14,1.14,0,0,1,.33,1.22A1.42,1.42,0,0,1,71,63a1.34,1.34,0,0,1-.81.1.9.9,0,0,1-.63-.57,1.69,1.69,0,0,1,.1-1.08,1.23,1.23,0,0,1,.36-.59.83.83,0,0,1,.49-.12A1.36,1.36,0,0,1,71.45,61Z"/><path class="cls-3" d="M70.76,65.09a.91.91,0,0,1,1.17.29,1.86,1.86,0,0,1,.23,1.3,2.1,2.1,0,0,1-.35.93A.88.88,0,0,1,71,68a1.42,1.42,0,0,1-.82-.68,1.4,1.4,0,0,1-.29-.7,1.32,1.32,0,0,1,.15-.59A1.9,1.9,0,0,1,70.76,65.09Z"/><path class="cls-5" d="M71.53,24.4a7.45,7.45,0,0,1-.63,2.67l1-.73a4.92,4.92,0,0,0,.55-2.84Z"/><path class="cls-20" d="M72.55,25.13s0,2-1.06,2.44a3.4,3.4,0,0,1-1.61.4s-.47.08.55-.81a4.09,4.09,0,0,0,1.1-1.55S72.47,24.24,72.55,25.13Z"/><path class="cls-20" d="M73,21.94s.3,1.95-1,2.63a5.47,5.47,0,0,1-2,.72s-.6.18.59-.91a4.45,4.45,0,0,0,1.18-1.75S72.73,21.07,73,21.94Z"/><polygon class="cls-22" points="47.97 5.47 55.04 10.27 59.71 19.57 61.05 29.14 57.76 37.15 45.98 34.47 38.24 28.28 37.35 18.52 47.97 5.47"/><path class="cls-23" d="M47.91,7.54,41.12,1.37a3.12,3.12,0,0,0-4.06-.27C35.59,2.16,35,4,34.58,5.72a19.47,19.47,0,0,0-.43,7.41,17.59,17.59,0,0,0,1.25,4.31c.45,1.09,1,3.21,2,3.93"/><path class="cls-23" d="M67,2.84a5.16,5.16,0,0,1,3.28-.73c3.33.8,2.71,7.05,2.29,9.61-.17,1.07-.91,2.27-.72,3.38l-6.39-4.41-1.83-3.5c-.35-.68,1.79-3.22,2.28-3.63A5.89,5.89,0,0,1,67,2.84Z"/><path class="cls-23" d="M46.38,34.31C44,33.14,41.57,32,39.91,29.89A15.16,15.16,0,0,1,37.67,26c-.29-.76-.39-3.6,1.11-7.44"/><path class="cls-23" d="M57.31,37a20.37,20.37,0,0,0,7.63-1,12.64,12.64,0,0,0,1.23-.48,9.6,9.6,0,0,0,5.39-4.83c1.17-2,2.17-4.5,1.86-6.89-.18-1.4-1-2.62-1-4.06-.09-4.52-1.18-5.88-2.36-7.45a13.44,13.44,0,0,0-1.79-2.11,11.68,11.68,0,0,0-3.21-2.26C57.78,2.18,48.13,5.67,48.13,5.67"/><path class="cls-5" d="M38.15,23.21c1.35-1.06,2.68-.1,3.62,1s1.1,2.12,1.79,3.4C45,30.29,49,32.36,51.9,32.73a3.31,3.31,0,0,0,2.3-.56c1.17-.7,1-2.5,1.2-3.66a6.06,6.06,0,0,1,1.93-3.34s3.2-3.22,8.93-1.33c0,0,4.22,2,2.79,5.26,0,0-1.68,3.19-3.26,3.54-1,.22-2,.5-2.92.7a6.47,6.47,0,0,0,1.88.91c-1.08-.25-2.45,1.08-2.45,1.08-11.82,2.19-22.47-5.94-22.47-5.94C36.25,24.26,38.15,23.21,38.15,23.21Z"/><path class="cls-20" d="M45.85,24.56l-.11-.11C45.7,24.56,45.79,24.54,45.85,24.56Z"/><path class="cls-19" d="M60.6,24.4c.12,0,.1-.06.12-.12Z"/><path class="cls-5" d="M47.59,5.71a15,15,0,0,0-3.5-3,4.57,4.57,0,0,0,1.42,3.13A1.34,1.34,0,0,0,47.59,5.71Z"/><path class="cls-20" d="M66.26,23.84l-.17-.14Z"/><path class="cls-20" d="M66.7,17.14l-.06.17h0c.12.09.11,0,.14-.09A.46.46,0,0,0,66.7,17.14Z"/><path class="cls-22" d="M65.83,4.77l-.06.15A.1.1,0,0,0,65.83,4.77Z"/><path class="cls-24" d="M66.24,18.84c-.9,1.63.82,3.87,2.14,4.09a1.45,1.45,0,0,0,1.52-.67,4.55,4.55,0,0,0,.61-3.2l-.14,0c0,.19,0,.38-.05.57a3.56,3.56,0,0,1-.63,1.9,1.38,1.38,0,0,1-2.17.28,3.49,3.49,0,0,1-1.19-2.12C66.29,19.4,66.27,19.13,66.24,18.84Z"/><path class="cls-5" d="M66.77,17.21c0,.06,0,.18-.14.09a1.45,1.45,0,0,0,.73,1.64A.68.68,0,0,0,68,19c.24-.12.22-.39.19-.62a4.4,4.4,0,0,0-.13-.74C67.82,16.82,67.44,16.69,66.77,17.21Z"/><path class="cls-5" d="M59.25,21.7a26.36,26.36,0,0,0-1.55-3.1,6.13,6.13,0,0,0-9.22-.67c-.53.56-2.08.9-1,1.91.71.64,1.08,2.27,1.75,3.11a4.93,4.93,0,0,0,3,1.83,7.51,7.51,0,0,0,7.12-1.69A1.26,1.26,0,0,0,59.25,21.7Z"/><path class="cls-20" d="M53.55,24.23a8.1,8.1,0,0,0,4.24-1.07,1.12,1.12,0,0,0,.61-1.32,7.42,7.42,0,0,0-3.14-4.75,4.35,4.35,0,0,0-3.81-.1,6,6,0,0,0-1.81,1,3.81,3.81,0,0,1-1.44.81c-.22,0-.24.12-.15.3a12.14,12.14,0,0,0,2.66,4A4.31,4.31,0,0,0,53.55,24.23Z"/><path class="cls-25" d="M52.23,17.75a4.29,4.29,0,0,1,3,.38c2.16,1.36,2.39,4.64-.34,5.38s-5.8-2-4.45-4.84A6.87,6.87,0,0,1,52.23,17.75Z"/><path class="cls-20" d="M53,20.47a1.31,1.31,0,0,0,1.41-1.2,1.23,1.23,0,0,0-.13-.66,2.52,2.52,0,0,1,3,2.79,2.56,2.56,0,0,1-2.74,2.38,2.6,2.6,0,0,1-2.3-2.84,2.44,2.44,0,0,1,.15-.66A1.38,1.38,0,0,0,53,20.47Z"/><path class="cls-5" d="M64.3,20.47a26.11,26.11,0,0,1,1-2.64c1.37-2.47,4-3,5.54-.84.32.46,1.25.7.59,1.58-.43.56-.67,1.93-1.08,2.66a3.21,3.21,0,0,1-1.82,1.62,3.47,3.47,0,0,1-4.26-1.21A1.4,1.4,0,0,1,64.3,20.47Z"/><path class="cls-20" d="M67.61,22.6a3.69,3.69,0,0,1-2.56-.78,1,1,0,0,1-.35-1.09,7.17,7.17,0,0,1,1.93-4.1,2,2,0,0,1,2.31-.2,3.2,3.2,0,0,1,1.08.78,2,2,0,0,0,.87.64c.13,0,.14.09.09.25a12.07,12.07,0,0,1-1.64,3.49A2.48,2.48,0,0,1,67.61,22.6Z"/><path class="cls-25" d="M68.46,17.1a2,2,0,0,0-1.83.41c-1.32,1.21-1.48,4,.17,4.53s3.52-1.9,2.72-4.22C69.52,17.82,68.79,17.13,68.46,17.1Z"/><path class="cls-20" d="M66.82,19.9a1,1,0,0,0,.73-1.13,1.12,1.12,0,0,0-.19-.46,1.36,1.36,0,0,1,.48-.16,1.84,1.84,0,0,1,2,1.69,1.9,1.9,0,0,1-1.42,2.23,1.86,1.86,0,0,1-2-1.7,2.18,2.18,0,0,1,0-.51A.8.8,0,0,0,66.82,19.9Z"/><path class="cls-26" d="M39.43,3.64a5.52,5.52,0,0,0-.42-.8c-.74-1-2.26-1.53-3.08-.18,0,0-3.06,5.06-.93,13.14l1.09,2.65,1.18,2.6s3.14-8.4,5.69-10.72c.58-.53.31-1.09-.17-1.54A31.94,31.94,0,0,1,39.43,3.64Z"/><path class="cls-27" d="M53.11,8.27h0s1.28.27,1.44.35a4,4,0,0,1,1.38,1.15,8.66,8.66,0,0,1,1.67,3.05s2.8,9.73.79,8.4l-1.77-3.08c-.76-1.39-1-3.5-1.58-5.06A42.5,42.5,0,0,0,53.11,8.27Z"/><path class="cls-20" d="M59.54,20.93c.24-.19.18-.48.17-.71A41.67,41.67,0,0,0,57.85,9.94a21.71,21.71,0,0,0-2.3-4.72,1.46,1.46,0,0,0-1.21-.85c-.17,0-.4.24-.57.22-.33,0-.77-.17-.94.27s.16.41.42.63A12.94,12.94,0,0,1,57,11.77a44.78,44.78,0,0,1,1.76,7.51A2.32,2.32,0,0,0,59.54,20.93Z"/><path class="cls-28" d="M48,5.47a11,11,0,0,1,2.62-.17c.67,0,2,2.05,2.3,2.51A27.78,27.78,0,0,1,56,13.71c.07.16,1.54,4.07.44,3.7a.85.85,0,0,1-.47-.65,13.85,13.85,0,0,0-2.78-5.55c-1-1.2-4-3.66-5.72-3.59,0,0-1.09.39-3.14-1.93,0,0-2.52-2.92-3.5-4A4,4,0,0,0,37.73.59s1.76-1,4.39.75a30.21,30.21,0,0,1,4.29,3.07S47.59,5.8,48,5.47Z"/><path class="cls-5" d="M46.19,4.21A3.89,3.89,0,0,1,44.52,4a4.67,4.67,0,0,1-1.6-.89c-.18-.19-.4-.29-.39-.59,0-.12.29-.7.44-.6A36.59,36.59,0,0,1,46.19,4.21Z"/><path class="cls-29" d="M64.28,18.88s.31,1.51,0,1.89l1.54-3.28s-1.09.72-1.73-1.95c0,0-.64-6.41-3-5.88C61.17,9.66,62.65,16.27,64.28,18.88Z"/><path class="cls-20" d="M64.26,19.82c.3-.31.13-.64,0-.94-.41-1.12-.92-2.19-1.3-3.32a38.19,38.19,0,0,1-2-8.24c-.05-.54-.08-1.08-.09-1.61a.45.45,0,0,0-.34-.48L59.47,5a.69.69,0,0,0-.63.17A8.23,8.23,0,0,0,59.36,7c.38,1.75.89,3.46,1.4,5.17a31.8,31.8,0,0,0,2.05,5l1.11,2.23A1.26,1.26,0,0,0,64.26,19.82Z"/><path class="cls-20" d="M69.37,1.93a6.94,6.94,0,0,0-3.55,1.58c-.93.71-1.4,1.72-2.24,2.48a5.43,5.43,0,0,0-.73.48C61.75,9.3,64.5,17.1,64.5,17.1c.71,1.25.35-.76.35-.76a30.28,30.28,0,0,0-.67-4.21C64.06,9,65,5.5,67.65,3.77c.67-.43,4.15-1.9,4.33-.06C72,3.71,71.81,2,69.37,1.93Z"/><path class="cls-5" d="M64.26,19.82a10.13,10.13,0,0,0-.17,3.7l.78.07-.28-2.3S64.94,19.5,64.26,19.82Z"/><path class="cls-5" d="M64.69,22s0,1.71,1.16,2.14l-1.46-.46Z"/><path class="cls-5" d="M58.89,20.59a.32.32,0,0,1,.27.16c.41.6,1.94,3,1,3.54,0,0-.25.47-1-.62l-.53-2.4S58.32,20.58,58.89,20.59Z"/><path class="cls-5" d="M59.1,23a2.45,2.45,0,0,1-.39,1.84l1.46-.54Z"/><path class="cls-22" d="M71.39,13.43s-.72-.8-.81.25c0,0-2.63-1.46-2.92-1.73S64.57,8.5,64.57,8.5l.61-1.66,3,.44,2.4,5.1Z"/><path class="cls-26" d="M72.36,5c-.34-1.75-2.77-.12-3.46.42A7.8,7.8,0,0,0,67.44,7c-.58.84-.74,1.25-.06,2.06.51.61,1.1,1.16,1.63,1.75.74.82,2.42,2.21,2.58,3.4A16.73,16.73,0,0,0,72.36,5Z"/><path class="cls-5" d="M39,28.65l.07.08A.27.27,0,0,0,39,28.65Z"/><path class="cls-22" d="M39.76,29.76c0,.08,0,.13.1.14A.12.12,0,0,0,39.76,29.76Z"/><path class="cls-3" d="M38.23,21.92c1.91-2.4,6,3.61,6.76,4.87,0,0,.33.54-.09.36,0,0-4.07-4.08-6-3.68,0,0-1.52.77-1.59,1.07A7,7,0,0,1,38.23,21.92Z"/><path class="cls-3" d="M38,25.84s2.08-1,4.79,1.31a28.55,28.55,0,0,0,3.74,2.37c.28.16,3,1.34,1.66,1.76a41.53,41.53,0,0,1-5.8-2c-.22-.1-2.67-1.11-3.31-.69A6.83,6.83,0,0,1,38,25.84Z"/><path class="cls-3" d="M63.89,27.57a2,2,0,0,1,.5,1.7"/><path class="cls-3" d="M63.89,27.57a1.08,1.08,0,0,1,.69.72,1,1,0,0,1-.19,1c-.07-.17-.1-.31-.15-.44l-.13-.39A5,5,0,0,1,63.89,27.57Z"/><path class="cls-3" d="M61.27,28.27c0,.16-.37.23-.52.24a.29.29,0,0,1-.32-.27.3.3,0,0,1,.27-.32C60.85,27.91,61.26,28.1,61.27,28.27Z"/><path class="cls-3" d="M60.05,29c0,.17-.37.24-.53.25a.28.28,0,0,1-.31-.27.29.29,0,0,1,.26-.32C59.63,28.61,60,28.81,60.05,29Z"/><path class="cls-3" d="M61.26,29.66c0,.17-.37.23-.53.25a.3.3,0,0,1-.31-.27.29.29,0,0,1,.26-.32C60.84,29.3,61.25,29.5,61.26,29.66Z"/><path class="cls-3" d="M66,28c0,.12.27.17.38.18a.21.21,0,0,0,.23-.19.22.22,0,0,0-.19-.24C66.26,27.69,66,27.84,66,28Z"/><path class="cls-3" d="M66.84,28.47c0,.12.27.17.38.18a.21.21,0,0,0,.23-.2.21.21,0,0,0-.19-.23C67.15,28.21,66.85,28.35,66.84,28.47Z"/><path class="cls-3" d="M66,29c0,.12.27.17.38.18a.22.22,0,0,0,0-.43C66.26,28.71,66,28.85,66,29Z"/><path class="cls-30" d="M62.15,24.47a2.13,2.13,0,0,0-1.37,1.05.61.61,0,0,0,.13.51,3.59,3.59,0,0,0,.25.33,3.08,3.08,0,0,0,2.48,1.09,1.71,1.71,0,0,0,1.15-.94c.24-.45.66-1.3.43-1.84-.12-.28-1-1-1.25-.62A3.79,3.79,0,0,1,62.15,24.47Z"/><path class="cls-31" d="M61.16,26.36s1.17-.59,1.73,1.06"/><path class="cls-31" d="M65.12,25.18s-.94.27-.41,1.45"/><path class="cls-5" d="M72.29,28.9s-2.2,1.76-3.11,1.35c0,0-1.23-.27-.16-1.8l-3.23,4.19-3.55-.25-.85,2.53.91.41s2.09-.46,3-.7C68.78,33.78,70.32,32.64,72.29,28.9Z"/><path class="cls-3" d="M60.94,23.77c.15,0,.13-.41.11-.57a.28.28,0,0,0-.32-.25.29.29,0,0,0-.24.33C60.51,23.44,60.78,23.79,60.94,23.77Z"/><path class="cls-3" d="M64.06,23.35c.16,0,.14-.41.12-.57a.29.29,0,0,0-.32-.25.28.28,0,0,0-.24.33C63.64,23,63.91,23.38,64.06,23.35Z"/><path class="cls-5" d="M67,2.84a3.22,3.22,0,0,1-2.39,2S66,2.82,67,2.84Z"/><path class="cls-16" d="M51.15,36.83l.28-.08a10.94,10.94,0,0,1,5.68-.22s6.88.7,12-3.28A26.22,26.22,0,0,1,52.33,35S44,32.68,40.81,30.21a35,35,0,0,0,5.69,3.66s1.12.59-.4,1.09c.24-.08,2,1.33,2.36,1.5A3.67,3.67,0,0,0,51.15,36.83Z"/><ellipse class="cls-32" cx="53.78" cy="19.8" rx="0.98" ry="0.96"/><ellipse class="cls-32" cx="67.03" cy="19.16" rx="0.8" ry="0.78"/><path class="cls-33" d="M58.89,30.15a5.21,5.21,0,0,0,5.5-.25,3.55,3.55,0,0,0,3.33-.25,2.54,2.54,0,0,1-2.66,1.08,2.07,2.07,0,0,0-1.42.25A3.65,3.65,0,0,1,58.89,30.15Z"/><path class="cls-34" d="M83.72,26.94l19.75-13s7,12.25-.87,28l-19-12.5S82.47,28.82,83.72,26.94Z"/></g></g></svg>