<svg xmlns="http://www.w3.org/2000/svg" viewBox="0 0 46.06 57.11"><defs><style>.cls-1{fill:#7bb52d;}.cls-2,.cls-5{fill:#4d3224;}.cls-3,.cls-4{fill:#6fa329;}.cls-11,.cls-3,.cls-4,.cls-5{stroke:#4d3224;}.cls-3{stroke-miterlimit:10;}.cls-11,.cls-3,.cls-4{stroke-width:0.79px;}.cls-11,.cls-4,.cls-5{stroke-linecap:round;stroke-linejoin:round;}.cls-5{stroke-width:0.4px;}.cls-6{fill:#82c431;}.cls-7{fill:#f5e69a;}.cls-8{fill:#ededed;}.cls-9{fill:#f4e7df;}.cls-10{fill:#675b5a;}.cls-11{fill:none;}.cls-12{fill:#342a2b;opacity:0.18;}</style></defs><title>works-bird</title><g id="圖層_2" data-name="圖層 2"><g id="作品"><path class="cls-1" d="M4.11-75.06A23.24,23.24,0,0,0,12.64-56.6s6.54,5.42,19.54,5.09L26.53-79l-2.38-8.54L13.43-83S4.11-78.44,4.11-75.06Z" transform="translate(0 100)"/><path class="cls-2" d="M22.28-46.33a1.85,1.85,0,0,0-.64,0,.39.39,0,0,1-.49-.26.41.41,0,0,1,.26-.5,4.57,4.57,0,0,1,2.23.15V-52.2a.4.4,0,0,1,.4-.4.39.39,0,0,1,.39.4v5.86A1.81,1.81,0,0,1,24.92-44a.38.38,0,0,1-.35.23.33.33,0,0,1-.17,0,.38.38,0,0,1-.19-.52,1,1,0,0,0-.15-1.22A6.29,6.29,0,0,0,23-43.18a.41.41,0,0,1-.39.29l-.1,0a.4.4,0,0,1-.28-.49,8,8,0,0,1,1.07-2.47,3.15,3.15,0,0,0-2.41,2.58.4.4,0,0,1-.39.33h-.06a.39.39,0,0,1-.33-.45A3.78,3.78,0,0,1,22.28-46.33Z" transform="translate(0 100)"/><path class="cls-2" d="M15.35-46.6a1.84,1.84,0,0,0-.64.06.4.4,0,0,1-.49-.26.39.39,0,0,1,.26-.5,4.45,4.45,0,0,1,2.23.15v-5.32a.39.39,0,0,1,.4-.39.39.39,0,0,1,.39.39v5.87A1.8,1.8,0,0,1,18-44.31a.41.41,0,0,1-.36.23.59.59,0,0,1-.17,0,.39.39,0,0,1-.18-.53,1,1,0,0,0-.15-1.22A6.33,6.33,0,0,0,16-43.45a.38.38,0,0,1-.38.29h-.1a.4.4,0,0,1-.28-.49,8.19,8.19,0,0,1,1.06-2.47,3.18,3.18,0,0,0-2.4,2.57.39.39,0,0,1-.39.33h-.06a.39.39,0,0,1-.33-.45A3.78,3.78,0,0,1,15.35-46.6Z" transform="translate(0 100)"/><path class="cls-3" d="M15.7-54.84a3.31,3.31,0,0,0,.49,3.54,2,2,0,0,0,2.94-.1,3,3,0,0,0,.64-2.44A8.42,8.42,0,0,1,15.7-54.84Z" transform="translate(0 100)"/><path class="cls-3" d="M22.31-53.85a3.27,3.27,0,0,0,.49,3.54,2,2,0,0,0,2.93-.1,3,3,0,0,0,.65-2.44A8.37,8.37,0,0,1,22.31-53.85Z" transform="translate(0 100)"/><path class="cls-1" d="M4.11-75.06c.19-1.58-.12-5.67.09-7.24s-.42-2.33.12-3.89a24.15,24.15,0,0,1,1.77-3.38c.68-1.27.46-3.4,1-4.7a9,9,0,0,1,1.8-2.33,2.48,2.48,0,0,0,.22-1.82,3.59,3.59,0,0,1,.68.54A3.85,3.85,0,0,0,10-99.6a3.07,3.07,0,0,1,1,1.55l.36-.19a9.6,9.6,0,0,1,7-.75,11.46,11.46,0,0,1,7.12,6.2s1.27,4.29,1,6.81" transform="translate(0 100)"/><path class="cls-1" d="M32.18-51.51a42.67,42.67,0,0,1-12.82-1.25l-3.83-1.49" transform="translate(0 100)"/><path class="cls-4" d="M45.33-48.94a20,20,0,0,0-3.67-4.29L35.6-59.1a33.92,33.92,0,0,1-5.43,4.38l4.53,8.86a4.65,4.65,0,0,0,2,2.35,1.39,1.39,0,0,0,1.21,0,.8.8,0,0,0,.35-1.07c.21.53,1.17,1.18,1.63.85.83-.61.37-1.42,0-1.84a3.93,3.93,0,0,0,1.17.82,1,1,0,0,0,1.08-.21,1,1,0,0,0,.17-.81,2.74,2.74,0,0,0-.35-.78,3.08,3.08,0,0,0,.75.37.93.93,0,0,0,.78.06.91.91,0,0,0,.48-.82,2.74,2.74,0,0,0-.22-1,2.06,2.06,0,0,0,.77.66.86.86,0,0,0,.89-.07.88.88,0,0,0,.28-.81A2.11,2.11,0,0,0,45.33-48.94Z" transform="translate(0 100)"/><path class="cls-5" d="M38.12-49.2c-.74-1.23-1.78-2.83-2.87-4.4S33-56.69,32.11-57.8l-.23-.28-.31.22.19.31c.74,1.23,1.78,2.83,2.87,4.39s2.25,3.09,3.14,4.21,1.55,1.83,1.55,1.83S38.86-48,38.12-49.2Z" transform="translate(0 100)"/><path class="cls-5" d="M39.88-50.12c-.45-.6-1-1.33-1.55-2.07s-1.21-1.54-1.85-2.32-1.29-1.55-1.92-2.27-1.23-1.35-1.74-1.92l-.06-.06-.32.26.05.07c.46.6,1,1.33,1.55,2.07s1.22,1.54,1.85,2.32,1.3,1.55,1.93,2.26,1.23,1.36,1.74,1.93c1,1.11,1.77,1.81,1.77,1.81S40.78-48.89,39.88-50.12Z" transform="translate(0 100)"/><path class="cls-6" d="M18.69-88.56c-.35-.84,1.55-.08,1.83.81a.84.84,0,0,1-.7,1.18c-.88.2-1-1.56-1.13-2S18.94-88,18.69-88.56Z" transform="translate(0 100)"/><path class="cls-6" d="M15.44-87.67c-.18-.84,1.68.58,1.83,1.09a.84.84,0,0,1-1,1.11c-.88-.3-.67-1.53-.81-2.2C15.37-88,15.56-87.12,15.44-87.67Z" transform="translate(0 100)"/><path class="cls-6" d="M11.51-85.78c0-.17.78-2.34,1.32-1.48C14.15-85.16,11.31-84.2,11.51-85.78Z" transform="translate(0 100)"/><path class="cls-6" d="M9.44-87.89a1.82,1.82,0,0,1,.4,1.23c-.07.5-.43,1.39-1.09,1a.86.86,0,0,1-.33-1.07C8.52-87.06,9.11-88.22,9.44-87.89Z" transform="translate(0 100)"/><path class="cls-7" d="M7-91.26a.47.47,0,0,1,.12-.09c.86-.43,2.32.59,2.88,1.12,0,0,3.62,6-.22,8.38,0,0-4,1.39-5.56,1.23-1.09-.11-.4-3-.4-3s.39-1.85.43-2c.42-1.56,1.6-2.65,2.12-4.15A3.61,3.61,0,0,1,7-91.26Z" transform="translate(0 100)"/><path class="cls-8" d="M7.23-92.89a3.59,3.59,0,0,0,1.11,4.07c1.6,1.58,6.1,1.28,5.63-2.57C13.43-95.89,8.76-96.7,7.23-92.89Z" transform="translate(0 100)"/><path class="cls-2" d="M10.57-92.76a.56.56,0,0,0-.22.78.56.56,0,0,0,.78.22.56.56,0,0,0,.21-.22,1.66,1.66,0,0,1-.7,2.15,1.65,1.65,0,0,1-2.26-.65A1.66,1.66,0,0,1,9-92.74a1.68,1.68,0,0,1,1.57,0Z" transform="translate(0 100)"/><path class="cls-2" d="M6.74-89c-.71-.26-1.43-.51-2.15-.75A24.91,24.91,0,0,0,.4-91a.59.59,0,0,1-.39-.2c-.17-.22,3.08-.28,3.24-.28a23.2,23.2,0,0,1,3.53.26s.53-.19.66.26c.2.72.89,2.52-.57,2.08" transform="translate(0 100)"/><path class="cls-2" d="M2.57-88.69h0c1.79-.3,5.07-.53,5.07-.53l-.07,0s.07,0,.07,0a1.49,1.49,0,0,1-.56,1.11c-.44.36-1,.21-1.48.13-.71-.09-1.43-.18-2.15-.23a12.65,12.65,0,0,1-2.1-.13C1.35-88.59,2.35-88.67,2.57-88.69Z" transform="translate(0 100)"/><path class="cls-9" d="M15.62-54.64c3.29,1.55,10,3.2,17.14,3-1.1-1.33-3-3.77-4.12-5.08-2.76-3.18-6.07-6.07-8.16-9.83-1.13-2-2.39-3.4-3.44-5.44-.68-1.33-1.37-2.66-2.08-4s-1.55-2.8-2.39-4.16c-1-1.57-1.69-2.66-3.09-3.29a6.4,6.4,0,0,0-1.34-.42c-1.63-.33-4-.89-4.45,1.3l1.41,14s2.39,8.89,10.52,13.87" transform="translate(0 100)"/><path class="cls-10" d="M14-91.83a6,6,0,0,0-1-1.89,3.29,3.29,0,0,0-1.67-1.13,2.15,2.15,0,0,0-.5-.12,2.94,2.94,0,0,0-.51,0,2.11,2.11,0,0,0-1,.16,3.83,3.83,0,0,0-1.7,1.24,3.16,3.16,0,0,1,1.55-1.59,2.24,2.24,0,0,1,1.14-.25,2.78,2.78,0,0,1,.58,0,2.3,2.3,0,0,1,.57.11,3.46,3.46,0,0,1,1.83,1.37A4.18,4.18,0,0,1,14-91.83Z" transform="translate(0 100)"/><path class="cls-11" d="M26.41-86c.31-2.52-1-6.81-1-6.81A11.46,11.46,0,0,0,18.33-99a9.6,9.6,0,0,0-7,.75l-.36.19a3.07,3.07,0,0,0-1-1.55,3.85,3.85,0,0,1-.11,1.72,3.59,3.59,0,0,0-.68-.54,2.48,2.48,0,0,1-.22,1.82,9,9,0,0,0-1.8,2.33c-.59,1.3-.37,3.43-1,4.7-2.67,5-2,12.84-1.54,18.33,1.28,14,15,20.77,27.63,19.73" transform="translate(0 100)"/><path class="cls-12" d="M31.52-52.14s-6.19-6.49-8-7.89c0,0-8.39-7.35-5.31-15.16L28.49-62.8Z" transform="translate(0 100)"/><path class="cls-1" d="M20-67.93c3.08,6.55,11.06,10.57,12,17.75,4.16-2,6.38-6.91,6.3-11.53s-2.09-9-4.53-12.95-5.34-7.58-7.52-11.65a13,13,0,0,0-4.31,3.66,15.33,15.33,0,0,0-2.82,6.29A13.71,13.71,0,0,0,20-67.93Z" transform="translate(0 100)"/><path class="cls-6" d="M19.18-73c-.09,2,.94,3.81,1.78,5.6,2.79,6,10.49,10.11,11.29,16.63C36-52.63,38.05-57.08,38-61.29c0-.36,0-.71-.07-1.07a6.68,6.68,0,0,1-4.27.68C27.61-62.43,21.1-67.28,19.18-73Z" transform="translate(0 100)"/><path class="cls-11" d="M19.09-76.36A13.71,13.71,0,0,0,20-67.93c3.08,6.55,11.06,10.57,12,17.75,4.16-2,6.38-6.91,6.3-11.53s-2.09-9-4.53-12.95-5.34-7.58-7.52-11.65" transform="translate(0 100)"/><path class="cls-11" d="M34.24-61.93s-.93,7.69-2.53,9.84" transform="translate(0 100)"/><path class="cls-11" d="M31.29-62.66a35.85,35.85,0,0,1-1.2,7.16" transform="translate(0 100)"/><path class="cls-11" d="M28.8-63.49A25.84,25.84,0,0,1,28-58" transform="translate(0 100)"/><path class="cls-11" d="M26.64-64.63a21.52,21.52,0,0,1-.45,4.44" transform="translate(0 100)"/><path class="cls-2" d="M35.65-53.84s-4.14.46-9.66-7l1.37,2S31.6-54.06,32-50.18C32-50.18,36.21-52.67,35.65-53.84Z" transform="translate(0 100)"/></g></g></svg>