<svg xmlns="http://www.w3.org/2000/svg" viewBox="0 0 1920.75 300"><defs><style>.cls-1,.cls-14,.cls-19{fill:#94c28b;}.cls-13,.cls-17,.cls-2,.cls-22{fill:none;}.cls-13,.cls-14,.cls-17,.cls-18,.cls-19,.cls-2,.cls-8{stroke:#4d3224;stroke-linecap:round;stroke-linejoin:round;}.cls-2,.cls-8{stroke-width:1.5px;}.cls-3{fill:#74c163;}.cls-4{fill:#50a33f;}.cls-5{fill:#479137;}.cls-6{fill:#4d3224;}.cls-7{fill:#5ab747;}.cls-18,.cls-8{fill:#7bb52d;}.cls-9{fill:#72a72a;}.cls-10{fill:#8acc2b;}.cls-11{fill:#68ad59;}.cls-12{fill:#60a053;}.cls-13{stroke-width:1.45px;}.cls-14{stroke-width:1.16px;}.cls-15{fill:#f5ebb2;}.cls-16{fill:#d5b68d;}.cls-17,.cls-18{stroke-width:1.69px;}.cls-19{stroke-width:1.02px;}.cls-20{fill:#f5e379;}.cls-21{fill:#d59b50;}</style></defs><title>資產 198</title><g id="圖層_2" data-name="圖層 2"><g id="作品"><path class="cls-1" d="M1920.75,299.86V284.65c-252.33-90.17-671.09-96.1-968.26-97.3C608,186,299.64,207.39.75,284.65v15.21"/><path class="cls-2" d="M1918.75,284.65c-252.33-90.17-669.09-96.1-966.26-97.3C608,186,299.64,207.39.75,284.65"/><path class="cls-3" d="M1469.49,103.19a5.26,5.26,0,0,0-1.65.4,5.9,5.9,0,0,0-2.61,2,8,8,0,0,0-1.16,2.45,2.54,2.54,0,0,0,.08,1.89c.3.52,1,.74,2,.4a5.93,5.93,0,0,0,2.71-2.31,5.35,5.35,0,0,0,.77-3.21A13.23,13.23,0,0,0,1469.49,103.19Z"/><path class="cls-3" d="M1463.45,100.06a5.87,5.87,0,0,0-2.76,3.16c-.52,2-.13,3.83.88,4.09s2.24-1.16,2.77-3.17A5.81,5.81,0,0,0,1463.45,100.06Z"/><path class="cls-3" d="M1455.63,99.49a5.66,5.66,0,0,0-.75,1.28,4.89,4.89,0,0,0-.38,2.94c.46,2,1.4,3.38,2.52,3.4s1.8-2,1.3-4.25a5,5,0,0,0-1.52-2.44A8.25,8.25,0,0,0,1455.63,99.49Z"/><path class="cls-3" d="M1449.75,104a5,5,0,0,0,.76,3.38c.94,1.35,2.29,2.09,3,1.61s.52-2-.52-3.51A4.8,4.8,0,0,0,1449.75,104Z"/><path class="cls-3" d="M1472.12,112.48a3.23,3.23,0,0,0-2.12-.77c-1,0-1.9.51-2,1.08s.9,1,2.13,1A3.18,3.18,0,0,0,1472.12,112.48Z"/><path class="cls-4" d="M1417.21,165.41c-15.32,5.89-19.24.88-25.15-4.58,0,0-3.61,6.66-11.38,7.64-14,1.79-33.56-33-8.37-44.61-4.09-21,30.75-24.33,39.86-16.18,1.66,1.5,7,6.75,5.91,9-.63,1.27,7.41-2.14,12.69,17.54C1434.78,151.3,1421.83,163.63,1417.21,165.41Z"/><path class="cls-5" d="M1417.21,165.41c-15.32,5.89-19.24.88-25.15-4.58,0,0-3.61,6.66-11.38,7.64-10.73,1.37-24.69-18.67-19.37-33.37.23,16.88,27.66,28.27,31.13,13.91,2.44,12.75,29.24,9,26.25-3.46,5.89.09,10.07-5.24,12.08-11.35.14.55.28,1.12.43,1.7C1434.5,149.49,1422.9,163.22,1417.21,165.41Z"/><path class="cls-6" d="M1382.61,165.07s12.19,15.61,12.19,34.22c0,14.17-.26,4.29-.38,8.24,0,1.25-3.17,1.62-3.17,2.84s11.83,1.37,11.89-.81c0-.49-2.55-1.44-2.56-2-.18-9.37-3.06-21.77-.64-29.62,2.33-7.55,14.87-14.9,14.15-14.63,0,0-1.08-1.21-3.92.41s-11.2,9.72-11.2,9.72,6.1-17.33,7.07-20.21-1.29-2.89-1.29-2.89l-8,20.86-5.2-18.69s-2.64-1.33-1.86,1.36,6.1,17,4.49,17.65-7.7-6.42-10.27-7.06S1382.61,165.07,1382.61,165.07Z"/><path class="cls-2" d="M1417.21,165.41c-15.32,5.89-19.24.88-25.15-4.58,0,0-3.61,6.66-11.38,7.64-14,1.79-33.56-33-8.37-44.61-4.09-21,30.75-24.33,39.86-16.18,1.66,1.5,7,6.75,5.91,9-.63,1.27,7.41-2.14,12.69,17.54C1434.78,151.3,1421.83,163.63,1417.21,165.41Z"/><path class="cls-7" d="M1392.79,115.79a4.24,4.24,0,0,0-1,1,4.94,4.94,0,0,0-1,2.59,6.87,6.87,0,0,0,.27,2.27,2.11,2.11,0,0,0,.91,1.3c.44.24,1.07.06,1.62-.63a5,5,0,0,0,.89-2.85,4.49,4.49,0,0,0-.9-2.62A10.89,10.89,0,0,0,1392.79,115.79Z"/><path class="cls-7" d="M1387.1,116.27a4.94,4.94,0,0,0-.55,3.49c.53,1.65,1.63,2.78,2.46,2.5s1.07-1.82.54-3.49A4.87,4.87,0,0,0,1387.1,116.27Z"/><path class="cls-7" d="M1381.29,119.37a4.91,4.91,0,0,0,0,1.25,4.09,4.09,0,0,0,1.05,2.26c1.22,1.22,2.51,1.77,3.31,1.28s.37-2.25-1-3.6a4.37,4.37,0,0,0-2.18-1A8.26,8.26,0,0,0,1381.29,119.37Z"/><path class="cls-7" d="M1379.11,125.18a4.2,4.2,0,0,0,2.05,2.06c1.28.53,2.56.45,2.88-.22s-.54-1.67-2-2.25A4,4,0,0,0,1379.11,125.18Z"/><path class="cls-7" d="M1398.82,121.21a2.72,2.72,0,0,0-1.85.4c-.73.49-1.12,1.22-.9,1.64s1.09.31,1.94-.27A2.63,2.63,0,0,0,1398.82,121.21Z"/><path class="cls-7" d="M1414.58,138.14a3,3,0,0,0-.84.36,3.07,3.07,0,0,0-1.2,1.29,4.53,4.53,0,0,0-.41,1.39,1.39,1.39,0,0,0,.22,1c.2.25.61.29,1.1,0a3.12,3.12,0,0,0,1.23-1.46,2.88,2.88,0,0,0,.13-1.76A7.41,7.41,0,0,0,1414.58,138.14Z"/><path class="cls-7" d="M1406.93,137.4a3,3,0,0,0-.29.75,2.56,2.56,0,0,0,.06,1.59c.42,1,1,1.66,1.63,1.57s.77-1.23.31-2.36a2.63,2.63,0,0,0-1-1.15A4.43,4.43,0,0,0,1406.93,137.4Z"/><path class="cls-7" d="M1404.21,140.28a2.67,2.67,0,0,0,.69,1.72c.62.63,1.4.9,1.75.59s.09-1.12-.59-1.81A2.53,2.53,0,0,0,1404.21,140.28Z"/><path class="cls-7" d="M1416.78,142.83a1.71,1.71,0,0,0-1.18-.23c-.56.11-1,.44-.94.74s.56.45,1.21.32A1.67,1.67,0,0,0,1416.78,142.83Z"/><path class="cls-8" d="M1323.51,195.39c-10.11.23-13.72-5.45-14.64-12.35-1.93-14.53,8.89-51.33,12.85-51.49,3.24-.11,13.41,27.53,15.42,40.32C1338.62,181.12,1337.62,195.09,1323.51,195.39Z"/><path class="cls-9" d="M1323.51,195.39c-10.11.23-13.72-5.45-14.64-12.35a9.4,9.4,0,0,0,8.55,4.88c10.2-.18,15.79-12.47,18.06-23.65.73,2.8,1.31,5.4,1.66,7.6C1338.62,181.12,1337.62,195.09,1323.51,195.39Z"/><path class="cls-6" d="M1315.8,188.61c-.35.75,6.06,2.78,6.06,12.34s.47,15.07.47,15.07-4.21,1.28-4.13,1.78a12.6,12.6,0,0,0,3.08-.07c3.81-.35,5.9.35,6.31-.35s-3.08-.6-3.22-1.45c-.59-3.59-1.19-16.3.12-20.58s6.17-6.88,5.39-7.23S1324,193,1324,193s3.38-11.1,3-11.3-4.12,10.15-4.12,10.15-3-9.31-3.63-8.9,3.13,8.73,2.31,9.06S1316.15,187.86,1315.8,188.61Z"/><path class="cls-2" d="M1323.51,195.39c-10.11.23-13.72-5.45-14.64-12.35-1.93-14.53,8.89-51.33,12.85-51.49,3.24-.11,13.41,27.53,15.42,40.32C1338.62,181.12,1337.62,195.09,1323.51,195.39Z"/><path class="cls-10" d="M1317,167a3,3,0,0,1,.72.61,3.18,3.18,0,0,1,.8,1.63,4.59,4.59,0,0,1,0,1.51,1.36,1.36,0,0,1-.51.91c-.27.19-.69.11-1.1-.3a3.31,3.31,0,0,1-.77-1.81,2.9,2.9,0,0,1,.41-1.78A7.83,7.83,0,0,1,1317,167Z"/><path class="cls-10" d="M1320.81,167a3.23,3.23,0,0,1,.59,2.25c-.24,1.12-.88,1.93-1.45,1.81s-.82-1.13-.59-2.25A3.23,3.23,0,0,1,1320.81,167Z"/><path class="cls-10" d="M1324.83,168.6a3.16,3.16,0,0,1,.05.82,2.66,2.66,0,0,1-.53,1.55c-.73.89-1.54,1.33-2.09,1.06s-.4-1.45.4-2.42a2.8,2.8,0,0,1,1.36-.83A4.62,4.62,0,0,1,1324.83,168.6Z"/><path class="cls-10" d="M1326.64,172.27a2.78,2.78,0,0,1-1.21,1.49c-.8.43-1.65.46-1.9,0s.24-1.13,1.13-1.61A2.63,2.63,0,0,1,1326.64,172.27Z"/><path class="cls-10" d="M1313.45,171a1.75,1.75,0,0,1,1.23.14c.52.27.82.72.71,1s-.7.28-1.29,0A1.73,1.73,0,0,1,1313.45,171Z"/><path class="cls-10" d="M1322.71,146.17a2.87,2.87,0,0,1,.51.79,3.18,3.18,0,0,1,.27,1.8,4.42,4.42,0,0,1-.47,1.43,1.36,1.36,0,0,1-.76.72c-.32.1-.7-.1-1-.62a3.2,3.2,0,0,1-.2-1.95,3,3,0,0,1,.92-1.58A8.86,8.86,0,0,1,1322.71,146.17Z"/><path class="cls-10" d="M1326.33,147.23a3.27,3.27,0,0,1-.11,2.33c-.56,1-1.42,1.58-1.92,1.29s-.45-1.32.11-2.32A3.22,3.22,0,0,1,1326.33,147.23Z"/><path class="cls-10" d="M1318.1,148.88a1.77,1.77,0,0,1,1.14.5c.41.42.57.94.37,1.18s-.75.05-1.22-.43A1.76,1.76,0,0,1,1318.1,148.88Z"/><path class="cls-11" d="M1457.3,187.87c-19.15,0-34.71-22.72-35.22-51.1,0-32.18,16.68-53.81,35.22-53.81,16.43,0,30.25,16.79,34.14,39.47C1497.09,155.69,1480.23,187.87,1457.3,187.87Z"/><path class="cls-12" d="M1475.16,180c1.7-1.69,10.48-12.68,11-15.79-1.56,1.49-12.23-2.5-8-6.88-7.34,3.17-14.56-7.09-14.07-7.14-3.77,10.59-14.56,5.41-14.33,6.62,1.44,7.54-8.43,8.27-11.73,5.16,1.45,9,1.84,12-7.33,9,2.54,3.08,7.14,10.39,10.78,11C1441.56,182,1459.62,195.54,1475.16,180Z"/><path class="cls-6" d="M1442.15,175.21s13.92,5,13.92,23.07-.36,26.8-.36,26.8l-6.6,5.42s-3.2,1.65,5.59.4,14.67,2.64,15.78,1.4-7.19-4-7.45-6c-1-8-4-30.56-1.09-38.66s15.86-12.56,15.86-12.56.36-3-3.46-1.33-13.5,9.53-13.5,9.53,7.87-17.1,9-19.91-2.38-2.53-2.38-2.53l-9.16,20.26s-3.63-14.36-5.5-17.2-2.56.36-2.56.36,7,16.52,5.13,17.15-11.35-10-14.28-10.58S1442.15,175.21,1442.15,175.21Z"/><path class="cls-13" d="M1457.3,187.87c-19.15,0-34.71-22.72-35.22-51.1,0-32.18,16.68-53.81,35.22-53.81,16.43,0,30.25,16.79,34.14,39.47C1497.09,155.69,1480.23,187.87,1457.3,187.87Z"/><path class="cls-3" d="M1440.39,123a3.84,3.84,0,0,1,1.82,2.08c.35,1.32.09,2.53-.58,2.7s-1.48-.77-1.82-2.09A3.82,3.82,0,0,1,1440.39,123Z"/><path class="cls-3" d="M1436.9,127.69a2.13,2.13,0,0,1,1.4-.51c.69,0,1.26.34,1.28.71s-.59.66-1.4.63A2,2,0,0,1,1436.9,127.69Z"/><path class="cls-3" d="M1479,140.42a2.76,2.76,0,0,0-1.3,1.49c-.25,1-.07,1.81.41,1.93s1.06-.54,1.31-1.5A2.74,2.74,0,0,0,1479,140.42Z"/><path class="cls-3" d="M1475.32,140.15a2.52,2.52,0,0,0-.36.6,2.31,2.31,0,0,0-.18,1.39c.22,1,.66,1.6,1.19,1.61s.85-1,.62-2a2.5,2.5,0,0,0-.72-1.15A3.62,3.62,0,0,0,1475.32,140.15Z"/><path class="cls-3" d="M1472.53,142.26a2.38,2.38,0,0,0,.36,1.59c.45.64,1.08,1,1.44.77s.24-1-.25-1.66A2.25,2.25,0,0,0,1472.53,142.26Z"/><path class="cls-3" d="M1468.84,103a4.28,4.28,0,0,0-1.31.42,4.75,4.75,0,0,0-2,1.78,6.47,6.47,0,0,0-.79,2,2,2,0,0,0,.19,1.52c.27.4.88.53,1.66.19a4.71,4.71,0,0,0,2-2,4.3,4.3,0,0,0,.42-2.64A12.46,12.46,0,0,0,1468.84,103Z"/><path class="cls-3" d="M1463.77,100.83a4.79,4.79,0,0,0-2,2.73c-.29,1.64.14,3.09,1,3.24s1.74-1.08,2-2.74A4.64,4.64,0,0,0,1463.77,100.83Z"/><path class="cls-3" d="M1457.42,100.86a4.68,4.68,0,0,0-.53,1.08,3.93,3.93,0,0,0-.12,2.39c.5,1.6,1.34,2.65,2.25,2.59s1.32-1.75.78-3.51a4.07,4.07,0,0,0-1.38-1.87A7,7,0,0,0,1457.42,100.86Z"/><path class="cls-3" d="M1453,104.83a4.06,4.06,0,0,0,.82,2.68c.85,1,2,1.54,2.56,1.11s.28-1.67-.65-2.8A3.89,3.89,0,0,0,1453,104.83Z"/><path class="cls-3" d="M1471.54,110.31a2.64,2.64,0,0,0-1.76-.49c-.84.09-1.51.53-1.5,1s.78.76,1.77.64A2.56,2.56,0,0,0,1471.54,110.31Z"/><path class="cls-14" d="M1400.42,208.5a7.36,7.36,0,0,0-2.54-5.31.63.63,0,0,0-1,.37,10.35,10.35,0,0,0,.88,5.73,8.32,8.32,0,0,0-4.11-5.93.62.62,0,0,0-.92.46,6.37,6.37,0,0,0,1.4,4.77,7.53,7.53,0,0,0-4.22-2.79.62.62,0,0,0-.74.77,5.4,5.4,0,0,0,3.34,3.8c-1.4-1-2.93-2.07-4.66-2-1.57,0-3.17,1.5-2.92,3a.63.63,0,0,0,.48.51c4.67,1.09,9.54,1,14.34.85a13.22,13.22,0,0,0,4.21-.57,5,5,0,0,0,2.57-2,.62.62,0,0,0-.66-.93l-.22.06a.61.61,0,0,1-.79-.72l.39-1.79a1.61,1.61,0,0,0-.17-1.46c-.62-.65-1.72.2-1.92,1.08s-.09,1.91-.7,2.57c.35-1.67,1.1-4-.25-5.06a.75.75,0,0,0-1-.06C1399.75,204.62,1400.19,206.91,1400.42,208.5Z"/><path class="cls-14" d="M1473,233.74a7.39,7.39,0,0,0-2.71-5.22.63.63,0,0,0-1,.41,10.4,10.4,0,0,0,1.07,5.7,8.3,8.3,0,0,0-4.31-5.79.62.62,0,0,0-.9.49,6.31,6.31,0,0,0,1.56,4.72,7.5,7.5,0,0,0-4.32-2.65.63.63,0,0,0-.71.8,5.44,5.44,0,0,0,3.47,3.69c-1.43-1-3-2-4.72-1.89s-3.12,1.61-2.83,3.06a.63.63,0,0,0,.5.49c4.71.94,9.57.65,14.36.36a13.26,13.26,0,0,0,4.2-.7,5,5,0,0,0,2.49-2.07.63.63,0,0,0-.69-.91l-.21.07a.61.61,0,0,1-.82-.69l.33-1.81a1.59,1.59,0,0,0-.22-1.45c-.65-.63-1.71.26-1.88,1.14s0,1.91-.62,2.6c.3-1.69,1-4.05-.42-5.05a.74.74,0,0,0-1,0C1472.22,229.89,1472.74,232.16,1473,233.74Z"/><path class="cls-14" d="M1369.4,205.77a4.18,4.18,0,0,0-1.55-3,.36.36,0,0,0-.59.24,6,6,0,0,0,.61,3.26,4.73,4.73,0,0,0-2.46-3.32.37.37,0,0,0-.52.29,3.62,3.62,0,0,0,.9,2.69,4.3,4.3,0,0,0-2.47-1.51.36.36,0,0,0-.41.46,3.14,3.14,0,0,0,2,2.11,4.51,4.51,0,0,0-2.7-1.08c-.9.05-1.78.92-1.61,1.75a.37.37,0,0,0,.28.28,32.28,32.28,0,0,0,8.22.2,7.51,7.51,0,0,0,2.4-.4,2.8,2.8,0,0,0,1.42-1.18.35.35,0,0,0-.39-.52l-.12,0a.35.35,0,0,1-.47-.4l.19-1a.92.92,0,0,0-.13-.83c-.37-.36-1,.15-1.07.65s0,1.09-.35,1.48c.16-1,.55-2.31-.25-2.88a.41.41,0,0,0-.59,0C1368.94,203.56,1369.24,204.86,1369.4,205.77Z"/><path class="cls-14" d="M1308.39,218.9a5.36,5.36,0,0,0-2-3.81.46.46,0,0,0-.75.3,7.54,7.54,0,0,0,.78,4.15,6.06,6.06,0,0,0-3.14-4.22.46.46,0,0,0-.66.36,4.64,4.64,0,0,0,1.14,3.44,5.52,5.52,0,0,0-3.14-1.93.45.45,0,0,0-.52.58,4,4,0,0,0,2.52,2.69,5.82,5.82,0,0,0-3.43-1.37c-1.15.06-2.27,1.16-2.06,2.22a.47.47,0,0,0,.36.36,41.11,41.11,0,0,0,10.46.26,9.8,9.8,0,0,0,3-.51,3.66,3.66,0,0,0,1.82-1.51.45.45,0,0,0-.5-.66l-.16.05a.45.45,0,0,1-.6-.51l.24-1.31a1.15,1.15,0,0,0-.15-1.06c-.47-.45-1.25.19-1.38.84s0,1.39-.44,1.88c.21-1.22.7-2.94-.31-3.67a.55.55,0,0,0-.76,0C1307.81,216.09,1308.19,217.74,1308.39,218.9Z"/><path class="cls-15" d="M1301.89,207.23a1.53,1.53,0,0,1-1.15.27.82.82,0,0,1,.64.41.7.7,0,0,1-.12.74,1.64,1.64,0,0,1-1.75.38,1.09,1.09,0,0,1-.74-.89,1.27,1.27,0,0,1-.7.78,1.3,1.3,0,0,1-1.46-.19.71.71,0,0,1,.2-1,2.45,2.45,0,0,1,.87-.43,2.49,2.49,0,0,1-1.62-.22.68.68,0,0,1-.34-.35.43.43,0,0,1,.1-.35,1.47,1.47,0,0,1,1.21-.54,1.59,1.59,0,0,1,.84.28.72.72,0,0,1,.14-.85,1.39,1.39,0,0,1,1.54-.15.78.78,0,0,1,.37.95,1.29,1.29,0,0,1,1.06-.31,1.27,1.27,0,0,1,1,.8A.63.63,0,0,1,1301.89,207.23Z"/><path class="cls-16" d="M1299.67,207.12c0-.22-.31-.4-.68-.4s-.68.18-.68.4.3.41.68.41S1299.67,207.35,1299.67,207.12Z"/><path class="cls-15" d="M1280.79,210.89a2.16,2.16,0,0,1-1.57.38,1.09,1.09,0,0,1,.87.56,1,1,0,0,1-.16,1,2.25,2.25,0,0,1-2.4.52,1.53,1.53,0,0,1-1-1.22,1.71,1.71,0,0,1-1,1.06,1.77,1.77,0,0,1-2-.25,1,1,0,0,1,.27-1.33,3.29,3.29,0,0,1,1.2-.59,3.34,3.34,0,0,1-2.23-.31.84.84,0,0,1-.46-.47.62.62,0,0,1,.13-.48,2,2,0,0,1,1.66-.74,2.19,2.19,0,0,1,1.15.38,1,1,0,0,1,.19-1.16,1.91,1.91,0,0,1,2.11-.21,1.07,1.07,0,0,1,.51,1.31,1.78,1.78,0,0,1,1.45-.43A1.73,1.73,0,0,1,1281,210,.84.84,0,0,1,1280.79,210.89Z"/><path class="cls-16" d="M1277.75,210.75c0-.31-.42-.56-.93-.56s-.94.25-.94.56.42.56.94.56S1277.75,211.06,1277.75,210.75Z"/><path class="cls-15" d="M1259.86,204.13a2,2,0,0,1,1.47-.41,1,1,0,0,1-.84-.5.86.86,0,0,1,.12-.95,2.11,2.11,0,0,1,2.23-.58,1.42,1.42,0,0,1,1,1.12,1.63,1.63,0,0,1,.87-1,1.66,1.66,0,0,1,1.88.17.91.91,0,0,1-.21,1.26,3.15,3.15,0,0,1-1.1.6,3.08,3.08,0,0,1,2.1.2.83.83,0,0,1,.45.43.54.54,0,0,1-.1.45,1.85,1.85,0,0,1-1.54.76,2,2,0,0,1-1.09-.32.93.93,0,0,1-.14,1.1,1.77,1.77,0,0,1-2,.27,1,1,0,0,1-.53-1.21,1.69,1.69,0,0,1-2.71-.52A.81.81,0,0,1,1259.86,204.13Z"/><path class="cls-16" d="M1262.73,204.15c0,.29.41.51.89.5s.87-.27.86-.56-.41-.51-.9-.49S1262.72,203.86,1262.73,204.15Z"/><path class="cls-15" d="M1418.52,210.8a2.09,2.09,0,0,1,1.56-.38,1.12,1.12,0,0,1-.87-.57,1,1,0,0,1,.17-1,2.2,2.2,0,0,1,2.38-.54,1.52,1.52,0,0,1,1,1.25,1.85,1.85,0,0,1,3-.83,1,1,0,0,1-.28,1.35,3.26,3.26,0,0,1-1.19.6,3.25,3.25,0,0,1,2.22.31.89.89,0,0,1,.46.48.64.64,0,0,1-.13.49,2,2,0,0,1-1.66.75,2.11,2.11,0,0,1-1.14-.39,1,1,0,0,1-.19,1.18,1.87,1.87,0,0,1-2.1.22,1.1,1.1,0,0,1-.52-1.33,1.72,1.72,0,0,1-1.44.44,1.75,1.75,0,0,1-1.4-1.11A.87.87,0,0,1,1418.52,210.8Z"/><path class="cls-16" d="M1421.55,211c0,.31.42.56.93.56s.93-.25.93-.56-.42-.57-.93-.57S1421.55,210.63,1421.55,211Z"/><path class="cls-15" d="M1357.58,229.36a2.66,2.66,0,0,1,2-.48,1.41,1.41,0,0,1-1.09-.71,1.23,1.23,0,0,1,.21-1.29,2.78,2.78,0,0,1,3-.67,1.93,1.93,0,0,1,1.26,1.56,2.32,2.32,0,0,1,3.7-1,1.26,1.26,0,0,1-.34,1.7,4,4,0,0,1-1.49.75,4.11,4.11,0,0,1,2.77.39,1.12,1.12,0,0,1,.58.6.77.77,0,0,1-.16.61,2.45,2.45,0,0,1-2.08.94,2.66,2.66,0,0,1-1.43-.48,1.27,1.27,0,0,1-.24,1.48,2.36,2.36,0,0,1-2.63.27,1.38,1.38,0,0,1-.64-1.67,2.23,2.23,0,0,1-3.57-.84A1.09,1.09,0,0,1,1357.58,229.36Z"/><path class="cls-16" d="M1361.38,229.54c0,.39.52.71,1.16.71s1.17-.32,1.17-.71-.52-.71-1.17-.71S1361.38,229.15,1361.38,229.54Z"/><path class="cls-15" d="M1378.88,230a1.59,1.59,0,0,1,1.15-.28.82.82,0,0,1-.64-.41.74.74,0,0,1,.12-.75,1.61,1.61,0,0,1,1.75-.39,1.12,1.12,0,0,1,.73.91,1.26,1.26,0,0,1,.7-.79,1.28,1.28,0,0,1,1.46.18.74.74,0,0,1-.2,1,2.38,2.38,0,0,1-.87.44,2.37,2.37,0,0,1,1.62.22.69.69,0,0,1,.33.35.48.48,0,0,1-.09.36,1.46,1.46,0,0,1-1.21.55,1.53,1.53,0,0,1-.83-.28.75.75,0,0,1-.15.86,1.37,1.37,0,0,1-1.53.16.79.79,0,0,1-.37-1,1.33,1.33,0,0,1-1.06.32,1.28,1.28,0,0,1-1-.82A.64.64,0,0,1,1378.88,230Z"/><path class="cls-16" d="M1381.1,230.07c0,.23.3.41.68.41s.68-.18.68-.41-.31-.42-.68-.42S1381.1,229.84,1381.1,230.07Z"/><path class="cls-4" d="M449,165.7c1.55.6,3.59,2.3,3.31,7.05-.67,11.16-8.83,17.63-23,18.72-4.43.35-9.23-2.76-9.23-2.76A21.17,21.17,0,0,1,405.23,191c-12.66-2.89-20.67-9.82-21.8-23.13-.63-7.08,5.87-11.28,5.87-11.28s-6-6.21-4.23-13.61,11.65-17.49,23.64-14.78c14.85-14.52,56.7,2,44.94,32.36C452.47,163.66,448.53,165.52,449,165.7Z"/><path class="cls-5" d="M449,165.7c1.55.6,3.59,2.3,3.31,7.05-.67,11.16-8.83,17.63-23,18.72-4.43.35-9.23-2.76-9.23-2.76A21.17,21.17,0,0,1,405.23,191c-11.36-2.59-18.55-8.29-21-18.33,5.12,6.91,13.84,11.56,17.29,3.68,2,11.42,32.11,10.19,31.07-.69,6.21,2.53,14-5.29,8-10.3,7.74-.06,12.74-10.93,14.29-20.88a26.27,26.27,0,0,1-1.26,16.08C452.47,163.66,448.53,165.52,449,165.7Z"/><path class="cls-17" d="M449,165.7c1.55.6,3.59,2.3,3.31,7.05-.67,11.16-8.83,17.63-23,18.72-4.43.35-9.23-2.76-9.23-2.76A21.17,21.17,0,0,1,405.23,191c-12.66-2.89-20.67-9.82-21.8-23.13-.63-7.08,5.87-11.28,5.87-11.28s-6-6.21-4.23-13.61,11.65-17.49,23.64-14.78c14.85-14.52,56.7,2,44.94,32.36C452.47,163.66,448.53,165.52,449,165.7Z"/><path class="cls-6" d="M408.56,181.17s10,1.94,10,17.19.54,15.61.54,15.61a7.47,7.47,0,0,1-3.94,3.55c-1.75.62-.84.39,5.52.39,4.73,0,6.58.42,5.42-.2-1.47-.78-3.17-1.9-3.25-3.55-.35-6.69-2.19-17.9-.08-24.74s11.38-9.17,10.51-10-10,5.78-10.53,5.58,3-11.14,3.75-13.51-1.28-.88-2,.79-3.45,11.84-4.25,12.33S417,169.53,415.76,169s-1.1.36-1.08,1.78,4.68,12.81,3.36,13.34-6.19-3.45-8.29-4S408.56,181.17,408.56,181.17Z"/><path class="cls-7" d="M421.44,137.29a4.13,4.13,0,0,1,1,1,4.84,4.84,0,0,1,.93,2.51,6.4,6.4,0,0,1-.27,2.19,2,2,0,0,1-.88,1.27c-.43.23-1,.06-1.57-.61a4.82,4.82,0,0,1-.86-2.76,4.37,4.37,0,0,1,.87-2.55A12.84,12.84,0,0,1,421.44,137.29Z"/><path class="cls-7" d="M427,137.76a4.73,4.73,0,0,1,.53,3.38c-.51,1.6-1.57,2.69-2.38,2.43s-1-1.78-.53-3.39A4.73,4.73,0,0,1,427,137.76Z"/><path class="cls-7" d="M432.59,140.76a4.6,4.6,0,0,1,0,1.21,3.9,3.9,0,0,1-1,2.19c-1.19,1.19-2.44,1.72-3.21,1.24s-.36-2.18.95-3.48a4.1,4.1,0,0,1,2.11-1A7.78,7.78,0,0,1,432.59,140.76Z"/><path class="cls-7" d="M434.71,146.39a4.1,4.1,0,0,1-2,2c-1.24.52-2.49.44-2.8-.21s.53-1.62,1.89-2.19A3.91,3.91,0,0,1,434.71,146.39Z"/><path class="cls-7" d="M415.6,142.55a2.62,2.62,0,0,1,1.79.38c.71.48,1.09,1.18.88,1.59s-1.06.3-1.88-.26A2.53,2.53,0,0,1,415.6,142.55Z"/><path class="cls-7" d="M400.32,159a2.77,2.77,0,0,1,.82.34,3.08,3.08,0,0,1,1.17,1.25,4.37,4.37,0,0,1,.38,1.35,1.35,1.35,0,0,1-.2,1c-.2.24-.6.29-1.08,0a3.13,3.13,0,0,1-1.19-1.41,2.81,2.81,0,0,1-.12-1.72A8,8,0,0,1,400.32,159Z"/><path class="cls-7" d="M407.74,158.24a3.06,3.06,0,0,1,.28.72,2.55,2.55,0,0,1-.06,1.54c-.4,1-1,1.61-1.58,1.53s-.75-1.2-.3-2.29a2.55,2.55,0,0,1,1-1.12A5.23,5.23,0,0,1,407.74,158.24Z"/><path class="cls-7" d="M410.38,161a2.58,2.58,0,0,1-.68,1.67c-.6.61-1.35.87-1.69.56s-.09-1.08.57-1.75A2.51,2.51,0,0,1,410.38,161Z"/><path class="cls-7" d="M398.19,163.5a1.64,1.64,0,0,1,1.15-.22c.53.11.93.43.9.72s-.54.44-1.16.31A1.63,1.63,0,0,1,398.19,163.5Z"/><path class="cls-11" d="M397.13,181.66c-6.62,8.32-30.25,4.66-33.79.38-2.49-3-5.34,6.6-18.76,4.41-6-1-17.11-4.64-18.67-9.25-11.64-30,12.51-93.66,35.68-96.18S413.17,161.58,397.13,181.66Z"/><path class="cls-12" d="M401.13,171.61a22.28,22.28,0,0,1-4,10c-6.62,8.32-30.25,4.66-33.79.38-2.49-3-5.34,6.6-18.76,4.41-4.83-.84-14.35-3.61-17.71-7.69,12.14,4,22.61-5.42,11.16-18.66,4.37,4.12,17.43,3.15,15.52-6.83-.3-1.6,14,5.25,19-8.76-.65.07,6.59,19.62,16.29,15.42C383.16,165.73,399.07,173.59,401.13,171.61Z"/><path class="cls-6" d="M345.62,166.57s14.06,5,14.06,26.81-.15,30.33,0,34.68-11.11,6.48-11.11,6.48-3.51,1.22,6.51,1.06c10.54-.18,22.33.45,23.57-1.06s-11-2.23-11.11-6.65c-.31-9.61-3-36.45.34-46.25s16.49-14.32,16.49-14.32,2-3.47-1.24-1.88-16.48,10.93-16.48,10.93,4-14.29,5-17.76c1.29-4.73-.15-7.09-.15-7.09l-7.7,22.21s-3.93-12.1-5.37-16-1.15.4-1.15.4,5.28,15.26,3.22,16-9.89-7.53-13.19-8.29S345.62,166.57,345.62,166.57Z"/><path class="cls-17" d="M397.13,181.66c-6.62,8.32-30.25,4.66-33.79.38-2.49-3-5.34,6.6-18.76,4.41-6-1-17.11-4.64-18.67-9.25-11.64-30,12.51-93.66,35.68-96.18S413.17,161.58,397.13,181.66Z"/><path class="cls-3" d="M350.57,106a4.64,4.64,0,0,1,1.43.35,5.07,5.07,0,0,1,2.27,1.74,7,7,0,0,1,1,2.12,2.21,2.21,0,0,1-.08,1.65c-.25.45-.9.63-1.76.34a5.13,5.13,0,0,1-2.35-2,4.65,4.65,0,0,1-.66-2.79A11.47,11.47,0,0,1,350.57,106Z"/><path class="cls-3" d="M355.81,103.27a5.06,5.06,0,0,1,2.4,2.74c.45,1.74.11,3.33-.76,3.55s-1.95-1-2.41-2.76A5.06,5.06,0,0,1,355.81,103.27Z"/><path class="cls-3" d="M362.6,102.77a4.8,4.8,0,0,1,.65,1.12,4.13,4.13,0,0,1,.33,2.54c-.39,1.75-1.21,2.94-2.19,2.95s-1.56-1.76-1.12-3.68a4.32,4.32,0,0,1,1.32-2.12A7.88,7.88,0,0,1,362.6,102.77Z"/><path class="cls-3" d="M367.71,106.64a4.35,4.35,0,0,1-.66,2.94c-.82,1.17-2,1.81-2.64,1.4s-.44-1.76.46-3A4.19,4.19,0,0,1,367.71,106.64Z"/><path class="cls-3" d="M348.29,114.05a2.81,2.81,0,0,1,1.83-.67c.92,0,1.66.44,1.7.93s-.78.88-1.85.84A2.73,2.73,0,0,1,348.29,114.05Z"/><path class="cls-3" d="M380.85,121.84a3.88,3.88,0,0,0-1.83,2.1c-.35,1.32-.09,2.54.58,2.71s1.49-.77,1.84-2.11A3.84,3.84,0,0,0,380.85,121.84Z"/><path class="cls-3" d="M384.36,126.58a2.14,2.14,0,0,0-1.41-.51c-.69,0-1.26.33-1.29.71s.6.66,1.41.64A2.11,2.11,0,0,0,384.36,126.58Z"/><path class="cls-3" d="M342,139.38a2.8,2.8,0,0,1,1.31,1.5c.25,1,.06,1.82-.42,1.94s-1.07-.55-1.31-1.5A2.73,2.73,0,0,1,342,139.38Z"/><path class="cls-3" d="M345.72,139.1a2.68,2.68,0,0,1,.36.62,2.22,2.22,0,0,1,.18,1.39c-.21,1-.66,1.61-1.2,1.62s-.85-1-.61-2a2.33,2.33,0,0,1,.72-1.16A5.5,5.5,0,0,1,345.72,139.1Z"/><path class="cls-3" d="M348.52,141.23a2.37,2.37,0,0,1-.36,1.61c-.45.64-1.09,1-1.44.76s-.25-1,.25-1.67A2.25,2.25,0,0,1,348.52,141.23Z"/><path class="cls-18" d="M508.35,216.69c-1.9,2.05-4,4.37-8.21,1.1-2.45-1.9-4.43-5.49-5.88-10.19-2.66-8.66-3.58-21.11-2.62-33.87,1.1-14.57,14.7-28,21.78-8.36.34.94.67,2,1,3C518.76,184,517.43,207,508.35,216.69Z"/><path class="cls-9" d="M508.35,216.69c-1.9,2.05-4,4.37-8.21,1.1-2.45-1.9-4.43-5.49-5.88-10.19,6.7,6.87,16.58.77,12-13.9,6.15-1.44,7.11-16.46,7.16-28.33.34.94.67,2,1,3C518.76,184,517.43,207,508.35,216.69Z"/><path class="cls-6" d="M498.06,209c1,.82,3.84,3.43,4.26,5.36a28.06,28.06,0,0,1,.61,6.16c0,10.61.41,16.94.41,16.94l-2.88,1.78s-3.15,1.9,1.24,1.16,6.72.67,7.26-.06-3.06-.69-3.15-3.57c-.14-4.66-1.41-17.71.05-22.46s4.91-5,5.09-6.2-.82-.62-.82-.62l-4.82,4.26s2-5.9,2.56-7.55-.3-1.71-1-.07L504,210.48s-1.65-4.76-2.06-6.34c-.19-.73-.8-1.69-1-.55s2.54,6.7,1.63,7.07-3-1.92-4.44-2.88C496.88,206.94,496.76,207.91,498.06,209Z"/><path class="cls-17" d="M508.35,216.69c-1.9,2.05-4,4.37-8.21,1.1-2.45-1.9-4.43-5.49-5.88-10.19-2.66-8.66-3.58-21.11-2.62-33.87,1.1-14.57,14.7-28,21.78-8.36.34.94.67,2,1,3C518.76,184,517.43,207,508.35,216.69Z"/><path class="cls-10" d="M501.59,165a2.94,2.94,0,0,1,.69.58,3.11,3.11,0,0,1,.78,1.58,4.5,4.5,0,0,1,0,1.45,1.4,1.4,0,0,1-.49.89c-.27.17-.67.1-1.07-.3a3.12,3.12,0,0,1-.74-1.74,2.84,2.84,0,0,1,.4-1.73A7,7,0,0,1,501.59,165Z"/><path class="cls-10" d="M505.23,164.89a3.14,3.14,0,0,1,.56,2.17c-.23,1.08-.85,1.87-1.39,1.75s-.8-1.09-.57-2.18A3.09,3.09,0,0,1,505.23,164.89Z"/><path class="cls-10" d="M509.1,166.48a3.17,3.17,0,0,1,.06.8,2.66,2.66,0,0,1-.52,1.49c-.7.86-1.48,1.28-2,1s-.38-1.4.39-2.34a2.75,2.75,0,0,1,1.31-.8A4.94,4.94,0,0,1,509.1,166.48Z"/><path class="cls-10" d="M510.85,170a2.67,2.67,0,0,1-1.16,1.44c-.78.41-1.6.45-1.84,0s.24-1.09,1.09-1.55A2.53,2.53,0,0,1,510.85,170Z"/><path class="cls-10" d="M498.12,168.77a1.73,1.73,0,0,1,1.19.13c.5.27.8.7.68,1s-.67.27-1.24,0A1.69,1.69,0,0,1,498.12,168.77Z"/><path class="cls-10" d="M500.09,191.55a2.75,2.75,0,0,1,.49.76,3.16,3.16,0,0,1,.27,1.74,4.19,4.19,0,0,1-.46,1.38,1.34,1.34,0,0,1-.73.7c-.31.09-.67-.1-.93-.6a3.17,3.17,0,0,1-.19-1.89,2.85,2.85,0,0,1,.89-1.52A7.33,7.33,0,0,1,500.09,191.55Z"/><path class="cls-10" d="M503.58,192.58a3.12,3.12,0,0,1-.1,2.24c-.54,1-1.37,1.53-1.85,1.25s-.44-1.28.1-2.25A3.08,3.08,0,0,1,503.58,192.58Z"/><path class="cls-10" d="M495.64,194.16a1.7,1.7,0,0,1,1.1.49c.4.4.55.9.36,1.13s-.72.06-1.18-.41A1.69,1.69,0,0,1,495.64,194.16Z"/><path class="cls-19" d="M346,231.19a9.36,9.36,0,0,1,3.21-6.74.8.8,0,0,1,1.33.48,13.27,13.27,0,0,1-1.11,7.27,10.49,10.49,0,0,1,5.21-7.53.8.8,0,0,1,1.17.58,8,8,0,0,1-1.79,6.06,9.6,9.6,0,0,1,5.37-3.55.79.79,0,0,1,.94,1,6.9,6.9,0,0,1-4.24,4.83c1.77-1.29,3.72-2.64,5.91-2.59,2,0,4,1.9,3.71,3.76a.82.82,0,0,1-.61.64c-5.93,1.39-12.11,1.24-18.2,1.08a17.16,17.16,0,0,1-5.35-.72,6.24,6.24,0,0,1-3.25-2.52.79.79,0,0,1,.83-1.18l.28.08a.78.78,0,0,0,1-.92l-.49-2.27a2,2,0,0,1,.21-1.85c.79-.82,2.18.25,2.44,1.37s.11,2.42.89,3.26c-.45-2.12-1.39-5.09.32-6.42a.94.94,0,0,1,1.32-.07C346.88,226.26,346.32,229.17,346,231.19Z"/><path class="cls-19" d="M425.14,218.68a4.37,4.37,0,0,1,1.5-3.18.38.38,0,0,1,.63.23,6.28,6.28,0,0,1-.52,3.42,5,5,0,0,1,2.44-3.55.37.37,0,0,1,.55.28,3.72,3.72,0,0,1-.83,2.85,4.51,4.51,0,0,1,2.52-1.68.38.38,0,0,1,.45.46,3.26,3.26,0,0,1-2,2.28,4.78,4.78,0,0,1,2.77-1.23c.94,0,1.89.89,1.75,1.77a.36.36,0,0,1-.28.3,33.64,33.64,0,0,1-8.57.52,7.84,7.84,0,0,1-2.51-.33,2.92,2.92,0,0,1-1.53-1.18.37.37,0,0,1,.39-.56l.13,0a.37.37,0,0,0,.47-.43l-.24-1.07a1,1,0,0,1,.1-.87c.37-.39,1,.12,1.15.64s.05,1.14.42,1.54c-.21-1-.66-2.4.14-3a.46.46,0,0,1,.63,0C425.53,216.36,425.27,217.73,425.14,218.68Z"/><path class="cls-19" d="M402.76,235.78a6.28,6.28,0,0,1,2.32-4.45.53.53,0,0,1,.87.35,8.8,8.8,0,0,1-.91,4.86,7.12,7.12,0,0,1,3.67-4.94.53.53,0,0,1,.77.42,5.37,5.37,0,0,1-1.33,4,6.38,6.38,0,0,1,3.68-2.25.53.53,0,0,1,.61.68,4.65,4.65,0,0,1-3,3.14,6.84,6.84,0,0,1,4-1.61c1.34.08,2.66,1.37,2.41,2.61a.56.56,0,0,1-.42.42c-4,.79-8.16.55-12.24.3a11.28,11.28,0,0,1-3.57-.6,4.21,4.21,0,0,1-2.13-1.76.54.54,0,0,1,.59-.78l.18.07a.53.53,0,0,0,.7-.6l-.28-1.54a1.35,1.35,0,0,1,.18-1.23c.55-.53,1.46.22,1.61,1s0,1.62.52,2.2c-.25-1.43-.82-3.44.36-4.3a.63.63,0,0,1,.89,0C403.45,232.5,403,234.43,402.76,235.78Z"/><path class="cls-19" d="M482.15,243.56a5.24,5.24,0,0,1,1.91-3.67.45.45,0,0,1,.73.29,7.33,7.33,0,0,1-.76,4,5.8,5.8,0,0,1,3-4.07.43.43,0,0,1,.63.34,4.38,4.38,0,0,1-1.1,3.32,5.34,5.34,0,0,1,3-1.86.44.44,0,0,1,.5.56,3.8,3.8,0,0,1-2.43,2.59,5.61,5.61,0,0,1,3.31-1.32,2.07,2.07,0,0,1,2,2.15.45.45,0,0,1-.35.34,39.67,39.67,0,0,1-10.1.26,9.7,9.7,0,0,1-2.94-.5,3.45,3.45,0,0,1-1.75-1.46.44.44,0,0,1,.48-.64l.15.06a.43.43,0,0,0,.57-.49l-.23-1.27a1.16,1.16,0,0,1,.15-1c.46-.44,1.21.18,1.33.8s0,1.35.43,1.82c-.21-1.18-.68-2.84.3-3.54a.52.52,0,0,1,.73,0C482.72,240.85,482.35,242.45,482.15,243.56Z"/><path class="cls-20" d="M387.86,225.88a1.59,1.59,0,0,0-1.27-.34.9.9,0,0,0,.7-.51,1,1,0,0,0-.13-.92,1.68,1.68,0,0,0-1.94-.48,1.39,1.39,0,0,0-.82,1.12,1.5,1.5,0,0,0-.78-1A1.31,1.31,0,0,0,382,224a1,1,0,0,0,.23,1.22,2.58,2.58,0,0,0,1,.54,2.45,2.45,0,0,0-1.8.27.77.77,0,0,0-.37.43.63.63,0,0,0,.1.44,1.54,1.54,0,0,0,1.35.67,1.6,1.6,0,0,0,.93-.34,1,1,0,0,0,.15,1.06,1.43,1.43,0,0,0,1.71.19,1,1,0,0,0,.42-1.19,1.33,1.33,0,0,0,1.17.39,1.46,1.46,0,0,0,1.14-1A.86.86,0,0,0,387.86,225.88Z"/><path class="cls-21" d="M385.4,226c0,.28-.34.51-.76.51s-.75-.23-.75-.51.33-.51.75-.51S385.4,225.73,385.4,226Z"/><path class="cls-15" d="M398,221.1a1.78,1.78,0,0,0-1.39-.38,1,1,0,0,0,.77-.55,1,1,0,0,0-.14-1,1.86,1.86,0,0,0-2.12-.52,1.49,1.49,0,0,0-.89,1.22,1.68,1.68,0,0,0-.85-1.06,1.43,1.43,0,0,0-1.77.25,1,1,0,0,0,.24,1.32,2.62,2.62,0,0,0,1.06.59,2.64,2.64,0,0,0-2,.31.78.78,0,0,0-.4.46.64.64,0,0,0,.11.48,1.67,1.67,0,0,0,1.47.74,1.79,1.79,0,0,0,1-.38,1.06,1.06,0,0,0,.17,1.15,1.54,1.54,0,0,0,1.86.22,1.14,1.14,0,0,0,.46-1.31,1.44,1.44,0,0,0,1.28.43,1.57,1.57,0,0,0,1.24-1.09A.91.91,0,0,0,398,221.1Z"/><path class="cls-16" d="M395.3,221.24c0,.31-.37.56-.82.56s-.83-.25-.83-.56.37-.56.83-.56S395.3,220.93,395.3,221.24Z"/><path class="cls-15" d="M462.12,215.27a1.4,1.4,0,0,0,1.11.3.77.77,0,0,0-.62.44.85.85,0,0,0,.11.8,1.47,1.47,0,0,0,1.69.42,1.18,1.18,0,0,0,.72-1,1.33,1.33,0,0,0,.68.85,1.16,1.16,0,0,0,1.41-.2.84.84,0,0,0-.19-1.06,2.27,2.27,0,0,0-.85-.47,2.13,2.13,0,0,0,1.57-.24.71.71,0,0,0,.33-.38.53.53,0,0,0-.09-.38,1.38,1.38,0,0,0-1.18-.59,1.44,1.44,0,0,0-.81.31.86.86,0,0,0-.13-.93,1.22,1.22,0,0,0-1.49-.16.89.89,0,0,0-.36,1,1.18,1.18,0,0,0-1-.34,1.27,1.27,0,0,0-1,.87A.73.73,0,0,0,462.12,215.27Z"/><path class="cls-16" d="M464.26,215.16c0-.25.3-.45.66-.45s.66.2.66.45-.3.44-.66.44S464.26,215.4,464.26,215.16Z"/><path class="cls-15" d="M530.05,243.6a2.09,2.09,0,0,1,1.54-.37,1.09,1.09,0,0,1-.86-.56,1,1,0,0,1,.16-1,2.18,2.18,0,0,1,2.34-.53,1.5,1.5,0,0,1,1,1.22,1.7,1.7,0,0,1,.94-1.06,1.73,1.73,0,0,1,2,.25,1,1,0,0,1-.27,1.33,3.35,3.35,0,0,1-1.16.59,3.17,3.17,0,0,1,2.17.3.89.89,0,0,1,.45.47.59.59,0,0,1-.13.47,1.91,1.91,0,0,1-1.62.74,1.93,1.93,0,0,1-1.12-.38,1,1,0,0,1-.19,1.16,1.84,1.84,0,0,1-2,.21,1.07,1.07,0,0,1-.51-1.3,1.68,1.68,0,0,1-1.41.43,1.7,1.7,0,0,1-1.37-1.09A.86.86,0,0,1,530.05,243.6Z"/><path class="cls-16" d="M533,243.75c0,.3.41.55.91.55s.91-.25.91-.55-.41-.56-.91-.56S533,243.44,533,243.75Z"/><path class="cls-15" d="M449.83,238.41a2.09,2.09,0,0,1,1.54-.37,1.12,1.12,0,0,1-.86-.56,1,1,0,0,1,.16-1A2.18,2.18,0,0,1,453,236a1.5,1.5,0,0,1,1,1.22,1.82,1.82,0,0,1,2.89-.81,1,1,0,0,1-.27,1.33,3.35,3.35,0,0,1-1.16.59,3.17,3.17,0,0,1,2.17.3.86.86,0,0,1,.45.47.59.59,0,0,1-.13.47,1.91,1.91,0,0,1-1.62.74,2.12,2.12,0,0,1-1.12-.38A1,1,0,0,1,455,241a1.84,1.84,0,0,1-2,.21,1.08,1.08,0,0,1-.51-1.3,1.73,1.73,0,0,1-2.78-.66A.85.85,0,0,1,449.83,238.41Z"/><path class="cls-16" d="M452.8,238.55c0,.31.41.56.91.56s.91-.25.91-.56-.41-.55-.91-.55S452.8,238.25,452.8,238.55Z"/><path class="cls-15" d="M466.48,237.4a1.2,1.2,0,0,1,.9-.22.64.64,0,0,1-.5-.32.58.58,0,0,1,.09-.59,1.25,1.25,0,0,1,1.37-.3.86.86,0,0,1,.57.71,1,1,0,0,1,.55-.62,1,1,0,0,1,1.14.14.58.58,0,0,1-.16.78,1.81,1.81,0,0,1-.68.34,1.84,1.84,0,0,1,1.27.18.46.46,0,0,1,.26.27.42.42,0,0,1-.07.28,1.16,1.16,0,0,1-1,.43,1.18,1.18,0,0,1-.65-.22.6.6,0,0,1-.11.67,1.07,1.07,0,0,1-1.2.12.61.61,0,0,1-.29-.76,1,1,0,0,1-.83.25,1,1,0,0,1-.8-.63A.52.52,0,0,1,466.48,237.4Z"/><path class="cls-16" d="M468.21,237.48c0,.18.24.33.53.33s.53-.15.53-.33-.23-.32-.53-.32S468.21,237.3,468.21,237.48Z"/><rect class="cls-22" x="1.41" width="1917.33" height="300"/></g></g></svg>