<svg xmlns="http://www.w3.org/2000/svg" viewBox="0 0 1917.33 300"><defs><style>.cls-1{fill:#5596ca;}.cls-2{fill:none;}</style></defs><title>works-b-tree1</title><g id="圖層_2" data-name="圖層 2"><g id="作品"><path class="cls-1" d="M469.27,142.11c-1.77,0,0,13.81-11,20.53-10,6.11-25.74,2.15-29.53-2.35-2.65-3.17-9.9,4.25-24.26,1.94-10.8-1.73-21.69-10-26.44-18.93,0,0,0,0,0-.08-4.46-8.42-3.51-17.41,8-22.19-13.7-9.2-9.82-29.12,7-33.41-12.38-13.94,6.35-36,24.41-23.3,11.59-12.83,39.39-5.2,30.32,11.05,23.63-2.72,27.14,18.73,17.61,34.36,5.77-3.06,10.52-1.86,13.82,1.44v0C487.58,119.75,486.46,142.11,469.27,142.11Z"/><path class="cls-1" d="M469.27,142.11c-1.77,0,0,13.81-11,20.53-10,6.11-25.74,2.15-29.53-2.35-2.65-3.17-9.9,4.25-24.26,1.94-10.8-1.73-21.69-10-26.44-18.93,9.37,10.39,27,14.72,28-2.56,7.22,12.38,32.09,11.51,40.38-.62,17.49,7.51,30.32-12.25,32.71-28.91C487.58,119.75,486.46,142.11,469.27,142.11Z"/><path class="cls-1" d="M409.84,143a33.36,33.36,0,0,1,3.07,3.48c.11.17-3.33.37-6.16,1.16-4,1.12-7.66,2.89-6.83,3,1.41.13,13.92-3.48,16.43-1.36,4.75,4,9.49,11.85,9.49,24.32,0,22.91-.44,56.57-.44,56.57l-5.87,2.8s-5,2.59,5.41,2.81c10.69.22,13.17.71,14.49-.87s-5.81-2-6.05-5.84c-.65-10.09-4-58.63-.49-68.89,1.44-4.19,4.59-7.11,7.9-9.22.4-.25,8.48,1.84,8.88,1.61.85-.49-5.88-3.08-5.17-3.66,3.62-2.91,6.43-2.58,7-3.3,1.24-1.64-4.47.09-7.71,1.39s-12.19,7.65-12.19,7.65,2.66-8.25,5.18-15.92c.16-.48,8.38-5.54,8.54-6,.28-.87-7.5,2.85-7.23,2,1.31-4,3.2-9.14,3.62-10.28,1.32-3.55-2.5,3.41-4.77,8.9-3.74,9-4.33,15.95-7.09,16.88s-6-9.77-8-15.85c-.7-2.15-1.43-4.09-2.14-5.83-.22-.55,2.75-11.19,2.53-11.7-.37-.83-3.93,8.5-4.29,7.78-3-6.11-5.33-8.16-4.48-5.85,1.93,5.29,13.71,32.69,11.51,33.48s-13.57-12.34-20.53-13.5C400.86,138.18,409.84,143,409.84,143Z"/><path class="cls-1" d="M409.84,143a33.36,33.36,0,0,1,3.07,3.48c.11.17-3.33.37-6.16,1.16-4,1.12-7.66,2.89-6.83,3,1.41.13,13.92-3.48,16.43-1.36,4.75,4,9.49,11.85,9.49,24.32,0,22.91-.44,56.57-.44,56.57l-5.87,2.8s-5,2.59,5.41,2.81c10.69.22,13.17.71,14.49-.87s-5.81-2-6.05-5.84c-.65-10.09-4-58.63-.49-68.89,1.44-4.19,4.59-7.11,7.9-9.22.4-.25,8.48,1.84,8.88,1.61.85-.49-5.88-3.08-5.17-3.66,3.62-2.91,6.43-2.58,7-3.3,1.24-1.64-4.47.09-7.71,1.39s-12.19,7.65-12.19,7.65,2.66-8.25,5.18-15.92c.16-.48,8.38-5.54,8.54-6,.28-.87-7.5,2.85-7.23,2,1.31-4,3.2-9.14,3.62-10.28,1.32-3.55-2.5,3.41-4.77,8.9-3.74,9-4.33,15.95-7.09,16.88s-6-9.77-8-15.85c-.7-2.15-1.43-4.09-2.14-5.83-.22-.55,2.75-11.19,2.53-11.7-.37-.83-3.93,8.5-4.29,7.78-3-6.11-5.33-8.16-4.48-5.85,1.93,5.29,13.71,32.69,11.51,33.48s-13.57-12.34-20.53-13.5C400.86,138.18,409.84,143,409.84,143Z"/><path class="cls-1" d="M524.31,164c-5.19,6.53-23.74,3.66-26.52.3-2-2.38-4.19,5.18-14.72,3.46-4.71-.82-13.42-3.64-14.65-7.26C459.29,137,478.23,87,496.42,85S536.9,148.25,524.31,164Z"/><path class="cls-1" d="M527.45,156.11a17.38,17.38,0,0,1-3.14,7.89c-5.19,6.53-23.74,3.66-26.52.3-2-2.38-4.19,5.18-14.72,3.46-3.79-.66-11.26-2.84-13.9-6,9.53,3.1,17.75-4.25,8.76-14.64,3.43,3.23,13.68,2.47,12.18-5.36-.24-1.26,11,4.12,14.89-6.87-.52.05,5.17,15.39,12.78,12.09C513.34,151.49,525.83,157.67,527.45,156.11Z"/><path class="cls-1" d="M483.89,152.16s11,3.88,11,21-.12,23.8,0,27.22-8.72,5.08-8.72,5.08-2.76,1,5.11.83c8.27-.14,17.53.36,18.5-.83s-8.62-1.75-8.73-5.22c-.23-7.54-2.31-28.61.28-36.29s12.94-11.24,12.94-11.24,1.53-2.72-1-1.48-12.94,8.57-12.94,8.57,3.15-11.21,3.89-13.93c1-3.71-.11-5.56-.11-5.56l-6.05,17.42s-3.09-9.49-4.21-12.58-.91.31-.91.31,4.15,12,2.53,12.57-7.76-5.91-10.35-6.51S483.89,152.16,483.89,152.16Z"/><path class="cls-1" d="M524.31,164c-5.19,6.53-23.74,3.66-26.52.3-2-2.38-4.19,5.18-14.72,3.46-4.71-.82-13.42-3.64-14.65-7.26C459.29,137,478.23,87,496.42,85S536.9,148.25,524.31,164Z"/><path class="cls-1" d="M648.61,162.07c-1.77,1.9-3.68,4.06-7.63,1-2.28-1.77-4.12-5.1-5.46-9.47-2.47-8.05-3.34-19.62-2.44-31.49,1-13.54,13.67-26,20.25-7.77.31.88.62,1.83.89,2.83C658.29,131.69,657.05,153,648.61,162.07Z"/><path class="cls-1" d="M648.61,162.07c-1.77,1.9-3.68,4.06-7.63,1-2.28-1.77-4.12-5.1-5.46-9.47,6.22,6.38,15.4.71,11.15-12.93,5.72-1.33,6.61-15.29,6.66-26.33.31.88.62,1.83.89,2.83C658.29,131.69,657.05,153,648.61,162.07Z"/><path class="cls-1" d="M639.05,154.93c.91.76,3.57,3.18,4,5a26.41,26.41,0,0,1,.57,5.73c0,9.86.38,30.8.38,30.8l-2.68,1.66s-2.93,1.76,1.15,1.08,6.24.62,6.75-.06-2.85-.64-2.93-3.31c-.13-4.34-1.31-31.53,0-35.95s4.56-4.61,4.73-5.76-.76-.57-.76-.57l-4.48,3.95s1.86-5.48,2.37-7-.28-1.6-.95-.07l-2.61,5.89s-1.54-4.42-1.92-5.89c-.18-.68-.74-1.57-.95-.51s2.36,6.23,1.51,6.57-2.79-1.79-4.13-2.68C638,153,637.84,153.91,639.05,154.93Z"/><path class="cls-1" d="M648.61,162.07c-1.77,1.9-3.68,4.06-7.63,1-2.28-1.77-4.12-5.1-5.46-9.47-2.47-8.05-3.34-19.62-2.44-31.49,1-13.54,13.67-26,20.25-7.77.31.88.62,1.83.89,2.83C658.29,131.69,657.05,153,648.61,162.07Z"/><path class="cls-1" d="M575.37,154.35s11.57,4.15,11.57,19.18-.3,22.29-.3,22.29l-5.49,4.51s-2.66,1.36,4.65.33,12.2,2.2,13.12,1.16-6-3.32-6.19-5c-.84-6.6-3.35-25.4-.91-32.14S605,154.28,605,154.28s.29-2.47-2.88-1.11-11.22,7.92-11.22,7.92,6.54-14.22,7.46-16.55-2-2.11-2-2.11l-7.62,16.85s-3-11.93-4.57-14.3-2.13.3-2.13.3,5.79,13.74,4.27,14.26-9.45-8.28-11.88-8.8S575.37,154.35,575.37,154.35Z"/><path class="cls-1" d="M614.33,156.84c-13.44,2.77-20.41-3.51-22.2-5.94-13.13,9.68-19.94,2.24-19.94,2.24-19.68,11.9-36.09-22.42-14.69-27.06-11.44-6.83-7.7-17.51.14-24,9.26-7.61,24.51-9.93,31.46-1.51,11.34-9,33.43,3.13,25.62,19.5,6.7-1.94,14.19,5.69,16.51,12.27C634.33,141.14,624,154.86,614.33,156.84Z"/><path class="cls-1" d="M614.33,156.84c-13.44,2.77-20.41-3.51-22.2-5.94-13.13,9.68-19.94,2.24-19.94,2.24-16,9.67-29.89-11.24-22.92-21.87a8.72,8.72,0,0,0,2.32,7.47c5.38,6,16.73,4,18.57,1.51,3.87,9.48,21.75,1.26,19.77-9,3.77,9.26,10.51,12.36,20.47,10.26,9.6-2,14.67-8.53,16-16.78a22,22,0,0,1,4.79,7.61C634.33,141.14,624,154.86,614.33,156.84Z"/><path class="cls-1" d="M1241.74,177.58c-9,.21-12.22-4.86-13-11-1.72-12.94,7.91-45.73,11.45-45.87,2.88-.1,11.94,24.53,13.73,35.91C1255.2,164.86,1254.31,177.31,1241.74,177.58Z"/><path class="cls-1" d="M1241.74,177.58c-9,.21-12.22-4.86-13-11a8.34,8.34,0,0,0,7.62,4.34c9.08-.15,14.06-11.1,16.08-21.06.65,2.49,1.17,4.81,1.48,6.76C1255.2,164.86,1254.31,177.31,1241.74,177.58Z"/><path class="cls-1" d="M1234.87,171.54c-.31.67,5.4,2.48,5.4,11s.42,13.43.42,13.43-3.75,1.14-3.68,1.59a12,12,0,0,0,2.74-.07c3.4-.31,5.25.31,5.63-.31s-2.75-.53-2.88-1.29c-.52-3.2-1.06-14.52.11-18.34s5.5-6.12,4.8-6.43-5.23,4.38-5.23,4.38,3-9.89,2.64-10.07-3.67,9-3.67,9-2.72-8.29-3.23-7.93,2.79,7.78,2,8.08S1235.18,170.87,1234.87,171.54Z"/><path class="cls-1" d="M1418.07,144c-1.28,0,0,10-8,14.87-7.26,4.42-18.64,1.55-21.38-1.71-1.92-2.3-7.17,3.08-17.56,1.41-7.83-1.25-15.71-7.23-19.15-13.71,0,0,0,0,0-.06-3.22-6.09-2.53-12.6,5.77-16.07-9.91-6.65-7.11-21.08,5.08-24.18-9-10.1,4.59-26,17.67-16.88,8.4-9.28,28.52-3.76,22,8,17.11-2,19.65,13.56,12.75,24.87,4.18-2.21,7.62-1.34,10,1v0C1431.33,127.78,1430.52,144,1418.07,144Z"/><path class="cls-1" d="M1418.07,144c-1.28,0,0,10-8,14.87-7.26,4.42-18.64,1.55-21.38-1.71-1.92-2.3-7.17,3.08-17.56,1.41-7.83-1.25-15.71-7.23-19.15-13.71,6.78,7.53,19.53,10.66,20.28-1.85,5.23,9,23.23,8.33,29.24-.45,12.66,5.44,22-8.87,23.68-20.93C1431.33,127.78,1430.52,144,1418.07,144Z"/><path class="cls-1" d="M1375,144.63a25.55,25.55,0,0,1,2.23,2.51c.08.13-2.41.27-4.47.85-2.87.81-5.54,2.09-4.94,2.15,1,.09,10.08-2.52,11.89-1,3.45,2.92,6.88,8.57,6.88,17.61,0,16.58-.32,40.95-.32,40.95l-4.25,2s-3.6,1.87,3.92,2c7.74.16,9.53.52,10.49-.62s-4.21-1.47-4.39-4.23c-.46-7.31-2.9-42.45-.35-49.89a13.18,13.18,0,0,1,5.72-6.67c.29-.18,6.14,1.33,6.43,1.17.61-.36-4.26-2.24-3.75-2.65,2.63-2.11,4.66-1.87,5-2.39.9-1.19-3.23.06-5.58,1s-8.82,5.54-8.82,5.54,1.92-6,3.75-11.53c.11-.34,6.06-4,6.18-4.34.2-.64-5.43,2.06-5.23,1.46,1-2.89,2.31-6.61,2.61-7.44,1-2.57-1.8,2.47-3.45,6.44-2.7,6.53-3.13,11.55-5.13,12.23s-4.35-7.08-5.79-11.48c-.51-1.56-1-3-1.54-4.22-.17-.4,2-8.1,1.82-8.47-.26-.61-2.84,6.15-3.1,5.63-2.16-4.43-3.86-5.91-3.25-4.23,1.41,3.82,9.93,23.67,8.34,24.24s-9.83-8.94-14.87-9.78C1368.54,141.12,1375,144.63,1375,144.63Z"/><path class="cls-1" d="M1375,144.63a25.55,25.55,0,0,1,2.23,2.51c.08.13-2.41.27-4.47.85-2.87.81-5.54,2.09-4.94,2.15,1,.09,10.08-2.52,11.89-1,3.45,2.92,6.88,8.57,6.88,17.61,0,16.58-.32,40.95-.32,40.95l-4.25,2s-3.6,1.87,3.92,2c7.74.16,9.53.52,10.49-.62s-4.21-1.47-4.39-4.23c-.46-7.31-2.9-42.45-.35-49.89a13.18,13.18,0,0,1,5.72-6.67c.29-.18,6.14,1.33,6.43,1.17.61-.36-4.26-2.24-3.75-2.65,2.63-2.11,4.66-1.87,5-2.39.9-1.19-3.23.06-5.58,1s-8.82,5.54-8.82,5.54,1.92-6,3.75-11.53c.11-.34,6.06-4,6.18-4.34.2-.64-5.43,2.06-5.23,1.46,1-2.89,2.31-6.61,2.61-7.44,1-2.57-1.8,2.47-3.45,6.44-2.7,6.53-3.13,11.55-5.13,12.23s-4.35-7.08-5.79-11.48c-.51-1.56-1-3-1.54-4.22-.17-.4,2-8.1,1.82-8.47-.26-.61-2.84,6.15-3.1,5.63-2.16-4.43-3.86-5.91-3.25-4.23,1.41,3.82,9.93,23.67,8.34,24.24s-9.83-8.94-14.87-9.78C1368.54,141.12,1375,144.63,1375,144.63Z"/><path class="cls-1" d="M1473.74,164c-6,7.55-27.45,4.23-30.67.34-2.25-2.75-4.84,6-17,4-5.45-.95-15.52-4.22-17-8.4-10.55-27.24,11.36-85,32.39-87.29S1488.3,145.74,1473.74,164Z"/><path class="cls-1" d="M1477.37,154.84a20.19,20.19,0,0,1-3.63,9.12c-6,7.55-27.45,4.23-30.67.34-2.25-2.75-4.84,6-17,4-4.38-.77-13-3.28-16.07-7,11,3.59,20.52-4.91,10.13-16.93,4,3.74,15.82,2.86,14.08-6.2-.28-1.45,12.69,4.77,17.21-7.95-.59.07,6,17.81,14.79,14C1461.06,149.5,1475.5,156.63,1477.37,154.84Z"/><path class="cls-1" d="M1427,150.26s12.76,4.5,12.76,24.33-.14,27.53,0,31.48-10.09,5.88-10.09,5.88-3.19,1.1,5.91,1c9.57-.15,20.27.42,21.39-1s-10-2-10.09-6c-.27-8.72-2.68-33.08.31-42s15-13,15-13,1.78-3.14-1.12-1.71-15,9.92-15,9.92,3.64-13,4.5-16.11c1.17-4.29-.13-6.44-.13-6.44l-7,20.16s-3.56-11-4.87-14.55-1,.35-1,.35,4.79,13.86,2.92,14.54-9-6.84-12-7.53S1427,150.26,1427,150.26Z"/><path class="cls-1" d="M1473.74,164c-6,7.55-27.45,4.23-30.67.34-2.25-2.75-4.84,6-17,4-5.45-.95-15.52-4.22-17-8.4-10.55-27.24,11.36-85,32.39-87.29S1488.3,145.74,1473.74,164Z"/><path class="cls-1" d="M1270.86,158.85s10.54,3.78,10.54,17.46-.28,20.28-.28,20.28l-5,4.09s-2.42,1.25,4.23.31,11.1,2,11.94,1-5.44-3-5.63-4.51c-.77-6-3.05-23.11-.84-29.24s12-9.51,12-9.51.27-2.25-2.62-1S1285,165,1285,165s6-13,6.79-15.07S1290,148,1290,148l-6.93,15.33s-2.75-10.85-4.16-13-1.94.28-1.94.28,5.27,12.5,3.89,13-8.6-7.54-10.81-8S1270.86,158.85,1270.86,158.85Z"/><path class="cls-1" d="M1306.32,161.12c-12.23,2.51-18.57-3.2-20.2-5.41-11.95,8.81-18.14,2-18.14,2-17.91,10.83-32.84-20.39-13.37-24.61-10.41-6.22-7-15.94.12-21.83,8.43-6.92,22.31-9,28.63-1.37,10.32-8.22,30.42,2.85,23.32,17.74,6.09-1.76,12.9,5.18,15,11.17C1324.52,146.83,1315.1,159.32,1306.32,161.12Z"/><path class="cls-1" d="M1306.32,161.12c-12.23,2.51-18.57-3.2-20.2-5.41-11.95,8.81-18.14,2-18.14,2-14.57,8.81-27.21-10.22-20.86-19.89a8,8,0,0,0,2.11,6.8c4.89,5.48,15.22,3.68,16.9,1.37,3.52,8.63,19.79,1.14,18-8.17,3.42,8.42,9.56,11.24,18.62,9.34,8.73-1.86,13.35-7.77,14.59-15.28a19.94,19.94,0,0,1,4.37,6.93C1324.52,146.83,1315.1,159.32,1306.32,161.12Z"/><rect class="cls-2" width="1917.33" height="300"/></g></g></svg>