<svg xmlns="http://www.w3.org/2000/svg" viewBox="0 0 1921 301.86"><defs><style>.cls-1,.cls-14,.cls-21{fill:#94c28b;}.cls-17,.cls-18,.cls-2,.cls-20,.cls-24,.cls-6{fill:none;}.cls-14,.cls-17,.cls-18,.cls-19,.cls-2,.cls-20,.cls-21,.cls-6,.cls-8{stroke:#4d3224;}.cls-14,.cls-17,.cls-18,.cls-2,.cls-20,.cls-21,.cls-6{stroke-linecap:round;stroke-linejoin:round;}.cls-2{stroke-width:2px;}.cls-3{fill:#50a33f;}.cls-4{fill:#479137;}.cls-5{fill:#4d3224;}.cls-6{stroke-width:1.74px;}.cls-7{fill:#5ab747;}.cls-19,.cls-8{fill:#7bb52d;stroke-miterlimit:10;}.cls-8{stroke-width:1.26px;}.cls-9{fill:#72a72a;}.cls-10{fill:#8acc2b;}.cls-11{fill:#68ad59;}.cls-12{fill:#60a053;}.cls-13{fill:#74c163;}.cls-14{stroke-width:1.78px;}.cls-15{fill:#f5ebb2;}.cls-16{fill:#d5b68d;}.cls-17{stroke-width:1.8px;}.cls-18{stroke-width:1.71px;}.cls-19{stroke-width:1.28px;}.cls-20{stroke-width:1.36px;}.cls-21{stroke-width:1.81px;}.cls-22{fill:#f5e379;}.cls-23{fill:#d59b50;}</style></defs><title>works-mountain</title><g id="圖層_2" data-name="圖層 2"><g id="作品"><path class="cls-1" d="M1921,301.86V270.65c-252.33-90.17-671.09-96.1-968.26-97.3C608.27,172,299.89,193.39,1,270.65v27.21"/><path class="cls-2" d="M1919,270.65c-252.33-90.17-669.09-96.1-966.26-97.3C608.27,172,299.89,193.39,1,270.65"/><path class="cls-3" d="M1459.11,166.87c-17.1,6.57-21.47,1-28.07-5.11,0,0-4,7.43-12.7,8.53-15.65,2-37.44-36.86-9.34-49.79-4.56-23.43,34.32-27.15,44.49-18,1.86,1.67,7.82,7.53,6.6,10-.71,1.43,8.27-2.38,14.16,19.58C1478.72,151.13,1464.27,164.88,1459.11,166.87Z"/><path class="cls-4" d="M1459.11,166.87c-17.1,6.57-21.47,1-28.07-5.11,0,0-4,7.43-12.7,8.53-12,1.52-27.54-20.84-21.61-37.25.26,18.85,30.87,31.55,34.74,15.53,2.73,14.23,32.63,10.06,29.29-3.86,6.58.09,11.24-5.85,13.49-12.67l.47,1.9C1478.41,149.1,1465.46,164.43,1459.11,166.87Z"/><path class="cls-5" d="M1420.5,166.49s13.61,17.41,13.61,38.19c0,15.81-.29,4.78-.42,9.2,0,1.38-3.55,1.81-3.55,3.16s13.21,1.53,13.27-.9c0-.55-2.85-1.6-2.86-2.26-.2-10.46-3.41-24.3-.71-33.06,2.6-8.43,16.59-16.63,15.79-16.32,0,0-1.21-1.36-4.38.45s-12.49,10.85-12.49,10.85,6.81-19.34,7.89-22.56-1.44-3.22-1.44-3.22l-9,23.27-5.81-20.85s-2.94-1.49-2.07,1.51,6.8,19,5,19.71-8.6-7.17-11.46-7.89S1420.5,166.49,1420.5,166.49Z"/><path class="cls-6" d="M1459.11,166.87c-17.1,6.57-21.47,1-28.07-5.11,0,0-4,7.43-12.7,8.53-15.65,2-37.44-36.86-9.34-49.79-4.56-23.43,34.32-27.15,44.49-18,1.86,1.67,7.82,7.53,6.6,10-.71,1.43,8.27-2.38,14.16,19.58C1478.72,151.13,1464.27,164.88,1459.11,166.87Z"/><path class="cls-7" d="M1431.86,111.49a5.31,5.31,0,0,0-1.11,1.14,5.63,5.63,0,0,0-1.07,2.9,7.68,7.68,0,0,0,.31,2.52,2.37,2.37,0,0,0,1,1.46c.5.26,1.19.06,1.81-.7a5.61,5.61,0,0,0,1-3.18,5.05,5.05,0,0,0-1-2.93A12.87,12.87,0,0,0,1431.86,111.49Z"/><path class="cls-7" d="M1425.51,112a5.48,5.48,0,0,0-.61,3.88c.59,1.85,1.81,3.1,2.74,2.8s1.2-2,.61-3.9A5.44,5.44,0,0,0,1425.51,112Z"/><path class="cls-7" d="M1419,115.49a5.51,5.51,0,0,0,0,1.4,4.54,4.54,0,0,0,1.17,2.51c1.37,1.37,2.8,2,3.7,1.44s.41-2.51-1.1-4a4.77,4.77,0,0,0-2.43-1.17A8.78,8.78,0,0,0,1419,115.49Z"/><path class="cls-7" d="M1416.59,122a4.75,4.75,0,0,0,2.29,2.31c1.43.59,2.86.5,3.22-.25s-.61-1.86-2.18-2.52A4.51,4.51,0,0,0,1416.59,122Z"/><path class="cls-7" d="M1438.59,117.55a3,3,0,0,0-2.06.44c-.82.55-1.26,1.36-1,1.83s1.22.34,2.16-.3A2.94,2.94,0,0,0,1438.59,117.55Z"/><path class="cls-7" d="M1456.18,136.44a3.1,3.1,0,0,0-.94.4,3.5,3.5,0,0,0-1.34,1.43,5,5,0,0,0-.45,1.56,1.47,1.47,0,0,0,.24,1.11c.22.28.68.33,1.23,0a3.46,3.46,0,0,0,1.37-1.63,3.11,3.11,0,0,0,.14-2A8.72,8.72,0,0,0,1456.18,136.44Z"/><path class="cls-7" d="M1447.64,135.61a3.37,3.37,0,0,0-.32.84,2.91,2.91,0,0,0,.06,1.77c.47,1.14,1.16,1.86,1.82,1.75s.87-1.37.35-2.63a3,3,0,0,0-1.14-1.29A5.46,5.46,0,0,0,1447.64,135.61Z"/><path class="cls-7" d="M1444.6,138.83a3,3,0,0,0,.78,1.92c.69.7,1.56,1,1.95.65s.1-1.25-.66-2A2.84,2.84,0,0,0,1444.6,138.83Z"/><path class="cls-7" d="M1458.64,141.67a2,2,0,0,0-1.33-.25c-.61.12-1.07.49-1,.82s.63.51,1.34.36A1.88,1.88,0,0,0,1458.64,141.67Z"/><path class="cls-8" d="M1354.55,200.33c-11.29.26-15.31-6.09-16.34-13.78-2.16-16.22,9.92-57.29,14.34-57.46,3.62-.13,15,30.72,17.21,45C1371.41,184.4,1370.29,200,1354.55,200.33Z"/><path class="cls-9" d="M1354.55,200.33c-11.29.26-15.31-6.09-16.34-13.78a10.5,10.5,0,0,0,9.55,5.44c11.37-.2,17.61-13.92,20.15-26.39.81,3.12,1.46,6,1.85,8.47C1371.41,184.4,1370.29,200,1354.55,200.33Z"/><path class="cls-5" d="M1346,192.76c-.39.84,6.75,3.11,6.75,13.77s.53,16.82.53,16.82-4.7,1.43-4.61,2a14.67,14.67,0,0,0,3.44-.08c4.25-.39,6.58.38,7-.39s-3.44-.67-3.6-1.62c-.65-4-1.33-18.19.14-23s6.88-7.68,6-8.06-6.57,5.48-6.57,5.48,3.78-12.38,3.31-12.6-4.59,11.32-4.59,11.32-3.41-10.39-4-9.93,3.5,9.74,2.58,10.11S1346.34,191.92,1346,192.76Z"/><path class="cls-6" d="M1354.55,200.33c-11.29.26-15.31-6.09-16.34-13.78-2.16-16.22,9.92-57.29,14.34-57.46,3.62-.13,15,30.72,17.21,45C1371.41,184.4,1370.29,200,1354.55,200.33Z"/><path class="cls-10" d="M1347.33,168.66a3,3,0,0,1,.8.67,3.68,3.68,0,0,1,.9,1.83,5,5,0,0,1,0,1.68,1.55,1.55,0,0,1-.57,1c-.3.2-.77.12-1.23-.34a3.67,3.67,0,0,1-.86-2,3.4,3.4,0,0,1,.46-2A8,8,0,0,1,1347.33,168.66Z"/><path class="cls-10" d="M1351.53,168.59a3.59,3.59,0,0,1,.66,2.51c-.27,1.25-1,2.16-1.61,2s-.93-1.26-.66-2.52A3.58,3.58,0,0,1,1351.53,168.59Z"/><path class="cls-10" d="M1356,170.43a3.61,3.61,0,0,1,.06.92,3,3,0,0,1-.6,1.73c-.81,1-1.71,1.48-2.33,1.18s-.44-1.62.45-2.7a3,3,0,0,1,1.52-.93A4.7,4.7,0,0,1,1356,170.43Z"/><path class="cls-10" d="M1358,174.52a3,3,0,0,1-1.35,1.66c-.89.49-1.84.52-2.12.06s.27-1.27,1.26-1.8A3,3,0,0,1,1358,174.52Z"/><path class="cls-10" d="M1343.32,173.07a2,2,0,0,1,1.38.16c.57.31.91.81.78,1.13s-.77.31-1.44-.05A1.93,1.93,0,0,1,1343.32,173.07Z"/><path class="cls-10" d="M1353.66,145.4a3.38,3.38,0,0,1,.56.88,3.65,3.65,0,0,1,.31,2,5.07,5.07,0,0,1-.53,1.59,1.56,1.56,0,0,1-.85.81c-.35.1-.77-.12-1.07-.69a3.58,3.58,0,0,1-.22-2.19,3.33,3.33,0,0,1,1-1.76C1353.3,145.67,1353.66,145.4,1353.66,145.4Z"/><path class="cls-10" d="M1357.69,146.59a3.65,3.65,0,0,1-.12,2.59c-.63,1.11-1.58,1.76-2.14,1.44s-.51-1.47.12-2.59A3.57,3.57,0,0,1,1357.69,146.59Z"/><path class="cls-10" d="M1348.51,148.42a2,2,0,0,1,1.27.56c.46.46.64,1.05.41,1.32s-.83.06-1.36-.48A2,2,0,0,1,1348.51,148.42Z"/><path class="cls-11" d="M1502.37,196.34c-22.17,0-40.19-26.32-40.78-59.18,0-37.25,19.32-62.3,40.78-62.3,19,0,35,19.44,39.53,45.7C1548.45,159.08,1528.93,196.34,1502.37,196.34Z"/><path class="cls-12" d="M1523.06,187.21c2-2,12.13-14.69,12.77-18.29-1.81,1.73-14.16-2.89-9.21-8-8.49,3.67-16.86-8.2-16.29-8.26-4.36,12.26-16.86,6.26-16.6,7.66,1.68,8.73-9.75,9.58-13.57,6,1.67,10.43,2.13,13.89-8.49,10.43,2.93,3.57,8.26,12,12.48,12.78C1484.15,189.54,1505.06,205.21,1523.06,187.21Z"/><path class="cls-5" d="M1484.83,181.68s16.13,5.77,16.13,26.71-.43,31-.43,31l-7.64,6.27s-3.7,1.9,6.48.46,17,3.06,18.26,1.62-8.32-4.63-8.62-6.91c-1.17-9.19-4.66-35.37-1.27-44.75s18.37-14.54,18.37-14.54.41-3.45-4-1.55-15.63,11-15.63,11,9.12-19.81,10.39-23.06-2.75-2.93-2.75-2.93l-10.61,23.46s-4.21-16.62-6.37-19.91-3,.41-3,.41,8.06,19.13,5.94,19.86-13.15-11.53-16.54-12.25S1484.83,181.68,1484.83,181.68Z"/><path class="cls-6" d="M1502.37,196.34c-22.17,0-40.19-26.32-40.78-59.18,0-37.25,19.32-62.3,40.78-62.3,19,0,35,19.44,39.53,45.7C1548.45,159.08,1528.93,196.34,1502.37,196.34Z"/><path class="cls-13" d="M1517.66,102.94a5.26,5.26,0,0,0-1.65.4,5.9,5.9,0,0,0-2.61,2,8,8,0,0,0-1.16,2.45,2.54,2.54,0,0,0,.08,1.89c.3.52,1,.73,2,.39a5.84,5.84,0,0,0,2.7-2.3,5.28,5.28,0,0,0,.77-3.21A15.05,15.05,0,0,0,1517.66,102.94Z"/><path class="cls-13" d="M1511.62,99.81a5.87,5.87,0,0,0-2.76,3.16c-.52,2-.13,3.83.88,4.09s2.24-1.16,2.76-3.17A5.79,5.79,0,0,0,1511.62,99.81Z"/><path class="cls-13" d="M1503.81,99.24a6.15,6.15,0,0,0-.76,1.29,4.92,4.92,0,0,0-.38,2.93c.46,2,1.41,3.38,2.52,3.4s1.8-2,1.3-4.25a5.09,5.09,0,0,0-1.52-2.44A9.63,9.63,0,0,0,1503.81,99.24Z"/><path class="cls-13" d="M1497.93,103.7a5,5,0,0,0,.75,3.38c.94,1.35,2.29,2.08,3,1.61s.51-2-.53-3.51A4.77,4.77,0,0,0,1497.93,103.7Z"/><path class="cls-13" d="M1520.28,112.23a3.23,3.23,0,0,0-2.11-.77c-1.05,0-1.91.51-2,1.07s.9,1,2.12,1A3.11,3.11,0,0,0,1520.28,112.23Z"/><path class="cls-13" d="M1482.8,121.19a4.51,4.51,0,0,1,2.11,2.42c.39,1.53.1,2.92-.67,3.12s-1.72-.89-2.12-2.42A4.44,4.44,0,0,1,1482.8,121.19Z"/><path class="cls-13" d="M1478.76,126.65a2.45,2.45,0,0,1,1.61-.59c.8,0,1.46.39,1.49.82s-.69.77-1.62.74A2.38,2.38,0,0,1,1478.76,126.65Z"/><path class="cls-13" d="M1527.52,141.39a3.21,3.21,0,0,0-1.52,1.73c-.28,1.1-.07,2.1.49,2.23s1.22-.63,1.51-1.73A3.19,3.19,0,0,0,1527.52,141.39Z"/><path class="cls-13" d="M1523.24,141.07a3.37,3.37,0,0,0-.42.71,2.67,2.67,0,0,0-.2,1.6c.25,1.11.76,1.86,1.38,1.87s1-1.12.71-2.33a2.75,2.75,0,0,0-.84-1.33A5,5,0,0,0,1523.24,141.07Z"/><path class="cls-13" d="M1520,143.52a2.77,2.77,0,0,0,.42,1.85c.52.74,1.25,1.14,1.66.88s.28-1.11-.29-1.92A2.63,2.63,0,0,0,1520,143.52Z"/><path class="cls-14" d="M1440.38,215a8.25,8.25,0,0,0-2.83-5.93.7.7,0,0,0-1.17.42,11.62,11.62,0,0,0,1,6.39,9.27,9.27,0,0,0-4.58-6.62.7.7,0,0,0-1,.52,7,7,0,0,0,1.57,5.32,8.45,8.45,0,0,0-4.72-3.12.7.7,0,0,0-.83.86,6,6,0,0,0,3.73,4.25c-1.56-1.14-3.27-2.32-5.19-2.28-1.76,0-3.54,1.67-3.27,3.3a.73.73,0,0,0,.54.57c5.21,1.22,10.65,1.09,16,.94a14.92,14.92,0,0,0,4.71-.62,5.61,5.61,0,0,0,2.86-2.22.7.7,0,0,0-.74-1l-.24.07a.68.68,0,0,1-.88-.8l.43-2a1.79,1.79,0,0,0-.18-1.62c-.7-.72-1.92.23-2.15,1.21s-.1,2.12-.78,2.86c.39-1.86,1.22-4.47-.28-5.64a.83.83,0,0,0-1.16-.07C1439.63,210.62,1440.12,213.18,1440.38,215Z"/><path class="cls-14" d="M1521.4,243.13a8.23,8.23,0,0,0-3-5.83.7.7,0,0,0-1.15.46,11.67,11.67,0,0,0,1.19,6.36,9.26,9.26,0,0,0-4.8-6.47.7.7,0,0,0-1,.56,7,7,0,0,0,1.75,5.26,8.51,8.51,0,0,0-4.83-3,.7.7,0,0,0-.79.89,6.05,6.05,0,0,0,3.87,4.12c-1.6-1.08-3.35-2.21-5.27-2.1-1.75.09-3.48,1.79-3.15,3.41a.72.72,0,0,0,.55.55c5.26,1,10.68.72,16,.4a14.73,14.73,0,0,0,4.68-.79,5.42,5.42,0,0,0,2.78-2.31.69.69,0,0,0-.76-1l-.24.08a.69.69,0,0,1-.92-.78l.37-2a1.79,1.79,0,0,0-.24-1.62c-.72-.7-1.91.29-2.1,1.28s0,2.13-.69,2.89c.33-1.88,1.08-4.52-.47-5.63a.83.83,0,0,0-1.16,0C1520.5,238.82,1521.08,241.36,1521.4,243.13Z"/><path class="cls-14" d="M1405.76,205.21a4.68,4.68,0,0,0-1.73-3.33.4.4,0,0,0-.66.26,6.65,6.65,0,0,0,.69,3.64,5.3,5.3,0,0,0-2.75-3.7.4.4,0,0,0-.58.32,4,4,0,0,0,1,3,4.8,4.8,0,0,0-2.76-1.69.4.4,0,0,0-.45.51,3.45,3.45,0,0,0,2.21,2.35,5.12,5.12,0,0,0-3-1.2,1.88,1.88,0,0,0-1.81,2,.41.41,0,0,0,.32.31,36.06,36.06,0,0,0,9.17.24,8.67,8.67,0,0,0,2.68-.46,3.13,3.13,0,0,0,1.59-1.32.4.4,0,0,0-.44-.58l-.14,0a.4.4,0,0,1-.52-.45l.21-1.15a1,1,0,0,0-.14-.92c-.41-.4-1.09.16-1.2.73s0,1.22-.39,1.65c.19-1.07.61-2.58-.27-3.22a.47.47,0,0,0-.67,0C1405.25,202.75,1405.58,204.2,1405.76,205.21Z"/><path class="cls-14" d="M1337.68,226.56a6,6,0,0,0-2.21-4.25.52.52,0,0,0-.84.34,8.53,8.53,0,0,0,.87,4.63,6.72,6.72,0,0,0-3.49-4.71.51.51,0,0,0-.74.4,5.13,5.13,0,0,0,1.27,3.84,6.13,6.13,0,0,0-3.51-2.16.52.52,0,0,0-.58.65,4.42,4.42,0,0,0,2.82,3,6.52,6.52,0,0,0-3.84-1.53c-1.27.07-2.53,1.3-2.29,2.49a.5.5,0,0,0,.4.39,46.08,46.08,0,0,0,11.68.3,10.84,10.84,0,0,0,3.4-.58,4,4,0,0,0,2-1.68.51.51,0,0,0-.56-.74l-.18.06a.5.5,0,0,1-.66-.56l.27-1.47a1.31,1.31,0,0,0-.18-1.18c-.52-.51-1.39.21-1.53.93s0,1.55-.5,2.11c.24-1.37.78-3.29-.34-4.11a.61.61,0,0,0-.85,0C1337,223.42,1337.45,225.27,1337.68,226.56Z"/><path class="cls-15" d="M1330.42,199a1.78,1.78,0,0,1-1.28.31.9.9,0,0,1,.71.45.78.78,0,0,1-.13.82,1.84,1.84,0,0,1-2,.43,1.24,1.24,0,0,1-.82-1,1.38,1.38,0,0,1-.78.87,1.45,1.45,0,0,1-1.63-.2.79.79,0,0,1,.22-1.09,2.76,2.76,0,0,1,1-.48,2.68,2.68,0,0,1-1.81-.25.69.69,0,0,1-.37-.38.52.52,0,0,1,.1-.39,1.61,1.61,0,0,1,1.36-.6,1.71,1.71,0,0,1,.93.3.8.8,0,0,1,.16-.94,1.54,1.54,0,0,1,1.71-.17.87.87,0,0,1,.42,1.06,1.45,1.45,0,0,1,1.18-.35,1.4,1.4,0,0,1,1.15.89A.71.71,0,0,1,1330.42,199Z"/><path class="cls-16" d="M1327.94,198.91c0-.25-.34-.45-.76-.45s-.76.2-.76.45.34.46.76.46S1327.94,199.16,1327.94,198.91Z"/><path class="cls-15" d="M1306.87,203.12a2.41,2.41,0,0,1-1.75.42,1.21,1.21,0,0,1,1,.62,1.06,1.06,0,0,1-.18,1.13,2.51,2.51,0,0,1-2.67.59,1.71,1.71,0,0,1-1.13-1.37,2,2,0,0,1-1.08,1.19,2,2,0,0,1-2.23-.28,1.09,1.09,0,0,1,.31-1.49,3.61,3.61,0,0,1,1.33-.66,3.76,3.76,0,0,1-2.48-.34.91.91,0,0,1-.51-.53.66.66,0,0,1,.14-.53,2.21,2.21,0,0,1,1.85-.83,2.36,2.36,0,0,1,1.28.43,1.1,1.1,0,0,1,.22-1.3,2.15,2.15,0,0,1,2.35-.24,1.19,1.19,0,0,1,.57,1.46,2,2,0,0,1,3.19.74A1,1,0,0,1,1306.87,203.12Z"/><path class="cls-16" d="M1303.48,203c0-.35-.47-.63-1-.63s-1,.28-1,.63.46.62,1,.62S1303.48,203.3,1303.48,203Z"/><path class="cls-15" d="M1283.52,195.57a2.26,2.26,0,0,1,1.63-.46,1.18,1.18,0,0,1-.94-.55,1,1,0,0,1,.14-1.06,2.35,2.35,0,0,1,2.49-.65,1.6,1.6,0,0,1,1.11,1.25,1.81,1.81,0,0,1,1-1.16,1.88,1.88,0,0,1,2.11.18,1,1,0,0,1-.23,1.41,3.56,3.56,0,0,1-1.23.67,3.53,3.53,0,0,1,2.34.23.91.91,0,0,1,.5.48.61.61,0,0,1-.11.5,2.1,2.1,0,0,1-1.72.85,2.24,2.24,0,0,1-1.21-.36,1,1,0,0,1-.16,1.23,2,2,0,0,1-2.2.3,1.11,1.11,0,0,1-.59-1.35,1.87,1.87,0,0,1-1.51.51,1.83,1.83,0,0,1-1.51-1.09A.88.88,0,0,1,1283.52,195.57Z"/><path class="cls-16" d="M1286.72,195.6c0,.32.45.57,1,.55s1-.3,1-.62-.46-.57-1-.55S1286.7,195.28,1286.72,195.6Z"/><path class="cls-15" d="M1460.57,203a2.34,2.34,0,0,1,1.75-.43,1.24,1.24,0,0,1-1-.63,1.11,1.11,0,0,1,.18-1.15,2.49,2.49,0,0,1,2.67-.6,1.72,1.72,0,0,1,1.12,1.4,2.06,2.06,0,0,1,3.3-.93,1.11,1.11,0,0,1-.31,1.51,3.55,3.55,0,0,1-1.33.67,3.69,3.69,0,0,1,2.48.35,1,1,0,0,1,.51.53.71.71,0,0,1-.14.54,2.16,2.16,0,0,1-1.85.84,2.26,2.26,0,0,1-1.28-.43,1.14,1.14,0,0,1-.21,1.32,2.1,2.1,0,0,1-2.35.24,1.22,1.22,0,0,1-.57-1.48,2,2,0,0,1-3.18-.75A1,1,0,0,1,1460.57,203Z"/><path class="cls-16" d="M1464,203.18c0,.35.46.63,1,.63s1-.28,1-.63-.46-.63-1-.63S1464,202.83,1464,203.18Z"/><path class="cls-15" d="M1392.57,223.72a3,3,0,0,1,2.19-.53,1.56,1.56,0,0,1-1.22-.79,1.39,1.39,0,0,1,.23-1.44,3.12,3.12,0,0,1,3.34-.75,2.18,2.18,0,0,1,1.41,1.75,2.58,2.58,0,0,1,4.12-1.16,1.39,1.39,0,0,1-.38,1.89,4.49,4.49,0,0,1-1.66.84,4.58,4.58,0,0,1,3.1.43,1.26,1.26,0,0,1,.64.67.91.91,0,0,1-.18.68,2.7,2.7,0,0,1-2.32,1.05,2.93,2.93,0,0,1-1.59-.53,1.44,1.44,0,0,1-.27,1.65,2.64,2.64,0,0,1-2.94.3,1.53,1.53,0,0,1-.71-1.86,2.45,2.45,0,0,1-2,.61,2.42,2.42,0,0,1-2-1.55A1.24,1.24,0,0,1,1392.57,223.72Z"/><path class="cls-16" d="M1396.81,223.93c0,.44.58.79,1.3.79s1.29-.35,1.29-.79-.58-.79-1.29-.79S1396.81,223.49,1396.81,223.93Z"/><path class="cls-15" d="M1416.34,224.4a1.69,1.69,0,0,1,1.28-.31.92.92,0,0,1-.71-.47.8.8,0,0,1,.13-.83,1.81,1.81,0,0,1,2-.44,1.24,1.24,0,0,1,.82,1,1.41,1.41,0,0,1,.78-.89,1.45,1.45,0,0,1,1.63.21.83.83,0,0,1-.23,1.11,2.86,2.86,0,0,1-1,.49,2.67,2.67,0,0,1,1.81.25.67.67,0,0,1,.37.39.48.48,0,0,1-.1.39,1.59,1.59,0,0,1-1.35.62,1.73,1.73,0,0,1-.93-.32.82.82,0,0,1-.16,1,1.52,1.52,0,0,1-1.71.18.9.9,0,0,1-.42-1.08,1.4,1.4,0,0,1-1.17.35,1.43,1.43,0,0,1-1.15-.9A.72.72,0,0,1,1416.34,224.4Z"/><path class="cls-16" d="M1418.81,224.52c0,.25.34.46.76.46s.76-.21.76-.46-.34-.47-.76-.47S1418.81,224.26,1418.81,224.52Z"/><path class="cls-3" d="M461.51,147.3c1.82.71,4.22,2.7,3.88,8.27-.78,13.08-10.35,20.67-26.92,22-5.19.41-10.82-3.24-10.82-3.24A24.73,24.73,0,0,1,410.21,177c-14.85-3.38-24.25-11.51-25.57-27.12-.74-8.3,6.88-13.22,6.88-13.22s-7-7.29-5-16,13.66-20.51,27.73-17.33c17.4-17,66.47,2.31,52.69,37.94C465.59,144.9,461,147.1,461.51,147.3Z"/><path class="cls-4" d="M461.51,147.3c1.82.71,4.22,2.7,3.88,8.27-.78,13.08-10.35,20.67-26.92,22-5.19.41-10.82-3.24-10.82-3.24A24.73,24.73,0,0,1,410.21,177c-13.33-3-21.76-9.72-24.62-21.49,6,8.1,16.22,13.56,20.27,4.32,2.39,13.39,37.64,11.94,36.42-.81,7.29,3,16.43-6.21,9.41-12.07,9.08-.07,14.95-12.82,16.77-24.49A30.83,30.83,0,0,1,467,141.26C465.59,144.9,461,147.1,461.51,147.3Z"/><path class="cls-17" d="M461.51,147.3c1.82.71,4.22,2.7,3.88,8.27-.78,13.08-10.35,20.67-26.92,22-5.19.41-10.82-3.24-10.82-3.24A24.73,24.73,0,0,1,410.21,177c-14.85-3.38-24.25-11.51-25.57-27.12-.74-8.3,6.88-13.22,6.88-13.22s-7-7.29-5-16,13.66-20.51,27.73-17.33c17.4-17,66.47,2.31,52.69,37.94C465.59,144.9,461,147.1,461.51,147.3Z"/><path class="cls-5" d="M414.11,165.44s11.73,2.27,11.73,20.16.64,18.3.64,18.3a8.78,8.78,0,0,1-4.62,4.16c-2.06.73-1,.46,6.47.46,5.55,0,7.72.49,6.36-.23-1.73-.92-3.72-2.24-3.82-4.16-.4-7.85-2.56-21-.09-29s13.35-10.75,12.33-11.71-11.76,6.78-12.35,6.55,3.47-13.07,4.39-15.84-1.5-1-2.31.92-4,13.88-5,14.46-3.88-17.69-5.32-18.27-1.3.42-1.27,2.08,5.49,15,3.94,15.65-7.25-4-9.72-4.67S414.11,165.44,414.11,165.44Z"/><path class="cls-7" d="M429.22,114a5.27,5.27,0,0,1,1.12,1.17,5.53,5.53,0,0,1,1.09,2.95,7.77,7.77,0,0,1-.3,2.57,2.42,2.42,0,0,1-1,1.48c-.5.27-1.21.07-1.84-.71a5.65,5.65,0,0,1-1-3.24,5.16,5.16,0,0,1,1-3A13.31,13.31,0,0,1,429.22,114Z"/><path class="cls-7" d="M435.69,114.54a5.57,5.57,0,0,1,.61,4c-.6,1.88-1.84,3.16-2.79,2.85s-1.22-2.08-.61-4A5.5,5.5,0,0,1,435.69,114.54Z"/><path class="cls-7" d="M442.29,118.06a5.44,5.44,0,0,1-.05,1.42,4.54,4.54,0,0,1-1.19,2.56c-1.39,1.4-2.85,2-3.76,1.46s-.42-2.55,1.11-4.09a4.83,4.83,0,0,1,2.48-1.19A7.81,7.81,0,0,1,442.29,118.06Z"/><path class="cls-7" d="M444.76,124.66a4.73,4.73,0,0,1-2.33,2.34c-1.45.61-2.91.52-3.27-.24s.62-1.9,2.21-2.57A4.57,4.57,0,0,1,444.76,124.66Z"/><path class="cls-7" d="M422.36,120.15a3.08,3.08,0,0,1,2.1.46c.83.55,1.28,1.38,1,1.86s-1.24.35-2.2-.31A3,3,0,0,1,422.36,120.15Z"/><path class="cls-7" d="M404.45,139.39a3.31,3.31,0,0,1,.95.41,3.53,3.53,0,0,1,1.37,1.46,5.18,5.18,0,0,1,.46,1.59A1.57,1.57,0,0,1,407,144c-.23.28-.7.34-1.26,0a3.51,3.51,0,0,1-1.4-1.65,3.31,3.31,0,0,1-.14-2C404.31,139.81,404.45,139.39,404.45,139.39Z"/><path class="cls-7" d="M413.15,138.55a3.35,3.35,0,0,1,.32.85,2.86,2.86,0,0,1-.06,1.8c-.48,1.17-1.18,1.9-1.86,1.79s-.88-1.4-.35-2.68a3,3,0,0,1,1.16-1.31A5.16,5.16,0,0,1,413.15,138.55Z"/><path class="cls-7" d="M416.24,141.82a3.07,3.07,0,0,1-.79,2c-.7.72-1.59,1-2,.66s-.1-1.26.67-2.05A2.9,2.9,0,0,1,416.24,141.82Z"/><path class="cls-7" d="M402,144.72a1.92,1.92,0,0,1,1.34-.25c.63.12,1.1.49,1.07.84s-.64.51-1.37.36A1.91,1.91,0,0,1,402,144.72Z"/><path class="cls-11" d="M400.71,183.6c-7.76,9.76-35.47,5.47-39.63.44-2.91-3.54-6.25,7.75-22,5.18-7-1.22-20.05-5.44-21.89-10.84C303.55,143.18,331.86,68.55,359,65.6S419.52,160.06,400.71,183.6Z"/><path class="cls-12" d="M405.4,171.82c-.86,4.83-2.37,8.87-4.69,11.78-7.76,9.76-35.47,5.47-39.63.44-2.91-3.54-6.25,7.75-22,5.18-5.66-1-16.82-4.24-20.75-9,14.23,4.63,26.51-6.35,13.08-21.88,5.12,4.83,20.44,3.7,18.2-8-.36-1.88,16.39,6.16,22.24-10.27-.77.08,7.72,23,19.1,18.08C384.32,164.92,403,174.14,405.4,171.82Z"/><path class="cls-5" d="M340.31,165.91s16.49,5.81,16.49,31.44-.18,35.56,0,40.66-13,7.6-13,7.6-4.11,1.43,7.65,1.23c12.35-.2,26.18.54,27.63-1.23s-12.87-2.62-13-7.8c-.35-11.26-3.46-42.74.41-54.23s19.33-16.79,19.33-16.79,2.3-4.06-1.44-2.21S365,177.39,365,177.39s4.71-16.74,5.82-20.81c1.52-5.55-.17-8.32-.17-8.32l-9,26s-4.61-14.18-6.3-18.8-1.35.46-1.35.46,6.2,17.9,3.78,18.78-11.6-8.83-15.47-9.72S340.31,165.91,340.31,165.91Z"/><path class="cls-18" d="M400.71,183.6c-7.76,9.76-35.47,5.47-39.63.44-2.91-3.54-6.25,7.75-22,5.18-7-1.22-20.05-5.44-21.89-10.84C303.55,143.18,331.86,68.55,359,65.6S419.52,160.06,400.71,183.6Z"/><path class="cls-13" d="M346.11,94.87a5.46,5.46,0,0,1,1.68.4,6,6,0,0,1,2.66,2,8.15,8.15,0,0,1,1.18,2.49,2.54,2.54,0,0,1-.09,1.93c-.3.53-1.05.75-2.06.4a5.88,5.88,0,0,1-2.75-2.34,5.41,5.41,0,0,1-.79-3.27A13.94,13.94,0,0,1,346.11,94.87Z"/><path class="cls-13" d="M352.26,91.68a5.93,5.93,0,0,1,2.81,3.22c.53,2,.13,3.9-.9,4.16s-2.28-1.18-2.81-3.23A5.87,5.87,0,0,1,352.26,91.68Z"/><path class="cls-13" d="M360.22,91.1a6,6,0,0,1,.76,1.31,4.89,4.89,0,0,1,.39,3c-.46,2-1.43,3.44-2.57,3.46s-1.83-2.07-1.32-4.33A5.16,5.16,0,0,1,359,92.05,8.59,8.59,0,0,1,360.22,91.1Z"/><path class="cls-13" d="M366.21,95.64a5.11,5.11,0,0,1-.77,3.44c-1,1.37-2.34,2.13-3.1,1.64s-.52-2.06.54-3.57A4.86,4.86,0,0,1,366.21,95.64Z"/><path class="cls-13" d="M343.44,104.33a3.27,3.27,0,0,1,2.15-.79c1.07,0,1.94.52,2,1.1s-.91,1-2.16,1A3.14,3.14,0,0,1,343.44,104.33Z"/><path class="cls-13" d="M381.62,113.46a4.54,4.54,0,0,0-2.15,2.46c-.41,1.56-.11,3,.68,3.18s1.75-.9,2.15-2.47A4.52,4.52,0,0,0,381.62,113.46Z"/><path class="cls-13" d="M385.73,119a2.48,2.48,0,0,0-1.65-.6c-.81,0-1.48.39-1.51.83s.7.78,1.65.75A2.42,2.42,0,0,0,385.73,119Z"/><path class="cls-13" d="M336.07,134a3.25,3.25,0,0,1,1.54,1.76c.29,1.12.07,2.13-.49,2.28s-1.25-.65-1.54-1.77A3.21,3.21,0,0,1,336.07,134Z"/><path class="cls-13" d="M340.43,133.71a3.07,3.07,0,0,1,.42.71,2.71,2.71,0,0,1,.21,1.64c-.25,1.12-.78,1.89-1.4,1.89s-1-1.13-.73-2.36a2.82,2.82,0,0,1,.85-1.36A4.19,4.19,0,0,1,340.43,133.71Z"/><path class="cls-13" d="M343.71,136.19a2.81,2.81,0,0,1-.42,1.89c-.53.75-1.28,1.16-1.7.9s-.28-1.13.3-2A2.67,2.67,0,0,1,343.71,136.19Z"/><path class="cls-19" d="M567.13,190.14c-2.23,2.4-4.65,5.13-9.63,1.29-2.87-2.23-5.19-6.43-6.89-12-3.12-10.15-4.2-24.75-3.08-39.71,1.3-17.08,17.25-32.83,25.55-9.8.39,1.1.78,2.29,1.13,3.56C579.33,151.82,577.78,178.72,567.13,190.14Z"/><path class="cls-9" d="M567.13,190.14c-2.23,2.4-4.65,5.13-9.63,1.29-2.87-2.23-5.19-6.43-6.89-12,7.85,8.06,19.44.9,14.07-16.3,7.21-1.68,8.34-19.29,8.4-33.21.39,1.1.78,2.29,1.13,3.56C579.33,151.82,577.78,178.72,567.13,190.14Z"/><path class="cls-5" d="M555.07,181.14c1.14,1,4.5,4,5,6.28a33.43,33.43,0,0,1,.72,7.23c0,12.43.48,19.85.48,19.85l-3.38,2.09s-3.7,2.23,1.45,1.37,7.88.78,8.52-.08-3.59-.81-3.7-4.18c-.16-5.47-1.65-20.77.06-26.34s5.76-5.82,6-7.27-1-.72-1-.72l-5.65,5s2.35-6.92,3-8.85-.36-2-1.21-.08l-3.29,7.43s-1.94-5.58-2.42-7.43c-.22-.86-.93-2-1.21-.64s3,7.85,1.91,8.28-3.51-2.25-5.2-3.38C553.68,178.71,553.54,179.85,555.07,181.14Z"/><path class="cls-20" d="M567.13,190.14c-2.23,2.4-4.65,5.13-9.63,1.29-2.87-2.23-5.19-6.43-6.89-12-3.12-10.15-4.2-24.75-3.08-39.71,1.3-17.08,17.25-32.83,25.55-9.8.39,1.1.78,2.29,1.13,3.56C579.33,151.82,577.78,178.72,567.13,190.14Z"/><path class="cls-10" d="M559.2,129.47a3.21,3.21,0,0,1,.82.69,3.62,3.62,0,0,1,.9,1.85,4.93,4.93,0,0,1,0,1.7,1.57,1.57,0,0,1-.58,1c-.31.2-.78.12-1.24-.35a3.65,3.65,0,0,1-.88-2.05,3.38,3.38,0,0,1,.47-2C558.94,129.84,559.2,129.47,559.2,129.47Z"/><path class="cls-10" d="M563.47,129.4a3.69,3.69,0,0,1,.66,2.55c-.27,1.27-1,2.19-1.63,2.05s-.94-1.28-.67-2.56A3.65,3.65,0,0,1,563.47,129.4Z"/><path class="cls-10" d="M568,131.27a3.92,3.92,0,0,1,.07.93,3,3,0,0,1-.61,1.75c-.82,1-1.73,1.51-2.36,1.2s-.45-1.64.45-2.74a3.15,3.15,0,0,1,1.54-.94A4.88,4.88,0,0,1,568,131.27Z"/><path class="cls-10" d="M570.07,135.42a3.11,3.11,0,0,1-1.37,1.68c-.91.49-1.87.53-2.16.06s.28-1.28,1.28-1.83A3,3,0,0,1,570.07,135.42Z"/><path class="cls-10" d="M555.13,134a2.05,2.05,0,0,1,1.41.16c.58.31.92.82.79,1.15s-.79.31-1.46-.06A2,2,0,0,1,555.13,134Z"/><path class="cls-10" d="M557.45,160.66a3.38,3.38,0,0,1,.57.9,3.67,3.67,0,0,1,.32,2,5,5,0,0,1-.54,1.61,1.56,1.56,0,0,1-.86.82c-.36.11-.79-.12-1.09-.7a3.68,3.68,0,0,1-.22-2.22,3.36,3.36,0,0,1,1-1.78A9.74,9.74,0,0,1,557.45,160.66Z"/><path class="cls-10" d="M561.54,161.87a3.7,3.7,0,0,1-.12,2.63c-.64,1.13-1.6,1.79-2.17,1.46s-.51-1.49.12-2.63A3.6,3.6,0,0,1,561.54,161.87Z"/><path class="cls-10" d="M552.23,163.73a2,2,0,0,1,1.29.57c.47.47.65,1.06.42,1.33s-.84.06-1.38-.49A2,2,0,0,1,552.23,163.73Z"/><path class="cls-21" d="M340.79,241.68a11,11,0,0,1,3.77-7.91.94.94,0,0,1,1.55.57,15.52,15.52,0,0,1-1.3,8.52,12.34,12.34,0,0,1,6.11-8.83.93.93,0,0,1,1.37.69,9.43,9.43,0,0,1-2.09,7.09,11.26,11.26,0,0,1,6.29-4.15.93.93,0,0,1,1.1,1.15,8.09,8.09,0,0,1-5,5.66c2.08-1.51,4.36-3.09,6.92-3,2.35,0,4.72,2.23,4.36,4.41a.94.94,0,0,1-.71.75c-7,1.63-14.2,1.45-21.35,1.26a19.71,19.71,0,0,1-6.27-.84,7.3,7.3,0,0,1-3.81-2.95.93.93,0,0,1,1-1.39l.33.1a.92.92,0,0,0,1.18-1.07l-.58-2.68a2.38,2.38,0,0,1,.24-2.16c.94-1,2.56.3,2.87,1.61s.12,2.83,1,3.82c-.52-2.49-1.64-6,.37-7.53a1.1,1.1,0,0,1,1.55-.08C341.79,235.9,341.13,239.31,340.79,241.68Z"/><path class="cls-21" d="M433.54,209.42a5.14,5.14,0,0,1,1.77-3.72.44.44,0,0,1,.73.26,7.36,7.36,0,0,1-.6,4,5.8,5.8,0,0,1,2.86-4.16.44.44,0,0,1,.65.33,4.44,4.44,0,0,1-1,3.34,5.32,5.32,0,0,1,3-2,.45.45,0,0,1,.52.54,3.82,3.82,0,0,1-2.34,2.67,5.63,5.63,0,0,1,3.26-1.43c1.1,0,2.22,1,2.05,2.07a.44.44,0,0,1-.34.35,39.15,39.15,0,0,1-10,.61,9.18,9.18,0,0,1-3-.39,3.38,3.38,0,0,1-1.79-1.38.43.43,0,0,1,.46-.65l.15,0a.43.43,0,0,0,.55-.51l-.27-1.25a1.1,1.1,0,0,1,.11-1c.44-.46,1.21.14,1.35.75s.06,1.34.49,1.8c-.24-1.17-.77-2.81.17-3.54a.52.52,0,0,1,.73,0C434,206.7,433.7,208.31,433.54,209.42Z"/><path class="cls-21" d="M407.31,235.34a7.35,7.35,0,0,1,2.71-5.22.63.63,0,0,1,1,.41,10.36,10.36,0,0,1-1.07,5.69,8.3,8.3,0,0,1,4.3-5.78.63.63,0,0,1,.91.49,6.32,6.32,0,0,1-1.57,4.71,7.6,7.6,0,0,1,4.32-2.64.62.62,0,0,1,.71.8,5.45,5.45,0,0,1-3.46,3.68c1.43-1,3-2,4.71-1.88s3.12,1.6,2.82,3.05a.63.63,0,0,1-.49.49c-4.7.94-9.56.65-14.35.36a13.15,13.15,0,0,1-4.19-.7,5,5,0,0,1-2.49-2.07.63.63,0,0,1,.69-.91l.21.07a.62.62,0,0,0,.82-.69l-.33-1.81a1.57,1.57,0,0,1,.22-1.44c.64-.63,1.71.26,1.88,1.14s0,1.91.61,2.59c-.29-1.68-1-4,.42-5a.73.73,0,0,1,1,0C408.12,231.49,407.59,233.76,407.31,235.34Z"/><path class="cls-21" d="M536.42,221.65a6,6,0,0,1,2.23-4.3.52.52,0,0,1,.85.34,8.53,8.53,0,0,1-.88,4.69,6.8,6.8,0,0,1,3.55-4.77.51.51,0,0,1,.74.41,5.22,5.22,0,0,1-1.29,3.89,6.19,6.19,0,0,1,3.56-2.19.52.52,0,0,1,.59.66,4.49,4.49,0,0,1-2.86,3,6.62,6.62,0,0,1,3.89-1.55c1.3.07,2.57,1.32,2.33,2.52a.53.53,0,0,1-.41.4,46.42,46.42,0,0,1-11.84.3,11.15,11.15,0,0,1-3.45-.58,4.13,4.13,0,0,1-2.06-1.71.52.52,0,0,1,.57-.75l.18.06a.5.5,0,0,0,.67-.57l-.27-1.49a1.33,1.33,0,0,1,.18-1.19c.53-.52,1.41.21,1.55.94s0,1.57.51,2.13c-.24-1.38-.79-3.33.34-4.15a.6.6,0,0,1,.86,0C537.08,218.48,536.65,220.35,536.42,221.65Z"/><path class="cls-22" d="M389.83,223.73a1.85,1.85,0,0,0-1.49-.4,1.06,1.06,0,0,0,.83-.6,1.14,1.14,0,0,0-.15-1.08,2,2,0,0,0-2.28-.56,1.6,1.6,0,0,0-1,1.31,1.8,1.8,0,0,0-.91-1.14,1.55,1.55,0,0,0-1.9.27,1.11,1.11,0,0,0,.26,1.42,2.85,2.85,0,0,0,1.13.63,2.86,2.86,0,0,0-2.11.33.87.87,0,0,0-.43.5.71.71,0,0,0,.11.51,1.85,1.85,0,0,0,2.67.39,1.15,1.15,0,0,0,.19,1.24,1.65,1.65,0,0,0,2,.23,1.21,1.21,0,0,0,.48-1.4,1.56,1.56,0,0,0,1.38.46,1.72,1.72,0,0,0,1.34-1.17A1,1,0,0,0,389.83,223.73Z"/><path class="cls-23" d="M387,223.88c0,.33-.4.6-.89.6s-.88-.27-.88-.6.39-.59.88-.59S387,223.55,387,223.88Z"/><path class="cls-15" d="M401.72,218.12a2.07,2.07,0,0,0-1.63-.44,1.13,1.13,0,0,0,.9-.65,1.21,1.21,0,0,0-.17-1.18,2.15,2.15,0,0,0-2.48-.61,1.76,1.76,0,0,0-1,1.43,2,2,0,0,0-1-1.25,1.69,1.69,0,0,0-2.07.3,1.22,1.22,0,0,0,.28,1.55,3.42,3.42,0,0,0,1.24.69,3.11,3.11,0,0,0-2.3.36,1,1,0,0,0-.48.55.78.78,0,0,0,.13.55,2,2,0,0,0,1.73.87,2,2,0,0,0,1.18-.44,1.28,1.28,0,0,0,.2,1.35,1.82,1.82,0,0,0,2.19.25,1.33,1.33,0,0,0,.53-1.53,1.66,1.66,0,0,0,1.5.5,1.84,1.84,0,0,0,1.46-1.27A1.11,1.11,0,0,0,401.72,218.12Z"/><path class="cls-16" d="M398.56,218.29c0,.36-.43.65-1,.65s-1-.29-1-.65.43-.65,1-.65S398.56,217.93,398.56,218.29Z"/><path class="cls-15" d="M476.9,211.29a1.68,1.68,0,0,0,1.31.35.92.92,0,0,0-.73.52,1,1,0,0,0,.14.94,1.72,1.72,0,0,0,2,.49,1.4,1.4,0,0,0,.84-1.14,1.57,1.57,0,0,0,.79,1,1.36,1.36,0,0,0,1.66-.23,1,1,0,0,0-.23-1.25,2.73,2.73,0,0,0-1-.55,2.45,2.45,0,0,0,1.84-.28.74.74,0,0,0,.38-.44.58.58,0,0,0-.1-.44,1.58,1.58,0,0,0-1.38-.69,1.6,1.6,0,0,0-1,.35,1,1,0,0,0-.16-1.08,1.43,1.43,0,0,0-1.74-.2,1,1,0,0,0-.42,1.22,1.35,1.35,0,0,0-1.21-.4,1.47,1.47,0,0,0-1.16,1A.89.89,0,0,0,476.9,211.29Z"/><path class="cls-16" d="M479.42,211.15c0-.28.35-.52.77-.52s.77.24.77.52-.34.52-.77.52S479.42,211.44,479.42,211.15Z"/><path class="cls-15" d="M556.56,244.51a2.41,2.41,0,0,1,1.8-.44,1.29,1.29,0,0,1-1-.65,1.14,1.14,0,0,1,.19-1.18,2.56,2.56,0,0,1,2.74-.62,1.77,1.77,0,0,1,1.16,1.44,2,2,0,0,1,1.1-1.25,2,2,0,0,1,2.29.29,1.16,1.16,0,0,1-.32,1.56,3.72,3.72,0,0,1-1.36.69,3.74,3.74,0,0,1,2.54.35,1,1,0,0,1,.53.55.72.72,0,0,1-.14.56,2.28,2.28,0,0,1-1.91.87,2.42,2.42,0,0,1-1.31-.45,1.19,1.19,0,0,1-.22,1.36,2.18,2.18,0,0,1-2.41.25,1.26,1.26,0,0,1-.59-1.53,2,2,0,0,1-1.66.5,2,2,0,0,1-1.61-1.27A1,1,0,0,1,556.56,244.51Z"/><path class="cls-16" d="M560,244.68c0,.36.48.65,1.07.65s1.07-.29,1.07-.65-.48-.66-1.07-.66S560,244.32,560,244.68Z"/><path class="cls-15" d="M462.5,238.42a2.46,2.46,0,0,1,1.8-.44,1.29,1.29,0,0,1-1-.65,1.14,1.14,0,0,1,.19-1.18,2.54,2.54,0,0,1,2.74-.61,1.78,1.78,0,0,1,1.16,1.43,2.12,2.12,0,0,1,3.39-.95,1.14,1.14,0,0,1-.32,1.55,3.72,3.72,0,0,1-1.36.69,3.7,3.7,0,0,1,2.54.36,1,1,0,0,1,.53.54.73.73,0,0,1-.15.56,2.26,2.26,0,0,1-1.9.87,2.4,2.4,0,0,1-1.31-.45,1.19,1.19,0,0,1-.22,1.36,2.18,2.18,0,0,1-2.42.25,1.27,1.27,0,0,1-.58-1.53,2,2,0,0,1-1.66.5,2,2,0,0,1-1.61-1.27A1,1,0,0,1,462.5,238.42Z"/><path class="cls-16" d="M466,238.59c0,.36.48.65,1.07.65s1.07-.29,1.07-.65-.48-.65-1.07-.65S466,238.23,466,238.59Z"/><path class="cls-15" d="M482,237.23a1.43,1.43,0,0,1,1.05-.25.75.75,0,0,1-.58-.38.66.66,0,0,1,.11-.69,1.49,1.49,0,0,1,1.6-.36,1,1,0,0,1,.67.84,1.24,1.24,0,0,1,2-.56.68.68,0,0,1-.19.91,2,2,0,0,1-.79.4,2.21,2.21,0,0,1,1.48.21.6.6,0,0,1,.31.32.43.43,0,0,1-.09.32,1.32,1.32,0,0,1-1.11.51,1.42,1.42,0,0,1-.76-.26.69.69,0,0,1-.13.79,1.25,1.25,0,0,1-1.4.14.73.73,0,0,1-.35-.89,1.15,1.15,0,0,1-1,.3,1.16,1.16,0,0,1-.94-.75A.6.6,0,0,1,482,237.23Z"/><path class="cls-16" d="M484.05,237.33c0,.21.28.38.63.38s.62-.17.62-.38-.28-.38-.62-.38S484.05,237.12,484.05,237.33Z"/><rect class="cls-24" x="1.67" width="1917.33" height="300"/></g></g></svg>