<svg xmlns="http://www.w3.org/2000/svg" viewBox="0 0 23.77 23.25"><defs><style>.cls-1{fill:#fff;}</style></defs><title>vision-icon</title><g id="圖層_2" data-name="圖層 2"><g id="視覺"><path class="cls-1" d="M2.53-76.75,14.86-80.5a2.68,2.68,0,0,0,1.29-1.12L20-89.24l0,0-7.15-7.15,0,0L5.39-92.74A3.81,3.81,0,0,0,4-91.12L0-79l.76.66,7.09-7.21a2.63,2.63,0,0,1-.25-1.08,2.53,2.53,0,0,1,2.53-2.53,2.53,2.53,0,0,1,2.53,2.53,2.52,2.52,0,0,1-2.53,2.52,2.45,2.45,0,0,1-1.08-.25L1.86-77.42Z" transform="translate(0 100)"/><path class="cls-1" d="M14.06-97.3l6.73,6.74,2.74-3a1.15,1.15,0,0,0-.15-1.55l-4.62-4.66a1.22,1.22,0,0,0-1.48,0Z" transform="translate(0 100)"/></g></g></svg>