<svg xmlns="http://www.w3.org/2000/svg" viewBox="0 0 65.52 46.83">
    <path class="cls-1" d="M46.65,4.07A13.22,13.22,0,0,1,52.4,3,11.63,11.63,0,0,1,58.23,4.6a7.51,7.51,0,0,1,1.25.93,10.48,10.48,0,0,1,1.11,1.1l.89,1.26a9.24,9.24,0,0,1,.67,1.38A11.71,11.71,0,0,1,63,12.14a19.21,19.21,0,0,1,.09,2.93c-.39-.91-.63-1.82-1-2.69l-.58-1.26c-.1-.2-.17-.42-.28-.62l-.37-.57a10.23,10.23,0,0,0-3.6-3.73,13.49,13.49,0,0,0-5-1.79A28.74,28.74,0,0,0,46.65,4.07Z"/>
    <path class="cls-1" d="M53.07.63A9.62,9.62,0,0,1,57,0a7.86,7.86,0,0,1,3.86,1.13A6.45,6.45,0,0,1,63.43,4.2,8.78,8.78,0,0,1,64,6.11a18.43,18.43,0,0,1,.13,2c-.22-.62-.35-1.25-.58-1.84a10.45,10.45,0,0,0-.79-1.69,6.82,6.82,0,0,0-2.47-2.61A8.93,8.93,0,0,0,56.88.74,17.23,17.23,0,0,0,53.07.63Z"/>
    <path class="cls-1" d="M64.82,27.52h0a.14.14,0,0,1,0-.06c-.13-.36-.26-.71-.41-1l-.06-.13c-.14-.29-.28-.58-.44-.86l-.12-.21a11.53,11.53,0,0,0-1.23-1.76l-.17-.19c-.19-.22-.38-.42-.59-.62l-.15-.15a9.85,9.85,0,0,0-.78-.67l-.17-.12a7.51,7.51,0,0,0-.68-.47l-.24-.15a9.5,9.5,0,0,0-.89-.48s0-.08,0-.13c0-6.69-4.84-12.12-10.81-12.12a9.89,9.89,0,0,0-3.35.6A15.27,15.27,0,0,0,31.92,1.53c-5.65,0-10.58,3.34-13.36,8.34a15,15,0,0,0-2.24-.19C7.31,9.68,0,17.87,0,28c0,.35,0,.7,0,1H0c.48,9.62,7.59,17.25,16.29,17.25a14.79,14.79,0,0,0,7.5-2.06,10.52,10.52,0,0,0,14.44-.54,10.55,10.55,0,0,0,14.94.1,9.32,9.32,0,0,0,1.51.13c6,0,10.81-5.43,10.81-12.12A13.32,13.32,0,0,0,64.82,27.52Zm-27-10.64H35.9a2.2,2.2,0,0,0-2.49,2.38v2.86h4.23L37,26.53H33.41V37.19H28.64V26.53H24.77V22.12h3.87V18.76c0-3.83,2.28-5.94,5.77-5.94a23.36,23.36,0,0,1,3.41.3Z"/>
</svg>