<svg xmlns="http://www.w3.org/2000/svg" viewBox="0 0 379.08 235.6">
    <defs>
        <style>.cls-1{isolation:isolate;}.cls-2{fill:#a4aaab;}.cls-3{fill:#e3e3e3;}.cls-4,.cls-55,.cls-57,.cls-62{fill:none;}.cls-4{stroke:#fff;stroke-miterlimit:10;stroke-width:2.7px;stroke-dasharray:11.08 9.23 11.08 9.23 11.08 9.23;}.cls-10,.cls-5,.cls-9{fill:#d2d2d4;}.cls-11,.cls-14,.cls-16,.cls-17,.cls-19,.cls-20,.cls-21,.cls-22,.cls-23,.cls-24,.cls-25,.cls-26,.cls-27,.cls-28,.cls-29,.cls-30,.cls-31,.cls-32,.cls-33,.cls-34,.cls-35,.cls-36,.cls-37,.cls-38,.cls-40,.cls-42,.cls-44,.cls-45,.cls-46,.cls-47,.cls-49,.cls-5,.cls-50,.cls-51,.cls-53,.cls-54,.cls-55,.cls-58,.cls-59,.cls-6,.cls-60,.cls-64,.cls-65,.cls-66,.cls-67,.cls-68,.cls-69,.cls-7,.cls-70,.cls-71,.cls-72,.cls-73,.cls-75{stroke:#4d3224;}.cls-11,.cls-14,.cls-16,.cls-17,.cls-19,.cls-20,.cls-21,.cls-22,.cls-23,.cls-24,.cls-25,.cls-26,.cls-27,.cls-28,.cls-29,.cls-30,.cls-31,.cls-32,.cls-33,.cls-34,.cls-35,.cls-36,.cls-37,.cls-38,.cls-40,.cls-42,.cls-43,.cls-44,.cls-45,.cls-46,.cls-47,.cls-49,.cls-5,.cls-50,.cls-51,.cls-53,.cls-54,.cls-55,.cls-57,.cls-58,.cls-59,.cls-6,.cls-60,.cls-62,.cls-64,.cls-65,.cls-66,.cls-67,.cls-68,.cls-69,.cls-7,.cls-70,.cls-71,.cls-72,.cls-73,.cls-75{stroke-linecap:round;stroke-linejoin:round;}.cls-11,.cls-14,.cls-16,.cls-17,.cls-19,.cls-20,.cls-33,.cls-34,.cls-35,.cls-36,.cls-37,.cls-38,.cls-40,.cls-42,.cls-43,.cls-44,.cls-45,.cls-46,.cls-47,.cls-49,.cls-5,.cls-50,.cls-51,.cls-53,.cls-54,.cls-55,.cls-57,.cls-58,.cls-59,.cls-6,.cls-60,.cls-62,.cls-7{stroke-width:1.37px;}.cls-6{fill:#e3e3e4;}.cls-7{fill:#a9a9a9;}.cls-11,.cls-8{fill:#4d3224;}.cls-9{opacity:0.69;}.cls-12{fill:#fff;}.cls-13,.cls-14,.cls-73{fill:#80d8d6;}.cls-15,.cls-17{fill:#d0ebea;}.cls-16{fill:#a1a2b0;}.cls-18{fill:#707078;}.cls-19{fill:#d2d2de;}.cls-20,.cls-21,.cls-66{fill:#50a33f;}.cls-21,.cls-22,.cls-23,.cls-24,.cls-25,.cls-26,.cls-27,.cls-28,.cls-29,.cls-30,.cls-31,.cls-32{stroke-width:1.44px;}.cls-22,.cls-37,.cls-75{fill:#8acc2b;}.cls-23{fill:#eedd0f;}.cls-24{fill:#5b4f52;}.cls-25{fill:#d07537;}.cls-26{fill:#f1af6d;}.cls-27{fill:#6b6365;}.cls-28{fill:#f3f376;}.cls-29{fill:#757072;}.cls-30{fill:#fbfaf9;}.cls-31{fill:#eeece9;}.cls-32{fill:#c0d5e4;}.cls-33{fill:#f8f3e0;}.cls-34{fill:#c5380c;}.cls-35{fill:#a9becd;}.cls-36{fill:#a97813;}.cls-38,.cls-67{fill:#f1d4c2;}.cls-39{fill:#e0bfa9;}.cls-40{fill:#e0ab8b;}.cls-41,.cls-49{fill:#9a8e80;}.cls-42{fill:#e4967d;}.cls-43,.cls-45{fill:#da8571;}.cls-43{stroke:#da8571;}.cls-44{fill:#da7962;}.cls-46{fill:#805c54;}.cls-47,.cls-74{fill:#ff9563;}.cls-48{fill:#de744c;}.cls-50{fill:#426e75;}.cls-51,.cls-70{fill:#f27e52;}.cls-52,.cls-71{fill:#ffb563;}.cls-53{fill:#77c4ce;}.cls-54{fill:#5aabb9;}.cls-56{opacity:0.23;mix-blend-mode:color-dodge;}.cls-57{stroke:#80d8d6;}.cls-58{fill:#e6ffff;}.cls-59{fill:#9fc2c4;}.cls-60{fill:#c9e2ff;}.cls-61{opacity:0.4;}.cls-62{stroke:#426e75;}.cls-63{fill:#4e98a0;}.cls-64{fill:#7bb52d;}.cls-64,.cls-65,.cls-67,.cls-68,.cls-69,.cls-70,.cls-71,.cls-72,.cls-73,.cls-75{stroke-width:1.18px;}.cls-65{fill:#659225;}.cls-66{stroke-width:1.48px;}.cls-68{fill:#d75968;}.cls-69{fill:#c46048;}.cls-72{fill:#a14f3b;}
        .AirCamera{
            -webkit-animation: AirCamera-An 4s linear infinite;
            animation: AirCamera-An 4s linear infinite;
        }
        @keyframes AirCamera-An{
            0%{
                -webkit-transform: rotate(-5deg) scale(1.2) translate(80px);
                transform: rotate(-5deg) scale(1.2) translate(80px);
            }
            50%{
                -webkit-transform: rotate(-5deg) scale(1.2) translate(0px);
                transform: rotate(-5deg) scale(1.2) translate(0px);
            }
            100%{
                -webkit-transform: rotate(-5deg) scale(1.2) translate(80px);
                transform: rotate(-5deg) scale(1.2) translate(80px);
            }
        }
        </style>
    </defs>
    <title>contact-islands-about</title>
    <g class="cls-1">
                <path class="cls-2" d="M47.36,94.84C31.64,98,15,108.08,12,126.23-4.56,226.7,310.82,188.6,354.11,186.86c.06,0,64.15-2.58-13.28-31.32,0,0-85.14-19.8-45.52-55.59C295.31,100,109.88,82.35,47.36,94.84Z"/>
                <path class="cls-3" d="M47.91,99.66c-15.43,2.83-31.75,11.92-34.69,28.24C-3.06,218.28,306.61,184,349.11,182.44c.06,0,63-2.32-13-28.17,0,0-83.59-17.81-44.69-50C291.38,104.26,109.31,88.43,47.91,99.66Z"/>
                <path class="cls-4" d="M268.71,110.67s-153-15-219,1.37C2.27,123.84,36,161.59,65,168c94.8,20.95,230.64,13.1,298.55,4"/>
                <rect class="cls-8" x="367.52" y="49.84" width="3.04" height="10.07"/>
                <rect class="cls-8" x="363.11" y="50.68" width="3.04" height="11.75"/>
                <rect class="cls-8" x="358.7" y="48.58" width="3.04" height="10.91"/>
                <rect class="cls-8" x="343.33" y="48.16" width="3.04" height="12.59"/>
                <rect class="cls-8" x="352.28" y="49.42" width="3.04" height="15.11"/>
                <rect class="cls-8" x="347.73" y="51.66" width="3.04" height="11.75"/>
                <rect class="cls-8" x="336.71" y="52.92" width="3.04" height="10.49"/>
                <rect class="cls-8" x="332.51" y="51.24" width="3.04" height="15.11"/>
                <rect class="cls-8" x="321.52" y="46.2" width="3.04" height="15.95"/>
                <rect class="cls-8" x="314.19" y="46.9" width="3.04" height="16.79"/>
                <rect class="cls-8" x="303.52" y="46.06" width="3.04" height="14.69"/>
                <rect class="cls-8" x="298.16" y="51.1" width="3.04" height="13.85"/>
                <rect class="cls-8" x="308.98" y="46.48" width="3.04" height="18.47"/>
                <rect class="cls-8" x="290.48" y="53.2" width="3.04" height="10.49"/>
                <rect class="cls-8" x="286.51" y="54.32" width="3.04" height="10.91"/>
                <rect class="cls-8" x="281.72" y="48.16" width="3.04" height="15.11"/>
                <rect class="cls-8" x="277.14" y="48.86" width="3.04" height="13.01"/>
                <rect class="cls-8" x="272.9" y="49" width="3.04" height="15.95"/>
                <rect class="cls-8" x="268.49" y="46.9" width="3.04" height="13.43"/>
                <rect class="cls-8" x="264.23" y="50.12" width="3.04" height="13.85"/>
                <rect class="cls-8" x="258.87" y="49" width="3.04" height="11.75"/>
                <rect class="cls-8" x="254.31" y="51.94" width="3.04" height="12.17"/>
                <rect class="cls-8" x="248.84" y="47.74" width="3.04" height="14.69"/>
                <rect class="cls-8" x="244.03" y="49.42" width="3.04" height="14.69"/>
                <rect class="cls-8" x="238.42" y="49" width="3.04" height="14.69"/>
                <rect class="cls-8" x="234.26" y="56" width="3.04" height="10.91"/>
                <rect class="cls-8" x="229.6" y="51.1" width="3.04" height="12.59"/>
                <rect class="cls-8" x="225.63" y="49.28" width="3.04" height="13.85"/>
                <rect class="cls-8" x="219.64" y="50.26" width="3.04" height="11.75"/>
                <rect class="cls-8" x="215.57" y="48.58" width="3.04" height="11.75"/>
                <rect class="cls-8" x="211.16" y="48.58" width="3.04" height="12.59"/>
                <rect class="cls-8" x="206.34" y="51.52" width="3.04" height="8.81"/>
                <path class="cls-20" d="M204.82,45.64h0c0-.08,0-.14,0-.22h0a4.17,4.17,0,0,1-2.66-4,4,4,0,0,1,3.81-4.2,3.56,3.56,0,0,1,2.28.86,7.62,7.62,0,0,1,4.75-1.7l.15,0a5.76,5.76,0,0,1,5.36-4.22c3.15,0,5.7,2.82,5.7,6.3,0,0,0,.08,0,.13a4.27,4.27,0,0,1,.51.3,7.69,7.69,0,0,1,6.8-5.44,3.08,3.08,0,0,1-.84-2.13,2.81,2.81,0,0,1,2.66-2.94A2.76,2.76,0,0,1,236,31a2.84,2.84,0,0,1,.42-.05,4.06,4.06,0,0,1,3.43,2,9.57,9.57,0,0,1,2-1.38,2.8,2.8,0,0,1-.9-2.09,2.48,2.48,0,1,1,4.94,0,2.87,2.87,0,0,1-.2,1.07l.39,0a9.21,9.21,0,0,1,3.91.87,4.21,4.21,0,0,1,3.31-1.71,4,4,0,0,1,1.46.3,3.54,3.54,0,0,1-.13-.93,3.41,3.41,0,0,1,3.23-3.56,3,3,0,0,1,2.19.95,4.11,4.11,0,0,1,3.9-3.47,4,4,0,0,1,3.74,2.91,11,11,0,0,1,3.43,1.66,5.93,5.93,0,0,1,2.9-.8,6.67,6.67,0,0,1,6.34,5.87,8.39,8.39,0,0,1,5.83.24,6.13,6.13,0,0,1,5.69-4.43,5.55,5.55,0,0,1,2.07.43,8.1,8.1,0,0,1,1-.59,4.67,4.67,0,0,1-.75-2.56,4,4,0,1,1,8,0,4.61,4.61,0,0,1-1,2.88l.34.2a5.68,5.68,0,0,1,5.41-5,5.13,5.13,0,0,1,2.86.9s0,0,0-.06a2.67,2.67,0,1,1,5.32,0,3.21,3.21,0,0,1-.06.63,7.21,7.21,0,0,1,3.47,2.07l0,0a4,4,0,0,1,3.78-3.94,3.5,3.5,0,0,1,2.3.88c0-.09,0-.17,0-.25a5.16,5.16,0,1,1,10.26,0c0,.08,0,.16,0,.25s.26,0,.4,0a6.18,6.18,0,0,1,6.08,6.29,7,7,0,0,1-.13,1.31c.29-.08.59-.16.89-.22v0a5.52,5.52,0,1,1,11-.21,9.55,9.55,0,0,1,3.64,4.23,6.45,6.45,0,0,1,4.74-2.13,6.92,6.92,0,0,1,6.46,5.18,5.73,5.73,0,0,1,2.47-.56c3.47,0,6.27,3.1,6.27,6.92s-2.8,6.93-6.27,6.93a5.74,5.74,0,0,1-2.93-.84,5.5,5.5,0,0,1-5.24,5,5.35,5.35,0,0,1-4.91-3.61,5.89,5.89,0,0,1-2.69.67,6,6,0,0,1-2.5-.55,4.8,4.8,0,0,1-4,2.23,4.67,4.67,0,0,1-3.26-1.39,6.65,6.65,0,0,1-5.48,3.07,6.52,6.52,0,0,1-4.8-2.18,8.45,8.45,0,0,1-6,2.6,8.61,8.61,0,0,1-6.9-3.61,6.27,6.27,0,0,1-5.08,2.77A6.7,6.7,0,0,1,310.21,50a7.65,7.65,0,0,1-1.8.23,7.54,7.54,0,0,1-4.1-1.26,5,5,0,0,1-.66,1.68c0,.07,0,.14,0,.21,0,5.22-3.83,9.45-8.55,9.45a8.39,8.39,0,0,1-7.24-4.44,4.17,4.17,0,0,1-1.32.24,4.62,4.62,0,0,1-4.29-3.4l-.31,0a4.94,4.94,0,0,1-9.36.12,3.87,3.87,0,0,1-1.62.36,4.2,4.2,0,0,1-3.83-2.77h-.05a6.11,6.11,0,0,1,.08.87,4.62,4.62,0,0,1-4.38,4.83,4.35,4.35,0,0,1-3.87-2.63,4.58,4.58,0,0,1-2.78,1A5,5,0,0,1,251.55,51a9.32,9.32,0,0,1-5.48,1.8,7,7,0,0,1-.81-.05,5.43,5.43,0,0,1,.24,1.52,4.62,4.62,0,0,1-4.37,4.83,4,4,0,0,1-2.2-.68,6.38,6.38,0,0,1-4.07,1.52c-3.55,0-6.43-3-6.78-6.81a5.35,5.35,0,0,1-3.49,1.35,5.68,5.68,0,0,1-5.12-3.58A7.89,7.89,0,0,1,213,54.46a7.62,7.62,0,0,1-4.69-1.65,4.09,4.09,0,0,1-3.49,2.07,4.64,4.64,0,0,1,0-9.24Z"/>
                <path class="cls-21" d="M337.66,201.43c.14-.11.35,0,.53,0a5.45,5.45,0,0,0,1.44-10.54,3.81,3.81,0,0,0,.19-1.12c0-2.36-2.21-4.27-4.94-4.27a5.41,5.41,0,0,0-3.38,1.16,3.11,3.11,0,0,0-5.82,1.47,3,3,0,0,0,.24,1.16,4.21,4.21,0,0,0-1.42-.26,4.25,4.25,0,0,0-2.17,7.94,3.3,3.3,0,0,0-.33,1.43,4.07,4.07,0,0,0,4.33,3.75S332.46,205.53,337.66,201.43Z"/>
                <path class="cls-8" d="M333.39,196.89s-.25,3.93-2,4.3-2.88-6.32-2.88-6.32l.12,4.36-2.94-.62,3.06,1.84a14.56,14.56,0,0,0,1.66,2.21c.8.8-.31,9.81-.31,9.81h2.76s-.92-8-.18-9.32,3.61.18,5.34-3.8c0,0-2,2.39-3.68,2.21l.43-2.39s-1.29,3-2.15,2.82S334.43,200.21,333.39,196.89Z"/>
                <path class="cls-21" d="M294.36,196a4.29,4.29,0,0,1,4.3-4.27,4.21,4.21,0,0,1,1.42.26,3,3,0,0,1-.24-1.16,3.11,3.11,0,0,1,5.82-1.47,5.41,5.41,0,0,1,3.38-1.16c2.73,0,4.95,1.91,4.95,4.27a3.82,3.82,0,0,1-.2,1.12,5.47,5.47,0,1,1-7.26,6.58,6.16,6.16,0,0,1-1.75.54,2.57,2.57,0,0,1,.05.4c0,2.06-1.94,3.74-4.33,3.74a4.07,4.07,0,0,1-4.33-3.74,3.2,3.2,0,0,1,.33-1.44A4.25,4.25,0,0,1,294.36,196Z"/>
                <path class="cls-8" d="M307.55,199.58s-.25,3.92-2,4.29-2.88-6.32-2.88-6.32l.13,4.36-2.95-.61,3.07,1.83a15,15,0,0,0,1.65,2.21c.8.8-.3,9.81-.3,9.81H307s-.93-8-.19-9.32,3.62.19,5.34-3.8c0,0-2,2.39-3.68,2.21l.43-2.39s-1.29,3-2.15,2.82S308.59,202.89,307.55,199.58Z"/>
                <path class="cls-22" d="M326.41,202.31a7.63,7.63,0,0,0,2.76-14.78,5.17,5.17,0,0,0,.27-1.57c0-3.3-3.1-6-6.92-6a7.51,7.51,0,0,0-4.72,1.63,4.36,4.36,0,0,0-3.8-2.23,4.31,4.31,0,0,0-4.34,4.28,4.24,4.24,0,0,0,.33,1.63,5.93,5.93,0,0,0-8,5.6,5.91,5.91,0,0,0,3,5.13,4.59,4.59,0,0,0-.46,2c0,2.9,2.71,5.25,6.05,5.25,0,0,8.68,4.17,15.84-1"/>
                <path class="cls-8" d="M320.44,196s-.35,5.49-2.84,6-4-8.84-4-8.84l.18,6.09-4.12-.85,4.29,2.57a20.28,20.28,0,0,0,2.32,3.09c1.11,1.11-.44,13.72-.44,13.72h3.86s-1.28-11.15-.25-13,5,.26,7.46-5.31c0,0-2.83,3.34-5.15,3.08l.6-3.34s-1.8,4.2-3,3.94S321.89,200.6,320.44,196Z"/>
                <rect class="cls-23" x="277.44" y="210.75" width="29.5" height="24.14"/>
                <polygon class="cls-24" points="261.35 224.15 272.07 216.11 293.53 216.11 282.8 224.15 261.35 224.15"/>
                <rect class="cls-25" x="261.35" y="224.15" width="21.45" height="10.73"/>
                <polygon class="cls-26" points="282.8 224.15 293.53 216.11 304.26 224.15 304.26 234.88 282.8 234.88 282.8 224.15"/>
                <polygon class="cls-27" points="277.44 210.75 288.16 202.7 317.67 202.7 306.94 210.75 277.44 210.75"/>
                <polygon class="cls-28" points="306.94 210.75 317.67 202.7 328.39 210.75 328.39 234.88 306.94 234.88 306.94 210.75"/>
                <polygon class="cls-29" points="333.76 216.11 339.12 224.15 352.53 224.15 347.17 216.11 333.76 216.11"/>
                <polygon class="cls-30" points="333.76 216.11 328.39 224.15 328.39 232.2 339.12 232.2 339.12 224.15 333.76 216.11"/>
                <rect class="cls-31" x="339.12" y="224.15" width="13.41" height="8.05"/>
                <rect class="cls-32" x="264.03" y="226.83" width="2.68" height="5.37"/>
                <rect class="cls-32" x="269.39" y="226.83" width="2.68" height="5.37"/>
                <rect class="cls-32" x="277.44" y="226.83" width="2.68" height="8.05"/>
                <rect class="cls-32" x="290.85" y="221.47" width="5.36" height="5.36"/>
                <rect class="cls-32" x="280.12" y="213.42" width="2.68" height="2.68"/>
                <rect class="cls-32" x="285.48" y="213.42" width="2.68" height="2.68"/>
                <rect class="cls-32" x="290.85" y="213.42" width="2.68" height="2.68"/>
                <rect class="cls-32" x="298.89" y="213.42" width="5.36" height="5.36"/>
                <rect class="cls-32" x="341.8" y="226.83" width="2.68" height="2.68"/>
                <rect class="cls-32" x="347.17" y="226.83" width="2.68" height="2.68"/>
                <rect class="cls-32" x="331.07" y="226.83" width="5.37" height="5.37"/>
                <rect class="cls-32" x="309.62" y="213.42" width="2.68" height="5.36"/>
                <rect class="cls-32" x="314.98" y="213.42" width="2.68" height="5.36"/>
                <rect class="cls-32" x="320.35" y="213.42" width="5.36" height="5.36"/>
                <rect class="cls-32" x="309.62" y="224.15" width="2.68" height="5.36"/>
                <rect class="cls-32" x="314.98" y="224.15" width="2.68" height="5.36"/>
                <rect class="cls-32" x="320.35" y="224.15" width="5.36" height="5.36"/>
                <rect class="cls-33" x="265.71" y="65.31" width="21.2" height="24.73"/>
                <rect class="cls-34" x="265.71" y="58.24" width="21.2" height="8.83"/>
                <rect class="cls-35" x="268.54" y="68.84" width="3.53" height="4.82"/>
                <rect class="cls-35" x="272.78" y="68.84" width="3.53" height="4.82"/>
                <rect class="cls-35" x="280.19" y="68.84" width="3.53" height="4.82"/>
                <rect class="cls-35" x="268.54" y="75.26" width="3.53" height="4.82"/>
                <rect class="cls-35" x="272.78" y="75.26" width="3.53" height="4.82"/>
                <rect class="cls-35" x="280.19" y="75.26" width="3.53" height="4.82"/>
                <rect class="cls-35" x="268.54" y="81.68" width="3.53" height="4.82"/>
                <rect class="cls-35" x="272.78" y="81.68" width="3.53" height="4.82"/>
                <rect class="cls-36" x="280.19" y="82.97" width="3.53" height="7.06"/>
                <polygon class="cls-33" points="267.48 67.18 271.01 63.65 274.54 67.18 267.48 67.18"/>
                <polygon class="cls-33" points="278.07 67.07 281.61 63.54 285.14 67.07 278.07 67.07"/>
                <rect class="cls-35" x="269.24" y="65.41" width="3.53" height="1.77"/>
                <rect class="cls-35" x="279.84" y="65.41" width="3.53" height="1.77"/>
                <rect class="cls-33" x="267.48" y="56.47" width="1.77" height="1.77"/>
                <rect class="cls-33" x="283.37" y="56.47" width="1.77" height="1.77"/>
                <path class="cls-37" d="M297.22,82.9c2.17-1.72,5-2.23,5-5A5,5,0,0,0,299,73.29a3.17,3.17,0,0,0,.18-1c0-2.14-2-3.88-4.49-3.88a4.9,4.9,0,0,0-3.08,1.06,2.82,2.82,0,0,0-5.29,1.33,2.68,2.68,0,0,0,.22,1.06,4,4,0,0,0-1.3-.24,3.89,3.89,0,0,0-3.9,3.88,3.85,3.85,0,0,0,1.94,3.34,3,3,0,0,0-.3,1.3,3.7,3.7,0,0,0,3.94,3.41S292.64,86.53,297.22,82.9Z"/>
                <path class="cls-8" d="M293.34,78.78s-.23,3.57-1.84,3.9-2.62-5.74-2.62-5.74l.11,4-2.68-.56L289.1,82a12.69,12.69,0,0,0,1.51,2c.72.72-.28,8.92-.28,8.92h2.51s-.84-7.25-.17-8.47,3.28.16,4.85-3.46c0,0-1.84,2.17-3.34,2l.38-2.18s-1.17,2.74-1.95,2.57S294.28,81.79,293.34,78.78Z"/>
                <polygon class="cls-38" points="260.68 84.35 260.68 80.77 244.91 80.77 244.91 84.35 238.17 84.35 238.17 148.15 267.42 148.15 267.42 84.35 260.68 84.35"/>
                <rect class="cls-39" x="259.47" y="84.71" width="3.97" height="62.77"/>
                <rect class="cls-39" x="252.2" y="84.71" width="3.97" height="62.77"/>
                <rect class="cls-39" x="244.81" y="84.71" width="3.97" height="62.77"/>
                <rect class="cls-40" x="237.42" y="80.77" width="31.44" height="3.94"/>
                <rect class="cls-41" x="246.04" y="94.12" width="1.51" height="1.54"/>
                <polygon class="cls-41" points="248.68 93.16 244.91 93.16 244.91 96.62 248.68 96.62 248.68 93.16 248.68 93.16"/>
                <rect class="cls-41" x="253.42" y="94.12" width="1.51" height="1.54"/>
                <polygon class="cls-41" points="256.07 93.16 252.29 93.16 252.29 96.62 256.07 96.62 256.07 93.16 256.07 93.16"/>
                <rect class="cls-41" x="260.81" y="94.12" width="1.51" height="1.54"/>
                <polygon class="cls-41" points="263.45 93.16 259.68 93.16 259.68 96.62 263.45 96.62 263.45 93.16 263.45 93.16"/>
                <rect class="cls-41" x="246.04" y="100.46" width="1.51" height="1.54"/>
                <polygon class="cls-41" points="248.68 99.5 244.91 99.5 244.91 102.96 248.68 102.96 248.68 99.5 248.68 99.5"/>
                <rect class="cls-41" x="253.42" y="100.46" width="1.51" height="1.54"/>
                <polygon class="cls-41" points="256.07 99.5 252.29 99.5 252.29 102.96 256.07 102.96 256.07 99.5 256.07 99.5"/>
                <rect class="cls-41" x="260.81" y="100.46" width="1.51" height="1.54"/>
                <polygon class="cls-41" points="263.45 99.5 259.68 99.5 259.68 102.96 263.45 102.96 263.45 99.5 263.45 99.5"/>
                <rect class="cls-41" x="246.04" y="106.8" width="1.51" height="1.54"/>
                <polygon class="cls-41" points="248.68 105.84 244.91 105.84 244.91 109.3 248.68 109.3 248.68 105.84 248.68 105.84"/>
                <rect class="cls-41" x="253.42" y="106.8" width="1.51" height="1.54"/>
                <polygon class="cls-41" points="256.07 105.84 252.29 105.84 252.29 109.3 256.07 109.3 256.07 105.84 256.07 105.84"/>
                <rect class="cls-41" x="260.81" y="106.8" width="1.51" height="1.54"/>
                <polygon class="cls-41" points="263.45 105.84 259.68 105.84 259.68 109.3 263.45 109.3 263.45 105.84 263.45 105.84"/>
                <rect class="cls-41" x="246.04" y="113.14" width="1.51" height="1.54"/>
                <polygon class="cls-41" points="248.68 112.18 244.91 112.18 244.91 115.64 248.68 115.64 248.68 112.18 248.68 112.18"/>
                <rect class="cls-41" x="253.42" y="113.14" width="1.51" height="1.54"/>
                <polygon class="cls-41" points="256.07 112.18 252.29 112.18 252.29 115.64 256.07 115.64 256.07 112.18 256.07 112.18"/>
                <rect class="cls-41" x="260.81" y="113.14" width="1.51" height="1.54"/>
                <polygon class="cls-41" points="263.45 112.18 259.68 112.18 259.68 115.64 263.45 115.64 263.45 112.18 263.45 112.18"/>
                <rect class="cls-41" x="246.04" y="119.48" width="1.51" height="1.54"/>
                <polygon class="cls-41" points="248.68 118.52 244.91 118.52 244.91 121.98 248.68 121.98 248.68 118.52 248.68 118.52"/>
                <rect class="cls-41" x="253.42" y="119.48" width="1.51" height="1.54"/>
                <polygon class="cls-41" points="256.07 118.52 252.29 118.52 252.29 121.98 256.07 121.98 256.07 118.52 256.07 118.52"/>
                <rect class="cls-41" x="260.81" y="119.48" width="1.51" height="1.54"/>
                <polygon class="cls-41" points="263.45 118.52 259.68 118.52 259.68 121.98 263.45 121.98 263.45 118.52 263.45 118.52"/>
                <rect class="cls-41" x="246.04" y="125.82" width="1.51" height="1.54"/>
                <polygon class="cls-41" points="248.68 124.86 244.91 124.86 244.91 128.32 248.68 128.32 248.68 124.86 248.68 124.86"/>
                <rect class="cls-41" x="253.42" y="125.82" width="1.51" height="1.54"/>
                <polygon class="cls-41" points="256.07 124.86 252.29 124.86 252.29 128.32 256.07 128.32 256.07 124.86 256.07 124.86"/>
                <rect class="cls-41" x="260.81" y="125.82" width="1.51" height="1.54"/>
                <polygon class="cls-41" points="263.45 124.86 259.68 124.86 259.68 128.32 263.45 128.32 263.45 124.86 263.45 124.86"/>
                <polygon class="cls-42" points="240.26 63.4 240.26 56.19 235.7 56.19 235.7 49.54 232.35 49.54 232.35 43.97 230.18 43.97 230.18 37.99 225.34 37.99 225.34 25.4 223.85 25.4 223.85 37.99 219.01 37.99 219.01 43.97 216.84 43.97 216.84 49.54 213.49 49.54 213.49 56.19 208.93 56.19 208.93 63.4 204.2 63.4 204.2 148.15 244.99 148.15 244.99 63.4 240.26 63.4"/>
                <rect class="cls-43" x="214.19" y="72.65" width="2.38" height="62.49"/>
                <rect class="cls-43" x="220.31" y="72.65" width="2.38" height="62.49"/>
                <rect class="cls-43" x="226.43" y="72.65" width="2.38" height="62.49"/>
                <rect class="cls-43" x="232.55" y="72.65" width="2.38" height="62.49"/>
                <rect class="cls-44" x="219.01" y="37.99" width="11.17" height="5.98"/>
                <rect class="cls-44" x="213.42" y="49.55" width="22.28" height="6.64"/>
                <rect class="cls-45" x="216.93" y="43.97" width="15.42" height="5.58"/>
                <rect class="cls-45" x="209.21" y="55.93" width="31.04" height="7.48"/>
                <rect class="cls-46" x="214.87" y="70.34" width="0.66" height="60.92"/>
                <polygon class="cls-46" points="216.39 69.55 214.01 69.55 214.01 132.04 216.39 132.04 216.39 69.55 216.39 69.55"/>
                <rect class="cls-46" x="220.99" y="70.34" width="0.66" height="60.92"/>
                <polygon class="cls-46" points="222.51 69.55 220.13 69.55 220.13 132.04 222.51 132.04 222.51 69.55 222.51 69.55"/>
                <rect class="cls-46" x="227.11" y="70.34" width="0.67" height="60.92"/>
                <polygon class="cls-46" points="228.63 69.55 226.25 69.55 226.25 132.04 228.63 132.04 228.63 69.55 228.63 69.55"/>
                <rect class="cls-46" x="233.23" y="70.34" width="0.66" height="60.92"/>
                <polygon class="cls-46" points="234.75 69.55 232.37 69.55 232.37 132.04 234.75 132.04 234.75 69.55 234.75 69.55"/>
                <rect class="cls-14" x="246.04" y="92.68" width="1.51" height="1.54"/>
                <polygon class="cls-14" points="248.68 91.72 244.91 91.72 244.91 95.18 248.68 95.18 248.68 91.72 248.68 91.72"/>
                <rect class="cls-14" x="253.42" y="92.68" width="1.51" height="1.54"/>
                <polygon class="cls-14" points="256.07 91.72 252.29 91.72 252.29 95.18 256.07 95.18 256.07 91.72 256.07 91.72"/>
                <rect class="cls-14" x="260.81" y="92.68" width="1.51" height="1.54"/>
                <polygon class="cls-14" points="263.45 91.72 259.68 91.72 259.68 95.18 263.45 95.18 263.45 91.72 263.45 91.72"/>
                <rect class="cls-14" x="246.04" y="99.02" width="1.51" height="1.54"/>
                <polygon class="cls-14" points="248.68 98.06 244.91 98.06 244.91 101.52 248.68 101.52 248.68 98.06 248.68 98.06"/>
                <rect class="cls-14" x="253.42" y="99.02" width="1.51" height="1.54"/>
                <polygon class="cls-14" points="256.07 98.06 252.29 98.06 252.29 101.52 256.07 101.52 256.07 98.06 256.07 98.06"/>
                <rect class="cls-14" x="260.81" y="99.02" width="1.51" height="1.54"/>
                <polygon class="cls-14" points="263.45 98.06 259.68 98.06 259.68 101.52 263.45 101.52 263.45 98.06 263.45 98.06"/>
                <rect class="cls-14" x="246.04" y="105.36" width="1.51" height="1.54"/>
                <polygon class="cls-14" points="248.68 104.4 244.91 104.4 244.91 107.86 248.68 107.86 248.68 104.4 248.68 104.4"/>
                <rect class="cls-14" x="253.42" y="105.36" width="1.51" height="1.54"/>
                <polygon class="cls-14" points="256.07 104.4 252.29 104.4 252.29 107.86 256.07 107.86 256.07 104.4 256.07 104.4"/>
                <rect class="cls-14" x="260.81" y="105.36" width="1.51" height="1.54"/>
                <polygon class="cls-14" points="263.45 104.4 259.68 104.4 259.68 107.86 263.45 107.86 263.45 104.4 263.45 104.4"/>
                <rect class="cls-14" x="246.04" y="111.7" width="1.51" height="1.54"/>
                <polygon class="cls-14" points="248.68 110.74 244.91 110.74 244.91 114.2 248.68 114.2 248.68 110.74 248.68 110.74"/>
                <rect class="cls-14" x="253.42" y="111.7" width="1.51" height="1.54"/>
                <polygon class="cls-14" points="256.07 110.74 252.29 110.74 252.29 114.2 256.07 114.2 256.07 110.74 256.07 110.74"/>
                <rect class="cls-14" x="260.81" y="111.7" width="1.51" height="1.54"/>
                <polygon class="cls-14" points="263.45 110.74 259.68 110.74 259.68 114.2 263.45 114.2 263.45 110.74 263.45 110.74"/>
                <rect class="cls-14" x="246.04" y="118.04" width="1.51" height="1.54"/>
                <polygon class="cls-14" points="248.68 117.08 244.91 117.08 244.91 120.54 248.68 120.54 248.68 117.08 248.68 117.08"/>
                <rect class="cls-14" x="253.42" y="118.04" width="1.51" height="1.54"/>
                <polygon class="cls-14" points="256.07 117.08 252.29 117.08 252.29 120.54 256.07 120.54 256.07 117.08 256.07 117.08"/>
                <rect class="cls-14" x="260.81" y="118.04" width="1.51" height="1.54"/>
                <polygon class="cls-14" points="263.45 117.08 259.68 117.08 259.68 120.54 263.45 120.54 263.45 117.08 263.45 117.08"/>
                <rect class="cls-14" x="246.04" y="124.38" width="1.51" height="1.54"/>
                <polygon class="cls-14" points="248.68 123.42 244.91 123.42 244.91 126.88 248.68 126.88 248.68 123.42 248.68 123.42"/>
                <rect class="cls-14" x="253.42" y="124.38" width="1.51" height="1.54"/>
                <polygon class="cls-14" points="256.07 123.42 252.29 123.42 252.29 126.88 256.07 126.88 256.07 123.42 256.07 123.42"/>
                <rect class="cls-14" x="260.81" y="124.38" width="1.51" height="1.54"/>
                <polygon class="cls-14" points="263.45 123.42 259.68 123.42 259.68 126.88 263.45 126.88 263.45 123.42 263.45 123.42"/>
                <path class="cls-47" d="M88.14,53.22c7.83,0,14.17,7,14.17,15.57H74C74,60.19,80.31,53.22,88.14,53.22Z"/>
                <path class="cls-48" d="M86.86,66.48c0,6,.64,10.8,1.42,10.8s1.41-4.84,1.41-10.8-.63-10.8-1.41-10.8S86.86,60.51,86.86,66.48Z"/>
                <path class="cls-48" d="M93.4,66.48c0,6.06-1.49,11-.75,11.32s3.6-4.56,3.58-11.32-2.91-11.69-3.58-11.32S93.4,60.41,93.4,66.48Z"/>
                <path class="cls-48" d="M83.15,66.48c0,6.06,1.49,11,.75,11.32s-3.6-4.56-3.57-11.32,2.9-11.69,3.57-11.32S83.15,60.41,83.15,66.48Z"/>
                <polygon class="cls-38" points="74.19 75.25 70.09 75.25 70.09 150.91 105.43 150.91 105.43 75.25 101.33 75.25 74.19 75.25"/>
                <rect class="cls-39" x="93.81" y="75.67" width="4.07" height="42.4" transform="translate(191.7 193.74) rotate(180)"/>
                <rect class="cls-39" x="85.83" y="75.67" width="4.07" height="42.4" transform="translate(175.74 193.74) rotate(180)"/>
                <rect class="cls-39" x="77.85" y="75.67" width="4.07" height="42.4" transform="translate(159.78 193.74) rotate(180)"/>
                <rect class="cls-49" x="70.09" y="123.09" width="35.33" height="27.82" transform="translate(175.52 274) rotate(180)"/>
                <polygon class="cls-14" points="81.4 94.83 77.85 94.83 77.85 94.79 77.85 82.77 77.85 82.11 81.93 82.11 81.93 94.79 81.4 94.79 81.4 94.83"/>
                <polygon class="cls-14" points="81.39 111.98 77.85 111.98 77.85 111.95 77.85 99.93 77.85 99.27 81.93 99.27 81.93 111.95 81.39 111.95 81.39 111.98"/>
                <polygon class="cls-14" points="89.38 94.83 85.83 94.83 85.83 94.79 85.83 82.77 85.83 82.11 89.91 82.11 89.91 94.79 89.38 94.79 89.38 94.83"/>
                <polygon class="cls-14" points="89.38 111.98 85.83 111.98 85.83 111.95 85.83 99.93 85.83 99.27 89.91 99.27 89.91 111.95 89.38 111.95 89.38 111.98"/>
                <polygon class="cls-14" points="97.36 94.83 93.81 94.83 93.81 94.79 93.81 82.77 93.81 82.11 97.89 82.11 97.89 94.79 97.36 94.79 97.36 94.83"/>
                <polygon class="cls-14" points="97.36 111.98 93.81 111.98 93.81 111.95 93.81 99.93 93.81 99.27 97.89 99.27 97.89 111.95 97.36 111.95 97.36 111.98"/>
                <rect class="cls-14" x="73.4" y="127.69" width="28.71" height="23.22" transform="translate(175.51 278.6) rotate(180)"/>
                <rect class="cls-50" x="68.89" y="123.09" width="37.38" height="4.51" transform="translate(175.16 250.68) rotate(180)"/>
                <rect class="cls-51" x="69.18" y="70.75" width="37.38" height="4.51" transform="translate(175.74 146) rotate(180)"/>
                <rect class="cls-47" x="67.77" y="69.2" width="40.51" height="1.55" transform="translate(176.05 139.94) rotate(180)"/>
                <rect class="cls-47" x="70.09" y="118.49" width="35.33" height="4.6" transform="translate(175.52 241.58) rotate(180)"/>
                <rect class="cls-52" x="70.58" y="119.04" width="34.39" height="1.49" transform="translate(175.54 239.58) rotate(180)"/>
                <polygon class="cls-53" points="145.4 164.05 119.34 164.05 119.34 5.05 145.4 21.55 145.4 164.05"/>
                <rect class="cls-14" x="121.38" y="30.55" width="22.14" height="1"/>
                <polygon class="cls-14" points="145.55 29.2 119.34 29.2 119.34 32.91 145.55 32.91 145.55 29.2 145.55 29.2"/>
                <rect class="cls-14" x="121.38" y="39.77" width="22.14" height="1"/>
                <polygon class="cls-14" points="145.55 38.42 119.34 38.42 119.34 42.13 145.55 42.13 145.55 38.42 145.55 38.42"/>
                <rect class="cls-14" x="121.38" y="48.99" width="22.14" height="1"/>
                <polygon class="cls-14" points="145.55 47.64 119.34 47.64 119.34 51.35 145.55 51.35 145.55 47.64 145.55 47.64"/>
                <rect class="cls-14" x="121.38" y="58.21" width="22.14" height="1"/>
                <polygon class="cls-14" points="145.55 56.86 119.34 56.86 119.34 60.57 145.55 60.57 145.55 56.86 145.55 56.86"/>
                <rect class="cls-14" x="121.38" y="67.43" width="22.14" height="1"/>
                <polygon class="cls-14" points="145.55 66.08 119.34 66.08 119.34 69.79 145.55 69.79 145.55 66.08 145.55 66.08"/>
                <rect class="cls-14" x="121.38" y="76.65" width="22.14" height="1"/>
                <polygon class="cls-14" points="145.55 75.3 119.34 75.3 119.34 79.01 145.55 79.01 145.55 75.3 145.55 75.3"/>
                <rect class="cls-14" x="121.38" y="85.26" width="22.14" height="1"/>
                <polygon class="cls-14" points="145.55 83.9 119.34 83.9 119.34 87.61 145.55 87.61 145.55 83.9 145.55 83.9"/>
                <rect class="cls-14" x="121.38" y="94.48" width="22.14" height="1"/>
                <polygon class="cls-14" points="145.55 93.12 119.34 93.12 119.34 96.84 145.55 96.84 145.55 93.12 145.55 93.12"/>
                <rect class="cls-14" x="121.38" y="103.7" width="22.14" height="1"/>
                <polygon class="cls-14" points="145.55 102.34 119.34 102.34 119.34 106.06 145.55 106.06 145.55 102.34 145.55 102.34"/>
                <rect class="cls-14" x="121.38" y="112.92" width="22.14" height="1"/>
                <polygon class="cls-14" points="145.55 111.56 119.34 111.56 119.34 115.28 145.55 115.28 145.55 111.56 145.55 111.56"/>
                <rect class="cls-14" x="121.38" y="122.14" width="22.14" height="1"/>
                <polygon class="cls-14" points="145.55 120.78 119.34 120.78 119.34 124.5 145.55 124.5 145.55 120.78 145.55 120.78"/>
                <rect class="cls-14" x="121.38" y="131.36" width="22.14" height="1"/>
                <polygon class="cls-14" points="145.55 130 119.34 130 119.34 133.72 145.55 133.72 145.55 130 145.55 130"/>
                <polygon class="cls-54" points="119.34 5.05 128.55 0.69 152.47 16.67 145.4 21.55 119.34 5.05"/>
                <polygon class="cls-54" points="152.47 16.67 152.47 40.77 145.4 45.12 145.4 21.55 152.47 16.67"/>
                <line class="cls-55" x1="148.94" y1="24.27" x2="148.94" y2="42.62"/>
                <g class="cls-56">
                    <polygon class="cls-13" points="119.4 64.81 119.4 54.13 145.35 81.46 145.35 92.13 119.4 64.81"/>
                    <polygon class="cls-13" points="145.35 58.6 145.35 76.73 119.4 49.41 119.4 30.78 145.35 58.6"/>
                </g>
                <polygon class="cls-53" points="137.93 164.05 161.88 164.05 161.88 35.6 137.93 49.9 137.93 164.05"/>
                <polygon class="cls-54" points="155.01 39.71 155.01 164.05 161.88 164.05 161.88 35.32 155.01 39.71"/>
                <line class="cls-57" x1="140.48" y1="49.86" x2="140.48" y2="162.96"/>
                <line class="cls-57" x1="143.25" y1="48.07" x2="143.25" y2="162.96"/>
                <line class="cls-57" x1="146.13" y1="46.23" x2="146.13" y2="162.96"/>
                <line class="cls-57" x1="149.3" y1="44.69" x2="149.3" y2="162.96"/>
                <line class="cls-57" x1="152.47" y1="42.62" x2="152.47" y2="163.05"/>
                <line class="cls-57" x1="138.79" y1="52.66" x2="153.91" y2="52.66"/>
                <line class="cls-57" x1="139" y1="55.69" x2="154.12" y2="55.69"/>
                <line class="cls-57" x1="139" y1="59.15" x2="154.12" y2="59.15"/>
                <line class="cls-57" x1="139" y1="62.6" x2="154.12" y2="62.6"/>
                <line class="cls-57" x1="139" y1="66.06" x2="154.12" y2="66.06"/>
                <line class="cls-57" x1="139" y1="69.52" x2="154.12" y2="69.52"/>
                <line class="cls-57" x1="139" y1="72.98" x2="154.12" y2="72.98"/>
                <line class="cls-57" x1="139" y1="76.44" x2="154.12" y2="76.44"/>
                <line class="cls-57" x1="139" y1="79.9" x2="154.12" y2="79.9"/>
                <line class="cls-57" x1="139" y1="83.35" x2="154.12" y2="83.35"/>
                <line class="cls-57" x1="139" y1="86.81" x2="154.12" y2="86.81"/>
                <line class="cls-57" x1="139" y1="90.27" x2="154.12" y2="90.27"/>
                <line class="cls-57" x1="139" y1="93.73" x2="154.12" y2="93.73"/>
                <line class="cls-57" x1="139" y1="97.19" x2="154.12" y2="97.19"/>
                <line class="cls-57" x1="139" y1="100.65" x2="154.12" y2="100.65"/>
                <line class="cls-57" x1="139" y1="104.1" x2="154.12" y2="104.1"/>
                <line class="cls-57" x1="139" y1="107.56" x2="154.12" y2="107.56"/>
                <line class="cls-57" x1="139" y1="111.02" x2="154.12" y2="111.02"/>
                <line class="cls-57" x1="139" y1="114.48" x2="154.12" y2="114.48"/>
                <line class="cls-57" x1="139" y1="117.94" x2="154.12" y2="117.94"/>
                <line class="cls-57" x1="139" y1="121.4" x2="154.12" y2="121.4"/>
                <line class="cls-57" x1="139" y1="124.86" x2="154.12" y2="124.86"/>
                <line class="cls-57" x1="139" y1="128.31" x2="154.12" y2="128.31"/>
                <line class="cls-57" x1="139" y1="131.77" x2="154.12" y2="131.77"/>
                <line class="cls-57" x1="139" y1="135.23" x2="154.12" y2="135.23"/>
                <line class="cls-57" x1="139" y1="138.69" x2="154.12" y2="138.69"/>
                <line class="cls-57" x1="139" y1="142.15" x2="154.12" y2="142.15"/>
                <line class="cls-57" x1="139" y1="145.61" x2="154.12" y2="145.61"/>
                <line class="cls-57" x1="139" y1="149.06" x2="154.12" y2="149.06"/>
                <line class="cls-57" x1="139" y1="152.52" x2="154.12" y2="152.52"/>
                <line class="cls-57" x1="139" y1="155.98" x2="154.12" y2="155.98"/>
                <g class="cls-56">
                    <polygon class="cls-13" points="155.01 95.85 155.01 88.9 138.11 106.69 138.11 113.64 155.01 95.85"/>
                    <polygon class="cls-13" points="138.11 91.81 138.11 103.62 155.01 85.83 155.01 73.7 138.11 91.81"/>
                </g>
                <rect class="cls-58" x="174.87" y="39.78" width="16.93" height="13.96"/>
                <rect class="cls-59" x="174.29" y="38.37" width="18.09" height="1.4"/>
                <rect class="cls-60" x="167.42" y="48.21" width="31.84" height="13.96"/>
                <rect class="cls-59" x="166.46" y="46.47" width="33.75" height="1.75"/>
                <rect class="cls-58" x="155.27" y="58.88" width="56.13" height="114.53"/>
                <rect class="cls-59" x="154.27" y="56.69" width="58.14" height="2.2"/>
                <path class="cls-14" d="M194.34,49.41A2.5,2.5,0,0,1,196.8,52v4.74h-4.93V52A2.5,2.5,0,0,1,194.34,49.41Z"/>
                <path class="cls-14" d="M187,49.41A2.51,2.51,0,0,1,189.47,52v4.74h-4.93V52A2.5,2.5,0,0,1,187,49.41Z"/>
                <path class="cls-14" d="M179.67,49.41A2.51,2.51,0,0,1,182.14,52v4.74H177.2V52A2.51,2.51,0,0,1,179.67,49.41Z"/>
                <path class="cls-14" d="M172.34,49.41A2.5,2.5,0,0,1,174.8,52v4.74h-4.93V52A2.51,2.51,0,0,1,172.34,49.41Z"/>
                <rect class="cls-8" x="189.47" y="39.44" width="0.83" height="7.31"/>
                <rect class="cls-8" x="185.17" y="39.44" width="0.83" height="7.31"/>
                <rect class="cls-8" x="180.88" y="39.44" width="0.83" height="7.31"/>
                <rect class="cls-8" x="176.58" y="39.44" width="0.83" height="7.31"/>
                <rect class="cls-14" x="170.7" y="154.08" width="25.65" height="19.33" transform="translate(367.05 327.49) rotate(180)"/>
                <g class="cls-61">
                    <polygon class="cls-15" points="175.95 155.14 175.95 154.7 177.81 154.7 194.9 172.79 192.63 172.79 175.95 155.14"/>
                    <polygon class="cls-15" points="195.88 166.06 195.88 171.25 180.25 154.7 185.15 154.7 195.88 166.06"/>
                </g>
                <line class="cls-62" x1="183.34" y1="154.71" x2="183.34" y2="172.89"/>
                <polygon class="cls-63" points="205.93 74.76 205.03 74.76 205.03 74.79 199.05 74.79 199.05 74.76 199.05 64.12 199.05 63.53 205.93 63.53 205.93 74.76"/>
                <polygon class="cls-63" points="196.35 74.7 195.46 74.7 195.46 74.73 189.47 74.73 189.47 74.7 189.47 64.06 189.47 63.48 196.35 63.48 196.35 74.7"/>
                <polygon class="cls-63" points="177.2 74.7 176.31 74.7 176.31 74.73 170.32 74.73 170.32 74.7 170.32 64.06 170.32 63.48 177.2 63.48 177.2 74.7"/>
                <polygon class="cls-63" points="167.62 63.53 167.62 74.76 166.73 74.76 166.73 74.79 160.74 74.79 160.74 74.76 160.74 64.12 160.74 63.53 167.62 63.53"/>
                <polygon class="cls-63" points="185.88 74.79 179.9 74.79 179.9 74.76 179.9 64.12 179.9 63.53 186.78 63.53 186.78 74.76 185.88 74.76 185.88 74.79"/>
                <polygon class="cls-63" points="205.93 90.22 205.03 90.22 205.03 90.25 199.05 90.25 199.05 90.22 199.05 79.58 199.05 78.99 205.93 78.99 205.93 90.22"/>
                <polygon class="cls-63" points="196.35 90.16 195.46 90.16 195.46 90.19 189.47 90.19 189.47 90.16 189.47 79.53 189.47 78.94 196.35 78.94 196.35 90.16"/>
                <polygon class="cls-63" points="177.2 90.16 176.31 90.16 176.31 90.19 170.32 90.19 170.32 90.16 170.32 79.53 170.32 78.94 177.2 78.94 177.2 90.16"/>
                <polygon class="cls-63" points="167.62 78.99 167.62 90.22 166.73 90.22 166.73 90.25 160.74 90.25 160.74 90.22 160.74 79.58 160.74 78.99 167.62 78.99"/>
                <polygon class="cls-63" points="185.88 90.25 179.9 90.25 179.9 90.22 179.9 79.58 179.9 78.99 186.78 78.99 186.78 90.22 185.88 90.22 185.88 90.25"/>
                <polygon class="cls-63" points="205.93 105.68 205.03 105.68 205.03 105.71 199.05 105.71 199.05 105.68 199.05 95.04 199.05 94.45 205.93 94.45 205.93 105.68"/>
                <polygon class="cls-63" points="196.35 105.62 195.46 105.62 195.46 105.65 189.47 105.65 189.47 105.62 189.47 94.98 189.47 94.39 196.35 94.39 196.35 105.62"/>
                <polygon class="cls-63" points="177.2 105.62 176.31 105.62 176.31 105.65 170.32 105.65 170.32 105.62 170.32 94.98 170.32 94.39 177.2 94.39 177.2 105.62"/>
                <polygon class="cls-63" points="167.62 94.45 167.62 105.68 166.73 105.68 166.73 105.71 160.74 105.71 160.74 105.68 160.74 95.04 160.74 94.45 167.62 94.45"/>
                <polygon class="cls-63" points="185.88 105.71 179.9 105.71 179.9 105.68 179.9 95.04 179.9 94.45 186.78 94.45 186.78 105.68 185.88 105.68 185.88 105.71"/>
                <polygon class="cls-63" points="205.93 121.14 205.03 121.14 205.03 121.17 199.05 121.17 199.05 121.14 199.05 110.5 199.05 109.91 205.93 109.91 205.93 121.14"/>
                <polygon class="cls-63" points="196.35 121.08 195.46 121.08 195.46 121.11 189.47 121.11 189.47 121.08 189.47 110.44 189.47 109.85 196.35 109.85 196.35 121.08"/>
                <polygon class="cls-63" points="177.2 121.08 176.31 121.08 176.31 121.11 170.32 121.11 170.32 121.08 170.32 110.44 170.32 109.85 177.2 109.85 177.2 121.08"/>
                <polygon class="cls-63" points="167.62 109.91 167.62 121.14 166.73 121.14 166.73 121.17 160.74 121.17 160.74 121.14 160.74 110.5 160.74 109.91 167.62 109.91"/>
                <polygon class="cls-63" points="185.88 121.17 179.9 121.17 179.9 121.14 179.9 110.5 179.9 109.91 186.78 109.91 186.78 121.14 185.88 121.14 185.88 121.17"/>
                <polygon class="cls-63" points="205.93 136.59 205.03 136.59 205.03 136.63 199.05 136.63 199.05 136.59 199.05 125.95 199.05 125.37 205.93 125.37 205.93 136.59"/>
                <polygon class="cls-63" points="196.35 136.54 195.46 136.54 195.46 136.57 189.47 136.57 189.47 136.54 189.47 125.9 189.47 125.31 196.35 125.31 196.35 136.54"/>
                <polygon class="cls-63" points="177.2 136.54 176.31 136.54 176.31 136.57 170.32 136.57 170.32 136.54 170.32 125.9 170.32 125.31 177.2 125.31 177.2 136.54"/>
                <polygon class="cls-63" points="167.62 125.37 167.62 136.59 166.73 136.59 166.73 136.63 160.74 136.63 160.74 136.59 160.74 125.95 160.74 125.37 167.62 125.37"/>
                <polygon class="cls-63" points="185.88 136.63 179.9 136.63 179.9 136.59 179.9 125.95 179.9 125.37 186.78 125.37 186.78 136.59 185.88 136.59 185.88 136.63"/>
                <polygon class="cls-63" points="205.93 152.05 205.03 152.05 205.03 152.09 199.05 152.09 199.05 152.05 199.05 141.41 199.05 140.83 205.93 140.83 205.93 152.05"/>
                <polygon class="cls-63" points="196.35 152 195.46 152 195.46 152.03 189.47 152.03 189.47 152 189.47 141.36 189.47 140.77 196.35 140.77 196.35 152"/>
                <polygon class="cls-63" points="177.2 152 176.31 152 176.31 152.03 170.32 152.03 170.32 152 170.32 141.36 170.32 140.77 177.2 140.77 177.2 152"/>
                <polygon class="cls-63" points="167.62 140.83 167.62 152.05 166.73 152.05 166.73 152.09 160.74 152.09 160.74 152.05 160.74 141.41 160.74 140.83 167.62 140.83"/>
                <polygon class="cls-63" points="185.88 152.09 179.9 152.09 179.9 152.05 179.9 141.41 179.9 140.83 186.78 140.83 186.78 152.05 185.88 152.05 185.88 152.09"/>
                <polygon class="cls-14" points="205.93 73.21 205.03 73.21 205.03 73.24 199.05 73.24 199.05 73.21 199.05 62.57 199.05 61.98 205.93 61.98 205.93 73.21"/>
                <polygon class="cls-14" points="196.35 73.16 195.46 73.16 195.46 73.18 189.47 73.18 189.47 73.16 189.47 62.52 189.47 61.93 196.35 61.93 196.35 73.16"/>
                <polygon class="cls-14" points="177.2 73.16 176.31 73.16 176.31 73.18 170.32 73.18 170.32 73.16 170.32 62.52 170.32 61.93 177.2 61.93 177.2 73.16"/>
                <polygon class="cls-14" points="167.62 61.98 167.62 73.21 166.73 73.21 166.73 73.24 160.74 73.24 160.74 73.21 160.74 62.57 160.74 61.98 167.62 61.98"/>
                <polygon class="cls-14" points="185.88 73.24 179.9 73.24 179.9 73.21 179.9 62.57 179.9 61.98 186.78 61.98 186.78 73.21 185.88 73.21 185.88 73.24"/>
                <polygon class="cls-14" points="205.93 88.67 205.03 88.67 205.03 88.7 199.05 88.7 199.05 88.67 199.05 78.03 199.05 77.44 205.93 77.44 205.93 88.67"/>
                <polygon class="cls-14" points="196.35 88.61 195.46 88.61 195.46 88.64 189.47 88.64 189.47 88.61 189.47 77.98 189.47 77.39 196.35 77.39 196.35 88.61"/>
                <polygon class="cls-14" points="177.2 88.61 176.31 88.61 176.31 88.64 170.32 88.64 170.32 88.61 170.32 77.98 170.32 77.39 177.2 77.39 177.2 88.61"/>
                <polygon class="cls-14" points="167.62 77.44 167.62 88.67 166.73 88.67 166.73 88.7 160.74 88.7 160.74 88.67 160.74 78.03 160.74 77.44 167.62 77.44"/>
                <polygon class="cls-14" points="185.88 88.7 179.9 88.7 179.9 88.67 179.9 78.03 179.9 77.44 186.78 77.44 186.78 88.67 185.88 88.67 185.88 88.7"/>
                <polygon class="cls-14" points="205.93 104.13 205.03 104.13 205.03 104.16 199.05 104.16 199.05 104.13 199.05 93.49 199.05 92.9 205.93 92.9 205.93 104.13"/>
                <polygon class="cls-14" points="196.35 104.07 195.46 104.07 195.46 104.1 189.47 104.1 189.47 104.07 189.47 93.44 189.47 92.85 196.35 92.85 196.35 104.07"/>
                <polygon class="cls-14" points="177.2 104.07 176.31 104.07 176.31 104.1 170.32 104.1 170.32 104.07 170.32 93.44 170.32 92.85 177.2 92.85 177.2 104.07"/>
                <polygon class="cls-14" points="167.62 92.9 167.62 104.13 166.73 104.13 166.73 104.16 160.74 104.16 160.74 104.13 160.74 93.49 160.74 92.9 167.62 92.9"/>
                <polygon class="cls-14" points="185.88 104.16 179.9 104.16 179.9 104.13 179.9 93.49 179.9 92.9 186.78 92.9 186.78 104.13 185.88 104.13 185.88 104.16"/>
                <polygon class="cls-14" points="205.93 119.59 205.03 119.59 205.03 119.62 199.05 119.62 199.05 119.59 199.05 108.95 199.05 108.36 205.93 108.36 205.93 119.59"/>
                <polygon class="cls-14" points="196.35 119.53 195.46 119.53 195.46 119.56 189.47 119.56 189.47 119.53 189.47 108.9 189.47 108.31 196.35 108.31 196.35 119.53"/>
                <polygon class="cls-14" points="177.2 119.53 176.31 119.53 176.31 119.56 170.32 119.56 170.32 119.53 170.32 108.9 170.32 108.31 177.2 108.31 177.2 119.53"/>
                <polygon class="cls-14" points="167.62 108.36 167.62 119.59 166.73 119.59 166.73 119.62 160.74 119.62 160.74 119.59 160.74 108.95 160.74 108.36 167.62 108.36"/>
                <polygon class="cls-14" points="185.88 119.62 179.9 119.62 179.9 119.59 179.9 108.95 179.9 108.36 186.78 108.36 186.78 119.59 185.88 119.59 185.88 119.62"/>
                <polygon class="cls-14" points="205.93 135.05 205.03 135.05 205.03 135.08 199.05 135.08 199.05 135.05 199.05 124.41 199.05 123.82 205.93 123.82 205.93 135.05"/>
                <polygon class="cls-14" points="196.35 134.99 195.46 134.99 195.46 135.02 189.47 135.02 189.47 134.99 189.47 124.36 189.47 123.77 196.35 123.77 196.35 134.99"/>
                <polygon class="cls-14" points="177.2 134.99 176.31 134.99 176.31 135.02 170.32 135.02 170.32 134.99 170.32 124.36 170.32 123.77 177.2 123.77 177.2 134.99"/>
                <polygon class="cls-14" points="167.62 123.82 167.62 135.05 166.73 135.05 166.73 135.08 160.74 135.08 160.74 135.05 160.74 124.41 160.74 123.82 167.62 123.82"/>
                <polygon class="cls-14" points="185.88 135.08 179.9 135.08 179.9 135.05 179.9 124.41 179.9 123.82 186.78 123.82 186.78 135.05 185.88 135.05 185.88 135.08"/>
                <polygon class="cls-14" points="205.93 150.51 205.03 150.51 205.03 150.54 199.05 150.54 199.05 150.51 199.05 139.87 199.05 139.28 205.93 139.28 205.93 150.51"/>
                <polygon class="cls-14" points="196.35 150.45 195.46 150.45 195.46 150.48 189.47 150.48 189.47 150.45 189.47 139.82 189.47 139.23 196.35 139.23 196.35 150.45"/>
                <polygon class="cls-14" points="177.2 150.45 176.31 150.45 176.31 150.48 170.32 150.48 170.32 150.45 170.32 139.82 170.32 139.23 177.2 139.23 177.2 150.45"/>
                <polygon class="cls-14" points="167.62 139.28 167.62 150.51 166.73 150.51 166.73 150.54 160.74 150.54 160.74 150.51 160.74 139.87 160.74 139.28 167.62 139.28"/>
                <polygon class="cls-14" points="185.88 150.54 179.9 150.54 179.9 150.51 179.9 139.87 179.9 139.28 186.78 139.28 186.78 150.51 185.88 150.51 185.88 150.54"/>
                <path class="cls-64" d="M346.66,162.78a1.6,1.6,0,0,0,.67-1.95c-.38-.89-.8-.43-1.35-.05.4-1.65.38-4.51-.66-5.83-.89-1.12-2.65.19-3.24,1.32-.46-.74-.68-1.68-1.65-1.57-.61.07-.93.76-1.5,1,.4-1.66-.47-4.65-1.91-5.21-1.75-.67-2.38,1.66-2.38,3.24-.59-2.63-2.22-.32-2.84.84-.39-.42-.57-1.17-1.24-1-.44.14-.79.93-.87,1.42-.25-1.82-2.2-4.49-3.87-3.91s-1.57,2.6-1.59,4.23c-.46-1.12-2.06-1-2.66-.16a3.7,3.7,0,0,0,0,3.38c-.81-.84-1.59-2.51-2.84-1.82-1.6.89-.4,2.89-.11,4.25-.18-.82-2.53-.67-2.64.29s1.19,1.47,1.83,1.54Z"/>
                <rect class="cls-8" x="334.26" y="157.23" width="1.71" height="5.61"/>
                <rect class="cls-8" x="330.77" y="157.23" width="1.71" height="5.61"/>
                <rect class="cls-8" x="326.89" y="157.23" width="1.71" height="5.61"/>
                <rect class="cls-8" x="323.42" y="157.23" width="1.71" height="5.61"/>
                <rect class="cls-8" x="319.9" y="157.23" width="1.71" height="5.61"/>
                <rect class="cls-8" x="316" y="157.23" width="1.71" height="5.61"/>
                <rect class="cls-8" x="316" y="158.45" width="19.97" height="0.53"/>
                <path class="cls-8" d="M334.06,156.17a1.05,1.05,0,0,0,1.05,1.06,1.06,1.06,0,1,0-1.05-1.06Z"/>
                <path class="cls-8" d="M330.56,156.17a1.06,1.06,0,1,0,1.06-1.06A1.06,1.06,0,0,0,330.56,156.17Z"/>
                <path class="cls-8" d="M326.69,156.17a1.06,1.06,0,1,0,1.06-1.06A1.05,1.05,0,0,0,326.69,156.17Z"/>
                <path class="cls-8" d="M323.21,156.17a1.06,1.06,0,1,0,1.06-1.06A1.06,1.06,0,0,0,323.21,156.17Z"/>
                <path class="cls-8" d="M319.69,156.17a1.07,1.07,0,1,0,1.07-1.06A1.06,1.06,0,0,0,319.69,156.17Z"/>
                <path class="cls-8" d="M315.8,156.17a1.06,1.06,0,1,0,2.12,0,1.06,1.06,0,0,0-2.12,0Z"/>
                <path class="cls-65" d="M224.23,162.81a1,1,0,0,1-.44-1.25c.25-.58.52-.28.87,0a5.24,5.24,0,0,1,.43-3.75c.57-.72,1.7.13,2.08.85.29-.48.44-1.08,1.06-1,.39,0,.6.49,1,.62-.25-1.07.3-3,1.23-3.35,1.12-.43,1.53,1.07,1.53,2.08.37-1.68,1.42-.2,1.82.54.25-.27.37-.75.8-.62.28.09.51.6.56.91.16-1.17,1.41-2.88,2.48-2.51s1,1.67,1,2.72c.29-.72,1.32-.61,1.71-.1a2.37,2.37,0,0,1,0,2.17c.53-.54,1-1.61,1.83-1.17,1,.57.26,1.86.07,2.73.12-.52,1.62-.43,1.7.19s-.77.94-1.18,1Z"/>
                <path class="cls-66" d="M230.31,152.56c-2.23-1.77-5.16-2.29-5.16-5.11a5.11,5.11,0,0,1,3.32-4.77,3.31,3.31,0,0,1-.18-1.05c0-2.2,2.07-4,4.62-4a5,5,0,0,1,3.16,1.09,2.9,2.9,0,0,1,5.44,1.37,2.79,2.79,0,0,1-.22,1.09,3.92,3.92,0,0,1,1.33-.24,4,4,0,0,1,2,7.42,3,3,0,0,1,.31,1.34,3.81,3.81,0,0,1-4,3.51S235,156.3,230.31,152.56Z"/>
                <path class="cls-8" d="M237.23,148.33s-.23,3.67-1.89,4-2.7-5.9-2.7-5.9l.12,4.07-2.75-.58,2.86,1.72a14.21,14.21,0,0,0,1.55,2.07c.75.74-.29,9.17-.29,9.17h2.58s-.86-7.46-.17-8.72,3.38.18,5-3.55c0,0-1.89,2.24-3.44,2.06l.4-2.23s-1.2,2.81-2,2.64S238.2,151.42,237.23,148.33Z"/>
                <polygon class="cls-67" points="288.71 123.05 288.71 117.62 279.55 117.62 279.55 108.81 278.39 108.81 278.39 117.62 269.45 117.62 269.45 123.05 240.27 123.05 240.27 129.96 242.58 129.96 242.58 163.47 315.68 163.47 315.68 129.96 317.88 129.96 317.88 123.05 288.71 123.05"/>
                <rect class="cls-68" x="278.39" y="108.81" width="8.11" height="5.48"/>
                <rect class="cls-69" x="271.65" y="143.35" width="14.93" height="20.12"/>
                <rect class="cls-70" x="240.27" y="123.05" width="77.61" height="6.91"/>
                <rect class="cls-71" x="269.45" y="117.62" width="19.67" height="5.43"/>
                <polyline class="cls-69" points="271.65 143.35 275.25 147.25 283.38 147.25 286.5 143.35"/>
                <line class="cls-69" x1="275.27" y1="147.25" x2="275.27" y2="163.47"/>
                <rect class="cls-72" x="275.25" y="147.25" width="8.13" height="16.23"/>
                <rect class="cls-39" x="250.85" y="136.44" width="4.45" height="4.45"/>
                <rect class="cls-39" x="250.85" y="144.59" width="4.45" height="4.45"/>
                <rect class="cls-39" x="250.85" y="152.75" width="4.45" height="4.45"/>
                <rect class="cls-39" x="261.25" y="136.44" width="4.45" height="4.45"/>
                <rect class="cls-39" x="261.25" y="144.59" width="4.45" height="4.45"/>
                <rect class="cls-39" x="261.25" y="152.75" width="4.45" height="4.45"/>
                <rect class="cls-39" x="292.46" y="136.44" width="4.45" height="4.45"/>
                <rect class="cls-39" x="292.46" y="144.59" width="4.45" height="4.45"/>
                <rect class="cls-39" x="292.46" y="152.75" width="4.45" height="4.45"/>
                <rect class="cls-39" x="271.65" y="136.44" width="4.45" height="4.45"/>
                <rect class="cls-39" x="282.05" y="136.44" width="4.45" height="4.45"/>
                <rect class="cls-39" x="302.86" y="136.44" width="4.45" height="4.45"/>
                <rect class="cls-39" x="302.86" y="144.59" width="4.45" height="4.45"/>
                <rect class="cls-39" x="302.86" y="152.75" width="4.45" height="4.45"/>
                <rect class="cls-73" x="250.85" y="135.19" width="4.45" height="4.45"/>
                <rect class="cls-73" x="250.85" y="143.35" width="4.45" height="4.45"/>
                <rect class="cls-73" x="250.85" y="151.5" width="4.45" height="4.45"/>
                <rect class="cls-73" x="261.25" y="135.19" width="4.45" height="4.45"/>
                <rect class="cls-73" x="261.25" y="143.35" width="4.45" height="4.45"/>
                <rect class="cls-73" x="261.25" y="151.5" width="4.45" height="4.45"/>
                <rect class="cls-73" x="292.46" y="135.19" width="4.45" height="4.45"/>
                <rect class="cls-73" x="292.46" y="143.35" width="4.45" height="4.45"/>
                <rect class="cls-73" x="292.46" y="151.5" width="4.45" height="4.45"/>
                <rect class="cls-73" x="271.65" y="135.19" width="4.45" height="4.45"/>
                <rect class="cls-73" x="282.05" y="135.19" width="4.45" height="4.45"/>
                <rect class="cls-73" x="302.86" y="135.19" width="4.45" height="4.45"/>
                <rect class="cls-73" x="302.86" y="143.35" width="4.45" height="4.45"/>
                <rect class="cls-73" x="302.86" y="151.5" width="4.45" height="4.45"/>
                <rect class="cls-74" x="240.78" y="123.65" width="76.57" height="2.86"/>
                <rect class="cls-8" x="278.39" y="108.81" width="1.16" height="8.8"/>
                <path class="cls-75" d="M338.59,150.24a6.25,6.25,0,0,0,2.26-12.1,4.31,4.31,0,0,0,.22-1.29c0-2.7-2.53-4.88-5.66-4.88a6.11,6.11,0,0,0-3.86,1.33,3.58,3.58,0,0,0-3.11-1.83,3.52,3.52,0,0,0-3.55,3.51,3.47,3.47,0,0,0,.26,1.33,4.87,4.87,0,0,0-4.1,8.79,3.79,3.79,0,0,0-.37,1.64c0,2.37,2.21,4.29,4.95,4.29,0,0,7.1,3.42,13-.79"/>
                <path class="cls-8" d="M333.7,145.05s-.28,4.49-2.31,4.91-3.3-7.23-3.3-7.23l.14,5-3.37-.69,3.51,2.1a16.56,16.56,0,0,0,1.9,2.53c.91.91-.36,11.22-.36,11.22h3.16s-1.05-9.12-.21-10.66,4.14.21,6.11-4.35c0,0-2.32,2.73-4.21,2.52l.49-2.73s-1.48,3.43-2.46,3.22S334.89,148.84,333.7,145.05Z"/>
                <path class="cls-37" d="M62.66,147.86c-3-2.36-6.88-3.05-6.88-6.82a6.81,6.81,0,0,1,4.42-6.35,4.67,4.67,0,0,1-.24-1.4c0-2.94,2.76-5.32,6.16-5.32a6.68,6.68,0,0,1,4.21,1.45,3.87,3.87,0,0,1,7.25,1.83,3.72,3.72,0,0,1-.29,1.45,5.24,5.24,0,0,1,1.77-.32,5.3,5.3,0,0,1,2.69,9.89,4,4,0,0,1,.42,1.79c0,2.58-2.42,4.67-5.4,4.67C76.77,148.73,68.94,152.84,62.66,147.86Z"/>
                <path class="cls-8" d="M71.88,142.21s-.31,4.89-2.52,5.35-3.6-7.87-3.6-7.87l.16,5.43-3.67-.76,3.82,2.28a18,18,0,0,0,2.07,2.76c1,1-.39,12.22-.39,12.22h3.44S70,151.69,71,150s4.51.23,6.65-4.74c0,0-2.52,3-4.58,2.75l.53-3s-1.61,3.75-2.67,3.52S73.18,146.34,71.88,142.21Z"/>
                <path class="cls-20" d="M54.09,151s-10.35,4.79-17.23-1.59c-3.57-3.31-8.81-3.91-8.81-8.73a8.74,8.74,0,0,1,5.66-8.15,5.89,5.89,0,0,1-.31-1.78c0-3.77,3.54-6.82,7.9-6.82a8.52,8.52,0,0,1,5.39,1.86A5,5,0,0,1,51,123.27,4.92,4.92,0,0,1,56,128.16a4.82,4.82,0,0,1-.37,1.86,6.77,6.77,0,0,1,9.12,6.4,6.75,6.75,0,0,1-3.4,5.85,5.28,5.28,0,0,1,.53,2.3c0,3.3-3.1,6-6.92,6"/>
                <path class="cls-8" d="M43.68,142.21s.39,6.26,3.24,6.85S51.52,139,51.52,139l-.2,7,4.7-1-4.89,2.93a23.37,23.37,0,0,1-2.65,3.53c-1.27,1.27.49,15.67.49,15.67H44.56s1.47-12.73.3-14.89-5.77.3-8.52-6.06c0,0,3.23,3.81,5.87,3.52l-.68-3.82s2.06,4.8,3.43,4.5S42,147.49,43.68,142.21Z"/>
                <g class="AirCamera">
                    <path class="cls-5" d="M46.34,49.79c.13,0,0,1.05-.06,1.12a5.21,5.21,0,0,1-2.48,1.53c-.57.17-2.14,1-2.66.75L38.4,52,42,50.57Z"/>
                    <path class="cls-6" d="M46.87,56.34s4.91-3.65,15.1-2.81c1.33-.06,1.43,2.27.1,2.33-5,.22-8.36,2.35-11.27,6.31a3,3,0,0,1-.56.61C48.15,64.28,46.87,56.34,46.87,56.34Z"/>
                    <ellipse class="cls-6" cx="44.19" cy="50.18" rx="2.18" ry="1.01" transform="translate(-8.34 8.81) rotate(-10.41)"/>
                    <path class="cls-6" d="M28.51,77.27a5.33,5.33,0,0,0,2.66,4.39l.17.09a3.68,3.68,0,0,0,.57.26,5.34,5.34,0,0,0,2.16.36,5.41,5.41,0,0,0,2.13-.55,3.6,3.6,0,0,0,.54-.31l.16-.1a5.34,5.34,0,1,0-8.39-4.14Z"/>
                    <path class="cls-7" d="M31.15,72.49c0,.87,1.18,1.52,2.56,1.46s2.45-.81,2.42-1.67a.22.22,0,0,0,0-.08,5.43,5.43,0,0,0-2.51-.5,5.35,5.35,0,0,0-2.45.72A.15.15,0,0,0,31.15,72.49Z"/>
                    <path class="cls-7" d="M35,69.8l.1,2.36c0,.52-.63,1-1.47,1s-1.52-.36-1.54-.88L32,69.93Z"/>
                    <path class="cls-7" d="M32,69.93c0-.52.64-1,1.47-1s1.53.36,1.55.88-.64,1-1.47,1S32,70.45,32,69.93Z"/>
                    <path class="cls-8" d="M30.55,66.36l.19,4.41a1.26,1.26,0,0,0,.25.68,3.16,3.16,0,0,0,2.65,1,3,3,0,0,0,2.62-1.32,1.14,1.14,0,0,0,.13-.57l-.19-4.4Z"/>
                    <path class="cls-6" d="M48.92,57A12.65,12.65,0,0,0,44,52.38c-.3-.18-.61-.34-.93-.5-.65-.31-1.32-.6-2-.86a28.43,28.43,0,0,0-11-1.59c-10.72.46-19.18,6.16-18.9,12.74.1,2.37,1.78,4.17,4.39,5.48.26.14.53.26.81.39a32.5,32.5,0,0,0,9.8,2.25,48,48,0,0,0,13.33-.08c4-.73,9.65-2.6,10.4-7.27"/>
                    <path class="cls-9" d="M35.76,79.92S30,81.27,31.64,73.76c0,0-.08.08-.75-.77a5,5,0,0,0-1.36,6.62,5.2,5.2,0,0,0,6.35,2.06Z"/>
                    <path class="cls-10" d="M38.49,75.09a2.06,2.06,0,0,0-2.56,0A3.81,3.81,0,0,0,35,78.28l.16,3.62s2.34-.11,3.91-3.32A19.77,19.77,0,0,0,38.49,75.09Z"/>
                    <path class="cls-11" d="M38.87,78.32l-.33-2.14a1.23,1.23,0,0,0-1.78-.48s-.78.43-.79,2l.23,4.09S39,80.56,38.87,78.32Z"/>
                    <ellipse class="cls-12" cx="37.51" cy="77.31" rx="1.16" ry="1.4" transform="translate(-3.31 1.7) rotate(-2.48)"/>
                    <ellipse class="cls-13" cx="37.55" cy="77.3" rx="0.85" ry="1.02" transform="translate(-3.31 1.7) rotate(-2.48)"/>
                    <ellipse class="cls-12" cx="37.9" cy="76.81" rx="0.21" ry="0.26" transform="translate(-3.29 1.71) rotate(-2.48)"/>
                    <path class="cls-10" d="M42.28,55.53s.9,5.93-7,3.92c0,0-13.65-2.6-14-7C21.26,52.49,25,44.34,42.28,55.53Z"/>
                    <path class="cls-14" d="M22,52.45c.11,2.52,10.83,6.33,16.28,6.1,3.46-.15,4.52-3.88,3.56-6.73-1.4-4.13-6.43-4.54-10.17-4.38C26.22,47.68,21.89,49.92,22,52.45Z"/>
                    <path class="cls-15" d="M30,48.31l-.3-.1A8.35,8.35,0,0,1,34,47.75a12.69,12.69,0,0,1,4.66,1.16c1,.46,1.63,2.38.28,2.81s-2.36-.47-3.32-1.15C33.86,49.28,32,48.93,30,48.31Z"/>
                    <path class="cls-10" d="M46.06,54.19s6.88,5.62,1.64,12.16c0,0-6.81,6.93-26.82,2.76,0,0-10.54-1.62-9.31-8.39A8.13,8.13,0,0,1,14,56s-2.64,3.63-1.75,5.83c1.22,3,4.41,4.4,7.35,5.13a39.79,39.79,0,0,0,13.5.79c4-.4,8.66-.92,11.88-3.55S47.28,57.62,46.06,54.19Z"/>
                    <path class="cls-6" d="M12.94,60.37a13,13,0,0,0-6-.68C6,59.78,2.49,61,2.08,59.55c-.64-2.28,3-3.25,4.18-3.29,2.76-.09,4.58-.06,7.14,0"/>
                    <path class="cls-6" d="M24.65,67.51a15.55,15.55,0,0,0-3.26.3,49.33,49.33,0,0,0-8,1.82c-1.73.65-3.58,1.76-5.52,1.86-1.7.09-4.55-1-4-3.16.42-1.58,3.4-1.8,4.91-2.19a27.85,27.85,0,0,0,6.09-2.37"/>
                    <path class="cls-10" d="M62.45,54.28c-.82-.5-3.31.34-4.15.52a20.58,20.58,0,0,0-4.77,1.53c-1.47.71-2.65,1.83-4.35,1.89-.06.6-.6,5.07.92,4.27,0,0,2.84-4.36,6.23-5.55a15.24,15.24,0,0,1,6-1.46S63.19,54.73,62.45,54.28Z"/>
                    <ellipse class="cls-6" cx="59.84" cy="53.69" rx="3.33" ry="1.54" transform="matrix(1, -0.04, 0.04, 1, -2.27, 2.64)"/>
                    <path class="cls-10" d="M48.06,56.18s.9,2.2,2.17,2l-1,1.72-.73-.37Z"/>
                    <path class="cls-10" d="M24.08,67.29c-.21,0-.67-.31-.87-.39a9.65,9.65,0,0,0-2.82-.54c-3.52-.19-6.06,1.54-9.2,2.69-1.83.66-5.64,2.12-6.94-.18,0,0-.21,2.57,4.73,2.2,0,0,4.8-1.81,5.74-2.25l-.94.44A37.27,37.27,0,0,1,24.08,67.29Z"/>
                    <ellipse class="cls-6" cx="7.97" cy="67.71" rx="4.02" ry="2.19" transform="translate(-5.08 0.79) rotate(-4.33)"/>
                    <path class="cls-10" d="M13.28,59.58c-.69-1-6.69-.76-7.39-.69,0,0-3.26.3-3.6,0,0,0-.22,1.41,2.21,1.11a12.13,12.13,0,0,1,6-.5c.89.16,1.75.42,2.64.59.06-.27.17.06.22-.23A.36.36,0,0,0,13.28,59.58Z"/>
                    <ellipse class="cls-6" cx="4.66" cy="57.71" rx="2.77" ry="1.28" transform="translate(-2.49 0.26) rotate(-2.48)"/>
                    <path class="cls-8" d="M62.05,52.88c0-.74-1-1.3-2.2-1.25s-2.12.69-2.08,1.43,1,1.3,2.2,1.25S62.08,53.62,62.05,52.88Z"/>
                    <path class="cls-16" d="M60.37,50.15l1,0,.11,2.48c0,.43-.39.81-1,1a2.61,2.61,0,0,1-.58.09c-.88,0-1.61-.37-1.63-.92l-.11-2.49Z"/>
                    <ellipse class="cls-17" cx="59.68" cy="49.63" rx="4.64" ry="2.02" transform="translate(-2.09 2.63) rotate(-2.48)"/>
                    <path class="cls-18" d="M58.25,49c0-.55.67-1,1.54-1.06s1.62.38,1.64.93-.67,1-1.55,1.07S58.27,49.52,58.25,49Z"/>
                    <path class="cls-19" d="M61.32,48.37a1.55,1.55,0,0,0-3,.13,1.38,1.38,0,0,0,0,.67.76.76,0,0,0,.19.32,1.84,1.84,0,0,0,1.39.44,1.86,1.86,0,0,0,1.34-.56.78.78,0,0,0,.16-.33A1.43,1.43,0,0,0,61.32,48.37Z"/>
                    <path class="cls-12" d="M60.15,48.33c.2.18.47.22.6.08a.53.53,0,0,0-.73-.67C59.89,47.88,60,48.15,60.15,48.33Z"/>
                    <path class="cls-8" d="M10.35,66.66c0-.82-1.14-1.45-2.45-1.39s-2.36.77-2.32,1.6S6.72,68.32,8,68.26,10.39,67.49,10.35,66.66Z"/>
                    <path class="cls-16" d="M8.48,63.63l1.12-.05.12,2.77c0,.47-.42.89-1.08,1.08a2.52,2.52,0,0,1-.64.11c-1,0-1.79-.42-1.82-1l-.12-2.78Z"/>
                    <ellipse class="cls-17" cx="7.71" cy="63.05" rx="5.16" ry="2.25" transform="translate(-2.72 0.39) rotate(-2.48)"/>
                    <path class="cls-18" d="M6.12,62.31c0-.62.74-1.15,1.72-1.19s1.8.42,1.82,1-.75,1.15-1.72,1.19S6.15,62.92,6.12,62.31Z"/>
                    <path class="cls-19" d="M9.54,61.65a1.73,1.73,0,0,0-3.34.14,1.43,1.43,0,0,0,0,.74.78.78,0,0,0,.21.36,2.1,2.1,0,0,0,1.54.5,2.05,2.05,0,0,0,1.49-.63.75.75,0,0,0,.18-.37A1.46,1.46,0,0,0,9.54,61.65Z"/>
                    <path class="cls-12" d="M8.24,61.6c.22.2.52.24.66.08S9,61.23,8.76,61a.5.5,0,0,0-.67-.09A.49.49,0,0,0,8.24,61.6Z"/>
                    <path class="cls-8" d="M45.63,49.59c0-.52-.72-.92-1.56-.88s-1.5.49-1.47,1,.72.92,1.56.88S45.65,50.12,45.63,49.59Z"/>
                    <path class="cls-16" d="M44.44,47.66l.72,0,.07,1.76c0,.3-.27.57-.68.69a1.85,1.85,0,0,1-.41.07c-.62,0-1.14-.26-1.16-.65l-.08-1.77Z"/>
                    <ellipse class="cls-17" cx="43.95" cy="47.3" rx="3.28" ry="1.43" transform="translate(-2.01 1.95) rotate(-2.48)"/>
                    <path class="cls-18" d="M42.94,46.82c0-.39.47-.72,1.09-.75s1.15.26,1.16.65-.47.73-1.1.76S43,47.21,42.94,46.82Z"/>
                    <path class="cls-19" d="M45.12,46.4a1.1,1.1,0,0,0-2.13.1A1.07,1.07,0,0,0,43,47a.44.44,0,0,0,.14.22,1.26,1.26,0,0,0,1,.32,1.33,1.33,0,0,0,.95-.4.48.48,0,0,0,.11-.24A1,1,0,0,0,45.12,46.4Z"/>
                    <path class="cls-12" d="M44.29,46.37c.14.13.33.16.42.06a.32.32,0,0,0-.09-.42c-.14-.13-.33-.16-.42,0S44.14,46.24,44.29,46.37Z"/>
                    <path class="cls-8" d="M6.16,57c0-.58-.79-1-1.72-1s-1.65.55-1.62,1.13.79,1,1.72,1S6.19,57.54,6.16,57Z"/>
                    <path class="cls-16" d="M4.85,54.83l.79,0,.08,1.94c0,.33-.3.63-.75.76a2.11,2.11,0,0,1-.45.08c-.69,0-1.26-.3-1.28-.73l-.09-2Z"/>
                    <ellipse class="cls-17" cx="4.31" cy="54.42" rx="3.63" ry="1.58" transform="translate(-2.35 0.24) rotate(-2.48)"/>
                    <path class="cls-18" d="M3.19,53.9c0-.43.52-.8,1.21-.83s1.26.29,1.28.72-.53.81-1.21.84S3.21,54.33,3.19,53.9Z"/>
                    <path class="cls-19" d="M5.6,53.44a1.22,1.22,0,0,0-1.22-.85,1.2,1.2,0,0,0-1.13.95,1,1,0,0,0,0,.52.54.54,0,0,0,.15.25,1.44,1.44,0,0,0,1.08.35,1.47,1.47,0,0,0,1-.44A.58.58,0,0,0,5.65,54,1.34,1.34,0,0,0,5.6,53.44Z"/>
                    <path class="cls-12" d="M4.68,53.41a.34.34,0,0,0,.47.05c.1-.11,0-.31-.1-.46s-.37-.17-.47,0S4.52,53.26,4.68,53.41Z"/>

                </g>
    </g>
</svg>