<svg xmlns="http://www.w3.org/2000/svg" viewBox="0 0 68.7 107.37"><defs><style>.cls-1{fill:none;}.cls-1,.cls-11,.cls-13,.cls-14,.cls-15,.cls-16,.cls-5,.cls-6,.cls-7{stroke:#4d3224;}.cls-1,.cls-13,.cls-14,.cls-15,.cls-16,.cls-5,.cls-6,.cls-7{stroke-linecap:round;stroke-linejoin:round;}.cls-1,.cls-5,.cls-6,.cls-7{stroke-width:1.5px;}.cls-2{fill:#af7d5a;}.cls-3{fill:#735b4a;}.cls-4{fill:#426ad3;}.cls-5{fill:#f89972;}.cls-6{fill:#9ec289;}.cls-7{fill:#c1997e;}.cls-8{fill:#ebc1ac;}.cls-9{fill:#fff;opacity:0.24;}.cls-10{fill:#ed7c4e;}.cls-11{fill:#82bcc5;stroke-miterlimit:10;stroke-width:0.28px;}.cls-12,.cls-16{fill:#4d3224;}.cls-13{fill:#f6be8f;}.cls-13,.cls-14,.cls-15,.cls-16{stroke-width:0.3px;}.cls-14{fill:#9e5d4e;}.cls-15{fill:#ffe7e4;}.cls-17{fill:#ba8e70;}.cls-18{fill:#9e795f;}.cls-19{fill:#d7bead;}</style></defs><title>contact-hitballoon02</title><g id="圖層_2" data-name="圖層 2"><g id="聯絡"><line class="cls-1" x1="21.83" y1="61.42" x2="18.57" y2="82.55"/><line class="cls-1" x1="46.76" y1="61.52" x2="49.83" y2="82.28"/><path class="cls-2" d="M31.22,75,17.68,82.85V96.3l17.16-6.69h0L51.08,95V82.85L37.54,75A6.31,6.31,0,0,0,31.22,75Z"/><path class="cls-3" d="M31.22,76.2,17.68,84V96.48l17.69,4.7,4.83-2.84,10.88-2.93V84L37.54,76.2A6.31,6.31,0,0,0,31.22,76.2Z"/><ellipse class="cls-4" cx="34.37" cy="63.91" rx="15.32" ry="7.34"/><path class="cls-5" d="M34.67.75C16,.75,1.07,14.23.75,30.86A27,27,0,0,0,3.23,42.67c2.53,6.9,13.67,18,14.83,19.14,2.17,3.5,8.42,6,16.43,6,7.58,0,14-2.29,16.56-5.5h0S67.28,44.63,67.83,32.92h0c.07-.68.12-1.36.13-2.06C68.27,14.23,53.36.75,34.67.75Z"/><path class="cls-6" d="M42.16,11.19s19.09,7.5,14,27.24S47,67.85,47,67.85l1.08-.38S60,49.69,63.39,37.08a23.59,23.59,0,0,0,.9-5.38C64.88,13.29,44.77,8.18,44.77,8.18Z"/><path class="cls-6" d="M25.39,11.19S8.11,18.69,13.16,38.43,23.1,67.85,23.1,67.85L21,67.47S5.19,43.78,4.81,31.7C4.22,13.29,24.28,8.05,24.28,8.05Z"/><path class="cls-7" d="M50,83.93l-12.4,6.9a7.54,7.54,0,0,1-6.48,0l-12.36-6.9c-.67-.39-.94-.69-1.08-1.08v13.9h0a2.15,2.15,0,0,0,1.08,1.87l12.34,7.13a6.57,6.57,0,0,0,6.56,0L50,98.62a2.15,2.15,0,0,0,1.08-1.87h0v-14C51.08,83,50.67,83.54,50,83.93Z"/><line class="cls-1" x1="34.37" y1="67.3" x2="34.37" y2="74.3"/><path class="cls-8" d="M35,99a6.35,6.35,0,0,1-1.88-.3.26.26,0,0,1,.16-.5,5.53,5.53,0,0,0,1.94.28.26.26,0,0,1,.27.25.27.27,0,0,1-.25.27Zm1-.1a.27.27,0,0,1-.26-.21.26.26,0,0,1,.2-.3,4.09,4.09,0,0,0,1.35-.55l.44-.27a.26.26,0,0,1,.35.09A.25.25,0,0,1,38,98l-.43.27a4.67,4.67,0,0,1-1.52.61Zm-3.53-.46-.1,0a7.71,7.71,0,0,1-.93-.49l-.9-.52a.25.25,0,0,1-.1-.35.26.26,0,0,1,.35-.1l.93.53a5.12,5.12,0,0,0,.86.45.26.26,0,0,1,.13.34A.26.26,0,0,1,32.51,98.43Zm6.05-.79a.26.26,0,0,1-.22-.13.25.25,0,0,1,.09-.35l1.75-1.08a.26.26,0,0,1,.36.08.27.27,0,0,1-.09.36L38.7,97.6A.37.37,0,0,1,38.56,97.64ZM30,97.05a.27.27,0,0,1-.12,0l-1.8-1a.27.27,0,0,1-.09-.36.26.26,0,0,1,.35-.09l1.79,1a.26.26,0,0,1,.1.35A.26.26,0,0,1,30,97.05ZM41,96.15a.26.26,0,0,1-.13-.48l1.75-1.08a.26.26,0,0,1,.36.08.27.27,0,0,1-.08.36l-1.76,1.08A.23.23,0,0,1,41,96.15Zm-13.4-.5a.33.33,0,0,1-.13,0l-1.79-1a.26.26,0,0,1-.09-.35.25.25,0,0,1,.35-.1l1.79,1a.27.27,0,0,1,.1.36A.28.28,0,0,1,27.57,95.65Zm15.82-1a.25.25,0,0,1-.22-.12.26.26,0,0,1,.08-.36L45,93.1a.26.26,0,0,1,.35.08.26.26,0,0,1-.08.36l-1.76,1.08A.22.22,0,0,1,43.39,94.66Zm-18.28-.42a.22.22,0,0,1-.13,0l-1.79-1a.26.26,0,0,1-.1-.35.27.27,0,0,1,.36-.1l1.79,1a.26.26,0,0,1,.09.35A.25.25,0,0,1,25.11,94.24ZM45.8,93.17a.26.26,0,0,1-.22-.12.27.27,0,0,1,.09-.36l1.75-1.08a.27.27,0,0,1,.36.09.26.26,0,0,1-.09.35l-1.75,1.08A.23.23,0,0,1,45.8,93.17Zm-23.15-.34a.28.28,0,0,1-.13,0l-1.79-1a.25.25,0,1,1,.25-.44l1.8,1a.26.26,0,0,1,.09.35A.24.24,0,0,1,22.65,92.83Zm25.57-1.15a.25.25,0,0,1-.22-.12.25.25,0,0,1,.08-.35l1.76-1.09a.26.26,0,0,1,.35.09.25.25,0,0,1-.08.35l-1.76,1.09A.31.31,0,0,1,48.22,91.68Zm-28-.26a.27.27,0,0,1-.12,0l-1.79-1a.26.26,0,1,1,.25-.45l1.79,1a.26.26,0,0,1,.1.36A.27.27,0,0,1,20.18,91.42Z"/><path class="cls-8" d="M35.21,101.86a6.43,6.43,0,0,1-1.88-.31.26.26,0,1,1,.16-.49,5.56,5.56,0,0,0,1.94.28.26.26,0,1,1,0,.51Zm1-.11a.25.25,0,0,1-.25-.2.26.26,0,0,1,.2-.31,4.25,4.25,0,0,0,1.35-.54l.43-.27a.26.26,0,0,1,.35.08.26.26,0,0,1-.08.36l-.43.26a4.69,4.69,0,0,1-1.52.62Zm-3.52-.46a.22.22,0,0,1-.11,0,5.81,5.81,0,0,1-.92-.48l-.91-.52a.26.26,0,0,1-.1-.35.25.25,0,0,1,.35-.1l.93.53a7,7,0,0,0,.86.45.26.26,0,0,1-.1.49Zm6-.79a.26.26,0,0,1-.22-.12.27.27,0,0,1,.09-.36l1.75-1.08a.26.26,0,0,1,.36.09.26.26,0,0,1-.09.35l-1.75,1.08A.23.23,0,0,1,38.73,100.5Zm-8.52-.58a.2.2,0,0,1-.13,0l-1.79-1a.25.25,0,0,1-.1-.35.26.26,0,0,1,.35-.1l1.79,1a.25.25,0,0,1,.1.35A.27.27,0,0,1,30.21,99.92ZM41.15,99a.25.25,0,0,1-.22-.12.25.25,0,0,1,.08-.35l1.76-1.09a.26.26,0,0,1,.35.09.25.25,0,0,1-.08.35L41.28,99A.22.22,0,0,1,41.15,99Zm-13.41-.5a.27.27,0,0,1-.12,0l-1.8-1a.26.26,0,1,1,.26-.44l1.79,1a.26.26,0,0,1,.1.35A.28.28,0,0,1,27.74,98.51Zm15.82-1a.26.26,0,0,1-.22-.13.26.26,0,0,1,.08-.35L45.18,96a.25.25,0,1,1,.27.43L43.7,97.49A.37.37,0,0,1,43.56,97.53ZM25.28,97.1a.31.31,0,0,1-.13,0l-1.79-1a.26.26,0,0,1-.09-.35.25.25,0,0,1,.35-.1l1.79,1a.26.26,0,0,1,.1.35A.26.26,0,0,1,25.28,97.1ZM46,96a.27.27,0,0,1-.22-.13.26.26,0,0,1,.09-.35l1.75-1.08a.26.26,0,0,1,.36.08.26.26,0,0,1-.09.36L46.11,96A.33.33,0,0,1,46,96ZM22.82,95.7a.22.22,0,0,1-.13,0l-1.79-1a.26.26,0,0,1-.1-.35.26.26,0,0,1,.36-.1l1.79,1a.26.26,0,0,1,.09.35A.25.25,0,0,1,22.82,95.7Zm25.57-1.15a.25.25,0,0,1-.22-.12.26.26,0,0,1,.08-.36L50,93a.26.26,0,0,1,.35.08.26.26,0,0,1-.08.36l-1.76,1.08A.22.22,0,0,1,48.39,94.55Zm-28-.26a.28.28,0,0,1-.13,0l-1.79-1a.26.26,0,0,1-.1-.35.25.25,0,0,1,.35-.09l1.8,1a.26.26,0,0,1-.13.48Z"/><path class="cls-8" d="M35.21,104.72a6.35,6.35,0,0,1-1.88-.3.26.26,0,1,1,.16-.5,5.62,5.62,0,0,0,1.72.28h.22a.25.25,0,0,1,.27.24.25.25,0,0,1-.25.27A1,1,0,0,1,35.21,104.72Zm1-.1a.26.26,0,0,1-.25-.21.25.25,0,0,1,.2-.3,4.27,4.27,0,0,0,1.35-.55l.43-.27a.26.26,0,0,1,.35.09.25.25,0,0,1-.08.35l-.43.27a4.67,4.67,0,0,1-1.52.61Zm-3.52-.46a.23.23,0,0,1-.11,0,5.81,5.81,0,0,1-.92-.48l-.91-.52a.26.26,0,0,1,.25-.45l.93.53a5.68,5.68,0,0,0,.86.45.26.26,0,0,1,.13.34A.25.25,0,0,1,32.69,104.16Zm6-.8a.26.26,0,0,1-.22-.12.26.26,0,0,1,.09-.35l1.75-1.09a.27.27,0,0,1,.36.09.26.26,0,0,1-.09.35l-1.75,1.09A.32.32,0,0,1,38.73,103.36Zm-8.52-.58a.28.28,0,0,1-.13,0l-1.79-1a.25.25,0,0,1-.1-.35.26.26,0,0,1,.35-.09l1.79,1a.25.25,0,0,1,.1.35A.27.27,0,0,1,30.21,102.78Zm10.94-.9a.26.26,0,0,1-.22-.13.25.25,0,0,1,.08-.35l1.76-1.08a.25.25,0,0,1,.35.08.26.26,0,0,1-.08.36l-1.76,1.08A.33.33,0,0,1,41.15,101.88Zm-13.41-.51a.27.27,0,0,1-.12,0l-1.8-1a.26.26,0,0,1-.09-.35.25.25,0,0,1,.35-.1l1.79,1a.26.26,0,0,1,.1.35A.26.26,0,0,1,27.74,101.37Zm15.82-1a.27.27,0,0,1-.22-.12.27.27,0,0,1,.08-.36l1.76-1.08a.26.26,0,0,1,.36.08.27.27,0,0,1-.09.36l-1.75,1.08A.25.25,0,0,1,43.56,100.39ZM25.28,100a.22.22,0,0,1-.13,0l-1.79-1a.26.26,0,0,1-.09-.35.25.25,0,0,1,.35-.1l1.79,1a.26.26,0,0,1,.1.35A.28.28,0,0,1,25.28,100ZM46,98.9a.26.26,0,0,1-.22-.12.27.27,0,0,1,.09-.36l1.75-1.08a.27.27,0,0,1,.36.08.26.26,0,0,1-.09.36l-1.75,1.08A.23.23,0,0,1,46,98.9Zm-23.15-.34a.31.31,0,0,1-.13,0l-1.79-1a.26.26,0,1,1,.26-.44l1.79,1a.26.26,0,0,1,.09.35A.25.25,0,0,1,22.82,98.56Zm25.57-1.15a.25.25,0,0,1-.22-.12.26.26,0,0,1,.08-.36L50,95.85a.26.26,0,0,1,.35.09.25.25,0,0,1-.08.35l-1.76,1.08A.22.22,0,0,1,48.39,97.41Zm-28-.26a.28.28,0,0,1-.13,0l-1.79-1a.27.27,0,0,1-.1-.36.26.26,0,0,1,.35-.09l1.8,1a.26.26,0,0,1,.09.35A.24.24,0,0,1,20.36,97.15Z"/><path class="cls-6" d="M29.31,11.79S17.19,22.88,19.9,39.63c0,0,3.74,19.72,5.28,25.27l5.42,1.16s-1.68-26.43-.91-33.77c0,0,1.16-16,5.16-19.72Z"/><path class="cls-6" d="M40.9,12.18a39.34,39.34,0,0,1,6.57,28.61s-2.45,19-4,24.49l-5.93,1.16S38.85,42,38.46,34c0,0-.26-18.43-3.62-21Z"/><path class="cls-6" d="M48.35,67.31c-2.39,2.28-7.75,3.86-14,3.86-6.49,0-12-1.72-14.27-4.15l-4-7.2s18.55,14,36.87,0Z"/><ellipse class="cls-9" cx="17.76" cy="23.18" rx="8.69" ry="7.87" transform="matrix(0.83, -0.56, 0.56, 0.83, -9.88, 13.76)"/><path class="cls-1" d="M51.08,82.78,37.54,75a6.71,6.71,0,0,0-7.07.45L17.68,82.85"/><path class="cls-6" d="M13.58,7.41S20.93,4.7,25.83,6.12L29.31,5s-2.32-2.32-8-1.68C21.32,3.28,14.74,5.73,13.58,7.41Z"/><path class="cls-6" d="M29.44,1.09a11.21,11.21,0,0,1,1.29,3.35l3-.25V.84S30,.58,29.44,1.09Z"/><path class="cls-6" d="M36.14,1S36,2.77,35.88,4.19c0,0,2.71.13,3.09.64a30.31,30.31,0,0,1,1.42-3.61A8.71,8.71,0,0,0,36.14,1Z"/><path class="cls-6" d="M40.78,5.35s3.61-2.71,6.57-2.45c0,0,6.06,2.83,7.48,3.74,0,0-8.38-1.94-11.09,0Z"/><ellipse class="cls-5" cx="34.29" cy="9.44" rx="10.96" ry="5.25"/><ellipse class="cls-10" cx="34.33" cy="9.13" rx="5.48" ry="2.63"/><path class="cls-11" d="M31.1,94.94c.14-2.9-.94-2.38-.6-5.26,0-.31.08-.63.13-.94,0-.15.05-.3.07-.44v0c0-.24.08-.48.11-.72a16.65,16.65,0,0,1,7.23.09,2.83,2.83,0,0,1,0,.29V88s-.87,5.09-.59,6.92Z"/><path class="cls-12" d="M34.09,95.64l0-3.24c0-.21.06-.54-.1-.69a2.12,2.12,0,0,1-.56,0,1.06,1.06,0,0,1-.25,0,1.73,1.73,0,0,1-.46-.12l-.42-.09a.08.08,0,0,0,0,.07,1.87,1.87,0,0,0,1.1.3,1.67,1.67,0,0,1,.31,0c.22,0,.19.21.19.34,0,.28,0,.56,0,.84,0,1,0,2,0,3"/><path class="cls-12" d="M36.73,89.37h-.08a8.62,8.62,0,0,1-1,.21,3.74,3.74,0,0,1-1,.15.08.08,0,0,0,0,.1,1.57,1.57,0,0,0,.09,1.22,1.26,1.26,0,0,0,1.16.65c1.16-.06,1.11-1.46,1-2.28C36.8,89.4,36.76,89.37,36.73,89.37Zm-.8,2.17a1.09,1.09,0,0,1-1.1-.53,1.47,1.47,0,0,1-.08-1.16,13.82,13.82,0,0,1,1.91-.31C36.78,90.24,36.86,91.39,35.93,91.54Z"/><path class="cls-12" d="M31.8,89.65a2.77,2.77,0,0,1-1-.24l-.13,0a2.83,2.83,0,0,0-.09.65l.09,1.29a.09.09,0,0,0,.08.08,1.64,1.64,0,0,0,1.5-1.59.09.09,0,0,0,0-.07A3,3,0,0,1,31.8,89.65Zm-.95,1.57-.12-1.68a3,3,0,0,0,1.39.28A1.48,1.48,0,0,1,30.85,91.22Z"/><path class="cls-13" d="M30.39,84.69a.27.27,0,0,1-.33-.36c.43-1,.22-2.1.42-3.19a3.14,3.14,0,0,0-.14-1.66c-.17-.46-.17-.84-.71-.85a1.09,1.09,0,0,0-.91.48l0-.12a3.55,3.55,0,0,0-.32,1.28c-.14,1.21-.17,2.35-.21,3.5v.28c0,.53,0,1.06-.08,1.6v.09a1.58,1.58,0,0,0,.67,1.14l.23,0a14.69,14.69,0,0,0,3-.8A5.82,5.82,0,0,0,34.59,84,18.28,18.28,0,0,0,30.39,84.69Z"/><path class="cls-14" d="M40.21,69.84h0Z"/><path class="cls-13" d="M40.29,74.05a5.53,5.53,0,0,1-2.23,3.14,17.58,17.58,0,0,1-1.82,1.36,4.3,4.3,0,0,1-1.47.76,1.51,1.51,0,0,1-1.52-.44c-1.7-2.19,4.87-3.43,5.58-4.83.11-.22.72-4.36.87-4.33l-.12,0a.51.51,0,0,1-.29-.19.88.88,0,0,1,0-.6v0c.11-.64.23-1.28.34-1.92a3.17,3.17,0,0,1,.29.35C41.23,69.11,40.85,72.2,40.29,74.05Z"/><path class="cls-14" d="M39.64,67.22c.12.8.22,1.61.28,2.41a.47.47,0,0,1-.33-.11.9.9,0,0,1-.18-.57v-.06c0-.64-.1-1.29-.14-1.94Z"/><path class="cls-15" d="M37.52,83.83a17.37,17.37,0,0,0-1.21-3.09,4.19,4.19,0,0,0,.25-3.29c-.22-.63-.64-1.09-.57-1.74a14.72,14.72,0,0,1-2.9,1,3.25,3.25,0,0,0-3,.39,2.44,2.44,0,0,0-1.4,2A9,9,0,0,0,28,82.38a.94.94,0,0,0,.32.85,5.35,5.35,0,0,0,2,1.32,17.7,17.7,0,0,1,.2,2.32c0,1.08,0,1.31,1.21,1.68a6.27,6.27,0,0,0,2.79.19,14.86,14.86,0,0,0,3.64-1.1C38.48,87.51,37.62,84.2,37.52,83.83Z"/><path class="cls-13" d="M31.74,72.64s1.91,2,1.39,3.13c-.15.34-.82.55-.82.55l.7,1A.62.62,0,0,1,33,78a1.13,1.13,0,0,1-1.82.37l-.23-.6.19-.59A2.42,2.42,0,0,0,31,75.33l-.39-.79A6.42,6.42,0,0,0,31.74,72.64Z"/><path class="cls-13" d="M32.78,76.18a.94.94,0,0,0-.48.88,2.39,2.39,0,0,0,.24,1.14,10.61,10.61,0,0,0-2,.35,2.06,2.06,0,0,0-.07-2.19,16.41,16.41,0,0,1,2.11-.24c.07,0,.18,0,.18.08Z"/><path class="cls-16" d="M28.69,76q.07-.33.12-.63c.27-1.83.33-3,2.57-3h-.21a1.36,1.36,0,0,1,.85.54c.41.85.07,2,.61,2.73a3,3,0,0,1,.71,2.26,2.37,2.37,0,0,1-1.07,1.49,4,4,0,0,1-1.82.57C27.65,80.17,28.32,77.77,28.69,76Z"/><path class="cls-17" d="M51.12,82.86l-1-.56L38.68,88.91a8.25,8.25,0,0,1-8.24,0L19,82.3l-1,.57,14.41,8.2,1.4,1.22L38.22,92l4.16-2.94Z"/><path class="cls-18" d="M18,84v2.76h0a2.12,2.12,0,0,0,1.06,1.84l12.1,7a6.4,6.4,0,0,0,6.42,0l12.1-7a2.14,2.14,0,0,0,1.06-1.84h0V83.82l-13,7.69a6.13,6.13,0,0,1-6.09.09Z"/><path class="cls-19" d="M17.77,83v2.77h0a2.11,2.11,0,0,0,1.08,1.84l12.23,7a6.57,6.57,0,0,0,6.51,0l12.23-7a2.11,2.11,0,0,0,1.08-1.84h0V82.81L37.77,90.5a6.26,6.26,0,0,1-6.16.09Z"/><path class="cls-1" d="M51.08,82.78,37.77,90.5a6,6,0,0,1-5.24.56L17.68,82.85"/></g></g></svg>