<svg xmlns="http://www.w3.org/2000/svg" viewBox="0 0 210.78 47.96"><defs><style>.cls-1{fill:none;stroke:#fff;stroke-miterlimit:10;stroke-width:2px;}</style></defs><title>contact-title.svg</title><g id="圖層_2" data-name="圖層 2"><g id="聯絡"><path class="cls-1" d="M31.24,35.8a17.26,17.26,0,0,1-3.12,4.77,20.32,20.32,0,0,1-4.26,3.51,18.81,18.81,0,0,1-5,2.16,21.1,21.1,0,0,1-5.46.72q-5.88,0-9.12-3.51T1,32.26a46.74,46.74,0,0,1,.45-6.09,45,45,0,0,1,1.47-6.84,42.89,42.89,0,0,1,2.64-6.75,25.26,25.26,0,0,1,4-5.88A18.32,18.32,0,0,1,15,2.56,15.94,15.94,0,0,1,22.18,1,15.53,15.53,0,0,1,26,1.45a8.92,8.92,0,0,1,3.12,1.41,6.83,6.83,0,0,1,2.1,2.52A8.38,8.38,0,0,1,32,9.16,7.2,7.2,0,0,1,31,13a3.5,3.5,0,0,1-3.24,1.56,6,6,0,0,1-1.65-.27A3.7,3.7,0,0,1,24.34,13a4.7,4.7,0,0,0,1.92-2.19,7.16,7.16,0,0,0,.84-3.27,4.2,4.2,0,0,0-.84-2.61,3,3,0,0,0-2.58-1.11,5.49,5.49,0,0,0-3.36,1.23,13.94,13.94,0,0,0-3,3.3,27.55,27.55,0,0,0-2.58,4.86,47.21,47.21,0,0,0-2,5.88,50.68,50.68,0,0,0-1.29,6.33A45.38,45.38,0,0,0,11,31.66a24.16,24.16,0,0,0,.3,4,9,9,0,0,0,1.08,3.12,5.27,5.27,0,0,0,2.19,2,7.82,7.82,0,0,0,3.57.72,13.42,13.42,0,0,0,6.54-1.71,15.76,15.76,0,0,0,5.22-4.59Z"/><path class="cls-1" d="M51.34,15.7q7.56,0,7.68,9.42a2.85,2.85,0,0,0,.66.06,9.56,9.56,0,0,0,2.25-.3,16.84,16.84,0,0,0,2.46-.81,22.14,22.14,0,0,0,2.4-1.17q1.17-.66,2.13-1.32l.54,1.62a14.36,14.36,0,0,1-4.53,3.15,23.5,23.5,0,0,1-6,1.83,28.39,28.39,0,0,1-1.62,7.56,20.4,20.4,0,0,1-3.18,5.73,13.63,13.63,0,0,1-4.38,3.63,11.29,11.29,0,0,1-5.22,1.26,13.94,13.94,0,0,1-3.87-.51,7.56,7.56,0,0,1-3-1.65,7.79,7.79,0,0,1-2-2.94,11.81,11.81,0,0,1-.72-4.38,25,25,0,0,1,.36-4,28.58,28.58,0,0,1,3.24-9.21,18,18,0,0,1,3.09-4.05,14.41,14.41,0,0,1,4.23-2.88A13.33,13.33,0,0,1,51.34,15.7Zm-4.44,25a3.44,3.44,0,0,0,2.19-.93,9.23,9.23,0,0,0,2-2.58,20.75,20.75,0,0,0,1.65-3.93,29.62,29.62,0,0,0,1.08-4.92,1.81,1.81,0,0,1-1.29-.93,3.64,3.64,0,0,1-.33-1.59,3.83,3.83,0,0,1,.51-2.07,2.61,2.61,0,0,1,1.35-1.11,5.53,5.53,0,0,0-.63-2.61,1.85,1.85,0,0,0-1.65-.75,4,4,0,0,0-3.06,1.77,17.81,17.81,0,0,0-2.52,4.32,32.78,32.78,0,0,0-1.74,5.4,22.77,22.77,0,0,0-.66,5.07A15.85,15.85,0,0,0,44,38.29a3.72,3.72,0,0,0,.51,1.47,1.87,1.87,0,0,0,1,.75A4.38,4.38,0,0,0,46.9,40.72Z"/><path class="cls-1" d="M85.36,24.28q0-3.06-2.16-3.06a3.47,3.47,0,0,0-2.82,1.62,12.17,12.17,0,0,0-1.86,3.9L74.44,46H65.8l6.36-30H80.8l-.66,3.12a9,9,0,0,1,3.78-2.76,10.78,10.78,0,0,1,3.24-.6,7.16,7.16,0,0,1,4.77,1.59q1.89,1.59,1.89,5.19a20,20,0,0,1-.45,4q-.45,2.19-1,4.32t-1,4A14.09,14.09,0,0,0,90.94,38a3,3,0,0,0,.51,1.83,2.22,2.22,0,0,0,1.89.69,3.65,3.65,0,0,0,1.71-.39,4.24,4.24,0,0,0,1.32-1.08,8.67,8.67,0,0,0,1-1.65q.48-1,1-2.16h2.52a26.23,26.23,0,0,1-2.7,5.91,13.33,13.33,0,0,1-2.94,3.33A8.26,8.26,0,0,1,92.35,46a10.6,10.6,0,0,1-2.61.36,8.57,8.57,0,0,1-3.33-.57,5.9,5.9,0,0,1-2.19-1.53A5.73,5.73,0,0,1,83,42.07a8.82,8.82,0,0,1-.36-2.49A18.34,18.34,0,0,1,83.08,36q.42-2.07.93-4.17t.93-4.11A17.26,17.26,0,0,0,85.36,24.28Z"/><path class="cls-1" d="M119.14,6.52l-2,9.48h3.6l-.48,2.4h-3.6l-3.84,18a8.4,8.4,0,0,0-.24,1.92,2.12,2.12,0,0,0,.6,1.74,3,3,0,0,0,1.86.48,4.53,4.53,0,0,0,3.24-1.5,8.62,8.62,0,0,0,2.16-3.78h2.52A20.68,20.68,0,0,1,120,41.11a15,15,0,0,1-3.42,3.36A9.92,9.92,0,0,1,113.17,46a13.66,13.66,0,0,1-2.85.36,6.49,6.49,0,0,1-4.56-1.71q-1.86-1.71-1.86-5.49a19.4,19.4,0,0,1,.48-3.9L108,18.4h-2l.48-2.4h2l1.8-8.28Z"/><path class="cls-1" d="M155.26,16l-4.38,20.4a8.4,8.4,0,0,0-.24,1.92,2.12,2.12,0,0,0,.6,1.74,3,3,0,0,0,1.86.48,3.72,3.72,0,0,0,3-1.5A10.48,10.48,0,0,0,158,35.26h2.52a21.36,21.36,0,0,1-2.85,5.79,13.77,13.77,0,0,1-3.24,3.24,8.77,8.77,0,0,1-3.21,1.41,14.82,14.82,0,0,1-2.76.3,5.89,5.89,0,0,1-4-1.32,6,6,0,0,1-1.89-3.9,17.31,17.31,0,0,1-1.56,2,11.45,11.45,0,0,1-2,1.8,10.37,10.37,0,0,1-2.43,1.26,8.55,8.55,0,0,1-2.94.48,8.66,8.66,0,0,1-3-.51,6.91,6.91,0,0,1-2.55-1.65,7.93,7.93,0,0,1-1.8-3,13.46,13.46,0,0,1-.66-4.53,24.87,24.87,0,0,1,.42-4.38,29,29,0,0,1,1.26-4.68,27.05,27.05,0,0,1,2.1-4.5,17.06,17.06,0,0,1,3-3.81,14.44,14.44,0,0,1,3.87-2.64,11.18,11.18,0,0,1,4.77-1,13.89,13.89,0,0,1,1.53.09,4.64,4.64,0,0,1,1.5.42,3.45,3.45,0,0,1,1.2,1,3.56,3.56,0,0,1,.69,1.65l.6-2.82ZM143,19.42a4.58,4.58,0,0,0-3.48,1.77,15.78,15.78,0,0,0-2.64,4.32,29.27,29.27,0,0,0-1.68,5.4,24.5,24.5,0,0,0-.6,4.95,8.36,8.36,0,0,0,.33,2.67,3.68,3.68,0,0,0,.78,1.38,1.81,1.81,0,0,0,1,.54,5.39,5.39,0,0,0,.93.09,3.51,3.51,0,0,0,1.41-.33,5.43,5.43,0,0,0,1.47-1,6.31,6.31,0,0,0,1.26-1.65,9,9,0,0,0,.84-2.31l2.88-13.56a1.86,1.86,0,0,0-.15-.63,3.11,3.11,0,0,0-.42-.75,2.48,2.48,0,0,0-.72-.63A2.25,2.25,0,0,0,143,19.42Z"/><path class="cls-1" d="M180.4,25.31a10.75,10.75,0,0,0,.75-2.2,9.3,9.3,0,0,0,.27-2c0-1.47-.56-2.2-1.68-2.2a4,4,0,0,0-3,1.8,17.8,17.8,0,0,0-2.52,4.42,34.26,34.26,0,0,0-1.74,5.63,25.44,25.44,0,0,0-.66,5.44c0,2,.4,3.39,1.2,4.07a5,5,0,0,0,3.36,1,10.21,10.21,0,0,0,3.24-.48,12,12,0,0,0,2.7-1.29,15.31,15.31,0,0,0,2.4-1.92q1.14-1.11,2.28-2.37h2a34.37,34.37,0,0,1-2.88,4.08,21.9,21.9,0,0,1-3.66,3.54A18.34,18.34,0,0,1,178,45.4a14.9,14.9,0,0,1-5.46,1,10,10,0,0,1-6.81-2.22q-2.55-2.22-2.55-7.32a25,25,0,0,1,.36-4,29.23,29.23,0,0,1,1.14-4.56,28.06,28.06,0,0,1,2-4.59,17.71,17.71,0,0,1,3-4.05,14.13,14.13,0,0,1,4.17-2.88,13,13,0,0,1,5.43-1.08,10.07,10.07,0,0,1,3.27.45,5.31,5.31,0,0,1,2,1.2,4.14,4.14,0,0,1,1.05,1.71A6.41,6.41,0,0,1,186,21a6.48,6.48,0,0,1-.93,3.63A2.68,2.68,0,0,1,182.8,26a4.77,4.77,0,0,1-1.17-.18A4.28,4.28,0,0,1,180.4,25.31Z"/><path class="cls-1" d="M201.64,36.4a8.81,8.81,0,0,0-.3,2.1,2.53,2.53,0,0,0,.45,1.56,1.93,1.93,0,0,0,1.65.6l.75,0a3.24,3.24,0,0,0,.81-.15,14,14,0,0,1-1.44,3.09,7.24,7.24,0,0,1-1.62,1.8,4.33,4.33,0,0,1-1.68.81,7.73,7.73,0,0,1-1.62.18,5.28,5.28,0,0,1-4.59-2,8,8,0,0,1-1.41-4.83A14.63,14.63,0,0,1,193,36.4l3.84-18h-2l.48-2.4h2l1.8-8.28L208,6.52c-.21.8-.4,1.7-.6,2.7q-.3,1.26-.66,3L206,16h3.6l-.48,2.4h-3.6Z"/></g></g></svg>