<svg xmlns="http://www.w3.org/2000/svg" viewBox="0 0 96.55 57.66"><defs><style>.cls-1{fill:#f4edcd;}.cls-2{fill:#f2e8c2;}.cls-3{fill:#6b3d28;}.cls-4{fill:#e6d9a3;}.cls-5{fill:#895035;}.cls-6{fill:#5e3724;}.cls-7{fill:#4d3224;}.cls-8{fill:#e6e6d4;}.cls-9{fill:#874e34;}.cls-10{fill:#c4bf8b;}.cls-11{fill:none;stroke:#4d3224;stroke-linecap:round;stroke-linejoin:round;stroke-width:1.25px;}</style></defs><title>contact-turtle</title><g id="圖層_2" data-name="圖層 2"><g id="聯絡"><path class="cls-1" d="M35.2,31.12a33.62,33.62,0,0,0-13.57,1.34l-1.46-.07c-3.22-.28-6.06-.41-8.88-.67C7,31.33,2.55,35.23,1.84,36.38s-.79,5.82-.9,7.14,3.23,3.63,3.38,3.67,3.86-2.43,4.62-2.66,6.17.36,8.21,0c1.06-.16,2.74-.47,4.11-.73l2.3-.35c7.85,2.17,26.09,6.1,34.72,7.07C69.16,51.79,70,49.93,70,49.93l4.18-3.09S45.89,32.16,35.2,31.12Z"/><path class="cls-2" d="M24.88,38.58c-6.38-6.44-10.47-7-19.15-15.08S7.26.63,7.26.63a9,9,0,0,1,6,5.32c2.38,6.79,6.47,16.44,14.69,23.5,6.54,5.6,3.3,4.81,3.3,4.81Z"/><path class="cls-3" d="M12.63,29.22s-1.22-2.74.19-3.29,5.91,2.8,6.64,3.4.63,1.1.63,1.1L18,32.05l-1,.09Z"/><path class="cls-3" d="M7,24.43c1.21.85,3.3,1.42,3.81.86s.57-4.09-.65-5.07S5.77,19,5.56,19.34a7.79,7.79,0,0,0-.38,2.84C5.25,23,7,24.43,7,24.43Z"/><path class="cls-3" d="M5.14,17.14c.18-.27,2.63-3.18,2.31-4.54A7.57,7.57,0,0,0,4.67,9.05c-.7-.35-2,2-2.06,2.38a20.91,20.91,0,0,0-.34,4.68c.1,2.28,1.64,2.33,1.64,2.33A4.11,4.11,0,0,0,5.14,17.14Z"/><path class="cls-3" d="M5.3,5C4.8,5,3.87,7.92,4,7.93s1.9.2,2.1-.48.41-1.5,0-2A1,1,0,0,0,5.3,5Z"/><path class="cls-3" d="M6.67,15.91a3.61,3.61,0,0,0-.88,1.71c0,.26,2.8,1.24,3,.94a2.13,2.13,0,0,0,0-1.61A17.57,17.57,0,0,0,6.67,15.91Z"/><path class="cls-3" d="M12.06,22.23a6.1,6.1,0,0,0,.16,2.33,7.62,7.62,0,0,0,2.53.77,1.33,1.33,0,0,0-.15-1.25c-.34-.4-1.53-1.94-1.74-2.06S12.06,22.23,12.06,22.23Z"/><path class="cls-3" d="M18.9,27.58s1.14,1.84,1.41,1.88S22,29.32,22,28.91s-1.47-1.24-1.87-1.39A2.68,2.68,0,0,0,18.9,27.58Z"/><path class="cls-3" d="M6.74,7.89c-.2,0-1.13.48-1.06.67s1,1.17,1.18,1S6.74,7.89,6.74,7.89Z"/><path class="cls-4" d="M5.86,46.48a18.88,18.88,0,0,0,4.41,1c1.51,0,10-3.67,10-3.67s-4.83.65-8.28.86A14.86,14.86,0,0,0,5.86,46.48Z"/><path class="cls-4" d="M35.34,21.24c-2.3.78-13,10.08-16.6,12.44a21.58,21.58,0,0,1,14.11,0c7.55,2.69,9.23,5.62,14.42,5.39,10-.45,7.19,2.26,12.23,6.06S77,46.65,77.29,46,69,34.21,64.8,29.3,41.68,19.08,35.34,21.24Z"/><path class="cls-3" d="M36.27,21.48c-.57-.05-9.18,6.42-9.18,6.42s-.64.76.42,1a27.73,27.73,0,0,1,7.81,1.76c4.81,1.77,5.63,2.92,6.27,3s1.47-9.71,1.17-10.31S36.27,21.48,36.27,21.48Z"/><path class="cls-3" d="M44,23.56c0,.13-.93,10.29-1,10.93S44.71,36,45.44,36.1a51.22,51.22,0,0,1,7.68.12.69.69,0,0,0,.58-.72c0-.67-2-9.74-2.4-10.25S44.1,23.12,44,23.56Z"/><path class="cls-3" d="M53.29,25.66c-.22.49,1.75,10.7,1.94,11s4.54,2.59,7.32,4.6,3,1.37,3.07,1.22S61.12,30.66,60.14,29,53.29,25.66,53.29,25.66Z"/><path class="cls-3" d="M61.3,28c-.2.65,5.6,14.87,6.2,15.6s7.87.36,7.87.36c.46-.57-9.19-12.49-10.58-14A7.6,7.6,0,0,0,61.3,28Z"/><path class="cls-3" d="M37.52,20.81c.49-.69,7.15-.11,7.64,0s1,.44,1,.81.12,1.51-.08,1.54-.62,0-4.54-1S37.52,20.81,37.52,20.81Z"/><path class="cls-3" d="M47,23.25c-.19-.15,0-1.57,0-1.57s.08-.34.9-.22,5.15,1.4,5.56,1.58a.87.87,0,0,1,.5.52,6,6,0,0,1,0,1.69A41.24,41.24,0,0,1,47,23.25Z"/><path class="cls-3" d="M54.77,25.62c-.1-.17-.46-1.87-.07-2a33.85,33.85,0,0,1,6.87,3.09c.55.59.07.79.07.79l-6.78-1.9Z"/><path class="cls-5" d="M36,22c-.35.19-6.32,4.53-6.32,4.53l8.95-3.41-2.9,2.5,5.72-2.4a8.13,8.13,0,0,0-2.51-.87l-2.31-.52A2.72,2.72,0,0,0,36,22Z"/><path class="cls-5" d="M44.5,24.12l-.25,9.27s1.77-9,1.7-9.18S44.5,24.12,44.5,24.12Z"/><path class="cls-5" d="M45.56,29s.93-4.58,1-4.71a24.48,24.48,0,0,1,3.21.72l-1.64.46.24-.49a5.26,5.26,0,0,0-1.17.47C47,25.65,45.56,29,45.56,29Z"/><path class="cls-5" d="M55.25,34.52s-1.55-8-1.5-8.27,4.63,1.89,4.63,1.89l-2.1.26.49-.77-1.17-.5Z"/><path class="cls-5" d="M67.78,42S62.66,29.63,62.5,29.3a6.88,6.88,0,0,1-.31-.83,6.24,6.24,0,0,1,2.4,1.65l2.11,3.34-2.78-3.72Z"/><path class="cls-5" d="M65.81,33.45l.75,2.74a10.29,10.29,0,0,0,0-1.72A5.71,5.71,0,0,0,65.81,33.45Z"/><path class="cls-5" d="M66.93,35.43s-.19,1.57-.16,1.69.87,2.63.87,2.63-.4-3.51-.52-3.87A1.55,1.55,0,0,0,66.93,35.43Z"/><path class="cls-6" d="M47.82,35.36a30.9,30.9,0,0,1,4.78.18c.27-.07-.28-4.89-.28-4.89a15.67,15.67,0,0,0-.65,2.19,17.22,17.22,0,0,1-.45,2,7.4,7.4,0,0,0-1-.82A19.08,19.08,0,0,0,47.82,35.36Z"/><path class="cls-6" d="M33.1,29.26A22.13,22.13,0,0,1,39,31.67c1.08.63,2,1.14,2.07,1.17a31.34,31.34,0,0,0,.59-4.6l.06-1.31L40.33,29.7S39.16,31.15,38.91,31s-.69-.7-1-.88a15.49,15.49,0,0,0-2.43-.43Z"/><path class="cls-6" d="M61.8,34.07s3,7.9,2.91,7.88-2.94-2-3.16-2.05.55-2.15.55-2.15L63,39.19Z"/><path class="cls-6" d="M70.33,37.14s4.4,6.15,4.46,6.32a13.07,13.07,0,0,1-3.79.16c-.84-.15-1.69-.38-1.69-.38s.61-1.5,1.23-1.2,1.74,1,1.74,1Z"/><path class="cls-4" d="M9.43,38.57a2.66,2.66,0,0,1,1.47-3.31,3,3,0,0,1,3.69.73s.81,3-1.46,3.89C10.26,41,9.43,38.57,9.43,38.57Z"/><path class="cls-7" d="M11.85,39.55a2.25,2.25,0,0,1-2.42-1,2.58,2.58,0,0,1,1.7-2.19,2.27,2.27,0,0,1,2.72.6S13.84,39.33,11.85,39.55Z"/><path class="cls-7" d="M9.43,38.57a3.91,3.91,0,0,1,2-2.76,3,3,0,0,1,3.43.36s-.44.82-1,.81a4.7,4.7,0,0,0-2.32,0A9.18,9.18,0,0,0,9.43,38.57Z"/><path class="cls-8" d="M10.29,38a.65.65,0,0,0,.89.1.76.76,0,0,0,.15-1.09S10.79,37.07,10.29,38Z"/><path class="cls-9" d="M9.2,35.64c-.11-.1-1.4.59-1.37.8s.57.72.89.55S9.2,35.64,9.2,35.64Z"/><path class="cls-9" d="M6.64,33.31c-.45-.06-3.57,2.12-4.08,2.64s2.07,3.1,2.59,3,1.89-2.86,2-3.79A3.08,3.08,0,0,0,6.64,33.31Z"/><path class="cls-9" d="M2.13,37.63c-.3,0-.39.66-.57,2a19.14,19.14,0,0,0-.16,2.71s1.83,0,2-1.44S2.13,37.63,2.13,37.63Z"/><path class="cls-9" d="M4,39.28a5.67,5.67,0,0,0,.27,2.12c.13.13,1.49-.3,1.5-.69S4,39.28,4,39.28Z"/><path class="cls-9" d="M7.92,32.74a7.48,7.48,0,0,1,3-.61,6,6,0,0,1,2.51.72c.09.21-1.64,1.77-1.76,1.76s-.76-.27-2.05-.63A7.32,7.32,0,0,1,7.52,33Z"/><path class="cls-9" d="M7.79,33.83c-.16.09-.25,1.1-.06,1.13s1.08-.29,1-.48S7.79,33.83,7.79,33.83Z"/><path class="cls-9" d="M14.92,32.55c-.49.06-1.89,1.42-1.71,1.56a10.86,10.86,0,0,0,3,1.26c.63,0,2.26-1.57,1.78-2.36S14.92,32.55,14.92,32.55Z"/><path class="cls-9" d="M24.52,33.93c-.25-1.28-3.38-1.48-4.24-1.46a2.07,2.07,0,0,0-1.75,1.18c-.21.52,1.91,2.18,3.17,2.35S24.52,33.93,24.52,33.93Z"/><path class="cls-9" d="M28.24,33.33a8.07,8.07,0,0,0-2.6.62c-.2.23,3,2.72,4.63,2.89S35,35.09,35,35.09s-1-.41-2.39-.91A27.37,27.37,0,0,0,28.24,33.33Z"/><path class="cls-9" d="M25,35a5,5,0,0,0-1.77,1.88c0,.34,1.73,1.06,2.31,1.14s2.52.12,2.52.12l-1.3-1.58A21,21,0,0,0,25,35Z"/><path class="cls-9" d="M18.16,35.28c-.5,0-1.91,1.59-1.91,1.59a11.74,11.74,0,0,0,1.61,1.23,3.64,3.64,0,0,0,1.27.09s.72-1.42.45-2S18.16,35.28,18.16,35.28Z"/><path class="cls-9" d="M20.42,36.67,20,38.06s.39.25.64.15a2.48,2.48,0,0,0,.65-.57Z"/><path class="cls-9" d="M35,36c-.47-.08-1,.6-1,.6a7.27,7.27,0,0,0,2,1,2.11,2.11,0,0,0,1.31-.17A5.8,5.8,0,0,0,35,36Z"/><path class="cls-7" d="M5.46,46.54s2.86-1.78,3.48-2a11.22,11.22,0,0,1,3.63,0c0,.16-.24.37-.4.4s-2.7.06-3,.07a23.94,23.94,0,0,0-2.9,1.65Z"/><path class="cls-7" d="M4.85,43.05a3.07,3.07,0,0,1,1.07-1.28c.42-.18.52,0,.52,0a2.64,2.64,0,0,0-.59.5c-.24.28.25.4-.2.89A.47.47,0,0,1,4.85,43.05Z"/><path class="cls-4" d="M22.65,43.37c-.66,1,3.67,3.74,11.86,7.34S56,54.38,59.14,54.34,69.79,51,69.77,50.6s-.64-.65-.64-.65a68.24,68.24,0,0,1-13.25-1.36c-8.68-1.54-12-4.16-14.64-5.21s-7.27-.75-9.4,0S23.15,42.62,22.65,43.37Z"/><path class="cls-10" d="M39.23,43.26c-2.25-.24-3.46.34-6.86,1a71.45,71.45,0,0,1-7.29,1S29.57,49,38.41,51.7A65.22,65.22,0,0,0,57.08,54l-6.57-4.66a2,2,0,0,0,.41.73l3.62,3s-1.93-1-2.22-1.25-4.9-5-4.9-5-2.15-.8-2.64-.88-5.3,5.2-5.3,5.2,3.83-5.57,3.76-5.85S39.23,43.26,39.23,43.26Z"/><path class="cls-11" d="M17.78,32.24c-5.84-.58-13.06-2.13-16,4.77-.7,1.62-2.15,7.08,0,8.12l2.56,2.06,2.54-.06S8.94,48.8,14,46.5l8.69-3.13s1.58,3.86,14.68,8.48c0,0,12.28,3.42,21.81,2.49"/><path class="cls-3" d="M23.47,29.19a7.56,7.56,0,0,0-4.71,2c-1.26,1.3-.27,1.7.1,1.79a32.44,32.44,0,0,1,12.68.87c7.8,1.93,8.43,6.54,12.05,7.54,3.15.87,5.72-2.76,13.73,2.18,3.07,1.9,3.59,3.76,10.93,4.55S78.44,47,78.56,46.43s-.8-1.69-1.24-2a1.94,1.94,0,0,0-1-.26s-2.73.79-8.49.17-6.64-3.6-11.2-5.68c-6.81-3.12-10.9-.79-12.35-1.41-1.19-.51-4.19-4.7-12.37-7A23.18,23.18,0,0,0,23.47,29.19Z"/><path class="cls-11" d="M18.52,33.05s15.79-.58,20.81,5.17c0,0,3.58,5.11,7.32,3.22a11.54,11.54,0,0,1,7.28.55"/><path class="cls-11" d="M65.76,44.25A20.6,20.6,0,0,1,62,42.34a18.36,18.36,0,0,0-15.13-5,6.12,6.12,0,0,1-4.74-1.55c-5-5.75-15.73-6.63-15.73-6.63S18,28.72,18,33"/><path class="cls-1" d="M45.62,44.4c1.76,0,6.73,8,17.32,11.42s23.26-2,27.74-4.84,5.25-4.14,5.25-4.14-6.79-3.72-10.29-3.49S66,44.59,60.73,43.84,53.93,42,53.93,42s-.32-.4-6.14.53C44.91,43,44.28,44.42,45.62,44.4Z"/><path class="cls-9" d="M47.91,44.92c-.26.68,2.34,3.36,3,3.7s4.73,3.87,6.73,4.49,1.81-2,1.35-2.66-5-3.59-7.41-5.53C49.51,43.28,48,44.61,47.91,44.92Z"/><path class="cls-9" d="M60.9,52.35c-.43.81.22,2.18,1.47,2.73a21.35,21.35,0,0,0,7.72,1.08c3.4-.09,3-2.35,2.36-3s-4.68-1.67-8-1.73S60.9,52.35,60.9,52.35Z"/><path class="cls-9" d="M75.14,52.68c-.11.09-1.13,2.08-.87,2.7s1.34.46,1.34.46a23.55,23.55,0,0,0,3.18-.67c1.89-.53,2.08-1.21,2.13-1.73s-1.23-1.65-2.1-1.83A8,8,0,0,0,75.14,52.68Z"/><path class="cls-9" d="M82.21,52.64c0,.52.66,1,1.52.83a21.57,21.57,0,0,0,3.39-1.3c.89-.43,1.61-1.12,1.45-1.45a3.23,3.23,0,0,0-2.16-1,8.42,8.42,0,0,0-3.24.89A3.48,3.48,0,0,0,82.21,52.64Z"/><path class="cls-9" d="M53.65,45.17A3.21,3.21,0,0,0,54.38,47a7.65,7.65,0,0,0,3.11,1.37c.46,0,.83-1.41.2-2.24S53.93,45,53.65,45.17Z"/><path class="cls-9" d="M58.88,48.82a5.64,5.64,0,0,0,1.63,2c.51.22,3.64-.32,3.81-1s-1.66-1.65-2.44-1.88S58.9,48,58.88,48.82Z"/><path class="cls-9" d="M66.13,50a3,3,0,0,0,2.16,1.21c1.2.23,3.37-1.62,3.42-1.83a8.26,8.26,0,0,0-3.07-1.53C68,47.77,65.71,48.82,66.13,50Z"/><path class="cls-9" d="M71.61,51.23c0,.38,1,.93,1.36.92s1.82-1.15,1.47-1.82a1.29,1.29,0,0,0-1-.81C73.21,49.52,71.62,50.67,71.61,51.23Z"/><path class="cls-9" d="M75.25,51.61a2.51,2.51,0,0,1,.07-1.86c.32-.4,2.9-1.28,3.77-.9s1,1.59.76,1.7a17.79,17.79,0,0,1-2.91.93C75.31,51.88,75.25,51.61,75.25,51.61Z"/><path class="cls-9" d="M80.64,50.5a1.11,1.11,0,0,0,1.1.46c.21-.09,1.29-1.12.92-1.81a1.16,1.16,0,0,0-1.33-.55A1.87,1.87,0,0,0,80.64,50.5Z"/><path class="cls-9" d="M85,49a14.55,14.55,0,0,0,2.69.52c.34,0,1.34-1.79.48-2.36s-2.68.88-3,1.05S85,49,85,49Z"/><path class="cls-9" d="M84,48.41c-.17-.1-.73.83-.76.93s.69.52.82.49.65-.53.45-.95A.79.79,0,0,0,84,48.41Z"/><path class="cls-9" d="M91.46,48.58c-.36-.45-1.7,0-1.95.17A1.83,1.83,0,0,0,89.14,50c.11.23.69.25,1.17,0A3.12,3.12,0,0,0,91.46,48.58Z"/><path class="cls-11" d="M53.93,42l1.06.54c4.93,2.72,12.61,1.82,18,1.63,6.5-.22,13.3-1.88,19.35.81.26.12,3.5,2,3.6,1.87-14.54,12.75-27.54,9.93-27.54,9.93C55.71,55.9,46.07,43.71,46.07,43.71"/><path class="cls-11" d="M24.87,28.72l7.81-5.81s4.27-5,15.74-1.42c0,0,13.39,3.73,17.26,8.45L75.87,43.45"/><path class="cls-11" d="M26.05,27.63S15.57,16.49,13.55,7.12A8.5,8.5,0,0,0,7.26.63C6.66.45,4.14,6.38,4,6.85,2.08,11.61,1.23,17,4.12,21.5,6.86,25.79,11.23,29,15.6,31.44"/><path class="cls-11" d="M4.32,47.19l4.62-2.66s3.43.3,4.9-.69"/></g></g></svg>