<svg xmlns="http://www.w3.org/2000/svg" viewBox="0 0 125.74 84.79"><defs><style>.cls-1{fill:#3787c5;}.cls-1,.cls-2,.cls-5,.cls-7,.cls-9{stroke:#4d3224;}.cls-1,.cls-5{stroke-linecap:round;stroke-linejoin:round;stroke-width:1.91px;}.cls-2{fill:#80d8d6;stroke-width:1.83px;}.cls-2,.cls-7,.cls-9{stroke-miterlimit:10;}.cls-3,.cls-6{opacity:0.8;}.cls-4,.cls-6{fill:#d0ebea;}.cls-5,.cls-9{fill:#b3b3b3;}.cls-7{fill:#ffefba;stroke-width:1.8px;}.cls-8{fill:#4d3224;}.cls-9{stroke-width:0.9px;}.cls-10{fill:#4e342e;}</style></defs><title>home-car-up03</title><g id="圖層_2" data-name="圖層 2"><g id="首頁"><path class="cls-1" d="M124.79,68.7l-5.65-62A5.71,5.71,0,0,0,113.44,1H58.18c-3.79,0-6.42,2.72-8.86,5.64-6.76,8.05-21.54,24.21-22.7,25.69-.08.1-12.6,1.78-19.71,2.74A6.16,6.16,0,0,0,1.6,40.48L1.09,66.73c-.84,5.44,2.26,7.71,7.15,7.71H117.89S124.53,73.36,124.79,68.7Z"/><path class="cls-2" d="M79.51,33h-37a2.12,2.12,0,0,1-1.63-3.48L60,6.6a2.11,2.11,0,0,1,1.63-.76H79.51a2.75,2.75,0,0,1,2.75,2.75v21.6A2.76,2.76,0,0,1,79.51,33Z"/><path class="cls-2" d="M112.06,33H91a2.9,2.9,0,0,1-2.9-2.9V8.72A2.9,2.9,0,0,1,91,5.82H109.8a2.9,2.9,0,0,1,2.9,2.9L115,30.06A2.92,2.92,0,0,1,112.06,33Z"/><g class="cls-3"><path class="cls-4" d="M79.72,6.84l-5.25.07L53.35,32.2l10.4-.37L81.1,9.74S82.35,7,79.72,6.84Z"/></g><path class="cls-5" d="M50.61,38.17c-1.08,0-3.1-1.87-4.6-3.45a3.91,3.91,0,0,1-.17-5.24c1.52-1.74,3.65-3.42,4.76-3.42h0A3.39,3.39,0,0,1,54,29.44v5.35A3.4,3.4,0,0,1,50.61,38.17Z"/><polygon class="cls-6" points="81.29 17.78 70.29 31.84 66.95 31.96 81.43 13.48 81.29 17.78"/><polygon class="cls-6" points="99.07 32.08 112.4 15.02 111.96 11.47 95.93 31.93 99.07 32.08"/><path class="cls-7" d="M1.2,56.15H7.41c5.54,0,7-1.57,8.09-4.42,0,0,2.73-5.14-4.15-5.14H3.91S1.1,46.5,1.08,50.18Z"/><circle class="cls-8" cx="35.02" cy="72.82" r="11.97"/><path class="cls-9" d="M35,66.06a6.77,6.77,0,1,1-6.76,6.76A6.76,6.76,0,0,1,35,66.06Z"/><circle class="cls-10" cx="105.82" cy="72.82" r="11.97"/><path class="cls-9" d="M105.82,66.06a6.77,6.77,0,1,1-6.76,6.76A6.76,6.76,0,0,1,105.82,66.06Z"/></g></g></svg>