<svg xmlns="http://www.w3.org/2000/svg" viewBox="0 0 1920 400"><defs><style>.cls-1{fill:#86b2d4;}.cls-2{fill:#fff;opacity:0.3;}.cls-3{fill:#5596ca;opacity:0.4;}.cls-4{fill:none;}</style></defs><title>home-city01_1</title><g id="圖層_2" data-name="圖層 2"><g id="首頁"><rect class="cls-1" x="1350.45" y="287.78" width="1.94" height="2.82"/><rect class="cls-1" x="1350.45" y="281.52" width="1.94" height="2.82"/><path class="cls-2" d="M1191,185.73l-.46-.12c-.6-.24-7.41-3-9.82-3.92,0,0,0,0,0,0-1-1-2.67-1.12-4-1.59a45.22,45.22,0,0,0-5.62-1.76,6,6,0,0,0-3.21,0c-2.42.31-3.54,1.77-5,3-1.47.55-2.9,1.33-4.32,1.84-2.78,1-5.6,2-8.37,3-2.45.9-4.71,2.05-7.06,3.15-1.12.52-2.23,1-3.36,1.51-.29.12-.88.69-1.22.73,0,0,0,0,0,.05.66.07,1.1-.42,1.73-.6,1.06-.31,2.07-.7,3.11-1.08,2.61-1,5.11-2.17,7.75-3.06,1.94-.66,3.9-1.28,5.84-1.94a5,5,0,0,1,1.33.34c.4.39-1.18,1.58-2,2.37,3.47,1.15,6.2-1.46,9.64-1.21l-.35.36a19.08,19.08,0,0,1-2.48,2.68,26.67,26.67,0,0,1-2.84,1.86c-.53.3-1,.49-1.18,1.1,0,.13.09.24.22.21a14.61,14.61,0,0,0,5.14-1.89l0,0c.81-.22,1.6-.57,2.09-.33.79,1.18-.79,2.76-.79,4.34,4-.39,7.11-6.71,10.27-3.94,2.37,2,5.54,2.36,7.91,3.55-2.22-2.95-5.47-4.87-7.17-8.33.42.21.87.41,1.33.63a50.64,50.64,0,0,0,5.78,2.46c.23.07.32-.24.15-.36-1.48-1.12-3-2.4-4.67-3.54a7.27,7.27,0,0,0-1.35-1.92,50.73,50.73,0,0,1,10.43,2,12.73,12.73,0,0,0,1.76.91l.6.19c1.81.17,4,1.32,5.65,1.63A37,37,0,0,0,1191,185.73Z"/><path class="cls-3" d="M1777,399.55V233.92h-.49V207.83l-36.37.39-2.45-7.5,0-.09a58.34,58.34,0,0,0,8-3.71l1.16,1.4,1.61,2-.88-2.37-.64-1.71a58.28,58.28,0,0,0,7.19-5l1.4,1.19,1.92,1.63-1.28-2.17-.93-1.58a59.69,59.69,0,0,0,6.21-6.21l1.58.92,2.18,1.28-1.64-1.92-1.19-1.39a59.23,59.23,0,0,0,5.05-7.2l1.71.64.93.35a2.13,2.13,0,1,0,.26-.44l-.77-.64-1.41-1.16a57.72,57.72,0,0,0,3.72-8l1.79.33,1,.18a2.08,2.08,0,1,0,.17-.48l-.87-.49-1.58-.9a57.34,57.34,0,0,0,2.27-8.49l1.83,0h1a2.11,2.11,0,1,0,.09-.5l-.94-.33-1.72-.61a58.8,58.8,0,0,0,.76-8.75l1.81-.31,1-.16a2.12,2.12,0,1,0,0-.51l-1-.17-1.81-.3a58.57,58.57,0,0,0-.76-8.75l1.72-.62.94-.33a2.1,2.1,0,1,0-.09-.5h-2.82a57.34,57.34,0,0,0-2.27-8.49l1.58-.9.87-.49a2.12,2.12,0,1,0-.17-.48l-1,.19-1.79.32a57.72,57.72,0,0,0-3.72-8l1.41-1.16.77-.64a2.1,2.1,0,0,0,2.73.57,2.11,2.11,0,1,0-3-1l-.93.35-1.71.64a58.35,58.35,0,0,0-5.05-7.19l1.19-1.4.65-.76a2.08,2.08,0,1,0-.33-.38l-.86.5-1.58.93a58.73,58.73,0,0,0-6.21-6.21l.93-1.58.5-.86a2.11,2.11,0,1,0-.46-3.12,2.1,2.1,0,0,0,.07,2.79l-.75.65-1.4,1.19a59.12,59.12,0,0,0-7.19-5l.64-1.71.34-.93a2.13,2.13,0,1,0-.44-.26l-.63.77-1.16,1.41a58.39,58.39,0,0,0-8-3.72l.33-1.79.18-1a2.1,2.1,0,1,0-.47-.17l-.5.86-.89,1.59a57.67,57.67,0,0,0-8.49-2.27V85.27a2.12,2.12,0,1,0-.5-.09l-.34.94-.61,1.72a58.57,58.57,0,0,0-8.75-.76l-.3-1.81-.17-1a2.11,2.11,0,1,0-.51,0l-.16,1-.31,1.81a58.68,58.68,0,0,0-8.75.76l-.61-1.72-.33-.94a2.1,2.1,0,1,0-.5.09v1l0,1.83a57,57,0,0,0-8.49,2.27l-.9-1.59-.49-.86a2.13,2.13,0,1,0-.48.17l.18,1,.33,1.79a57.72,57.72,0,0,0-8,3.72l-1.17-1.41-.63-.77a2.08,2.08,0,1,0-.44.26l.35.93.64,1.71a58.47,58.47,0,0,0-7.2,5l-1.39-1.19-.76-.65a2.11,2.11,0,1,0-3.16-.08,2.13,2.13,0,0,0,2.77.41l.5.86.93,1.58a58.73,58.73,0,0,0-6.21,6.21l-1.58-.93L1670,106a2.11,2.11,0,1,0-3.12.47,2.12,2.12,0,0,0,2.8-.08l.64.76,1.19,1.4a58.28,58.28,0,0,0-5,7.19l-1.71-.64-.94-.35a2.1,2.1,0,1,0-.25.44l.77.64,1.4,1.16a59.49,59.49,0,0,0-3.72,8l-1.78-.32-1-.19a2.09,2.09,0,1,0-.17.48l.87.49,1.58.9a58.59,58.59,0,0,0-2.27,8.49h-2.82a2.11,2.11,0,1,0-.09.5l.94.33,1.72.62a58.57,58.57,0,0,0-.75,8.75l-1.82.3-1,.17a2.11,2.11,0,1,0,0,.51l1,.16,1.82.31a58.8,58.8,0,0,0,.75,8.75l-1.72.61-.94.33a2.1,2.1,0,1,0,.09.5h1l1.82,0a58.59,58.59,0,0,0,2.27,8.49l-1.58.9-.87.49a2.13,2.13,0,1,0,.17.48l1-.18,1.78-.33a58.91,58.91,0,0,0,3.72,8l-1.4,1.16-.77.64a2.12,2.12,0,1,0,.25.44l.94-.35,1.71-.64a59.16,59.16,0,0,0,5,7.2l-1.19,1.39-.64.76a2.11,2.11,0,1,0-.09,3.15,2.09,2.09,0,0,0,.41-2.76l.86-.51,1.58-.92a59.69,59.69,0,0,0,6.21,6.21l-.93,1.58-1.28,2.17,1.93-1.63,1.39-1.19a59,59,0,0,0,7.19,5l-.63,1.71-.89,2.37,1.61-2,1.17-1.4a57.67,57.67,0,0,0,8,3.71l0,.09-2.62,8-24.44.26v24.79h-16.29v7.31h-12.23V195.33h-23.73v8.41h-1.56V175h-5.65V155.51h-8.73V88.17h-3.88v67.34h-3.8V66.14h-9.93V49.6H1565V26.1h-2.63V49.6h-19.08V66.14h-9.93V199.38h-.47v19.53h-8.64v-4.3h-.51V199h-1.84v15.66h-9.26V161.36H1515v-10h-44.14v10h-2.32v-16h-1.79v16h-4.21v10.21l-43.4-.75H1414v-26.2H1399.1v-43.3h-3.88V211.75H1385.1v19.52h-5.64v24.36h-2.66V233.78h-39.86v21.85h-5.89v19.52h-8.65v-4.29h-.51V255.19h-1.84v15.67h-9.53v-22.5H1300v59.23h-2.84v-52.5h2.56v-10h-18.57c-5.63-3.67-12.31-12.77-20.51-17l-.89-.46-.14-.07c-1-.51-2.08-1.11-3.3-1.77h0l-2.49-1.38-.29-.16-1-.55-.77-.44-.6-.34-1-.53-.07,0c-1.39-.79-2.84-1.61-4.31-2.46h0c-11-6.33-23.51-13.89-26.54-16.44-4.68-3.92-18.91-14.09-26.13-16.7s-18.49-7.84-23.58-8.4-5.74,2.8-8.93,4.29a146.91,146.91,0,0,1-15.3,6c-4.88,1.49-19.12,10.08-31.23,16.65-1,.57-2.23,1.18-3.53,1.81l-.72.35-.67.32-.77.37-.7.32-.81.38-.7.32-.89.41-.64.28-1,.45-.51.22c-1.35.6-2.74,1.2-4.16,1.81l-.16.07-2.49-.58L1010.1,110.31q-1.23-2.93-2.51-5.91l-1.41.29v-3.86h-.66v4l-.8.16v-3.31h-.66v3.45l-1,.21-1.76,4.08.55,3.33-131,87.18c-25,1.58-51,3.81-78.08,6.53V138.09h-3.33V136h-3.86V122H782.9v-8.86h-.78v-1.42H764.27v1.42h-.79V122h-3.42V136H756.2v2.11h-3.33v6.51l-.47-7.68-6.86-.07v-.34h3.91v-3.12h-3.91V123.3h3.91v-3.09h-3.91v-7.8h3.91v-3.16h-3.91v-8.53h3.91V97.59h-3.91v-7h3.91V87.47h-3.91v-11h3.91V73.38h-3.91V69.12h.39a3.12,3.12,0,1,0,0-6.23h-.39V55.82H744V46.33H712.62a8.44,8.44,0,0,0-3.3-1.25V42.4h-5.06V40.07h-3.11V24.51h-1.57V40.07h-3.11V42.4h-5.06v2.68a8.45,8.45,0,0,0-3.33,1.25h-9.54v9.49H677v7.07h-.35a3.12,3.12,0,1,0,0,6.23H677v4.26h-3.88v3.13H677v11h-3.88v3.14H677v7h-3.88v3.13H677v8.53h-3.88v3.16H677v7.8h-3.88v3.09H677v10.09h-3.88v2.7l-31.35-.32V109H637.9v34.61L635.83,146V78.47h-6.09V68.33H605.19V78.47H599.1V187.61h-.8v-2.8l-9.43-54.5H572l-8.84,53.54H547.26v13.47h-5.08V158.93h-3V97.52h-7V85.87H519.27V69.32h-1.85V85.87H504V97.52h-7V220.83h-.3v-6.3h-7.87V192.45h2.28v-5.14H460V174h-3.71V166h-1.82V174H454v2.21h-18.1V167h-7V151.19H400.52v12.19h-2.91v-9.73H392v-10h-8v32.32h-8.3v30.47h-21v-93.2H348v-9.32H320.86v9.32h-6.73V182h-1.22V158.71H307.4V142.86h-8.53V88.19h-3.79v54.67h-9.89v15.85h-5.51v19.77H253.19v-6.17h-5.1V162.23h-2.5v10.08h-.69v2.76H233.16V162.51h-21.6v-23h-4.65v23H195.6v26h-5.9v16.28h-6.58v21.18h-4V167h-7V151.19H143.8v12.28h-7V400ZM335.91,118.21H342v4.7h-6.1Zm-12.69,86.38h-4.94v-4.7h4.94Zm0-9.07h-4.94v-4.7h4.94Zm0-9.08h-4.94V182h-1.15v-.28h6.09Zm0-9.07h-6.09v-4.7h6.09Zm0-9.08h-6.09v-4.7h6.09Zm0-9.08h-6.09v-4.7h6.09Zm0-9.07h-6.09v-4.7h6.09Zm0-9.08h-6.09v-4.7h6.09Zm0-9.07h-6.09v-4.71h6.09Zm0-9.08h-6.09v-4.7h6.09Zm9.4,81.68h-6.1v-4.7h6.1Zm0-9.07h-6.1v-4.7h6.1Zm0-9.08h-6.1v-4.7h6.1Zm0-9.07h-6.1v-4.7h6.1Zm0-9.08h-6.1v-4.7h6.1Zm0-9.08h-6.1v-4.7h6.1Zm0-9.07h-6.1v-4.7h6.1Zm0-9.08h-6.1v-4.7h6.1Zm0-9.07h-6.1v-4.71h6.1Zm0-9.08h-6.1v-4.7h6.1ZM342,204.59h-6.1v-4.7H342Zm0-9.07h-6.1v-4.7H342Zm.27-8.73h-6.63V181.4h6.63ZM342,145.44v4.7h-6.1v-4.7Zm-6.1-4.38v-4.7H342v4.7Zm6.1,13.45v4.7h-6.1v-4.7Zm0,9.08v4.7h-6.1v-4.7Zm0,9.08v4.7h-6.1v-4.7Zm.27-40.34h-6.63v-5.39h6.63Zm9.13,72.26h-6.1v-4.7h6.1Zm0-9.07h-6.1v-4.7h6.1Zm0-9.08h-6.1v-4.7h6.1Zm0-9.07h-6.1v-4.7h6.1Zm0-9.08h-6.1v-4.7h6.1Zm0-9.08h-6.1v-4.7h6.1Zm0-9.07h-6.1v-4.7h6.1Zm0-9.08h-6.1v-4.7h6.1Zm0-9.07h-6.1v-4.71h6.1Zm0-9.08h-6.1v-4.7h6.1ZM446,277.08h-3.9v-1.32H446Zm41.33-46.24h-1.43v-.74h1.43Zm0-2.78h-1.43v-3.68h1.43ZM506.43,155H500.1v-5.87h6.33Zm0-11.33H500.1v-5.88h6.34Zm0-11.34H500.1v-5.87h6.34Zm0-11.34H500.1V115.1h6.34Zm0-11.34H500.1v-5.87h6.34Zm9.75,34h-6.33v-5.88h6.33Zm0-11.34h-6.33v-5.87h6.33Zm0-11.34h-6.33V115.1h6.33Zm0-11.34h-6.33v-5.87h6.33Zm3.42-5.87H526v5.87h-6.34ZM526,143.65h-6.34v-5.88H526Zm0-11.34h-6.34v-5.87H526Zm.27-10.91h-6.88v-6.73h6.88ZM535.7,155h-.63v-5.87h.63Zm0-11.33h-6.33v-5.88h6.33Zm0-11.34h-6.33v-5.87h6.33Zm0-11.34h-6.33V115.1h6.33Zm0-11.34h-6.33v-5.87h6.33ZM618.8,83.9h5.51V89H618.8Zm-11.47,93.91h-5.51V172.7h5.51Zm0-9.87h-5.51v-5.11h5.51Zm0-9.86h-5.51V153h5.51Zm0-9.87h-5.51V143.1h5.51Zm0-9.87h-5.51v-5.11h5.51Zm0-9.86h-5.51v-5.11h5.51Zm0-9.87h-5.51V113.5h5.51Zm0-9.87h-5.51v-5.11h5.51Zm0-9.86h-5.51V93.77h5.51Zm0-9.87h-5.51V83.9h5.51Zm8.49,88.8h-5.51V172.7h5.51Zm0-9.87h-5.51v-5.11h5.51Zm0-9.86h-5.51V153h5.51Zm0-9.87h-5.51V143.1h5.51Zm0-9.87h-5.51v-5.11h5.51Zm0-9.86h-5.51v-5.11h5.51Zm0-9.87h-5.51V113.5h5.51Zm0-9.87h-5.51v-5.11h5.51Zm0-9.86h-5.51V93.77h5.51Zm0-9.87h-5.51V83.9h5.51Zm7.88,78.93h-4.9v-5.11h4.9Zm.85-14.29h-.85v4.8h-5.14v-5.86h6Zm-.24-40.15v5.11H618.8V113.5Zm-5.51-4.76v-5.11h5.51v5.11Zm5.51,14.63v5.11H618.8v-5.11Zm0,9.86v5.11H618.8v-5.11Zm0,9.87v5.11H618.8V143.1Zm.24-43.85h-6V93.39h6Zm4.72,54.4h-2V153h2.58Zm3.53-5.44h-5.51V143.1h5.51Zm0-9.87h-5.51v-5.11h5.51Zm0-9.86h-5.51v-5.11h5.51Zm0-9.87h-5.51V113.5h5.51Zm0-9.87h-5.51v-5.11h5.51Zm0-9.86h-5.51V93.77h5.51Zm0-9.87h-5.51V83.9h5.51Zm445.85,119.13-48.12-65,63.78,68.27Q1086.54,209.64,1078.65,208.14Zm5.2,2.5v2.15l-3.49-.68V210Zm-10.48-3.48-46.22-54q-4.07-11.05-9-23.36l6.57,7,52.52,71C1076,207.63,1074.66,207.4,1073.37,207.16Zm1.53,1.76v2.17c-1.16-.22-2.33-.42-3.49-.63V208.3Zm-57.75-81.57-.63-1.57,3.15,4.26Zm58.73,81.75,3.49.66v2.16l-3.49-.65Zm-69.36-67.52-32,56q-4.79-.12-9.61-.21l40.54-62.79Q1006,138.1,1006.52,141.58Zm-30.07,57.49v2.22L973,201.2V199ZM972,199v2.22l-3.5-.07v-2.23Zm-4.48-.1v2.23L964,201v-2.22Zm37.66-65.72-41.44,64.2q-5-.08-10-.09H953l52-65.45ZM963,198.78V201l-3.5,0v-2.22Zm-4.48-.05V201l-3.49,0V198.7C956.22,198.7,957.39,198.71,958.55,198.73Zm-4.47,0v2.22h-3.5v-2.23h3.5Zm50.12-71.36.52,3.16-53,66.74q-4.54,0-9.14,0Zm-54.6,71.35v2.22h-3.49v-2.22Zm-4.47,0v2.22l-3.5,0v-2.23Zm58.87-72.6-62.73,71.17c-4.31,0-8.65.1-13,.18L1003.81,125Zm-63.35,72.63v2.22l-3.49,0v-2.22Zm-4.47.05V201l-3.5,0v-2.22Zm-4.48.07v2.22l-3.49.06V198.9Zm71.92-75L926.8,197.47l-10.27.27,86.74-76.08Zm-76.39,75.13v2.22l-3.5.08V199Zm-4.48.11v2.22l-3.49.09v-2.22Zm-4.47.12v2.22l-3.5.1v-2.22Zm84.8-78.62L915,197.79q-6.66.21-13.41.49l101.13-79.92ZM913.8,199.28v2.22l-3.49.12V199.4Zm-4.47.16v2.22l-3.5.13v-2.22Zm-4.48.17v2.22l-3.49.14v-2.22Zm97.69-82.34-102.6,81.08c-3.06.14-6.13.28-9.22.44l111.6-82.88ZM900.38,199.79V202l-3.5.16V200Zm-4.48.2v2.22l-3.49.17v-2.22Zm-4.47.22v2.22l-3.5.17v-2.21ZM1002,113.79l.17,1L889,198.87q-8.06.42-16.25.93ZM887,200.44v2.22l-3.49.18v-2.21Zm-4.47.24v2.22l-3.5.2v-2.22Zm-4.48.26v2.21l-3.49.21v-2.21Zm-8,.49,3.5-.22v2.21l-3.5.22Zm-4.47.29,3.49-.23v2.21l-3.49.23Zm-4.48.3,3.5-.23V204l-3.5.23Zm-4.47.32,3.49-.25v2.21l-3.49.25Zm-4.48.33,3.5-.26v2.21l-3.5.25Zm-4.47.33,3.49-.26V205l-3.49.26Zm-4.48.35,3.5-.27v2.21l-3.5.27Zm-4.47.36,3.49-.28v2.21l-3.49.28Zm-4.48.37,3.5-.29V206l-3.5.29Zm-4.47.37,3.49-.29v2.2l-3.49.3Zm-4.48.39,3.5-.3v2.2l-3.5.31Zm-4.47.4,3.49-.31v2.2l-3.49.31Zm-4.48.4,3.5-.32v2.21l-3.5.31Zm-4.47.41,3.49-.32v2.2l-3.49.33Zm-4.48.43c1.17-.12,2.33-.23,3.5-.33v2.2l-3.5.33Zm-4.47.42,3.49-.33v2.2l-3.49.34Zm-4.48.44,3.5-.34v2.2l-3.5.34Zm-4.47.44,3.49-.34v2.2L794,210Zm-1.26.13.28,0v2.2l-.28,0Zm217.4,14.57c-7.63-3.78-15.7-4-26.53-6-15.22-2.83-29.82,3.69-44.59,6.13-21.94,3.62-37.82-6-60-6.9-11.68-.47-23.37,3.85-34.54,6.73-10.18,2.63-20.24,4-30.56,1.55-5.81-1.4-15.14-5.54-21.18-2.35V215c58.51-5.88,111.74-9.45,161-9.24,19.89.09,39.13.79,57.83,2.21A144,144,0,0,1,1010.1,222.48Zm-32.67-21.16V199.1l3.5.12v2.22Zm4.48.15v-2.21l3.49.13v2.22Zm4.47.18v-2.22l3.5.15v2.22Zm4.48.2v-2.22l3.49.17V202Zm4.47.22v-2.21l3.5.19v2.22Zm4.48.25v-2.21l3.49.21v2.22Zm4.47.28v-2.21c1.17.07,2.33.15,3.5.24v2.21Zm7.38.52-2.9-.21V200.7l2.94.21C1011.69,201.65,1011.68,202.39,1011.66,203.12Zm-36.09-5.53,31.18-54.46c3.13,20.56,5,39.62,5,56.32Q994,198.12,975.57,197.59Zm35.79-84.31,73.94,87-59.83-64L1015,122.14Q1013.26,117.79,1011.36,113.28Zm4.12,33.95c6.39,19.82,11.87,38,15.07,53.91q-3.84-.39-7.71-.75C1021.49,184.87,1018.93,166.82,1015.48,147.23Zm16.62,62.63c.09.59.17,1.19.26,1.78h-2.2v-2Zm-1.34-5v-2.2h.08c.15.75.29,1.5.42,2.24Zm-4.1-.41v-2.21l3.12.32v2.2Zm2.29,5.11v2.11h-2.5v-2.37Zm-6-7.67,2.72.26v2.2l-2.54-.24Q1023.05,203,1023,201.86Zm.51,7.13,1.77.17v2.48h-1.62C1023.58,210.76,1023.53,209.88,1023.47,209Zm8,13.56-.69,8.87c-.17.12-.34.22-.5.34l-2.62-.55-1.22-8.66h-2.49c0-1.72,0-3.5-.07-5.33H1033c.18,1.82.32,3.59.41,5.33Zm-3.33-66.74,43.76,51.08q-14.29-2.52-29-4.34C1039.39,189.06,1034.57,173.63,1028.1,155.81Zm42.32,52.31v2.17l-3.49-.59v-2.17Zm-4.47-.76v2.17l-3.49-.56v-2.18Zm-4.47-.72v2.18l-3.5-.54V206.1ZM1057,206v2.18c-1.26-.18-2.52-.37-3.78-.54V205.4Zm-4.76-.69v2.19l-3.39-.47v-2.19Zm-8.66.11-.33-1.3.33,0Zm1-1.14,3.31.43v2.19l-3.31-.43ZM1085,218.14l-1.16.46-.36.15c-1.87.75-3.64,1.45-5.24,2.07l-.21.09-1,.37-.34.13-.77.3-.48.19-.63.25-.47.18-.63.24-.33.13-.58.22-.33.13-.23.09c-6.85-2.24-14.37-2.63-21.14.12l-.1-.71h-3.75q-1-5.34-2.31-11.17,20.54,2.64,40.24,6.67Zm3.36-4.42-3.55-.73v-2.15l3.55.73Zm4.49,1-3.51-.76v-2.14l3.51.76Zm2.92-1-.57.24-1.15.48-.22.09v-1.77l2.75.62Zm369.74-13.17h-3v-.07h3Zm0-5.34h-3v-5.66h3Zm0-10.93h-3v-5.66h3Zm7.6,16.27h-4.3v-.07h4.3Zm0-4.92h-4.56v-6.49h4.56Zm0-11.35h-4.3v-5.66h4.3ZM1538.78,196h-1v-8.34h1Zm2.43-18.47h-2.43v2.37h-1v-8.33H1543Zm5.55-18.49-1.43,4.77h-7.56v-8.34h9Zm0-11.33h-9v-8.34h9Zm0-16.1h-9v-8.33h9Zm0-16.09h-9v-8.34h9Zm0-16.1h-9V91.1h9Zm0-16.09h-9V75h9Zm4.86,59.51v-3.47h1Zm3.37-11.23h-3.37v-8.33h5.87Zm5.62-8-.09-.32h.09Zm0-8.08h-9v-8.34h9Zm0-16.1h-9V91.1h9Zm0-16.09h-9V75h9Zm4.86-8.34h9v8.34h-9Zm9,88.82h-1.78l-2.5-8.34h4.28Zm0-16.1h-6.61l-2.38-7.92v-.42h9Zm0-16.1h-9v-8.33h9Zm0-16.09h-9v-8.34h9Zm.39-15.49h-9.77V90.49h9.77Zm6.44,96h-2v-8.34h2Zm5.64-21h-5.64v4.88h-2v-8.33h7.61Zm1.39-19.52h-1.39v8.31h-7.61v-8.34h9Zm0-7.79h-9v-8.34h9Zm0-16.1h-9v-8.33h9Zm0-16.09h-9v-8.34h9Zm0-16.1h-9V91.1h9Zm0-16.09h-9V75h9Zm110.93,25.88.69,1.48a37.76,37.76,0,0,0-4.82,2.79l-.94-1.34-2.59-7c1-.6,1.93-1.16,2.93-1.69Zm-4-6.12c1-.49,1.93-.95,2.92-1.37l1.17,6.31Zm39.38,6.12,4.72-5.72c1,.53,2,1.09,2.93,1.69l-2.59,7-.93,1.34a38.58,38.58,0,0,0-4.83-2.79Zm-.13-1.18,1.16-6.31c1,.42,2,.88,2.92,1.37Zm22.79,33.55-1.63.15a38.17,38.17,0,0,0-1-5.49l1.58-.42,7.42-.05c.23,1.09.43,2.2.58,3.33Zm7.11-1.62c.12,1.06.22,2.13.27,3.21l-6.31-1.06Zm-32.89,41.89c.44-.18.88-.36,1.32-.56l.68,1.48,1.35,7.31-.58.23Zm.8,10.49-.18-.31.07,0Zm-7.4-30.67-.47-1.42q.75-.39,1.44-.84l6,8.7a25.92,25.92,0,0,1-3.11,1.8Zm2.89,8.7,0,0-.11-.35Zm-6.73,15.74-.15-1.63a38.18,38.18,0,0,0,5.49-1l.42,1.58.05,7.43c-1.09.23-2.21.42-3.33.58Zm1.62,7.1c-1.06.13-2.13.22-3.21.28l1.06-6.32Zm-1.84-9.45-1-10.74a27.56,27.56,0,0,0,3.63-.64l2.74,10.44A38.28,38.28,0,0,1,1720.89,183.77Zm-7.56,3.41,1.07,6.32c-1.08-.06-2.15-.15-3.21-.28Zm-3,5.93c-1.12-.16-2.23-.35-3.33-.58l.06-7.43.41-1.58a38.32,38.32,0,0,0,5.5,1l-.15,1.63Zm2.7-9.34a38.28,38.28,0,0,1-5.38-.94l2.75-10.44a27.12,27.12,0,0,0,3.62.64Zm-7.94-13.85a25.29,25.29,0,0,1-3.12-1.8l6-8.7q.71.45,1.44.84l-.47,1.42Zm1.15.13-.12.35,0,0Zm-6.63,20.27-.58-.23,1.34-7.31.68-1.48c.44.2.88.38,1.32.56Zm2.14,1.72-.17.31.1-.33Zm19.94-40.35-.28-.87,6.18,6.25a15.25,15.25,0,0,1-1.31,1.1Zm3.77,7.05c-.39.26-.8.5-1.22.73l-1.55-4.74Zm-17.8-.57a15.38,15.38,0,0,1-1.32-1.1l6.19-6.25-.29.87Zm3.59-3.44-1.55,4.74c-.42-.23-.83-.47-1.23-.73Zm1.24-11.57-9.38-4.43a13.58,13.58,0,0,1,.86-1.48l8.52,5.9,0,0Zm-.38.81h0l0,0-10-2.73a14.15,14.15,0,0,1,.59-1.62Zm-.23.87h0l-10.33-.95a15.89,15.89,0,0,1,.3-1.7Zm-.08.9h0l-10.34.85c0-.28,0-.57,0-.86s0-.57,0-.86Zm.08.9h0l-10,2.64a15.71,15.71,0,0,1-.3-1.69Zm.23.87,0,0,0,0-9.42,4.34a14.72,14.72,0,0,1-.59-1.61Zm.38.81,0,0,0,0-8.52,5.91a14.75,14.75,0,0,1-.86-1.49Zm.51.74,0,0,0,0-7.37,7.3q-.59-.63-1.11-1.32Zm0-6.67,0,0-8.46-6a15.25,15.25,0,0,1,1.1-1.31l7.37,7.3Zm-9.11-6.43-8.64-6.11a27.77,27.77,0,0,1,2.32-2.76l7.52,7.45A16.36,16.36,0,0,0,1703.85,136Zm-.57.82a15.88,15.88,0,0,0-.93,1.6l-9.57-4.52a25.92,25.92,0,0,1,1.8-3.11Zm-1.35,2.51a16.31,16.31,0,0,0-.63,1.74l-10.21-2.79a24.78,24.78,0,0,1,1.23-3.38ZM1701,142a15.9,15.9,0,0,0-.32,1.83l-10.54-1a27.71,27.71,0,0,1,.62-3.55Zm-.41,2.83c0,.3,0,.61,0,.92s0,.62,0,.93l-10.54.87c0-.59-.07-1.19-.07-1.8s0-1.2.07-1.8Zm.09,2.84a15.9,15.9,0,0,0,.32,1.83l-10.24,2.69a27.56,27.56,0,0,1-.62-3.54Zm.58,2.8a18.07,18.07,0,0,0,.63,1.74l-9.61,4.43a24.91,24.91,0,0,1-1.23-3.39Zm1,2.64a16,16,0,0,0,.93,1.61l-8.7,6a26,26,0,0,1-1.8-3.12Zm1.5,2.43a16,16,0,0,0,1.2,1.41l-7.52,7.45a26.56,26.56,0,0,1-2.32-2.75Zm1.91,2.12a18.19,18.19,0,0,0,1.41,1.2l-6.11,8.64a27.87,27.87,0,0,1-2.75-2.32Zm9.27-6.45-2.57,9.41-.46-.15Zm1-.37v0l-1,10.33a15.71,15.71,0,0,1-1.69-.3Zm1.8-10.18,1-10.33a15.28,15.28,0,0,1,1.69.3l-2.63,10v0Zm0-11.23c-.3,0-.61,0-.92,0l-.93,0-.87-10.55c.59,0,1.19-.07,1.8-.07s1.2,0,1.8.07Zm-.92,11.15v0l-.85-10.33c.28,0,.57,0,.86,0s.57,0,.86,0Zm.86,20.68-.86,0-.86,0,.85-10.34v0Zm-1.76-20.6v0l-2.64-10a15.71,15.71,0,0,1,1.69-.3Zm0,21.42q.46,0,.93,0c.31,0,.62,0,.92,0l.88,10.54c-.6,0-1.2.07-1.8.07s-1.21,0-1.8-.07Zm1.82-11.23v0l2.64,10a15.89,15.89,0,0,1-1.7.3Zm1,.37,3,9.25-.46.15ZM1732.62,141a14.43,14.43,0,0,0-.64-1.74l9.62-4.43a27.76,27.76,0,0,1,1.23,3.38Zm10.49-1.73a26.09,26.09,0,0,1,.63,3.55l-10.55,1a15.9,15.9,0,0,0-.32-1.83Zm-21.06,5.54,10-2.64a15.89,15.89,0,0,1,.3,1.7l-10.33.95h0Zm-.24-.86,0,0h0l9.43-4.34a14.67,14.67,0,0,1,.58,1.61Zm-.37-.82,0,0,0,0,8.53-5.9a15.43,15.43,0,0,1,.86,1.48Zm0,5.19,0,0,9.38,4.43a16.93,16.93,0,0,1-.86,1.49l-8.53-5.91Zm.33-.84,0,0,0,0,10,2.73a14.67,14.67,0,0,1-.58,1.61Zm.24-.87h0l10.33,1a15.71,15.71,0,0,1-.3,1.69Zm.08-.89h0l10.33-.86c0,.29,0,.57,0,.86s0,.58,0,.86Zm9.43-7.37a15.88,15.88,0,0,0-.93-1.6l8.7-6a26.85,26.85,0,0,1,1.8,3.12Zm-1.5-2.42a16.26,16.26,0,0,0-1.19-1.42l7.51-7.45a27.77,27.77,0,0,1,2.32,2.76Zm-.67.47-8.47,6,0,0,0,0,7.37-7.3C1728.67,135.54,1729,136,1729.39,136.43ZM1721,149.1l0,0,8.47,6q-.53.69-1.11,1.32l-7.37-7.3Zm7.21,8.55,7.45,7.52a27.77,27.77,0,0,1-2.76,2.32l-6.11-8.64A16.36,16.36,0,0,0,1728.16,157.65Zm.71-.71a17.74,17.74,0,0,0,1.19-1.41l8.64,6.11a25.37,25.37,0,0,1-2.32,2.75Zm1.76-2.23a16,16,0,0,0,.93-1.61l9.57,4.52a26,26,0,0,1-1.8,3.12Zm1.35-2.51a15.79,15.79,0,0,0,.64-1.74l10.21,2.78a27.91,27.91,0,0,1-1.23,3.39Zm.89-2.71a15.9,15.9,0,0,0,.32-1.83l10.55,1a26,26,0,0,1-.63,3.54Zm.41-2.82q0-.46,0-.93c0-.31,0-.62,0-.92l10.55-.88q.06.9.06,1.8t-.06,1.8Zm10.32-7.5,10.44-2.74a38,38,0,0,1,1,5.38l-10.75,1A27,27,0,0,0,1743.6,139.17Zm-.28-1.06a28.47,28.47,0,0,0-1.26-3.46l9.8-4.52a37.81,37.81,0,0,1,1.87,5.13Zm-1.73-4.47a27.09,27.09,0,0,0-1.84-3.18l8.87-6.15a37.49,37.49,0,0,1,2.73,4.73Zm-2.48-4.09a26.48,26.48,0,0,0-2.37-2.81l7.67-7.6a38.83,38.83,0,0,1,3.51,4.18ZM1736,126a26.39,26.39,0,0,0-2.81-2.36l6.23-8.81a38.83,38.83,0,0,1,4.18,3.51Zm-.35.36-7.45,7.52a16.26,16.26,0,0,0-1.42-1.19l6.11-8.64A27.67,27.67,0,0,1,1735.61,126.31Zm-8,8.11-7.3,7.37,0,0,0,0,6-8.47A15.37,15.37,0,0,1,1727.58,134.42Zm-8,6.85,0-.05,0,0,4.43-9.38a15.43,15.43,0,0,1,1.48.86Zm-.81-.38v0l0,0,2.73-10c.56.17,1.09.37,1.62.59Zm2-11.06a17.72,17.72,0,0,0-1.82-.33l1-10.54a26.09,26.09,0,0,1,3.55.63Zm-1.9-11.46c-.61,0-1.22-.07-1.84-.07s-1.23,0-1.84.07l-.89-10.76c.9-.06,1.81-.1,2.73-.1s1.82,0,2.73.1ZM1715,129.5a18.23,18.23,0,0,0-1.82.33l-2.69-10.24a25.68,25.68,0,0,1,3.54-.63Zm.16,11.38,0,0,0,0-4.34-9.43a17.12,17.12,0,0,1,1.61-.59Zm-.82.38,0,0,0,.05-5.91-8.53a15.6,15.6,0,0,1,1.49-.86Zm-.73.52,0,0,0,0-7.3-7.37a15.5,15.5,0,0,1,1.32-1.11Zm-7.88-7.95-7.45-7.52a26.47,26.47,0,0,1,2.75-2.31l6.11,8.64A17.74,17.74,0,0,0,1705.76,133.83ZM1698,126l-7.59-7.66a37,37,0,0,1,4.18-3.51l6.23,8.81A27.54,27.54,0,0,0,1698,126Zm-.78.79a27.72,27.72,0,0,0-2.37,2.81l-8.81-6.23a40,40,0,0,1,3.51-4.18Zm-3,3.72a28.58,28.58,0,0,0-1.84,3.18l-9.76-4.6a37.56,37.56,0,0,1,2.74-4.73Zm-2.3,4.19a25.47,25.47,0,0,0-1.26,3.46l-10.42-2.85a37.81,37.81,0,0,1,1.87-5.13Zm-1.55,4.52a27.27,27.27,0,0,0-.64,3.63l-10.74-1a36.66,36.66,0,0,1,.94-5.38Zm-.73,4.73c0,.61-.07,1.22-.07,1.84s0,1.23.07,1.84l-10.75.89c-.07-.9-.1-1.81-.1-2.73s0-1.83.1-2.73Zm.09,4.78a27,27,0,0,0,.64,3.63l-10.44,2.74a36.52,36.52,0,0,1-.94-5.37Zm.93,4.7a26,26,0,0,0,1.26,3.46l-9.81,4.51a37.33,37.33,0,0,1-1.87-5.13Zm1.72,4.46a28.72,28.72,0,0,0,1.84,3.19l-8.86,6.14a38.16,38.16,0,0,1-2.74-4.72Zm2.48,4.09a29,29,0,0,0,2.37,2.82l-7.67,7.59a38.06,38.06,0,0,1-3.51-4.18Zm3.15,3.6a29,29,0,0,0,2.82,2.37l-6.23,8.81a38.06,38.06,0,0,1-4.18-3.51Zm3.72,3a28.72,28.72,0,0,0,3.19,1.84l-4.61,9.76a39,39,0,0,1-4.73-2.74Zm-.32,12.11,4.51-9.81.09,0-3.36,10.29Zm10.39-19.41.5.16-2.79,10.21c-.33-.09-.67-.2-1-.31Zm-1.22,10.66,2.69-10.24a15.73,15.73,0,0,0,1.82.32l-1,10.54A27.26,27.26,0,0,1,1710.52,171.9Zm4.6,1.22c.61,0,1.22.07,1.84.07s1.23,0,1.84-.07l.89,10.75c-.91.07-1.81.1-2.73.1s-1.83,0-2.73-.1Zm3.76-11.14a15.37,15.37,0,0,0,1.82-.32l2.7,10.24a27.71,27.71,0,0,1-3.55.62Zm2.79-.58.5-.16,3.29,10.06c-.33.11-.66.22-1,.31Zm6.38,9.44,4.52,9.81-1.24.53L1728,170.89Zm1-.46a27.84,27.84,0,0,0,3.19-1.84l6.15,8.86a37.56,37.56,0,0,1-4.73,2.74Zm4.1-2.48a27.72,27.72,0,0,0,2.81-2.37l7.6,7.67a40,40,0,0,1-4.18,3.51Zm3.59-3.15a27.63,27.63,0,0,0,2.37-2.82l8.81,6.23a37,37,0,0,1-3.51,4.18Zm3-3.72a27.22,27.22,0,0,0,1.84-3.19l9.76,4.61a38.09,38.09,0,0,1-2.73,4.72Zm2.31-4.19a29.09,29.09,0,0,0,1.26-3.46l10.41,2.84a37.33,37.33,0,0,1-1.87,5.13Zm1.54-4.53a27,27,0,0,0,.64-3.63l10.75,1a37.9,37.9,0,0,1-1,5.37Zm.73-4.73c0-.61.07-1.22.07-1.84s0-1.23-.07-1.84l10.76-.89c.06.9.1,1.81.1,2.73s0,1.83-.1,2.73Zm12.81-12.6,5.58-3.17c.31,1,.59,2.06.83,3.12Zm-1.14-.34-1.57.43a40.91,40.91,0,0,0-1.91-5.24l1.48-.68,7.3-1.35c.42,1,.81,2.1,1.16,3.18Zm-1.34-6.48,4.94-4.08c.49,1,1,1.93,1.37,2.92Zm-1.18-.13-1.48.7a39.86,39.86,0,0,0-2.79-4.83l1.34-.93,7-2.59c.59,1,1.16,1.93,1.69,2.92Zm-2.45-6.15,4.16-4.87c.64.85,1.26,1.73,1.85,2.63Zm-1.18.08-1.34,1a37.56,37.56,0,0,0-3.59-4.27l1.17-1.16,6.39-3.76c.76.84,1.48,1.71,2.18,2.59Zm-3.48-5.63,3.25-5.52c.78.73,1.54,1.49,2.27,2.27Zm-1.15.28-1.16,1.17a37.56,37.56,0,0,0-4.27-3.59l1-1.34,5.64-4.81c.89.7,1.76,1.42,2.59,2.18Zm-4.4-4.94,2.23-6c.91.59,1.79,1.2,2.64,1.85Zm-2.43,2.41-6.15,8.87a25.16,25.16,0,0,0-3.19-1.84l4.61-9.76A37.49,37.49,0,0,1,1738.39,114.08Zm-6.44,9.28-6,8.71a15.88,15.88,0,0,0-1.6-.93l4.52-9.58A28.92,28.92,0,0,1,1732,123.36Zm-8.54,7.35a16.31,16.31,0,0,0-1.74-.63l2.79-10.21a27.76,27.76,0,0,1,3.38,1.23Zm.11-11.62a27.11,27.11,0,0,0-3.62-.63l1-10.75a38.3,38.3,0,0,1,5.38,1ZM1721,107l.15-1.63,2.48-7c1.12.15,2.24.35,3.33.58l-.05,7.42-.42,1.58A38.41,38.41,0,0,0,1721,107Zm-.38-2.7L1719.52,98c1.08.06,2.15.16,3.21.28Zm-.7,1-.13,1.63c-.93-.06-1.85-.1-2.79-.1s-1.87,0-2.79.1l-.14-1.63,1.23-7.31c.57,0,1.13,0,1.7,0s1.13,0,1.69,0Zm-6.55-1-2.14-6c1.06-.12,2.13-.22,3.21-.28Zm-.52,1.07L1713,107a38.31,38.31,0,0,0-5.5,1l-.41-1.58L1707,99c1.1-.23,2.21-.43,3.33-.58Zm.21,2.34,1,10.75a27,27,0,0,0-3.63.63l-2.74-10.43A37.9,37.9,0,0,1,1713,107.71Zm-.78,22.37a18.07,18.07,0,0,0-1.74.63l-4.43-9.61a27.91,27.91,0,0,1,3.39-1.23Zm-2.64,1.06a16,16,0,0,0-1.61.93l-6-8.71a26.57,26.57,0,0,1,3.12-1.79Zm-7.93-8.19-6.15-8.87a39,39,0,0,1,4.73-2.73l4.61,9.76A25.88,25.88,0,0,0,1701.67,123Zm-8.57-11.28-4.88-4.16c.86-.64,1.74-1.26,2.64-1.85Zm.08,1.18.94,1.34a38.45,38.45,0,0,0-4.27,3.59l-1.15-1.17-3.76-6.39c.84-.76,1.7-1.48,2.59-2.18Zm-5.64,3.48-5.52-3.25c.74-.78,1.49-1.54,2.28-2.27Zm.29,1.15,1.16,1.16a39.75,39.75,0,0,0-3.59,4.27l-1.33-1-4.82-5.65c.7-.88,1.43-1.75,2.18-2.59Zm-4.95,4.4-6-2.24c.58-.9,1.2-1.78,1.85-2.63Zm.48,1.09,1.34.93a39.86,39.86,0,0,0-2.79,4.83l-1.47-.7-5.73-4.72c.53-1,1.1-2,1.7-2.93Zm-4.11,5.19-6.31-1.16c.43-1,.88-2,1.37-2.92Zm.67,1,1.48.68a38.09,38.09,0,0,0-1.91,5.24l-1.57-.43-6.46-3.66c.35-1.08.73-2.14,1.15-3.18Zm-3.15,5.83-6.41,0c.24-1.06.52-2.09.83-3.12Zm.83.85,1.58.42a38.18,38.18,0,0,0-1,5.49l-1.63-.15-7-2.48c.16-1.13.35-2.24.58-3.33Zm-2.08,6.29-6.32,1.06c.06-1.08.15-2.15.28-3.21Zm1,.7,1.64.13c-.07.92-.1,1.85-.1,2.79s0,1.87.1,2.79l-1.64.14-7.31-1.24c0-.56,0-1.12,0-1.69s0-1.13,0-1.69Zm-1,6.55-6,2.14c-.13-1.06-.22-2.13-.28-3.21Zm1.06.52,1.63-.15a38.32,38.32,0,0,0,1,5.5l-1.58.41-7.43.06c-.23-1.1-.42-2.21-.58-3.33Zm.19,6.62-5.58,3.16c-.31-1-.59-2.06-.83-3.11Zm1.15.33,1.57-.43a37.16,37.16,0,0,0,1.91,5.24l-1.48.69-7.31,1.34c-.42-1-.81-2.1-1.15-3.18Zm1.33,6.48-4.94,4.09c-.49-1-.94-1.93-1.37-2.92Zm1.19.13,1.47-.7a39.11,39.11,0,0,0,2.79,4.83l-1.34.94-6.95,2.59c-.6-1-1.17-1.93-1.7-2.93Zm2.44,6.15-4.16,4.88c-.64-.86-1.26-1.74-1.84-2.64Zm1.19-.08,1.33-.94a40.76,40.76,0,0,0,3.59,4.27l-1.17,1.15-6.39,3.76c-.75-.84-1.48-1.7-2.18-2.59Zm3.47,5.64-3.24,5.52q-1.18-1.11-2.28-2.28Zm1.16-.29,1.15-1.16a40.76,40.76,0,0,0,4.27,3.59l-.94,1.33-5.65,4.81c-.89-.69-1.75-1.42-2.59-2.17Zm4.4,4.95-2.24,6c-.9-.58-1.78-1.2-2.64-1.85Zm1.08-.48.93-1.35a38.65,38.65,0,0,0,4.83,2.8l-.69,1.47-4.73,5.73c-1-.53-2-1.1-2.93-1.7Zm5.2,4.1-1.17,6.31c-1-.42-2-.87-2.92-1.36Zm-.53,7.55.47.18-1.15,3.5Zm1.38,5.43,2.34-4.11c1.17.36,2.36.68,3.56.95l-.07,9.33a58.06,58.06,0,0,1-7.23-1.87Zm2.79-4.92,3.17-5.58,0,6.42Q1704.56,192,1703,191.5Zm2.84-6.72-3.67,6.46-.24-.07,2.77-8.44c.51.17,1,.33,1.57.48Zm-.92-2.74,3.35-10.26c.34.12.69.22,1,.32l-2.84,10.42C1706,182.37,1705.45,182.21,1704.94,182Zm2,11.41c1,.2,2,.38,3,.52l-3.1,8.73Zm3.9.64c1.21.15,2.43.26,3.67.32l1.55,9.2a58.77,58.77,0,0,1-8.35-.73Zm3.15-7.87.14-1.63c.92.07,1.85.1,2.79.1s1.86,0,2.79-.1l.13,1.63-1.23,7.32c-.56,0-1.13,0-1.69,0s-1.13,0-1.7,0Zm5.34,8.19c1.23-.06,2.46-.17,3.67-.32l3.12,8.79a58.76,58.76,0,0,1-8.34.73Zm4.53-.44c1-.14,2-.32,3-.52l.07,9.25Zm.69-21.87c.35-.1.69-.2,1-.32L1729,182c-.5.17-1,.33-1.53.48Zm4.61,10.63,2.76,8.44-.24.07-3.67-6.46-.42-1.57C1728.16,183.06,1728.68,182.9,1729.2,182.73Zm1.69,8.77c-1,.32-2.06.6-3.12.84l0-6.42Zm.45.81,2.34,4.11,1.4,4.3a57.61,57.61,0,0,1-7.23,1.87l-.07-9.33C1729,193,1730.17,192.67,1731.34,192.31Zm3.26-1.14.46-.18.68,3.68Zm1.1-1.42-1.16-6.31,4.08,4.95C1737.67,188.88,1736.69,189.33,1735.7,189.75Zm-1-7.49-.7-1.47a38.65,38.65,0,0,0,4.83-2.8l.93,1.35,2.59,6.95c-1,.6-1.93,1.17-2.93,1.7Zm6.15-2.44,4.87,4.15c-.85.65-1.73,1.27-2.64,1.85Zm-.08-1.19-1-1.33a39.75,39.75,0,0,0,4.27-3.59l1.16,1.16,3.76,6.4c-.84.75-1.71,1.48-2.6,2.17Zm5.63-3.47,5.52,3.24c-.73.78-1.49,1.54-2.27,2.28Zm-.28-1.16-1.17-1.15a38.45,38.45,0,0,0,3.59-4.27l1.34.94,4.81,5.65c-.7.89-1.42,1.75-2.18,2.59Zm4.94-4.4,6,2.24c-.59.9-1.21,1.78-1.85,2.64Zm-.48-1.08-1.34-.94a37.2,37.2,0,0,0,2.79-4.83l1.48.7,5.72,4.73c-.53,1-1.1,2-1.69,2.93Zm4.11-5.2,6.31,1.17c-.42,1-.88,2-1.37,2.92Zm-.66-1-1.48-.69a39.83,39.83,0,0,0,1.91-5.24l1.57.43,6.46,3.66c-.35,1.08-.74,2.14-1.16,3.18Zm3.14-5.83,6.41.05c-.24,1.05-.52,2.09-.83,3.11Zm-.82-.86-1.58-.41a38.31,38.31,0,0,0,1-5.5l1.63.15,7,2.49c-.15,1.12-.35,2.23-.58,3.33Zm2.08-6.28,6.31-1.07c0,1.08-.15,2.15-.27,3.21Zm-1-.7-1.63-.14c.06-.92.1-1.85.1-2.79s0-1.87-.1-2.79l1.63-.13,7.31,1.23c0,.56,0,1.13,0,1.69s0,1.13,0,1.69Zm7.22-12.9,9.26-.07-8.73,3.1C1765,137.78,1764.87,136.77,1764.66,135.77Zm9.14-.92-9.32.07q-.42-1.81-1-3.57l8.12-4.6A57.43,57.43,0,0,1,1773.8,134.85Zm-10.54-4.32c-.32-1-.67-1.94-1-2.89l9.1-1.68Zm4.25-13a58.27,58.27,0,0,1,3.54,7.59l-9.17,1.69c-.48-1.14-1-2.25-1.57-3.34Zm-7.6,5.17c-.49-.91-1-1.79-1.54-2.66l8.68-3.24Zm1.93-13.52a59.45,59.45,0,0,1,4.81,6.86l-8.75,3.26c-.67-1-1.37-2-2.11-3Zm-6.59,6.42c-.63-.81-1.29-1.6-2-2.36l8-4.7Zm5.48-7.73-8,4.73q-1.26-1.35-2.61-2.61l4.73-8.05A56.18,56.18,0,0,1,1760.73,107.89Zm-6.59-6.46-4.7,8c-.76-.69-1.55-1.35-2.36-2Zm-.65-.57-7.1,6c-1-.74-2-1.45-3-2.11l3.26-8.75A58.49,58.49,0,0,1,1753.49,100.86Zm-7.61-5.21-3.24,8.68c-.87-.54-1.76-1-2.66-1.54Zm-8.32-4a58.27,58.27,0,0,1,7.59,3.54l-5.94,7.19c-1.09-.56-2.21-1.08-3.34-1.56Zm-.82-.26-1.68,9.1c-1-.38-1.91-.73-2.89-1Zm-8.89-2.49a56.46,56.46,0,0,1,8.1,2.16l-4.61,8.12c-1.17-.36-2.35-.68-3.56-1Zm-.08,10.24c1.06.25,2.09.53,3.12.84l-3.17,5.58Zm.28,7.56,3.67-6.46c1.07.35,2.13.74,3.18,1.16l-1.35,7.3-.68,1.48a40.91,40.91,0,0,0-5.24-1.91Zm-.61,2.27a37.81,37.81,0,0,1,5.13,1.87l-4.52,9.8a28.47,28.47,0,0,0-3.46-1.26ZM1727,88.78l-.07,9.26c-1-.21-2-.38-3-.53Zm-.84-.18L1723,97.39c-1.21-.15-2.44-.25-3.67-.31l-1.55-9.2A57.33,57.33,0,0,1,1726.16,88.6Zm-9.2-.7L1718.5,97,1717,97l-1.54,0Zm-.86,0-1.55,9.2c-1.24.06-2.46.16-3.67.31l-3.13-8.79A57.46,57.46,0,0,1,1716.1,87.88ZM1710,97.51c-1,.15-2,.32-3,.53l-.07-9.26Zm-.69,21.87a29.09,29.09,0,0,0-3.46,1.26l-4.51-9.8a37.33,37.33,0,0,1,5.13-1.87Zm-8.27-9.2-.69-1.48-1.34-7.3c1-.42,2.1-.81,3.17-1.16l3.67,6.46.43,1.57A39.83,39.83,0,0,0,1701.05,110.18Zm5.14-4.62L1703,100c1-.31,2.06-.59,3.11-.84Zm-.13-16.66.07,9.32c-1.2.28-2.39.6-3.56,1l-4.6-8.12A56,56,0,0,1,1706.06,88.9Zm-4.32,10.54c-1,.32-1.94.67-2.89,1l-1.68-9.1Zm-5.38-7.79,1.69,9.17c-1.14.48-2.26,1-3.35,1.56l-5.94-7.19A58.4,58.4,0,0,1,1696.36,91.65Zm-2.43,11.14c-.9.49-1.79,1-2.66,1.54L1688,95.65Zm-6.65-6.74,3.26,8.75c-1,.66-2,1.37-3,2.11l-7.1-6A57.77,57.77,0,0,1,1687.28,96.05Zm-.45,11.39c-.81.64-1.59,1.3-2.36,2l-4.69-8ZM1679.1,102l4.73,8.05c-.9.84-1.77,1.71-2.6,2.61l-8-4.73A58.14,58.14,0,0,1,1679.1,102Zm1.54,11.3c-.68.76-1.35,1.55-2,2.36l-6-7.06Zm-8.56-4.06,6.05,7.11c-.74,1-1.45,2-2.12,3l-8.74-3.26A58.25,58.25,0,0,1,1672.08,109.2Zm3.47,10.86c-.54.87-1.06,1.75-1.55,2.66l-7.13-5.9Zm-9.14-2.51,7.19,5.94c-.56,1.09-1.08,2.2-1.56,3.34l-9.18-1.69A57,57,0,0,1,1666.41,117.55Zm5.3,10.09c-.38,1-.73,1.91-1,2.89L1662.6,126Zm-9.44-.89,8.12,4.6c-.36,1.17-.68,2.36-1,3.57l-9.33-.07A58.82,58.82,0,0,1,1662.27,126.75Zm7,9c-.2,1-.38,2-.53,3l-8.73-3.1Zm-9.44.77,8.8,3.12c-.15,1.21-.26,2.44-.32,3.67l-9.2,1.55A58.76,58.76,0,0,1,1659.81,136.54Zm8.45,10.74-9.14-1.54,9.14-1.54c0,.51,0,1,0,1.54S1668.24,146.77,1668.26,147.28Zm-9.17-.68,9.2,1.55c.06,1.24.17,2.46.32,3.67l-8.8,3.13A58.9,58.9,0,0,1,1659.09,146.6Zm9.63,6.08c.15,1,.33,2,.53,3l-9.26.07Zm-8.61,4,9.33-.08c.27,1.21.59,2.4,1,3.57l-8.12,4.6A59.07,59.07,0,0,1,1660.11,156.64Zm10.55,4.32c.32,1,.67,1.94,1,2.89l-9.11,1.67Zm-4.25,13a57.17,57.17,0,0,1-3.55-7.6l9.18-1.69c.48,1.14,1,2.25,1.56,3.35Zm7.59-5.18c.49.91,1,1.8,1.55,2.67l-8.68,3.23Zm-1.92,13.52a56.63,56.63,0,0,1-4.81-6.86l8.74-3.26c.67,1,1.38,2,2.12,3Zm6.58-6.41c.63.81,1.3,1.59,2,2.35l-8,4.7Zm-5.48,7.73,8-4.73c.83.9,1.7,1.77,2.6,2.6l-4.73,8.05A59.08,59.08,0,0,1,1673.18,183.6Zm6.6,6.45,4.69-8c.77.68,1.55,1.34,2.36,2Zm.64.57,7.1-6.05c1,.74,2,1.45,3,2.12l-3.26,8.74A57.77,57.77,0,0,1,1680.42,190.62Zm7.62,5.21,3.23-8.68c.87.54,1.76,1.06,2.66,1.54Zm.72.46,5.94-7.19c1.09.56,2.21,1.08,3.35,1.56l-1.69,9.18A57.17,57.17,0,0,1,1688.76,196.29Zm26.66,27.62h-39.87V216h39.87Zm-19.2-15.21,2.36-7.23a58.17,58.17,0,0,0,7.48,1.93l0,1.82,0,2.53.85-2.38.61-1.72a58.68,58.68,0,0,0,8.75.75l.31,1.81.38,2.26Zm19.2-14.26c.51,0,1,0,1.54,0s1,0,1.54,0l-1.54,9.14Zm1.58,14,.38-2.26.3-1.81a58.57,58.57,0,0,0,8.75-.75l.61,1.72.85,2.38,0-2.53V203.4a58,58,0,0,0,7.47-1.93l2.22,6.78Zm20.56-8.63-1.69-9.18c1.13-.48,2.25-1,3.34-1.56l5.94,7.19A57,57,0,0,1,1737.56,199.84Zm2.42-11.15c.9-.48,1.79-1,2.66-1.54l3.24,8.68Zm6.66,6.74-3.26-8.74c1-.67,2-1.38,3-2.12l7.11,6.05A59.45,59.45,0,0,1,1746.64,195.43Zm.44-11.39c.81-.64,1.6-1.3,2.36-2l4.7,8Zm7.73,5.48-4.73-8.05c.9-.83,1.77-1.7,2.61-2.6l8,4.73A58.14,58.14,0,0,1,1754.81,189.52Zm-1.54-11.29c.69-.77,1.35-1.55,2-2.36l6,7Zm8.57,4.05-6-7.1c.74-1,1.44-2,2.11-3l8.75,3.26A57.77,57.77,0,0,1,1761.84,182.28Zm-3.47-10.85c.54-.87,1.05-1.76,1.54-2.67l7.14,5.9Zm9.14,2.51-7.2-5.94c.57-1.1,1.09-2.21,1.57-3.35l9.17,1.69A58.4,58.4,0,0,1,1767.51,173.94Zm-5.3-10.09c.38-.95.73-1.92,1-2.89l8,4.56Zm9.43.88-8.12-4.6q.54-1.75,1-3.57l9.32.08A57.66,57.66,0,0,1,1771.64,164.73Zm-7-9c.21-1,.38-2,.53-3l8.73,3.11Zm9.44-.77-8.79-3.13c.15-1.21.25-2.43.31-3.67l9.2-1.55A58.9,58.9,0,0,1,1774.1,155Zm-8.44-10.75,9.14,1.54-9.14,1.54c0-.51,0-1,0-1.54S1765.67,144.71,1765.66,144.2Zm0-.87c-.06-1.23-.16-2.46-.31-3.67l8.79-3.12a58.76,58.76,0,0,1,.72,8.34Z"/><rect class="cls-4" width="1920" height="400"/></g></g></svg>