<svg xmlns="http://www.w3.org/2000/svg" xmlns:xlink="http://www.w3.org/1999/xlink" viewBox="0 0 205.53 157.7"><defs><style>.cls-1{fill:#70a365;}.cls-11,.cls-13,.cls-14,.cls-17,.cls-2,.cls-5,.cls-8,.cls-9{stroke:#4d3224;}.cls-11,.cls-13,.cls-14,.cls-16,.cls-17,.cls-2,.cls-5,.cls-8,.cls-9{stroke-linecap:round;stroke-linejoin:round;}.cls-3{fill:#675b5a;}.cls-4{fill:#766b6b;}.cls-5{fill:#e5e5e5;}.cls-6{fill:#4d3224;}.cls-17,.cls-7{fill:#fff;}.cls-8{stroke-width:0.92px;}.cls-9{stroke-width:0.93px;}.cls-10{fill:url(#未命名漸層_45);}.cls-11{fill:none;}.cls-12{fill:#5c3c2b;}.cls-13{fill:#c9caca;}.cls-14{fill:#959696;}.cls-15{opacity:0.8;}.cls-16{fill:#727272;stroke:#727272;}.cls-16,.cls-17{stroke-width:0.85px;}</style><radialGradient id="未命名漸層_45" cx="241.45" cy="37.14" r="39.9" gradientTransform="translate(-178.98) scale(1.11 1)" gradientUnits="userSpaceOnUse"><stop offset="0.27"/><stop offset="0.96" stop-color="#424242"/></radialGradient></defs><title>works-beer</title><g id="圖層_2" data-name="圖層 2"><g id="作品"><path class="cls-1" d="M171.76,131.53c6.55.85,14.53,3.06,15.05,8.09.56,5.31-7.62,8.37-14.39,9.75a422.9,422.9,0,0,1-154,2.42c-4.11-.7-8.32-1.51-11.67-3.44S1.16,143.06,2.34,140c1.75-4.5,9.17-5.8,15.31-6.32C68.89,129.29,120.94,124.93,171.76,131.53Z"/><path class="cls-2" d="M184.1,119.82c-6.52-6.33-16.1-13.14-17.53-20v0a36.18,36.18,0,0,0-.14-7.13C165.74,87.76,161.79,80,157,72h0s-6.69-13.35-14.89-27.38S131.35,31.8,121.87,19.46,93.81-3.66,78.16,2.09s-17.34,32-23,52.73l.14.2c0,.13-.1.26-.14.39C52.28,65.6,51.24,73.88,44.13,85.64a77.6,77.6,0,0,0-7,14.34,2.92,2.92,0,0,0-.14.38,1.42,1.42,0,0,1-.07.22c-.12.37-.23.74-.35,1.11-.88,2.52-2.13,3.54-9.13,9.33-8.1,6.72-15.31,11.86-15.5,13.93s1.87,14.13,12.24,14.72c10.12.58,34.68-1,52.46-3.46S103,132.76,103,132.76l7.67,0c8.47,0,11.55,1.93,27,4.68s26.3,5.7,35.47,7.31c4,.69,12.74-3.16,15.41-7.9S190.62,126.14,184.1,119.82Z"/><path class="cls-2" d="M28.23,139.79c-14.48.45-14.38,1-20.89-5s-7.91-22.72-6.13-27.07,10.87-6.12,16.2-2.27c3,2.16,6.41,8,9.27,13.69"/><path class="cls-2" d="M175.25,117.46c7.79-5.4,16.7-6.82,20.46-5.55,5.24,1.78,9.78,7.21,9.29,9.78s-19.27,24.4-31.61,23.12"/><path class="cls-3" d="M10.05,114.53c-6.37.85-7.8,6.32-6,11.85s5.53,10.38,11.06,10.87,7.51-9.88,5.83-16.2S13,114.14,10.05,114.53Z"/><path class="cls-3" d="M184,121.94c-4.51,1.19-10,7.31-11.26,12.35s.1,8.79,3.16,9.18,16.5-6.61,19.76-12.94S190.72,120.16,184,121.94Z"/><path class="cls-3" d="M1.57,114c.4.39,2.5-1.94,3.55-2.82s-.49-4.75-1.13-4.75-2,1.36-2.58,3.78A5.8,5.8,0,0,0,1.57,114Z"/><path class="cls-3" d="M6.65,110.45c-.48-.2-1.37-3.88-1.45-4.37s1.53-1.65,2.34-.87,1.37,4.37.8,5S6.65,110.45,6.65,110.45Z"/><path class="cls-3" d="M9.06,104.75a15.61,15.61,0,0,0,.79,5,1.25,1.25,0,0,0,2.08-.59c.3-1.09.3-3.86-.3-4.45S9.06,104.75,9.06,104.75Z"/><path class="cls-3" d="M13.41,105c-.49.2-.49,4-.3,4.54s4.55,1.88,5,1.68.3-2.17-1.38-4.44S13.41,105,13.41,105Z"/><path class="cls-3" d="M199.32,127.47c1.28-.79,4.24-4.54,4.24-6.12s-.39-1.68-.39-1.68a54.13,54.13,0,0,0-4.45,3.65C197.84,124.65,199.32,127.47,199.32,127.47Z"/><path class="cls-3" d="M198.13,122c1.28-.1,4.54-3,4.54-3.26s0-1.68-1.28-1.88-4,2.37-4.35,3.26S198.13,122,198.13,122Z"/><path class="cls-3" d="M200,116c.53-1.33-1.58-1.87-1.88-1.78a19.38,19.38,0,0,0-3.36,4c-.2.69,1,1.77,2.08,1A15.73,15.73,0,0,0,200,116Z"/><path class="cls-3" d="M197.24,113.84c0-.69-2.17-1.38-4.05-1.28s-5.43,2.86-5.73,3.55,2.87.89,4.55,1.38S197.24,113.84,197.24,113.84Z"/><path class="cls-4" d="M16.18,135.47c-4-.32-9.59-13.14-9-16.49s4.24-4.35,7.8-3.16,4.94,6,5.34,8.89S19.83,135.77,16.18,135.47Z"/><path class="cls-4" d="M3.53,107.81c-1.68,2.18-.89,3.86-.2,4a2,2,0,0,0,1.88-2.57C4.82,107.42,3.53,107.81,3.53,107.81Z"/><path class="cls-4" d="M6.89,105.74c-1-.22.1,3.56.79,4.05S8.18,106,6.89,105.74Z"/><path class="cls-4" d="M10.35,105.34c-.89,1.68-.69,3.86.49,3.76s1.09-3.46.5-4S10.35,105.34,10.35,105.34Z"/><path class="cls-4" d="M14.5,105.94c-1.42.51-.4,3.16.29,3.55s2.18,1,2.28.3S15.58,105.54,14.5,105.94Z"/><path class="cls-4" d="M194.57,125.59c-1.48-3.35-7-3.85-12.34-1.67s-9.49,11.85-9,14.61,9.58-1.28,15.31-5.53S194.57,125.59,194.57,125.59Z"/><path class="cls-4" d="M195.36,113.15a7.18,7.18,0,0,0-5.73,1.78c-1.28,1.08-1.18,1.28-.88,1.48a6,6,0,0,0,3.85-.3A13.17,13.17,0,0,0,195.36,113.15Z"/><path class="cls-4" d="M198.43,114.33a22.85,22.85,0,0,0-3.07,3.76c-.09.39.4.59,1.88-.89A3.37,3.37,0,0,0,198.43,114.33Z"/><path class="cls-4" d="M202.28,118.19c.16-1-1-1-2.08-.5s-2.86,2.18-2.66,2.77S202.18,118.78,202.28,118.19Z"/><path class="cls-4" d="M203,120.36c-.26-.66-3.65,3.06-3.85,3.56s-.4,1.87.79,1.67S203.37,121.35,203,120.36Z"/><path class="cls-5" d="M68.14,52s6.77,18,23.51,20.12c0,0,16,1.86,24.59-21.36,0,0,2.49-4,5,0,0,0-7.13,30.95-29.58,30.95,0,0-14.61,2.48-28.5-29.4,0,0-1.43-3.09,2.49-2.47C65.64,49.79,67.78,50.71,68.14,52Z"/><path class="cls-2" d="M61.93,18.9c-1.84,8.34-3.42,17.64-2.7,22.18,1.25,7.92,9.18,14.16,18.5,18.75s22.44,1.72,28.83-4.92,8.32-11,9.33-13.67"/><path class="cls-2" d="M94.76,17.12c5.41-.85,5.4-6.7,9.15-8.35s9.91,3.28,9.17,10.22-1.73,8-4.59,8"/><path class="cls-2" d="M73.74,17.1c-2.36-2.19-2.9-5.81-5.65-7.17-3.67-1.82-10.05,2.84-9.62,9.8s1.39,8,4.24,8.21"/><path class="cls-6" d="M76.89,44.41c3.77.45,4.34-2.39,4.34-2.39a5,5,0,0,0-6.56-3.14s-2.71.65-3.1,2.64c0,0-.33,2.2,4.75,2.9"/><path class="cls-7" d="M76.82,44c3.24.38,3.72-2.05,3.72-2.05a4.29,4.29,0,0,0-5.62-2.69s-2.32.55-2.66,2.25c0,0-.59,1.59,3.23,2.27"/><ellipse class="cls-6" cx="76.91" cy="41.91" rx="2.55" ry="2.35"/><circle class="cls-7" cx="75.08" cy="41.21" r="0.79"/><path class="cls-6" d="M97.59,44.66c-4,.47-4.58-2.52-4.58-2.52a5.27,5.27,0,0,1,6.91-3.3s2.85.68,3.27,2.77c0,0,.34,2.32-5,3.06"/><path class="cls-7" d="M97.65,44.21c-3.4.4-3.92-2.16-3.92-2.16a4.53,4.53,0,0,1,5.92-2.83s2.45.59,2.81,2.38c0,0,.62,1.67-3.4,2.38"/><ellipse class="cls-6" cx="97.56" cy="42.02" rx="2.69" ry="2.47"/><circle class="cls-7" cx="95.68" cy="41.26" r="0.83"/><path class="cls-6" d="M65.15,25.58c-.62.43-1.32.37-2.26-.84,0,0-2.49-6,0-8,.64-.52,1.87-.17,2.48.18,1,.56,1.14,1.56,1.72,2.4.4.59,1.74,1.56,1.7,2.33S65.8,25.13,65.15,25.58Z"/><path class="cls-6" d="M106.91,25.05c.7.49,1.49.41,2.55-.95,0,0,2.83-6.78,0-9.06-.73-.58-2.12-.19-2.81.2-1.1.64-1.3,1.77-2,2.73-.45.66-2,1.76-1.93,2.64S106.17,24.54,106.91,25.05Z"/><path class="cls-8" d="M141.34,52.79c5.8,9.62,4.76,25.08,0,40.1s-14.18,41.73-14.18,41.73-.63,2.89-11.42,2.53-11.9-3.09-13-5.65c-1.9-4.32,1.37-13.06,2.25-17.35,2.11-10.28,4.87-20.42,7.6-30.57C115,74.42,117.3,65,122.77,56.88"/><path class="cls-8" d="M102.08,134.9c.38-4.79,3.28-5.83,12.85-5s14.85,2.48,15.06,5.35-1.65,4.46-12.62,4.2S101.89,137.28,102.08,134.9Z"/><path class="cls-9" d="M62.51,59.48c-6.17,12.44-10,16-8.73,37S68,137,71.62,139.36s15.76.6,16.93-3.19S88.6,119.92,82,99c0,0-1.63-6.54-.78-9.82"/><path class="cls-9" d="M63.58,135.93c.38-4.87,3.28-5.93,12.85-5.12s14.85,2.52,15.06,5.44-1.65,4.53-12.62,4.26S63.39,138.36,63.58,135.93Z"/><path class="cls-10" d="M74.8,51.17s2.48,8.63,3.74,11,7.58,2.76,11.31,2.27,6.28-2.79,8.21-6.93a73.42,73.42,0,0,0,3-7.31,16.57,16.57,0,0,0-4.46-4.76,13.93,13.93,0,0,0-9.19-2.62,14.77,14.77,0,0,0-8.77,3.55A15.28,15.28,0,0,0,74.8,51.17Z"/><path class="cls-11" d="M74.8,51.17s.85,3,1.81,5.89a40.31,40.31,0,0,0,1.93,5.07c1.26,2.33,7.58,2.76,11.31,2.27s6.28-2.79,8.21-6.93l1.83-4.23"/><path class="cls-3" d="M78.18,59.47s3.47-2,9.28,2c0,0-.14,2.29-3.25,2.42C84.21,63.84,78.69,64.15,78.18,59.47Z"/><path class="cls-3" d="M85.53,60.34s5.7-2.3,10.76-.89c-.55.09.16,1.81-4.19,3.78C88.4,64.9,85.88,63.5,85.53,60.34Z"/><path class="cls-6" d="M86.4,62.83c-1.56.12-4.67-1.77-5-3.46s3.68-2.54,6.27-2.22,3.08,1.16,3.21,1.49S89.08,62.64,86.4,62.83Z"/><path class="cls-12" d="M90.11,58.7c-.12-.67-3.51-1.37-5.4-1s-2.28,1.13-2.28,1.13.24.87,3,1A8.58,8.58,0,0,0,90.11,58.7Z"/><path class="cls-13" d="M125.33,140.15H71.52A1.15,1.15,0,0,1,70.37,139l-4.58-28.63c0-.63.52-2.29,1.15-2.29h61.83c.63,0,1.14,1.66,1.14,2.29L126.48,139A1.15,1.15,0,0,1,125.33,140.15Z"/><path class="cls-14" d="M125.33,143.59H71.52a1.16,1.16,0,0,1-1.15-1.15l-4.58-30.91a1.16,1.16,0,0,1,1.15-1.15h61.83a1.15,1.15,0,0,1,1.14,1.15l-3.43,30.91A1.16,1.16,0,0,1,125.33,143.59Z"/><rect class="cls-14" x="69.8" y="143.16" width="57.25" height="2.29" rx="0.5" ry="0.5"/><g class="cls-15"><path class="cls-16" d="M94.8,128.94a4.11,4.11,0,0,0,.21,1.3c.7,2,2.9,2.74,4.83,2.74,2.66,0,5-1.59,5-4.26a4.81,4.81,0,0,0-1.41-3.41c-.87-.87-2.08-.56-3.41-.56-1,0-2.33-.35-3.12.21A5.19,5.19,0,0,0,94.8,128.94Z"/><path class="cls-16" d="M98.27,124.06a2.71,2.71,0,0,0,2.21.71,3,3,0,0,0-.12-2.42c-.69-.88-2.36-.77-2.36-.77A3.41,3.41,0,0,0,98.27,124.06Z"/></g><path class="cls-17" d="M94.3,128.44a4.11,4.11,0,0,0,.21,1.3c.7,2,2.9,2.74,4.83,2.74,2.66,0,5-1.59,5-4.26a4.81,4.81,0,0,0-1.41-3.41c-.87-.87-2.08-.56-3.41-.56-1,0-2.33-.35-3.12.21A5.19,5.19,0,0,0,94.3,128.44Z"/><path class="cls-17" d="M97.77,123.56a2.71,2.71,0,0,0,2.21.71,3,3,0,0,0-.12-2.42c-.69-.88-2.36-.77-2.36-.77A3.41,3.41,0,0,0,97.77,123.56Z"/></g></g></svg>