<svg xmlns="http://www.w3.org/2000/svg" viewBox="0 0 82.11 142.69"><defs><style>.cls-1,.cls-17{fill:#f9dbc5;}.cls-1,.cls-10,.cls-12,.cls-14,.cls-15,.cls-17,.cls-2,.cls-4,.cls-5,.cls-6,.cls-8,.cls-9{stroke:#4d3224;}.cls-1,.cls-10,.cls-12,.cls-13,.cls-14,.cls-15,.cls-17,.cls-2,.cls-4,.cls-5,.cls-6,.cls-8,.cls-9{stroke-linecap:round;stroke-linejoin:round;}.cls-1,.cls-10,.cls-15,.cls-2,.cls-5,.cls-6,.cls-8,.cls-9{stroke-width:1.5px;}.cls-2{fill:#b49788;}.cls-3{fill:#4d3224;}.cls-4,.cls-8{fill:#262626;}.cls-4{stroke-width:1.54px;}.cls-5{fill:#664331;}.cls-6{fill:#141414;}.cls-7{fill:#1b1c20;}.cls-9{fill:#fff;}.cls-10{fill:#d8d2d3;}.cls-11{fill:#aaa;}.cls-12,.cls-14{fill:none;}.cls-13{fill:#fff7f4;stroke:#a37b68;}.cls-14{stroke-width:0.75px;}.cls-15{fill:#d1ae9c;}.cls-16{fill:#4c4948;opacity:0.38;}</style></defs><title>works-my</title><g id="圖層_2" data-name="圖層 2"><g id="作品"><path class="cls-1" d="M62.4,70.72c.76.18,1.59.36,2.5.54,3.21,1.52,6.84,1.31,7.74.23a.86.86,0,0,0,.21-.44,2.12,2.12,0,0,0,0-.53.83.83,0,0,0,.25-1.36c.56-.33.55-1.17.09-1.23,0,0,.42-.08.38-.75,0-.9-.47-.5-2.52-.43h-.53a1.3,1.3,0,0,1,.56-.82c1-.68.67-2.7,0-1.53-.27.51-2.35,1.11-3,1.71s-1.82,1.84-2.4,1.74a5.78,5.78,0,0,1-1.91-.46Z"/><path class="cls-2" d="M64.73,66.88c-1.58-.69-11.5-8-12.19-8.4S44.05,40.27,39.89,38.24s-8.36-.27-8.15,4S47.62,63.72,48.07,64c3.47,2.07,11.67,6.75,15.22,7.68Z"/><path class="cls-3" d="M46.73,142.64a.6.6,0,0,0,.5-.4L70.94,70.92a.58.58,0,0,0-.39-.74.61.61,0,0,0-.76.38l-23.7,71.32a.58.58,0,0,0,.64.76Z"/><path class="cls-4" d="M69.69,70.23l2.22-6.49c-.27-.18-.42-.37-.38-.5s1-.08,1.67.17,1.09.61,1,.82-.27.18-.59.13L71.4,70.85c.27.18.42.38.38.5s-1,.08-1.67-.16-1.09-.62-1-.83S69.37,70.19,69.69,70.23Z"/><path class="cls-3" d="M46.3,135.82c-.17.5.66,1.22,1.85,1.6s2.3.29,2.47-.22S50,136,48.77,135.59,46.47,135.31,46.3,135.82Z"/><path class="cls-3" d="M46.13,136.36c-.17.51.65,1.23,1.85,1.61s2.3.28,2.47-.23-.66-1.22-1.85-1.61S46.3,135.86,46.13,136.36Z"/><path class="cls-5" d="M30.06,13s-10.15,3.88-6.69,14.42c0,0,1.46,5.11-.73,5.56,0,0,10,0,8.62-14.15"/><path class="cls-1" d="M8.62,133.71C5.55,135,4.67,131,4.23,130c-.09-.24-1.06,1.22-1.08,1A1,1,0,0,1,4,129.91c3.83-.75,11.47-16,15-19.23,3,2.49.41,1,5.61,5.38C16.08,125.05,7.87,130,9.49,133Z"/><path class="cls-6" d="M13.43,128.15S8,124.05,7.86,123l4.75-7.1c.48-1.34,7.35-7.46,8.54-8.34,3.53-2.6,2.69-13.51,4.65-23.32,1.92-9.62,12.32-5.56,13.69-4.16,1.84,1.88-.9,9-1.48,10.89a104.75,104.75,0,0,1-5.49,14c-1.44,3.17-2.62,6.65-4.86,9.34C23.44,119.35,18.26,123.72,13.43,128.15Z"/><path class="cls-7" d="M34,82.77c-.25.42-6.86,25.85-6.86,25.85L11.61,124.81l15-16.29L33.16,82Z"/><path class="cls-1" d="M71.17,133.9c0,3.45-3.9,2.76-4.94,2.81s-1.4-.53-1.43-.89c.82-3.48-7.41-15-9-19.86,3.31-1.9,0-1,5.81-4.37,4.72,11.73,5.93,21.58,9.23,21.2Z"/><path class="cls-8" d="M54.37,115.78C52.78,111.93,51,108,47.9,105.47,34.14,94.09,35.09,96,28.51,87.35a13,13,0,0,1-2.14-11.46c1.32,0,12.74,2.87,15.44,1.54C45,80.72,49.54,87,60.29,104.28c.39,1,7.86,18.54,8.29,23.5l-6.39,2.73c-1.47.6-5.45-9.17-5.91-10.18C55.62,118.88,55,117.33,54.37,115.78Z"/><polygon class="cls-7" points="32.72 78.8 56.2 107.22 64.65 128.07 63.73 128.39 55.68 107.52 31.63 78.59 32.72 78.8"/><path class="cls-9" d="M70.88,132.79a3.22,3.22,0,0,1-2.14-1.39l-4.09,2.65c-.15.67.08.61.15,1.77,0,.36.46.84,1.43.89s4.89.64,4.94-2.81Z"/><path class="cls-10" d="M74.81,139c-2.26.6-2.57-.56-4.26.59S66,142,65.38,141.43s-.07-1.22-.3-1.74a17.09,17.09,0,0,1-.47-3.08,0,0,0,0,1,0,0,1.87,1.87,0,0,1,.12-.89c1.32.2,4.89-1,4.84-3.51.48-.32,1.55,1.17,3.45,1.69a22.84,22.84,0,0,0,3.33.34c1,.09,3.05-.8,4-.34C83.63,135.78,76.32,138.59,74.81,139Z"/><path class="cls-11" d="M75.66,134.67c-2.17,0-3-.13-4.69-1.3-.44.65-.25,1.65.55,1,.08-.06.28,0,.28,0-.58,1.24.49.93.91.22.07-.12.3-.06.36,0,0,.37-.43,1.08.35.92.48-.1.35-1,1.12-.7-.46,1,.39.93.56.81a9.51,9.51,0,0,0,.67-.92Z"/><path class="cls-9" d="M65,139.51c4.35.74,4.65-1.21,9.28-1,2.34.09,4.59-1.67,5.49-2.68,1.12-1.28.78-1.62.41-2,.91-.07,1.35,1.79,1.1,2.46-.42,1.09-2.68,3.1-4.94,3.7a58.8,58.8,0,0,0-6.26,1.71c-1.24.49-4.06.31-4.71-.22S65,140,65,139.51Z"/><path class="cls-9" d="M9.77,132.09a2.82,2.82,0,0,1,.19-2.24L6.2,127.76c-.59.17-.45.32-1.32.86-.26.17-.46.7-.09,1.48s1.53,4.07,4.23,2.68Z"/><path class="cls-10" d="M6.57,137.73c-1.41-1.51-.63-2.24-2.23-3.07S.62,132.13.76,131.41s.92-.57,1.23-1a15.08,15.08,0,0,1,2.2-1.64s0,0,0,0a1.69,1.69,0,0,1,.74-.27c.4,1.11,2.8,3.39,4.75,2.31.45.24-.26,1.69.11,3.38a20.39,20.39,0,0,0,1.13,2.73c.34.83,1.89,2,1.93,3C12.74,143.25,7.51,138.73,6.57,137.73Z"/><path class="cls-11" d="M10.29,136.59a5.71,5.71,0,0,1-.93-4.19c-.69-.07-1.4.49-.53.83.07,0,.09.24.09.24-1.21.06-.53.76.2.79.12,0,.17.22.13.29-.31.12-1,.11-.57.66.28.33,1-.16,1,.58-1,.07-.57.69-.41.77a7.31,7.31,0,0,0,1,.14A.4.4,0,0,0,10.29,136.59Z"/><path class="cls-9" d="M2.1,130.32C3.33,134,5,133.43,6.75,137.11a7,7,0,0,0,4.37,3.16c1.46.34,1.58-.07,1.75-.53.43.68-.83,1.8-1.46,1.88a7.57,7.57,0,0,1-4.93-2.3,53.13,53.13,0,0,0-3.94-4.16A6.41,6.41,0,0,1,.76,131.4C.88,130.8,1.75,130.53,2.1,130.32Z"/><path class="cls-5" d="M50.24,30.83a3,3,0,0,0,3.62,2.32C50.76,31,53,20,53,20,50.85,7.63,46,5.65,46,5.65S34,1.36,29.57,13.08c0,0-6.38,11.62,5.4,13.27"/><polygon class="cls-1" points="32.97 35.73 39.67 39.17 42.11 32.87 43.66 28.86 37.49 23.58 36.1 30.82 32.97 35.73"/><path class="cls-1" d="M45.09,16.61l7.53-3.45c.8,1.05.91,5.11.89,8.09,0,1.21,1,1.52,1.23,2.61.27,1.51-1.3,1.74-1.23,3,.17,3.55-.17,5.15-3.77,5.86-2.88.57-5.91-.78-8.87-3"/><path class="cls-5" d="M52.32,10.62s5.69,5,.38,6.27a9.68,9.68,0,0,1-9.57-.75"/><path class="cls-12" d="M51,11.55s2.27,3.55-.41,6"/><ellipse class="cls-13" cx="50.41" cy="22.06" rx="3.1" ry="3.03" transform="translate(-0.79 1.91) rotate(-2.15)"/><path class="cls-12" d="M30.73,12.11s1.2,4.71,3.9,5.11"/><path class="cls-12" d="M30.4,13.48s-.79,3.89,1.26,5.34"/><path class="cls-3" d="M50.92,29.1a2.21,2.21,0,0,0,2.25-.64.42.42,0,0,0,.06-.45c-.06-.12-.2-.12-.3,0s-1,1.15-2.77.06c-.1-.06-.24,0-.3.18a.34.34,0,0,0,.06.41A3.25,3.25,0,0,0,50.92,29.1Z"/><ellipse class="cls-3" cx="50.91" cy="22.41" rx="0.69" ry="1" transform="translate(26.36 72.31) rotate(-87.56)"/><path class="cls-14" d="M52.26,21.47a2.76,2.76,0,0,0-3.88-.62"/><path class="cls-1" d="M39.35,24.51a2.45,2.45,0,0,1-2.57-2.28,2.45,2.45,0,0,1,1.77-2.95,2,2,0,0,1,1.65.53"/><path class="cls-15" d="M32.93,33a8.9,8.9,0,0,0-6.4,8.16s-.14,4.34,1.19,5.41"/><path class="cls-15" d="M29.68,38.39l-.12.18h0c-1.53,0-.26,10.32-.17,11.24.52,5.73-.63,10.89-2.31,16.32-1.25,4-2.29,8.37-4.3,12.1,7.35,1.49,8.42.78,15.09.09,3.25-.33,8,3.74,9.11,1.37-1.86-2.71,1.1-18.44,1.1-18.44L48.91,55a24.61,24.61,0,0,0-2.34-12.58c-1-2-.33-6.71-.33-6.71C42.15,33.39,32.93,33,32.93,33"/><line class="cls-13" x1="38.55" y1="19.28" x2="47.24" y2="21.42"/><path class="cls-5" d="M41.57,15.24s-3,12.25,3.78,20.25c0,0-3.48-7.33.63-17l2.43-5.41"/><line class="cls-13" x1="53.5" y1="21.94" x2="54.54" y2="21.52"/><path class="cls-1" d="M19.85,83.16c.3-.62,0-1.13-.49-3.09.58.8.61.77,1.25.75.41,0,.43-.49,0-1.06-.63-.83-1.56-1.23-1.55-3.34a8.2,8.2,0,0,1,.87-2.93l-4.18-.78c-.09,3.31-1.4,5.13-1.37,6.64,0,2.67.48,5.13,1.08,5.55.79.56.93-.16.93-.16,0-.19.12.06.38.07a.72.72,0,0,0,1-.76c.09,0,.4.42,1,.09s.11-.69.4-.68C19.25,83.46,19.73,83.41,19.85,83.16Z"/><path class="cls-15" d="M38.1,50.15a130.41,130.41,0,0,1-10.85,11c-1.1,1.77-7,13.43-7.29,15.64l-6-2.42c.78-3,6.43-13.89,8.42-17.2,1.47-2.44,6.86-12.69,12.13-17.74"/><path class="cls-8" d="M28.54,13.32c.18,2,2-.24,10.37-.61.92,0,7.66.44,8.47.5,6.24,2.73,12.19-.29,11.32-1.85C58,10,52.62,9.23,52,8.75A10.29,10.29,0,0,0,47.27,2.3a33.77,33.77,0,0,0-7.14-.7C40,.38,37.7.49,38,1.83,31.73,2.73,29.2,4.52,28.54,13.32Z"/><path class="cls-16" d="M31.65,4.65a24.78,24.78,0,0,0-3.13,9.09l4.71-.87s11.21-1.34,14.15.34c0,0,6.8,1.64,9.68-.38C59.76,10.94,53,9.75,52,8.76c2.26,2.22-7.9,2.91-8.29,2.91-3.5,0-7.32-.14-10.66-1.32C31,9.62,30.21,7,31.65,4.65Z"/><path class="cls-17" d="M71.34,70.18c-1,0-3.22-.1-2.2,1.24.34.44,3.19.76,3.64,0a.81.81,0,0,0,.14-.76,1.19,1.19,0,0,0,.55-1.89c.85-.39,1-1.58.3-1.73,0,0,.63-.07.66-1,.06-1.29-.6-.87-3.53-1.07-.79,0-.89.53-.91,1s.41.5,1,.67c-.68,0-1.27-.09-1.38.71s1,.87,1.67,1.07c-1.14-.08-2.22.07-2.26.77C68.94,70.22,70.68,70.13,71.34,70.18Z"/></g></g></svg>