<svg xmlns="http://www.w3.org/2000/svg" viewBox="0 0 1921 300"><defs><style>.cls-1,.cls-14,.cls-21{fill:#94c28b;}.cls-17,.cls-18,.cls-2,.cls-20,.cls-24,.cls-6{fill:none;}.cls-14,.cls-17,.cls-18,.cls-19,.cls-2,.cls-20,.cls-21,.cls-6,.cls-8{stroke:#4d3224;}.cls-14,.cls-17,.cls-18,.cls-2,.cls-20,.cls-21,.cls-6{stroke-linecap:round;stroke-linejoin:round;}.cls-2{stroke-width:2px;}.cls-3{fill:#50a33f;}.cls-4{fill:#479137;}.cls-5{fill:#4d3224;}.cls-6{stroke-width:1.51px;}.cls-7{fill:#5ab747;}.cls-19,.cls-8{fill:#7bb52d;stroke-miterlimit:10;}.cls-8{stroke-width:1.09px;}.cls-9{fill:#72a72a;}.cls-10{fill:#8acc2b;}.cls-11{fill:#68ad59;}.cls-12{fill:#60a053;}.cls-13{fill:#74c163;}.cls-14{stroke-width:1.54px;}.cls-15{fill:#f5ebb2;}.cls-16{fill:#d5b68d;}.cls-17{stroke-width:1.5px;}.cls-18{stroke-width:1.42px;}.cls-19{stroke-width:1.07px;}.cls-20{stroke-width:1.13px;}.cls-21{stroke-width:1.5px;}.cls-22{fill:#f5e379;}.cls-23{fill:#d59b50;}</style></defs><title>works-mountain</title><g id="圖層_2" data-name="圖層 2"><g id="作品"><path class="cls-1" d="M1921,299.86V284.65c-252.33-90.17-671.09-96.1-968.26-97.3C608.27,186,299.89,207.39,1,284.65v15.21"/><path class="cls-2" d="M1919,284.65c-252.33-90.17-669.09-96.1-966.26-97.3C608.27,186,299.89,207.39,1,284.65"/><path class="cls-3" d="M1461.81,171.71c-14.81,5.7-18.59.85-24.3-4.42a15.54,15.54,0,0,1-11,7.38c-13.55,1.73-32.42-31.91-8.09-43.1-4-20.29,29.71-23.51,38.52-15.63,1.61,1.44,6.77,6.52,5.71,8.67-.61,1.23,7.16-2.06,12.27,17C1478.79,158.08,1466.27,170,1461.81,171.71Z"/><path class="cls-4" d="M1461.81,171.71c-14.81,5.7-18.59.85-24.3-4.42a15.54,15.54,0,0,1-11,7.38c-10.36,1.32-23.85-18-18.72-32.25.23,16.32,26.74,27.32,30.09,13.45,2.36,12.32,28.25,8.71,25.36-3.35,5.69.09,9.72-5.06,11.68-11,.12.53.26,1.08.4,1.64C1478.51,156.33,1467.31,169.6,1461.81,171.71Z"/><path class="cls-5" d="M1428.38,171.38s11.78,15.08,11.78,33.07c0,13.69-.25,4.14-.37,8,0,1.2-3.06,1.57-3.06,2.74s11.43,1.33,11.48-.78c0-.47-2.46-1.39-2.47-2-.18-9-3-21-.62-28.62,2.25-7.3,14.37-14.39,13.67-14.13,0,0-1-1.18-3.79.39s-10.81,9.4-10.81,9.4,5.89-16.75,6.82-19.54-1.24-2.79-1.24-2.79L1442,177.27l-5-18.05s-2.54-1.29-1.79,1.31,5.89,16.44,4.34,17.06-7.44-6.21-9.93-6.83S1428.38,171.38,1428.38,171.38Z"/><path class="cls-6" d="M1461.81,171.71c-14.81,5.7-18.59.85-24.3-4.42a15.54,15.54,0,0,1-11,7.38c-13.55,1.73-32.42-31.91-8.09-43.1-4-20.29,29.71-23.51,38.52-15.63,1.61,1.44,6.77,6.52,5.71,8.67-.61,1.23,7.16-2.06,12.27,17C1478.79,158.08,1466.27,170,1461.81,171.71Z"/><path class="cls-7" d="M1438.21,123.77a4.46,4.46,0,0,0-1,1,4.76,4.76,0,0,0-.92,2.5,6.69,6.69,0,0,0,.26,2.19,2.11,2.11,0,0,0,.88,1.26c.43.23,1,0,1.56-.61a4.71,4.71,0,0,0,.86-2.75,4.4,4.4,0,0,0-.86-2.54A11.63,11.63,0,0,0,1438.21,123.77Z"/><path class="cls-7" d="M1432.71,124.24a4.71,4.71,0,0,0-.52,3.36c.51,1.6,1.57,2.69,2.37,2.43s1-1.77.53-3.38A4.69,4.69,0,0,0,1432.71,124.24Z"/><path class="cls-7" d="M1427.1,127.23a4.6,4.6,0,0,0,0,1.21,3.9,3.9,0,0,0,1,2.18c1.19,1.18,2.43,1.71,3.2,1.24s.36-2.17-.94-3.48a4.2,4.2,0,0,0-2.11-1A7.65,7.65,0,0,0,1427.1,127.23Z"/><path class="cls-7" d="M1425,132.84a4.06,4.06,0,0,0,2,2c1.23.51,2.47.43,2.78-.22s-.53-1.61-1.88-2.18A3.91,3.91,0,0,0,1425,132.84Z"/><path class="cls-7" d="M1444,129a2.56,2.56,0,0,0-1.78.39c-.71.47-1.09,1.17-.88,1.58s1,.3,1.88-.26A2.55,2.55,0,0,0,1444,129Z"/><path class="cls-7" d="M1459.27,145.37a2.67,2.67,0,0,0-.81.34,3.08,3.08,0,0,0-1.17,1.25,4.11,4.11,0,0,0-.38,1.35,1.29,1.29,0,0,0,.2,1c.2.24.59.28,1.07,0a3.18,3.18,0,0,0,1.19-1.41,2.78,2.78,0,0,0,.12-1.71A8,8,0,0,0,1459.27,145.37Z"/><path class="cls-7" d="M1451.87,144.65a2.83,2.83,0,0,0-.27.72,2.47,2.47,0,0,0,.05,1.54c.41,1,1,1.61,1.58,1.52s.75-1.19.3-2.28a2.61,2.61,0,0,0-1-1.12A4.56,4.56,0,0,0,1451.87,144.65Z"/><path class="cls-7" d="M1449.24,147.43a2.64,2.64,0,0,0,.68,1.67c.59.6,1.35.87,1.69.56s.09-1.08-.57-1.75A2.51,2.51,0,0,0,1449.24,147.43Z"/><path class="cls-7" d="M1461.4,149.89a1.68,1.68,0,0,0-1.15-.21c-.53.1-.93.42-.9.71s.54.44,1.16.31A1.6,1.6,0,0,0,1461.4,149.89Z"/><path class="cls-8" d="M1371.28,200.68c-9.78.23-13.26-5.27-14.15-11.93-1.87-14,8.59-49.6,12.42-49.75,3.13-.11,13,26.6,14.89,38.95C1385.87,186.89,1384.91,200.39,1371.28,200.68Z"/><path class="cls-9" d="M1371.28,200.68c-9.78.23-13.26-5.27-14.15-11.93a9.08,9.08,0,0,0,8.27,4.71c9.84-.17,15.24-12.05,17.44-22.84a74.88,74.88,0,0,1,1.6,7.33C1385.87,186.89,1384.91,200.39,1371.28,200.68Z"/><path class="cls-5" d="M1363.83,194.13c-.34.72,5.85,2.69,5.85,11.92s.46,14.57.46,14.57-4.07,1.23-4,1.71a12.15,12.15,0,0,0,3-.06c3.69-.34,5.7.33,6.1-.34s-3-.58-3.12-1.41c-.56-3.46-1.15-15.74.12-19.88s6-6.65,5.21-7-5.68,4.75-5.68,4.75,3.27-10.72,2.87-10.92-4,9.81-4,9.81-2.94-9-3.5-8.6,3,8.44,2.23,8.75S1364.17,193.4,1363.83,194.13Z"/><path class="cls-6" d="M1371.28,200.68c-9.78.23-13.26-5.27-14.15-11.93-1.87-14,8.59-49.6,12.42-49.75,3.13-.11,13,26.6,14.89,38.95C1385.87,186.89,1384.91,200.39,1371.28,200.68Z"/><path class="cls-10" d="M1365,173.26a2.86,2.86,0,0,1,.69.59,3.06,3.06,0,0,1,.77,1.58,4.29,4.29,0,0,1,0,1.45,1.37,1.37,0,0,1-.5.89c-.26.17-.67.1-1.06-.3a3.2,3.2,0,0,1-.75-1.75,2.86,2.86,0,0,1,.4-1.72A7.55,7.55,0,0,1,1365,173.26Z"/><path class="cls-10" d="M1368.67,173.2a3.12,3.12,0,0,1,.56,2.18c-.23,1.08-.85,1.86-1.39,1.74s-.8-1.09-.57-2.17A3.13,3.13,0,0,1,1368.67,173.2Z"/><path class="cls-10" d="M1372.55,174.79a3,3,0,0,1,0,.8,2.53,2.53,0,0,1-.52,1.5c-.7.85-1.48,1.28-2,1s-.37-1.4.39-2.34a2.74,2.74,0,0,1,1.32-.8A4.43,4.43,0,0,1,1372.55,174.79Z"/><path class="cls-10" d="M1374.3,178.34a2.71,2.71,0,0,1-1.17,1.44c-.77.42-1.59.45-1.84,0s.24-1.09,1.09-1.55A2.55,2.55,0,0,1,1374.3,178.34Z"/><path class="cls-10" d="M1361.55,177.09a1.7,1.7,0,0,1,1.2.13c.49.27.79.7.67,1s-.67.27-1.24,0A1.65,1.65,0,0,1,1361.55,177.09Z"/><path class="cls-10" d="M1370.5,153.12a2.72,2.72,0,0,1,.49.77,3.15,3.15,0,0,1,.27,1.74,4.27,4.27,0,0,1-.46,1.38,1.41,1.41,0,0,1-.73.7c-.31.09-.67-.1-.93-.6a3.09,3.09,0,0,1-.19-1.89,2.78,2.78,0,0,1,.89-1.53A7.33,7.33,0,0,1,1370.5,153.12Z"/><path class="cls-10" d="M1374,154.15a3.17,3.17,0,0,1-.11,2.25c-.54,1-1.37,1.52-1.85,1.25s-.44-1.28.1-2.25A3.13,3.13,0,0,1,1374,154.15Z"/><path class="cls-10" d="M1366.05,155.74a1.7,1.7,0,0,1,1.1.49c.39.4.55.9.35,1.13s-.71.06-1.17-.41A1.69,1.69,0,0,1,1366.05,155.74Z"/><path class="cls-11" d="M1499.26,197.22c-19.2,0-34.8-22.78-35.3-51.23,0-32.25,16.72-53.94,35.3-53.94,16.48,0,30.33,16.83,34.23,39.57C1539.15,165,1522.25,197.22,1499.26,197.22Z"/><path class="cls-12" d="M1517.17,189.33c1.7-1.7,10.51-12.72,11.06-15.84-1.56,1.5-12.26-2.5-8-6.9-7.35,3.19-14.59-7.1-14.1-7.15-3.77,10.62-14.6,5.42-14.37,6.64,1.45,7.56-8.44,8.29-11.75,5.17,1.45,9,1.84,12-7.35,9,2.54,3.09,7.15,10.42,10.81,11.06C1483.49,191.34,1501.59,204.91,1517.17,189.33Z"/><path class="cls-5" d="M1484.08,184.54s14,5,14,23.12-.37,26.87-.37,26.87l-6.62,5.43s-3.21,1.65,5.61.4,14.71,2.65,15.81,1.4-7.2-4-7.46-6c-1-8-4-30.63-1.1-38.76s15.9-12.58,15.9-12.58.36-3-3.47-1.34-13.53,9.55-13.53,9.55,7.89-17.15,9-20-2.39-2.54-2.39-2.54l-9.18,20.31s-3.64-14.38-5.51-17.24-2.57.37-2.57.37,7,16.56,5.14,17.18-11.38-10-14.32-10.6S1484.08,184.54,1484.08,184.54Z"/><path class="cls-6" d="M1499.26,197.22c-19.2,0-34.8-22.78-35.3-51.23,0-32.25,16.72-53.94,35.3-53.94,16.48,0,30.33,16.83,34.23,39.57C1539.15,165,1522.25,197.22,1499.26,197.22Z"/><path class="cls-13" d="M1512.5,116.36a4.58,4.58,0,0,0-1.43.35,5.09,5.09,0,0,0-2.26,1.73,7,7,0,0,0-1,2.12,2.19,2.19,0,0,0,.08,1.64c.25.45.89.63,1.75.34a5.09,5.09,0,0,0,2.34-2,4.65,4.65,0,0,0,.67-2.78C1512.6,117,1512.5,116.36,1512.5,116.36Z"/><path class="cls-13" d="M1507.27,113.66a5.07,5.07,0,0,0-2.39,2.73c-.45,1.74-.11,3.32.76,3.54s1.94-1,2.39-2.75A5,5,0,0,0,1507.27,113.66Z"/><path class="cls-13" d="M1500.5,113.16a5.33,5.33,0,0,0-.65,1.11,4.22,4.22,0,0,0-.33,2.54c.4,1.75,1.22,2.93,2.19,2.94s1.55-1.75,1.12-3.67a4.28,4.28,0,0,0-1.32-2.11A7.88,7.88,0,0,0,1500.5,113.16Z"/><path class="cls-13" d="M1495.41,117a4.32,4.32,0,0,0,.66,2.93c.81,1.16,2,1.8,2.63,1.39s.44-1.75-.46-3A4.19,4.19,0,0,0,1495.41,117Z"/><path class="cls-13" d="M1514.77,124.41a2.75,2.75,0,0,0-1.83-.67c-.91,0-1.65.44-1.69.93s.78.87,1.84.83A2.69,2.69,0,0,0,1514.77,124.41Z"/><path class="cls-13" d="M1482.31,132.17a3.84,3.84,0,0,1,1.83,2.09c.34,1.32.09,2.53-.58,2.7s-1.49-.77-1.83-2.1A3.82,3.82,0,0,1,1482.31,132.17Z"/><path class="cls-13" d="M1478.82,136.89a2.16,2.16,0,0,1,1.4-.51c.69,0,1.26.34,1.28.71s-.59.67-1.4.64A2.07,2.07,0,0,1,1478.82,136.89Z"/><path class="cls-13" d="M1521,149.65a2.8,2.8,0,0,0-1.31,1.5c-.24.95-.06,1.82.42,1.94s1.06-.55,1.31-1.51A2.77,2.77,0,0,0,1521,149.65Z"/><path class="cls-13" d="M1517.33,149.38a2.47,2.47,0,0,0-.36.61,2.3,2.3,0,0,0-.18,1.39c.22,1,.66,1.6,1.19,1.61s.86-1,.62-2a2.41,2.41,0,0,0-.72-1.16A4.59,4.59,0,0,0,1517.33,149.38Z"/><path class="cls-13" d="M1514.54,151.5a2.38,2.38,0,0,0,.35,1.6c.45.64,1.09,1,1.45.76s.24-1-.25-1.66A2.27,2.27,0,0,0,1514.54,151.5Z"/><path class="cls-14" d="M1445.59,213.35a7.16,7.16,0,0,0-2.45-5.14.61.61,0,0,0-1,.37,10,10,0,0,0,.84,5.53,8,8,0,0,0-4-5.73.6.6,0,0,0-.89.45,6.08,6.08,0,0,0,1.35,4.6,7.35,7.35,0,0,0-4.08-2.7.62.62,0,0,0-.72.75,5.27,5.27,0,0,0,3.23,3.68c-1.35-1-2.83-2-4.49-2s-3.07,1.45-2.83,2.87a.61.61,0,0,0,.46.48c4.52,1.06,9.22.95,13.86.82a12.63,12.63,0,0,0,4.07-.54,4.76,4.76,0,0,0,2.48-1.92.61.61,0,0,0-.64-.9l-.21.06a.59.59,0,0,1-.76-.69l.37-1.74a1.49,1.49,0,0,0-.16-1.4c-.6-.63-1.66.19-1.86,1s-.08,1.84-.67,2.48c.34-1.61,1.06-3.87-.24-4.89a.73.73,0,0,0-1,0C1444.94,209.6,1445.36,211.81,1445.59,213.35Z"/><path class="cls-14" d="M1515.73,237.74a7.09,7.09,0,0,0-2.62-5.05.61.61,0,0,0-1,.4,10,10,0,0,0,1,5.5A8,8,0,0,0,1509,233a.6.6,0,0,0-.87.48,6.11,6.11,0,0,0,1.51,4.55,7.37,7.37,0,0,0-4.18-2.56.61.61,0,0,0-.69.78,5.28,5.28,0,0,0,3.35,3.56c-1.38-.94-2.89-1.91-4.55-1.82s-3,1.55-2.73,3a.62.62,0,0,0,.48.47c4.54.9,9.24.63,13.87.35a12.91,12.91,0,0,0,4.06-.69,4.73,4.73,0,0,0,2.4-2,.6.6,0,0,0-.66-.88l-.21.08a.6.6,0,0,1-.79-.68l.32-1.74a1.51,1.51,0,0,0-.21-1.4c-.62-.61-1.65.25-1.82,1.1s0,1.85-.59,2.51c.28-1.63.93-3.91-.41-4.88a.73.73,0,0,0-1,0C1515,234,1515.46,236.21,1515.73,237.74Z"/><path class="cls-14" d="M1415.62,204.91a4.1,4.1,0,0,0-1.5-2.89.35.35,0,0,0-.57.23,5.71,5.71,0,0,0,.59,3.15,4.57,4.57,0,0,0-2.38-3.2.34.34,0,0,0-.5.27,3.51,3.51,0,0,0,.87,2.61,4.2,4.2,0,0,0-2.39-1.46.35.35,0,0,0-.4.44,3.06,3.06,0,0,0,1.92,2,4.46,4.46,0,0,0-2.61-1,1.63,1.63,0,0,0-1.56,1.7.37.37,0,0,0,.28.27,31.38,31.38,0,0,0,7.93.2,7.53,7.53,0,0,0,2.32-.39,2.75,2.75,0,0,0,1.38-1.15.34.34,0,0,0-.38-.5l-.12,0a.34.34,0,0,1-.45-.39l.18-1a.91.91,0,0,0-.12-.81c-.36-.34-.94.15-1,.64s0,1.05-.34,1.43c.16-.93.53-2.24-.23-2.79a.42.42,0,0,0-.58,0C1415.17,202.78,1415.46,204,1415.62,204.91Z"/><path class="cls-14" d="M1356.67,223.39a5.18,5.18,0,0,0-1.91-3.67.45.45,0,0,0-.73.29,7.28,7.28,0,0,0,.76,4,5.85,5.85,0,0,0-3-4.07.44.44,0,0,0-.64.35,4.48,4.48,0,0,0,1.1,3.32,5.29,5.29,0,0,0-3-1.87.44.44,0,0,0-.5.56,3.83,3.83,0,0,0,2.44,2.6,5.72,5.72,0,0,0-3.32-1.33,2.08,2.08,0,0,0-2,2.16.45.45,0,0,0,.35.34,39.75,39.75,0,0,0,10.11.26,9.76,9.76,0,0,0,3-.5,3.45,3.45,0,0,0,1.75-1.46.44.44,0,0,0-.48-.64l-.15.05a.44.44,0,0,1-.58-.49L1360,222a1.1,1.1,0,0,0-.15-1c-.45-.44-1.2.19-1.32.81s0,1.34-.43,1.82c.2-1.18.67-2.85-.3-3.55a.51.51,0,0,0-.73,0C1356.1,220.68,1356.47,222.28,1356.67,223.39Z"/><path class="cls-15" d="M1350.39,199.56a1.5,1.5,0,0,1-1.11.26.77.77,0,0,1,.61.4.67.67,0,0,1-.11.71,1.6,1.6,0,0,1-1.69.37,1.07,1.07,0,0,1-.72-.86,1.2,1.2,0,0,1-.67.75,1.25,1.25,0,0,1-1.41-.18.68.68,0,0,1,.19-.94,2.37,2.37,0,0,1,.84-.42,2.34,2.34,0,0,1-1.57-.21.57.57,0,0,1-.32-.33.42.42,0,0,1,.09-.34,1.36,1.36,0,0,1,1.17-.52,1.56,1.56,0,0,1,.81.26.68.68,0,0,1,.14-.81,1.33,1.33,0,0,1,1.48-.15.74.74,0,0,1,.36.92,1.26,1.26,0,0,1,1-.31,1.24,1.24,0,0,1,1,.78A.61.61,0,0,1,1350.39,199.56Z"/><path class="cls-16" d="M1348.24,199.46c0-.22-.29-.4-.66-.4s-.66.18-.66.4.3.39.66.39S1348.24,199.67,1348.24,199.46Z"/><path class="cls-15" d="M1330,203.1a2.07,2.07,0,0,1-1.52.36,1.06,1.06,0,0,1,.84.54.91.91,0,0,1-.15,1,2.2,2.2,0,0,1-2.32.51,1.5,1.5,0,0,1-1-1.19,1.64,1.64,0,0,1-.93,1,1.72,1.72,0,0,1-1.93-.24,1,1,0,0,1,.27-1.29,3.1,3.1,0,0,1,1.15-.57,3.17,3.17,0,0,1-2.15-.3.84.84,0,0,1-.44-.45.56.56,0,0,1,.12-.46,1.92,1.92,0,0,1,1.61-.72,2.1,2.1,0,0,1,1.11.37,1,1,0,0,1,.18-1.12,1.84,1.84,0,0,1,2-.21,1,1,0,0,1,.49,1.26,1.7,1.7,0,0,1,1.41-.41,1.67,1.67,0,0,1,1.35,1.06A.81.81,0,0,1,1330,203.1Z"/><path class="cls-16" d="M1327.06,203c0-.3-.4-.54-.9-.54s-.9.24-.9.54.4.54.9.54S1327.06,203.26,1327.06,203Z"/><path class="cls-15" d="M1309.78,196.56a2,2,0,0,1,1.42-.39,1.05,1.05,0,0,1-.82-.48.87.87,0,0,1,.12-.92,2.06,2.06,0,0,1,2.15-.57,1.37,1.37,0,0,1,1,1.09,1.7,1.7,0,0,1,2.66-.85.88.88,0,0,1-.2,1.22,3,3,0,0,1-1.06.58,3,3,0,0,1,2,.2.82.82,0,0,1,.43.41.54.54,0,0,1-.1.44,1.79,1.79,0,0,1-1.48.73,2,2,0,0,1-1.06-.3.9.9,0,0,1-.13,1.06,1.75,1.75,0,0,1-1.91.26,1,1,0,0,1-.51-1.17,1.58,1.58,0,0,1-1.3.44,1.6,1.6,0,0,1-1.32-.94A.8.8,0,0,1,1309.78,196.56Z"/><path class="cls-16" d="M1312.55,196.59c0,.28.39.49.86.47s.84-.26.83-.54-.4-.49-.87-.47S1312.54,196.31,1312.55,196.59Z"/><path class="cls-15" d="M1463.07,203a2,2,0,0,1,1.52-.37,1.09,1.09,0,0,1-.85-.55,1,1,0,0,1,.16-1,2.14,2.14,0,0,1,2.31-.52,1.48,1.48,0,0,1,1,1.21,1.79,1.79,0,0,1,2.86-.8,1,1,0,0,1-.27,1.3,3.06,3.06,0,0,1-1.15.59,3.13,3.13,0,0,1,2.14.29.86.86,0,0,1,.45.47.63.63,0,0,1-.12.47,1.9,1.9,0,0,1-1.61.72,2,2,0,0,1-1.1-.37,1,1,0,0,1-.19,1.14,1.81,1.81,0,0,1-2,.21,1.05,1.05,0,0,1-.49-1.28,1.72,1.72,0,0,1-2.75-.66A.82.82,0,0,1,1463.07,203Z"/><path class="cls-16" d="M1466,203.15c0,.3.4.55.9.55s.9-.25.9-.55-.4-.55-.9-.55S1466,202.85,1466,203.15Z"/><path class="cls-15" d="M1404.19,220.94a2.56,2.56,0,0,1,1.9-.46,1.33,1.33,0,0,1-1-.69,1.18,1.18,0,0,1,.19-1.24,2.68,2.68,0,0,1,2.89-.65,1.84,1.84,0,0,1,1.22,1.51,2.26,2.26,0,0,1,3.58-1,1.22,1.22,0,0,1-.33,1.64,4,4,0,0,1-1.44.73,3.92,3.92,0,0,1,2.68.38,1.05,1.05,0,0,1,.55.57.76.76,0,0,1-.15.59,2.35,2.35,0,0,1-2,.91,2.51,2.51,0,0,1-1.39-.46,1.24,1.24,0,0,1-.23,1.43,2.28,2.28,0,0,1-2.54.26,1.33,1.33,0,0,1-.62-1.61A2.16,2.16,0,0,1,1404,222,1,1,0,0,1,1404.19,220.94Z"/><path class="cls-16" d="M1407.86,221.12c0,.37.51.68,1.13.68s1.12-.31,1.12-.68-.5-.69-1.12-.69S1407.86,220.74,1407.86,221.12Z"/><path class="cls-15" d="M1424.78,221.52a1.51,1.51,0,0,1,1.1-.27.77.77,0,0,1-.61-.4.69.69,0,0,1,.12-.72,1.55,1.55,0,0,1,1.68-.38,1.09,1.09,0,0,1,.71.88,1.31,1.31,0,0,1,2.08-.59.71.71,0,0,1-.19,1,2.08,2.08,0,0,1-.84.42,2.31,2.31,0,0,1,1.56.22.68.68,0,0,1,.33.34.42.42,0,0,1-.09.34,1.38,1.38,0,0,1-1.17.53,1.48,1.48,0,0,1-.81-.27.7.7,0,0,1-.13.83,1.31,1.31,0,0,1-1.48.16.79.79,0,0,1-.37-.94,1.24,1.24,0,0,1-2-.48A.61.61,0,0,1,1424.78,221.52Z"/><path class="cls-16" d="M1426.92,221.62c0,.22.29.4.65.4s.66-.18.66-.4-.29-.4-.66-.4S1426.92,221.4,1426.92,221.62Z"/><path class="cls-3" d="M458.81,161.89c1.52.59,3.51,2.25,3.23,6.88-.64,10.9-8.62,17.23-22.42,18.29-4.33.34-9-2.69-9-2.69a20.63,20.63,0,0,1-14.52,2.22c-12.37-2.82-20.2-9.59-21.3-22.59-.62-6.92,5.73-11,5.73-11s-5.84-6.07-4.13-13.29,11.38-17.08,23.1-14.44c14.49-14.18,55.37,1.93,43.88,31.61C462.21,159.89,458.36,161.72,458.81,161.89Z"/><path class="cls-4" d="M458.81,161.89c1.52.59,3.51,2.25,3.23,6.88-.64,10.9-8.62,17.23-22.42,18.29-4.33.34-9-2.69-9-2.69a20.63,20.63,0,0,1-14.52,2.22c-11.1-2.53-18.13-8.1-20.51-17.9,5,6.74,13.51,11.29,16.88,3.6,2,11.15,31.36,9.94,30.35-.68,6.06,2.47,13.68-5.17,7.83-10.06,7.56-.06,12.45-10.68,14-20.4a25.67,25.67,0,0,1-1.24,15.71C462.21,159.89,458.36,161.72,458.81,161.89Z"/><path class="cls-17" d="M458.81,161.89c1.52.59,3.51,2.25,3.23,6.88-.64,10.9-8.62,17.23-22.42,18.29-4.33.34-9-2.69-9-2.69a20.63,20.63,0,0,1-14.52,2.22c-12.37-2.82-20.2-9.59-21.3-22.59-.62-6.92,5.73-11,5.73-11s-5.84-6.07-4.13-13.29,11.38-17.08,23.1-14.44c14.49-14.18,55.37,1.93,43.88,31.61C462.21,159.89,458.36,161.72,458.81,161.89Z"/><path class="cls-5" d="M419.33,177s9.77,1.89,9.77,16.79.53,15.24.53,15.24a7.25,7.25,0,0,1-3.85,3.47c-1.71.61-.82.38,5.39.38,4.63,0,6.43.41,5.3-.19-1.44-.77-3.1-1.86-3.18-3.47-.34-6.53-2.14-17.49-.08-24.17s11.12-9,10.27-9.75-9.79,5.65-10.29,5.45,2.89-10.88,3.67-13.19-1.26-.87-1.93.77-3.37,11.56-4.15,12-3.22-14.74-4.42-15.22-1.08.36-1.06,1.74,4.57,12.52,3.28,13-6-3.37-8.1-3.89S419.33,177,419.33,177Z"/><path class="cls-7" d="M431.91,134.14a4.3,4.3,0,0,1,.94,1,4.7,4.7,0,0,1,.91,2.45,6.63,6.63,0,0,1-.26,2.14,2,2,0,0,1-.86,1.24c-.42.22-1,.05-1.53-.59a4.66,4.66,0,0,1-.84-2.7,4.17,4.17,0,0,1,.84-2.49A11.18,11.18,0,0,1,431.91,134.14Z"/><path class="cls-7" d="M437.3,134.6a4.62,4.62,0,0,1,.51,3.3c-.5,1.56-1.53,2.63-2.32,2.37s-1-1.73-.52-3.3A4.62,4.62,0,0,1,437.3,134.6Z"/><path class="cls-7" d="M442.8,137.53a5,5,0,0,1,0,1.19,3.87,3.87,0,0,1-1,2.13c-1.16,1.16-2.38,1.68-3.14,1.22s-.35-2.13.93-3.41a4,4,0,0,1,2.06-1A7.42,7.42,0,0,1,442.8,137.53Z"/><path class="cls-7" d="M444.86,143a3.94,3.94,0,0,1-1.94,1.95c-1.21.51-2.43.43-2.73-.2s.52-1.58,1.85-2.14A3.8,3.8,0,0,1,444.86,143Z"/><path class="cls-7" d="M426.2,139.27a2.57,2.57,0,0,1,1.75.38c.69.47,1.07,1.16.85,1.55s-1,.3-1.83-.25A2.51,2.51,0,0,1,426.2,139.27Z"/><path class="cls-7" d="M411.28,155.3a2.58,2.58,0,0,1,.79.34,3,3,0,0,1,1.15,1.22,4.17,4.17,0,0,1,.37,1.32,1.23,1.23,0,0,1-.2.94c-.19.24-.58.28-1,0a3,3,0,0,1-1.17-1.38,2.72,2.72,0,0,1-.11-1.67A6.94,6.94,0,0,1,411.28,155.3Z"/><path class="cls-7" d="M418.53,154.6a3.4,3.4,0,0,1,.27.71,2.42,2.42,0,0,1-.06,1.5c-.39,1-1,1.58-1.54,1.49s-.73-1.16-.3-2.23a2.64,2.64,0,0,1,1-1.1A5.37,5.37,0,0,1,418.53,154.6Z"/><path class="cls-7" d="M421.1,157.33a2.52,2.52,0,0,1-.66,1.63c-.58.59-1.32.85-1.65.55s-.09-1.06.55-1.71A2.43,2.43,0,0,1,421.1,157.33Z"/><path class="cls-7" d="M409.19,159.74a1.63,1.63,0,0,1,1.13-.21c.52.1.91.41.88.7s-.53.42-1.14.3A1.6,1.6,0,0,1,409.19,159.74Z"/><path class="cls-11" d="M408.16,192.13c-6.46,8.13-29.54,4.55-33,.37-2.43-3-5.21,6.44-18.33,4.31-5.86-1-16.7-4.53-18.23-9-11.36-29.31,12.22-91.47,34.85-93.94S423.83,172.52,408.16,192.13Z"/><path class="cls-12" d="M412.07,182.31a21.68,21.68,0,0,1-3.91,9.82c-6.46,8.13-29.54,4.55-33,.37-2.43-3-5.21,6.44-18.33,4.31-4.71-.82-14-3.53-17.29-7.52,11.86,3.86,22.09-5.29,10.9-18.22,4.27,4,17,3.08,15.16-6.67-.3-1.57,13.66,5.13,18.52-8.56-.63.07,6.44,19.16,15.92,15.06C394.51,176.56,410.05,184.24,412.07,182.31Z"/><path class="cls-5" d="M357.85,177.39s13.74,4.84,13.74,26.19-.15,29.62,0,33.87-10.86,6.33-10.86,6.33-3.43,1.19,6.37,1c10.29-.17,21.81.44,23-1s-10.72-2.18-10.85-6.5c-.3-9.38-2.89-35.6.33-45.17s16.11-14,16.11-14,1.91-3.38-1.21-1.84S378.39,187,378.39,187s3.92-14,4.84-17.34c1.27-4.62-.14-6.93-.14-6.93l-7.52,21.69s-3.84-11.81-5.25-15.66-1.12.38-1.12.38,5.16,14.91,3.15,15.65-9.67-7.36-12.89-8.1S357.85,177.39,357.85,177.39Z"/><path class="cls-18" d="M408.16,192.13c-6.46,8.13-29.54,4.55-33,.37-2.43-3-5.21,6.44-18.33,4.31-5.86-1-16.7-4.53-18.23-9-11.36-29.31,12.22-91.47,34.85-93.94S423.83,172.52,408.16,192.13Z"/><path class="cls-13" d="M362.68,118.21a4.52,4.52,0,0,1,1.4.34,5,5,0,0,1,2.22,1.7,7.09,7.09,0,0,1,1,2.08,2.18,2.18,0,0,1-.08,1.6c-.25.44-.88.63-1.72.34a5,5,0,0,1-2.29-2,4.42,4.42,0,0,1-.65-2.72A12.51,12.51,0,0,1,362.68,118.21Z"/><path class="cls-13" d="M367.81,115.56a5,5,0,0,1,2.34,2.68c.44,1.7.11,3.25-.75,3.47s-1.9-1-2.34-2.69A4.91,4.91,0,0,1,367.81,115.56Z"/><path class="cls-13" d="M374.44,115.07a5.06,5.06,0,0,1,.63,1.1,4,4,0,0,1,.33,2.48c-.39,1.71-1.19,2.87-2.14,2.89s-1.53-1.73-1.1-3.6a4.23,4.23,0,0,1,1.29-2.07A8.21,8.21,0,0,1,374.44,115.07Z"/><path class="cls-13" d="M379.43,118.86a4.29,4.29,0,0,1-.64,2.87c-.81,1.14-2,1.76-2.58,1.36s-.44-1.72.45-3A4,4,0,0,1,379.43,118.86Z"/><path class="cls-13" d="M360.46,126.09a2.74,2.74,0,0,1,1.79-.65c.89,0,1.62.43,1.65.91s-.76.85-1.8.82A2.66,2.66,0,0,1,360.46,126.09Z"/><path class="cls-13" d="M392.26,133.7a3.77,3.77,0,0,0-1.79,2.05c-.33,1.3-.09,2.48.57,2.65s1.45-.75,1.79-2.06A3.72,3.72,0,0,0,392.26,133.7Z"/><path class="cls-13" d="M395.69,138.33a2.06,2.06,0,0,0-1.37-.5c-.68,0-1.24.33-1.27.7s.59.65,1.38.62A2.08,2.08,0,0,0,395.69,138.33Z"/><path class="cls-13" d="M354.32,150.83a2.73,2.73,0,0,1,1.29,1.47c.23.93.06,1.78-.41,1.9s-1.05-.54-1.29-1.48A2.69,2.69,0,0,1,354.32,150.83Z"/><path class="cls-13" d="M358,150.56a3.07,3.07,0,0,1,.35.6,2.23,2.23,0,0,1,.18,1.37c-.21.93-.65,1.57-1.17,1.57s-.84-.94-.61-2a2.39,2.39,0,0,1,.71-1.13A5.08,5.08,0,0,1,358,150.56Z"/><path class="cls-13" d="M360.69,152.64a2.36,2.36,0,0,1-.35,1.57c-.44.62-1.07,1-1.42.75s-.23-1,.25-1.64A2.22,2.22,0,0,1,360.69,152.64Z"/><path class="cls-19" d="M546.79,197.58c-1.86,2-3.87,4.27-8,1.07-2.4-1.86-4.33-5.36-5.74-10-2.6-8.45-3.5-20.61-2.56-33.08,1.07-14.22,14.36-27.34,21.27-8.16.33.92.65,1.91.94,3C557,165.66,555.66,188.06,546.79,197.58Z"/><path class="cls-9" d="M546.79,197.58c-1.86,2-3.87,4.27-8,1.07-2.4-1.86-4.33-5.36-5.74-10,6.54,6.72,16.19.76,11.71-13.57,6-1.4,7-16.07,7-27.67.33.92.65,1.91.94,3C557,165.66,555.66,188.06,546.79,197.58Z"/><path class="cls-5" d="M536.74,190.07c1,.81,3.75,3.35,4.16,5.24a27.49,27.49,0,0,1,.6,6c0,10.36.4,16.54.4,16.54l-2.82,1.74s-3.08,1.85,1.21,1.14,6.56.64,7.1-.07-3-.67-3.08-3.48c-.14-4.55-1.38-17.3,0-21.94s4.8-4.85,5-6.06-.8-.6-.8-.6l-4.71,4.16,2.5-7.37c.53-1.61-.3-1.68-1-.07-1,2.28-2.74,6.19-2.74,6.19s-1.61-4.65-2-6.19c-.19-.72-.78-1.65-1-.54s2.49,6.55,1.59,6.9-2.93-1.87-4.33-2.81C535.58,188.05,535.47,189,536.74,190.07Z"/><path class="cls-20" d="M546.79,197.58c-1.86,2-3.87,4.27-8,1.07-2.4-1.86-4.33-5.36-5.74-10-2.6-8.45-3.5-20.61-2.56-33.08,1.07-14.22,14.36-27.34,21.27-8.16.33.92.65,1.91.94,3C557,165.66,555.66,188.06,546.79,197.58Z"/><path class="cls-10" d="M540.19,147a2.67,2.67,0,0,1,.67.57,3,3,0,0,1,.76,1.54,4.07,4.07,0,0,1,0,1.42,1.28,1.28,0,0,1-.48.86c-.26.18-.65.1-1-.29a3.09,3.09,0,0,1-.73-1.7,2.82,2.82,0,0,1,.39-1.68A6.22,6.22,0,0,1,540.19,147Z"/><path class="cls-10" d="M543.74,147a3,3,0,0,1,.55,2.12c-.22,1.06-.83,1.82-1.36,1.71s-.78-1.07-.55-2.13A3,3,0,0,1,543.74,147Z"/><path class="cls-10" d="M547.52,148.53a3.07,3.07,0,0,1,.06.78,2.51,2.51,0,0,1-.51,1.46c-.68.84-1.44,1.26-2,1s-.37-1.37.38-2.28a2.62,2.62,0,0,1,1.28-.79A4.73,4.73,0,0,1,547.52,148.53Z"/><path class="cls-10" d="M549.23,152a2.55,2.55,0,0,1-1.14,1.4c-.75.41-1.55.44-1.79.05s.23-1.07,1.06-1.52A2.48,2.48,0,0,1,549.23,152Z"/><path class="cls-10" d="M536.8,150.77a1.65,1.65,0,0,1,1.16.13c.49.26.78.68.66,1s-.65.26-1.21-.05A1.59,1.59,0,0,1,536.8,150.77Z"/><path class="cls-10" d="M538.73,173a2.57,2.57,0,0,1,.47.75,3,3,0,0,1,.26,1.69,4.1,4.1,0,0,1-.44,1.35,1.32,1.32,0,0,1-.72.68c-.3.09-.66-.1-.9-.58a3,3,0,0,1-.19-1.85,2.77,2.77,0,0,1,.87-1.49A8.15,8.15,0,0,1,538.73,173Z"/><path class="cls-10" d="M542.13,174a3,3,0,0,1-.1,2.19c-.53.94-1.33,1.49-1.81,1.22s-.42-1.24.11-2.19A3,3,0,0,1,542.13,174Z"/><path class="cls-10" d="M534.38,175.57a1.65,1.65,0,0,1,1.07.48c.39.39.54.88.35,1.11s-.7.05-1.15-.41A1.64,1.64,0,0,1,534.38,175.57Z"/><path class="cls-21" d="M358.25,240.5a9.12,9.12,0,0,1,3.14-6.58.79.79,0,0,1,1.3.47,13,13,0,0,1-1.09,7.1,10.28,10.28,0,0,1,5.09-7.36.78.78,0,0,1,1.14.58,7.86,7.86,0,0,1-1.74,5.91,9.35,9.35,0,0,1,5.24-3.47.78.78,0,0,1,.92,1,6.74,6.74,0,0,1-4.14,4.72c1.73-1.26,3.63-2.58,5.77-2.54,1.95,0,3.92,1.86,3.62,3.68a.78.78,0,0,1-.59.62c-5.79,1.36-11.83,1.21-17.78,1.06a16.69,16.69,0,0,1-5.23-.7,6.19,6.19,0,0,1-3.17-2.46.78.78,0,0,1,.81-1.16l.27.08a.76.76,0,0,0,1-.89l-.49-2.23a2,2,0,0,1,.21-1.8c.77-.81,2.13.25,2.38,1.34s.11,2.36.87,3.18c-.43-2.07-1.36-5,.31-6.27a.92.92,0,0,1,1.29-.07C359.08,235.69,358.53,238.53,358.25,240.5Z"/><path class="cls-21" d="M435.51,213.63a4.31,4.31,0,0,1,1.48-3.1.36.36,0,0,1,.6.22,6,6,0,0,1-.5,3.34,4.82,4.82,0,0,1,2.39-3.46.36.36,0,0,1,.54.27,3.69,3.69,0,0,1-.82,2.78,4.4,4.4,0,0,1,2.46-1.63.37.37,0,0,1,.44.45,3.2,3.2,0,0,1-2,2.22,4.69,4.69,0,0,1,2.71-1.2c.92,0,1.85.87,1.71,1.72a.35.35,0,0,1-.27.3,33,33,0,0,1-8.37.51,7.85,7.85,0,0,1-2.46-.32,2.92,2.92,0,0,1-1.49-1.16.36.36,0,0,1,.38-.54l.13,0a.36.36,0,0,0,.46-.43l-.23-1a1,1,0,0,1,.09-.85c.37-.38,1,.12,1.13.63s.05,1.11.41,1.49c-.21-1-.65-2.33.14-3a.43.43,0,0,1,.6,0C435.9,211.37,435.65,212.7,435.51,213.63Z"/><path class="cls-21" d="M413.66,235.22a6.14,6.14,0,0,1,2.26-4.34.52.52,0,0,1,.86.34,8.64,8.64,0,0,1-.89,4.74,6.91,6.91,0,0,1,3.58-4.82.52.52,0,0,1,.75.41,5.24,5.24,0,0,1-1.3,3.93,6.29,6.29,0,0,1,3.6-2.21.52.52,0,0,1,.59.67,4.5,4.5,0,0,1-2.88,3.06,6.69,6.69,0,0,1,3.92-1.56c1.31.07,2.59,1.33,2.35,2.54a.52.52,0,0,1-.41.41,46.82,46.82,0,0,1-11.95.3,11.07,11.07,0,0,1-3.49-.59,4.11,4.11,0,0,1-2.08-1.72.53.53,0,0,1,.58-.76l.18.06a.51.51,0,0,0,.68-.57l-.28-1.51a1.35,1.35,0,0,1,.18-1.2c.54-.52,1.43.21,1.57.95s0,1.59.51,2.16c-.24-1.4-.8-3.37.35-4.2a.62.62,0,0,1,.87,0C414.33,232,413.9,233.9,413.66,235.22Z"/><path class="cls-21" d="M521.2,223.82a5.05,5.05,0,0,1,1.87-3.58.43.43,0,0,1,.7.28,7.14,7.14,0,0,1-.73,3.91,5.69,5.69,0,0,1,3-4,.42.42,0,0,1,.62.33,4.35,4.35,0,0,1-1.07,3.24,5.26,5.26,0,0,1,3-1.82.44.44,0,0,1,.49.55,3.75,3.75,0,0,1-2.38,2.53,5.57,5.57,0,0,1,3.23-1.29c1.08.06,2.14,1.1,1.94,2.1a.44.44,0,0,1-.34.34,38.7,38.7,0,0,1-9.86.24,9,9,0,0,1-2.87-.48,3.44,3.44,0,0,1-1.72-1.42.44.44,0,0,1,.48-.63l.14,0a.42.42,0,0,0,.57-.47l-.23-1.24a1.12,1.12,0,0,1,.15-1c.44-.43,1.17.18,1.29.79s0,1.31.42,1.78c-.2-1.16-.66-2.78.29-3.47a.52.52,0,0,1,.72,0C521.76,221.18,521.4,222.74,521.2,223.82Z"/><path class="cls-22" d="M399.11,225.55a1.58,1.58,0,0,0-1.25-.33.87.87,0,0,0,.69-.5.92.92,0,0,0-.13-.9,1.64,1.64,0,0,0-1.89-.47,1.35,1.35,0,0,0-.8,1.09,1.49,1.49,0,0,0-.76-.94,1.28,1.28,0,0,0-1.58.22.93.93,0,0,0,.21,1.18,2.46,2.46,0,0,0,.95.53,2.39,2.39,0,0,0-1.76.27.73.73,0,0,0-.36.42.6.6,0,0,0,.1.43,1.46,1.46,0,0,0,1.31.65,1.53,1.53,0,0,0,.91-.33,1,1,0,0,0,.15,1,1.37,1.37,0,0,0,1.67.19,1,1,0,0,0,.4-1.16,1.32,1.32,0,0,0,1.15.38,1.41,1.41,0,0,0,1.11-1A.83.83,0,0,0,399.11,225.55Z"/><path class="cls-23" d="M396.7,225.68c0,.27-.33.5-.74.5s-.73-.23-.73-.5.33-.5.73-.5S396.7,225.41,396.7,225.68Z"/><path class="cls-15" d="M409,220.88a1.65,1.65,0,0,0-1.35-.36,1,1,0,0,0,.75-.55,1,1,0,0,0-.14-1,1.8,1.8,0,0,0-2.07-.51,1.43,1.43,0,0,0-.87,1.19,1.67,1.67,0,0,0-.83-1,1.42,1.42,0,0,0-1.73.25,1,1,0,0,0,.24,1.29,2.74,2.74,0,0,0,1,.58,2.6,2.6,0,0,0-1.92.29.81.81,0,0,0-.4.46.67.67,0,0,0,.11.47,1.63,1.63,0,0,0,1.44.71,1.73,1.73,0,0,0,1-.36,1,1,0,0,0,.16,1.13,1.5,1.5,0,0,0,1.82.2,1.08,1.08,0,0,0,.44-1.27,1.42,1.42,0,0,0,1.26.42,1.55,1.55,0,0,0,1.21-1.06A.89.89,0,0,0,409,220.88Z"/><path class="cls-16" d="M406.38,221c0,.3-.36.54-.81.54s-.8-.24-.8-.54.36-.54.8-.54S406.38,220.72,406.38,221Z"/><path class="cls-15" d="M471.63,215.19a1.4,1.4,0,0,0,1.09.29.78.78,0,0,0-.61.43.81.81,0,0,0,.12.79,1.45,1.45,0,0,0,1.65.41,1.19,1.19,0,0,0,.7-1,1.32,1.32,0,0,0,.66.83,1.13,1.13,0,0,0,1.38-.19.83.83,0,0,0-.19-1,2.31,2.31,0,0,0-.83-.46,2.11,2.11,0,0,0,1.54-.23.62.62,0,0,0,.31-.37.5.5,0,0,0-.08-.37,1.3,1.3,0,0,0-1.15-.57,1.39,1.39,0,0,0-.79.29.85.85,0,0,0-.13-.9,1.2,1.2,0,0,0-1.46-.16.87.87,0,0,0-.35,1,1.09,1.09,0,0,0-1-.33,1.24,1.24,0,0,0-1,.84A.74.74,0,0,0,471.63,215.19Z"/><path class="cls-16" d="M473.73,215.08c0-.24.29-.44.64-.44s.64.2.64.44-.28.43-.64.43S473.73,215.32,473.73,215.08Z"/><path class="cls-15" d="M538,242.86a2,2,0,0,1,1.5-.36,1.1,1.1,0,0,1-.84-.55.94.94,0,0,1,.16-1,2.11,2.11,0,0,1,2.28-.51,1.49,1.49,0,0,1,1,1.19,1.7,1.7,0,0,1,.91-1,1.68,1.68,0,0,1,1.91.25,1,1,0,0,1-.26,1.29,3.23,3.23,0,0,1-1.14.58,3.14,3.14,0,0,1,2.12.29.89.89,0,0,1,.44.46.63.63,0,0,1-.12.47,1.88,1.88,0,0,1-1.59.71,2,2,0,0,1-1.09-.36,1,1,0,0,1-.19,1.13,1.78,1.78,0,0,1-2,.2,1,1,0,0,1-.49-1.27,1.66,1.66,0,0,1-1.39.42,1.68,1.68,0,0,1-1.34-1.06A.85.85,0,0,1,538,242.86Z"/><path class="cls-16" d="M540.89,243c0,.3.39.54.88.54s.89-.24.89-.54-.4-.54-.89-.54S540.89,242.7,540.89,243Z"/><path class="cls-15" d="M459.64,237.79a2,2,0,0,1,1.5-.37,1.06,1.06,0,0,1-.84-.54.94.94,0,0,1,.16-1,2.11,2.11,0,0,1,2.28-.51,1.49,1.49,0,0,1,1,1.19,1.76,1.76,0,0,1,2.82-.79,1,1,0,0,1-.26,1.29,3.23,3.23,0,0,1-1.14.58,3.09,3.09,0,0,1,2.12.29.89.89,0,0,1,.44.46.6.6,0,0,1-.12.46,1.89,1.89,0,0,1-1.59.72,2,2,0,0,1-1.09-.36,1,1,0,0,1-.19,1.12,1.78,1.78,0,0,1-2,.21,1,1,0,0,1-.49-1.27,1.7,1.7,0,0,1-2.73-.65A.83.83,0,0,1,459.64,237.79Z"/><path class="cls-16" d="M462.54,237.93c0,.3.39.54.88.54s.89-.24.89-.54-.4-.55-.89-.55S462.54,237.63,462.54,237.93Z"/><path class="cls-15" d="M475.9,236.8a1.18,1.18,0,0,1,.87-.21.63.63,0,0,1-.48-.32.53.53,0,0,1,.09-.57,1.23,1.23,0,0,1,1.33-.3.86.86,0,0,1,.56.7,1,1,0,0,1,1.64-.47.56.56,0,0,1-.15.76,1.71,1.71,0,0,1-.66.33,1.85,1.85,0,0,1,1.23.18.47.47,0,0,1,.26.26.34.34,0,0,1-.07.27,1,1,0,0,1-.92.42,1.22,1.22,0,0,1-.64-.21.59.59,0,0,1-.11.66,1.06,1.06,0,0,1-1.17.12.6.6,0,0,1-.28-.74,1,1,0,0,1-.81.24,1,1,0,0,1-.78-.62A.46.46,0,0,1,475.9,236.8Z"/><path class="cls-16" d="M477.59,236.88c0,.18.23.32.52.32s.51-.14.51-.32-.23-.31-.51-.31S477.59,236.71,477.59,236.88Z"/><rect class="cls-24" x="1.67" width="1917.33" height="300"/></g></g></svg>