<svg xmlns="http://www.w3.org/2000/svg" viewBox="0 0 73.3 56.18"><defs><style>.cls-1{fill:#fff;}.cls-2{fill:#4d3224;}.cls-3{fill:#f1d4c2;}</style></defs><title>contact-islands-about-title</title><g id="圖層_2" data-name="圖層 2"><g id="聯絡"><rect class="cls-1" width="72.24" height="26.13" rx="2.19" ry="2.19"/><path class="cls-2" d="M25.13,14.14a16.49,16.49,0,0,1,.94,1.78l-.55.23h.12V17.6c0,1.23-.3,2.34-2.34,3.06a2.89,2.89,0,0,0-.55-.67,2.74,2.74,0,0,0,1.87-1.32H22.38V16.39h.77v1.55H24.8c0-.11,0-.24,0-.36V16.15h.61c-.06-.17-.14-.33-.23-.55a17.5,17.5,0,0,0-3.28.43v0a5.74,5.74,0,0,0-.24-.75,2,2,0,0,0,.89-.46c.18-.14.57-.48,1-.91A4.91,4.91,0,0,0,22,14.1h0a4.55,4.55,0,0,0-.27-.78,1,1,0,0,0,.55-.29,8.86,8.86,0,0,0,1.2-1.57H20.55v9.34H19.49V6.47h6v5H23.73l.54.28A10.51,10.51,0,0,1,23,13.3l1.3-.07c.25-.28.51-.56.73-.86l.67.45a16.82,16.82,0,0,1-2.53,2.3L24.9,15c-.14-.25-.27-.48-.38-.69ZM20.55,7.3V8.6H24.4V7.3Zm0,3.33H24.4V9.37H20.55Zm12.52,8.71c0,.66-.12,1-.53,1.19a5.76,5.76,0,0,1-2.12.21,5.7,5.7,0,0,0-.37-1.1c.76,0,1.47,0,1.67,0s.3-.09.3-.32V11.45H28.21l.58.3a11.41,11.41,0,0,1-1.32,1.55l1.28-.05a10.26,10.26,0,0,0,.76-.89l.66.44a16.4,16.4,0,0,1-2.57,2.34L29.38,15c-.13-.23-.25-.48-.38-.69l.59-.2a18,18,0,0,1,1,1.78l-.62.28c-.07-.17-.17-.35-.27-.56a18.31,18.31,0,0,0-3.26.41,6.79,6.79,0,0,0-.25-.77,1.69,1.69,0,0,0,.87-.45,13,13,0,0,0,1.06-.92,5.81,5.81,0,0,0-1.6.21,4.45,4.45,0,0,0-.28-.79.81.81,0,0,0,.54-.29A7.88,7.88,0,0,0,28,11.45H27v-5h6.1Zm-3.79-.16v-.51h-1.7v1.84h-.84V16.15h.84v1.79h1.7V16.41h.79v2.77ZM28,7.3V8.6h4V7.3Zm4,3.33V9.37H28v1.26Z"/><path class="cls-2" d="M43,11.88s0,.38,0,.51c-.2,5.22-.39,7-.85,7.58a1.24,1.24,0,0,1-.93.48,11.7,11.7,0,0,1-1.46,0,3.44,3.44,0,0,0-.28-1c.57,0,1.05,0,1.28,0a.47.47,0,0,0,.48-.21c.33-.4.53-2,.71-6.38H39.67c-.18,3.3-.65,6-2.13,7.79a3.26,3.26,0,0,0-.84-.77c1.8-2.13,1.94-5.88,2-10.4H37v-1h6.62v1H39.78c0,.81,0,1.6-.06,2.36Zm-2.6-3.45A11.14,11.14,0,0,0,39,6.08l1-.38A10.24,10.24,0,0,1,41.38,8ZM48.24,6a5.91,5.91,0,0,1-.28.84,11.23,11.23,0,0,0,4.1,4.6,4.4,4.4,0,0,0-.81.9,12.47,12.47,0,0,1-3.76-4.38,10.67,10.67,0,0,1-3.61,4.48,4.11,4.11,0,0,0-.77-.87,10.07,10.07,0,0,0,4.12-5.88ZM45.5,16.67A24.89,24.89,0,0,1,50,19.39l-.74,1a23,23,0,0,0-4.42-2.85Zm3.13-1.59a21.68,21.68,0,0,0-2.83-2.26l.7-.73a22.38,22.38,0,0,1,2.89,2.16Z"/><path class="cls-3" d="M49.33,41.38l-.12-.06a.75.75,0,0,0-.49-.78c-1.81-.69-5.81-.68-6,1.92a.71.71,0,0,0,.53.7,7.61,7.61,0,0,0,6-.53A.73.73,0,0,0,49.33,41.38Z"/><path class="cls-3" d="M50.57,44.33a12.21,12.21,0,0,0-1.71.05.75.75,0,0,0-.7.53.72.72,0,0,0,.33.82,4.37,4.37,0,0,0,1.83.29.59.59,0,0,0,.61-.34A.73.73,0,0,0,50.57,44.33Z"/><path class="cls-3" d="M60.18,41.69l-.12-.07a.75.75,0,0,0-.48-.78c-1.81-.68-5.81-.68-6,1.93a.73.73,0,0,0,.53.69,7.56,7.56,0,0,0,6-.53A.72.72,0,0,0,60.18,41.69Z"/><path class="cls-3" d="M61.43,44.63a12.31,12.31,0,0,0-1.72.06.76.76,0,0,0-.7.53.72.72,0,0,0,.34.81,4.33,4.33,0,0,0,1.82.3.63.63,0,0,0,.62-.34A.74.74,0,0,0,61.43,44.63Z"/><path class="cls-3" d="M61.41,51.05A.67.67,0,0,0,61.3,51a.75.75,0,0,0-.49-.78c-1.81-.68-5.81-.68-6,1.93a.73.73,0,0,0,.53.69,7.56,7.56,0,0,0,6-.53A.72.72,0,0,0,61.41,51.05Z"/><path class="cls-3" d="M62.66,54a12.36,12.36,0,0,0-1.72.06.74.74,0,0,0-.69.53.71.71,0,0,0,.33.81,4.36,4.36,0,0,0,1.82.3.63.63,0,0,0,.62-.34A.74.74,0,0,0,62.66,54Z"/><path class="cls-3" d="M71.36,51.54l-.12-.07a.74.74,0,0,0-.49-.77c-1.81-.69-5.81-.69-6,1.92a.7.7,0,0,0,.53.69,7.53,7.53,0,0,0,6-.53A.73.73,0,0,0,71.36,51.54Z"/><path class="cls-3" d="M72.6,54.49a12.21,12.21,0,0,0-1.71,0,.75.75,0,0,0-.7.53.72.72,0,0,0,.33.82,4.37,4.37,0,0,0,1.83.29.59.59,0,0,0,.61-.34A.73.73,0,0,0,72.6,54.49Z"/></g></g></svg>