<svg xmlns="http://www.w3.org/2000/svg" xmlns:xlink="http://www.w3.org/1999/xlink" viewBox="0 0 777.89 271.6"><defs><style>.cls-1{fill:#e3e3e3;}.cls-1,.cls-10,.cls-2,.cls-6{stroke:#4d3224;}.cls-1,.cls-10,.cls-2,.cls-3,.cls-9{stroke-linecap:round;stroke-linejoin:round;}.cls-1,.cls-2,.cls-3{stroke-width:1.61px;}.cls-2{fill:#96c68d;}.cls-3{stroke:#523224;fill:url(#未命名漸層_27);}.cls-4{fill:#a66c3d;}.cls-10,.cls-4,.cls-5,.cls-6,.cls-7,.cls-8,.cls-9{fill-rule:evenodd;}.cls-5{fill:#865731;}.cls-10,.cls-6,.cls-9{fill:none;}.cls-6{stroke-miterlimit:10;}.cls-10,.cls-6{stroke-width:1.19px;}.cls-7{fill:#815430;}.cls-8{fill:#4d3224;}.cls-9{stroke:#e7c48d;stroke-width:0.6px;opacity:0.46;}</style><linearGradient id="未命名漸層_27" x1="384.46" y1="271.79" x2="384.46" y2="259.46" gradientUnits="userSpaceOnUse"><stop offset="0.11" stop-color="#75aad4" stop-opacity="0"/><stop offset="1" stop-color="#5596ca"/></linearGradient></defs><title>contact-islands</title><g id="圖層_2" data-name="圖層 2"><g id="聯絡"><path class="cls-1" d="M75.55,178.94c33.62,4.6,64.72,20.9,97.71,28.55,40.4,9.36,78.68,21.51,116.24,39.08,41.73,19.54,77.5,11.82,121.88,12.81,49,1.1,97.67-10.14,143.67-26.37,35.34-12.47,51.5-44.66,85-58.79,35.78-15.07,85.91-34.37,121.29-55.14,26.42-15.5,15.87-61.4-4.72-60.78-36.72,1.11-98.84,21.81-131.87,29.13-44.46,9.84-89.48,23.86-135.15,25.26-48.77,1.5-97.41-2.72-145.81-7.81-101.14-10.63-177.54,1-276.24-23-12.76-3.1-48.17-23.43-56.77-11.73C-22.71,115.7,36.82,173.64,75.55,178.94Z"/><path class="cls-2" d="M287.6,2.05q-32,1.58-64.48,5.35C186,11.79-30,32.6,4.53,106.28c26.25,56,91.38,67.52,146.52,75,28.61,3.88,73.25,17.8,101.07,26,54.55,16.14,81.39,31.89,139.79,33.51,43.66,1.22,104,1.36,142.5-22.91,42.75-26.95,71.48-54.26,156.26-80.14s128.23-80.85,16.5-97.71C566.52,18.83,429.69-4.94,287.6,2.05Z"/><path class="cls-3" d="M333.28,270.79c5.25-36.57,16.63-50.65,40-75.08,10.75-11.24,41.87-40.88,31.29-58.34-7.73-12.77-28.39-17-41.29-22-19.71-7.64-45.36-14.68-59.51-31.51C273.63,48,436.51,10.69,454.18,5.79a1.33,1.33,0,0,1,.19,0l14.46.81L400.77,28.92H401l-1.16.34-12.18,4.6L364,42.21c-17.66,7.6-35.19,17.56-36.11,27.42-1.26,13.58,45.17,29,54.18,32.87,18.57,7.92,48.08,12.22,55.91,34,9.48,26.36-19.72,56.52-34.12,75.42-19.31,25.37-23.09,26.94-26.42,58.91"/><path class="cls-4" d="M409.54,113.6l.07,6.17c0,.45.53.81,1.19.8s1.17-.38,1.17-.83l-.07-6.17Z"/><path class="cls-5" d="M409.54,113.6l0,4a3.52,3.52,0,0,1,2.35-1l0-3Z"/><path class="cls-6" d="M409.54,113.6l.07,6.17c0,.45.53.81,1.19.8s1.17-.38,1.17-.83l-.07-6.17Z"/><path class="cls-4" d="M395,123.73l.07,6.16c0,.46.54.82,1.19.81s1.17-.38,1.17-.83l-.07-6.17Z"/><path class="cls-7" d="M395,123.73l0,4a3.53,3.53,0,0,1,2.36-1l0-3Z"/><path class="cls-6" d="M395,123.73l.07,6.16c0,.46.54.82,1.19.81s1.17-.38,1.17-.83l-.07-6.17Z"/><path class="cls-8" d="M391,130.4l2.39,1.39s6.75-13.5,16.51-16.25c4.12-1.16,6.46-.16,6.46-.16l1.21.61c3.41.29,2.31-1.13.25-1.87l-4.57-2.78-23.63,8Z"/><path class="cls-4" d="M391.56,130s13.17-21.12,25.69-15.86c0,0-6.39-7.35-20.23-8.6s-22.37,10.54-25.08,14.74C371.94,120.27,385.25,125,391.56,130Z"/><path class="cls-9" d="M376.11,116.7s11.72,4,17.48,8.74"/><path class="cls-9" d="M379.68,112.53s11.72,4,17.48,8.74"/><path class="cls-9" d="M383.46,109.35s11.72,4,17.48,8.74"/><path class="cls-9" d="M388,107.16s10.52,3.58,16.28,8.35"/><path class="cls-9" d="M392.79,106.17s9.93,2.58,15.69,7.35"/><path class="cls-9" d="M397,105.53s8.88,2.63,14.64,7.39"/><path class="cls-10" d="M391.56,130s13.17-21.12,25.69-15.86c0,0-6.39-7.35-20.23-8.6s-22.37,10.54-25.08,14.74C371.94,120.27,385.25,125,391.56,130Z"/></g></g></svg>