<svg xmlns="http://www.w3.org/2000/svg" viewBox="0 0 74.85 53.55"><defs><style>.cls-1{fill:#fff;}.cls-2{fill:#4d3224;}.cls-3{fill:#f1d4c2;}</style></defs><title>contact-islands-about-title_1</title><g id="圖層_2" data-name="圖層 2"><g id="聯絡"><rect class="cls-1" width="74.85" height="27.07" rx="1.8" ry="1.8"/><path class="cls-2" d="M24.72,6.36A28.71,28.71,0,0,1,23,10V21.49H21.82v-9.7A16.76,16.76,0,0,1,20,14a6.48,6.48,0,0,0-.67-1.1A19.25,19.25,0,0,0,23.63,6Zm4.9,3.55v2.56h5v1.06h-5v2.7h5.21V17.3H29.62v4.21H28.48V9.91H27.21a18.27,18.27,0,0,1-2.45,3.6,8.78,8.78,0,0,0-.89-.76,18,18,0,0,0,3.77-6.56l1.09.27c-.29.8-.63,1.59-1,2.36H35V9.91Z"/><path class="cls-2" d="M38.93,14.13h6v7.22H43.76v-.77H40v.94H38.93ZM40,15.22v4.27h3.75V15.22Zm10.6-3H41.42V6.68h9.19ZM49.47,7.78H42.53v3.4h6.94Zm3.67,6.35V21.4H52v-.82h-4.1v.94H46.82V14.13ZM52,19.49V15.22h-4.1v4.27Z"/><path class="cls-3" d="M24.54,38.75s.09,0,.12-.07a.73.73,0,0,1,.49-.77c1.81-.69,5.81-.69,6,1.92a.72.72,0,0,1-.54.69A7.53,7.53,0,0,1,24.54,40,.73.73,0,0,1,24.54,38.75Z"/><path class="cls-3" d="M23.3,41.69a14,14,0,0,1,1.71.06.74.74,0,0,1,.7.53.71.71,0,0,1-.33.81,4.23,4.23,0,0,1-1.83.3.6.6,0,0,1-.61-.34A.74.74,0,0,1,23.3,41.69Z"/><path class="cls-3" d="M13.69,39.05l.12-.06a.75.75,0,0,1,.48-.78c1.81-.69,5.82-.68,6,1.92a.73.73,0,0,1-.53.7,7.56,7.56,0,0,1-6-.53A.73.73,0,0,1,13.69,39.05Z"/><path class="cls-3" d="M12.44,42a12.31,12.31,0,0,1,1.72.06.75.75,0,0,1,.7.53.72.72,0,0,1-.34.81,4.47,4.47,0,0,1-1.82.3.64.64,0,0,1-.62-.34A.74.74,0,0,1,12.44,42Z"/><path class="cls-3" d="M12.46,48.41l.12-.06a.74.74,0,0,1,.48-.78c1.81-.69,5.81-.68,6,1.92a.74.74,0,0,1-.53.7,7.56,7.56,0,0,1-6.05-.53A.73.73,0,0,1,12.46,48.41Z"/><path class="cls-3" d="M11.21,51.36a12.36,12.36,0,0,1,1.72.06.73.73,0,0,1,.69.53.7.7,0,0,1-.33.81,4.53,4.53,0,0,1-1.82.3.63.63,0,0,1-.62-.34A.74.74,0,0,1,11.21,51.36Z"/><path class="cls-3" d="M2.51,48.91l.12-.07a.75.75,0,0,1,.49-.78c1.81-.68,5.81-.68,6,1.93a.72.72,0,0,1-.54.69,7.57,7.57,0,0,1-6.05-.53A.73.73,0,0,1,2.51,48.91Z"/><path class="cls-3" d="M1.27,51.85A12.22,12.22,0,0,1,3,51.91a.74.74,0,0,1,.7.53.71.71,0,0,1-.33.81,4.38,4.38,0,0,1-1.83.3.61.61,0,0,1-.61-.34A.74.74,0,0,1,1.27,51.85Z"/></g></g></svg>