<svg xmlns="http://www.w3.org/2000/svg" viewBox="0 0 1918.18 234.25"><defs><style>.cls-1{isolation:isolate;}.cls-2{fill:#a4aaab;}.cls-20,.cls-3,.cls-32,.cls-45{fill:none;}.cls-10,.cls-11,.cls-12,.cls-13,.cls-14,.cls-15,.cls-16,.cls-22,.cls-23,.cls-25,.cls-26,.cls-27,.cls-29,.cls-3,.cls-32,.cls-34,.cls-35,.cls-36,.cls-37,.cls-4,.cls-41,.cls-42,.cls-6,.cls-8{stroke:#4d3224;}.cls-10,.cls-11,.cls-12,.cls-13,.cls-14,.cls-15,.cls-16,.cls-20,.cls-22,.cls-23,.cls-25,.cls-26,.cls-27,.cls-29,.cls-3,.cls-32,.cls-34,.cls-35,.cls-36,.cls-37,.cls-4,.cls-41,.cls-42,.cls-45,.cls-6,.cls-8,.cls-9{stroke-linecap:round;stroke-linejoin:round;}.cls-3{stroke-width:1.5px;}.cls-4{fill:#f1d4c2;}.cls-10,.cls-11,.cls-12,.cls-13,.cls-14,.cls-15,.cls-16,.cls-20,.cls-22,.cls-23,.cls-25,.cls-26,.cls-27,.cls-29,.cls-32,.cls-34,.cls-35,.cls-36,.cls-37,.cls-4,.cls-41,.cls-42,.cls-45,.cls-6,.cls-8,.cls-9{stroke-width:1.31px;}.cls-5{fill:#e0bfa9;}.cls-6{fill:#e0ab8b;}.cls-25,.cls-7{fill:#9a8e80;}.cls-8{fill:#e4967d;}.cls-11,.cls-9{fill:#da8571;}.cls-9{stroke:#da8571;}.cls-10{fill:#da7962;}.cls-12{fill:#805c54;}.cls-13,.cls-44{fill:#80d8d6;}.cls-14{fill:#e6ffff;}.cls-15{fill:#9fc2c4;}.cls-16{fill:#c9e2ff;}.cls-17{fill:#4d3224;}.cls-18{opacity:0.4;}.cls-19{fill:#d0ebea;}.cls-20{stroke:#426e75;}.cls-21{fill:#4e98a0;}.cls-22{fill:#7bb52d;}.cls-23,.cls-38{fill:#ff9563;}.cls-24{fill:#de744c;}.cls-26{fill:#426e75;}.cls-27{fill:#f27e52;}.cls-28,.cls-36{fill:#ffb563;}.cls-29{fill:#659225;}.cls-30{fill:#50a33f;}.cls-31{fill:#479137;}.cls-33{fill:#5ab747;}.cls-34{fill:#d75968;}.cls-35{fill:#c46048;}.cls-37{fill:#a14f3b;}.cls-39{fill:#72a72a;}.cls-40{fill:#8acc2b;}.cls-41{fill:#77c4ce;}.cls-42{fill:#5aabb9;}.cls-43{opacity:0.23;mix-blend-mode:color-dodge;}.cls-45{stroke:#80d8d6;}</style></defs><title>home-city03</title><g class="cls-1"><g id="圖層_2" data-name="圖層 2"><g id="首頁"><rect class="cls-2" x="642.91" y="213.5" width="1274.51" height="20"/><polyline class="cls-3" points="1917.43 213.5 642.91 213.5 642.91 233.5"/><rect class="cls-2" x="0.75" y="213.5" width="150" height="20"/><polyline class="cls-3" points="0.75 213.5 150.75 213.5 150.75 233.5"/><polygon class="cls-4" points="1727.35 112.79 1727.35 106.71 1700.59 106.71 1700.59 112.79 1689.15 112.79 1689.15 221.06 1738.79 221.06 1738.79 112.79 1727.35 112.79"/><rect class="cls-5" x="1725.29" y="113.39" width="6.73" height="106.53"/><rect class="cls-5" x="1712.96" y="113.39" width="6.73" height="106.53"/><rect class="cls-5" x="1700.43" y="113.39" width="6.73" height="106.53"/><rect class="cls-6" x="1687.87" y="106.71" width="53.35" height="6.69"/><rect class="cls-7" x="1702.5" y="129.37" width="2.57" height="2.61"/><polygon class="cls-7" points="1706.99 127.75 1700.59 127.75 1700.59 133.62 1706.99 133.62 1706.99 127.75 1706.99 127.75"/><rect class="cls-7" x="1715.04" y="129.37" width="2.57" height="2.61"/><polygon class="cls-7" points="1719.53 127.75 1713.12 127.75 1713.12 133.62 1719.53 133.62 1719.53 127.75 1719.53 127.75"/><rect class="cls-7" x="1727.57" y="129.37" width="2.57" height="2.61"/><polygon class="cls-7" points="1732.06 127.75 1725.65 127.75 1725.65 133.62 1732.06 133.62 1732.06 127.75 1732.06 127.75"/><rect class="cls-7" x="1702.5" y="140.13" width="2.57" height="2.61"/><polygon class="cls-7" points="1706.99 138.5 1700.59 138.5 1700.59 144.37 1706.99 144.37 1706.99 138.5 1706.99 138.5"/><rect class="cls-7" x="1715.04" y="140.13" width="2.57" height="2.61"/><polygon class="cls-7" points="1719.53 138.5 1713.12 138.5 1713.12 144.37 1719.53 144.37 1719.53 138.5 1719.53 138.5"/><rect class="cls-7" x="1727.57" y="140.13" width="2.57" height="2.61"/><polygon class="cls-7" points="1732.06 138.5 1725.65 138.5 1725.65 144.37 1732.06 144.37 1732.06 138.5 1732.06 138.5"/><rect class="cls-7" x="1702.5" y="150.89" width="2.57" height="2.61"/><polygon class="cls-7" points="1706.99 149.26 1700.59 149.26 1700.59 155.13 1706.99 155.13 1706.99 149.26 1706.99 149.26"/><rect class="cls-7" x="1715.04" y="150.89" width="2.57" height="2.61"/><polygon class="cls-7" points="1719.53 149.26 1713.12 149.26 1713.12 155.13 1719.53 155.13 1719.53 149.26 1719.53 149.26"/><rect class="cls-7" x="1727.57" y="150.89" width="2.57" height="2.61"/><polygon class="cls-7" points="1732.06 149.26 1725.65 149.26 1725.65 155.13 1732.06 155.13 1732.06 149.26 1732.06 149.26"/><rect class="cls-7" x="1702.5" y="161.65" width="2.57" height="2.61"/><polygon class="cls-7" points="1706.99 160.02 1700.59 160.02 1700.59 165.89 1706.99 165.89 1706.99 160.02 1706.99 160.02"/><rect class="cls-7" x="1715.04" y="161.65" width="2.57" height="2.61"/><polygon class="cls-7" points="1719.53 160.02 1713.12 160.02 1713.12 165.89 1719.53 165.89 1719.53 160.02 1719.53 160.02"/><rect class="cls-7" x="1727.57" y="161.65" width="2.57" height="2.61"/><polygon class="cls-7" points="1732.06 160.02 1725.65 160.02 1725.65 165.89 1732.06 165.89 1732.06 160.02 1732.06 160.02"/><rect class="cls-7" x="1702.5" y="172.41" width="2.57" height="2.61"/><polygon class="cls-7" points="1706.99 170.78 1700.59 170.78 1700.59 176.65 1706.99 176.65 1706.99 170.78 1706.99 170.78"/><rect class="cls-7" x="1715.04" y="172.41" width="2.57" height="2.61"/><polygon class="cls-7" points="1719.53 170.78 1713.12 170.78 1713.12 176.65 1719.53 176.65 1719.53 170.78 1719.53 170.78"/><rect class="cls-7" x="1727.57" y="172.41" width="2.57" height="2.61"/><polygon class="cls-7" points="1732.06 170.78 1725.65 170.78 1725.65 176.65 1732.06 176.65 1732.06 170.78 1732.06 170.78"/><rect class="cls-7" x="1702.5" y="183.17" width="2.57" height="2.61"/><polygon class="cls-7" points="1706.99 181.54 1700.59 181.54 1700.59 187.41 1706.99 187.41 1706.99 181.54 1706.99 181.54"/><rect class="cls-7" x="1715.04" y="183.17" width="2.57" height="2.61"/><polygon class="cls-7" points="1719.53 181.54 1713.12 181.54 1713.12 187.41 1719.53 187.41 1719.53 181.54 1719.53 181.54"/><rect class="cls-7" x="1727.57" y="183.17" width="2.57" height="2.61"/><polygon class="cls-7" points="1732.06 181.54 1725.65 181.54 1725.65 187.41 1732.06 187.41 1732.06 181.54 1732.06 181.54"/><polygon class="cls-8" points="1692.7 77.24 1692.7 64.99 1684.97 64.99 1684.97 53.72 1679.27 53.72 1679.27 44.26 1675.6 44.26 1675.6 34.12 1667.38 34.12 1667.38 12.74 1664.86 12.74 1664.86 34.12 1656.63 34.12 1656.63 44.26 1652.96 44.26 1652.96 53.72 1647.26 53.72 1647.26 64.99 1639.53 64.99 1639.53 77.24 1631.51 77.24 1631.51 221.06 1700.72 221.06 1700.72 77.24 1692.7 77.24"/><rect class="cls-9" x="1648.46" y="92.93" width="4.04" height="106.05"/><rect class="cls-9" x="1658.85" y="92.93" width="4.04" height="106.05"/><rect class="cls-9" x="1669.23" y="92.93" width="4.04" height="106.05"/><rect class="cls-9" x="1679.62" y="92.93" width="4.04" height="106.05"/><rect class="cls-10" x="1656.63" y="34.12" width="18.96" height="10.14"/><rect class="cls-10" x="1647.15" y="53.72" width="37.81" height="11.27"/><rect class="cls-11" x="1653.1" y="44.26" width="26.17" height="9.46"/><rect class="cls-11" x="1640.01" y="64.55" width="52.69" height="12.69"/><rect class="cls-12" x="1649.61" y="89.01" width="1.13" height="103.39"/><polygon class="cls-12" points="1652.19 87.68 1648.15 87.68 1648.15 193.73 1652.19 193.73 1652.19 87.68 1652.19 87.68"/><rect class="cls-12" x="1659.99" y="89.01" width="1.13" height="103.39"/><polygon class="cls-12" points="1662.58 87.68 1658.54 87.68 1658.54 193.73 1662.58 193.73 1662.58 87.68 1662.58 87.68"/><rect class="cls-12" x="1670.38" y="89.01" width="1.13" height="103.39"/><polygon class="cls-12" points="1672.97 87.68 1668.93 87.68 1668.93 193.73 1672.97 193.73 1672.97 87.68 1672.97 87.68"/><rect class="cls-12" x="1680.77" y="89.01" width="1.13" height="103.39"/><polygon class="cls-12" points="1683.35 87.68 1679.31 87.68 1679.31 193.73 1683.35 193.73 1683.35 87.68 1683.35 87.68"/><rect class="cls-13" x="1702.5" y="126.93" width="2.57" height="2.61"/><polygon class="cls-13" points="1706.99 125.3 1700.59 125.3 1700.59 131.17 1706.99 131.17 1706.99 125.3 1706.99 125.3"/><rect class="cls-13" x="1715.04" y="126.93" width="2.57" height="2.61"/><polygon class="cls-13" points="1719.53 125.3 1713.12 125.3 1713.12 131.17 1719.53 131.17 1719.53 125.3 1719.53 125.3"/><rect class="cls-13" x="1727.57" y="126.93" width="2.57" height="2.61"/><polygon class="cls-13" points="1732.06 125.3 1725.65 125.3 1725.65 131.17 1732.06 131.17 1732.06 125.3 1732.06 125.3"/><rect class="cls-13" x="1702.5" y="137.69" width="2.57" height="2.61"/><polygon class="cls-13" points="1706.99 136.06 1700.59 136.06 1700.59 141.93 1706.99 141.93 1706.99 136.06 1706.99 136.06"/><rect class="cls-13" x="1715.04" y="137.69" width="2.57" height="2.61"/><polygon class="cls-13" points="1719.53 136.06 1713.12 136.06 1713.12 141.93 1719.53 141.93 1719.53 136.06 1719.53 136.06"/><rect class="cls-13" x="1727.57" y="137.69" width="2.57" height="2.61"/><polygon class="cls-13" points="1732.06 136.06 1725.65 136.06 1725.65 141.93 1732.06 141.93 1732.06 136.06 1732.06 136.06"/><rect class="cls-13" x="1702.5" y="148.45" width="2.57" height="2.61"/><polygon class="cls-13" points="1706.99 146.82 1700.59 146.82 1700.59 152.69 1706.99 152.69 1706.99 146.82 1706.99 146.82"/><rect class="cls-13" x="1715.04" y="148.45" width="2.57" height="2.61"/><polygon class="cls-13" points="1719.53 146.82 1713.12 146.82 1713.12 152.69 1719.53 152.69 1719.53 146.82 1719.53 146.82"/><rect class="cls-13" x="1727.57" y="148.45" width="2.57" height="2.61"/><polygon class="cls-13" points="1732.06 146.82 1725.65 146.82 1725.65 152.69 1732.06 152.69 1732.06 146.82 1732.06 146.82"/><rect class="cls-13" x="1702.5" y="159.21" width="2.57" height="2.61"/><polygon class="cls-13" points="1706.99 157.58 1700.59 157.58 1700.59 163.44 1706.99 163.44 1706.99 157.58 1706.99 157.58"/><rect class="cls-13" x="1715.04" y="159.21" width="2.57" height="2.61"/><polygon class="cls-13" points="1719.53 157.58 1713.12 157.58 1713.12 163.44 1719.53 163.44 1719.53 157.58 1719.53 157.58"/><rect class="cls-13" x="1727.57" y="159.21" width="2.57" height="2.61"/><polygon class="cls-13" points="1732.06 157.58 1725.65 157.58 1725.65 163.44 1732.06 163.44 1732.06 157.58 1732.06 157.58"/><rect class="cls-13" x="1702.5" y="169.96" width="2.57" height="2.61"/><polygon class="cls-13" points="1706.99 168.33 1700.59 168.33 1700.59 174.2 1706.99 174.2 1706.99 168.33 1706.99 168.33"/><rect class="cls-13" x="1715.04" y="169.96" width="2.57" height="2.61"/><polygon class="cls-13" points="1719.53 168.33 1713.12 168.33 1713.12 174.2 1719.53 174.2 1719.53 168.33 1719.53 168.33"/><rect class="cls-13" x="1727.57" y="169.96" width="2.57" height="2.61"/><polygon class="cls-13" points="1732.06 168.33 1725.65 168.33 1725.65 174.2 1732.06 174.2 1732.06 168.33 1732.06 168.33"/><rect class="cls-13" x="1702.5" y="180.72" width="2.57" height="2.61"/><polygon class="cls-13" points="1706.99 179.09 1700.59 179.09 1700.59 184.96 1706.99 184.96 1706.99 179.09 1706.99 179.09"/><rect class="cls-13" x="1715.04" y="180.72" width="2.57" height="2.61"/><polygon class="cls-13" points="1719.53 179.09 1713.12 179.09 1713.12 184.96 1719.53 184.96 1719.53 179.09 1719.53 179.09"/><rect class="cls-13" x="1727.57" y="180.72" width="2.57" height="2.61"/><polygon class="cls-13" points="1732.06 179.09 1725.65 179.09 1725.65 184.96 1732.06 184.96 1732.06 179.09 1732.06 179.09"/><rect class="cls-14" x="1374.44" y="61.32" width="20.24" height="16.68"/><rect class="cls-15" x="1373.75" y="59.64" width="21.62" height="1.68"/><rect class="cls-16" x="1365.53" y="71.41" width="38.05" height="16.69"/><rect class="cls-15" x="1364.39" y="69.32" width="40.34" height="2.09"/><rect class="cls-14" x="1351.01" y="84.16" width="67.09" height="136.9"/><rect class="cls-15" x="1349.81" y="81.53" width="69.5" height="2.63"/><path class="cls-13" d="M1397.71,72.84a3,3,0,0,1,3,3v5.66h-5.9V75.87A3,3,0,0,1,1397.71,72.84Z"/><path class="cls-13" d="M1388.94,72.84a3,3,0,0,1,3,3v5.66H1386V75.87A3,3,0,0,1,1388.94,72.84Z"/><path class="cls-13" d="M1380.18,72.84a3,3,0,0,1,3,3v5.66h-5.9V75.87A3,3,0,0,1,1380.18,72.84Z"/><path class="cls-13" d="M1371.42,72.84a3,3,0,0,1,2.94,3v5.66h-5.89V75.87A3,3,0,0,1,1371.42,72.84Z"/><rect class="cls-17" x="1391.89" y="60.92" width="1" height="8.74"/><rect class="cls-17" x="1386.76" y="60.92" width="1" height="8.74"/><rect class="cls-17" x="1381.62" y="60.92" width="1" height="8.74"/><rect class="cls-17" x="1376.48" y="60.92" width="1" height="8.74"/><rect class="cls-13" x="1369.46" y="197.95" width="30.66" height="23.1" transform="translate(2769.58 419.01) rotate(180)"/><g class="cls-18"><polygon class="cls-19" points="1375.74 199.21 1375.74 198.69 1377.96 198.69 1398.39 220.32 1395.67 220.32 1375.74 199.21"/><polygon class="cls-19" points="1399.55 212.26 1399.55 218.47 1380.87 198.69 1386.73 198.69 1399.55 212.26"/></g><line class="cls-20" x1="1384.56" y1="198.7" x2="1384.56" y2="220.44"/><polygon class="cls-21" points="1411.57 103.13 1410.5 103.13 1410.5 103.17 1403.34 103.17 1403.34 103.13 1403.34 90.42 1403.34 89.72 1411.57 89.72 1411.57 103.13"/><polygon class="cls-21" points="1400.12 103.07 1399.05 103.07 1399.05 103.1 1391.89 103.1 1391.89 103.07 1391.89 90.35 1391.89 89.65 1400.12 89.65 1400.12 103.07"/><polygon class="cls-21" points="1377.23 103.07 1376.16 103.07 1376.16 103.1 1369 103.1 1369 103.07 1369 90.35 1369 89.65 1377.23 89.65 1377.23 103.07"/><polygon class="cls-21" points="1365.78 89.72 1365.78 103.13 1364.71 103.13 1364.71 103.17 1357.56 103.17 1357.56 103.13 1357.56 90.42 1357.56 89.72 1365.78 89.72"/><polygon class="cls-21" points="1387.6 103.17 1380.45 103.17 1380.45 103.13 1380.45 90.42 1380.45 89.72 1388.67 89.72 1388.67 103.13 1387.6 103.13 1387.6 103.17"/><polygon class="cls-21" points="1411.57 121.61 1410.5 121.61 1410.5 121.65 1403.34 121.65 1403.34 121.61 1403.34 108.9 1403.34 108.19 1411.57 108.19 1411.57 121.61"/><polygon class="cls-21" points="1400.12 121.55 1399.05 121.55 1399.05 121.58 1391.89 121.58 1391.89 121.55 1391.89 108.83 1391.89 108.13 1400.12 108.13 1400.12 121.55"/><polygon class="cls-21" points="1377.23 121.55 1376.16 121.55 1376.16 121.58 1369 121.58 1369 121.55 1369 108.83 1369 108.13 1377.23 108.13 1377.23 121.55"/><polygon class="cls-21" points="1365.78 108.19 1365.78 121.61 1364.71 121.61 1364.71 121.65 1357.56 121.65 1357.56 121.61 1357.56 108.9 1357.56 108.19 1365.78 108.19"/><polygon class="cls-21" points="1387.6 121.65 1380.45 121.65 1380.45 121.61 1380.45 108.9 1380.45 108.19 1388.67 108.19 1388.67 121.61 1387.6 121.61 1387.6 121.65"/><polygon class="cls-21" points="1411.57 140.09 1410.5 140.09 1410.5 140.13 1403.34 140.13 1403.34 140.09 1403.34 127.37 1403.34 126.67 1411.57 126.67 1411.57 140.09"/><polygon class="cls-21" points="1400.12 140.02 1399.05 140.02 1399.05 140.06 1391.89 140.06 1391.89 140.02 1391.89 127.31 1391.89 126.61 1400.12 126.61 1400.12 140.02"/><polygon class="cls-21" points="1377.23 140.02 1376.16 140.02 1376.16 140.06 1369 140.06 1369 140.02 1369 127.31 1369 126.61 1377.23 126.61 1377.23 140.02"/><polygon class="cls-21" points="1365.78 126.67 1365.78 140.09 1364.71 140.09 1364.71 140.13 1357.56 140.13 1357.56 140.09 1357.56 127.37 1357.56 126.67 1365.78 126.67"/><polygon class="cls-21" points="1387.6 140.13 1380.45 140.13 1380.45 140.09 1380.45 127.37 1380.45 126.67 1388.67 126.67 1388.67 140.09 1387.6 140.09 1387.6 140.13"/><polygon class="cls-21" points="1411.57 158.57 1410.5 158.57 1410.5 158.61 1403.34 158.61 1403.34 158.57 1403.34 145.85 1403.34 145.15 1411.57 145.15 1411.57 158.57"/><polygon class="cls-21" points="1400.12 158.5 1399.05 158.5 1399.05 158.54 1391.89 158.54 1391.89 158.5 1391.89 145.79 1391.89 145.09 1400.12 145.09 1400.12 158.5"/><polygon class="cls-21" points="1377.23 158.5 1376.16 158.5 1376.16 158.54 1369 158.54 1369 158.5 1369 145.79 1369 145.09 1377.23 145.09 1377.23 158.5"/><polygon class="cls-21" points="1365.78 145.15 1365.78 158.57 1364.71 158.57 1364.71 158.61 1357.56 158.61 1357.56 158.57 1357.56 145.85 1357.56 145.15 1365.78 145.15"/><polygon class="cls-21" points="1387.6 158.61 1380.45 158.61 1380.45 158.57 1380.45 145.85 1380.45 145.15 1388.67 145.15 1388.67 158.57 1387.6 158.57 1387.6 158.61"/><polygon class="cls-21" points="1411.57 177.05 1410.5 177.05 1410.5 177.09 1403.34 177.09 1403.34 177.05 1403.34 164.33 1403.34 163.63 1411.57 163.63 1411.57 177.05"/><polygon class="cls-21" points="1400.12 176.98 1399.05 176.98 1399.05 177.02 1391.89 177.02 1391.89 176.98 1391.89 164.27 1391.89 163.56 1400.12 163.56 1400.12 176.98"/><polygon class="cls-21" points="1377.23 176.98 1376.16 176.98 1376.16 177.02 1369 177.02 1369 176.98 1369 164.27 1369 163.56 1377.23 163.56 1377.23 176.98"/><polygon class="cls-21" points="1365.78 163.63 1365.78 177.05 1364.71 177.05 1364.71 177.09 1357.56 177.09 1357.56 177.05 1357.56 164.33 1357.56 163.63 1365.78 163.63"/><polygon class="cls-21" points="1387.6 177.09 1380.45 177.09 1380.45 177.05 1380.45 164.33 1380.45 163.63 1388.67 163.63 1388.67 177.05 1387.6 177.05 1387.6 177.09"/><polygon class="cls-21" points="1411.57 195.53 1410.5 195.53 1410.5 195.57 1403.34 195.57 1403.34 195.53 1403.34 182.81 1403.34 182.11 1411.57 182.11 1411.57 195.53"/><polygon class="cls-21" points="1400.12 195.46 1399.05 195.46 1399.05 195.5 1391.89 195.5 1391.89 195.46 1391.89 182.75 1391.89 182.04 1400.12 182.04 1400.12 195.46"/><polygon class="cls-21" points="1377.23 195.46 1376.16 195.46 1376.16 195.5 1369 195.5 1369 195.46 1369 182.75 1369 182.04 1377.23 182.04 1377.23 195.46"/><polygon class="cls-21" points="1365.78 182.11 1365.78 195.53 1364.71 195.53 1364.71 195.57 1357.56 195.57 1357.56 195.53 1357.56 182.81 1357.56 182.11 1365.78 182.11"/><polygon class="cls-21" points="1387.6 195.57 1380.45 195.57 1380.45 195.53 1380.45 182.81 1380.45 182.11 1388.67 182.11 1388.67 195.53 1387.6 195.53 1387.6 195.57"/><polygon class="cls-13" points="1411.57 101.29 1410.5 101.29 1410.5 101.32 1403.34 101.32 1403.34 101.29 1403.34 88.57 1403.34 87.87 1411.57 87.87 1411.57 101.29"/><polygon class="cls-13" points="1400.12 101.22 1399.05 101.22 1399.05 101.25 1391.89 101.25 1391.89 101.22 1391.89 88.51 1391.89 87.8 1400.12 87.8 1400.12 101.22"/><polygon class="cls-13" points="1377.23 101.22 1376.16 101.22 1376.16 101.25 1369 101.25 1369 101.22 1369 88.51 1369 87.8 1377.23 87.8 1377.23 101.22"/><polygon class="cls-13" points="1365.78 87.87 1365.78 101.29 1364.71 101.29 1364.71 101.32 1357.56 101.32 1357.56 101.29 1357.56 88.57 1357.56 87.87 1365.78 87.87"/><polygon class="cls-13" points="1387.6 101.32 1380.45 101.32 1380.45 101.29 1380.45 88.57 1380.45 87.87 1388.67 87.87 1388.67 101.29 1387.6 101.29 1387.6 101.32"/><polygon class="cls-13" points="1411.57 119.77 1410.5 119.77 1410.5 119.8 1403.34 119.8 1403.34 119.77 1403.34 107.05 1403.34 106.35 1411.57 106.35 1411.57 119.77"/><polygon class="cls-13" points="1400.12 119.7 1399.05 119.7 1399.05 119.73 1391.89 119.73 1391.89 119.7 1391.89 106.98 1391.89 106.28 1400.12 106.28 1400.12 119.7"/><polygon class="cls-13" points="1377.23 119.7 1376.16 119.7 1376.16 119.73 1369 119.73 1369 119.7 1369 106.98 1369 106.28 1377.23 106.28 1377.23 119.7"/><polygon class="cls-13" points="1365.78 106.35 1365.78 119.77 1364.71 119.77 1364.71 119.8 1357.56 119.8 1357.56 119.77 1357.56 107.05 1357.56 106.35 1365.78 106.35"/><polygon class="cls-13" points="1387.6 119.8 1380.45 119.8 1380.45 119.77 1380.45 107.05 1380.45 106.35 1388.67 106.35 1388.67 119.77 1387.6 119.77 1387.6 119.8"/><polygon class="cls-13" points="1411.57 138.24 1410.5 138.24 1410.5 138.28 1403.34 138.28 1403.34 138.24 1403.34 125.53 1403.34 124.83 1411.57 124.83 1411.57 138.24"/><polygon class="cls-13" points="1400.12 138.18 1399.05 138.18 1399.05 138.21 1391.89 138.21 1391.89 138.18 1391.89 125.46 1391.89 124.76 1400.12 124.76 1400.12 138.18"/><polygon class="cls-13" points="1377.23 138.18 1376.16 138.18 1376.16 138.21 1369 138.21 1369 138.18 1369 125.46 1369 124.76 1377.23 124.76 1377.23 138.18"/><polygon class="cls-13" points="1365.78 124.83 1365.78 138.24 1364.71 138.24 1364.71 138.28 1357.56 138.28 1357.56 138.24 1357.56 125.53 1357.56 124.83 1365.78 124.83"/><polygon class="cls-13" points="1387.6 138.28 1380.45 138.28 1380.45 138.24 1380.45 125.53 1380.45 124.83 1388.67 124.83 1388.67 138.24 1387.6 138.24 1387.6 138.28"/><polygon class="cls-13" points="1411.57 156.72 1410.5 156.72 1410.5 156.76 1403.34 156.76 1403.34 156.72 1403.34 144 1403.34 143.3 1411.57 143.3 1411.57 156.72"/><polygon class="cls-13" points="1400.12 156.66 1399.05 156.66 1399.05 156.69 1391.89 156.69 1391.89 156.66 1391.89 143.94 1391.89 143.24 1400.12 143.24 1400.12 156.66"/><polygon class="cls-13" points="1377.23 156.66 1376.16 156.66 1376.16 156.69 1369 156.69 1369 156.66 1369 143.94 1369 143.24 1377.23 143.24 1377.23 156.66"/><polygon class="cls-13" points="1365.78 143.3 1365.78 156.72 1364.71 156.72 1364.71 156.76 1357.56 156.76 1357.56 156.72 1357.56 144 1357.56 143.3 1365.78 143.3"/><polygon class="cls-13" points="1387.6 156.76 1380.45 156.76 1380.45 156.72 1380.45 144 1380.45 143.3 1388.67 143.3 1388.67 156.72 1387.6 156.72 1387.6 156.76"/><polygon class="cls-13" points="1411.57 175.2 1410.5 175.2 1410.5 175.24 1403.34 175.24 1403.34 175.2 1403.34 162.48 1403.34 161.78 1411.57 161.78 1411.57 175.2"/><polygon class="cls-13" points="1400.12 175.13 1399.05 175.13 1399.05 175.17 1391.89 175.17 1391.89 175.13 1391.89 162.42 1391.89 161.72 1400.12 161.72 1400.12 175.13"/><polygon class="cls-13" points="1377.23 175.13 1376.16 175.13 1376.16 175.17 1369 175.17 1369 175.13 1369 162.42 1369 161.72 1377.23 161.72 1377.23 175.13"/><polygon class="cls-13" points="1365.78 161.78 1365.78 175.2 1364.71 175.2 1364.71 175.24 1357.56 175.24 1357.56 175.2 1357.56 162.48 1357.56 161.78 1365.78 161.78"/><polygon class="cls-13" points="1387.6 175.24 1380.45 175.24 1380.45 175.2 1380.45 162.48 1380.45 161.78 1388.67 161.78 1388.67 175.2 1387.6 175.2 1387.6 175.24"/><polygon class="cls-13" points="1411.57 193.68 1410.5 193.68 1410.5 193.72 1403.34 193.72 1403.34 193.68 1403.34 180.96 1403.34 180.26 1411.57 180.26 1411.57 193.68"/><polygon class="cls-13" points="1400.12 193.61 1399.05 193.61 1399.05 193.65 1391.89 193.65 1391.89 193.61 1391.89 180.9 1391.89 180.19 1400.12 180.19 1400.12 193.61"/><polygon class="cls-13" points="1377.23 193.61 1376.16 193.61 1376.16 193.65 1369 193.65 1369 193.61 1369 180.9 1369 180.19 1377.23 180.19 1377.23 193.61"/><polygon class="cls-13" points="1365.78 180.26 1365.78 193.68 1364.71 193.68 1364.71 193.72 1357.56 193.72 1357.56 193.68 1357.56 180.96 1357.56 180.26 1365.78 180.26"/><polygon class="cls-13" points="1387.6 193.72 1380.45 193.72 1380.45 193.68 1380.45 180.96 1380.45 180.26 1388.67 180.26 1388.67 193.68 1387.6 193.68 1387.6 193.72"/><path class="cls-22" d="M121.38,220.8a2.16,2.16,0,0,0,.92-2.65c-.53-1.22-1.09-.59-1.84-.07.54-2.25.52-6.13-.9-7.93-1.21-1.53-3.59.26-4.4,1.79-.63-1-.93-2.28-2.25-2.13-.82.09-1.26,1-2,1.3.55-2.25-.64-6.31-2.59-7.08-2.38-.91-3.24,2.25-3.24,4.4-.79-3.57-3-.43-3.86,1.15-.53-.58-.78-1.6-1.69-1.32-.59.19-1.06,1.26-1.18,1.93-.33-2.48-3-6.11-5.25-5.31s-2.14,3.52-2.18,5.75c-.61-1.53-2.79-1.3-3.61-.22a5,5,0,0,0,0,4.59c-1.11-1.14-2.17-3.41-3.86-2.47-2.19,1.2-.55,3.93-.15,5.78-.25-1.11-3.44-.91-3.6.4-.14,1.13,1.63,2,2.5,2.09Z"/><path class="cls-23" d="M79.59,71.05c12,0,21.77,10.7,21.77,23.91H57.82C57.82,81.75,67.57,71.05,79.59,71.05Z"/><path class="cls-24" d="M77.64,91.4c0,9.16,1,16.59,2.17,16.59S82,100.56,82,91.4s-1-16.57-2.16-16.57S77.64,82.25,77.64,91.4Z"/><path class="cls-24" d="M87.67,91.4c0,9.32-2.28,16.9-1.14,17.39s5.52-7,5.48-17.39S87.55,73.47,86.53,74,87.67,82.09,87.67,91.4Z"/><path class="cls-24" d="M71.94,91.4c0,9.32,2.28,16.9,1.14,17.39s-5.52-7-5.48-17.39S72.06,73.47,73.08,74,71.94,82.09,71.94,91.4Z"/><polygon class="cls-4" points="58.18 104.88 51.89 104.88 51.89 221.06 106.14 221.06 106.14 104.88 99.86 104.88 58.18 104.88"/><rect class="cls-5" x="88.31" y="105.52" width="6.26" height="65.1" transform="translate(182.88 276.15) rotate(180)"/><rect class="cls-5" x="76.06" y="105.52" width="6.26" height="65.1" transform="translate(158.37 276.15) rotate(180)"/><rect class="cls-5" x="63.8" y="105.52" width="6.26" height="65.1" transform="translate(133.86 276.15) rotate(180)"/><rect class="cls-25" x="51.89" y="178.33" width="54.26" height="42.72" transform="translate(158.03 399.39) rotate(180)"/><polygon class="cls-13" points="69.24 134.94 63.8 134.94 63.8 134.88 63.8 116.42 63.8 115.41 70.06 115.41 70.06 134.88 69.24 134.88 69.24 134.94"/><polygon class="cls-13" points="69.24 161.28 63.8 161.28 63.8 161.23 63.8 142.77 63.8 141.75 70.06 141.75 70.06 161.23 69.24 161.23 69.24 161.28"/><polygon class="cls-13" points="81.5 134.94 76.06 134.94 76.06 134.88 76.06 116.42 76.06 115.41 82.31 115.41 82.31 134.88 81.5 134.88 81.5 134.94"/><polygon class="cls-13" points="81.49 161.28 76.05 161.28 76.05 161.23 76.05 142.77 76.05 141.75 82.31 141.75 82.31 161.23 81.49 161.23 81.49 161.28"/><polygon class="cls-13" points="93.75 134.94 88.31 134.94 88.31 134.88 88.31 116.42 88.31 115.41 94.57 115.41 94.57 134.88 93.75 134.88 93.75 134.94"/><polygon class="cls-13" points="93.75 161.28 88.31 161.28 88.31 161.23 88.31 142.77 88.31 141.75 94.56 141.75 94.56 161.23 93.75 161.23 93.75 161.28"/><rect class="cls-13" x="56.96" y="185.4" width="44.08" height="35.66" transform="translate(158.01 406.45) rotate(180)"/><rect class="cls-26" x="50.05" y="178.33" width="57.39" height="6.92" transform="translate(157.48 363.58) rotate(180)"/><rect class="cls-27" x="50.49" y="97.96" width="57.39" height="6.92" transform="translate(158.37 202.84) rotate(180)"/><rect class="cls-23" x="48.32" y="95.58" width="62.2" height="2.38" transform="translate(158.83 193.54) rotate(180)"/><rect class="cls-23" x="51.89" y="171.27" width="54.26" height="7.06" transform="translate(158.03 349.6) rotate(180)"/><rect class="cls-28" x="52.63" y="172.12" width="52.81" height="2.29" transform="translate(158.06 346.53) rotate(180)"/><line class="cls-20" x1="100.4" y1="197.46" x2="57.18" y2="197.46"/><line class="cls-20" x1="92.01" y1="185.4" x2="92.01" y2="220.8"/><line class="cls-20" x1="79.03" y1="185.4" x2="79.03" y2="220.8"/><g class="cls-18"><polygon class="cls-19" points="62.47 186.88 62.47 186.04 66.04 186.04 98.86 220.8 94.5 220.8 62.47 186.88"/><polygon class="cls-19" points="100.74 207.86 100.74 217.83 70.71 186.04 80.13 186.04 100.74 207.86"/></g><path class="cls-29" d="M1118.37,220.76a1.59,1.59,0,0,1-.68-2c.39-.9.81-.44,1.36-.05-.4-1.67-.38-4.55.67-5.88.9-1.13,2.66.19,3.26,1.32.47-.74.69-1.68,1.67-1.58.61.07.94.77,1.51,1-.4-1.67.47-4.68,1.93-5.25,1.76-.68,2.4,1.67,2.4,3.26.58-2.64,2.23-.32,2.86.85.39-.43.57-1.18,1.25-1,.44.14.79.93.87,1.43.25-1.84,2.22-4.54,3.9-3.94s1.59,2.61,1.61,4.26c.46-1.13,2.08-1,2.69-.16a3.71,3.71,0,0,1,0,3.4c.82-.85,1.61-2.53,2.86-1.83,1.62.89.41,2.91.12,4.29.18-.83,2.54-.68,2.66.29s-1.2,1.48-1.85,1.55Z"/><path class="cls-30" d="M1147.07,203.05c.53.2,1.23.79,1.13,2.42-.22,3.84-3,6.07-7.89,6.44a6.07,6.07,0,0,1-3.18-.95,7.21,7.21,0,0,1-5.11.78c-4.36-1-7.12-3.37-7.51-8a4.56,4.56,0,0,1,2-3.88s-2-2.14-1.45-4.68,4-6,8.13-5.09c5.11-5,19.5.68,15.46,11.14C1148.26,202.34,1146.91,203,1147.07,203.05Z"/><path class="cls-31" d="M1147.07,203.05c.53.2,1.23.79,1.13,2.42-.22,3.84-3,6.07-7.89,6.44a6.07,6.07,0,0,1-3.18-.95,7.21,7.21,0,0,1-5.11.78c-3.91-.89-6.39-2.85-7.23-6.3,1.76,2.38,4.76,4,6,1.27.7,3.93,11,3.5,10.69-.24,2.13.87,4.81-1.82,2.76-3.54,2.66,0,4.38-3.76,4.91-7.19a9,9,0,0,1-.43,5.54C1148.26,202.34,1146.91,203,1147.07,203.05Z"/><path class="cls-32" d="M1147.07,203.05c.53.2,1.23.79,1.13,2.42-.22,3.84-3,6.07-7.89,6.44a6.07,6.07,0,0,1-3.18-.95,7.21,7.21,0,0,1-5.11.78c-4.36-1-7.12-3.37-7.51-8a4.56,4.56,0,0,1,2-3.88s-2-2.14-1.45-4.68,4-6,8.13-5.09c5.11-5,19.5.68,15.46,11.14C1148.26,202.34,1146.91,203,1147.07,203.05Z"/><path class="cls-17" d="M1133.16,208.37s3.44.67,3.44,5.91.19,5.37.19,5.37a2.58,2.58,0,0,1-1.36,1.22c-.6.22-.29.14,1.9.14,1.63,0,2.27.14,1.87-.07s-1.09-.66-1.12-1.22c-.12-2.3-.75-6.16,0-8.51s3.92-3.16,3.62-3.44-3.45,2-3.63,1.92a34.18,34.18,0,0,1,1.29-4.65c.27-.81-.44-.3-.67.28a42.13,42.13,0,0,1-1.46,4.24c-.27.16-1.14-5.19-1.56-5.36s-.38.12-.38.61,1.61,4.41,1.16,4.59-2.13-1.19-2.85-1.37S1133.16,208.37,1133.16,208.37Z"/><path class="cls-33" d="M1137.59,193.27a1.35,1.35,0,0,1,.33.34,1.61,1.61,0,0,1,.32.87,2.22,2.22,0,0,1-.09.75.72.72,0,0,1-.3.44c-.15.08-.36,0-.54-.21a1.65,1.65,0,0,1-.3-1,1.57,1.57,0,0,1,.3-.88C1137.46,193.42,1137.59,193.27,1137.59,193.27Z"/><path class="cls-33" d="M1139.49,193.44a1.62,1.62,0,0,1,.18,1.16c-.18.55-.54.92-.82.83s-.36-.61-.18-1.16A1.62,1.62,0,0,1,1139.49,193.44Z"/><path class="cls-33" d="M1141.43,194.47a1.69,1.69,0,0,1,0,.42,1.36,1.36,0,0,1-.35.75c-.4.41-.83.59-1.1.43s-.12-.75.33-1.2a1.31,1.31,0,0,1,.72-.35A2.2,2.2,0,0,1,1141.43,194.47Z"/><path class="cls-33" d="M1142.15,196.41a1.4,1.4,0,0,1-.68.68c-.43.18-.85.15-1-.07s.18-.56.65-.75A1.29,1.29,0,0,1,1142.15,196.41Z"/><path class="cls-33" d="M1135.58,195.08a.94.94,0,0,1,.62.14c.24.16.37.4.3.54s-.36.1-.65-.09A.9.9,0,0,1,1135.58,195.08Z"/><path class="cls-33" d="M1130.33,200.73a.85.85,0,0,1,.28.12,1,1,0,0,1,.4.43,1.48,1.48,0,0,1,.13.46.44.44,0,0,1-.07.33c-.07.09-.2.1-.37,0a1,1,0,0,1-.41-.48,1,1,0,0,1,0-.59A1.55,1.55,0,0,1,1130.33,200.73Z"/><path class="cls-33" d="M1132.88,200.48a.86.86,0,0,1,.09.25.81.81,0,0,1,0,.53c-.13.34-.34.55-.54.52s-.26-.41-.1-.78a.88.88,0,0,1,.34-.39A1.83,1.83,0,0,1,1132.88,200.48Z"/><path class="cls-33" d="M1133.79,201.44a.92.92,0,0,1-.24.57c-.2.21-.46.3-.58.2s0-.37.2-.6A.86.86,0,0,1,1133.79,201.44Z"/><path class="cls-33" d="M1129.59,202.29a.56.56,0,0,1,.4-.07c.18,0,.32.14.31.24s-.19.15-.4.11A.6.6,0,0,1,1129.59,202.29Z"/><path class="cls-22" d="M1310.46,219.42a2.52,2.52,0,0,0,1.06-3.06c-.61-1.4-1.26-.67-2.13-.08.63-2.6.6-7.07-1-9.15-1.39-1.76-4.14.3-5.07,2.07-.73-1.17-1.07-2.63-2.6-2.46-1,.11-1.46,1.18-2.35,1.5.63-2.6-.74-7.28-3-8.17-2.74-1.06-3.74,2.6-3.73,5.08-.92-4.12-3.47-.5-4.46,1.32-.61-.66-.89-1.84-1.94-1.51-.69.21-1.23,1.45-1.36,2.22-.39-2.86-3.46-7.05-6.07-6.13s-2.47,4.07-2.51,6.63c-.71-1.76-3.22-1.49-4.17-.25s-.81,4,0,5.29c-1.29-1.31-2.51-3.93-4.46-2.84-2.52,1.39-.63,4.53-.18,6.66-.28-1.28-4-1-4.15.46-.16,1.31,1.88,2.31,2.89,2.42Z"/><rect class="cls-17" x="1291.01" y="210.7" width="2.68" height="8.8"/><rect class="cls-17" x="1285.53" y="210.7" width="2.68" height="8.8"/><rect class="cls-17" x="1279.45" y="210.7" width="2.69" height="8.8"/><rect class="cls-17" x="1273.99" y="210.71" width="2.68" height="8.8"/><rect class="cls-17" x="1268.48" y="210.71" width="2.68" height="8.8"/><rect class="cls-17" x="1262.36" y="210.71" width="2.69" height="8.8"/><rect class="cls-17" x="1262.36" y="212.61" width="31.33" height="0.83"/><path class="cls-17" d="M1290.69,209.05a1.66,1.66,0,1,0,1.66-1.67A1.66,1.66,0,0,0,1290.69,209.05Z"/><path class="cls-17" d="M1285.21,209.05a1.66,1.66,0,1,0,1.66-1.67A1.66,1.66,0,0,0,1285.21,209.05Z"/><path class="cls-17" d="M1279.13,209.05a1.67,1.67,0,0,0,3.33,0,1.67,1.67,0,1,0-3.33,0Z"/><path class="cls-17" d="M1273.67,209.05a1.67,1.67,0,0,0,3.33,0,1.67,1.67,0,1,0-3.33,0Z"/><path class="cls-17" d="M1268.15,209.05a1.67,1.67,0,1,0,1.67-1.67A1.66,1.66,0,0,0,1268.15,209.05Z"/><path class="cls-17" d="M1262,209.05a1.67,1.67,0,0,0,3.33,0,1.67,1.67,0,1,0-3.33,0Z"/><polygon class="cls-4" points="1219.54 157.08 1219.54 148.56 1205.17 148.56 1205.17 134.75 1203.35 134.75 1203.35 148.56 1189.32 148.56 1189.32 157.08 1143.55 157.08 1143.55 167.92 1147.16 167.92 1147.16 220.5 1261.86 220.5 1261.86 167.92 1265.31 167.92 1265.31 157.08 1219.54 157.08"/><rect class="cls-34" x="1203.35" y="134.75" width="12.73" height="8.6"/><rect class="cls-35" x="1192.78" y="188.92" width="23.42" height="31.57"/><rect class="cls-27" x="1143.55" y="157.08" width="121.76" height="10.84"/><rect class="cls-36" x="1189.32" y="148.56" width="30.86" height="8.52"/><polyline class="cls-35" points="1192.78 188.93 1198.42 195.04 1211.19 195.04 1216.08 188.93"/><line class="cls-35" x1="1198.45" y1="195.04" x2="1198.45" y2="220.5"/><rect class="cls-37" x="1198.42" y="195.04" width="12.76" height="25.46"/><rect class="cls-5" x="1160.14" y="178.09" width="6.98" height="6.98"/><rect class="cls-5" x="1160.14" y="190.88" width="6.98" height="6.98"/><rect class="cls-5" x="1160.14" y="203.67" width="6.98" height="6.98"/><rect class="cls-5" x="1176.46" y="178.09" width="6.98" height="6.98"/><rect class="cls-5" x="1176.46" y="190.88" width="6.98" height="6.98"/><rect class="cls-5" x="1176.46" y="203.67" width="6.98" height="6.98"/><rect class="cls-5" x="1225.42" y="178.09" width="6.98" height="6.98"/><rect class="cls-5" x="1225.42" y="190.88" width="6.98" height="6.98"/><rect class="cls-5" x="1225.42" y="203.67" width="6.98" height="6.98"/><rect class="cls-5" x="1192.78" y="178.09" width="6.98" height="6.98"/><rect class="cls-5" x="1209.1" y="178.09" width="6.98" height="6.98"/><rect class="cls-5" x="1241.74" y="178.09" width="6.98" height="6.98"/><rect class="cls-5" x="1241.74" y="190.88" width="6.98" height="6.98"/><rect class="cls-5" x="1241.74" y="203.67" width="6.98" height="6.98"/><rect class="cls-13" x="1160.14" y="176.13" width="6.98" height="6.98"/><rect class="cls-13" x="1160.14" y="188.92" width="6.98" height="6.98"/><rect class="cls-13" x="1160.14" y="201.72" width="6.98" height="6.98"/><rect class="cls-13" x="1176.46" y="176.13" width="6.98" height="6.98"/><rect class="cls-13" x="1176.46" y="188.92" width="6.98" height="6.98"/><rect class="cls-13" x="1176.46" y="201.72" width="6.98" height="6.98"/><rect class="cls-13" x="1225.42" y="176.13" width="6.98" height="6.98"/><rect class="cls-13" x="1225.42" y="188.92" width="6.98" height="6.98"/><rect class="cls-13" x="1225.42" y="201.72" width="6.98" height="6.98"/><rect class="cls-13" x="1192.78" y="176.13" width="6.98" height="6.98"/><rect class="cls-13" x="1209.1" y="176.13" width="6.98" height="6.98"/><rect class="cls-13" x="1241.74" y="176.13" width="6.98" height="6.98"/><rect class="cls-13" x="1241.74" y="188.92" width="6.98" height="6.98"/><rect class="cls-13" x="1241.74" y="201.72" width="6.98" height="6.98"/><rect class="cls-38" x="1144.34" y="158.02" width="120.13" height="4.48"/><rect class="cls-17" x="1203.35" y="134.75" width="1.82" height="13.81"/><path class="cls-22" d="M1298.33,202.27c-8.37,3.22-10.51.48-13.73-2.5a8.78,8.78,0,0,1-6.21,4.17c-7.66,1-18.32-18-4.57-24.35-2.23-11.46,16.78-13.28,21.76-8.83.91.81,3.82,3.68,3.23,4.9-.35.69,4-1.17,6.92,9.57C1307.92,194.57,1300.85,201.3,1298.33,202.27Z"/><path class="cls-39" d="M1298.33,202.27c-8.37,3.22-10.51.48-13.73-2.5a8.78,8.78,0,0,1-6.21,4.17c-5.86.75-13.48-10.19-10.58-18.22.13,9.22,15.1,15.44,17,7.6,1.33,7,16,4.92,14.33-1.89,3.21,0,5.49-2.86,6.59-6.2.08.3.16.61.23.93C1307.77,193.58,1301.44,201.07,1298.33,202.27Z"/><path class="cls-32" d="M1298.33,202.27c-8.37,3.22-10.51.48-13.73-2.5a8.78,8.78,0,0,1-6.21,4.17c-7.66,1-18.32-18-4.57-24.35-2.23-11.46,16.78-13.28,21.76-8.83.91.81,3.82,3.68,3.23,4.9-.35.69,4-1.17,6.92,9.57C1307.92,194.57,1300.85,201.3,1298.33,202.27Z"/><path class="cls-40" d="M1285,175.18a2.35,2.35,0,0,0-.54.56,2.72,2.72,0,0,0-.53,1.42,3.81,3.81,0,0,0,.15,1.23,1.15,1.15,0,0,0,.5.71c.24.13.58,0,.88-.34a2.75,2.75,0,0,0,.49-1.56,2.47,2.47,0,0,0-.49-1.43C1285.22,175.43,1285,175.18,1285,175.18Z"/><path class="cls-40" d="M1281.89,175.45a2.68,2.68,0,0,0-.3,1.9c.29.9.89,1.52,1.34,1.37s.59-1,.3-1.91A2.64,2.64,0,0,0,1281.89,175.45Z"/><path class="cls-40" d="M1278.72,177.14a2.6,2.6,0,0,0,0,.68,2.24,2.24,0,0,0,.57,1.23c.67.67,1.38,1,1.81.7s.2-1.23-.53-2a2.3,2.3,0,0,0-1.19-.57A3.67,3.67,0,0,0,1278.72,177.14Z"/><path class="cls-40" d="M1277.53,180.31a2.3,2.3,0,0,0,1.12,1.12c.7.29,1.4.25,1.57-.12s-.29-.91-1.06-1.23A2.19,2.19,0,0,0,1277.53,180.31Z"/><path class="cls-40" d="M1288.29,178.14a1.49,1.49,0,0,0-1,.22c-.4.27-.61.67-.49.89s.59.17,1.06-.14A1.44,1.44,0,0,0,1288.29,178.14Z"/><path class="cls-40" d="M1296.89,187.38a1.56,1.56,0,0,0-.46.2,1.77,1.77,0,0,0-.65.7,2.37,2.37,0,0,0-.22.76.77.77,0,0,0,.11.55c.11.13.34.16.61,0a1.72,1.72,0,0,0,.67-.79,1.63,1.63,0,0,0,.07-1C1297,187.59,1296.89,187.38,1296.89,187.38Z"/><path class="cls-40" d="M1292.71,187a1.74,1.74,0,0,0-.15.41,1.41,1.41,0,0,0,0,.86c.23.56.57.91.89.86s.42-.67.17-1.28a1.54,1.54,0,0,0-.56-.64A3.07,3.07,0,0,0,1292.71,187Z"/><path class="cls-40" d="M1291.23,188.55a1.47,1.47,0,0,0,.38.94c.34.34.76.49,1,.32s.06-.61-.32-1A1.43,1.43,0,0,0,1291.23,188.55Z"/><path class="cls-40" d="M1298.1,189.94a1,1,0,0,0-.65-.12c-.3.06-.53.24-.51.4s.3.25.66.18A.94.94,0,0,0,1298.1,189.94Z"/><path class="cls-17" d="M1280,199.43s5.47,1.06,5.47,9.39.29,8.53.29,8.53a4.06,4.06,0,0,1-2.15,1.94c-1,.34-.46.22,3,.22,2.58,0,3.59.23,3-.11-.81-.43-1.73-1-1.78-1.94-.19-3.66-1.19-9.79,0-13.53s6.22-5,5.74-5.46-5.47,3.17-5.75,3.06,1.61-6.09,2-7.39-.7-.48-1.08.44-1.89,6.46-2.32,6.73-1.81-8.24-2.48-8.51-.6.2-.59,1,2.56,7,1.84,7.29-3.39-1.89-4.53-2.17S1280,199.43,1280,199.43Z"/><path class="cls-30" d="M1819.74,183c1.11.43,2.58,1.64,2.37,5-.47,8-6.33,12.63-16.45,13.42-3.17.24-6.62-2-6.62-2a15.12,15.12,0,0,1-10.65,1.63c-9.08-2.07-14.82-7-15.63-16.58-.45-5.07,4.21-8.08,4.21-8.08s-4.29-4.45-3-9.75,8.35-12.53,16.94-10.59c10.64-10.41,40.63,1.41,32.2,23.19C1822.23,181.52,1819.41,182.86,1819.74,183Z"/><path class="cls-31" d="M1819.74,183c1.11.43,2.58,1.64,2.37,5-.47,8-6.33,12.63-16.45,13.42-3.17.24-6.62-2-6.62-2a15.12,15.12,0,0,1-10.65,1.63c-8.15-1.86-13.3-5.94-15.05-13.14,3.67,4.95,9.91,8.29,12.39,2.64,1.46,8.19,23,7.3,22.26-.49,4.45,1.81,10-3.79,5.75-7.38,5.55,0,9.13-7.83,10.24-15a18.78,18.78,0,0,1-.9,11.53C1822.23,181.52,1819.41,182.86,1819.74,183Z"/><path class="cls-32" d="M1819.74,183c1.11.43,2.58,1.64,2.37,5-.47,8-6.33,12.63-16.45,13.42-3.17.24-6.62-2-6.62-2a15.12,15.12,0,0,1-10.65,1.63c-9.08-2.07-14.82-7-15.63-16.58-.45-5.07,4.21-8.08,4.21-8.08s-4.29-4.45-3-9.75,8.35-12.53,16.94-10.59c10.64-10.41,40.63,1.41,32.2,23.19C1822.23,181.52,1819.41,182.86,1819.74,183Z"/><path class="cls-17" d="M1790.77,194.07s7.17,1.39,7.17,12.32.39,11.18.39,11.18a5.38,5.38,0,0,1-2.82,2.55c-1.26.44-.61.28,4,.28,3.39,0,4.72.3,3.89-.14-1.06-.57-2.27-1.37-2.33-2.55-.25-4.79-1.57-12.83-.06-17.73s8.15-6.57,7.53-7.16-7.18,4.15-7.54,4,2.12-8,2.68-9.68-.92-.64-1.41.56-2.47,8.48-3,8.83-2.37-10.81-3.25-11.16-.79.26-.78,1.27,3.36,9.19,2.41,9.56-4.43-2.47-5.94-2.85S1790.77,194.07,1790.77,194.07Z"/><path class="cls-33" d="M1800,162.63a2.93,2.93,0,0,1,.69.71,3.42,3.42,0,0,1,.67,1.8,4.91,4.91,0,0,1-.19,1.57,1.5,1.5,0,0,1-.63.91c-.31.16-.74,0-1.12-.44a3.31,3.31,0,0,1-.62-2,3.05,3.05,0,0,1,.62-1.82A7.75,7.75,0,0,1,1800,162.63Z"/><path class="cls-33" d="M1804,163a3.49,3.49,0,0,1,.38,2.43c-.37,1.14-1.13,1.93-1.71,1.74s-.75-1.27-.38-2.43A3.43,3.43,0,0,1,1804,163Z"/><path class="cls-33" d="M1808,165.12a3.29,3.29,0,0,1,0,.87,2.83,2.83,0,0,1-.72,1.56c-.86.85-1.75,1.23-2.3.89s-.26-1.56.68-2.5a3,3,0,0,1,1.51-.73A5.19,5.19,0,0,1,1808,165.12Z"/><path class="cls-33" d="M1809.51,169.15a2.9,2.9,0,0,1-1.43,1.43c-.88.37-1.78.32-2-.15s.38-1.16,1.35-1.57A2.83,2.83,0,0,1,1809.51,169.15Z"/><path class="cls-33" d="M1795.81,166.39a2,2,0,0,1,1.29.28c.51.34.78.85.63,1.14s-.76.21-1.35-.19A1.82,1.82,0,0,1,1795.81,166.39Z"/><path class="cls-33" d="M1784.87,178.15a2.26,2.26,0,0,1,.58.25,2.16,2.16,0,0,1,.84.9,3.25,3.25,0,0,1,.28,1,1,1,0,0,1-.15.69c-.14.17-.43.2-.77,0a2.16,2.16,0,0,1-.85-1,2,2,0,0,1-.09-1.23A5.5,5.5,0,0,1,1784.87,178.15Z"/><path class="cls-33" d="M1790.18,177.64a1.86,1.86,0,0,1,.2.52,1.81,1.81,0,0,1,0,1.1c-.29.71-.72,1.16-1.13,1.1s-.54-.86-.22-1.64a1.9,1.9,0,0,1,.71-.81A4,4,0,0,1,1790.18,177.64Z"/><path class="cls-33" d="M1792.07,179.64a1.86,1.86,0,0,1-.48,1.2c-.43.43-1,.62-1.21.4s-.07-.77.4-1.26A1.8,1.8,0,0,1,1792.07,179.64Z"/><path class="cls-33" d="M1783.34,181.41a1.2,1.2,0,0,1,.82-.16c.39.08.67.31.65.52s-.39.31-.84.22A1.15,1.15,0,0,1,1783.34,181.41Z"/><path class="cls-22" d="M1840,205c-7.77,3-9.76.44-12.75-2.32a8.16,8.16,0,0,1-5.77,3.87c-7.12.91-17-16.75-4.25-22.62-2.07-10.65,15.6-12.34,20.22-8.21.84.76,3.55,3.42,3,4.55-.33.65,3.75-1.08,6.43,8.9C1848.93,197.81,1842.37,204.07,1840,205Z"/><path class="cls-39" d="M1840,205c-7.77,3-9.76.44-12.75-2.32a8.16,8.16,0,0,1-5.77,3.87c-5.44.7-12.52-9.47-9.83-16.93.12,8.57,14,14.34,15.79,7.06,1.24,6.47,14.83,4.57,13.31-1.75,3,0,5.11-2.66,6.13-5.76.07.28.14.57.22.86C1848.79,196.89,1842.91,203.86,1840,205Z"/><path class="cls-32" d="M1840,205c-7.77,3-9.76.44-12.75-2.32a8.16,8.16,0,0,1-5.77,3.87c-7.12.91-17-16.75-4.25-22.62-2.07-10.65,15.6-12.34,20.22-8.21.84.76,3.55,3.42,3,4.55-.33.65,3.75-1.08,6.43,8.9C1848.93,197.81,1842.37,204.07,1840,205Z"/><path class="cls-40" d="M1827.64,179.8a2.25,2.25,0,0,0-.5.52,2.46,2.46,0,0,0-.49,1.32,3.3,3.3,0,0,0,.14,1.14,1.11,1.11,0,0,0,.46.67c.22.11.54,0,.82-.32a2.52,2.52,0,0,0,.45-1.45,2.3,2.3,0,0,0-.45-1.33A5.65,5.65,0,0,0,1827.64,179.8Z"/><path class="cls-40" d="M1824.75,180.05a2.51,2.51,0,0,0-.27,1.77c.27.84.82,1.41,1.24,1.27s.55-.93.28-1.77A2.47,2.47,0,0,0,1824.75,180.05Z"/><path class="cls-40" d="M1821.81,181.62a2.24,2.24,0,0,0,0,.63,2.06,2.06,0,0,0,.53,1.15c.62.62,1.27.9,1.68.65s.18-1.14-.5-1.83a2.2,2.2,0,0,0-1.1-.53A3.57,3.57,0,0,0,1821.81,181.62Z"/><path class="cls-40" d="M1820.7,184.57a2.12,2.12,0,0,0,1,1c.65.27,1.3.23,1.46-.11s-.27-.85-1-1.14A2,2,0,0,0,1820.7,184.57Z"/><path class="cls-40" d="M1830.7,182.55a1.39,1.39,0,0,0-.94.21c-.37.25-.57.61-.46.83s.55.15,1-.14A1.33,1.33,0,0,0,1830.7,182.55Z"/><path class="cls-40" d="M1838.69,191.14a1.63,1.63,0,0,0-1,.83,2.5,2.5,0,0,0-.2.71.67.67,0,0,0,.11.51c.1.12.31.15.56,0a1.59,1.59,0,0,0,.62-.74,1.39,1.39,0,0,0,.06-.89C1838.75,191.33,1838.69,191.14,1838.69,191.14Z"/><path class="cls-40" d="M1834.81,190.76a1.85,1.85,0,0,0-.15.38,1.33,1.33,0,0,0,0,.81c.21.52.53.84.83.8s.39-.63.16-1.2a1.44,1.44,0,0,0-.52-.59C1835,190.84,1834.81,190.76,1834.81,190.76Z"/><path class="cls-40" d="M1833.43,192.22a1.4,1.4,0,0,0,.35.88c.32.32.71.45.89.29s0-.56-.3-.91A1.27,1.27,0,0,0,1833.43,192.22Z"/><path class="cls-40" d="M1839.81,193.51a.89.89,0,0,0-.6-.11c-.28.06-.49.22-.48.38s.29.23.61.16A.87.87,0,0,0,1839.81,193.51Z"/><path class="cls-17" d="M1823,202.33s5.08,1,5.08,8.73.28,7.92.28,7.92a3.79,3.79,0,0,1-2,1.8c-.89.32-.43.2,2.8.2,2.4,0,3.34.22,2.75-.1-.75-.4-1.61-1-1.65-1.8-.17-3.4-1.11-9.09,0-12.56s5.78-4.66,5.34-5.08-5.09,2.94-5.35,2.84,1.5-5.66,1.9-6.86-.65-.45-1,.4-1.75,6-2.15,6.26-1.68-7.66-2.3-7.91-.56.18-.55.9,2.37,6.51,1.7,6.78-3.14-1.76-4.21-2S1823,202.33,1823,202.33Z"/><path class="cls-22" d="M839,203.05c-8.69,3.34-10.92.5-14.27-2.6a9.14,9.14,0,0,1-6.46,4.34c-8,1-19-18.75-4.76-25.33-2.32-11.91,17.46-13.81,22.64-9.18.94.85,4,3.83,3.35,5.1-.36.72,4.21-1.22,7.2,10C849,195,841.62,202,839,203.05Z"/><path class="cls-39" d="M839,203.05c-8.69,3.34-10.92.5-14.27-2.6a9.14,9.14,0,0,1-6.46,4.34c-6.09.78-14-10.6-11-18.95.14,9.59,15.71,16,17.67,7.9,1.39,7.24,16.6,5.12,14.9-2,3.35.05,5.72-3,6.86-6.45.08.31.16.64.24,1C848.81,194,842.22,201.81,839,203.05Z"/><path class="cls-32" d="M839,203.05c-8.69,3.34-10.92.5-14.27-2.6a9.14,9.14,0,0,1-6.46,4.34c-8,1-19-18.75-4.76-25.33-2.32-11.91,17.46-13.81,22.64-9.18.94.85,4,3.83,3.35,5.1-.36.72,4.21-1.22,7.2,10C849,195,841.62,202,839,203.05Z"/><path class="cls-40" d="M825.13,174.88a2.53,2.53,0,0,0-.56.58,2.83,2.83,0,0,0-.55,1.47,4.14,4.14,0,0,0,.16,1.29,1.2,1.2,0,0,0,.52.74c.25.13.6,0,.91-.36a2.8,2.8,0,0,0,.51-1.61,2.55,2.55,0,0,0-.51-1.49A7.45,7.45,0,0,0,825.13,174.88Z"/><path class="cls-40" d="M821.9,175.16a2.8,2.8,0,0,0-.31,2c.3.94.92,1.57,1.4,1.42s.61-1,.3-2A2.71,2.71,0,0,0,821.9,175.16Z"/><path class="cls-40" d="M818.6,176.92a2.61,2.61,0,0,0,0,.71,2.31,2.31,0,0,0,.59,1.28c.7.69,1.43,1,1.88.73s.21-1.28-.55-2a2.4,2.4,0,0,0-1.24-.59A3.94,3.94,0,0,0,818.6,176.92Z"/><path class="cls-40" d="M817.37,180.21a2.37,2.37,0,0,0,1.16,1.17c.72.31,1.46.26,1.64-.12s-.31-.95-1.11-1.28A2.29,2.29,0,0,0,817.37,180.21Z"/><path class="cls-40" d="M828.56,178a1.51,1.51,0,0,0-1,.23c-.42.28-.64.69-.52.93s.62.17,1.1-.16A1.5,1.5,0,0,0,828.56,178Z"/><path class="cls-40" d="M837.5,187.57a1.66,1.66,0,0,0-.48.2,1.81,1.81,0,0,0-.68.74,2.49,2.49,0,0,0-.23.79.8.8,0,0,0,.12.56c.12.14.35.17.63,0a1.83,1.83,0,0,0,.7-.83,1.6,1.6,0,0,0,.07-1C837.57,187.78,837.5,187.57,837.5,187.57Z"/><path class="cls-40" d="M833.16,187.15a1.91,1.91,0,0,0-.17.43,1.47,1.47,0,0,0,0,.9c.23.58.59.94.92.89s.44-.7.18-1.34a1.58,1.58,0,0,0-.58-.66A2.93,2.93,0,0,0,833.16,187.15Z"/><path class="cls-40" d="M831.61,188.79a1.49,1.49,0,0,0,.4,1c.35.36.79.51,1,.33s0-.63-.33-1A1.47,1.47,0,0,0,831.61,188.79Z"/><path class="cls-40" d="M838.75,190.23a1,1,0,0,0-.67-.13c-.32.07-.55.25-.53.42s.32.26.68.19A.94.94,0,0,0,838.75,190.23Z"/><path class="cls-17" d="M820,200.09s5.69,1.11,5.69,9.77.31,8.87.31,8.87a4.23,4.23,0,0,1-2.24,2c-1,.36-.48.23,3.14.23,2.69,0,3.74.23,3.08-.12-.84-.44-1.8-1.08-1.85-2-.2-3.81-1.24-10.18-.05-14.07s6.47-5.21,6-5.68-5.7,3.29-6,3.18,1.68-6.33,2.13-7.68-.73-.5-1.12.45-2,6.72-2.41,7-1.88-8.58-2.58-8.86-.62.21-.61,1,2.66,7.28,1.91,7.58-3.52-2-4.71-2.26S820,200.09,820,200.09Z"/><polygon class="cls-41" points="877.54 221.06 842.38 221.06 842.38 6.54 877.54 28.8 877.54 221.06"/><rect class="cls-13" x="845.13" y="40.95" width="29.87" height="1.35"/><polygon class="cls-13" points="877.74 39.12 842.38 39.12 842.38 44.13 877.74 44.13 877.74 39.12 877.74 39.12"/><rect class="cls-13" x="845.13" y="53.39" width="29.87" height="1.35"/><polygon class="cls-13" points="877.74 51.56 842.38 51.56 842.38 56.57 877.74 56.57 877.74 51.56 877.74 51.56"/><rect class="cls-13" x="845.13" y="65.83" width="29.87" height="1.35"/><polygon class="cls-13" points="877.74 64 842.38 64 842.38 69.01 877.74 69.01 877.74 64 877.74 64"/><rect class="cls-13" x="845.13" y="78.27" width="29.87" height="1.35"/><polygon class="cls-13" points="877.74 76.44 842.38 76.44 842.38 81.45 877.74 81.45 877.74 76.44 877.74 76.44"/><rect class="cls-13" x="845.13" y="90.71" width="29.87" height="1.35"/><polygon class="cls-13" points="877.74 88.88 842.38 88.88 842.38 93.89 877.74 93.89 877.74 88.88 877.74 88.88"/><rect class="cls-13" x="845.13" y="103.14" width="29.87" height="1.35"/><polygon class="cls-13" points="877.74 101.32 842.38 101.32 842.38 106.33 877.74 106.33 877.74 101.32 877.74 101.32"/><rect class="cls-13" x="845.13" y="114.75" width="29.87" height="1.35"/><polygon class="cls-13" points="877.74 112.92 842.38 112.92 842.38 117.93 877.74 117.93 877.74 112.92 877.74 112.92"/><rect class="cls-13" x="845.13" y="127.19" width="29.87" height="1.35"/><polygon class="cls-13" points="877.74 125.36 842.38 125.36 842.38 130.37 877.74 130.37 877.74 125.36 877.74 125.36"/><rect class="cls-13" x="845.13" y="139.63" width="29.87" height="1.35"/><polygon class="cls-13" points="877.74 137.8 842.38 137.8 842.38 142.81 877.74 142.81 877.74 137.8 877.74 137.8"/><rect class="cls-13" x="845.13" y="152.07" width="29.87" height="1.35"/><polygon class="cls-13" points="877.74 150.24 842.38 150.24 842.38 155.25 877.74 155.25 877.74 150.24 877.74 150.24"/><rect class="cls-13" x="845.13" y="164.51" width="29.87" height="1.35"/><polygon class="cls-13" points="877.74 162.68 842.38 162.68 842.38 167.69 877.74 167.69 877.74 162.68 877.74 162.68"/><rect class="cls-13" x="845.13" y="176.95" width="29.87" height="1.35"/><polygon class="cls-13" points="877.74 175.12 842.38 175.12 842.38 180.13 877.74 180.13 877.74 175.12 877.74 175.12"/><polygon class="cls-42" points="842.38 6.54 854.8 0.65 887.08 22.21 877.54 28.8 842.38 6.54"/><polygon class="cls-42" points="887.08 22.21 887.08 54.74 877.54 60.6 877.54 28.8 887.08 22.21"/><line class="cls-32" x1="882.31" y1="32.47" x2="882.31" y2="57.22"/><g class="cls-43"><polygon class="cls-44" points="842.46 87.16 842.46 72.76 877.47 109.62 877.47 124.02 842.46 87.16"/><polygon class="cls-44" points="877.47 78.79 877.47 103.25 842.46 66.39 842.46 41.25 877.47 78.79"/></g><polygon class="cls-41" points="867.46 221.06 899.78 221.06 899.78 47.76 867.46 67.05 867.46 221.06"/><polygon class="cls-42" points="890.5 53.3 890.5 221.06 899.78 221.06 899.78 47.38 890.5 53.3"/><line class="cls-45" x1="870.9" y1="66.99" x2="870.9" y2="219.58"/><line class="cls-45" x1="874.63" y1="64.58" x2="874.63" y2="219.58"/><line class="cls-45" x1="878.52" y1="62.09" x2="878.52" y2="219.58"/><line class="cls-45" x1="882.8" y1="60.02" x2="882.8" y2="219.58"/><line class="cls-45" x1="887.08" y1="57.22" x2="887.08" y2="219.71"/><line class="cls-45" x1="868.62" y1="70.77" x2="889.02" y2="70.77"/><line class="cls-45" x1="868.91" y1="74.86" x2="889.3" y2="74.86"/><line class="cls-45" x1="868.91" y1="79.52" x2="889.3" y2="79.52"/><line class="cls-45" x1="868.91" y1="84.19" x2="889.3" y2="84.19"/><line class="cls-45" x1="868.91" y1="88.85" x2="889.3" y2="88.85"/><line class="cls-45" x1="868.91" y1="93.52" x2="889.3" y2="93.52"/><line class="cls-45" x1="868.91" y1="98.19" x2="889.3" y2="98.19"/><line class="cls-45" x1="868.91" y1="102.85" x2="889.3" y2="102.85"/><line class="cls-45" x1="868.91" y1="107.52" x2="889.3" y2="107.52"/><line class="cls-45" x1="868.91" y1="112.18" x2="889.3" y2="112.18"/><line class="cls-45" x1="868.91" y1="116.85" x2="889.3" y2="116.85"/><line class="cls-45" x1="868.91" y1="121.52" x2="889.3" y2="121.52"/><line class="cls-45" x1="868.91" y1="126.18" x2="889.3" y2="126.18"/><line class="cls-45" x1="868.91" y1="130.85" x2="889.3" y2="130.85"/><line class="cls-45" x1="868.91" y1="135.51" x2="889.3" y2="135.51"/><line class="cls-45" x1="868.91" y1="140.18" x2="889.3" y2="140.18"/><line class="cls-45" x1="868.91" y1="144.85" x2="889.3" y2="144.85"/><line class="cls-45" x1="868.91" y1="149.51" x2="889.3" y2="149.51"/><line class="cls-45" x1="868.91" y1="154.18" x2="889.3" y2="154.18"/><line class="cls-45" x1="868.91" y1="158.84" x2="889.3" y2="158.84"/><line class="cls-45" x1="868.91" y1="163.51" x2="889.3" y2="163.51"/><line class="cls-45" x1="868.91" y1="168.17" x2="889.3" y2="168.17"/><line class="cls-45" x1="868.91" y1="172.84" x2="889.3" y2="172.84"/><line class="cls-45" x1="868.91" y1="177.51" x2="889.3" y2="177.51"/><line class="cls-45" x1="868.91" y1="182.17" x2="889.3" y2="182.17"/><line class="cls-45" x1="868.91" y1="186.84" x2="889.3" y2="186.84"/><line class="cls-45" x1="868.91" y1="191.5" x2="889.3" y2="191.5"/><line class="cls-45" x1="868.91" y1="196.17" x2="889.3" y2="196.17"/><line class="cls-45" x1="868.91" y1="200.84" x2="889.3" y2="200.84"/><line class="cls-45" x1="868.91" y1="205.5" x2="889.3" y2="205.5"/><line class="cls-45" x1="868.91" y1="210.17" x2="889.3" y2="210.17"/><g class="cls-43"><polygon class="cls-44" points="890.5 129.04 890.5 119.67 867.71 143.67 867.71 153.04 890.5 129.04"/><polygon class="cls-44" points="867.71 123.6 867.71 139.52 890.5 115.52 890.5 99.15 867.71 123.6"/></g></g></g></g></svg>