<svg xmlns="http://www.w3.org/2000/svg"
    xmlns:xlink="http://www.w3.org/1999/xlink" viewBox="0 0 246.87 111.56">
    <defs>
        <style>.cls-1{fill:url(#未命名漸層_82);}.cls-2,.cls-6{fill:#81cc32;}.cls-11,.cls-2,.cls-3,.cls-4,.cls-9{stroke:#4d3224;}.cls-11,.cls-2{stroke-linecap:round;stroke-linejoin:round;stroke-width:2.01px;}.cls-3{fill:#80d8d6;stroke-width:1.92px;}.cls-3,.cls-4,.cls-9{stroke-miterlimit:10;}.cls-4{fill:#ffefba;stroke-width:1.9px;}.cls-5{fill:#fff;}.cls-7{fill:#d75968;}.cls-8{fill:#4d3224;}.cls-11,.cls-9{fill:#b3b3b3;}.cls-9{stroke-width:0.95px;}.cls-10{fill:#4e342e;}.cls-12{fill:#d0ebea;opacity:0.8;}</style>
        <linearGradient id="未命名漸層_82" x1="244.79" y1="77.12" x2="169.23" y2="79.31" gradientUnits="userSpaceOnUse">
            <stop offset="0" stop-color="#fff" stop-opacity="0"/>
            <stop offset="0.68" stop-color="#f8eeb9" stop-opacity="0.7"/>
            <stop offset="1" stop-color="#f5e69a"/>
        </linearGradient>
    </defs>
    <title>home-n-car-down02</title>
        <g class="body">
            <g class="light">
                <polyline class="cls-1" points="169.01 70.98 246.87 42.56 246.87 111.56 170.85 86.05 169.01 70.98"/>
                <animate attributeType="auto" attributeName="opacity" dur="0.8s" values="0.5;1;0.5" repeatCount="indefinite" begin="0"/>
            </g>
            <path class="cls-2" d="M9.56,97.6h154A8.58,8.58,0,0,0,172.09,89V9.56A8.58,8.58,0,0,0,163.53,1H9.56A8.58,8.58,0,0,0,1,9.56V89A8.58,8.58,0,0,0,9.56,97.6Z"/>
            <path class="cls-3" d="M160.68,63.92H171.9V12.71H160.68a5.72,5.72,0,0,0-5.7,5.7V58.22A5.72,5.72,0,0,0,160.68,63.92Z"/>
            <path class="cls-3" d="M102,41.57h37.55a5.72,5.72,0,0,0,5.7-5.7V18.41a5.72,5.72,0,0,0-5.7-5.7H102a5.72,5.72,0,0,0-5.7,5.7V35.87A5.7,5.7,0,0,0,102,41.57Z"/>
            <path class="cls-3" d="M18.11,41.57H80.84a5.73,5.73,0,0,0,5.71-5.7V18.41a5.73,5.73,0,0,0-5.71-5.7H18.11a5.7,5.7,0,0,0-5.7,5.7V35.87A5.7,5.7,0,0,0,18.11,41.57Z"/>
            <path class="cls-4" d="M171.83,81.22h-6.54c-5.83,0-7.32-1.65-8.52-4.65,0,0-2.87-5.42,4.37-5.42H169s3-.09,3,3.79Z"/>
            <path class="cls-5" d="M170.88,11.5,2.56,11.66S-.29,4,9.76,1.61L162.34,2s8.21-.17,8.54,6.7Z"/>
            <polygon class="cls-6" points="162.34 1.95 170.88 11.33 165.52 11.33 157.65 2.12 162.34 1.95"/>
            <polygon class="cls-6" points="12.77 1.61 4.23 12 9.59 12 17.46 1.78 12.77 1.61"/>
            <path class="cls-7" d="M126.1,71.49a5.18,5.18,0,0,1,2-4.08,5.36,5.36,0,0,1,0-.7,5.2,5.2,0,0,1,8.74-3.82,5.14,5.14,0,0,1,3.15-1.07,5.2,5.2,0,0,1,4.48,7.86,5.15,5.15,0,0,1,1.37,3.51,5.21,5.21,0,0,1-5.16,5.2,5.2,5.2,0,0,1-9.51-1.71A5.2,5.2,0,0,1,126.1,71.49Z"/>
            <circle class="cls-5" cx="135.01" cy="69.31" r="0.81"/>
            <circle class="cls-5" cx="138.36" cy="69.29" r="0.81"/>
            <circle class="cls-5" cx="136.6" cy="72.21" r="0.81"/>
            <path class="cls-7" d="M96.25,79.82a4.17,4.17,0,0,1-.64-3.58,3.9,3.9,0,0,1-.36-.43,4.17,4.17,0,0,1,3.88-6.58A4.17,4.17,0,0,1,106.5,68a4.08,4.08,0,0,1,.77,2.07,4.16,4.16,0,0,1,1.63,7.43,4.17,4.17,0,0,1-7,3.36A4.17,4.17,0,0,1,96.25,79.82Z"/>
            <circle class="cls-5" cx="101.01" cy="74.22" r="0.65"/>
            <circle class="cls-5" cx="103.18" cy="72.64" r="0.65"/>
            <circle class="cls-5" cx="103.4" cy="75.36" r="0.65"/>
            <path class="cls-7" d="M41.05,77.88a3.64,3.64,0,0,1,1.63-2.74,4.17,4.17,0,0,1,0-.5,3.67,3.67,0,0,1,6.37-2.15,3.72,3.72,0,0,1,2.28-.56A3.67,3.67,0,0,1,54,77.72a3.61,3.61,0,0,1,.74,2.55,3.66,3.66,0,0,1-3.93,3.34,3.66,3.66,0,0,1-6.57-1.78A3.66,3.66,0,0,1,41.05,77.88Z"/>
            <circle class="cls-5" cx="47.44" cy="76.89" r="0.57"/>
            <circle class="cls-5" cx="49.79" cy="77.08" r="0.57"/>
            <circle class="cls-5" cx="48.37" cy="79.03" r="0.57"/>
            <path class="cls-7" d="M8.11,72.88A4.76,4.76,0,0,1,9.29,69a6.23,6.23,0,0,1-.15-.62,4.72,4.72,0,0,1,7.27-4.68,4.71,4.71,0,0,1,7.81,5A4.72,4.72,0,0,1,22.09,77a4.72,4.72,0,0,1-8.76-.16A4.72,4.72,0,0,1,8.11,72.88Z"/>
            <circle class="cls-5" cx="15.78" cy="69.65" r="0.73"/>
            <circle class="cls-5" cx="18.77" cy="69.15" r="0.73"/>
            <circle class="cls-5" cx="17.61" cy="72.01" r="0.73"/>
            <rect class="cls-11" x="167.95" y="11.75" width="7.54" height="26.13" rx="3.75" ry="3.75"/>
            <polygon class="cls-12" points="114.69 13.59 123.06 13.59 138.97 40.39 129.93 40.22 114.69 13.59"/>
            <polygon class="cls-12" points="110.33 13.59 105.14 13.59 120.88 40.39 126.41 40.39 110.33 13.59"/>
            <polygon class="cls-12" points="28.76 13.76 37.14 13.76 53.05 40.55 44.01 40.39 28.76 13.76"/>
            <polygon class="cls-12" points="24.41 13.76 19.22 13.76 34.96 40.55 40.49 40.55 24.41 13.76"/>
            <animateTransform attributeType="auto" attributeName="transform" type="translate" values="0 0; 0 -2.5; 0 0" dur="0.8s" begin="0" repeatCount="indefinite" />
        </g>
        <g class="wheel">    
            <circle class="cls-8" cx="121.11" cy="95.72" r="12.6"/>
            <path class="cls-9" d="M121.11,88.59a7.13,7.13,0,1,0,7.12,7.13A7.13,7.13,0,0,0,121.11,88.59Z"/>
            <circle class="cls-10" cx="31.48" cy="95.72" r="12.6"/>
            <path class="cls-9" d="M31.48,88.59a7.13,7.13,0,1,0,7.12,7.13A7.13,7.13,0,0,0,31.48,88.59Z"/>
        </g>
</svg>