<svg xmlns="http://www.w3.org/2000/svg"
    xmlns:xlink="http://www.w3.org/1999/xlink" viewBox="0 0 145.8 99.43">
    <defs>
        <style>.cls-1{fill:url(#未命名漸層_107);}.cls-2{fill:#4d3224;}.cls-10,.cls-3{fill:#b3b3b3;}.cls-18,.cls-4,.cls-9{fill:#424242;}.cls-10,.cls-11,.cls-12,.cls-14,.cls-15,.cls-16,.cls-17,.cls-18,.cls-19,.cls-20,.cls-21,.cls-22,.cls-23,.cls-4,.cls-5,.cls-6,.cls-7,.cls-8,.cls-9{stroke:#4d3224;}.cls-15,.cls-17,.cls-18,.cls-21,.cls-23,.cls-4{stroke-miterlimit:10;}.cls-10,.cls-11,.cls-12,.cls-13,.cls-14,.cls-4,.cls-8{stroke-width:0.98px;}.cls-5{fill:#f1ad80;}.cls-10,.cls-11,.cls-12,.cls-13,.cls-14,.cls-16,.cls-19,.cls-20,.cls-22,.cls-5,.cls-6,.cls-7,.cls-8,.cls-9{stroke-linecap:round;stroke-linejoin:round;}.cls-19,.cls-20,.cls-21,.cls-22,.cls-5,.cls-6{stroke-width:0.93px;}.cls-6{fill:#ca9900;}.cls-7,.cls-8{fill:#666;}.cls-7{stroke-width:0.82px;}.cls-9{stroke-width:0.92px;}.cls-11{fill:#f2f2f3;}.cls-12,.cls-16{fill:#3787c5;}.cls-13,.cls-14,.cls-23{fill:none;}.cls-13{stroke:#525252;}.cls-15,.cls-17,.cls-21{fill:#80d8d6;}.cls-15{stroke-width:0.94px;}.cls-16{stroke-width:1.12px;}.cls-17{stroke-width:1.07px;}.cls-18{stroke-width:0.88px;}.cls-19{fill:#173b54;}.cls-20{fill:#f2c09f;}.cls-22{fill:#d8a400;}.cls-23{stroke-width:2.44px;}</style>
        <linearGradient id="未命名漸層_107" x1="1771.39" y1="4091.42" x2="1715.07" y2="4093.05" gradientTransform="matrix(0.86, 0.51, -0.51, 0.86, 698.45, -4361.1)" gradientUnits="userSpaceOnUse">
            <stop offset="0" stop-color="#fff" stop-opacity="0"/>
            <stop offset="0.61" stop-color="#f9f0c2" stop-opacity="0.6"/>
            <stop offset="1" stop-color="#f5e69a"/>
        </linearGradient>
    </defs>
    <title>home-n-scooter-down01</title>
        <g class="wheel">
            <path class="cls-2" d="M102.64,88c0-.42.06-.84.06-1.27a12.22,12.22,0,1,0-1.47,5.82A11.7,11.7,0,0,0,102.64,88Z"/>
            <path class="cls-3" d="M90.47,79.8a6.91,6.91,0,1,1-6.91,6.91A6.91,6.91,0,0,1,90.47,79.8Z"/>
            <path class="cls-2" d="M31.28,88.46c0-.41.07-.84.07-1.26A12.25,12.25,0,1,0,29.87,93,11.75,11.75,0,0,0,31.28,88.46Z"/>
            <path class="cls-3" d="M19.11,80.29A6.91,6.91,0,1,1,12.2,87.2,6.91,6.91,0,0,1,19.11,80.29Z"/>
        </g>
    <g class="body">
        <g class="light">
            <polyline class="cls-1" points="84.23 29.95 145.8 41.52 121.88 81.81 80.39 39.15 84.23 29.95"/>
            <animate attributeType="auto" attributeName="opacity" dur="0.8s" values="0.5;1;0.5" repeatCount="indefinite" begin="0"/>
        </g>
        <path class="cls-4" d="M70.17,34h7.6a1.85,1.85,0,0,0,1.85-1.85v-.06a1.85,1.85,0,0,0-1.85-1.85h-7.6a1.85,1.85,0,0,0-1.85,1.85v.06A1.85,1.85,0,0,0,70.17,34Z"/>
        <polygon class="cls-5" points="68.63 31.48 69.8 32.66 73.06 32.62 72.95 29.52 68.97 29.54 68.63 31.48"/>
        <polygon class="cls-6" points="46.3 19.26 42.55 26.07 68.69 31.79 69.12 29.26 51.79 21.03 46.3 19.26"/>
        <path class="cls-7" d="M76.61,46.41,74.8,40.13c-.69-2.41,1.66-4.54,2.78-6.53l2.78-4.91c.82-.31,3.41,4,3.47,4.82,0,0,1,5.2,1,5.46.09,1.17-1,.8-1.42,1.26a6,6,0,0,0-1.62,3.29"/>
        <polygon class="cls-8" points="35.07 86.31 44.52 84.36 42.73 76.86 31 79.3 35.07 86.31"/>
        <circle class="cls-8" cx="29.53" cy="82.56" r="6.35"/>
        <circle class="cls-2" cx="29.61" cy="82.64" r="3.01"/>
        <path class="cls-8" d="M31.45,78.44C27.9,76.7,22.13,76,19.43,76c-3.33,0-6.66,1.46-10,1.46-1.06-1-1.31-1.85-1.16-2.17a8.64,8.64,0,0,1,6.82-4.54h7Z"/>
        <path class="cls-9" d="M43.56,50.55c4.39-.42,4.87,4.29,5.6,7.41H9.72L11,52.16a5.8,5.8,0,0,1,6.15-4.62l17.45,2.57.26,0Z"/>
        <path class="cls-10" d="M90.42,88.7a1.85,1.85,0,0,0,1.09-.36,1.87,1.87,0,0,0,.41-2.6l-7.24-9.91a1.86,1.86,0,1,0-3,2.19l7.23,9.91A1.87,1.87,0,0,0,90.42,88.7Z"/>
        <path class="cls-11" d="M52.88,78.55c-3.11.47-6.52-4.21-6.52-4.21L35.05,61.42s-2-2.53-1.6-4.73c-9-1-14.55-1.87-23.57-2.46a3.36,3.36,0,0,0-1.45.12c-1,.41-1.4,1.72-1.36,2.84.19,4.48,4.27,7.68,8,10.22,5.14,3.53,10.28,5.59,15.41,9.13,2.85,1.95,7.92,7.21,7.92,7.21a160.63,160.63,0,0,1,18.82,2,46.86,46.86,0,0,1,18.28,7l8.92-4.23c-.26-2.32-1.13-5-.35-7.23l7-11.25c1.84-.56,4.3.78,5.88,1.87s3,2.45,4.83,3.11a1.26,1.26,0,0,0,.83.09c.59-.22.58-1.05.44-1.66-1.42-6.11-5.73-11.67-9.85-16.4A84.45,84.45,0,0,0,80.12,44.63l-3,1.53a63.49,63.49,0,0,1,8.13,12.91,9.78,9.78,0,0,1,1.25,4.67c-.12,2-1.32,3.73-2.52,5.33-1.64,2.2-3.35,4.35-5.1,6.46a8.45,8.45,0,0,1-3,2.57,8.55,8.55,0,0,1-3.27.43l-19.7,0"/>
        <path class="cls-4" d="M69.19,36.63h7.6a1.86,1.86,0,0,0,1.86-1.85v-.06a1.87,1.87,0,0,0-1.86-1.86h-7.6a1.86,1.86,0,0,0-1.85,1.86v.06A1.85,1.85,0,0,0,69.19,36.63Z"/>
        <path class="cls-2" d="M77.36,34.51a.67.67,0,0,0,.38-.86l-1.18-2.89a.66.66,0,0,0-.45-.41L69,23.45a.65.65,0,0,0-.81.47.66.66,0,0,0,.47.82l6.83,6.81,1.06,2.57A.67.67,0,0,0,77.36,34.51Z"/>
        <rect class="cls-8" x="52.89" y="75.99" width="23.16" height="2.52" rx="0.95" ry="0.95"/>
        <path class="cls-8" d="M75.46,78.51l0-1.22L80.26,65.5a3.59,3.59,0,0,0,.12-1.9l-1.83-7.88s-.37-.73.61-1.53l2.69-1.46s3.42,5.37,4.27,8.43c0,0,1,3.18-.54,5.5C85.58,66.66,78.79,77.23,75.46,78.51Z"/>
        <path class="cls-8" d="M77.45,46.68l-1,.55a2.08,2.08,0,0,0,.06,1.22L79.53,54l2.32-1.22Z"/>
        <path class="cls-12" d="M93.56,62.4c2.47,2.77,8.3,8.16,7.42,12.26-2.32-1.21-4.53-2.77-6.77-4.15a3.11,3.11,0,0,0-3.58.65L84.76,80c-2.12,3.25-.38,8.63-.38,8.63l-8.92,4.23c-9.47-8.15-37.1-9.07-37.1-9.07-.62-.93-4.27-3.47-4.27-3.47l-22.81-13A4,4,0,0,1,9.17,65c-.14-.39-.09-2.38-.33-2.52,18.08,10.1,44.63,16,44.63,16h22l3-2,7.17-9.87c2-3,.16-7.23.16-7.23l-5-9S92.58,61.31,93.56,62.4Z"/>
        <path class="cls-10" d="M80.12,44.63l2.52-1s3.75,4.24,4.73,7Z"/>
        <path class="cls-8" d="M8.43,54.35c-.41-2,25,2.34,25,2.34-2.67.87-5.44,1.8-8.28,1.63-3-.19-5.93-1.24-8.88-1.9L7.86,54.54"/>
        <path class="cls-8" d="M27.9,56a4.87,4.87,0,0,0,1.63,3.58l18.9,17.76a8.5,8.5,0,0,0,4.45,1.2v-2c-1.08-2.11-2.18-4.21-3.26-6.33-.91-1.77-2.82-3.91-2.27-6.08.5-1.94,3.19-3.08,3.19-5.22,0,0,.49-2.12-2.61-1.79Z"/>
        <path class="cls-13" d="M29.53,58.29c4.71.81,9,2.14,12.27,5.88,1.07,1.21,4.88,9.58,6.85,6.07"/>
        <path class="cls-14" d="M48.59,62.69s2,3.42,3.75-.49"/>
        <path class="cls-14" d="M75.31,49.49s1.14,2.93,2.61,1.95"/>
        <path class="cls-15" d="M7.54,55.19s-.49,1.79,3.91,3.1l4.23,1.14L10,62.85S2.81,58.45,7.54,55.19Z"/>
        <path class="cls-8" d="M10.79,67.57,4.44,80s-.16,1.62,1.3,1l8.31-11.4Z"/>
        <path class="cls-8" d="M45,84.35c-.88,0-2.28,5.38-2.28,5.38s9.61,2,32.24,2.6C75,92.33,66.51,85.33,45,84.35Z"/>
        <path class="cls-16" d="M81.33,27.5l-3.72,4.64s1.68,6.32,6.7,8.55C84.31,40.69,88,32.89,81.33,27.5Z"/>
        <path class="cls-17" d="M84.49,31.4H81s-.56.18,1.3,2.6l2.6,2.79S86.16,35.86,84.49,31.4Z"/>
        <rect class="cls-18" x="66.51" y="20" width="2.62" height="7.96" rx="0.99" ry="0.99" transform="translate(8.06 -16.06) rotate(14.35)"/>
        <path class="cls-2" d="M64.46,72v4h8s-.87-3.69-3.69-4.08Z"/>
        <polygon class="cls-19" points="53.36 49.68 61.53 51.72 67.44 72.11 72.39 72.16 66.99 48.83 51.71 40.26 50.74 49.59 53.36 49.68"/>
        <polygon class="cls-20" points="48.5 12.65 46.33 17.35 51.39 20.13 53.52 16.12 48.5 12.65"/>
        <polygon class="cls-20" points="68.09 35.71 69.19 36.96 72.44 37.12 72.53 34.02 68.56 33.8 68.09 35.71"/>
        <path class="cls-12" d="M47.17,12.36l7.33,4.4s5.5-.12,6.67-5.5A8.92,8.92,0,0,0,53.4.56c-5.12-.71-8.49,3.76-7.91,6.16S47.17,12.36,47.17,12.36Z"/>
        <path class="cls-21" d="M54.45,15.58S53.52,7,59.74,5.78c.63-.13,1.31,2.66,1.36,3a6.18,6.18,0,0,1-1.58,5.56C58.44,15.4,55.63,17.61,54.45,15.58Z"/>
        <path class="cls-2" d="M61.62,73.08v4h8s-.88-3.7-3.7-4.09Z"/>
        <path class="cls-19" d="M41.38,41.71a11,11,0,0,0-.91,5C40.6,47.73,49,58.62,57.26,61c.93.27,3.52,11.84,3.52,11.84H68l-4.4-21.19L53,41.71Z"/>
        <path class="cls-22" d="M42.63,17.27a1.62,1.62,0,0,0-.37.37,3.57,3.57,0,0,0-.49,1.67c-.11.79-1.17,9-1.28,9-.17,1.27-1.48,14.44-1.91,14.47l14.47-1,0-22.41c-1.86-.88-3.73-1.77-5.63-2.58A5.87,5.87,0,0,0,42.63,17.27Z"/>
        <polyline class="cls-22" points="47.95 30.12 67.97 36.29 68.56 33.8 51.77 24.51 46.4 22.41"/>
        <path class="cls-2" d="M45.5,8.43v6.19l1.79.66,1.3-2Z"/>
        <path class="cls-8" d="M18.86,90.31l-13-2.4c-3-.71-6.13-2.25-5.27-5.78C1.42,78.9,6,79.56,8.14,80.2l12.27,3.74a3.31,3.31,0,0,1-1.55,6.37Z"/>
        <path class="cls-23" d="M22.4,87.8l7.21,2.26A51,51,0,0,0,35,88.59l8.8-2.69"/>
        <animateTransform attributeType="auto" attributeName="transform" type="translate" values="0 0; 0 -2.5; 0 0" dur="0.8s" begin="0" repeatCount="indefinite" />
    </g>
</svg>