<svg xmlns="http://www.w3.org/2000/svg"
    xmlns:xlink="http://www.w3.org/1999/xlink" viewBox="0 -4 203.23 110">
    <defs>
        <style>.cls-1{fill:url(#未命名漸層_82);}.cls-2{fill:#3787c5;stroke-width:1.85px;}.cls-2,.cls-3,.cls-4,.cls-6,.cls-9{stroke:#4d3224;}.cls-2,.cls-4{stroke-linecap:round;stroke-linejoin:round;}.cls-3{fill:#80d8d6;stroke-width:2.21px;}.cls-3,.cls-6,.cls-9{stroke-miterlimit:10;}.cls-4{fill:#47532a;stroke-width:2.31px;}.cls-5{fill:#4d3224;}.cls-6{fill:#ffefba;stroke-width:1.41px;}.cls-7{fill:#2f7ca6;}.cls-8{fill:#f5e69a;}.cls-9{fill:#b3b3b3;stroke-width:1.09px;}.cls-10{fill:#4e342e;}</style>
        <linearGradient id="未命名漸層_82" x1="11217.35" y1="67.25" x2="11162.88" y2="68.83" gradientTransform="matrix(-1, 0, 0, 1, 11218.85, 0)" gradientUnits="userSpaceOnUse">
            <stop offset="0" stop-color="#fff" stop-opacity="0"/>
            <stop offset="0.68" stop-color="#f8eeb9" stop-opacity="0.7"/>
            <stop offset="1" stop-color="#f5e69a"/>
        </linearGradient>
    </defs>
    <title>home-n-car-up04</title>
    <g class="body">
        <g class="light">
            <polyline class="cls-1" points="56.13 62.82 0 42.34 0 92.08 54.8 73.69 56.13 62.82"/>
            <animate attributeType="auto" attributeName="opacity" dur="0.8s" values="0.5;1;0.5" repeatCount="indefinite" begin="0"/>
        </g>
        <path class="cls-2" d="M104.83,64.26V33.53c0-7.35,0-9.59-9.12-9.59H85a8.26,8.26,0,0,0-3.76.9L63.47,33.77a9.52,9.52,0,0,0-5,7.43L54.26,74.44C53.08,83,56.2,85,63.09,85H202.25V64.26Z"/>
        <path class="cls-3" d="M88.12,31.67A1.44,1.44,0,0,0,86,30.38L66.4,38.74a6.11,6.11,0,0,0-3.22,4.72l-.86,7a1.44,1.44,0,0,0,1.43,1.62H86.69a1.45,1.45,0,0,0,1.44-1.45v-19Z"/>
        <path class="cls-4" d="M202.08,64.26H97.16V6.46a5.3,5.3,0,0,1,5.3-5.31h94.31a5.31,5.31,0,0,1,5.31,5.31Z"/>
        <path class="cls-5" d="M65.17,55.88c-.9,0-2.58-1.56-3.84-2.88a3.26,3.26,0,0,1-.14-4.37c1.27-1.46,3-2.85,4-2.85h0A2.83,2.83,0,0,1,68,48.6v4.46A2.84,2.84,0,0,1,65.17,55.88Z"/>
        <path class="cls-6" d="M55.62,67.74h4.87c4.35,0,5.46-1.23,6.35-3.47,0,0,2.14-4-3.26-4H57.74s-2.2-.07-2.22,2.81Z"/>
        <rect class="cls-7" x="97.52" y="69.04" width="100.27" height="1.73" rx="0.73" ry="0.73"/>
        <rect class="cls-7" x="97.52" y="75.02" width="100.27" height="1.73" rx="0.73" ry="0.73"/>
        <path class="cls-8" d="M155.52,52.07v5.74h-1.58V52.07h-1.3V50.71h4.18v1.36Z"/>
        <path class="cls-8" d="M162.83,52.93a2.67,2.67,0,0,1-.18,1,2.12,2.12,0,0,1-.48.71,1.93,1.93,0,0,1-.68.42,2.31,2.31,0,0,1-.77.13H160v2.59h-1.57v-7.1h2.21a2.5,2.5,0,0,1,.76.11,1.87,1.87,0,0,1,.7.36,1.75,1.75,0,0,1,.52.69A2.58,2.58,0,0,1,162.83,52.93Zm-1.5,0a.91.91,0,0,0-.23-.69.82.82,0,0,0-.57-.21H160v1.86h.51a.74.74,0,0,0,.57-.25A1,1,0,0,0,161.33,53Z"/>
        <path class="cls-8" d="M164.69,57.81v-7.1h3.43v1.41h-1.9v1.4H168v1.32h-1.75v1.52h2v1.45Z"/>
        <path class="cls-8" d="M169.83,55.63V54.44h1.93v1.19Z"/>
        <path class="cls-8" d="M178,54.26a9.14,9.14,0,0,1-.1,1.25,4.09,4.09,0,0,1-.35,1.2,2.43,2.43,0,0,1-.71.9,2.16,2.16,0,0,1-2.36,0,2.43,2.43,0,0,1-.71-.9,4.09,4.09,0,0,1-.35-1.2,8.73,8.73,0,0,1,0-2.5,4.09,4.09,0,0,1,.35-1.2,2.35,2.35,0,0,1,.71-.9,2.16,2.16,0,0,1,2.36,0,2.35,2.35,0,0,1,.71.9,4.09,4.09,0,0,1,.35,1.2A9.14,9.14,0,0,1,178,54.26Zm-1.61,0c0-.24,0-.49,0-.75a4.22,4.22,0,0,0-.11-.75,1.92,1.92,0,0,0-.22-.56.43.43,0,0,0-.76,0,1.92,1.92,0,0,0-.22.56,4.22,4.22,0,0,0-.11.75c0,.26,0,.51,0,.75s0,.49,0,.76a4.11,4.11,0,0,0,.11.74,1.92,1.92,0,0,0,.22.56.44.44,0,0,0,.76,0,1.92,1.92,0,0,0,.22-.56,4.11,4.11,0,0,0,.11-.74C176.39,54.75,176.4,54.5,176.4,54.26Z"/>
        <path class="cls-8" d="M184.12,55.73a2.42,2.42,0,0,1-.17,1,2.14,2.14,0,0,1-.48.69,1.87,1.87,0,0,1-.7.43,2.58,2.58,0,0,1-.88.15,2.51,2.51,0,0,1-1.5-.45,2.14,2.14,0,0,1-.82-1.36l1.42-.36a1.1,1.1,0,0,0,.28.57.69.69,0,0,0,.55.23.63.63,0,0,0,.33-.09.66.66,0,0,0,.23-.21.71.71,0,0,0,.14-.29,1.27,1.27,0,0,0,0-.34.83.83,0,0,0-.27-.68,1,1,0,0,0-.7-.22h-.36V53.58h.4a.78.78,0,0,0,.61-.24.92.92,0,0,0,.22-.66.88.88,0,0,0-.16-.51.54.54,0,0,0-.49-.24.56.56,0,0,0-.45.19,1.21,1.21,0,0,0-.24.48l-1.38-.34a2.32,2.32,0,0,1,.86-1.31,2.29,2.29,0,0,1,.63-.3,2.61,2.61,0,0,1,.69-.09,2.46,2.46,0,0,1,.76.12,2,2,0,0,1,.65.36,1.74,1.74,0,0,1,.47.6,1.86,1.86,0,0,1,.17.84,1.9,1.9,0,0,1-.26,1.05,1.28,1.28,0,0,1-.71.57v0a1.36,1.36,0,0,1,.81.58A1.75,1.75,0,0,1,184.12,55.73Z"/>
        <path class="cls-8" d="M187.82,57.81V52.57l-1.07.81L186,52.13l2-1.42h1.4v7.1Z"/>
        <path class="cls-8" d="M196.62,55.45a3.3,3.3,0,0,1-.17,1.1,2.21,2.21,0,0,1-.49.78,1.88,1.88,0,0,1-.71.47,2.35,2.35,0,0,1-.87.16,2.29,2.29,0,0,1-1.42-.45,2.21,2.21,0,0,1-.79-1.37l1.37-.43a1.52,1.52,0,0,0,.28.6.65.65,0,0,0,1.07-.05,1.38,1.38,0,0,0,.19-.76,1,1,0,0,0-.31-.81,1.11,1.11,0,0,0-.74-.26,3.35,3.35,0,0,0-.71.09,5.33,5.33,0,0,0-.7.22l.15-4h3.6V52.1h-2.26l-.05,1.23a1.15,1.15,0,0,1,.28-.08.93.93,0,0,1,.27,0,2.08,2.08,0,0,1,.85.17,1.69,1.69,0,0,1,.64.45,2,2,0,0,1,.39.7A2.92,2.92,0,0,1,196.62,55.45Z"/>
        <animateTransform attributeType="auto" attributeName="transform" type="translate" values="0 0; 0 -2.5; 0 0" dur="0.8s" begin="0" repeatCount="indefinite" />
    </g>    
    <g class="wheel">
        <circle class="cls-5" cx="176.94" cy="88.58" r="14.47"/>
        <path class="cls-9" d="M176.94,80.4a8.18,8.18,0,1,0,8.18,8.18A8.18,8.18,0,0,0,176.94,80.4Z"/>
        <circle class="cls-10" cx="87.85" cy="87.43" r="14.47"/>
        <path class="cls-9" d="M87.85,79.25A8.18,8.18,0,1,0,96,87.43,8.18,8.18,0,0,0,87.85,79.25Z"/>
    </g>

</svg>