<svg xmlns="http://www.w3.org/2000/svg"
    xmlns:xlink="http://www.w3.org/1999/xlink" viewBox="0 -1 177 84.79">
    <defs>
        <style>.cls-1{fill:url(#未命名漸層_82);}.cls-2{fill:#3787c5;}.cls-10,.cls-2,.cls-3,.cls-6,.cls-8{stroke:#4d3224;}.cls-2,.cls-6{stroke-linecap:round;stroke-linejoin:round;stroke-width:1.91px;}.cls-3{fill:#80d8d6;stroke-width:1.83px;}.cls-10,.cls-3,.cls-8{stroke-miterlimit:10;}.cls-4,.cls-7{opacity:0.8;}.cls-5,.cls-7{fill:#d0ebea;}.cls-10,.cls-6{fill:#b3b3b3;}.cls-8{fill:#ffefba;stroke-width:1.8px;}.cls-9{fill:#4d3224;}.cls-10{stroke-width:0.9px;}.cls-11{fill:#4e342e;}</style>
        <linearGradient id="未命名漸層_82" x1="11796.02" y1="52" x2="11741.54" y2="53.58" gradientTransform="matrix(-1, 0, 0, 1, 11797.52, 0)" gradientUnits="userSpaceOnUse">
            <stop offset="0" stop-color="#fff" stop-opacity="0"/>
            <stop offset="0.68" stop-color="#f8eeb9" stop-opacity="0.7"/>
            <stop offset="1" stop-color="#f5e69a"/>
        </linearGradient>
    </defs>
    <title>home-n-car-up03</title>
        <g class="body">
            <g class="light">
                <polyline class="cls-1" points="56.13 47.57 0 27.09 0 76.83 54.8 58.44 56.13 47.57"/>
                <animate attributeType="auto" attributeName="opacity" dur="0.8s" values="0.5;1;0.5" repeatCount="indefinite" begin="0"/>
            </g>
            <path class="cls-2" d="M176,68.7l-5.65-62A5.71,5.71,0,0,0,164.69,1H109.44c-3.8,0-6.42,2.72-8.86,5.64C93.82,14.64,79,30.8,77.87,32.28c-.08.1-12.59,1.78-19.71,2.74a6.14,6.14,0,0,0-5.3,5.46l-.51,26.25c-.85,5.44,2.26,7.71,7.14,7.71H169.14S175.79,73.36,176,68.7Z"/>
            <path class="cls-3" d="M130.77,33h-37a2.12,2.12,0,0,1-1.63-3.48L111.28,6.6a2.11,2.11,0,0,1,1.63-.76h17.86a2.75,2.75,0,0,1,2.75,2.75v21.6A2.76,2.76,0,0,1,130.77,33Z"/>
            <path class="cls-3" d="M163.31,33h-21a2.9,2.9,0,0,1-2.9-2.9V8.72a2.9,2.9,0,0,1,2.9-2.9h18.76A2.9,2.9,0,0,1,164,8.72l2.26,21.34A2.91,2.91,0,0,1,163.31,33Z"/>
            <g class="cls-4">
                <path class="cls-5" d="M131,6.84l-5.25.07L104.61,32.2l10.4-.37L132.36,9.74S133.6,7,131,6.84Z"/>
            </g>
            <path class="cls-6" d="M101.86,38.17c-1.07,0-3.09-1.87-4.6-3.45a3.92,3.92,0,0,1-.16-5.24c1.52-1.74,3.64-3.42,4.75-3.42h0a3.39,3.39,0,0,1,3.38,3.38v5.35A3.4,3.4,0,0,1,101.86,38.17Z"/>
            <polygon class="cls-7" points="132.54 17.78 121.55 31.84 118.21 31.96 132.68 13.48 132.54 17.78"/>
            <polygon class="cls-7" points="150.32 32.08 163.66 15.02 163.21 11.47 147.19 31.93 150.32 32.08"/>
            <path class="cls-8" d="M52.46,56.15h6.2c5.54,0,7-1.57,8.09-4.42,0,0,2.73-5.14-4.15-5.14H55.16s-2.81-.09-2.83,3.59Z"/>
            <animateTransform attributeType="auto" attributeName="transform" type="translate" values="0 0; 0 -2.5; 0 0" dur="0.8s" begin="0" repeatCount="indefinite" />
        </g> 
        <g class="wheel">
            <circle class="cls-9" cx="86.27" cy="72.82" r="11.97"/>
            <path class="cls-10" d="M86.27,66.06a6.77,6.77,0,1,1-6.76,6.76A6.76,6.76,0,0,1,86.27,66.06Z"/>
            <circle class="cls-11" cx="157.08" cy="72.82" r="11.97"/>
            <path class="cls-10" d="M157.08,66.06a6.77,6.77,0,1,1-6.77,6.76A6.76,6.76,0,0,1,157.08,66.06Z"/>
        </g>
</svg>