<svg xmlns="http://www.w3.org/2000/svg" viewBox="0 -2 78.81 90">
    <defs>
        <style>.cls-1,.cls-12{fill:#4d3224;}.cls-2,.cls-8{fill:#b3b3b3;}.cls-15,.cls-3{fill:none;}.cls-11,.cls-12,.cls-14,.cls-16,.cls-17,.cls-18,.cls-19,.cls-20,.cls-3,.cls-4,.cls-5,.cls-6,.cls-7,.cls-8,.cls-9{stroke:#4d3224;}.cls-11,.cls-12,.cls-17,.cls-18,.cls-20,.cls-3,.cls-4,.cls-6,.cls-7,.cls-8,.cls-9{stroke-linecap:round;stroke-linejoin:round;}.cls-3{stroke-width:1.78px;}.cls-4{fill:#e9e9e7;}.cls-10,.cls-5{fill:#424242;}.cls-14,.cls-15,.cls-16,.cls-19,.cls-5{stroke-miterlimit:10;}.cls-6{fill:#f1ad80;}.cls-7{fill:#75544c;}.cls-9{fill:#f2f2f3;}.cls-11{fill:#9e6036;}.cls-13{fill:#9c9c9c;}.cls-14{fill:#ea4336;}.cls-15{stroke:#9c9c9c;}.cls-16{fill:#ffefba;}.cls-17{fill:#2b7299;}.cls-18{fill:#f2c09f;}.cls-19{fill:#80d8d6;}.cls-20{fill:#805c54;}</style>
    </defs>
    <title>home-scooter-up02</title>
        <g>
            <path class="cls-1" d="M76.08,76.92a9.46,9.46,0,0,0,.06-1.07,10.35,10.35,0,1,0-1.25,4.93A9.9,9.9,0,0,0,76.08,76.92Z"/>
            <path class="cls-2" d="M65.78,70a5.85,5.85,0,1,1-5.85,5.85A5.85,5.85,0,0,1,65.78,70Z"/>
        </g>
        <g>
            <path class="cls-1" d="M21,76a10,10,0,0,0-2.43-6.53A10.35,10.35,0,1,0,15.47,84.9,10,10,0,0,0,21,76Z"/>
            <path class="cls-2" d="M10.44,70a5.85,5.85,0,1,1-5.85,5.85A5.85,5.85,0,0,1,10.44,70Z"/>
        </g>
        <g class="scooter-body">
            <path class="cls-3" d="M75.85,46.05s4.45,6.68.3,8"/>
            <path class="cls-4" d="M31.43,68.73v3.85h-7.6s.83-3.52,3.52-3.89Z"/>
            <path class="cls-5" d="M27.73,36H21.87a1.43,1.43,0,0,1-1.42-1.43v0a1.43,1.43,0,0,1,1.42-1.43h5.86a1.43,1.43,0,0,1,1.42,1.43v0A1.43,1.43,0,0,1,27.73,36Z"/>
            <polygon class="cls-6" points="29.36 33.92 28.48 35.24 25.42 35.8 24.96 32.87 28.68 32.16 29.36 33.92"/>
            <polygon class="cls-7" points="48.03 18.39 52.79 24.08 29.36 34.22 28.5 31.93 43.21 21.05 48.03 18.39"/>
            <path class="cls-8" d="M11.18,76.91a1.42,1.42,0,0,1-.85-.28,1.44,1.44,0,0,1-.31-2L15.59,67a1.44,1.44,0,0,1,2.32,1.69l-5.58,7.63A1.42,1.42,0,0,1,11.18,76.91Z"/>
            <path class="cls-9" d="M19,69.29H1.76a1.41,1.41,0,0,1-1.1-2.08,8.21,8.21,0,0,1,6.5-4.33h6.71Z"/>
            <path class="cls-10" d="M17.53,60.3c.93,3.19,1.43,6.62,3.14,9.5s4.83,2.52,8.57,2.52c2.68,0,5.94.22,6.41-3.14.22-1.57.13-3.28.26-4.87.2-2.45.43-4.9.67-7.34.11-1.13.79-7.43,3.07-5.84l2.66,9.76s2.53,12.47-4.45,14.84l-15.13-.45s-7.27-2.81-9.65-15.13Z"/>
            <path class="cls-11" d="M72.25,51.45H40V45.62A2.86,2.86,0,0,1,43,42.74c2.7.26,8,2.35,13.84,2.35,4.57,0,7.91-.19,10.21-.39a4.74,4.74,0,0,1,5,3.78Z"/>
            <path class="cls-8" d="M49.63,77.41a1.31,1.31,0,0,1-1.43-1.26,1.45,1.45,0,0,1,1.42-1.46L66,74.55h0a1.53,1.53,0,0,1,1.43,1.53A1.34,1.34,0,0,1,66,77.41Z"/>
            <path class="cls-9" d="M41.94,59a24.85,24.85,0,0,1,.87,7.17c-.14,3.4-1.37,9.16-5.74,9.16l-13.88,0c-2.4,0-5.69-4.81-6.82-6.6a19.49,19.49,0,0,1,3.68-25.4,4.36,4.36,0,0,0-3.62.36,11.61,11.61,0,0,0-2.94,2.28c-3.18,3.32-7.2,7.55-7.13,12.47,0,.17,0,.33,0,.5.28,4.41,3.38,8.26,5.69,11.73,1.57,2.36,3.24,4.67,5,6.87a5.82,5.82,0,0,0,3.19,1.6L48.37,79a3.6,3.6,0,0,0,3.38-2.69c2.38-8,13.21-8,19.56-10.65,1.18-.49,4.81-1.54,5.2-3,1.34-5.15-1.22-13.09-4.74-13.09-2,0-32.11,1.63-32.12,1.63.28,0,1.88,6.29,2.07,7C41.8,58.41,41.87,58.71,41.94,59Z"/>
            <path class="cls-12" d="M16.48,43.52c.79-1,2-2,2.39-3.25.69-2.34-3.05-4.57.05-6.21,1.17-.61,2-1.27,3.31-.71,1,.47,1.81,2.75,1.23,3.69-.69,1.13-1.32,2.23-1.9,3.3s-1,1.93-1.44,2.85Z"/>
            <path class="cls-1" d="M19.8,43.83s-4,8.31-3.27,16.47L13,60.45S10.9,48.58,19.8,43.83Z"/>
            <rect class="cls-13" x="46.47" y="66.38" width="8.46" height="2.08" rx="0.76" ry="0.76" transform="translate(101.4 134.84) rotate(-180)"/>
            <rect class="cls-14" x="71.39" y="57.63" width="5.79" height="4.01" rx="1.47" ry="1.47" transform="translate(148.58 119.26) rotate(180)"/>
            <line class="cls-15" x1="12.49" y1="59.85" x2="7.3" y2="59.85"/>
            <path class="cls-16" d="M7.53,54.79a12.42,12.42,0,0,1,.57,8.74S3.66,57.66,7.53,54.79Z"/>
            <path class="cls-5" d="M28.17,38.22H22.32a1.43,1.43,0,0,1-1.43-1.43v0a1.43,1.43,0,0,1,1.43-1.43h5.85a1.43,1.43,0,0,1,1.43,1.43v0A1.43,1.43,0,0,1,28.17,38.22Z"/>
            <polygon class="cls-17" points="42.02 47.43 34.23 49.38 28.59 68.83 23.86 68.87 29.02 46.62 43.6 38.44 44.52 47.34 42.02 47.43"/>
            <polygon class="cls-18" points="46.66 12.1 48.73 16.58 43.91 19.24 41.87 15.41 46.66 12.1"/>
            <polygon class="cls-18" points="29.87 36.33 28.99 37.65 25.93 38.21 25.47 35.28 29.19 34.57 29.87 36.33"/>
            <path class="cls-9" d="M47.92,11.82l-7,4.21s-5.26-.13-6.37-5.26A8.51,8.51,0,0,1,42,.57c4.88-.68,8.1,3.59,7.54,5.88S47.92,11.82,47.92,11.82Z"/>
            <path class="cls-19" d="M41,14.89s.89-8.16-5-9.34c-.59-.12-1.24,2.54-1.29,2.83a5.89,5.89,0,0,0,1.5,5.31C37.18,14.73,39.86,16.83,41,14.89Z"/>
            <path class="cls-4" d="M34.14,69.29v3.85H26.53s.84-3.53,3.53-3.9Z"/>
            <path class="cls-17" d="M53.45,39.83a10.36,10.36,0,0,1,.87,4.73c-.13,1-8.13,11.4-16,13.7-.88.26-3.36,11.29-3.36,11.29H28l4.2-20.21,10.12-9.5Z"/>
            <path class="cls-20" d="M52.26,16.51a1.93,1.93,0,0,1,.35.35,3.5,3.5,0,0,1,.47,1.59c.1.76,1.12,8.63,1.22,8.63.16,1.21,1.41,13.77,1.82,13.8L42.32,40l0-21.38c1.78-.84,3.56-1.69,5.38-2.46A5.58,5.58,0,0,1,52.26,16.51Z"/>
            <path class="cls-1" d="M49.29,8.51c-1.16,2,1.18,4.58,2.47,5.91.72.76,1.65,1.36,2.33,2.14.3.34,2.07,3.36,1.13,3.67l-1.78.6s1-4.9-4.89-5.19l-1.64-3Z"/>
            <polyline class="cls-20" points="51.14 26.72 30.06 36.86 29.19 34.57 43.91 23.69 46.38 21.04"/>
            <path class="cls-8" d="M23.71,28.51l-2.8,7.24a.59.59,0,1,1-1.11-.42l2.9-7.53a.62.62,0,0,1,.41-.36"/>
            <path class="cls-1" d="M22.44,27.54c-.36-2-.09-3.69.6-3.81s1.54,1.37,1.9,3.35.09,3.69-.6,3.81S22.8,29.52,22.44,27.54Z"/>
            <animateTransform attributeType="auto" attributeName="transform" type="translate" values="0 0; 0 -2.5; 0 0" dur="0.8s" begin="0" repeatCount="indefinite" />

        </g>
</svg>