<svg xmlns="http://www.w3.org/2000/svg"
    xmlns:xlink="http://www.w3.org/1999/xlink" viewBox="0 -3 118.44 90.13">
    <defs>
        <style>.cls-1{fill:url(#未命名漸層_82);}.cls-13,.cls-2{fill:#4d3224;}.cls-3,.cls-9{fill:#b3b3b3;}.cls-16,.cls-4{fill:none;}.cls-10,.cls-12,.cls-13,.cls-15,.cls-17,.cls-18,.cls-19,.cls-20,.cls-21,.cls-4,.cls-5,.cls-6,.cls-7,.cls-8,.cls-9{stroke:#4d3224;}.cls-10,.cls-12,.cls-13,.cls-18,.cls-19,.cls-21,.cls-4,.cls-5,.cls-7,.cls-8,.cls-9{stroke-linecap:round;stroke-linejoin:round;}.cls-4{stroke-width:1.78px;}.cls-5{fill:#e9e9e7;}.cls-11,.cls-6{fill:#424242;}.cls-15,.cls-16,.cls-17,.cls-20,.cls-6{stroke-miterlimit:10;}.cls-7{fill:#f1ad80;}.cls-8{fill:#75544c;}.cls-10{fill:#f2f2f3;}.cls-12{fill:#9e6036;}.cls-14{fill:#9c9c9c;}.cls-15{fill:#ea4336;}.cls-16{stroke:#9c9c9c;}.cls-17{fill:#ffefba;}.cls-18{fill:#2b7299;}.cls-19{fill:#f2c09f;}.cls-20{fill:#80d8d6;}.cls-21{fill:#805c54;}</style>
        <linearGradient id="未命名漸層_82" x1="11.67" y1="69.06" x2="44.17" y2="53.06" gradientUnits="userSpaceOnUse">
            <stop offset="0" stop-color="#fff" stop-opacity="0"/>
            <stop offset="0.68" stop-color="#f8eeb9" stop-opacity="0.7"/>
            <stop offset="1" stop-color="#f5e69a"/>
        </linearGradient>
    </defs>
    <title>home-n-scooter-up02</title>
    <g class="wheel">
        <path class="cls-2" d="M115.71-23.08a9.46,9.46,0,0,0,.06-1.07,10.36,10.36,0,0,0-10.36-10.36A10.36,10.36,0,0,0,95.05-24.15,10.35,10.35,0,0,0,105.41-13.8a10.37,10.37,0,0,0,9.11-5.42A9.9,9.9,0,0,0,115.71-23.08Z" transform="translate(0 100)"/>
        <path class="cls-3" d="M105.41-30a5.85,5.85,0,0,1,5.85,5.85,5.85,5.85,0,0,1-5.85,5.85,5.85,5.85,0,0,1-5.85-5.85A5.85,5.85,0,0,1,105.41-30Z" transform="translate(0 100)"/>
        <path class="cls-2" d="M60.61-24a10,10,0,0,0-2.44-6.53,10.32,10.32,0,0,0-8.11-3.93A10.35,10.35,0,0,0,39.71-24.15,10.35,10.35,0,0,0,50.06-13.8a10.29,10.29,0,0,0,5-1.3A10,10,0,0,0,60.61-24Z" transform="translate(0 100)"/>
        <path class="cls-3" d="M50.06-30a5.84,5.84,0,0,1,5.85,5.85,5.84,5.84,0,0,1-5.85,5.85,5.85,5.85,0,0,1-5.85-5.85A5.85,5.85,0,0,1,50.06-30Z" transform="translate(0 100)"/>
    </g>
    <g class="body">
        <g class="light">
            <polyline class="cls-1" points="47.64 52.97 0 52.84 13.5 90.13 49.59 61.48 47.64 52.97"/>
            <animate attributeType="auto" attributeName="opacity" dur="0.8s" values="0.5;1;0.5" repeatCount="indefinite" begin="0"/>
        </g>        
        <path class="cls-4" d="M115.48-53.95s4.45,6.68.29,8" transform="translate(0 100)"/>
        <path class="cls-5" d="M71.06-31.27v3.85H63.45s.84-3.52,3.53-3.89Z" transform="translate(0 100)"/>
        <path class="cls-6" d="M67.35-64H61.5a1.44,1.44,0,0,1-1.43-1.43v0a1.44,1.44,0,0,1,1.43-1.43h5.85a1.44,1.44,0,0,1,1.43,1.43v0A1.43,1.43,0,0,1,67.35-64Z" transform="translate(0 100)"/>
        <polygon class="cls-7" points="68.99 33.92 68.11 35.24 65.05 35.8 64.58 32.87 68.31 32.16 68.99 33.92"/>
        <polygon class="cls-8" points="87.66 18.39 92.42 24.08 68.99 34.22 68.12 31.93 82.84 21.05 87.66 18.39"/>
        <path class="cls-9" d="M50.8-23.09a1.41,1.41,0,0,1-.84-.28,1.43,1.43,0,0,1-.31-2L55.22-33a1.43,1.43,0,0,1,2-.31,1.43,1.43,0,0,1,.31,2L52-23.68A1.44,1.44,0,0,1,50.8-23.09Z" transform="translate(0 100)"/>
        <path class="cls-10" d="M58.66-30.71H41.39a1.42,1.42,0,0,1-1.11-2.08,8.24,8.24,0,0,1,6.51-4.33H53.5Z" transform="translate(0 100)"/>
        <path class="cls-11" d="M57.16-39.7c.93,3.19,1.43,6.62,3.14,9.5s4.83,2.52,8.57,2.52c2.68,0,5.94.22,6.41-3.14.22-1.57.12-3.28.26-4.87.2-2.45.43-4.9.67-7.34.11-1.13.78-7.43,3.07-5.84l2.66,9.76s2.52,12.47-4.45,14.84l-15.14-.45s-7.27-2.81-9.64-15.13Z" transform="translate(0 100)"/>
        <path class="cls-12" d="M111.88-48.55H79.58v-5.83a2.85,2.85,0,0,1,3.08-2.88c2.69.26,8,2.35,13.84,2.35,4.57,0,7.91-.19,10.2-.39a4.75,4.75,0,0,1,5,3.78Z" transform="translate(0 100)"/>
        <path class="cls-9" d="M89.26-22.59a1.3,1.3,0,0,1-1.43-1.26,1.45,1.45,0,0,1,1.42-1.46l16.33-.14h0A1.53,1.53,0,0,1,107-23.92a1.35,1.35,0,0,1-1.43,1.33Z" transform="translate(0 100)"/>
        <path class="cls-10" d="M81.57-41a25.57,25.57,0,0,1,.87,7.17c-.15,3.4-1.38,9.16-5.74,9.16l-13.89,0c-2.39,0-5.68-4.81-6.82-6.6a19.88,19.88,0,0,1-3.12-10.26,19.85,19.85,0,0,1,6.8-15.14,4.34,4.34,0,0,0-3.61.36,11.44,11.44,0,0,0-2.94,2.28c-3.18,3.32-7.2,7.55-7.14,12.47,0,.17,0,.33,0,.5.27,4.41,3.38,8.26,5.69,11.73,1.57,2.36,3.23,4.67,5,6.87a5.82,5.82,0,0,0,3.19,1.6L88-21a3.61,3.61,0,0,0,3.38-2.69c2.37-8,13.21-8,19.56-10.65,1.17-.49,4.81-1.54,5.19-3,1.35-5.15-1.22-13.09-4.73-13.09-2,0-32.11,1.63-32.12,1.63.27,0,1.88,6.29,2.06,7C81.42-41.59,81.5-41.29,81.57-41Z" transform="translate(0 100)"/>
        <path class="cls-13" d="M56.11-56.48c.79-1,2-2,2.39-3.25.69-2.34-3.06-4.57,0-6.21,1.17-.61,2-1.27,3.3-.71,1,.47,1.82,2.75,1.24,3.69-.69,1.13-1.33,2.23-1.9,3.3s-1,1.93-1.44,2.85Z" transform="translate(0 100)"/>
        <path class="cls-2" d="M59.43-56.17s-4,8.31-3.27,16.47l-3.56.15S50.52-51.42,59.43-56.17Z" transform="translate(0 100)"/>
        <rect class="cls-14" x="86.1" y="-33.62" width="8.46" height="2.08" rx="0.76" ry="0.76" transform="translate(180.65 34.84) rotate(-180)"/>
        <rect class="cls-15" x="111.02" y="-42.37" width="5.79" height="4.01" rx="1.47" ry="1.47" transform="translate(227.83 19.26) rotate(180)"/>
        <line class="cls-16" x1="52.12" y1="59.85" x2="46.92" y2="59.85"/>
        <path class="cls-17" d="M47.15-45.21a12.39,12.39,0,0,1,.58,8.74S43.28-42.34,47.15-45.21Z" transform="translate(0 100)"/>
        <path class="cls-6" d="M67.8-61.78H62a1.43,1.43,0,0,1-1.43-1.43v0A1.43,1.43,0,0,1,62-64.68H67.8a1.44,1.44,0,0,1,1.43,1.43v0A1.44,1.44,0,0,1,67.8-61.78Z" transform="translate(0 100)"/>
        <polygon class="cls-18" points="81.65 47.43 73.86 49.38 68.22 68.83 63.49 68.87 68.65 46.62 83.22 38.44 84.15 47.34 81.65 47.43"/>
        <polygon class="cls-19" points="86.28 12.1 88.35 16.58 83.53 19.24 81.49 15.41 86.28 12.1"/>
        <polygon class="cls-19" points="69.5 36.33 68.62 37.65 65.56 38.21 65.09 35.28 68.82 34.57 69.5 36.33"/>
        <path class="cls-10" d="M87.55-88.18l-7,4.21s-5.26-.13-6.37-5.26a8.49,8.49,0,0,1,7.42-10.2c4.88-.68,8.09,3.59,7.54,5.88S87.55-88.18,87.55-88.18Z" transform="translate(0 100)"/>
        <path class="cls-20" d="M80.61-85.11s.89-8.16-5-9.34c-.59-.12-1.25,2.54-1.3,2.83a5.93,5.93,0,0,0,1.51,5.31C76.81-85.27,79.48-83.17,80.61-85.11Z" transform="translate(0 100)"/>
        <path class="cls-5" d="M73.76-30.71v3.85h-7.6s.84-3.53,3.52-3.9Z" transform="translate(0 100)"/>
        <path class="cls-18" d="M93.08-60.17A10.36,10.36,0,0,1,94-55.44c-.13,1-8.13,11.4-16,13.7-.89.26-3.36,11.29-3.36,11.29H67.64l4.2-20.21L82-60.17Z" transform="translate(0 100)"/>
        <path class="cls-21" d="M91.88-83.49a1.7,1.7,0,0,1,.36.35,3.5,3.5,0,0,1,.47,1.59c.1.76,1.11,8.63,1.22,8.63.16,1.21,1.41,13.77,1.82,13.8L82-60l0-21.38c1.78-.84,3.56-1.69,5.38-2.46A5.56,5.56,0,0,1,91.88-83.49Z" transform="translate(0 100)"/>
        <path class="cls-2" d="M88.91-91.49c-1.15,2,1.18,4.58,2.47,5.91.73.76,1.66,1.36,2.34,2.14.29.34,2.06,3.36,1.13,3.67l-1.78.6s1-4.9-4.9-5.19l-1.63-3Z" transform="translate(0 100)"/>
        <polyline class="cls-21" points="90.77 26.72 69.68 36.86 68.82 34.57 83.53 23.69 86.01 21.04"/>
        <path class="cls-9" d="M63.33-71.49l-2.79,7.24a.6.6,0,0,1-.77.35.59.59,0,0,1-.34-.77l2.9-7.53a.62.62,0,0,1,.41-.36" transform="translate(0 100)"/>
        <path class="cls-2" d="M62.07-72.46c-.36-2-.1-3.69.59-3.81s1.54,1.37,1.91,3.35.09,3.69-.6,3.81S62.43-70.48,62.07-72.46Z" transform="translate(0 100)"/>
        <animateTransform attributeType="auto" attributeName="transform" type="translate" values="0 0; 0 -2.5; 0 0" dur="0.8s" begin="0" repeatCount="indefinite" />
    </g>
    

</svg>