<svg xmlns="http://www.w3.org/2000/svg"
    xmlns:xlink="http://www.w3.org/1999/xlink" viewBox="0 0 244.96 82.69">
    <defs>
        <style>.cls-1{fill:url(#未命名漸層_107);}.cls-2{fill:#f2f2f3;}.cls-10,.cls-2,.cls-3,.cls-4,.cls-8{stroke:#4d3224;}.cls-2,.cls-8{stroke-linecap:round;stroke-linejoin:round;stroke-width:2.24px;}.cls-3{fill:#80d8d6;stroke-width:2.14px;}.cls-10,.cls-3,.cls-4{stroke-miterlimit:10;}.cls-4{fill:#ffefba;stroke-width:2.12px;}.cls-5{opacity:0.8;}.cls-6{fill:#d0ebea;}.cls-7{fill:#dfe0e0;}.cls-10,.cls-8{fill:#b3b3b3;}.cls-9{fill:#4d3224;}.cls-10{stroke-width:1.06px;}.cls-11{fill:#4e342e;}</style>
        <linearGradient id="未命名漸層_107" x1="244.13" y1="44.29" x2="169.61" y2="46.45" gradientUnits="userSpaceOnUse">
            <stop offset="0" stop-color="#fff" stop-opacity="0"/>
            <stop offset="0.61" stop-color="#f9f0c2" stop-opacity="0.6"/>
            <stop offset="1" stop-color="#f5e69a"/>
        </linearGradient>
    </defs>
    <title>home-car-down03_1</title>
        <g class="body">
            <g class="light">
                <polyline class="cls-1" points="167.09 41.68 244.96 13.26 244.96 75.26 168.94 54.75 167.09 41.68"/>
                <animate attributeType="auto" attributeName="opacity" dur="0.8s" values="0.5;1;0.5" repeatCount="indefinite" begin="0"/>
            </g>
            <path class="cls-2" d="M1.12,34.93v29c0,4,1.52,7.4,5.62,7.4l149.16.4c4.93,0,13.22-1.42,12.87-11,0,0,.71-12.58.48-16-.35-5.32-5-8.24-9.25-10.43a68.17,68.17,0,0,0-14.46-5.43c-4.72-1.18-9.73-1.64-14.09-4-3.76-2-6.41-5.19-9.77-7.7C109.23,7.9,102.34,1.12,69.36,1.12,45,1.12,26.61,9.29,14.9,23.46c-.54.65-4.15,2.47-9.91,4.71C2.92,29,1.12,30.53,1.12,34.93Z"/>
            <path class="cls-3" d="M72.73,6.71c23.86,0,42.56,11,49.25,23.39a2.39,2.39,0,0,1-2.38,3.38H72.33a2.5,2.5,0,0,1-2.62-2.35V9C69.71,7.6,71.12,6.71,72.73,6.71Z"/>
            <path class="cls-3" d="M58.77,6.71C37,6.71,21,22.05,18.61,30.1a2.36,2.36,0,0,0,2.16,3.38H59.11a2.38,2.38,0,0,0,2.39-2.35V13.69C61.5,8.72,61.25,6.71,58.77,6.71Z"/>
            <path class="cls-4" d="M169.1,51.72h-7.29c-6.51,0-8.17-1.84-9.5-5.19,0,0-3.21-6,4.88-6h8.74s3.29-.11,3.32,4.21Z"/>
            <g class="cls-5">
                <polygon class="cls-6" points="71.03 15.04 87.31 32.26 92.38 32.26 70.97 9.46 71.03 15.04"/>
                <path class="cls-6" d="M110.12,32.35,87.73,9.45S79.16,7.61,74.94,7.78L98.15,32.35"/>
            </g>
            <path class="cls-6" d="M33.7,15.35,47.45,32.28l-4.94.17-12-14.81A25.78,25.78,0,0,1,33.7,15.35Z"/>
            <path class="cls-7" d="M167.11,63.8H2.89S.36,70.25,8.77,70.53l149.66-.28S165.71,70.25,167.11,63.8Z"/>
            <path class="cls-8" d="M118.29,36.77c1.26,0,3.63-2.2,5.4-4.06a4.6,4.6,0,0,0,.2-6.16c-1.79-2-4.28-4-5.59-4h0a4,4,0,0,0-4,4V32.8A4,4,0,0,0,118.29,36.77Z"/>
            <animateTransform attributeType="auto" attributeName="transform" type="translate" values="0 0; 0 -2.5; 0 0" dur="0.8s" begin="0" repeatCount="indefinite" />
    </g>
    <g class="wheel">  
        <circle class="cls-9" cx="130.84" cy="68.63" r="14.06"/>
        <path class="cls-10" d="M130.84,60.69a7.94,7.94,0,1,0,7.94,7.94A7.93,7.93,0,0,0,130.84,60.69Z"/>
        <circle class="cls-11" cx="30.86" cy="68.63" r="14.06"/>
        <path class="cls-10" d="M30.86,60.69a7.94,7.94,0,1,0,7.94,7.94A7.94,7.94,0,0,0,30.86,60.69Z"/>
    </g>
</svg>