<svg xmlns="http://www.w3.org/2000/svg" viewBox="0 0 1918.18 267.45"><defs><style>.cls-1{isolation:isolate;}.cls-2{fill:#a4aaab;}.cls-20,.cls-3,.cls-44{fill:none;}.cls-10,.cls-11,.cls-12,.cls-13,.cls-14,.cls-15,.cls-16,.cls-22,.cls-23,.cls-25,.cls-26,.cls-27,.cls-29,.cls-3,.cls-33,.cls-34,.cls-35,.cls-36,.cls-4,.cls-40,.cls-41,.cls-6,.cls-8{stroke:#4d3224;}.cls-10,.cls-11,.cls-12,.cls-13,.cls-14,.cls-15,.cls-16,.cls-20,.cls-22,.cls-23,.cls-25,.cls-26,.cls-27,.cls-29,.cls-3,.cls-33,.cls-34,.cls-35,.cls-36,.cls-4,.cls-40,.cls-41,.cls-44,.cls-6,.cls-8,.cls-9{stroke-linecap:round;stroke-linejoin:round;stroke-width:1.5px;}.cls-4{fill:#f1d4c2;}.cls-5{fill:#e0bfa9;}.cls-6{fill:#e0ab8b;}.cls-25,.cls-7{fill:#9a8e80;}.cls-8{fill:#e4967d;}.cls-11,.cls-9{fill:#da8571;}.cls-9{stroke:#da8571;}.cls-10{fill:#da7962;}.cls-12{fill:#805c54;}.cls-13,.cls-43{fill:#80d8d6;}.cls-14{fill:#e6ffff;}.cls-15{fill:#9fc2c4;}.cls-16{fill:#c9e2ff;}.cls-17{fill:#4d3224;}.cls-18{opacity:0.4;}.cls-19{fill:#d0ebea;}.cls-20{stroke:#426e75;}.cls-21{fill:#4e98a0;}.cls-22{fill:#7bb52d;}.cls-23,.cls-37{fill:#ff9563;}.cls-24{fill:#de744c;}.cls-26{fill:#426e75;}.cls-27{fill:#f27e52;}.cls-28,.cls-35{fill:#ffb563;}.cls-29{fill:#659225;}.cls-30{fill:#50a33f;}.cls-31{fill:#479137;}.cls-32{fill:#5ab747;}.cls-33{fill:#d75968;}.cls-34{fill:#c46048;}.cls-36{fill:#a14f3b;}.cls-38{fill:#72a72a;}.cls-39{fill:#8acc2b;}.cls-40{fill:#77c4ce;}.cls-41{fill:#5aabb9;}.cls-42{opacity:0.23;mix-blend-mode:color-dodge;}.cls-44{stroke:#80d8d6;}</style></defs><title>home-city03</title><g class="cls-1"><g id="圖層_2" data-name="圖層 2"><g id="首頁"><rect class="cls-2" x="642.91" y="246.7" width="1274.51" height="20"/><polyline class="cls-3" points="1917.43 246.7 642.91 246.7 642.91 266.7"/><rect class="cls-2" x="0.75" y="246.7" width="150" height="20"/><polyline class="cls-3" points="0.75 246.7 150.75 246.7 150.75 266.7"/><polygon class="cls-4" points="1691.56 129.28 1691.56 122.31 1660.89 122.31 1660.89 129.28 1647.77 129.28 1647.77 253.37 1704.67 253.37 1704.67 129.28 1691.56 129.28"/><rect class="cls-5" x="1689.2" y="129.97" width="7.72" height="122.1"/><rect class="cls-5" x="1675.06" y="129.97" width="7.72" height="122.1"/><rect class="cls-5" x="1660.7" y="129.97" width="7.72" height="122.1"/><rect class="cls-6" x="1646.31" y="122.31" width="61.15" height="7.66"/><rect class="cls-7" x="1663.08" y="148.29" width="2.95" height="2.99"/><polygon class="cls-7" points="1668.23 146.42 1660.88 146.42 1660.88 153.15 1668.23 153.15 1668.23 146.42 1668.23 146.42"/><rect class="cls-7" x="1677.45" y="148.29" width="2.95" height="2.99"/><polygon class="cls-7" points="1682.59 146.42 1675.25 146.42 1675.25 153.15 1682.59 153.15 1682.59 146.42 1682.59 146.42"/><rect class="cls-7" x="1691.81" y="148.29" width="2.95" height="2.99"/><polygon class="cls-7" points="1696.96 146.42 1689.62 146.42 1689.62 153.15 1696.96 153.15 1696.96 146.42 1696.96 146.42"/><rect class="cls-7" x="1663.08" y="160.62" width="2.95" height="2.99"/><polygon class="cls-7" points="1668.23 158.75 1660.88 158.75 1660.88 165.48 1668.23 165.48 1668.23 158.75 1668.23 158.75"/><rect class="cls-7" x="1677.45" y="160.62" width="2.95" height="2.99"/><polygon class="cls-7" points="1682.59 158.75 1675.25 158.75 1675.25 165.48 1682.59 165.48 1682.59 158.75 1682.59 158.75"/><rect class="cls-7" x="1691.81" y="160.62" width="2.95" height="2.99"/><polygon class="cls-7" points="1696.96 158.75 1689.62 158.75 1689.62 165.48 1696.96 165.48 1696.96 158.75 1696.96 158.75"/><rect class="cls-7" x="1663.08" y="172.95" width="2.95" height="2.99"/><polygon class="cls-7" points="1668.23 171.08 1660.88 171.08 1660.88 177.81 1668.23 177.81 1668.23 171.08 1668.23 171.08"/><rect class="cls-7" x="1677.45" y="172.95" width="2.95" height="2.99"/><polygon class="cls-7" points="1682.59 171.08 1675.25 171.08 1675.25 177.81 1682.59 177.81 1682.59 171.08 1682.59 171.08"/><rect class="cls-7" x="1691.81" y="172.95" width="2.95" height="2.99"/><polygon class="cls-7" points="1696.96 171.08 1689.62 171.08 1689.62 177.81 1696.96 177.81 1696.96 171.08 1696.96 171.08"/><rect class="cls-7" x="1663.08" y="185.28" width="2.95" height="2.99"/><polygon class="cls-7" points="1668.23 183.41 1660.88 183.41 1660.88 190.14 1668.23 190.14 1668.23 183.41 1668.23 183.41"/><rect class="cls-7" x="1677.45" y="185.28" width="2.95" height="2.99"/><polygon class="cls-7" points="1682.59 183.41 1675.25 183.41 1675.25 190.14 1682.59 190.14 1682.59 183.41 1682.59 183.41"/><rect class="cls-7" x="1691.81" y="185.28" width="2.95" height="2.99"/><polygon class="cls-7" points="1696.96 183.41 1689.62 183.41 1689.62 190.14 1696.96 190.14 1696.96 183.41 1696.96 183.41"/><rect class="cls-7" x="1663.08" y="197.61" width="2.95" height="2.99"/><polygon class="cls-7" points="1668.23 195.74 1660.88 195.74 1660.88 202.47 1668.23 202.47 1668.23 195.74 1668.23 195.74"/><rect class="cls-7" x="1677.45" y="197.61" width="2.95" height="2.99"/><polygon class="cls-7" points="1682.59 195.74 1675.25 195.74 1675.25 202.47 1682.59 202.47 1682.59 195.74 1682.59 195.74"/><rect class="cls-7" x="1691.81" y="197.61" width="2.95" height="2.99"/><polygon class="cls-7" points="1696.96 195.74 1689.62 195.74 1689.62 202.47 1696.96 202.47 1696.96 195.74 1696.96 195.74"/><rect class="cls-7" x="1663.08" y="209.94" width="2.95" height="2.99"/><polygon class="cls-7" points="1668.23 208.07 1660.88 208.07 1660.88 214.8 1668.23 214.8 1668.23 208.07 1668.23 208.07"/><rect class="cls-7" x="1677.45" y="209.94" width="2.95" height="2.99"/><polygon class="cls-7" points="1682.59 208.07 1675.25 208.07 1675.25 214.8 1682.59 214.8 1682.59 208.07 1682.59 208.07"/><rect class="cls-7" x="1691.81" y="209.94" width="2.95" height="2.99"/><polygon class="cls-7" points="1696.96 208.07 1689.62 208.07 1689.62 214.8 1696.96 214.8 1696.96 208.07 1696.96 208.07"/><polygon class="cls-8" points="1651.84 88.53 1651.84 74.49 1642.98 74.49 1642.98 61.57 1636.45 61.57 1636.45 50.73 1632.24 50.73 1632.24 39.1 1622.82 39.1 1622.82 14.6 1619.93 14.6 1619.93 39.1 1610.51 39.1 1610.51 50.73 1606.3 50.73 1606.3 61.57 1599.77 61.57 1599.77 74.49 1590.9 74.49 1590.9 88.53 1581.71 88.53 1581.71 253.37 1661.04 253.37 1661.04 88.53 1651.84 88.53"/><rect class="cls-9" x="1601.14" y="106.51" width="4.63" height="121.55"/><rect class="cls-9" x="1613.04" y="106.51" width="4.63" height="121.55"/><rect class="cls-9" x="1624.95" y="106.51" width="4.63" height="121.55"/><rect class="cls-9" x="1636.85" y="106.51" width="4.63" height="121.55"/><rect class="cls-10" x="1610.51" y="39.11" width="21.73" height="11.62"/><rect class="cls-10" x="1599.64" y="61.58" width="43.34" height="12.92"/><rect class="cls-11" x="1606.45" y="50.73" width="30" height="10.85"/><rect class="cls-11" x="1591.46" y="73.99" width="60.39" height="14.54"/><rect class="cls-12" x="1602.45" y="102.02" width="1.29" height="118.5"/><polygon class="cls-12" points="1605.41 100.5 1600.79 100.5 1600.79 222.04 1605.41 222.04 1605.41 100.5 1605.41 100.5"/><rect class="cls-12" x="1614.36" y="102.02" width="1.29" height="118.5"/><polygon class="cls-12" points="1617.32 100.5 1612.69 100.5 1612.69 222.04 1617.32 222.04 1617.32 100.5 1617.32 100.5"/><rect class="cls-12" x="1626.26" y="102.02" width="1.3" height="118.5"/><polygon class="cls-12" points="1629.23 100.5 1624.6 100.5 1624.6 222.04 1629.23 222.04 1629.23 100.5 1629.23 100.5"/><rect class="cls-12" x="1638.17" y="102.02" width="1.29" height="118.5"/><polygon class="cls-12" points="1641.13 100.5 1636.5 100.5 1636.5 222.04 1641.13 222.04 1641.13 100.5 1641.13 100.5"/><rect class="cls-13" x="1663.08" y="145.49" width="2.95" height="2.99"/><polygon class="cls-13" points="1668.23 143.62 1660.89 143.62 1660.89 150.34 1668.23 150.34 1668.23 143.62 1668.23 143.62"/><rect class="cls-13" x="1677.45" y="145.49" width="2.95" height="2.99"/><polygon class="cls-13" points="1682.59 143.62 1675.25 143.62 1675.25 150.34 1682.59 150.34 1682.59 143.62 1682.59 143.62"/><rect class="cls-13" x="1691.81" y="145.49" width="2.95" height="2.99"/><polygon class="cls-13" points="1696.96 143.62 1689.62 143.62 1689.62 150.34 1696.96 150.34 1696.96 143.62 1696.96 143.62"/><rect class="cls-13" x="1663.08" y="157.82" width="2.95" height="2.99"/><polygon class="cls-13" points="1668.23 155.95 1660.89 155.95 1660.89 162.68 1668.23 162.68 1668.23 155.95 1668.23 155.95"/><rect class="cls-13" x="1677.45" y="157.82" width="2.95" height="2.99"/><polygon class="cls-13" points="1682.59 155.95 1675.25 155.95 1675.25 162.68 1682.59 162.68 1682.59 155.95 1682.59 155.95"/><rect class="cls-13" x="1691.81" y="157.82" width="2.95" height="2.99"/><polygon class="cls-13" points="1696.96 155.95 1689.62 155.95 1689.62 162.68 1696.96 162.68 1696.96 155.95 1696.96 155.95"/><rect class="cls-13" x="1663.08" y="170.15" width="2.95" height="2.99"/><polygon class="cls-13" points="1668.23 168.28 1660.89 168.28 1660.89 175.01 1668.23 175.01 1668.23 168.28 1668.23 168.28"/><rect class="cls-13" x="1677.45" y="170.15" width="2.95" height="2.99"/><polygon class="cls-13" points="1682.59 168.28 1675.25 168.28 1675.25 175.01 1682.59 175.01 1682.59 168.28 1682.59 168.28"/><rect class="cls-13" x="1691.81" y="170.15" width="2.95" height="2.99"/><polygon class="cls-13" points="1696.96 168.28 1689.62 168.28 1689.62 175.01 1696.96 175.01 1696.96 168.28 1696.96 168.28"/><rect class="cls-13" x="1663.08" y="182.48" width="2.95" height="2.99"/><polygon class="cls-13" points="1668.23 180.61 1660.89 180.61 1660.89 187.34 1668.23 187.34 1668.23 180.61 1668.23 180.61"/><rect class="cls-13" x="1677.45" y="182.48" width="2.95" height="2.99"/><polygon class="cls-13" points="1682.59 180.61 1675.25 180.61 1675.25 187.34 1682.59 187.34 1682.59 180.61 1682.59 180.61"/><rect class="cls-13" x="1691.81" y="182.48" width="2.95" height="2.99"/><polygon class="cls-13" points="1696.96 180.61 1689.62 180.61 1689.62 187.34 1696.96 187.34 1696.96 180.61 1696.96 180.61"/><rect class="cls-13" x="1663.08" y="194.81" width="2.95" height="2.99"/><polygon class="cls-13" points="1668.23 192.94 1660.89 192.94 1660.89 199.67 1668.23 199.67 1668.23 192.94 1668.23 192.94"/><rect class="cls-13" x="1677.45" y="194.81" width="2.95" height="2.99"/><polygon class="cls-13" points="1682.59 192.94 1675.25 192.94 1675.25 199.67 1682.59 199.67 1682.59 192.94 1682.59 192.94"/><rect class="cls-13" x="1691.81" y="194.81" width="2.95" height="2.99"/><polygon class="cls-13" points="1696.96 192.94 1689.62 192.94 1689.62 199.67 1696.96 199.67 1696.96 192.94 1696.96 192.94"/><rect class="cls-13" x="1663.08" y="207.14" width="2.95" height="2.99"/><polygon class="cls-13" points="1668.23 205.27 1660.89 205.27 1660.89 212 1668.23 212 1668.23 205.27 1668.23 205.27"/><rect class="cls-13" x="1677.45" y="207.14" width="2.95" height="2.99"/><polygon class="cls-13" points="1682.59 205.27 1675.25 205.27 1675.25 212 1682.59 212 1682.59 205.27 1682.59 205.27"/><rect class="cls-13" x="1691.81" y="207.14" width="2.95" height="2.99"/><polygon class="cls-13" points="1696.96 205.27 1689.62 205.27 1689.62 212 1696.96 212 1696.96 205.27 1696.96 205.27"/><rect class="cls-14" x="1367.3" y="70.28" width="23.2" height="19.12"/><rect class="cls-15" x="1366.51" y="68.36" width="24.78" height="1.92"/><rect class="cls-16" x="1357.09" y="81.84" width="43.62" height="19.12"/><rect class="cls-15" x="1355.77" y="79.45" width="46.24" height="2.39"/><rect class="cls-14" x="1340.44" y="96.46" width="76.9" height="156.91"/><rect class="cls-15" x="1339.07" y="93.45" width="79.66" height="3.01"/><path class="cls-13" d="M1394,83.49a3.42,3.42,0,0,1,3.37,3.47v6.49h-6.75V87A3.42,3.42,0,0,1,1394,83.49Z"/><path class="cls-13" d="M1383.92,83.49A3.43,3.43,0,0,1,1387.3,87v6.49h-6.76V87A3.42,3.42,0,0,1,1383.92,83.49Z"/><path class="cls-13" d="M1373.87,83.49a3.42,3.42,0,0,1,3.38,3.47v6.49h-6.76V87A3.43,3.43,0,0,1,1373.87,83.49Z"/><path class="cls-13" d="M1363.83,83.49A3.42,3.42,0,0,1,1367.2,87v6.49h-6.75V87A3.42,3.42,0,0,1,1363.83,83.49Z"/><rect class="cls-17" x="1387.3" y="69.83" width="1.14" height="10.02"/><rect class="cls-17" x="1381.41" y="69.83" width="1.14" height="10.02"/><rect class="cls-17" x="1375.52" y="69.83" width="1.14" height="10.02"/><rect class="cls-17" x="1369.64" y="69.83" width="1.14" height="10.02"/><rect class="cls-13" x="1361.59" y="226.89" width="35.14" height="26.48" transform="translate(2758.32 480.26) rotate(180)"/><g class="cls-18"><polygon class="cls-19" points="1368.78 228.33 1368.78 227.74 1371.33 227.74 1394.74 252.52 1391.63 252.52 1368.78 228.33"/><polygon class="cls-19" points="1396.08 243.29 1396.08 250.41 1374.66 227.74 1381.38 227.74 1396.08 243.29"/></g><line class="cls-20" x1="1378.9" y1="227.75" x2="1378.9" y2="252.66"/><polygon class="cls-21" points="1409.85 118.21 1408.62 118.21 1408.62 118.25 1400.42 118.25 1400.42 118.21 1400.42 103.63 1400.42 102.83 1409.85 102.83 1409.85 118.21"/><polygon class="cls-21" points="1396.73 118.13 1395.5 118.13 1395.5 118.17 1387.3 118.17 1387.3 118.13 1387.3 103.56 1387.3 102.75 1396.73 102.75 1396.73 118.13"/><polygon class="cls-21" points="1370.49 118.13 1369.27 118.13 1369.27 118.17 1361.06 118.17 1361.06 118.13 1361.06 103.56 1361.06 102.75 1370.49 102.75 1370.49 118.13"/><polygon class="cls-21" points="1357.37 102.83 1357.37 118.21 1356.14 118.21 1356.14 118.25 1347.94 118.25 1347.94 118.21 1347.94 103.63 1347.94 102.83 1357.37 102.83"/><polygon class="cls-21" points="1382.38 118.25 1374.18 118.25 1374.18 118.21 1374.18 103.63 1374.18 102.83 1383.61 102.83 1383.61 118.21 1382.38 118.21 1382.38 118.25"/><polygon class="cls-21" points="1409.85 139.39 1408.62 139.39 1408.62 139.43 1400.42 139.43 1400.42 139.39 1400.42 124.81 1400.42 124.01 1409.85 124.01 1409.85 139.39"/><polygon class="cls-21" points="1396.73 139.31 1395.5 139.31 1395.5 139.35 1387.3 139.35 1387.3 139.31 1387.3 124.74 1387.3 123.93 1396.73 123.93 1396.73 139.31"/><polygon class="cls-21" points="1370.49 139.31 1369.27 139.31 1369.27 139.35 1361.06 139.35 1361.06 139.31 1361.06 124.74 1361.06 123.93 1370.49 123.93 1370.49 139.31"/><polygon class="cls-21" points="1357.37 124.01 1357.37 139.39 1356.14 139.39 1356.14 139.43 1347.94 139.43 1347.94 139.39 1347.94 124.81 1347.94 124.01 1357.37 124.01"/><polygon class="cls-21" points="1382.38 139.43 1374.18 139.43 1374.18 139.39 1374.18 124.81 1374.18 124.01 1383.61 124.01 1383.61 139.39 1382.38 139.39 1382.38 139.43"/><polygon class="cls-21" points="1409.85 160.57 1408.62 160.57 1408.62 160.61 1400.42 160.61 1400.42 160.57 1400.42 145.99 1400.42 145.19 1409.85 145.19 1409.85 160.57"/><polygon class="cls-21" points="1396.73 160.49 1395.5 160.49 1395.5 160.53 1387.3 160.53 1387.3 160.49 1387.3 145.92 1387.3 145.11 1396.73 145.11 1396.73 160.49"/><polygon class="cls-21" points="1370.49 160.49 1369.27 160.49 1369.27 160.53 1361.06 160.53 1361.06 160.49 1361.06 145.92 1361.06 145.11 1370.49 145.11 1370.49 160.49"/><polygon class="cls-21" points="1357.37 145.19 1357.37 160.57 1356.14 160.57 1356.14 160.61 1347.94 160.61 1347.94 160.57 1347.94 145.99 1347.94 145.19 1357.37 145.19"/><polygon class="cls-21" points="1382.38 160.61 1374.18 160.61 1374.18 160.57 1374.18 145.99 1374.18 145.19 1383.61 145.19 1383.61 160.57 1382.38 160.57 1382.38 160.61"/><polygon class="cls-21" points="1409.85 181.75 1408.62 181.75 1408.62 181.79 1400.42 181.79 1400.42 181.75 1400.42 167.17 1400.42 166.37 1409.85 166.37 1409.85 181.75"/><polygon class="cls-21" points="1396.73 181.67 1395.5 181.67 1395.5 181.71 1387.3 181.71 1387.3 181.67 1387.3 167.1 1387.3 166.29 1396.73 166.29 1396.73 181.67"/><polygon class="cls-21" points="1370.49 181.67 1369.27 181.67 1369.27 181.71 1361.06 181.71 1361.06 181.67 1361.06 167.1 1361.06 166.29 1370.49 166.29 1370.49 181.67"/><polygon class="cls-21" points="1357.37 166.37 1357.37 181.75 1356.14 181.75 1356.14 181.79 1347.94 181.79 1347.94 181.75 1347.94 167.17 1347.94 166.37 1357.37 166.37"/><polygon class="cls-21" points="1382.38 181.79 1374.18 181.79 1374.18 181.75 1374.18 167.17 1374.18 166.37 1383.61 166.37 1383.61 181.75 1382.38 181.75 1382.38 181.79"/><polygon class="cls-21" points="1409.85 202.93 1408.62 202.93 1408.62 202.97 1400.42 202.97 1400.42 202.93 1400.42 188.35 1400.42 187.55 1409.85 187.55 1409.85 202.93"/><polygon class="cls-21" points="1396.73 202.85 1395.5 202.85 1395.5 202.89 1387.3 202.89 1387.3 202.85 1387.3 188.28 1387.3 187.47 1396.73 187.47 1396.73 202.85"/><polygon class="cls-21" points="1370.49 202.85 1369.27 202.85 1369.27 202.89 1361.06 202.89 1361.06 202.85 1361.06 188.28 1361.06 187.47 1370.49 187.47 1370.49 202.85"/><polygon class="cls-21" points="1357.37 187.55 1357.37 202.93 1356.14 202.93 1356.14 202.97 1347.94 202.97 1347.94 202.93 1347.94 188.35 1347.94 187.55 1357.37 187.55"/><polygon class="cls-21" points="1382.38 202.97 1374.18 202.97 1374.18 202.93 1374.18 188.35 1374.18 187.55 1383.61 187.55 1383.61 202.93 1382.38 202.93 1382.38 202.97"/><polygon class="cls-21" points="1409.85 224.11 1408.62 224.11 1408.62 224.15 1400.42 224.15 1400.42 224.11 1400.42 209.53 1400.42 208.73 1409.85 208.73 1409.85 224.11"/><polygon class="cls-21" points="1396.73 224.03 1395.5 224.03 1395.5 224.07 1387.3 224.07 1387.3 224.03 1387.3 209.46 1387.3 208.65 1396.73 208.65 1396.73 224.03"/><polygon class="cls-21" points="1370.49 224.03 1369.27 224.03 1369.27 224.07 1361.06 224.07 1361.06 224.03 1361.06 209.46 1361.06 208.65 1370.49 208.65 1370.49 224.03"/><polygon class="cls-21" points="1357.37 208.73 1357.37 224.11 1356.14 224.11 1356.14 224.15 1347.94 224.15 1347.94 224.11 1347.94 209.53 1347.94 208.73 1357.37 208.73"/><polygon class="cls-21" points="1382.38 224.15 1374.18 224.15 1374.18 224.11 1374.18 209.53 1374.18 208.73 1383.61 208.73 1383.61 224.11 1382.38 224.11 1382.38 224.15"/><polygon class="cls-13" points="1409.85 116.09 1408.62 116.09 1408.62 116.14 1400.42 116.14 1400.42 116.09 1400.42 101.52 1400.42 100.71 1409.85 100.71 1409.85 116.09"/><polygon class="cls-13" points="1396.73 116.02 1395.5 116.02 1395.5 116.05 1387.3 116.05 1387.3 116.02 1387.3 101.44 1387.3 100.64 1396.73 100.64 1396.73 116.02"/><polygon class="cls-13" points="1370.49 116.02 1369.27 116.02 1369.27 116.05 1361.06 116.05 1361.06 116.02 1361.06 101.44 1361.06 100.64 1370.49 100.64 1370.49 116.02"/><polygon class="cls-13" points="1357.37 100.71 1357.37 116.09 1356.14 116.09 1356.14 116.14 1347.94 116.14 1347.94 116.09 1347.94 101.52 1347.94 100.71 1357.37 100.71"/><polygon class="cls-13" points="1382.38 116.14 1374.18 116.14 1374.18 116.09 1374.18 101.52 1374.18 100.71 1383.61 100.71 1383.61 116.09 1382.38 116.09 1382.38 116.14"/><polygon class="cls-13" points="1409.85 137.27 1408.62 137.27 1408.62 137.32 1400.42 137.32 1400.42 137.27 1400.42 122.7 1400.42 121.89 1409.85 121.89 1409.85 137.27"/><polygon class="cls-13" points="1396.73 137.19 1395.5 137.19 1395.5 137.23 1387.3 137.23 1387.3 137.19 1387.3 122.62 1387.3 121.81 1396.73 121.81 1396.73 137.19"/><polygon class="cls-13" points="1370.49 137.19 1369.27 137.19 1369.27 137.23 1361.06 137.23 1361.06 137.19 1361.06 122.62 1361.06 121.81 1370.49 121.81 1370.49 137.19"/><polygon class="cls-13" points="1357.37 121.89 1357.37 137.27 1356.14 137.27 1356.14 137.32 1347.94 137.32 1347.94 137.27 1347.94 122.7 1347.94 121.89 1357.37 121.89"/><polygon class="cls-13" points="1382.38 137.32 1374.18 137.32 1374.18 137.27 1374.18 122.7 1374.18 121.89 1383.61 121.89 1383.61 137.27 1382.38 137.27 1382.38 137.32"/><polygon class="cls-13" points="1409.85 158.45 1408.62 158.45 1408.62 158.5 1400.42 158.5 1400.42 158.45 1400.42 143.88 1400.42 143.07 1409.85 143.07 1409.85 158.45"/><polygon class="cls-13" points="1396.73 158.38 1395.5 158.38 1395.5 158.41 1387.3 158.41 1387.3 158.38 1387.3 143.8 1387.3 143 1396.73 143 1396.73 158.38"/><polygon class="cls-13" points="1370.49 158.38 1369.27 158.38 1369.27 158.41 1361.06 158.41 1361.06 158.38 1361.06 143.8 1361.06 143 1370.49 143 1370.49 158.38"/><polygon class="cls-13" points="1357.37 143.07 1357.37 158.45 1356.14 158.45 1356.14 158.5 1347.94 158.5 1347.94 158.45 1347.94 143.88 1347.94 143.07 1357.37 143.07"/><polygon class="cls-13" points="1382.38 158.5 1374.18 158.5 1374.18 158.45 1374.18 143.88 1374.18 143.07 1383.61 143.07 1383.61 158.45 1382.38 158.45 1382.38 158.5"/><polygon class="cls-13" points="1409.85 179.63 1408.62 179.63 1408.62 179.68 1400.42 179.68 1400.42 179.63 1400.42 165.06 1400.42 164.25 1409.85 164.25 1409.85 179.63"/><polygon class="cls-13" points="1396.73 179.56 1395.5 179.56 1395.5 179.59 1387.3 179.59 1387.3 179.56 1387.3 164.98 1387.3 164.18 1396.73 164.18 1396.73 179.56"/><polygon class="cls-13" points="1370.49 179.56 1369.27 179.56 1369.27 179.59 1361.06 179.59 1361.06 179.56 1361.06 164.98 1361.06 164.18 1370.49 164.18 1370.49 179.56"/><polygon class="cls-13" points="1357.37 164.25 1357.37 179.63 1356.14 179.63 1356.14 179.68 1347.94 179.68 1347.94 179.63 1347.94 165.06 1347.94 164.25 1357.37 164.25"/><polygon class="cls-13" points="1382.38 179.68 1374.18 179.68 1374.18 179.63 1374.18 165.06 1374.18 164.25 1383.61 164.25 1383.61 179.63 1382.38 179.63 1382.38 179.68"/><polygon class="cls-13" points="1409.85 200.81 1408.62 200.81 1408.62 200.86 1400.42 200.86 1400.42 200.81 1400.42 186.24 1400.42 185.43 1409.85 185.43 1409.85 200.81"/><polygon class="cls-13" points="1396.73 200.74 1395.5 200.74 1395.5 200.77 1387.3 200.77 1387.3 200.74 1387.3 186.16 1387.3 185.35 1396.73 185.35 1396.73 200.74"/><polygon class="cls-13" points="1370.49 200.74 1369.27 200.74 1369.27 200.77 1361.06 200.77 1361.06 200.74 1361.06 186.16 1361.06 185.35 1370.49 185.35 1370.49 200.74"/><polygon class="cls-13" points="1357.37 185.43 1357.37 200.81 1356.14 200.81 1356.14 200.86 1347.94 200.86 1347.94 200.81 1347.94 186.24 1347.94 185.43 1357.37 185.43"/><polygon class="cls-13" points="1382.38 200.86 1374.18 200.86 1374.18 200.81 1374.18 186.24 1374.18 185.43 1383.61 185.43 1383.61 200.81 1382.38 200.81 1382.38 200.86"/><polygon class="cls-13" points="1409.85 221.99 1408.62 221.99 1408.62 222.04 1400.42 222.04 1400.42 221.99 1400.42 207.42 1400.42 206.61 1409.85 206.61 1409.85 221.99"/><polygon class="cls-13" points="1396.73 221.91 1395.5 221.91 1395.5 221.95 1387.3 221.95 1387.3 221.91 1387.3 207.34 1387.3 206.53 1396.73 206.53 1396.73 221.91"/><polygon class="cls-13" points="1370.49 221.91 1369.27 221.91 1369.27 221.95 1361.06 221.95 1361.06 221.91 1361.06 207.34 1361.06 206.53 1370.49 206.53 1370.49 221.91"/><polygon class="cls-13" points="1357.37 206.61 1357.37 221.99 1356.14 221.99 1356.14 222.04 1347.94 222.04 1347.94 221.99 1347.94 207.42 1347.94 206.61 1357.37 206.61"/><polygon class="cls-13" points="1382.38 222.04 1374.18 222.04 1374.18 221.99 1374.18 207.42 1374.18 206.61 1383.61 206.61 1383.61 221.99 1382.38 221.99 1382.38 222.04"/><line class="cls-20" x1="47.84" y1="198.53" x2="47.84" y2="253.37"/><path class="cls-22" d="M125.92,253.08a2.49,2.49,0,0,0,1-3c-.6-1.4-1.25-.67-2.11-.08.62-2.58.59-7-1-9.09-1.39-1.75-4.12.29-5,2-.72-1.15-1.07-2.61-2.58-2.44-.95.11-1.45,1.18-2.34,1.49.62-2.58-.73-7.23-3-8.11-2.73-1.05-3.72,2.58-3.71,5-.91-4.09-3.45-.49-4.43,1.31-.6-.66-.89-1.83-1.94-1.5-.67.21-1.21,1.44-1.34,2.21-.39-2.85-3.44-7-6-6.09s-2.45,4-2.49,6.59c-.71-1.76-3.2-1.49-4.15-.25s-.8,3.94,0,5.26c-1.27-1.31-2.49-3.91-4.43-2.83-2.5,1.38-.63,4.5-.17,6.62-.29-1.27-3.94-1-4.13.46C77.92,252,80,253,81,253.08Z"/><path class="cls-23" d="M78,81.43c13.78,0,25,12.27,25,27.41H53.07C53.07,93.7,64.24,81.43,78,81.43Z"/><path class="cls-24" d="M75.78,104.77c0,10.49,1.11,19,2.48,19s2.49-8.51,2.49-19-1.11-19-2.49-19S75.78,94.27,75.78,104.77Z"/><path class="cls-24" d="M87.28,104.77c0,10.67-2.61,19.36-1.31,19.92s6.33-8,6.28-19.92S87.14,84.21,86,84.85,87.28,94.09,87.28,104.77Z"/><path class="cls-24" d="M69.24,104.77c0,10.67,2.62,19.36,1.32,19.92s-6.33-8-6.29-19.92,5.12-20.56,6.29-19.92S69.24,94.09,69.24,104.77Z"/><polygon class="cls-4" points="53.48 120.21 46.27 120.21 46.27 253.37 108.45 253.37 108.45 120.21 101.24 120.21 53.48 120.21"/><rect class="cls-5" x="88.01" y="120.95" width="7.17" height="74.62" transform="translate(183.19 316.51) rotate(180)"/><rect class="cls-5" x="73.96" y="120.95" width="7.17" height="74.62" transform="translate(155.1 316.51) rotate(180)"/><rect class="cls-5" x="59.92" y="120.95" width="7.17" height="74.62" transform="translate(127.01 316.51) rotate(180)"/><rect class="cls-25" x="46.26" y="204.4" width="62.19" height="48.97" transform="translate(154.72 457.77) rotate(180)"/><polygon class="cls-13" points="66.15 154.66 59.92 154.66 59.92 154.59 59.92 133.44 59.92 132.28 67.09 132.28 67.09 154.59 66.15 154.59 66.15 154.66"/><polygon class="cls-13" points="66.15 184.86 59.92 184.86 59.92 184.79 59.92 163.64 59.92 162.47 67.09 162.47 67.09 184.79 66.15 184.79 66.15 184.86"/><polygon class="cls-13" points="80.2 154.66 73.96 154.66 73.96 154.59 73.96 133.44 73.96 132.28 81.14 132.28 81.14 154.59 80.2 154.59 80.2 154.66"/><polygon class="cls-13" points="80.2 184.86 73.96 184.86 73.96 184.79 73.96 163.64 73.96 162.47 81.13 162.47 81.13 184.79 80.2 184.79 80.2 184.86"/><polygon class="cls-13" points="94.25 154.66 88.01 154.66 88.01 154.59 88.01 133.44 88.01 132.28 95.18 132.28 95.18 154.59 94.25 154.59 94.25 154.66"/><polygon class="cls-13" points="94.24 184.86 88.01 184.86 88.01 184.79 88.01 163.64 88.01 162.47 95.18 162.47 95.18 184.79 94.24 184.79 94.24 184.86"/><rect class="cls-13" x="52.08" y="212.5" width="50.53" height="40.87" transform="translate(154.69 465.87) rotate(180)"/><rect class="cls-26" x="44.15" y="204.4" width="65.78" height="7.93" transform="translate(154.08 416.73) rotate(180)"/><rect class="cls-27" x="44.66" y="112.28" width="65.78" height="7.93" transform="translate(155.1 232.49) rotate(180)"/><rect class="cls-23" x="42.17" y="109.56" width="71.3" height="2.72" transform="translate(155.63 221.84) rotate(180)"/><rect class="cls-23" x="46.26" y="196.31" width="62.19" height="8.1" transform="translate(154.72 400.71) rotate(180)"/><rect class="cls-28" x="47.11" y="197.28" width="60.53" height="2.63" transform="translate(154.75 397.19) rotate(180)"/><line class="cls-20" x1="101.87" y1="226.32" x2="52.33" y2="226.32"/><line class="cls-20" x1="92.25" y1="212.5" x2="92.25" y2="253.08"/><line class="cls-20" x1="77.38" y1="212.5" x2="77.38" y2="253.08"/><g class="cls-18"><polygon class="cls-19" points="58.39 214.2 58.39 213.24 62.48 213.24 100.11 253.08 95.1 253.08 58.39 214.2"/><polygon class="cls-19" points="102.25 238.24 102.25 249.68 67.84 213.24 78.64 213.24 102.25 238.24"/></g><path class="cls-29" d="M1027.94,253a1.83,1.83,0,0,1-.78-2.25c.45-1,.93-.5,1.57-.06-.46-1.91-.44-5.21.76-6.74,1-1.29,3.06.22,3.74,1.52.53-.85.79-1.93,1.91-1.81.7.08,1.08.88,1.73,1.11-.46-1.91.55-5.37,2.21-6,2-.78,2.76,1.92,2.75,3.74.68-3,2.56-.36,3.28,1,.45-.48.66-1.35,1.44-1.11.5.16.9,1.07,1,1.64.29-2.11,2.54-5.2,4.47-4.52s1.82,3,1.84,4.89c.53-1.3,2.38-1.1,3.08-.18a4.21,4.21,0,0,1,0,3.89c1-1,1.84-2.89,3.29-2.1,1.85,1,.46,3.34.12,4.92.22-.95,2.93-.77,3.06.33s-1.38,1.7-2.12,1.78Z"/><path class="cls-30" d="M1060.84,232.73c.61.24,1.41.9,1.3,2.78-.26,4.4-3.48,7-9.05,7.38a6.92,6.92,0,0,1-3.64-1.09,8.31,8.31,0,0,1-5.86.9c-5-1.14-8.16-3.87-8.6-9.12a5.22,5.22,0,0,1,2.31-4.45s-2.36-2.45-1.66-5.36,4.59-6.9,9.32-5.83c5.85-5.73,22.35.78,17.71,12.76C1062.21,231.92,1060.66,232.66,1060.84,232.73Z"/><path class="cls-31" d="M1060.84,232.73c.61.24,1.41.9,1.3,2.78-.26,4.4-3.48,7-9.05,7.38a6.92,6.92,0,0,1-3.64-1.09,8.31,8.31,0,0,1-5.86.9c-4.48-1-7.32-3.27-8.28-7.23,2,2.72,5.45,4.56,6.81,1.45.81,4.51,12.66,4,12.25-.27,2.45,1,5.53-2.08,3.17-4.06,3,0,5-4.31,5.63-8.23a10.29,10.29,0,0,1-.5,6.34C1062.21,231.92,1060.66,232.66,1060.84,232.73Z"/><path class="cls-3" d="M1060.84,232.73c.61.24,1.41.9,1.3,2.78-.26,4.4-3.48,7-9.05,7.38a6.92,6.92,0,0,1-3.64-1.09,8.31,8.31,0,0,1-5.86.9c-5-1.14-8.16-3.87-8.6-9.12a5.22,5.22,0,0,1,2.31-4.45s-2.36-2.45-1.66-5.36,4.59-6.9,9.32-5.83c5.85-5.73,22.35.78,17.71,12.76C1062.21,231.92,1060.66,232.66,1060.84,232.73Z"/><path class="cls-17" d="M1044.9,238.83s3.94.76,3.94,6.78.22,6.15.22,6.15a3,3,0,0,1-1.56,1.4c-.69.24-.33.15,2.18.15,1.87,0,2.6.17,2.14-.07s-1.25-.76-1.28-1.4c-.14-2.64-.87-7.06,0-9.76s4.49-3.61,4.15-3.94-4,2.28-4.15,2.2,1.16-4.39,1.47-5.32-.5-.35-.77.31-1.36,4.66-1.68,4.86-1.3-5.95-1.78-6.14-.44.14-.43.7,1.84,5.05,1.33,5.26-2.45-1.36-3.27-1.57S1044.9,238.83,1044.9,238.83Z"/><path class="cls-32" d="M1050,221.53a1.52,1.52,0,0,1,.38.39,1.91,1.91,0,0,1,.36,1,2.6,2.6,0,0,1-.1.86.78.78,0,0,1-.35.5c-.17.09-.41,0-.62-.24a1.91,1.91,0,0,1-.34-1.09,1.76,1.76,0,0,1,.35-1A3.47,3.47,0,0,1,1050,221.53Z"/><path class="cls-32" d="M1052.15,221.71a1.89,1.89,0,0,1,.21,1.33c-.2.64-.62,1.07-.94,1s-.41-.7-.21-1.33A1.91,1.91,0,0,1,1052.15,221.71Z"/><path class="cls-32" d="M1054.37,222.9a1.76,1.76,0,0,1,0,.47,1.65,1.65,0,0,1-.4.87c-.47.46-1,.67-1.27.49s-.14-.86.38-1.38a1.6,1.6,0,0,1,.83-.4A2.77,2.77,0,0,1,1054.37,222.9Z"/><path class="cls-32" d="M1055.21,225.12a1.61,1.61,0,0,1-.79.78c-.49.21-1,.18-1.1-.08s.21-.64.75-.86A1.53,1.53,0,0,1,1055.21,225.12Z"/><path class="cls-32" d="M1047.67,223.6a1,1,0,0,1,.71.15c.28.19.43.47.34.63s-.41.12-.74-.11A1,1,0,0,1,1047.67,223.6Z"/><path class="cls-32" d="M1041.65,230.07a1.27,1.27,0,0,1,.78.63,1.43,1.43,0,0,1,.15.53.48.48,0,0,1-.08.38c-.07.1-.23.12-.42,0a1.23,1.23,0,0,1-.47-.55,1.09,1.09,0,0,1,0-.68A3,3,0,0,1,1041.65,230.07Z"/><path class="cls-32" d="M1044.58,229.79a1.23,1.23,0,0,1,.1.28.92.92,0,0,1,0,.61c-.16.39-.39.63-.62.6s-.3-.47-.12-.9a1,1,0,0,1,.39-.44A1.36,1.36,0,0,1,1044.58,229.79Z"/><path class="cls-32" d="M1045.61,230.89a1,1,0,0,1-.26.65c-.24.24-.54.35-.67.23s0-.43.22-.69A1,1,0,0,1,1045.61,230.89Z"/><path class="cls-32" d="M1040.81,231.86a.65.65,0,0,1,.45-.09c.21,0,.37.17.36.29s-.22.17-.46.12A.66.66,0,0,1,1040.81,231.86Z"/><path class="cls-22" d="M1248.11,251.49a2.86,2.86,0,0,0,1.22-3.5c-.7-1.61-1.45-.78-2.44-.09.72-3,.68-8.11-1.19-10.49-1.6-2-4.75.34-5.82,2.37-.83-1.34-1.23-3-3-2.82-1.09.12-1.67,1.36-2.7,1.72.72-3-.84-8.35-3.43-9.36-3.14-1.21-4.29,3-4.28,5.81-1-4.71-4-.56-5.11,1.52-.7-.76-1-2.11-2.23-1.73-.79.24-1.41,1.66-1.56,2.54-.44-3.28-4-8.08-6.95-7s-2.83,4.66-2.87,7.6c-.82-2-3.7-1.71-4.79-.28s-.93,4.54,0,6.06c-1.47-1.51-2.87-4.5-5.11-3.27-2.89,1.6-.73,5.2-.2,7.65-.33-1.47-4.55-1.2-4.76.53-.19,1.5,2.15,2.64,3.31,2.76Z"/><rect class="cls-17" x="1225.82" y="241.5" width="3.08" height="10.09"/><rect class="cls-17" x="1219.54" y="241.5" width="3.08" height="10.09"/><rect class="cls-17" x="1212.57" y="241.5" width="3.08" height="10.09"/><rect class="cls-17" x="1206.32" y="241.51" width="3.07" height="10.09"/><rect class="cls-17" x="1200" y="241.51" width="3.08" height="10.09"/><rect class="cls-17" x="1192.98" y="241.51" width="3.08" height="10.09"/><rect class="cls-17" x="1192.98" y="243.69" width="35.91" height="0.95"/><path class="cls-17" d="M1225.45,239.6a1.91,1.91,0,1,0,1.9-1.9A1.9,1.9,0,0,0,1225.45,239.6Z"/><path class="cls-17" d="M1219.17,239.6a1.91,1.91,0,1,0,1.9-1.9A1.9,1.9,0,0,0,1219.17,239.6Z"/><path class="cls-17" d="M1212.2,239.6a1.91,1.91,0,1,0,1.91-1.9A1.91,1.91,0,0,0,1212.2,239.6Z"/><path class="cls-17" d="M1206,239.6a1.91,1.91,0,1,0,1.9-1.9A1.9,1.9,0,0,0,1206,239.6Z"/><path class="cls-17" d="M1199.62,239.6a1.91,1.91,0,1,0,1.91-1.9A1.91,1.91,0,0,0,1199.62,239.6Z"/><path class="cls-17" d="M1192.62,239.6a1.91,1.91,0,1,0,3.81,0,1.91,1.91,0,0,0-3.81,0Z"/><polygon class="cls-4" points="1143.9 180.04 1143.9 170.27 1127.43 170.27 1127.43 154.44 1125.35 154.44 1125.35 170.27 1109.27 170.27 1109.27 180.04 1056.8 180.04 1056.8 192.47 1060.94 192.47 1060.94 252.73 1192.41 252.73 1192.41 192.47 1196.37 192.47 1196.37 180.04 1143.9 180.04"/><rect class="cls-33" x="1125.35" y="154.44" width="14.59" height="9.86"/><rect class="cls-34" x="1113.23" y="216.54" width="26.85" height="36.19"/><rect class="cls-27" x="1056.8" y="180.04" width="139.56" height="12.43"/><rect class="cls-35" x="1109.27" y="170.27" width="35.37" height="9.77"/><polyline class="cls-34" points="1113.23 216.54 1119.7 223.55 1134.33 223.55 1139.94 216.54"/><line class="cls-34" x1="1119.74" y1="223.55" x2="1119.74" y2="252.73"/><rect class="cls-36" x="1119.7" y="223.55" width="14.63" height="29.18"/><rect class="cls-5" x="1075.82" y="204.12" width="8" height="8"/><rect class="cls-5" x="1075.82" y="218.78" width="8" height="8"/><rect class="cls-5" x="1075.82" y="233.45" width="8" height="8"/><rect class="cls-5" x="1094.53" y="204.12" width="8" height="8"/><rect class="cls-5" x="1094.53" y="218.78" width="8" height="8"/><rect class="cls-5" x="1094.53" y="233.45" width="8" height="8"/><rect class="cls-5" x="1150.64" y="204.12" width="8" height="8"/><rect class="cls-5" x="1150.64" y="218.78" width="8" height="8"/><rect class="cls-5" x="1150.64" y="233.45" width="8" height="8"/><rect class="cls-5" x="1113.23" y="204.12" width="8" height="8"/><rect class="cls-5" x="1131.94" y="204.12" width="8" height="8"/><rect class="cls-5" x="1169.35" y="204.12" width="8" height="8"/><rect class="cls-5" x="1169.35" y="218.78" width="8" height="8"/><rect class="cls-5" x="1169.35" y="233.45" width="8" height="8"/><rect class="cls-13" x="1075.82" y="201.88" width="8" height="8"/><rect class="cls-13" x="1075.82" y="216.54" width="8" height="8"/><rect class="cls-13" x="1075.82" y="231.2" width="8" height="8"/><rect class="cls-13" x="1094.53" y="201.88" width="8" height="8"/><rect class="cls-13" x="1094.53" y="216.54" width="8" height="8"/><rect class="cls-13" x="1094.53" y="231.2" width="8" height="8"/><rect class="cls-13" x="1150.64" y="201.88" width="8" height="8"/><rect class="cls-13" x="1150.64" y="216.54" width="8" height="8"/><rect class="cls-13" x="1150.64" y="231.2" width="8" height="8"/><rect class="cls-13" x="1113.23" y="201.88" width="8" height="8"/><rect class="cls-13" x="1131.94" y="201.88" width="8" height="8"/><rect class="cls-13" x="1169.35" y="201.88" width="8" height="8"/><rect class="cls-13" x="1169.35" y="216.54" width="8" height="8"/><rect class="cls-13" x="1169.35" y="231.2" width="8" height="8"/><rect class="cls-37" x="1057.71" y="181.12" width="137.69" height="5.14"/><rect class="cls-17" x="1125.35" y="154.44" width="2.08" height="15.83"/><path class="cls-22" d="M1234.21,231.84c-9.59,3.68-12,.54-15.74-2.87a10,10,0,0,1-7.12,4.78c-8.77,1.12-21-20.66-5.23-27.91-2.56-13.14,19.24-15.22,24.94-10.12,1,.93,4.38,4.22,3.7,5.61-.4.8,4.63-1.33,7.94,11C1245.2,223,1237.1,230.72,1234.21,231.84Z"/><path class="cls-38" d="M1234.21,231.84c-9.59,3.68-12,.54-15.74-2.87a10,10,0,0,1-7.12,4.78c-6.71.86-15.44-11.68-12.12-20.88.15,10.57,17.31,17.69,19.48,8.71,1.53,8,18.3,5.64,16.43-2.17,3.68.06,6.29-3.28,7.56-7.1.08.34.17.7.26,1.06C1245,221.87,1237.77,230.47,1234.21,231.84Z"/><path class="cls-3" d="M1234.21,231.84c-9.59,3.68-12,.54-15.74-2.87a10,10,0,0,1-7.12,4.78c-8.77,1.12-21-20.66-5.23-27.91-2.56-13.14,19.24-15.22,24.94-10.12,1,.93,4.38,4.22,3.7,5.61-.4.8,4.63-1.33,7.94,11C1245.2,223,1237.1,230.72,1234.21,231.84Z"/><path class="cls-39" d="M1218.93,200.79a2.81,2.81,0,0,0-.62.64,3.07,3.07,0,0,0-.6,1.62,4.33,4.33,0,0,0,.17,1.42,1.29,1.29,0,0,0,.57.81c.28.15.67,0,1-.39a3.09,3.09,0,0,0,.56-1.78,2.84,2.84,0,0,0-.56-1.64A6.21,6.21,0,0,0,1218.93,200.79Z"/><path class="cls-39" d="M1215.37,201.09a3.1,3.1,0,0,0-.34,2.18c.33,1,1,1.74,1.54,1.57s.67-1.14.34-2.18A3.07,3.07,0,0,0,1215.37,201.09Z"/><path class="cls-39" d="M1211.73,203a3.15,3.15,0,0,0,0,.78,2.54,2.54,0,0,0,.66,1.42c.76.76,1.57,1.11,2.07.8s.23-1.41-.61-2.25a2.64,2.64,0,0,0-1.37-.66A4.24,4.24,0,0,0,1211.73,203Z"/><path class="cls-39" d="M1210.37,206.67a2.65,2.65,0,0,0,1.29,1.29c.79.33,1.6.28,1.8-.14s-.34-1-1.22-1.41A2.52,2.52,0,0,0,1210.37,206.67Z"/><path class="cls-39" d="M1222.7,204.18a1.72,1.72,0,0,0-1.15.25c-.46.31-.71.77-.57,1s.68.19,1.22-.17A1.64,1.64,0,0,0,1222.7,204.18Z"/><path class="cls-39" d="M1232.56,214.78a1.62,1.62,0,0,0-.52.22,1.88,1.88,0,0,0-.75.8,2.65,2.65,0,0,0-.25.88.81.81,0,0,0,.13.62c.12.16.38.19.69,0a2,2,0,0,0,.77-.91,1.81,1.81,0,0,0,.08-1.11C1232.64,215,1232.56,214.78,1232.56,214.78Z"/><path class="cls-39" d="M1227.78,214.31a2,2,0,0,0-.18.47,1.6,1.6,0,0,0,0,1c.26.64.65,1,1,1s.49-.77.2-1.48a1.69,1.69,0,0,0-.64-.72A3,3,0,0,0,1227.78,214.31Z"/><path class="cls-39" d="M1226.07,216.11a1.67,1.67,0,0,0,.44,1.08c.39.39.87.56,1.09.37s.06-.7-.36-1.14A1.62,1.62,0,0,0,1226.07,216.11Z"/><path class="cls-39" d="M1233.94,217.71a1.07,1.07,0,0,0-.74-.14c-.34.06-.6.27-.58.46s.35.28.75.2A1,1,0,0,0,1233.94,217.71Z"/><path class="cls-17" d="M1213.22,228.58s6.27,1.21,6.27,10.77.34,9.77.34,9.77a4.68,4.68,0,0,1-2.47,2.23c-1.09.39-.52.24,3.46.24,3,0,4.12.27,3.4-.12-.93-.49-2-1.19-2-2.22-.22-4.2-1.37-11.22,0-15.5s7.13-5.75,6.59-6.26-6.28,3.62-6.6,3.5,1.85-7,2.35-8.47-.81-.55-1.24.5-2.16,7.41-2.66,7.72-2.07-9.45-2.84-9.76-.69.23-.68,1.11,2.93,8,2.11,8.36-3.88-2.16-5.2-2.49S1213.22,228.58,1213.22,228.58Z"/><path class="cls-30" d="M1831.84,209.73c1.28.5,3,1.89,2.72,5.79-.55,9.17-7.26,14.49-18.86,15.38-3.63.29-7.58-2.26-7.58-2.26a17.35,17.35,0,0,1-12.21,1.86c-10.41-2.37-17-8.06-17.91-19-.52-5.82,4.82-9.26,4.82-9.26s-4.92-5.11-3.48-11.18,9.57-14.37,19.42-12.14c12.19-11.93,46.57,1.61,36.91,26.58C1834.7,208.06,1831.46,209.59,1831.84,209.73Z"/><path class="cls-31" d="M1831.84,209.73c1.28.5,3,1.89,2.72,5.79-.55,9.17-7.26,14.49-18.86,15.38-3.63.29-7.58-2.26-7.58-2.26a17.35,17.35,0,0,1-12.21,1.86c-9.34-2.12-15.24-6.8-17.25-15.05,4.2,5.67,11.36,9.5,14.2,3,1.67,9.38,26.36,8.36,25.51-.57,5.11,2.08,11.51-4.35,6.59-8.46,6.36,0,10.47-9,11.75-17.15a21.54,21.54,0,0,1-1,13.21C1834.7,208.06,1831.46,209.59,1831.84,209.73Z"/><path class="cls-3" d="M1831.84,209.73c1.28.5,3,1.89,2.72,5.79-.55,9.17-7.26,14.49-18.86,15.38-3.63.29-7.58-2.26-7.58-2.26a17.35,17.35,0,0,1-12.21,1.86c-10.41-2.37-17-8.06-17.91-19-.52-5.82,4.82-9.26,4.82-9.26s-4.92-5.11-3.48-11.18,9.57-14.37,19.42-12.14c12.19-11.93,46.57,1.61,36.91,26.58C1834.7,208.06,1831.46,209.59,1831.84,209.73Z"/><path class="cls-17" d="M1798.64,222.44s8.22,1.59,8.22,14.12.44,12.82.44,12.82a6.12,6.12,0,0,1-3.24,2.91c-1.43.52-.68.33,4.54.33,3.89,0,5.41.34,4.45-.16-1.21-.65-2.6-1.57-2.67-2.92-.28-5.5-1.8-14.71-.07-20.32s9.35-7.53,8.64-8.21-8.23,4.75-8.65,4.59,2.43-9.15,3.08-11.1-1.05-.72-1.62.65-2.84,9.72-3.49,10.13-2.71-12.4-3.72-12.8-.91.3-.89,1.46,3.84,10.52,2.76,11-5.08-2.84-6.81-3.27S1798.64,222.44,1798.64,222.44Z"/><path class="cls-32" d="M1809.22,186.4a3.81,3.81,0,0,1,.79.81,3.91,3.91,0,0,1,.76,2.07,5.34,5.34,0,0,1-.21,1.8,1.69,1.69,0,0,1-.73,1c-.35.19-.85,0-1.28-.5a3.83,3.83,0,0,1-.71-2.27,3.58,3.58,0,0,1,.71-2.09A8.4,8.4,0,0,1,1809.22,186.4Z"/><path class="cls-32" d="M1813.75,186.79a3.86,3.86,0,0,1,.43,2.77c-.42,1.32-1.29,2.21-2,2s-.86-1.46-.43-2.78A3.88,3.88,0,0,1,1813.75,186.79Z"/><path class="cls-32" d="M1818.38,189.25a4.07,4.07,0,0,1,0,1,3.17,3.17,0,0,1-.83,1.79c-1,1-2,1.42-2.64,1s-.29-1.79.78-2.87a3.33,3.33,0,0,1,1.74-.83A6.35,6.35,0,0,1,1818.38,189.25Z"/><path class="cls-32" d="M1820.11,193.88a3.33,3.33,0,0,1-1.63,1.64c-1,.42-2,.36-2.3-.18s.44-1.32,1.56-1.79A3.16,3.16,0,0,1,1820.11,193.88Z"/><path class="cls-32" d="M1804.42,190.72a2.12,2.12,0,0,1,1.47.32c.58.39.9,1,.72,1.3s-.87.25-1.54-.21A2.09,2.09,0,0,1,1804.42,190.72Z"/><path class="cls-32" d="M1791.87,204.2a2.37,2.37,0,0,1,.67.28,2.52,2.52,0,0,1,1,1,3.47,3.47,0,0,1,.32,1.11,1.09,1.09,0,0,1-.17.79c-.16.2-.49.24-.88,0a2.46,2.46,0,0,1-1-1.15,2.34,2.34,0,0,1-.1-1.41A6.2,6.2,0,0,1,1791.87,204.2Z"/><path class="cls-32" d="M1798,203.61a2.85,2.85,0,0,1,.22.59,2.1,2.1,0,0,1,0,1.26c-.34.82-.83,1.33-1.3,1.26s-.62-1-.25-1.88a2.17,2.17,0,0,1,.81-.92A3.79,3.79,0,0,1,1798,203.61Z"/><path class="cls-32" d="M1800.13,205.9a2.17,2.17,0,0,1-.55,1.37c-.5.5-1.12.72-1.4.46s-.07-.88.47-1.44A2,2,0,0,1,1800.13,205.9Z"/><path class="cls-32" d="M1790.12,207.93a1.35,1.35,0,0,1,.94-.18c.44.08.77.35.75.59s-.45.36-1,.25A1.28,1.28,0,0,1,1790.12,207.93Z"/><path class="cls-22" d="M1855.09,234.93c-8.91,3.43-11.19.51-14.62-2.66a9.35,9.35,0,0,1-6.62,4.44c-8.15,1-19.5-19.2-4.86-25.93-2.38-12.21,17.87-14.15,23.17-9.41,1,.87,4.07,3.93,3.44,5.22-.37.74,4.3-1.24,7.37,10.2C1865.3,226.73,1857.78,233.9,1855.09,234.93Z"/><path class="cls-38" d="M1855.09,234.93c-8.91,3.43-11.19.51-14.62-2.66a9.35,9.35,0,0,1-6.62,4.44c-6.23.8-14.34-10.85-11.26-19.4.14,9.82,16.09,16.43,18.1,8.09,1.42,7.41,17,5.24,15.26-2,3.42.05,5.85-3,7-6.6.08.32.17.65.25,1C1865.14,225.68,1858.4,233.66,1855.09,234.93Z"/><path class="cls-3" d="M1855.09,234.93c-8.91,3.43-11.19.51-14.62-2.66a9.35,9.35,0,0,1-6.62,4.44c-8.15,1-19.5-19.2-4.86-25.93-2.38-12.21,17.87-14.15,23.17-9.41,1,.87,4.07,3.93,3.44,5.22-.37.74,4.3-1.24,7.37,10.2C1865.3,226.73,1857.78,233.9,1855.09,234.93Z"/><path class="cls-39" d="M1840.89,206.09a2.61,2.61,0,0,0-.57.59,2.82,2.82,0,0,0-.56,1.51,3.71,3.71,0,0,0,.16,1.31,1.2,1.2,0,0,0,.53.76c.25.14.62,0,.94-.36a2.87,2.87,0,0,0,.51-1.66,2.55,2.55,0,0,0-.52-1.53A6.37,6.37,0,0,0,1840.89,206.09Z"/><path class="cls-39" d="M1837.59,206.37a2.83,2.83,0,0,0-.32,2c.31,1,.94,1.62,1.43,1.46s.62-1.06.31-2A2.78,2.78,0,0,0,1837.59,206.37Z"/><path class="cls-39" d="M1834.21,208.17a3,3,0,0,0,0,.73,2.39,2.39,0,0,0,.61,1.31c.71.71,1.46,1,1.93.74s.21-1.3-.57-2.09a2.49,2.49,0,0,0-1.27-.61A4.08,4.08,0,0,0,1834.21,208.17Z"/><path class="cls-39" d="M1832.94,211.55a2.43,2.43,0,0,0,1.2,1.19c.74.31,1.48.27,1.67-.12s-.32-1-1.13-1.32A2.36,2.36,0,0,0,1832.94,211.55Z"/><path class="cls-39" d="M1844.4,209.24a1.56,1.56,0,0,0-1.07.23c-.43.29-.66.71-.53.95s.63.18,1.13-.15A1.51,1.51,0,0,0,1844.4,209.24Z"/><path class="cls-39" d="M1853.56,219.08a1.54,1.54,0,0,0-.49.21,1.82,1.82,0,0,0-.7.75,2.59,2.59,0,0,0-.23.81.8.8,0,0,0,.12.58c.12.14.36.17.65,0a1.76,1.76,0,0,0,.71-.84,1.7,1.7,0,0,0,.07-1C1853.63,219.29,1853.56,219.08,1853.56,219.08Z"/><path class="cls-39" d="M1849.11,218.65a1.67,1.67,0,0,0-.16.43,1.49,1.49,0,0,0,0,.93c.24.59.6,1,1,.91s.45-.71.18-1.37a1.63,1.63,0,0,0-.59-.67A2.61,2.61,0,0,0,1849.11,218.65Z"/><path class="cls-39" d="M1847.53,220.32a1.54,1.54,0,0,0,.41,1c.35.37.81.53,1,.34s.06-.65-.34-1A1.5,1.5,0,0,0,1847.53,220.32Z"/><path class="cls-39" d="M1854.84,221.8a1,1,0,0,0-.69-.13c-.32.07-.56.26-.54.43s.33.27.7.19A1,1,0,0,0,1854.84,221.8Z"/><path class="cls-17" d="M1835.59,231.9s5.82,1.13,5.82,10,.32,9.08.32,9.08a4.38,4.38,0,0,1-2.29,2.07c-1,.36-.49.23,3.21.23,2.75,0,3.83.24,3.16-.12-.86-.46-1.85-1.11-1.9-2.06-.2-3.9-1.27-10.43-.05-14.41s6.63-5.33,6.12-5.81-5.83,3.37-6.13,3.25,1.73-6.48,2.19-7.86-.75-.52-1.15.46-2,6.88-2.47,7.17-1.92-8.78-2.64-9.07-.64.22-.63,1,2.72,7.46,2,7.76-3.61-2-4.83-2.31S1835.59,231.9,1835.59,231.9Z"/><path class="cls-22" d="M765,232.73c-10,3.84-12.52.57-16.37-3a10.44,10.44,0,0,1-7.4,5c-9.13,1.17-21.83-21.49-5.45-29-2.66-13.66,20-15.83,25.94-10.53,1.08,1,4.56,4.39,3.85,5.84-.42.83,4.82-1.39,8.26,11.42C776.47,223.55,768.05,231.57,765,232.73Z"/><path class="cls-38" d="M765,232.73c-10,3.84-12.52.57-16.37-3a10.44,10.44,0,0,1-7.4,5c-7,.89-16.06-12.15-12.6-21.71.15,11,18,18.39,20.25,9.05,1.59,8.3,19,5.87,17.08-2.25,3.83.06,6.55-3.41,7.87-7.38.08.35.18.72.27,1.1C776.29,222.37,768.74,231.31,765,232.73Z"/><path class="cls-3" d="M765,232.73c-10,3.84-12.52.57-16.37-3a10.44,10.44,0,0,1-7.4,5c-9.13,1.17-21.83-21.49-5.45-29-2.66-13.66,20-15.83,25.94-10.53,1.08,1,4.56,4.39,3.85,5.84-.42.83,4.82-1.39,8.26,11.42C776.47,223.55,768.05,231.57,765,232.73Z"/><path class="cls-39" d="M749.15,200.45a2.73,2.73,0,0,0-.64.66,3.21,3.21,0,0,0-.63,1.69,4.33,4.33,0,0,0,.18,1.47,1.38,1.38,0,0,0,.59.85c.29.15.69,0,1.05-.41a3.16,3.16,0,0,0,.58-1.85,2.84,2.84,0,0,0-.58-1.71A6.59,6.59,0,0,0,749.15,200.45Z"/><path class="cls-39" d="M745.45,200.76a3.22,3.22,0,0,0-.36,2.27c.35,1.08,1.06,1.81,1.6,1.63s.7-1.19.35-2.27A3.17,3.17,0,0,0,745.45,200.76Z"/><path class="cls-39" d="M741.67,202.78a2.86,2.86,0,0,0,0,.81,2.58,2.58,0,0,0,.68,1.47c.79.8,1.63,1.15,2.15.83s.24-1.46-.64-2.34a2.8,2.8,0,0,0-1.41-.68A4.59,4.59,0,0,0,741.67,202.78Z"/><path class="cls-39" d="M740.25,206.56a2.76,2.76,0,0,0,1.34,1.34c.82.35,1.66.29,1.87-.14s-.35-1.09-1.27-1.47A2.62,2.62,0,0,0,740.25,206.56Z"/><path class="cls-39" d="M753.08,204a1.73,1.73,0,0,0-1.21.26c-.47.32-.73.79-.58,1.06s.7.2,1.26-.17A1.73,1.73,0,0,0,753.08,204Z"/><path class="cls-39" d="M763.33,215a1.92,1.92,0,0,0-.55.23,2.05,2.05,0,0,0-.78.84,2.84,2.84,0,0,0-.26.91.89.89,0,0,0,.14.65c.13.16.39.19.72,0a2,2,0,0,0,.79-.95,1.87,1.87,0,0,0,.09-1.15C763.41,215.23,763.33,215,763.33,215Z"/><path class="cls-39" d="M758.35,214.51a2.2,2.2,0,0,0-.19.49,1.74,1.74,0,0,0,0,1c.27.66.68,1.08,1.06,1s.5-.8.21-1.53a1.87,1.87,0,0,0-.67-.76A3.13,3.13,0,0,0,758.35,214.51Z"/><path class="cls-39" d="M756.58,216.38a1.74,1.74,0,0,0,.45,1.12c.4.41.91.59,1.14.38s.06-.72-.38-1.18A1.69,1.69,0,0,0,756.58,216.38Z"/><path class="cls-39" d="M764.76,218a1.14,1.14,0,0,0-.77-.15c-.36.07-.63.29-.61.48s.37.3.79.21A1.08,1.08,0,0,0,764.76,218Z"/><path class="cls-17" d="M743.22,229.34s6.51,1.27,6.51,11.2.36,10.17.36,10.17a4.85,4.85,0,0,1-2.57,2.31c-1.14.41-.55.26,3.6.26,3.08,0,4.28.27,3.53-.13-1-.51-2.07-1.24-2.12-2.31-.23-4.36-1.43-11.67-.06-16.12s7.42-6,6.86-6.51-6.53,3.77-6.87,3.64,1.93-7.26,2.45-8.8-.84-.58-1.29.51-2.25,7.71-2.76,8-2.15-9.83-3-10.15-.72.24-.7,1.16,3,8.35,2.19,8.69-4-2.25-5.4-2.59S743.22,229.34,743.22,229.34Z"/><polygon class="cls-40" points="809.22 253.37 768.92 253.37 768.92 7.49 809.22 33 809.22 253.37"/><rect class="cls-13" x="772.07" y="46.93" width="34.23" height="1.55"/><polygon class="cls-13" points="809.45 44.84 768.92 44.84 768.92 50.58 809.45 50.58 809.45 44.84 809.45 44.84"/><rect class="cls-13" x="772.07" y="61.19" width="34.23" height="1.55"/><polygon class="cls-13" points="809.45 59.09 768.92 59.09 768.92 64.84 809.45 64.84 809.45 59.09 809.45 59.09"/><rect class="cls-13" x="772.07" y="75.45" width="34.23" height="1.55"/><polygon class="cls-13" points="809.45 73.35 768.92 73.35 768.92 79.09 809.45 79.09 809.45 73.35 809.45 73.35"/><rect class="cls-13" x="772.07" y="89.71" width="34.23" height="1.55"/><polygon class="cls-13" points="809.45 87.61 768.92 87.61 768.92 93.35 809.45 93.35 809.45 87.61 809.45 87.61"/><rect class="cls-13" x="772.07" y="103.96" width="34.23" height="1.55"/><polygon class="cls-13" points="809.45 101.87 768.92 101.87 768.92 107.61 809.45 107.61 809.45 101.87 809.45 101.87"/><rect class="cls-13" x="772.07" y="118.22" width="34.23" height="1.55"/><polygon class="cls-13" points="809.45 116.13 768.92 116.13 768.92 121.87 809.45 121.87 809.45 116.13 809.45 116.13"/><rect class="cls-13" x="772.07" y="131.53" width="34.23" height="1.55"/><polygon class="cls-13" points="809.45 129.43 768.92 129.43 768.92 135.17 809.45 135.17 809.45 129.43 809.45 129.43"/><rect class="cls-13" x="772.07" y="145.78" width="34.23" height="1.55"/><polygon class="cls-13" points="809.45 143.69 768.92 143.69 768.92 149.43 809.45 149.43 809.45 143.69 809.45 143.69"/><rect class="cls-13" x="772.07" y="160.04" width="34.23" height="1.55"/><polygon class="cls-13" points="809.45 157.95 768.92 157.95 768.92 163.69 809.45 163.69 809.45 157.95 809.45 157.95"/><rect class="cls-13" x="772.07" y="174.3" width="34.23" height="1.55"/><polygon class="cls-13" points="809.45 172.21 768.92 172.21 768.92 177.95 809.45 177.95 809.45 172.21 809.45 172.21"/><rect class="cls-13" x="772.07" y="188.56" width="34.23" height="1.55"/><polygon class="cls-13" points="809.45 186.46 768.92 186.46 768.92 192.2 809.45 192.2 809.45 186.46 809.45 186.46"/><rect class="cls-13" x="772.07" y="202.82" width="34.23" height="1.55"/><polygon class="cls-13" points="809.45 200.72 768.92 200.72 768.92 206.46 809.45 206.46 809.45 200.72 809.45 200.72"/><polygon class="cls-41" points="768.92 7.49 783.16 0.75 820.15 25.46 809.22 33 768.92 7.49"/><polygon class="cls-41" points="820.15 25.46 820.15 62.74 809.22 69.46 809.22 33 820.15 25.46"/><line class="cls-3" x1="814.69" y1="37.22" x2="814.69" y2="65.59"/><g class="cls-42"><polygon class="cls-43" points="769.01 99.9 769.01 83.4 809.14 125.65 809.14 142.15 769.01 99.9"/><polygon class="cls-43" points="809.14 90.31 809.14 118.34 769.01 76.09 769.01 47.28 809.14 90.31"/></g><polygon class="cls-40" points="797.66 253.37 834.71 253.37 834.71 54.74 797.66 76.85 797.66 253.37"/><polygon class="cls-41" points="824.07 61.09 824.07 253.37 834.71 253.37 834.71 54.31 824.07 61.09"/><line class="cls-44" x1="801.61" y1="76.79" x2="801.61" y2="251.68"/><line class="cls-44" x1="805.89" y1="74.02" x2="805.89" y2="251.68"/><line class="cls-44" x1="810.35" y1="71.17" x2="810.35" y2="251.68"/><line class="cls-44" x1="815.25" y1="68.79" x2="815.25" y2="251.68"/><line class="cls-44" x1="820.15" y1="65.59" x2="820.15" y2="251.82"/><line class="cls-44" x1="799" y1="81.12" x2="822.38" y2="81.12"/><line class="cls-44" x1="799.32" y1="85.8" x2="822.7" y2="85.8"/><line class="cls-44" x1="799.32" y1="91.15" x2="822.7" y2="91.15"/><line class="cls-44" x1="799.32" y1="96.5" x2="822.7" y2="96.5"/><line class="cls-44" x1="799.32" y1="101.84" x2="822.7" y2="101.84"/><line class="cls-44" x1="799.32" y1="107.19" x2="822.7" y2="107.19"/><line class="cls-44" x1="799.32" y1="112.54" x2="822.7" y2="112.54"/><line class="cls-44" x1="799.32" y1="117.89" x2="822.7" y2="117.89"/><line class="cls-44" x1="799.32" y1="123.24" x2="822.7" y2="123.24"/><line class="cls-44" x1="799.32" y1="128.58" x2="822.7" y2="128.58"/><line class="cls-44" x1="799.32" y1="133.93" x2="822.7" y2="133.93"/><line class="cls-44" x1="799.32" y1="139.28" x2="822.7" y2="139.28"/><line class="cls-44" x1="799.32" y1="144.63" x2="822.7" y2="144.63"/><line class="cls-44" x1="799.32" y1="149.97" x2="822.7" y2="149.97"/><line class="cls-44" x1="799.32" y1="155.32" x2="822.7" y2="155.32"/><line class="cls-44" x1="799.32" y1="160.67" x2="822.7" y2="160.67"/><line class="cls-44" x1="799.32" y1="166.02" x2="822.7" y2="166.02"/><line class="cls-44" x1="799.32" y1="171.37" x2="822.7" y2="171.37"/><line class="cls-44" x1="799.32" y1="176.71" x2="822.7" y2="176.71"/><line class="cls-44" x1="799.32" y1="182.06" x2="822.7" y2="182.06"/><line class="cls-44" x1="799.32" y1="187.41" x2="822.7" y2="187.41"/><line class="cls-44" x1="799.32" y1="192.76" x2="822.7" y2="192.76"/><line class="cls-44" x1="799.32" y1="198.11" x2="822.7" y2="198.11"/><line class="cls-44" x1="799.32" y1="203.45" x2="822.7" y2="203.45"/><line class="cls-44" x1="799.32" y1="208.8" x2="822.7" y2="208.8"/><line class="cls-44" x1="799.32" y1="214.15" x2="822.7" y2="214.15"/><line class="cls-44" x1="799.32" y1="219.5" x2="822.7" y2="219.5"/><line class="cls-44" x1="799.32" y1="224.85" x2="822.7" y2="224.85"/><line class="cls-44" x1="799.32" y1="230.19" x2="822.7" y2="230.19"/><line class="cls-44" x1="799.32" y1="235.54" x2="822.7" y2="235.54"/><line class="cls-44" x1="799.32" y1="240.89" x2="822.7" y2="240.89"/><g class="cls-42"><polygon class="cls-43" points="824.08 147.91 824.08 137.16 797.95 164.67 797.95 175.42 824.08 147.91"/><polygon class="cls-43" points="797.95 141.66 797.95 159.91 824.08 132.41 824.08 113.65 797.95 141.66"/></g></g></g></g></svg>