<svg xmlns="http://www.w3.org/2000/svg"
    xmlns:xlink="http://www.w3.org/1999/xlink" viewBox="0 -2 154.99 90">
    <defs>
        <style>.cls-1{fill:#ffe13b;}.cls-1,.cls-10,.cls-12,.cls-2,.cls-3,.cls-4{stroke:#4d3224;}.cls-1,.cls-12,.cls-2,.cls-3,.cls-4{stroke-miterlimit:10;}.cls-1,.cls-2,.cls-4{stroke-width:1.93px;}.cls-2{fill:url(#linear-gradient);}.cls-3{fill:#80d8d6;stroke-width:1.95px;}.cls-4,.cls-6{fill:#ffefba;}.cls-10,.cls-12,.cls-5{fill:#b3b3b3;}.cls-7{opacity:0.8;}.cls-8{fill:#d0ebea;}.cls-9{fill:#d00f19;}.cls-10{stroke-linecap:round;stroke-linejoin:round;stroke-width:2.04px;}.cls-11{fill:#4d3224;}.cls-12{stroke-width:0.96px;}.cls-13{fill:#4e342e;}</style>
        <linearGradient id="linear-gradient" x1="12249.95" y1="73.89" x2="12249.95" y2="12.41" gradientTransform="translate(-12172.45)" gradientUnits="userSpaceOnUse">
            <stop offset="0" stop-color="#ffe458"/>
            <stop offset="0.35" stop-color="#ffdf50"/>
            <stop offset="0.89" stop-color="#f3d13a"/>
            <stop offset="1" stop-color="#f3ce35"/>
        </linearGradient>
    </defs>
    <title>home-car-up01</title>
        <g class="car-body">
            <path class="cls-1" d="M92.81,17.45a6.3,6.3,0,0,1-6.28-6.28V7.25a6.29,6.29,0,1,1,12.57,0v3.92A6.31,6.31,0,0,1,92.81,17.45Z"/>
            <path class="cls-2" d="M154,42.54V68.92c0,3.62-1.38,6.73-5.12,6.73L13.15,76c-4.48,0-12-1.29-11.71-10,0,0-.64-11.45-.44-14.56.32-4.84,4.52-7.5,8.42-9.5A62.05,62.05,0,0,1,22.59,37c4.29-1.08,8.85-1.49,12.81-3.6,3.43-1.83,5.84-4.73,8.9-7,11.33-8.44,17.6-14.61,47.62-14.61,22.14,0,38.91,7.44,49.57,20.33.49.59,3.78,2.26,9,4.29C152.39,37.11,154,38.53,154,42.54Z"/>
            <path class="cls-3" d="M88.86,16.85c-21.72,0-38.74,10-44.83,21.29a2.16,2.16,0,0,0,2.16,3.07h43a2.27,2.27,0,0,0,2.38-2.13V19C91.6,17.66,90.32,16.85,88.86,16.85Z"/>
            <path class="cls-3" d="M101.56,16.85c19.8,0,34.37,14,36.55,21.29a2.14,2.14,0,0,1-2,3.07h-34.9a2.15,2.15,0,0,1-2.17-2.13V23.2C99.08,18.68,99.31,16.85,101.56,16.85Z"/>
            <path class="cls-4" d="M1.14,57.81H7.77c5.93,0,7.44-1.67,8.65-4.72,0,0,2.92-5.5-4.44-5.5H4s-3-.09-3,3.84Z"/>
            <path class="cls-5" d="M2.1,58.73l.4,9.79s1,6.34,9.63,6.5l11,.08s-.88-9,6-12.6L16,56.08s-1.36,2.41-7.3,2.73Z"/>
            <path class="cls-5" d="M48.24,70a5.84,5.84,0,0,0,4,2.81l62-1.36s-.08,2.89-.08,3.53L48.4,75.1A11.41,11.41,0,0,0,48.24,70Z"/>
            <path class="cls-5" d="M139.54,71.13a37.55,37.55,0,0,1,9.63-4.7H153s.85,7-2.64,7.95c0,0,.36.72-6.5.36l-4.34-.12S140.15,72,139.54,71.13Z"/>
            <ellipse class="cls-6" cx="90.63" cy="4.85" rx="1.57" ry="1.07" transform="translate(41.11 80.92) rotate(-60)"/>
            <g class="cls-7">
                <polygon class="cls-8" points="90.4 24.43 75.59 40.11 70.97 40.11 90.46 19.35 90.4 24.43"/>
                <path class="cls-8" d="M54.82,40.19,75.2,19.34s7.8-1.67,11.64-1.52L65.72,40.19"/>
            </g>
            <path class="cls-8" d="M124.38,24.71,111.86,40.12l4.5.16L127.27,26.8A23.71,23.71,0,0,0,124.38,24.71Z"/>
            <path class="cls-9" d="M103.94,48.34v4.22h-1.16V48.34h-1v-1h3.08v1Z"/>
            <path class="cls-9" d="M109.32,49a1.89,1.89,0,0,1-.14.75,1.29,1.29,0,0,1-.35.52,1.55,1.55,0,0,1-.5.31,1.9,1.9,0,0,1-.57.1h-.51v1.9h-1.16V47.34h1.63a2.23,2.23,0,0,1,.56.08,1.36,1.36,0,0,1,.52.27,1.28,1.28,0,0,1,.37.5A1.89,1.89,0,0,1,109.32,49Zm-1.11,0a.66.66,0,0,0-.17-.51.6.6,0,0,0-.41-.16h-.38V49.7h.38a.54.54,0,0,0,.41-.18A.76.76,0,0,0,108.21,49Z"/>
            <path class="cls-9" d="M110.68,52.56V47.34h2.52v1h-1.39v1h1.28v1h-1.28V51.5h1.48v1.06Z"/>
            <path class="cls-9" d="M114.47,51v-.88h1.41V51Z"/>
            <path class="cls-9" d="M120.48,50a7.55,7.55,0,0,1-.07.92,3,3,0,0,1-.26.88,1.8,1.8,0,0,1-.52.66,1.36,1.36,0,0,1-.87.26,1.35,1.35,0,0,1-.87-.26,1.7,1.7,0,0,1-.52-.66,3,3,0,0,1-.26-.88,7.08,7.08,0,0,1,0-1.84,3,3,0,0,1,.26-.88,1.7,1.7,0,0,1,.52-.66,1.35,1.35,0,0,1,.87-.26,1.36,1.36,0,0,1,.87.26,1.8,1.8,0,0,1,.52.66,3,3,0,0,1,.26.88A7.55,7.55,0,0,1,120.48,50Zm-1.18,0c0-.17,0-.36,0-.55a3,3,0,0,0-.08-.55,1.47,1.47,0,0,0-.16-.42.33.33,0,0,0-.56,0,1.47,1.47,0,0,0-.16.42,3,3,0,0,0-.08.55c0,.19,0,.38,0,.55s0,.36,0,.56a2.8,2.8,0,0,0,.08.54,1.36,1.36,0,0,0,.16.42.32.32,0,0,0,.56,0,1.36,1.36,0,0,0,.16-.42,2.8,2.8,0,0,0,.08-.54C119.29,50.31,119.3,50.13,119.3,50Z"/>
            <path class="cls-9" d="M125,51a2,2,0,0,1-.13.71,1.54,1.54,0,0,1-.35.51,1.62,1.62,0,0,1-.52.32,2,2,0,0,1-.65.1,1.84,1.84,0,0,1-1.1-.33,1.59,1.59,0,0,1-.6-1l1-.26a.93.93,0,0,0,.21.42.49.49,0,0,0,.4.16.45.45,0,0,0,.24-.06.65.65,0,0,0,.18-.15.88.88,0,0,0,.1-.22,1,1,0,0,0,0-.25.62.62,0,0,0-.19-.5.77.77,0,0,0-.52-.16h-.27v-.87h.3a.55.55,0,0,0,.45-.18.65.65,0,0,0,.16-.48.7.7,0,0,0-.11-.37.41.41,0,0,0-.37-.18.42.42,0,0,0-.33.14.89.89,0,0,0-.18.35l-1-.25a1.76,1.76,0,0,1,.26-.57,1.54,1.54,0,0,1,.37-.39,1.39,1.39,0,0,1,.46-.22,1.79,1.79,0,0,1,.51-.07,1.77,1.77,0,0,1,.56.09,1.4,1.4,0,0,1,.48.26,1.36,1.36,0,0,1,.35.44,1.52,1.52,0,0,1,.12.62,1.46,1.46,0,0,1-.19.78,1,1,0,0,1-.52.41v0a1.09,1.09,0,0,1,.6.43A1.37,1.37,0,0,1,125,51Z"/>
            <path class="cls-9" d="M127.69,52.56V48.71l-.78.59-.52-.91,1.43-1h1v5.22Z"/>
            <path class="cls-9" d="M134.17,50.83a2.22,2.22,0,0,1-.13.81,1.49,1.49,0,0,1-.35.57,1.44,1.44,0,0,1-.53.35,2,2,0,0,1-.64.11,1.68,1.68,0,0,1-1-.33,1.6,1.6,0,0,1-.59-1l1-.32a1,1,0,0,0,.2.44.44.44,0,0,0,.38.19.45.45,0,0,0,.41-.23,1.06,1.06,0,0,0,.13-.56.73.73,0,0,0-.22-.59.79.79,0,0,0-.54-.19,2.15,2.15,0,0,0-.53.07,2.6,2.6,0,0,0-.51.15l.11-3H134v1h-1.66l0,.9.2,0,.2,0a1.61,1.61,0,0,1,.63.12,1.29,1.29,0,0,1,.46.33,1.55,1.55,0,0,1,.29.52A2.07,2.07,0,0,1,134.17,50.83Z"/>
            <path class="cls-10" d="M45.8,46.76c-1.15,0-3.31-2-4.92-3.7a4.18,4.18,0,0,1-.18-5.6c1.63-1.86,3.9-3.65,5.09-3.65h0a3.61,3.61,0,0,1,3.61,3.61v5.72A3.63,3.63,0,0,1,45.8,46.76Z"/>
            <animateTransform
                attributeType="auto" attributeName="transform" type="translate"
                values="0 0; 0 -1.8; 0 0"
                dur="0.8s"
                begin="0"
                repeatCount="indefinite" />
        </g>
        <g>
            <circle class="cls-11" cx="35.96" cy="73.21" r="12.8"/>
            <path class="cls-12" d="M36,66a7.23,7.23,0,1,1-7.23,7.23A7.23,7.23,0,0,1,36,66Z"/>
        </g>   
        <g>
            <circle class="cls-13" cx="126.97" cy="73.21" r="12.8"/>
            <path class="cls-12" d="M127,66a7.23,7.23,0,1,1-7.23,7.23A7.23,7.23,0,0,1,127,66Z"/>
        </g>

</svg>