<svg xmlns="http://www.w3.org/2000/svg" viewBox="0 -2 150.14 110">
    <defs>
        <style>.cls-1{fill:#3787c5;stroke-width:1.85px;}.cls-1,.cls-2,.cls-3,.cls-5,.cls-8{stroke:#4d3224;}.cls-1,.cls-3{stroke-linecap:round;stroke-linejoin:round;}.cls-2{fill:#80d8d6;stroke-width:2.21px;}.cls-2,.cls-5,.cls-8{stroke-miterlimit:10;}.cls-3{fill:#47532a;stroke-width:2.31px;}.cls-4{fill:#4d3224;}.cls-5{fill:#ffefba;stroke-width:1.41px;}.cls-6{fill:#2f7ca6;}.cls-7{fill:#f5e69a;}.cls-8{fill:#b3b3b3;stroke-width:1.09px;}.cls-9{fill:#4e342e;}</style>
    </defs>
    <title>home-car-up04</title>
    <g class="car-body">
        <path class="cls-1" d="M51.73,64.26V33.53c0-7.35,0-9.59-9.11-9.59H31.91a8.3,8.3,0,0,0-3.77.9L10.38,33.77A9.55,9.55,0,0,0,5.32,41.2L1.17,74.44C0,83,3.11,85,10,85H149.16V64.26Z"/>
        <path class="cls-2" d="M35,31.67a1.45,1.45,0,0,0-2.09-1.29L13.31,38.74a6.11,6.11,0,0,0-3.22,4.72l-.87,7a1.45,1.45,0,0,0,1.44,1.62H33.6A1.45,1.45,0,0,0,35,50.67v-19Z"/>
        <path class="cls-3" d="M149,64.26H44.06V6.46a5.31,5.31,0,0,1,5.31-5.31h94.31A5.3,5.3,0,0,1,149,6.46Z"/>
        <path class="cls-4" d="M12.08,55.88c-.9,0-2.58-1.56-3.84-2.88a3.26,3.26,0,0,1-.14-4.37c1.27-1.46,3-2.85,4-2.85h0A2.83,2.83,0,0,1,14.9,48.6v4.46A2.84,2.84,0,0,1,12.08,55.88Z"/>
        <path class="cls-5" d="M2.53,67.74H7.4c4.34,0,5.45-1.23,6.34-3.47,0,0,2.15-4-3.25-4H4.65s-2.2-.07-2.22,2.81Z"/>
        <rect class="cls-6" x="44.42" y="69.04" width="100.27" height="1.73" rx="0.73" ry="0.73"/>
        <rect class="cls-6" x="44.42" y="75.02" width="100.27" height="1.73" rx="0.73" ry="0.73"/>
        <path class="cls-7" d="M102.43,52.07v5.74h-1.58V52.07h-1.3V50.71h4.18v1.36Z"/>
        <path class="cls-7" d="M109.74,52.93a2.67,2.67,0,0,1-.18,1,2.12,2.12,0,0,1-.48.71,1.89,1.89,0,0,1-.69.42,2.27,2.27,0,0,1-.77.13h-.69v2.59h-1.57v-7.1h2.2a2.56,2.56,0,0,1,.77.11,1.87,1.87,0,0,1,.7.36,1.83,1.83,0,0,1,.51.69A2.57,2.57,0,0,1,109.74,52.93Zm-1.51,0a.87.87,0,0,0-.23-.69.79.79,0,0,0-.56-.21h-.51v1.86h.51a.72.72,0,0,0,.56-.25A1,1,0,0,0,108.23,53Z"/>
        <path class="cls-7" d="M111.59,57.81v-7.1H115v1.41h-1.89v1.4h1.74v1.32h-1.74v1.52h2v1.45Z"/>
        <path class="cls-7" d="M116.74,55.63V54.44h1.92v1.19Z"/>
        <path class="cls-7" d="M124.91,54.26a9.08,9.08,0,0,1-.09,1.25,4.42,4.42,0,0,1-.35,1.2,2.36,2.36,0,0,1-.72.9,2.15,2.15,0,0,1-2.35,0,2.46,2.46,0,0,1-.72-.9,4.08,4.08,0,0,1-.34-1.2,8.73,8.73,0,0,1,0-2.5,4.08,4.08,0,0,1,.34-1.2,2.38,2.38,0,0,1,.72-.9,2.15,2.15,0,0,1,2.35,0,2.29,2.29,0,0,1,.72.9,4.42,4.42,0,0,1,.35,1.2A9.08,9.08,0,0,1,124.91,54.26Zm-1.6,0q0-.36,0-.75a4.25,4.25,0,0,0-.1-.75,2.25,2.25,0,0,0-.22-.56.44.44,0,0,0-.38-.23.46.46,0,0,0-.39.23,2.25,2.25,0,0,0-.22.56,5.45,5.45,0,0,0-.1.75q0,.39,0,.75c0,.24,0,.49,0,.76a5.3,5.3,0,0,0,.1.74,2.25,2.25,0,0,0,.22.56.45.45,0,0,0,.39.22.43.43,0,0,0,.38-.22,2.25,2.25,0,0,0,.22-.56,4.13,4.13,0,0,0,.1-.74C123.3,54.75,123.31,54.5,123.31,54.26Z"/>
        <path class="cls-7" d="M131,55.73a2.61,2.61,0,0,1-.17,1,2.14,2.14,0,0,1-.48.69,1.91,1.91,0,0,1-.71.43,2.5,2.5,0,0,1-.88.15,2.46,2.46,0,0,1-1.49-.45,2.1,2.1,0,0,1-.82-1.36l1.41-.36a1.18,1.18,0,0,0,.28.57.72.72,0,0,0,.55.23.58.58,0,0,0,.33-.09.61.61,0,0,0,.24-.21.87.87,0,0,0,.14-.29,1.27,1.27,0,0,0,0-.34.83.83,0,0,0-.27-.68,1.06,1.06,0,0,0-.71-.22h-.36V53.58h.4a.78.78,0,0,0,.62-.24,1,1,0,0,0,.22-.66,1,1,0,0,0-.16-.51.55.55,0,0,0-.5-.24.59.59,0,0,0-.45.19,1.54,1.54,0,0,0-.24.48l-1.37-.34a2.25,2.25,0,0,1,.85-1.31,2.43,2.43,0,0,1,.63-.3,2.72,2.72,0,0,1,.69-.09,2.42,2.42,0,0,1,.76.12,2.12,2.12,0,0,1,.66.36,1.72,1.72,0,0,1,.46.6,1.86,1.86,0,0,1,.18.84,1.91,1.91,0,0,1-.27,1.05,1.26,1.26,0,0,1-.7.57v0a1.36,1.36,0,0,1,.81.58A1.75,1.75,0,0,1,131,55.73Z"/>
        <path class="cls-7" d="M134.72,57.81V52.57l-1.06.81L133,52.13l1.94-1.42h1.41v7.1Z"/>
        <path class="cls-7" d="M143.53,55.45a3.06,3.06,0,0,1-.18,1.1,2.19,2.19,0,0,1-.48.78,1.84,1.84,0,0,1-.72.47,2.44,2.44,0,0,1-2.28-.29,2.22,2.22,0,0,1-.8-1.37l1.38-.43a1.38,1.38,0,0,0,.27.6.65.65,0,0,0,.52.26.63.63,0,0,0,.56-.31,1.47,1.47,0,0,0,.18-.76,1,1,0,0,0-.3-.81,1.13,1.13,0,0,0-.74-.26,3.36,3.36,0,0,0-.72.09,5.14,5.14,0,0,0-.69.22l.15-4h3.6V52.1H141L141,53.33a1,1,0,0,1,.28-.08.92.92,0,0,1,.26,0,2.13,2.13,0,0,1,.86.17,1.59,1.59,0,0,1,.63.45,2,2,0,0,1,.39.7A2.91,2.91,0,0,1,143.53,55.45Z"/>
        <animateTransform attributeType="auto" attributeName="transform" type="translate" values="0 0; 0 -1.8; 0 0" dur="0.8s" begin="0" repeatCount="indefinite" />

    </g>
    <g>
        <circle class="cls-4" cx="123.85" cy="88.58" r="14.47"/>
        <path class="cls-8" d="M123.85,80.4A8.18,8.18,0,1,0,132,88.58,8.18,8.18,0,0,0,123.85,80.4Z"/>
    </g>
    <g>
        <circle class="cls-9" cx="34.75" cy="87.43" r="14.47"/>
        <path class="cls-8" d="M34.75,79.25a8.18,8.18,0,1,0,8.18,8.18A8.18,8.18,0,0,0,34.75,79.25Z"/>
    </g>

</svg>