<svg xmlns="http://www.w3.org/2000/svg" viewBox="0 0 181.69 75.34"><defs><style>.cls-1,.cls-3{fill:#fff;}.cls-1,.cls-4{stroke:#4d3224;stroke-linecap:round;stroke-linejoin:round;}.cls-1{stroke-width:1.69px;}.cls-2{fill:#e9e9e7;opacity:0.5;}.cls-4{fill:#d75968;stroke-width:1.4px;}.cls-5{fill:#4d3224;}</style></defs><title>logo</title><g id="圖層_2" data-name="圖層 2"><g id="首頁"><polygon class="cls-1" points="7.82 22.92 0.84 74.5 46.08 67.73 89.61 74.16 133.63 68.35 177.05 74.02 180.84 23.36 139.31 15.86 93.95 21.75 50.33 14.37 7.82 22.92"/><polygon class="cls-2" points="50.33 15.16 46.08 66.95 89.61 73.38 93.95 22.54 50.33 15.16"/><polyline class="cls-2" points="139.31 16.65 180.34 24.15 176.3 73.53 133.63 67.56 139.31 15.86"/><circle class="cls-3" cx="14.76" cy="13.91" r="8.67"/><path class="cls-4" d="M27.63,15.28C27.3-3.1.5-5.2.87,15.28,1,24.93,14.13,35.73,14.13,35.73S27.8,24.93,27.63,15.28Zm-14.47,5.5a6.62,6.62,0,0,1-5-7.49,5.75,5.75,0,0,1,7.06-4.68,6.63,6.63,0,0,1,5,7.49A5.74,5.74,0,0,1,13.16,20.78Z"/><path class="cls-5" d="M30.33,55.14l2-13.92L26.49,55.14H22.24l.62-14-5.17,14H15.23l7.85-21.3a6.83,6.83,0,0,0-4.93,7,5.58,5.58,0,0,0,.06.91c0,.24.08.44.12.59a2.8,2.8,0,0,0,.14.39,2.15,2.15,0,0,1,.11.25,4,4,0,0,1-2.38-.64,2.45,2.45,0,0,1-.91-2.15,5.88,5.88,0,0,1,.88-3,10.56,10.56,0,0,1,2.26-2.67,12,12,0,0,1,3.14-1.9,9,9,0,0,1,3.49-.73,6.74,6.74,0,0,1,2.42.43l-.71,16.34,6.82-16.34h4.46L34.8,55.14Z"/><path class="cls-5" d="M49.54,43.52l-1.7,7.9a3.4,3.4,0,0,0-.09.75.83.83,0,0,0,.23.67,1.14,1.14,0,0,0,.73.19,1.48,1.48,0,0,0,1.15-.58A4.22,4.22,0,0,0,50.59,51h1a8.4,8.4,0,0,1-1.11,2.25,5.46,5.46,0,0,1-1.25,1.25A3.47,3.47,0,0,1,48,55a5.47,5.47,0,0,1-1.07.11,2.3,2.3,0,0,1-1.55-.51,2.33,2.33,0,0,1-.73-1.51,6.87,6.87,0,0,1-.6.79,4.66,4.66,0,0,1-.78.7,4.41,4.41,0,0,1-.94.49,3.45,3.45,0,0,1-1.14.18A3.34,3.34,0,0,1,40,55.09a2.77,2.77,0,0,1-1-.64,3.06,3.06,0,0,1-.7-1.15,5.27,5.27,0,0,1-.26-1.76,9.59,9.59,0,0,1,.17-1.7A11,11,0,0,1,38.7,48a10.33,10.33,0,0,1,.82-1.75,6.44,6.44,0,0,1,1.16-1.47,5.65,5.65,0,0,1,1.5-1A4.43,4.43,0,0,1,44,43.4a4.08,4.08,0,0,1,.59,0,1.56,1.56,0,0,1,.58.16,1.29,1.29,0,0,1,.47.37,1.44,1.44,0,0,1,.27.64l.23-1.09Zm-4.77,1.32a1.76,1.76,0,0,0-1.34.69,6,6,0,0,0-1,1.67,11.67,11.67,0,0,0-.65,2.1,9.74,9.74,0,0,0-.23,1.91,3.13,3.13,0,0,0,.13,1,1.25,1.25,0,0,0,.3.53.67.67,0,0,0,.37.21,1.59,1.59,0,0,0,.36,0,1.33,1.33,0,0,0,.55-.13,2.1,2.1,0,0,0,.57-.38,2.71,2.71,0,0,0,.49-.64,3.66,3.66,0,0,0,.32-.9l1.12-5.25a.69.69,0,0,0-.06-.25,1.18,1.18,0,0,0-.16-.29,1.11,1.11,0,0,0-.28-.24A.89.89,0,0,0,44.77,44.84Z"/><path class="cls-5" d="M57.29,46.73c0-.79-.28-1.19-.84-1.19a1.34,1.34,0,0,0-1.09.63,4.94,4.94,0,0,0-.73,1.51l-1.58,7.46H49.71l2.46-11.62h3.35l-.26,1.21a3.47,3.47,0,0,1,1.47-1.07A4.06,4.06,0,0,1,58,43.42a2.78,2.78,0,0,1,1.85.62,2.48,2.48,0,0,1,.73,2,7.48,7.48,0,0,1-.17,1.55c-.12.56-.24,1.12-.38,1.67s-.27,1.07-.39,1.56a5.86,5.86,0,0,0-.17,1.22,1.11,1.11,0,0,0,.2.71.84.84,0,0,0,.73.27,1.4,1.4,0,0,0,.66-.15,1.48,1.48,0,0,0,.51-.42,3.06,3.06,0,0,0,.41-.64c.12-.25.25-.53.37-.84h1a10.35,10.35,0,0,1-1.05,2.29,4.93,4.93,0,0,1-1.14,1.29,3,3,0,0,1-1.13.58,3.77,3.77,0,0,1-1,.14,3.28,3.28,0,0,1-1.29-.22,2.2,2.2,0,0,1-.85-.59,2.27,2.27,0,0,1-.46-.85,3.54,3.54,0,0,1-.14-1,7,7,0,0,1,.16-1.39c.11-.53.23-1.07.36-1.61s.25-1.08.36-1.6A6.61,6.61,0,0,0,57.29,46.73Z"/><path class="cls-5" d="M74.49,38.87,71.82,51.42a3.4,3.4,0,0,0-.09.75.8.8,0,0,0,.23.67,1.09,1.09,0,0,0,.72.19,1.46,1.46,0,0,0,1.15-.58A4.05,4.05,0,0,0,74.56,51h1a8.12,8.12,0,0,1-1.1,2.25,5.3,5.3,0,0,1-1.26,1.25,3.43,3.43,0,0,1-1.24.55,5.54,5.54,0,0,1-1.07.11,2.12,2.12,0,0,1-2.28-2,6,6,0,0,1-.61.79,4,4,0,0,1-.78.7,4.19,4.19,0,0,1-.94.49,3.64,3.64,0,0,1-2.29,0,3,3,0,0,1-1-.64,3.18,3.18,0,0,1-.69-1.15A5,5,0,0,1,62,51.54a9.53,9.53,0,0,1,.16-1.7,11.26,11.26,0,0,1,1.3-3.56,6.76,6.76,0,0,1,1.17-1.47,5.65,5.65,0,0,1,1.5-1A4.4,4.4,0,0,1,68,43.4a4.18,4.18,0,0,1,.59,0,1.67,1.67,0,0,1,.59.16,1.17,1.17,0,0,1,.72,1l1.14-5.3Zm-5.74,6a1.76,1.76,0,0,0-1.35.69,6.2,6.2,0,0,0-1,1.67,10.92,10.92,0,0,0-.65,2.1,9.11,9.11,0,0,0-.24,1.91,3.42,3.42,0,0,0,.13,1,1.51,1.51,0,0,0,.3.53.69.69,0,0,0,.38.21,1.59,1.59,0,0,0,.36,0,1.25,1.25,0,0,0,.54-.13,1.83,1.83,0,0,0,.57-.38,2.47,2.47,0,0,0,.49-.64,3.66,3.66,0,0,0,.33-.9l1.11-5.23a1.22,1.22,0,0,0-.19-.56A.82.82,0,0,0,68.75,44.84Z"/><path class="cls-5" d="M79.49,43.52l-1.67,7.9a2.25,2.25,0,0,0-.07.58,1.61,1.61,0,0,0,.15.71.55.55,0,0,0,.55.32,1.43,1.43,0,0,0,1.14-.58A4.21,4.21,0,0,0,80.31,51l1.58-7.46h3.37L82.42,57a6.13,6.13,0,0,1-.73,2,4.21,4.21,0,0,1-1.07,1.2,3.5,3.5,0,0,1-1.22.58,5.2,5.2,0,0,1-1.21.15,2.92,2.92,0,0,1-1-.18,2.38,2.38,0,0,1-.87-.51,2.43,2.43,0,0,1-.62-.8,2.18,2.18,0,0,1-.23-1,2.79,2.79,0,0,1,.31-1.38,3,3,0,0,1,.86-.94,5.9,5.9,0,0,1,1.28-.65c.49-.18,1-.35,1.57-.52l.23-1A3.44,3.44,0,0,1,78.21,55a4.37,4.37,0,0,1-1.34.24,2.52,2.52,0,0,1-1.77-.66,2.77,2.77,0,0,1-.72-2.13A7.74,7.74,0,0,1,74.56,51l1.59-7.46Zm-2.76,14.6a.74.74,0,0,0,.26.51.94.94,0,0,0,.67.26,1.1,1.1,0,0,0,.74-.39A2.94,2.94,0,0,0,79,57.07l.28-1.37a10,10,0,0,0-1,.41,4,4,0,0,0-.81.51,2.45,2.45,0,0,0-.55.66A1.79,1.79,0,0,0,76.73,58.12Z"/><path class="cls-5" d="M98.73,34.8,96.52,45.16a4.17,4.17,0,0,0,2.17-.82,7.2,7.2,0,0,0,1.73-1.83,9.31,9.31,0,0,0,1.13-2.45,9.17,9.17,0,0,0,.4-2.65,6,6,0,0,0-.2-1.55,3.19,3.19,0,0,0-2-2.2,5.83,5.83,0,0,0-2.16-.34,8.39,8.39,0,0,0-2.89.49,7,7,0,0,0-2.4,1.44,6.82,6.82,0,0,0-1.63,2.36A8.13,8.13,0,0,0,90,40.82a7.57,7.57,0,0,0,0,.94,4.31,4.31,0,0,0,.12.59,1,1,0,0,0,.15.36l.15.25a4.09,4.09,0,0,1-2.44-.64,2.56,2.56,0,0,1-.88-2.21,5.72,5.72,0,0,1,1-3.14,9.8,9.8,0,0,1,2.53-2.62,13,13,0,0,1,3.57-1.79,12.54,12.54,0,0,1,4-.67,8.74,8.74,0,0,1,3.13.51,6.6,6.6,0,0,1,2.22,1.35,5.36,5.36,0,0,1,1.32,2,6.38,6.38,0,0,1,.43,2.33,7.56,7.56,0,0,1-.62,2.93A8.64,8.64,0,0,1,103,43.63a8.87,8.87,0,0,1-2.83,1.93,9.11,9.11,0,0,1-3.76.75h-.15l-1.9,8.83H89.89l4.23-19.72Z"/><path class="cls-5" d="M110.53,43.4c2,0,3,1.22,3,3.65a.9.9,0,0,0,.25,0,3.59,3.59,0,0,0,.88-.11,6.25,6.25,0,0,0,1-.32,8,8,0,0,0,.93-.45c.3-.17.58-.34.83-.51l.21.63a5.72,5.72,0,0,1-1.76,1.22,9.24,9.24,0,0,1-2.34.71,10.78,10.78,0,0,1-.63,2.93,7.62,7.62,0,0,1-1.23,2.22,5.28,5.28,0,0,1-1.7,1.41,4.42,4.42,0,0,1-2,.48,5.5,5.5,0,0,1-1.5-.19,2.87,2.87,0,0,1-1.94-1.78,4.52,4.52,0,0,1-.28-1.7,10.21,10.21,0,0,1,.14-1.54,10.46,10.46,0,0,1,.45-1.77,10.25,10.25,0,0,1,.81-1.79,6.57,6.57,0,0,1,1.19-1.57,5.62,5.62,0,0,1,1.64-1.12A5.17,5.17,0,0,1,110.53,43.4Zm-1.72,9.7a1.34,1.34,0,0,0,.85-.36,3.6,3.6,0,0,0,.79-1,8.49,8.49,0,0,0,.64-1.53,10.6,10.6,0,0,0,.42-1.9A.68.68,0,0,1,111,48a1.38,1.38,0,0,1-.13-.62,1.48,1.48,0,0,1,.2-.8,1,1,0,0,1,.52-.43,2.14,2.14,0,0,0-.24-1,.71.71,0,0,0-.64-.29,1.54,1.54,0,0,0-1.19.68,6.74,6.74,0,0,0-1,1.68,12.47,12.47,0,0,0-.68,2.09,8.83,8.83,0,0,0-.25,2,6.23,6.23,0,0,0,.05.95,1.52,1.52,0,0,0,.2.57.76.76,0,0,0,.37.29A1.84,1.84,0,0,0,108.81,53.1Z"/><path class="cls-5" d="M119.62,43.52,119.3,45a9,9,0,0,1,1.41-1.11,2.64,2.64,0,0,1,1.43-.47,1.4,1.4,0,0,1,1.19.54,1.88,1.88,0,0,1,.41,1.2,1.73,1.73,0,0,1-.42,1.16,1.58,1.58,0,0,1-.52.39,1.67,1.67,0,0,1-.73.15.82.82,0,0,1-.67-.23,1.65,1.65,0,0,1-.24-.5c0-.18-.09-.35-.13-.5a.28.28,0,0,0-.31-.23,1.5,1.5,0,0,0-.84.25,7.22,7.22,0,0,0-.86.68l-1.86,8.83h-3.35l2.47-11.62Z"/><path class="cls-5" d="M129.16,39.84l-.79,3.68h1.39l-.18.93h-1.4l-1.49,7a3.4,3.4,0,0,0-.09.75.83.83,0,0,0,.23.67,1.13,1.13,0,0,0,.72.19,1.8,1.8,0,0,0,1.26-.58,3.34,3.34,0,0,0,.84-1.47h1a7.74,7.74,0,0,1-1.14,2.27,5.75,5.75,0,0,1-1.32,1.3,3.82,3.82,0,0,1-1.32.59,4.79,4.79,0,0,1-1.1.14,2.52,2.52,0,0,1-1.77-.66,2.77,2.77,0,0,1-.72-2.13,7.13,7.13,0,0,1,.19-1.51l1.39-6.53h-.76l.18-.93H125l.7-3.21Z"/><path class="cls-5" d="M137.44,41.19c0-.12,0-.23,0-.32s0-.2,0-.31a.68.68,0,0,0-.26-.59,1,1,0,0,0-.62-.2,1.31,1.31,0,0,0-.88.37,2,2,0,0,0-.43.59,3.5,3.5,0,0,0-.32,1l-.39,1.84h1.7l-.17.93h-1.72L131.72,57a6.38,6.38,0,0,1-.72,2,4.16,4.16,0,0,1-1.05,1.2,3.5,3.5,0,0,1-1.2.58,5.06,5.06,0,0,1-1.2.15,3,3,0,0,1-1-.18,2.47,2.47,0,0,1-.87-.51,2.57,2.57,0,0,1-.62-.8,2.31,2.31,0,0,1-.23-1,2.7,2.7,0,0,1,.31-1.35,2.86,2.86,0,0,1,.86-.94,6.08,6.08,0,0,1,1.27-.67c.48-.18,1-.36,1.56-.53l2.81-13.28a6.06,6.06,0,0,1,.74-2,3.94,3.94,0,0,1,1.07-1.2,3.33,3.33,0,0,1,1.22-.58,5.2,5.2,0,0,1,1.21-.15,3,3,0,0,1,1,.17,2.67,2.67,0,0,1,1.49,1.31,2.36,2.36,0,0,1,.23,1,5.49,5.49,0,0,1-.07.95ZM126.09,58.12a.72.72,0,0,0,.27.51.93.93,0,0,0,.66.26,1,1,0,0,0,.73-.39,3.17,3.17,0,0,0,.6-1.43l.3-1.34a10.08,10.08,0,0,0-1,.4,4.38,4.38,0,0,0-.8.5,2.33,2.33,0,0,0-.53.65A1.8,1.8,0,0,0,126.09,58.12Z"/><path class="cls-5" d="M141.9,43.4q2.94,0,3,3.65a.94.94,0,0,0,.26,0A3.57,3.57,0,0,0,146,47a5.9,5.9,0,0,0,1-.32,8,8,0,0,0,.93-.45c.3-.17.58-.34.83-.51l.21.63a5.72,5.72,0,0,1-1.76,1.22,9.24,9.24,0,0,1-2.34.71,11.17,11.17,0,0,1-.62,2.93A7.87,7.87,0,0,1,143,53.39a5.28,5.28,0,0,1-1.7,1.41,4.39,4.39,0,0,1-2,.48,5.5,5.5,0,0,1-1.5-.19,3,3,0,0,1-1.17-.64,3.1,3.1,0,0,1-.77-1.14,4.52,4.52,0,0,1-.28-1.7,10.21,10.21,0,0,1,.14-1.54,10.46,10.46,0,0,1,.45-1.77,10.25,10.25,0,0,1,.81-1.79,6.57,6.57,0,0,1,1.19-1.57,5.62,5.62,0,0,1,1.64-1.12A5.17,5.17,0,0,1,141.9,43.4Zm-1.72,9.7a1.34,1.34,0,0,0,.85-.36,3.6,3.6,0,0,0,.79-1,8.49,8.49,0,0,0,.64-1.53,10.6,10.6,0,0,0,.42-1.9.68.68,0,0,1-.5-.36,1.38,1.38,0,0,1-.13-.62,1.48,1.48,0,0,1,.2-.8,1,1,0,0,1,.52-.43,2.14,2.14,0,0,0-.24-1,.71.71,0,0,0-.64-.29,1.54,1.54,0,0,0-1.19.68,7.07,7.07,0,0,0-1,1.68,12.47,12.47,0,0,0-.68,2.09,8.83,8.83,0,0,0-.25,2,7.87,7.87,0,0,0,.05.95,1.52,1.52,0,0,0,.2.57.8.8,0,0,0,.37.29A1.89,1.89,0,0,0,140.18,53.1Z"/><path class="cls-5" d="M152,38.87l-2.68,12.55a3.4,3.4,0,0,0-.09.75.83.83,0,0,0,.23.67,1.13,1.13,0,0,0,.72.19,1.8,1.8,0,0,0,1.26-.58,3.55,3.55,0,0,0,.84-1.47h1a7.74,7.74,0,0,1-1.14,2.27,5.75,5.75,0,0,1-1.32,1.3,3.82,3.82,0,0,1-1.32.59,4.79,4.79,0,0,1-1.1.14,2.52,2.52,0,0,1-1.77-.66,2.77,2.77,0,0,1-.72-2.13,7.13,7.13,0,0,1,.19-1.51l2.48-11.65Z"/><path class="cls-5" d="M157.2,43.52l-1.67,7.9a3.4,3.4,0,0,0-.09.75.8.8,0,0,0,.23.67,1.09,1.09,0,0,0,.72.19,1.8,1.8,0,0,0,1.26-.58,3.43,3.43,0,0,0,.83-1.47h1a8,8,0,0,1-1.14,2.27,5.75,5.75,0,0,1-1.32,1.3,3.82,3.82,0,0,1-1.32.59,4.85,4.85,0,0,1-1.1.14,2.52,2.52,0,0,1-1.77-.66,2.77,2.77,0,0,1-.72-2.13,7.13,7.13,0,0,1,.19-1.51l1.58-7.46Zm-2.88-3.1a1.79,1.79,0,0,1,.54-1.31,1.76,1.76,0,0,1,1.3-.55,1.8,1.8,0,0,1,1.31.55,1.84,1.84,0,0,1,0,2.62,1.82,1.82,0,0,1-1.31.53,1.83,1.83,0,0,1-1.84-1.84Z"/><path class="cls-5" d="M164.53,43.4c1.8,0,2.78,1,2.95,3.05a1.4,1.4,0,0,0,.54-.28,2.79,2.79,0,0,0,.45-.46c.13-.16.25-.32.35-.47l.25-.4h.74a15.65,15.65,0,0,1-.9,1.65,3.93,3.93,0,0,1-1.45,1.44,10.82,10.82,0,0,1-.57,3.06,8.07,8.07,0,0,1-1.22,2.32A5.39,5.39,0,0,1,164,54.77a4.4,4.4,0,0,1-2.07.51,5.5,5.5,0,0,1-1.5-.19,2.87,2.87,0,0,1-1.94-1.78,4.52,4.52,0,0,1-.28-1.7,9.05,9.05,0,0,1,.14-1.54,10.46,10.46,0,0,1,.45-1.77,11,11,0,0,1,.8-1.79,6.88,6.88,0,0,1,1.2-1.57,5.49,5.49,0,0,1,1.64-1.12A5.14,5.14,0,0,1,164.53,43.4Zm-1.72,9.7a1.34,1.34,0,0,0,.85-.36,3.6,3.6,0,0,0,.79-1,8.57,8.57,0,0,0,.64-1.51,13,13,0,0,0,.42-1.9c-.42-.11-.63-.46-.63-1.07a1.51,1.51,0,0,1,.2-.8,1,1,0,0,1,.52-.43,2,2,0,0,0-.24-1,.76.76,0,0,0-.64-.27,1.54,1.54,0,0,0-1.19.68,7.08,7.08,0,0,0-1,1.68,12.45,12.45,0,0,0-.67,2.09,8.9,8.9,0,0,0-.26,2,6,6,0,0,0,.06.95,1.52,1.52,0,0,0,.2.57.76.76,0,0,0,.37.29A1.84,1.84,0,0,0,162.81,53.1Z"/></g></g></svg>