<svg xmlns="http://www.w3.org/2000/svg" viewBox="0 0 67.17 67.17"><defs><style>.cls-1,.cls-5{fill:#fff;}.cls-1,.cls-2,.cls-3{stroke:#4d3224;stroke-linecap:round;stroke-linejoin:round;}.cls-1{stroke-width:2.17px;}.cls-2,.cls-4{fill:#4d3224;}.cls-2,.cls-3{stroke-width:2px;}.cls-3{fill:none;}</style></defs><title>資產 25</title><g id="圖層_2" data-name="圖層 2"><g id="首頁"><polygon class="cls-1" points="62.02 66.08 1.08 66.08 5.15 1.08 66.08 1.08 62.02 66.08"/><polygon class="cls-2" points="10.1 24.35 33.63 30.04 33.99 20.43 10.1 24.35"/><polygon class="cls-3" points="57.89 26.12 33.99 30.04 34.35 20.44 57.89 26.12"/><polygon class="cls-4" points="2.58 46.42 62.25 46.42 62.02 66.08 1.08 66.08 2.58 46.42"/><path class="cls-5" d="M19.45,62.23l1-7.18-3,7.18H15.28L15.6,55l-2.67,7.21H11.66l4.05-11a3.52,3.52,0,0,0-2.54,3.6,3,3,0,0,0,0,.47c0,.13,0,.23.06.31s.05.14.07.2a.49.49,0,0,1,.06.13,2.08,2.08,0,0,1-1.23-.33,1.26,1.26,0,0,1-.46-1.11A3,3,0,0,1,12.15,53a5.61,5.61,0,0,1,1.16-1.38,6.31,6.31,0,0,1,1.62-1,4.74,4.74,0,0,1,1.81-.38,3.45,3.45,0,0,1,1.24.23l-.36,8.43,3.51-8.43h2.31L21.76,62.23Z"/><path class="cls-5" d="M27.44,59.64a1.42,1.42,0,0,0,.29,1.08,1.22,1.22,0,0,0,.86.27,2.83,2.83,0,0,0,.86-.13,3,3,0,0,0,.72-.35,3.41,3.41,0,0,0,.64-.51c.21-.2.41-.41.61-.63H32a9.82,9.82,0,0,1-.77,1.09,6.23,6.23,0,0,1-1,.94,4.69,4.69,0,0,1-1.2.67,4,4,0,0,1-1.45.26,2.72,2.72,0,0,1-1.83-.59,2.46,2.46,0,0,1-.69-2,7.22,7.22,0,0,1,.1-1.06,7.47,7.47,0,0,1,.3-1.22A6.83,6.83,0,0,1,26,56.29a5.13,5.13,0,0,1,.82-1.08,3.67,3.67,0,0,1,1.12-.77,3.51,3.51,0,0,1,1.45-.29,2.68,2.68,0,0,1,.88.13,1.33,1.33,0,0,1,.54.35,1.15,1.15,0,0,1,.27.48,2.25,2.25,0,0,1,.07.58,2.72,2.72,0,0,1-.3,1.26A3.4,3.4,0,0,1,30,58a4.28,4.28,0,0,1-1.17.7,4.33,4.33,0,0,1-1.38.31c0,.12,0,.23,0,.34S27.44,59.55,27.44,59.64Zm2.46-4a1.08,1.08,0,0,0-.09-.48A.31.31,0,0,0,29.5,55a.84.84,0,0,0-.59.28,3.73,3.73,0,0,0-.54.74,6.52,6.52,0,0,0-.46,1,11.77,11.77,0,0,0-.33,1.16,2.16,2.16,0,0,0,.89-.25,2.76,2.76,0,0,0,.74-.57,2.53,2.53,0,0,0,.51-.81A2.48,2.48,0,0,0,29.9,55.67Z"/><path class="cls-5" d="M37.61,56.44q0-.81-.57-.81a.91.91,0,0,0-.75.43,3.14,3.14,0,0,0-.5,1L34.7,62.23H32.4l1.69-8H36.4l-.18.84a2.39,2.39,0,0,1,1-.74,2.78,2.78,0,0,1,.86-.16,1.93,1.93,0,0,1,1.28.42,1.76,1.76,0,0,1,.5,1.39A5.29,5.29,0,0,1,39.75,57c-.08.39-.17.78-.26,1.15s-.19.74-.27,1.08a3.67,3.67,0,0,0-.12.84.78.78,0,0,0,.14.48.57.57,0,0,0,.5.19,1,1,0,0,0,.46-.11,1,1,0,0,0,.35-.28,3,3,0,0,0,.28-.44c.09-.17.17-.37.26-.58h.67A7.66,7.66,0,0,1,41,61a3.47,3.47,0,0,1-.79.88,2,2,0,0,1-.77.4,2.57,2.57,0,0,1-.7.1,2.33,2.33,0,0,1-.89-.15,1.56,1.56,0,0,1-.58-.41,1.44,1.44,0,0,1-.32-.58,2.53,2.53,0,0,1-.1-.67,4.63,4.63,0,0,1,.12-1q.1-.55.24-1.11c.09-.38.18-.74.25-1.1A4.22,4.22,0,0,0,37.61,56.44Z"/><path class="cls-5" d="M46.08,54.23l-1.15,5.44a1.37,1.37,0,0,0,0,.4,1.07,1.07,0,0,0,.1.49.38.38,0,0,0,.38.22,1,1,0,0,0,.78-.4,2.81,2.81,0,0,0,.5-1l1.09-5.14H50l-1.15,5.44a2,2,0,0,0-.07.52.58.58,0,0,0,.16.46.79.79,0,0,0,.5.13,1.17,1.17,0,0,0,.32,0l.21-.07a1.65,1.65,0,0,1-.59,1.26,2,2,0,0,1-1.19.39,1.46,1.46,0,0,1-1.08-.4,1.85,1.85,0,0,1-.49-1.12,3.55,3.55,0,0,1-.61.79,2.8,2.8,0,0,1-.63.46,2,2,0,0,1-.6.21,2.62,2.62,0,0,1-.54.06,1.72,1.72,0,0,1-1.22-.46,1.89,1.89,0,0,1-.49-1.46,4.89,4.89,0,0,1,.13-1l1.08-5.14Z"/><rect class="cls-4" x="3.92" y="22.08" width="2" height="4" transform="translate(29 19.17) rotate(90)"/><rect class="cls-4" x="62.25" y="23.75" width="2" height="4" transform="translate(89 -37.5) rotate(90)"/><polygon class="cls-4" points="35.75 3.92 33.75 3.92 33.92 0.08 35.92 0.08 35.75 3.92"/><polygon class="cls-4" points="33.83 48.08 31.83 48.08 32 44.25 34 44.25 33.83 48.08"/></g></g></svg>